<svg width="145" height="138" viewBox="0 0 145 138" fill="none" xmlns="http://www.w3.org/2000/svg">
<mask id="mask0" mask-type="alpha" maskUnits="userSpaceOnUse" x="16" y="18" width="113" height="101">
<path d="M104.575 116.726C109.554 114.905 113.497 111.982 116.236 108.189L123.686 97.8728C126.425 94.08 127.96 89.4177 128.123 84.1188C128.28 79.0069 127.16 73.3026 124.611 67.2149C122.063 61.1272 118.324 55.2221 113.735 49.7465C108.979 44.0705 103.31 38.856 97.1086 34.3779C90.9076 29.8998 84.1748 26.1582 77.2909 23.428C70.6501 20.7942 63.8686 19.1016 57.2885 18.5972C50.7083 18.0929 44.9412 18.8235 40.1381 20.5801C35.1591 22.401 31.2161 25.3243 28.4771 29.1171L21.0271 39.4334C18.2881 43.2262 16.7532 47.8885 16.5905 53.1875C16.4335 58.2993 17.5536 64.0036 20.1017 70.0913C22.6499 76.179 26.3892 82.0841 30.9778 87.5597C35.7343 93.2357 41.4035 98.4502 47.6045 102.928C53.8055 107.406 60.5383 111.148 67.4222 113.878C74.0631 116.512 80.8445 118.205 87.4247 118.709C94.0048 119.213 99.772 118.483 104.575 116.726Z" fill="black"/>
</mask>
<g mask="url(#mask0)">
<path d="M103.604 118.07C108.583 116.249 112.526 113.326 115.265 109.533L123.686 97.8728C126.425 94.08 127.96 89.4177 128.123 84.1188C128.28 79.0069 127.16 73.3026 124.611 67.2149C122.063 61.1272 118.324 55.2221 113.735 49.7465C108.979 44.0705 103.31 38.856 97.1086 34.3779C90.9076 29.8998 84.1748 26.1582 77.2909 23.428C70.6501 20.7942 63.8686 19.1016 57.2885 18.5972C50.7083 18.0929 44.9412 18.8235 40.1381 20.5801C35.1591 22.401 31.2161 25.3243 28.4771 29.1171L20.0564 40.7776C17.3174 44.5704 15.7824 49.2327 15.6197 54.5317C15.4628 59.6435 16.5829 65.3479 19.131 71.4355C21.6791 77.5232 25.4185 83.4283 30.0071 88.9039C34.7636 94.5799 40.4328 99.7945 46.6338 104.273C52.8348 108.751 59.5676 112.492 66.4515 115.222C73.0923 117.856 79.8738 119.549 86.4539 120.053C93.0341 120.558 98.8012 119.827 103.604 118.07Z" fill="#E88225"/>
<path d="M103.566 118.123C108.545 116.302 112.488 113.378 115.227 109.586L123.648 97.9252C120.909 101.718 116.966 104.641 111.987 106.462C107.184 108.219 101.417 108.949 94.8366 108.445C88.2565 107.941 81.475 106.248 74.8342 103.614C67.9503 100.884 61.2175 97.1425 55.0165 92.6644C48.8155 88.1863 43.1463 82.9718 38.3898 77.2957C33.8012 71.8201 30.0619 65.915 27.5137 59.8274C24.9656 53.7397 23.8455 48.0354 24.0024 42.9235C24.1651 37.6246 25.7001 32.9622 28.4391 29.1694L20.0184 40.8299C17.2794 44.6227 15.7444 49.2851 15.5817 54.584C15.4248 59.6959 16.5449 65.4002 19.093 71.4879C21.6412 77.5755 25.3805 83.4806 29.9691 88.9562C34.7256 94.6322 40.3948 99.8468 46.5958 104.325C52.7968 108.803 59.5296 112.545 66.4135 115.275C73.0544 117.909 79.8358 119.601 86.416 120.106C92.9961 120.61 98.7633 119.879 103.566 118.123Z" fill="url(#paint0_linear)" fill-opacity="0.48" style="mix-blend-mode:overlay"/>
<path d="M40.1381 20.5801C35.1591 22.401 31.2161 25.3243 28.4771 29.1171C25.7381 32.9099 24.2031 37.5722 24.0404 42.8712C23.8835 47.983 25.0036 53.6874 27.5517 59.775C30.0998 65.8627 33.8391 71.7678 38.4278 77.2434C43.1843 82.9194 48.8535 88.134 55.0545 92.6121C61.2555 97.0901 67.9883 100.832 74.8722 103.562C81.513 106.196 88.2945 107.888 94.8746 108.393C101.455 108.897 107.222 108.166 112.025 106.41C117.004 104.589 120.947 101.666 123.686 97.8728C126.425 94.08 127.96 89.4177 128.123 84.1188C128.28 79.0069 127.16 73.3026 124.611 67.2149C122.063 61.1272 118.324 55.2221 113.735 49.7465C108.979 44.0705 103.31 38.856 97.1086 34.3779C90.9076 29.8998 84.1748 26.1581 77.2909 23.428C70.6501 20.7942 63.8686 19.1016 57.2885 18.5972C50.7083 18.0929 44.9412 18.8235 40.1381 20.5801Z" fill="white" fill-opacity="0.4" style="mix-blend-mode:overlay"/>
<g style="mix-blend-mode:overlay">
<path d="M105.378 60.0692L102.143 61.0618C101.172 61.3417 100.204 61.1331 99.2383 60.4361C98.8706 60.1706 98.6279 59.974 98.5103 59.8463C97.81 59.1699 97.23 58.6657 96.7703 58.3338C95.2076 57.2052 93.6091 57.2883 91.9748 58.583L89.2721 60.7277L92.7883 63.2669C93.5237 63.798 94.0328 64.4003 94.3156 65.0739C94.5984 65.7476 94.5778 66.3087 94.2537 66.7574L92.3094 69.4498C91.9854 69.8985 91.4592 70.0946 90.7308 70.0379C90.0024 69.9813 89.2705 69.6875 88.5351 69.1564L83.3643 65.4222L68.8764 76.914C66.1453 78.9527 63.5933 79.9688 61.2204 79.962C58.8733 80.0165 56.114 78.8986 52.9425 76.6084C50.0009 74.484 47.6085 72.1803 45.7652 69.6971C45.0228 68.6915 44.8744 67.8802 45.3199 67.2633C45.4414 67.095 45.7487 66.9115 46.2418 66.7129L49.1865 65.8311C50.0714 65.574 50.9735 65.7775 51.8928 66.4413C52.0766 66.5741 52.5059 66.9481 53.1805 67.5633C53.8809 68.2397 54.3689 68.6775 54.6447 68.8767C55.3342 69.3746 56.0735 69.6098 56.8626 69.5823C57.6517 69.5547 58.3509 69.3129 58.96 68.8567L72.8847 57.8544L68.9549 55.0164C68.2195 54.4853 67.7104 53.883 67.4276 53.2094C67.1448 52.5358 67.1654 51.9746 67.4894 51.5259L69.4337 48.8335C69.7578 48.3848 70.284 48.1888 71.0124 48.2454C71.7407 48.302 72.4726 48.5958 73.208 49.1269L78.7925 53.1598L81.9065 50.7361C84.8254 48.5342 87.6036 47.4469 90.2414 47.4742C92.8791 47.5016 95.8526 48.7101 99.162 51.1C101.506 52.7928 103.648 54.7661 105.587 57.0198C106.421 58.0917 106.626 58.9222 106.2 59.5111C105.977 59.8196 105.703 60.0056 105.378 60.0692Z" fill="#2C2C2C"/>
<path d="M45.9593 60.9853C44.6312 60.8821 43.4562 60.0504 43.0193 58.792C41.3869 54.0905 41.0406 49.6221 42.026 45.7725C43.1519 41.3737 45.9726 37.9543 50.1762 35.8924C54.3797 33.8304 59.8025 33.2062 65.8448 34.0887C71.1608 34.8651 76.7741 36.7812 82.2011 39.6596C83.4903 40.3434 84.0242 41.894 83.4945 43.2538C82.832 44.9544 80.8082 45.6522 79.1667 44.8544C75.5393 43.0915 71.8349 41.9061 68.3053 41.3906C63.7736 40.7287 59.7065 41.1968 56.5538 42.7433C53.4011 44.2898 51.2856 46.8543 50.4412 50.1534C49.9937 51.9018 49.9124 53.8203 50.1897 55.8448C50.5509 58.4811 48.6122 61.1915 45.9593 60.9853Z" fill="#2C2C2C"/>
<path d="M105.787 65.876C107.115 65.9793 108.29 66.811 108.727 68.0694C110.359 72.7708 110.705 77.2393 109.72 81.0889C108.594 85.4876 105.774 88.907 101.57 90.969C97.3664 93.031 91.9436 93.6552 85.9013 92.7727C80.5853 91.9962 74.972 90.0802 69.545 87.2018C68.2558 86.518 67.7219 84.9674 68.2516 83.6075C68.9141 81.9069 70.9379 81.2091 72.5794 82.0069C76.2068 83.7699 79.9112 84.9553 83.4408 85.4708C87.9725 86.1327 92.0396 85.6645 95.1923 84.118C98.345 82.5716 100.46 80.007 101.305 76.7079C101.752 74.9596 101.834 73.0411 101.556 71.0166C101.195 68.3803 103.134 65.6698 105.787 65.876Z" fill="#2C2C2C"/>
</g>
<path d="M39.7026 19.0288C34.7236 20.8497 30.6746 26.074 27.9356 29.8668C25.1966 33.6597 23.6617 38.322 23.499 43.6209C23.342 48.7328 24.4621 54.4371 27.0103 60.5248C29.5584 66.6125 33.2977 72.5175 37.8863 77.9932C42.6429 83.6692 48.312 88.8837 54.513 93.3618C60.714 97.8399 67.4469 101.582 74.3308 104.312C80.9716 106.946 87.753 108.638 94.3332 109.142C100.913 109.647 106.681 108.916 111.484 107.16C116.463 105.339 120.406 102.415 123.145 98.6226C125.884 94.8298 129.466 89.5133 129.629 84.2143" stroke="#E88225" stroke-width="0.523478" stroke-linecap="round" stroke-linejoin="round"/>
<path d="M39.7026 19.0288C34.7236 20.8497 30.6746 26.074 27.9356 29.8668C25.1966 33.6597 23.6617 38.322 23.499 43.6209C23.342 48.7328 24.4621 54.4371 27.0103 60.5248C29.5584 66.6125 33.2977 72.5175 37.8863 77.9932C42.6429 83.6692 48.312 88.8837 54.513 93.3618C60.714 97.8399 67.4469 101.582 74.3308 104.312C80.9716 106.946 87.753 108.638 94.3332 109.142C100.913 109.647 106.681 108.916 111.484 107.16C116.463 105.339 120.406 102.415 123.145 98.6226C125.884 94.8298 129.466 89.5133 129.629 84.2143" stroke="white" stroke-opacity="0.64" stroke-width="0.523478" style="mix-blend-mode:overlay"/>
</g>
<defs>
<linearGradient id="paint0_linear" x1="28.4391" y1="29.1694" x2="123.648" y2="97.9252" gradientUnits="userSpaceOnUse">
<stop stop-opacity="0.5"/>
<stop offset="0.515625" stop-opacity="0"/>
<stop offset="1"/>
</linearGradient>
</defs>
</svg>
