<svg width="177" height="158" viewBox="0 0 177 158" fill="none" xmlns="http://www.w3.org/2000/svg">
<mask id="mask0" mask-type="alpha" maskUnits="userSpaceOnUse" x="16" y="20" width="145" height="117">
<path d="M159.909 72.3948C160.915 65.8905 160.101 59.8514 157.621 54.5998L150.873 40.3158C148.392 35.0642 144.244 30.6002 138.581 27.2463C133.118 24.0107 126.246 21.8082 118.1 20.9283C109.954 20.0483 101.293 20.5727 92.5895 22.2779C83.5673 24.0455 74.4996 27.0819 65.9137 31.1379C57.3277 35.194 49.2235 40.2697 42.1281 46.1161C35.2834 51.7561 29.3775 58.1133 24.8839 64.964C20.3904 71.8148 17.7269 78.5222 16.7566 84.7968C15.7508 91.301 16.5645 97.3402 19.0454 102.592L25.7933 116.876C28.2741 122.127 32.4222 126.591 38.085 129.945C43.5479 133.181 50.4205 135.383 58.5661 136.263C66.7117 137.143 75.3729 136.619 84.0765 134.914C93.0987 133.146 102.166 130.11 110.752 126.054C119.338 121.998 127.443 116.922 134.538 111.075C141.383 105.435 147.289 99.0783 151.782 92.2275C156.276 85.3768 158.939 78.6694 159.909 72.3948Z" fill="black"/>
</mask>
<g mask="url(#mask0)">
<path d="M160.789 74.256C161.794 67.7518 160.981 61.7126 158.5 56.461L150.873 40.3158C148.392 35.0642 144.244 30.6002 138.581 27.2463C133.118 24.0107 126.246 21.8082 118.1 20.9283C109.954 20.0483 101.293 20.5727 92.5895 22.2779C83.5673 24.0455 74.4996 27.0819 65.9137 31.1379C57.3277 35.194 49.2235 40.2697 42.1281 46.1161C35.2834 51.7561 29.3775 58.1133 24.8839 64.964C20.3904 71.8148 17.7269 78.5222 16.7566 84.7968C15.7508 91.301 16.5646 97.3402 19.0454 102.592L26.6725 118.737C29.1534 123.989 33.3014 128.453 38.9642 131.807C44.4271 135.042 51.2997 137.245 59.4453 138.124C67.5909 139.004 76.2522 138.48 84.9558 136.775C93.978 135.007 103.046 131.971 111.632 127.915C120.218 123.859 128.322 118.783 135.417 112.937C142.262 107.297 148.168 100.94 152.661 94.0888C157.155 87.238 159.818 80.5306 160.789 74.256Z" fill="#8D2977"/>
<path d="M160.823 74.3288C161.829 67.8246 161.015 61.7854 158.534 56.5338L150.907 40.3886C153.388 45.6402 154.202 51.6793 153.196 58.1836C152.226 64.4582 149.562 71.1656 145.069 78.0163C140.575 84.8671 134.669 91.2242 127.824 96.8642C120.729 102.711 112.625 107.786 104.039 111.842C95.453 115.898 86.3853 118.935 77.3631 120.702C68.6595 122.408 59.9982 122.932 51.8526 122.052C43.7071 121.172 36.8344 118.97 31.3716 115.734C25.7087 112.38 21.5607 107.916 19.0798 102.665L26.7069 118.81C29.1878 124.061 33.3358 128.525 38.9987 131.879C44.4615 135.115 51.3342 137.317 59.4797 138.197C67.6253 139.077 76.2866 138.553 84.9902 136.848C94.0124 135.08 103.08 132.044 111.666 127.988C120.252 123.932 128.356 118.856 135.452 113.009C142.296 107.369 148.202 101.012 152.696 94.1616C157.189 87.3108 159.853 80.6034 160.823 74.3288Z" fill="url(#paint0_linear)" fill-opacity="0.48" style="mix-blend-mode:overlay"/>
<path d="M16.7566 84.7968C15.7508 91.301 16.5645 97.3402 19.0454 102.592C21.5263 107.843 25.6743 112.307 31.3371 115.661C36.8 118.897 43.6726 121.099 51.8182 121.979C59.9638 122.859 68.6251 122.335 77.3287 120.63C86.3509 118.862 95.4185 115.826 104.005 111.77C112.59 107.714 120.695 102.638 127.79 96.7914C134.635 91.1514 140.541 84.7942 145.034 77.9435C149.528 71.0927 152.191 64.3853 153.162 58.1107C154.167 51.6065 153.354 45.5674 150.873 40.3158C148.392 35.0642 144.244 30.6002 138.581 27.2462C133.118 24.0107 126.246 21.8082 118.1 20.9283C109.954 20.0483 101.293 20.5727 92.5895 22.2779C83.5673 24.0455 74.4996 27.0819 65.9137 31.1379C57.3277 35.194 49.2235 40.2697 42.1281 46.1161C35.2834 51.7561 29.3775 58.1133 24.8839 64.964C20.3904 71.8148 17.7268 78.5222 16.7566 84.7968Z" fill="white" fill-opacity="0.4" style="mix-blend-mode:overlay"/>
<g style="mix-blend-mode:overlay">
<path d="M98.8002 37.553L97.94 41.6641C97.6619 42.888 96.8546 43.8156 95.5181 44.4469C95.009 44.6874 94.6498 44.8334 94.4405 44.8847C93.2853 45.2405 92.3894 45.5687 91.753 45.8693C89.5892 46.8915 88.7211 48.6791 89.1487 51.2319L89.8597 55.4558L94.7282 53.1559C95.7464 52.6749 96.7065 52.4826 97.6083 52.5791C98.5102 52.6755 99.1078 53.0344 99.4013 53.6557L101.162 57.3835C101.456 58.0048 101.354 58.6944 100.855 59.4523C100.357 60.2101 99.5987 60.8296 98.5805 61.3106L91.4209 64.6928L95.2268 87.3324C95.8057 91.5237 95.3801 94.9071 93.9501 97.4826C92.602 100.067 89.7324 102.396 85.3412 104.471C81.2682 106.395 77.3294 107.614 73.5247 108.129C71.9865 108.333 71.0156 108.008 70.612 107.154C70.5019 106.921 70.4868 106.477 70.5665 105.822L71.3734 102.092C71.6246 100.976 72.3866 100.117 73.6594 99.5159C73.9139 99.3956 74.5779 99.1532 75.6511 98.7887C76.8064 98.4329 77.575 98.1648 77.9568 97.9845C78.9114 97.5335 79.6103 96.8708 80.0536 95.9965C80.4968 95.1221 80.6531 94.2171 80.5224 93.2814L76.9108 71.5475L71.4695 74.1179C70.4513 74.599 69.4912 74.7913 68.5894 74.6948C67.6875 74.5984 67.0899 74.2395 66.7964 73.6182L65.0353 69.8904C64.7418 69.2691 64.8442 68.5795 65.3424 67.8216C65.8407 67.0638 66.599 66.4443 67.6172 65.9633L75.3496 62.3105L74.5819 57.4722C73.9383 52.9789 74.4221 49.3068 76.0333 46.4558C77.6445 43.6047 80.7411 41.0969 85.3233 38.9323C88.569 37.399 91.9981 36.2541 95.6106 35.4974C97.2762 35.2331 98.3015 35.5087 98.6868 36.3241C98.8886 36.7513 98.9264 37.1609 98.8002 37.553Z" fill="#2C2C2C"/>
<path d="M64.1707 102.694C63.2621 104.076 61.6536 104.855 60.0236 104.575C53.934 103.531 48.8688 101.228 45.2748 97.8489C41.1681 93.9876 39.1421 88.8711 39.4209 83.0652C39.6997 77.2593 42.2725 70.9901 46.8546 64.9507C50.886 59.6373 56.3345 54.684 62.7174 50.5102C64.2337 49.5187 66.2394 49.868 67.4001 51.2592C68.8515 52.999 68.3967 55.6174 66.5453 56.9235C62.4539 59.8098 58.9442 63.126 56.2676 66.6539C52.831 71.1834 50.9014 75.8853 50.6923 80.2398C50.4832 84.5942 52.0027 88.4316 55.0827 91.3276C56.715 92.8623 58.7519 94.101 61.1189 95.0133C64.2014 96.2013 65.9855 99.934 64.1707 102.694Z" fill="#2C2C2C"/>
<path d="M105.358 40.5896C106.266 39.2078 107.875 38.4292 109.505 38.7087C115.595 39.753 120.66 42.0557 124.254 45.435C128.36 49.2963 130.386 54.4128 130.108 60.2187C129.829 66.0246 127.256 72.2938 122.674 78.3332C118.643 83.6466 113.194 88.5999 106.811 92.7736C105.295 93.7652 103.289 93.4159 102.129 92.0247C100.677 90.2849 101.132 87.6665 102.983 86.3604C107.075 83.4741 110.584 80.1579 113.261 76.63C116.698 72.1005 118.627 67.3985 118.836 63.0441C119.045 58.6897 117.526 54.8523 114.446 51.9563C112.814 50.4216 110.777 49.1829 108.41 48.2706C105.327 47.0826 103.543 43.3499 105.358 40.5896Z" fill="#2C2C2C"/>
</g>
<path d="M14.8092 84.3403C13.8034 90.8445 17.055 98.3785 19.5359 103.63C22.0168 108.882 26.1648 113.346 31.8276 116.7C37.2905 119.935 44.1631 122.138 52.3087 123.018C60.4543 123.897 69.1155 123.373 77.8192 121.668C86.8413 119.9 95.909 116.864 104.495 112.808C113.081 108.752 121.185 103.676 128.281 97.8297C135.125 92.1897 141.031 85.8326 145.525 78.9818C150.018 72.1311 152.682 65.4236 153.652 59.149C154.658 52.6448 153.844 46.6057 151.363 41.3541C148.882 36.1025 145.251 29.0205 139.588 25.6665" stroke="#8D2977" stroke-width="0.887012" stroke-linecap="round" stroke-linejoin="round"/>
<path d="M14.8092 84.3403C13.8034 90.8445 17.055 98.3785 19.5359 103.63C22.0168 108.882 26.1648 113.346 31.8276 116.7C37.2905 119.935 44.1631 122.138 52.3087 123.018C60.4543 123.897 69.1155 123.373 77.8192 121.668C86.8413 119.9 95.909 116.864 104.495 112.808C113.081 108.752 121.185 103.676 128.281 97.8297C135.125 92.1897 141.031 85.8326 145.525 78.9818C150.018 72.1311 152.682 65.4236 153.652 59.149C154.658 52.6448 153.844 46.6057 151.363 41.3541C148.882 36.1025 145.251 29.0205 139.588 25.6665" stroke="white" stroke-opacity="0.64" stroke-width="0.887012" style="mix-blend-mode:overlay"/>
</g>
<defs>
<linearGradient id="paint0_linear" x1="19.0798" y1="102.665" x2="150.907" y2="40.3886" gradientUnits="userSpaceOnUse">
<stop stop-opacity="0.5"/>
<stop offset="0.515625" stop-opacity="0"/>
<stop offset="1"/>
</linearGradient>
</defs>
</svg>
