<svg width="379" height="322" viewBox="0 0 379 322" fill="none" xmlns="http://www.w3.org/2000/svg">
<path d="M371.037 160.812C371.037 249.07 299.194 320.624 210.563 320.624C121.931 320.624 50.0883 249.07 50.0883 160.812C50.0883 72.5542 121.931 1 210.563 1C299.194 1 371.037 72.5542 371.037 160.812Z" stroke="#9D60FF" stroke-width="2"/>
<path d="M264.175 80.2668L259.216 91.0062C257.701 94.173 255.498 95.7563 252.605 95.7563C251.503 95.7563 250.746 95.6875 250.333 95.5498C247.991 94.9991 246.132 94.7237 244.755 94.7237C240.072 94.7237 237.042 98.7165 235.664 106.702L233.392 119.92H243.928C246.132 119.92 247.991 120.677 249.506 122.192C251.021 123.706 251.779 125.565 251.779 127.768V140.986C251.779 143.189 251.021 145.047 249.506 146.562C247.991 148.076 246.132 148.834 243.928 148.834H228.433L216.244 219.672C213.765 232.615 210.184 241.84 205.501 247.347C200.956 252.992 193.931 255.815 184.428 255.815C175.613 255.815 167.625 253.956 160.463 250.238C157.57 248.724 156.124 246.452 156.124 243.423C156.124 242.597 156.468 241.289 157.157 239.499L161.702 229.792C163.079 226.901 165.145 225.455 167.9 225.455C168.451 225.455 169.828 225.662 172.032 226.075C174.374 226.626 175.957 226.901 176.784 226.901C178.85 226.901 180.64 225.937 182.155 224.01C183.67 222.082 184.703 219.672 185.254 216.781L197.03 148.834H185.254C183.051 148.834 181.191 148.076 179.676 146.562C178.161 145.047 177.404 143.189 177.404 140.986V127.768C177.404 125.565 178.161 123.706 179.676 122.192C181.191 120.677 183.051 119.92 185.254 119.92H201.989L204.675 104.844C207.291 90.9374 211.217 80.9552 216.451 74.8971C221.684 68.839 229.26 65.8099 239.176 65.8099C246.201 65.8099 253.225 67.1868 260.249 69.9405C263.417 71.455 265.001 73.6579 265.001 76.5493C265.001 78.0639 264.726 79.303 264.175 80.2668Z" fill="#9D60FF" fill-opacity="0.5"/>
<path d="M178.378 82.9549C143.45 92.8132 85.6876 134.751 134.064 223.635" stroke="#9D60FF" stroke-width="2"/>
<path d="M243 239C278.072 229.667 336.456 188.6 289.419 99" stroke="#9D60FF" stroke-width="2"/>
<mask id="mask0" mask-type="alpha" maskUnits="userSpaceOnUse" x="13" y="128" width="140" height="108">
<path d="M134.916 226.463C140.037 222.819 143.625 218.245 145.559 213.06L150.821 198.955C152.755 193.769 153.037 187.972 151.547 181.882C150.109 176.006 147.022 169.858 142.18 163.723C137.338 157.588 131.191 152.036 124.207 147.241C116.968 142.271 108.831 138.114 100.317 134.965C91.8044 131.815 82.9157 129.672 74.1741 128.729C65.7411 127.82 57.4451 128.028 49.7554 129.526C42.0656 131.025 35.6969 133.675 30.7561 137.19C25.6344 140.834 22.0469 145.408 20.1124 150.594L14.8508 164.698C12.9163 169.884 12.6348 175.681 14.1251 181.772C15.5628 187.647 18.6494 193.795 23.4914 199.931C28.3335 206.066 34.481 211.617 41.4645 216.412C48.7036 221.382 56.8411 225.539 65.3542 228.689C73.8672 231.838 82.7559 233.981 91.4975 234.924C99.9305 235.833 108.226 235.625 115.916 234.127C123.606 232.628 129.975 229.979 134.916 226.463Z" fill="black"/>
</mask>
<g mask="url(#mask0)">
<path d="M134.23 228.301C139.352 224.657 142.939 220.083 144.874 214.897L150.821 198.955C152.755 193.769 153.037 187.972 151.547 181.882C150.109 176.006 147.022 169.858 142.18 163.723C137.338 157.588 131.191 152.036 124.207 147.241C116.968 142.271 108.831 138.114 100.317 134.965C91.8044 131.815 82.9157 129.672 74.1741 128.729C65.7411 127.82 57.4451 128.028 49.7554 129.526C42.0656 131.025 35.6969 133.675 30.7561 137.19C25.6344 140.834 22.0469 145.408 20.1124 150.594L14.1652 166.536C12.2307 171.722 11.9492 177.519 13.4395 183.61C14.8772 189.485 17.9638 195.633 22.8058 201.768C27.6479 207.904 33.7954 213.455 40.7789 218.25C48.018 223.22 56.1555 227.377 64.6685 230.527C73.1816 233.676 82.0703 235.819 90.8119 236.762C99.2448 237.671 107.541 237.463 115.231 235.965C122.92 234.466 129.289 231.816 134.23 228.301Z" fill="#377BA2"/>
<path d="M134.203 228.373C139.325 224.729 142.912 220.155 144.847 214.969L150.794 199.027C148.859 204.213 145.272 208.787 140.15 212.431C135.21 215.946 128.841 218.596 121.151 220.094C113.461 221.593 105.165 221.801 96.7323 220.891C87.9908 219.949 79.102 217.806 70.589 214.656C62.0759 211.506 53.9384 207.35 46.6993 202.38C39.7158 197.585 33.5684 192.033 28.7263 185.898C23.8842 179.763 20.7976 173.615 19.3599 167.739C17.8696 161.649 18.1511 155.852 20.0856 150.666L14.1383 166.608C12.2038 171.794 11.9223 177.591 13.4126 183.682C14.8503 189.557 17.9369 195.705 22.779 201.84C27.6211 207.976 33.7685 213.527 40.752 218.322C47.9911 223.292 56.1286 227.449 64.6417 230.599C73.1548 233.748 82.0435 235.891 90.785 236.834C99.218 237.743 107.514 237.535 115.204 236.037C122.894 234.538 129.262 231.889 134.203 228.373Z" fill="url(#paint0_linear)" fill-opacity="0.48" style="mix-blend-mode:overlay"/>
<path d="M30.7561 137.19C25.6344 140.834 22.0469 145.408 20.1124 150.594C18.178 155.779 17.8965 161.577 19.3868 167.667C20.8245 173.542 23.911 179.691 28.7531 185.826C33.5952 191.961 39.7427 197.513 46.7262 202.307C53.9653 207.278 62.1028 211.434 70.6158 214.584C79.1289 217.734 88.0176 219.877 96.7592 220.819C105.192 221.728 113.488 221.521 121.178 220.022C128.868 218.524 135.236 215.874 140.177 212.359C145.299 208.715 148.886 204.14 150.821 198.955C152.755 193.769 153.037 187.972 151.547 181.882C150.109 176.006 147.022 169.858 142.18 163.723C137.338 157.588 131.191 152.036 124.207 147.241C116.968 142.271 108.831 138.114 100.317 134.965C91.8044 131.815 82.9157 129.672 74.1741 128.729C65.7411 127.82 57.4451 128.028 49.7554 129.526C42.0656 131.025 35.6969 133.675 30.7561 137.19Z" fill="white" fill-opacity="0.4" style="mix-blend-mode:overlay"/>
<g style="mix-blend-mode:overlay">
<path d="M117.909 161.639L114.521 163.79C113.498 164.415 112.324 164.482 110.999 163.992C110.494 163.805 110.154 163.658 109.979 163.549C108.964 162.999 108.14 162.607 107.509 162.374C105.364 161.58 103.561 162.178 102.1 164.169L99.686 167.465L104.513 169.251C105.523 169.624 106.296 170.15 106.833 170.829C107.37 171.507 107.523 172.154 107.295 172.767L105.921 176.448C105.693 177.062 105.152 177.451 104.301 177.616C103.449 177.781 102.519 177.676 101.509 177.303L94.4105 174.676L81.4667 192.338C78.9863 195.522 76.3873 197.484 73.6697 198.224C71.0009 199.026 67.4895 198.621 63.1356 197.011C59.0972 195.516 55.6304 193.645 52.7354 191.395C51.5676 190.483 51.1411 189.605 51.4558 188.762C51.5416 188.532 51.8353 188.226 52.3367 187.844L55.4275 185.911C56.3589 185.34 57.4556 185.287 58.7176 185.754C58.97 185.847 59.5795 186.138 60.5462 186.627C61.5617 187.177 62.2588 187.522 62.6374 187.663C63.5839 188.013 64.5043 188.048 65.3987 187.768C66.2931 187.488 67.0166 186.992 67.5694 186.28L80.0236 169.353L74.6285 167.357C73.6189 166.984 72.8457 166.458 72.3089 165.779C71.7722 165.1 71.6182 164.454 71.8471 163.841L73.2203 160.16C73.4491 159.546 73.9893 159.157 74.8408 158.992C75.6922 158.827 76.6227 158.931 77.6324 159.305L85.2991 162.142L88.0958 158.398C90.7395 154.969 93.5749 152.854 96.6021 152.054C99.6293 151.254 103.415 151.695 107.958 153.376C111.176 154.567 114.251 156.141 117.183 158.098C118.477 159.057 118.974 159.939 118.673 160.744C118.516 161.166 118.261 161.464 117.909 161.639Z" fill="#2C2C2C"/>
<path d="M50.1899 181.407C48.6437 181.707 47.0445 181.132 46.1494 179.841C42.7897 174.994 40.9775 170.008 40.8871 165.307C40.7839 159.939 42.93 155.153 47.0881 151.478C51.2462 147.804 57.2544 145.384 64.4484 144.486C70.781 143.695 77.8154 144.111 84.9407 145.684C86.6259 146.056 87.7221 147.651 87.5463 149.366C87.3261 151.514 85.2337 152.951 83.1078 152.559C78.396 151.692 73.7789 151.508 69.5743 152.032C64.1788 152.706 59.6727 154.521 56.5541 157.277C53.4355 160.033 51.8259 163.622 51.9033 167.648C51.9443 169.777 52.4563 171.985 53.4106 174.201C54.6574 177.095 53.2917 180.806 50.1899 181.407Z" fill="#2C2C2C"/>
<path d="M120.226 168.126C121.772 167.826 123.371 168.401 124.266 169.692C127.626 174.539 129.438 179.526 129.528 184.227C129.632 189.595 127.485 194.38 123.327 198.055C119.169 201.729 113.161 204.149 105.967 205.048C99.6344 205.838 92.6 205.422 85.4748 203.849C83.7895 203.477 82.6933 201.882 82.8691 200.167C83.0893 198.019 85.1818 196.583 87.3077 196.974C92.0194 197.842 96.6365 198.026 100.841 197.501C106.237 196.827 110.743 195.012 113.861 192.257C116.98 189.501 118.59 185.911 118.512 181.885C118.471 179.756 117.959 177.548 117.005 175.333C115.758 172.438 117.124 168.727 120.226 168.126Z" fill="#2C2C2C"/>
</g>
<path d="M29.7669 135.559C24.6452 139.203 21.6645 146.433 19.73 151.619C17.7956 156.804 17.5141 162.602 19.0044 168.692C20.4421 174.568 23.5286 180.716 28.3707 186.851C33.2128 192.986 39.3603 198.538 46.3438 203.332C53.5829 208.303 61.7203 212.459 70.2334 215.609C78.7465 218.759 87.6352 220.902 96.3768 221.844C104.81 222.754 113.106 222.546 120.796 221.047C128.485 219.549 134.854 216.899 139.795 213.384C144.916 209.74 148.504 205.166 150.438 199.98C152.373 194.794 154.791 187.606 153.3 181.516" stroke="#377BA2" stroke-width="0.523478" stroke-linecap="round" stroke-linejoin="round"/>
<path d="M29.7669 135.559C24.6452 139.203 21.6645 146.433 19.73 151.619C17.7956 156.804 17.5141 162.602 19.0044 168.692C20.4421 174.568 23.5286 180.716 28.3707 186.851C33.2128 192.986 39.3603 198.538 46.3438 203.332C53.5829 208.303 61.7203 212.459 70.2334 215.609C78.7465 218.759 87.6352 220.902 96.3768 221.844C104.81 222.754 113.106 222.546 120.796 221.047C128.485 219.549 134.854 216.899 139.795 213.384C144.916 209.74 148.504 205.166 150.438 199.98C152.373 194.794 154.791 187.606 153.3 181.516" stroke="white" stroke-opacity="0.64" stroke-width="0.523478" style="mix-blend-mode:overlay"/>
</g>
<mask id="mask1" mask-type="alpha" maskUnits="userSpaceOnUse" x="121" y="17" width="112" height="86">
<path d="M231.467 59.2996C232.605 54.45 232.339 49.8464 230.763 45.7408L226.478 34.5739C224.903 30.4684 222.019 26.8609 217.923 24.0036C213.971 21.2471 208.892 19.1888 202.772 18.055C196.651 16.9211 190.059 16.8172 183.366 17.6017C176.428 18.4149 169.382 20.1828 162.642 22.7479C155.902 25.313 149.468 28.6752 143.754 32.6772C138.242 36.5378 133.399 40.9938 129.598 45.9036C125.796 50.8134 123.39 55.7207 122.291 60.399C121.152 65.2486 121.419 69.8522 122.994 73.9578L127.279 85.1247C128.855 89.2302 131.739 92.8377 135.835 95.695C139.786 98.4515 144.866 100.51 150.986 101.644C157.106 102.777 163.699 102.881 170.392 102.097C177.33 101.284 184.376 99.5158 191.115 96.9507C197.855 94.3856 204.289 91.0234 210.004 87.0214C215.516 83.1608 220.359 78.7048 224.16 73.795C227.962 68.8852 230.368 63.9779 231.467 59.2996Z" fill="black"/>
</mask>
<g mask="url(#mask1)">
<path d="M232.025 60.7546C233.164 55.9051 232.897 51.3014 231.322 47.1959L226.478 34.5739C224.903 30.4684 222.019 26.8609 217.923 24.0036C213.971 21.2471 208.892 19.1888 202.772 18.055C196.651 16.9211 190.059 16.8172 183.366 17.6017C176.428 18.4149 169.382 20.1828 162.642 22.7479C155.902 25.313 149.468 28.6752 143.754 32.6772C138.242 36.5378 133.399 40.9938 129.598 45.9036C125.796 50.8134 123.39 55.7207 122.291 60.399C121.152 65.2486 121.419 69.8522 122.994 73.9578L127.838 86.5797C129.413 90.6853 132.297 94.2928 136.393 97.1501C140.345 99.9065 145.424 101.965 151.544 103.099C157.665 104.233 164.257 104.336 170.95 103.552C177.888 102.739 184.934 100.971 191.674 98.4058C198.414 95.8407 204.848 92.4784 210.562 88.4765C216.075 84.6159 220.917 80.1599 224.719 75.2501C228.52 70.3403 230.926 65.433 232.025 60.7546Z" fill="#E88225"/>
<path d="M232.047 60.8115C233.185 55.9619 232.919 51.3583 231.343 47.2527L226.5 34.6308C228.075 38.7363 228.342 43.34 227.203 48.1895C226.105 52.8679 223.698 57.7752 219.897 62.685C216.096 67.5948 211.253 72.0508 205.741 75.9114C200.026 79.9133 193.592 83.2756 186.852 85.8407C180.112 88.4058 173.066 90.1737 166.129 90.9869C159.436 91.7714 152.843 91.6674 146.723 90.5336C140.603 89.3997 135.523 87.3414 131.572 84.585C127.476 81.7277 124.592 78.1202 123.016 74.0146L127.86 86.6366C129.435 90.7422 132.319 94.3496 136.415 97.207C140.367 99.9634 145.446 102.022 151.566 103.156C157.687 104.289 164.279 104.393 170.972 103.609C177.91 102.796 184.956 101.028 191.696 98.4626C198.435 95.8975 204.87 92.5353 210.584 88.5333C216.096 84.6727 220.939 80.2168 224.74 75.3069C228.542 70.3971 230.948 65.4898 232.047 60.8115Z" fill="url(#paint1_linear)" fill-opacity="0.48" style="mix-blend-mode:overlay"/>
<path d="M122.291 60.399C121.152 65.2486 121.419 69.8522 122.994 73.9578C124.57 78.0633 127.454 81.6708 131.55 84.5281C135.501 87.2846 140.581 89.3429 146.701 90.4767C152.822 91.6106 159.414 91.7145 166.107 90.93C173.045 90.1168 180.091 88.3489 186.83 85.7838C193.57 83.2187 200.004 79.8565 205.719 75.8545C211.231 71.9939 216.074 67.5379 219.875 62.6281C223.677 57.7183 226.083 52.811 227.182 48.1327C228.32 43.2831 228.054 38.6795 226.478 34.5739C224.903 30.4684 222.019 26.8609 217.923 24.0036C213.971 21.2471 208.892 19.1888 202.772 18.055C196.651 16.9211 190.059 16.8172 183.366 17.6017C176.428 18.4149 169.382 20.1828 162.642 22.7479C155.902 25.313 149.468 28.6752 143.754 32.6772C138.242 36.5378 133.399 40.9938 129.598 45.9036C125.796 50.8134 123.39 55.7207 122.291 60.399Z" fill="white" fill-opacity="0.4" style="mix-blend-mode:overlay"/>
<g style="mix-blend-mode:overlay">
<path d="M187.186 29.4851L186.297 32.5374C186.015 33.4448 185.35 34.0981 184.301 34.4974C183.901 34.6495 183.62 34.7389 183.459 34.7656C182.563 34.9674 181.865 35.1633 181.366 35.3534C179.667 35.9999 178.906 37.2985 179.082 39.2494L179.376 42.4775L183.198 41.023C183.997 40.7188 184.735 40.6291 185.413 40.7539C186.091 40.8786 186.523 41.1839 186.709 41.6696L187.827 44.584C188.014 45.0697 187.896 45.5841 187.475 46.1272C187.053 46.6702 186.443 47.0939 185.644 47.3981L180.024 49.537L181.596 66.8387C181.791 70.0346 181.273 72.5629 180.04 74.4236C178.869 76.2957 176.56 77.8877 173.113 79.1996C169.916 80.4164 166.861 81.1093 163.949 81.2783C162.772 81.3437 162.055 81.0424 161.799 80.3745C161.729 80.1924 161.743 79.8565 161.841 79.3667L162.669 76.5991C162.924 75.7715 163.551 75.1675 164.55 74.7873C164.75 74.7112 165.267 74.5666 166.101 74.3535C166.997 74.1517 167.595 73.9938 167.894 73.8797C168.644 73.5945 169.212 73.1348 169.598 72.5007C169.984 71.8665 170.155 71.1927 170.111 70.4791L168.633 53.872L164.362 55.4976C163.562 55.8018 162.824 55.8915 162.146 55.7667C161.469 55.6419 161.037 55.3367 160.85 54.8509L159.732 51.9366C159.546 51.4509 159.663 50.9365 160.084 50.3934C160.506 49.8503 161.116 49.4267 161.916 49.1225L167.985 46.8124L167.684 43.1175C167.457 39.6901 168.036 36.9473 169.422 34.8891C170.808 32.8309 173.299 31.1173 176.896 29.7484C179.444 28.7787 182.108 28.1126 184.889 27.7501C186.166 27.6467 186.927 27.9138 187.172 28.5513C187.3 28.8853 187.305 29.1965 187.186 29.4851Z" fill="#2C2C2C"/>
<path d="M157.171 76.6456C156.406 77.6319 155.149 78.124 153.934 77.8206C149.377 76.6817 145.67 74.6512 143.141 71.8924C140.254 68.7421 139.015 64.7647 139.563 60.4001C140.11 56.0354 142.422 51.4536 146.244 47.161C149.608 43.3825 154.026 39.9576 159.107 37.1759C160.309 36.5179 161.803 36.8978 162.601 38.0134C163.601 39.4106 163.108 41.3606 161.633 42.237C158.363 44.1795 155.51 46.4803 153.277 48.9892C150.411 52.2086 148.676 55.645 148.266 58.9184C147.855 62.1919 148.784 65.1749 150.95 67.5377C152.095 68.7875 153.563 69.8379 155.3 70.6621C157.568 71.7388 158.706 74.6672 157.171 76.6456Z" fill="#2C2C2C"/>
<path d="M191.985 32.1475C192.75 31.1612 194.007 30.6691 195.221 30.9725C199.778 32.1113 203.486 34.1418 206.014 36.9006C208.902 40.051 210.141 44.0284 209.593 48.393C209.046 52.7576 206.733 57.3395 202.912 61.632C199.548 65.4106 195.13 68.8354 190.049 71.6172C188.847 72.2752 187.353 71.8953 186.555 70.7797C185.555 69.3825 186.048 67.4325 187.523 66.556C190.792 64.6136 193.645 62.3127 195.879 59.8039C198.745 56.5845 200.479 53.1481 200.89 49.8746C201.301 46.6012 200.372 43.6181 198.206 41.2554C197.06 40.0056 195.592 38.9551 193.856 38.1309C191.588 37.0542 190.449 34.1259 191.985 32.1475Z" fill="#2C2C2C"/>
</g>
<path d="M120.842 59.9421C119.703 64.7917 121.73 70.6638 123.306 74.7693C124.881 78.8749 127.765 82.4824 131.861 85.3397C135.813 88.0961 140.892 90.1544 147.012 91.2883C153.133 92.4221 159.725 92.5261 166.418 91.7416C173.356 90.9283 180.402 89.1604 187.142 86.5954C193.882 84.0303 200.316 80.668 206.03 76.6661C211.543 72.8054 216.385 68.3495 220.187 63.4397C223.988 58.5298 226.394 53.6226 227.493 48.9442C228.632 44.0946 228.365 39.491 226.79 35.3854C225.214 31.2799 222.873 25.7268 218.777 22.8695" stroke="#E88225" stroke-width="0.523478" stroke-linecap="round" stroke-linejoin="round"/>
<path d="M120.842 59.9421C119.703 64.7917 121.73 70.6638 123.306 74.7693C124.881 78.8749 127.765 82.4824 131.861 85.3397C135.813 88.0961 140.892 90.1544 147.012 91.2883C153.133 92.4221 159.725 92.5261 166.418 91.7416C173.356 90.9283 180.402 89.1604 187.142 86.5954C193.882 84.0303 200.316 80.668 206.03 76.6661C211.543 72.8054 216.385 68.3495 220.187 63.4397C223.988 58.5298 226.394 53.6226 227.493 48.9442C228.632 44.0946 228.365 39.491 226.79 35.3854C225.214 31.2799 222.873 25.7268 218.777 22.8695" stroke="white" stroke-opacity="0.64" stroke-width="0.523478" style="mix-blend-mode:overlay"/>
</g>
<mask id="mask2" mask-type="alpha" maskUnits="userSpaceOnUse" x="275" y="182" width="100" height="73">
<path d="M372.371 227.887C374.257 223.893 374.879 219.854 374.274 216.006L372.63 205.54C372.026 201.692 370.195 198.035 367.175 194.806C364.261 191.691 360.24 188.973 355.146 186.865C350.051 184.757 344.357 183.455 338.41 182.904C332.247 182.334 325.812 182.571 319.495 183.555C313.178 184.539 306.979 186.27 301.284 188.688C295.791 191.021 290.768 193.993 286.563 197.549C282.358 201.106 279.363 204.916 277.544 208.769C275.658 212.763 275.036 216.802 275.64 220.65L277.284 231.116C277.888 234.964 279.719 238.621 282.74 241.851C285.654 244.966 289.674 247.684 294.769 249.792C299.863 251.899 305.558 253.202 311.504 253.752C317.668 254.323 324.102 254.086 330.419 253.102C336.736 252.118 342.936 250.386 348.63 247.968C354.123 245.636 359.147 242.664 363.351 239.107C367.556 235.551 370.551 231.74 372.371 227.887Z" fill="black"/>
</mask>
<g mask="url(#mask2)">
<path d="M372.585 229.251C374.471 225.257 375.093 221.218 374.489 217.37L372.63 205.54C372.026 201.692 370.195 198.035 367.175 194.806C364.261 191.691 360.24 188.973 355.146 186.865C350.051 184.757 344.357 183.455 338.41 182.904C332.247 182.334 325.812 182.571 319.495 183.555C313.178 184.539 306.979 186.27 301.284 188.688C295.791 191.021 290.768 193.993 286.563 197.549C282.358 201.106 279.363 204.916 277.544 208.769C275.658 212.763 275.036 216.802 275.64 220.65L277.498 232.48C278.102 236.328 279.933 239.985 282.954 243.214C285.868 246.33 289.889 249.047 294.983 251.155C300.077 253.263 305.772 254.565 311.718 255.116C317.882 255.686 324.316 255.449 330.633 254.465C336.95 253.481 343.15 251.75 348.844 249.332C354.338 246.999 359.361 244.028 363.566 240.471C367.77 236.915 370.766 233.104 372.585 229.251Z" fill="#C74D7A"/>
<path d="M372.593 229.305C374.479 225.312 375.101 221.272 374.497 217.425L372.639 205.595C373.243 209.443 372.621 213.482 370.735 217.475C368.916 221.328 365.921 225.139 361.716 228.695C357.511 232.252 352.488 235.224 346.995 237.556C341.3 239.974 335.101 241.706 328.784 242.69C322.467 243.674 316.032 243.911 309.868 243.34C303.922 242.79 298.228 241.488 293.133 239.38C288.039 237.272 284.018 234.554 281.104 231.439C278.084 228.209 276.253 224.552 275.648 220.704L277.507 232.534C278.111 236.382 279.942 240.039 282.962 243.269C285.876 246.384 289.897 249.102 294.991 251.21C300.086 253.318 305.78 254.62 311.726 255.17C317.89 255.741 324.325 255.504 330.642 254.52C336.959 253.536 343.158 251.804 348.853 249.386C354.346 247.054 359.369 244.082 363.574 240.525C367.779 236.969 370.774 233.158 372.593 229.305Z" fill="url(#paint2_linear)" fill-opacity="0.48" style="mix-blend-mode:overlay"/>
<path d="M277.544 208.769C275.658 212.763 275.036 216.802 275.64 220.65C276.244 224.498 278.075 228.155 281.096 231.384C284.01 234.5 288.03 237.217 293.125 239.325C298.219 241.433 303.914 242.735 309.86 243.286C316.024 243.856 322.458 243.62 328.775 242.635C335.092 241.651 341.292 239.92 346.986 237.502C352.48 235.169 357.503 232.198 361.707 228.641C365.912 225.085 368.907 221.274 370.727 217.421C372.613 213.427 373.235 209.388 372.63 205.54C372.026 201.692 370.195 198.035 367.175 194.806C364.261 191.691 360.24 188.973 355.146 186.865C350.051 184.757 344.357 183.455 338.41 182.904C332.247 182.334 325.812 182.571 319.495 183.555C313.178 184.539 306.979 186.27 301.284 188.688C295.791 191.021 290.768 193.993 286.563 197.549C282.358 201.106 279.363 204.916 277.544 208.769Z" fill="white" fill-opacity="0.4" style="mix-blend-mode:overlay"/>
<g style="mix-blend-mode:overlay">
<path d="M339.519 193.906L338.182 196.388C337.77 197.123 337.072 197.567 336.089 197.72C335.714 197.778 335.454 197.804 335.31 197.798C334.496 197.808 333.855 197.85 333.386 197.923C331.794 198.171 330.894 199.156 330.685 200.879L330.341 203.731L333.923 203.173C334.672 203.056 335.329 203.114 335.893 203.347C336.458 203.58 336.775 203.924 336.847 204.379L337.276 207.111C337.347 207.566 337.15 207.99 336.684 208.383C336.218 208.777 335.611 209.032 334.862 209.148L329.594 209.969L327.75 225.253C327.327 228.059 326.409 230.155 324.996 231.541C323.634 232.949 321.338 233.904 318.107 234.407C315.11 234.874 312.334 234.913 309.779 234.524C308.746 234.364 308.181 233.971 308.082 233.345C308.056 233.175 308.13 232.886 308.306 232.48L309.536 230.233C309.911 229.563 310.566 229.155 311.503 229.009C311.69 228.98 312.165 228.949 312.927 228.918C313.741 228.908 314.289 228.881 314.57 228.837C315.272 228.728 315.849 228.434 316.302 227.955C316.754 227.476 317.027 226.924 317.121 226.297L318.919 211.632L314.915 212.256C314.166 212.372 313.509 212.314 312.945 212.082C312.381 211.849 312.063 211.505 311.992 211.05L311.563 208.318C311.491 207.863 311.688 207.439 312.154 207.045C312.62 206.652 313.228 206.397 313.977 206.281L319.666 205.394L320.089 202.136C320.528 199.124 321.538 196.853 323.121 195.324C324.703 193.795 327.18 192.768 330.552 192.243C332.939 191.871 335.372 191.783 337.85 191.98C338.976 192.126 339.586 192.497 339.679 193.094C339.729 193.407 339.675 193.678 339.519 193.906Z" fill="#2C2C2C"/>
<path d="M304.761 229.264C303.916 229.977 302.737 230.173 301.742 229.687C298.002 227.862 295.165 225.42 293.484 222.564C291.565 219.302 291.229 215.628 292.513 211.945C293.796 208.263 296.65 204.717 300.757 201.699C304.374 199.042 308.839 196.886 313.759 195.409C314.921 195.06 316.145 195.664 316.63 196.777C317.237 198.172 316.449 199.772 315.009 200.26C311.815 201.343 308.915 202.813 306.514 204.577C303.433 206.84 301.293 209.5 300.33 212.261C299.368 215.023 299.62 217.779 301.059 220.225C301.82 221.518 302.897 222.698 304.248 223.731C306.014 225.082 306.459 227.832 304.761 229.264Z" fill="#2C2C2C"/>
<path d="M343.186 197.094C344.031 196.381 345.21 196.186 346.205 196.672C349.945 198.496 352.782 200.938 354.463 203.795C356.382 207.056 356.718 210.731 355.434 214.413C354.151 218.095 351.297 221.641 347.19 224.659C343.573 227.316 339.109 229.472 334.188 230.949C333.026 231.298 331.802 230.694 331.317 229.581C330.71 228.186 331.498 226.586 332.938 226.098C336.132 225.016 339.032 223.546 341.433 221.782C344.514 219.518 346.654 216.859 347.617 214.097C348.579 211.336 348.327 208.579 346.888 206.133C346.127 204.84 345.05 203.661 343.699 202.627C341.933 201.277 341.488 198.527 343.186 197.094Z" fill="#2C2C2C"/>
</g>
<path d="M276.372 208.107C274.487 212.101 275.155 217.563 275.759 221.411C276.364 225.259 278.195 228.916 281.215 232.145C284.129 235.261 288.15 237.979 293.244 240.087C298.339 242.194 304.033 243.496 309.979 244.047C316.143 244.618 322.578 244.381 328.895 243.397C335.212 242.412 341.411 240.681 347.106 238.263C352.599 235.931 357.622 232.959 361.827 229.402C366.032 225.846 369.027 222.035 370.846 218.182C372.732 214.188 373.354 210.149 372.75 206.301C372.146 202.453 371.146 197.21 368.125 193.981" stroke="#C74D7A" stroke-width="0.523478" stroke-linecap="round" stroke-linejoin="round"/>
<path d="M276.372 208.107C274.487 212.101 275.155 217.563 275.759 221.411C276.364 225.259 278.195 228.916 281.215 232.145C284.129 235.261 288.15 237.979 293.244 240.087C298.339 242.194 304.033 243.496 309.979 244.047C316.143 244.618 322.578 244.381 328.895 243.397C335.212 242.412 341.411 240.681 347.106 238.263C352.599 235.931 357.622 232.959 361.827 229.402C366.032 225.846 369.027 222.035 370.846 218.182C372.732 214.188 373.354 210.149 372.75 206.301C372.146 202.453 371.146 197.21 368.125 193.981" stroke="white" stroke-opacity="0.64" stroke-width="0.523478" style="mix-blend-mode:overlay"/>
</g>
<defs>
<linearGradient id="paint0_linear" x1="20.0856" y1="150.666" x2="150.663" y2="199.377" gradientUnits="userSpaceOnUse">
<stop stop-opacity="0.5"/>
<stop offset="0.515625" stop-opacity="0"/>
<stop offset="1"/>
</linearGradient>
<linearGradient id="paint1_linear" x1="123.016" y1="74.0146" x2="226.391" y2="34.3475" gradientUnits="userSpaceOnUse">
<stop stop-opacity="0.5"/>
<stop offset="0.515625" stop-opacity="0"/>
<stop offset="1"/>
</linearGradient>
<linearGradient id="paint2_linear" x1="275.648" y1="220.704" x2="372.62" y2="205.473" gradientUnits="userSpaceOnUse">
<stop stop-opacity="0.5"/>
<stop offset="0.515625" stop-opacity="0"/>
<stop offset="1"/>
</linearGradient>
</defs>
</svg>
