<svg width="279" height="338" viewBox="0 0 279 338" fill="none" xmlns="http://www.w3.org/2000/svg">
<line opacity="0.2" x1="61" y1="26" x2="121" y2="26" stroke="#9D60FF" stroke-width="2"/>
<line opacity="0.2" x1="61" y1="109" x2="121" y2="109" stroke="#9D60FF" stroke-width="2"/>
<line opacity="0.2" x1="61" y1="192" x2="121" y2="192" stroke="#9D60FF" stroke-width="2"/>
<line opacity="0.2" x1="61" y1="275" x2="121" y2="275" stroke="#9D60FF" stroke-width="2"/>
<path d="M1 9.99999C1 5.02943 5.02944 1 10 1H67C71.9706 1 76 5.02944 76 10V337H1V9.99999Z" fill="#D660FF" stroke="#4F208A" stroke-width="2"/>
<path d="M1 54C1 49.0294 5.02944 45 10 45H67C71.9706 45 76 49.0294 76 54V337H1V54Z" fill="#873CFF" stroke="#4F208A" stroke-width="2"/>
<path d="M1 126C1 121.029 5.02944 117 10 117H67C71.9706 117 76 121.029 76 126V337H1V126Z" fill="#73B3FF" stroke="#4F208A" stroke-width="2"/>
<path d="M1 212C1 207.029 5.02944 203 10 203H67C71.9706 203 76 207.029 76 212V337H1V212Z" fill="#2051FF" stroke="#4F208A" stroke-width="2"/>
<path d="M136.56 63H129.552V51.8H131.52V61.16H136.56V63ZM143.235 60.984L143.763 62.28C143.048 62.8773 142.131 63.176 141.011 63.176C139.859 63.176 138.92 62.8293 138.195 62.136C137.491 61.4533 137.139 60.5413 137.139 59.4C137.139 58.3333 137.485 57.4373 138.179 56.712C138.872 55.9867 139.795 55.624 140.947 55.624C141.896 55.624 142.701 55.9387 143.363 56.568C144.024 57.1973 144.355 57.9973 144.355 58.968C144.355 59.3947 144.317 59.7253 144.243 59.96H139.043C139.117 60.4827 139.347 60.8933 139.731 61.192C140.125 61.4907 140.616 61.64 141.203 61.64C142.003 61.64 142.68 61.4213 143.235 60.984ZM140.867 57.16C139.821 57.16 139.192 57.6827 138.979 58.728H142.515C142.525 58.2693 142.376 57.896 142.067 57.608C141.768 57.3093 141.368 57.16 140.867 57.16ZM144.846 63.976C144.846 63.4107 145.054 62.9413 145.47 62.568C145.886 62.184 146.456 61.912 147.182 61.752C147.096 61.6027 147.054 61.4373 147.054 61.256C147.054 61.0533 147.107 60.8827 147.214 60.744C146.68 60.5307 146.259 60.2107 145.95 59.784C145.651 59.3467 145.502 58.8613 145.502 58.328C145.502 57.592 145.784 56.9573 146.35 56.424C146.915 55.8907 147.656 55.624 148.574 55.624C149.267 55.624 149.88 55.7947 150.414 56.136L152.59 55.656L152.654 57.128L151.454 57.4C151.571 57.72 151.63 58.0293 151.63 58.328C151.63 59.0533 151.347 59.6827 150.782 60.216C150.227 60.728 149.491 60.984 148.574 60.984H148.446C148.424 61.0693 148.414 61.16 148.414 61.256C148.414 61.3947 148.446 61.5173 148.51 61.624H148.59C149.71 61.624 150.611 61.8213 151.294 62.216C151.987 62.6213 152.334 63.208 152.334 63.976C152.334 64.744 151.987 65.3307 151.294 65.736C150.611 66.1307 149.71 66.328 148.59 66.328C147.438 66.328 146.526 66.1253 145.854 65.72C145.182 65.3253 144.846 64.744 144.846 63.976ZM146.558 63.976C146.558 64.2533 146.734 64.4667 147.086 64.616C147.448 64.776 147.95 64.856 148.59 64.856C149.934 64.856 150.606 64.5627 150.606 63.976C150.606 63.7093 150.43 63.496 150.078 63.336C149.726 63.176 149.23 63.096 148.59 63.096C147.96 63.096 147.464 63.176 147.102 63.336C146.739 63.496 146.558 63.7093 146.558 63.976ZM148.574 59.496C148.968 59.496 149.288 59.3893 149.534 59.176C149.79 58.9627 149.918 58.68 149.918 58.328C149.918 57.9653 149.795 57.672 149.55 57.448C149.304 57.224 148.979 57.112 148.574 57.112C148.168 57.112 147.843 57.2293 147.598 57.464C147.352 57.688 147.23 57.976 147.23 58.328C147.23 58.6693 147.352 58.952 147.598 59.176C147.843 59.3893 148.168 59.496 148.574 59.496ZM154.334 57.656L153.87 56.312C154.649 55.8533 155.497 55.624 156.414 55.624C157.417 55.624 158.147 55.8693 158.606 56.36C159.065 56.8507 159.294 57.6027 159.294 58.616V63H157.694V62.168C157.267 62.7867 156.558 63.096 155.566 63.096C154.883 63.096 154.334 62.8987 153.918 62.504C153.513 62.0987 153.31 61.56 153.31 60.888C153.31 60.1413 153.55 59.5653 154.03 59.16C154.51 58.7547 155.145 58.552 155.934 58.552C156.585 58.552 157.129 58.7067 157.566 59.016C157.587 58.376 157.491 57.9067 157.278 57.608C157.075 57.3093 156.723 57.16 156.222 57.16C155.667 57.16 155.038 57.3253 154.334 57.656ZM156.174 61.544C156.793 61.544 157.257 61.3253 157.566 60.888V60.152C157.267 59.9173 156.846 59.8 156.302 59.8C155.961 59.8 155.683 59.88 155.47 60.04C155.257 60.2 155.15 60.4187 155.15 60.696C155.15 60.952 155.246 61.16 155.438 61.32C155.63 61.4693 155.875 61.544 156.174 61.544ZM161.18 61.016V51.8H163.02V60.264C163.02 61.0427 163.228 61.432 163.644 61.432C163.879 61.432 164.13 61.336 164.396 61.144L164.78 62.552C164.279 62.9573 163.644 63.16 162.876 63.16C161.746 63.16 161.18 62.4453 161.18 61.016ZM179.576 63H177.288L176.344 61.832C175.523 62.728 174.424 63.176 173.048 63.176C171.928 63.176 171.021 62.8773 170.328 62.28C169.635 61.672 169.288 60.8987 169.288 59.96C169.288 59.1173 169.496 58.424 169.912 57.88C170.36 57.304 170.979 56.744 171.768 56.2C170.915 55.7947 170.488 55.08 170.488 54.056C170.488 53.3093 170.749 52.7227 171.272 52.296C171.805 51.848 172.429 51.624 173.144 51.624C173.859 51.624 174.483 51.848 175.016 52.296C175.539 52.7227 175.8 53.3093 175.8 54.056C175.8 54.536 175.656 54.984 175.368 55.4C175.091 55.816 174.755 56.088 174.36 56.216L176.536 59.048C177.037 58.0667 177.288 56.984 177.288 55.8H179.112C179.112 57.624 178.621 59.1973 177.64 60.52L179.576 63ZM173.112 61.336C174.051 61.336 174.76 61.0107 175.24 60.36L172.968 57.256C172.381 57.7253 171.965 58.136 171.72 58.488C171.485 58.8293 171.368 59.1973 171.368 59.592C171.368 60.0827 171.533 60.4987 171.864 60.84C172.205 61.1707 172.621 61.336 173.112 61.336ZM172.2 54.056C172.2 54.312 172.291 54.5307 172.472 54.712C172.653 54.8933 172.877 54.984 173.144 54.984C173.411 54.984 173.635 54.8933 173.816 54.712C173.997 54.5307 174.088 54.312 174.088 54.056C174.088 53.7893 173.992 53.5653 173.8 53.384C173.619 53.2027 173.4 53.112 173.144 53.112C172.877 53.112 172.653 53.2027 172.472 53.384C172.291 53.5653 172.2 53.7893 172.2 54.056ZM185.862 63H183.878L188.614 51.768H190.342L195.078 63H192.982L191.814 60.136H187.03L185.862 63ZM191.062 58.296L189.43 54.312L187.782 58.296H191.062ZM201.293 60.584L202.157 61.928C201.549 62.76 200.594 63.176 199.293 63.176C198.13 63.176 197.186 62.8293 196.461 62.136C195.746 61.4533 195.389 60.5413 195.389 59.4C195.389 58.3227 195.741 57.4267 196.445 56.712C197.149 55.9867 198.039 55.624 199.117 55.624C200.397 55.624 201.362 55.9493 202.013 56.6L201.149 58.056C200.658 57.5867 200.061 57.352 199.357 57.352C198.823 57.352 198.354 57.544 197.949 57.928C197.554 58.2907 197.357 58.7813 197.357 59.4C197.357 60.0187 197.559 60.52 197.965 60.904C198.391 61.2773 198.882 61.464 199.437 61.464C200.151 61.464 200.77 61.1707 201.293 60.584ZM208.699 60.584L209.563 61.928C208.955 62.76 208 63.176 206.699 63.176C205.536 63.176 204.592 62.8293 203.867 62.136C203.152 61.4533 202.795 60.5413 202.795 59.4C202.795 58.3227 203.147 57.4267 203.851 56.712C204.555 55.9867 205.445 55.624 206.523 55.624C207.803 55.624 208.768 55.9493 209.419 56.6L208.555 58.056C208.064 57.5867 207.467 57.352 206.763 57.352C206.229 57.352 205.76 57.544 205.355 57.928C204.96 58.2907 204.763 58.7813 204.763 59.4C204.763 60.0187 204.965 60.52 205.371 60.904C205.797 61.2773 206.288 61.464 206.843 61.464C207.557 61.464 208.176 61.1707 208.699 60.584ZM211.273 62.12C210.558 61.4053 210.201 60.4987 210.201 59.4C210.201 58.3013 210.558 57.4 211.273 56.696C211.988 55.9813 212.937 55.624 214.121 55.624C215.294 55.624 216.238 55.9813 216.953 56.696C217.678 57.4 218.041 58.3013 218.041 59.4C218.041 60.488 217.678 61.3947 216.953 62.12C216.228 62.824 215.284 63.176 214.121 63.176C212.937 63.176 211.988 62.824 211.273 62.12ZM212.729 57.928C212.356 58.312 212.169 58.8027 212.169 59.4C212.169 59.9973 212.35 60.4933 212.713 60.888C213.086 61.272 213.556 61.464 214.121 61.464C214.697 61.464 215.166 61.272 215.529 60.888C215.902 60.504 216.089 60.008 216.089 59.4C216.089 58.8027 215.902 58.312 215.529 57.928C215.156 57.544 214.686 57.352 214.121 57.352C213.566 57.352 213.102 57.544 212.729 57.928ZM224.305 55.8H226.145V63H224.305V62.12C223.729 62.824 222.961 63.176 222.001 63.176C221.233 63.176 220.62 62.92 220.161 62.408C219.703 61.896 219.473 61.16 219.473 60.2V55.8H221.313V59.816C221.313 60.9147 221.772 61.464 222.689 61.464C223.319 61.464 223.857 61.1707 224.305 60.584V55.8ZM230.036 63H228.196V55.8H230.036V56.52C230.569 55.9547 231.257 55.672 232.1 55.672C234.073 55.672 235.06 56.7067 235.06 58.776V63H233.22V59.096C233.22 57.9653 232.681 57.4 231.604 57.4C231.017 57.4 230.495 57.6293 230.036 58.088V63ZM236.77 60.264V53.8H238.61V55.8H240.93V57.528H238.61V60.152C238.61 61.016 238.898 61.448 239.474 61.448C239.837 61.448 240.205 61.3093 240.578 61.032L241.138 62.456C240.552 62.9253 239.842 63.16 239.01 63.16C238.232 63.16 237.661 62.9253 237.298 62.456C236.946 61.976 236.77 61.2453 236.77 60.264ZM243.256 57.656L242.792 56.312C243.571 55.8533 244.419 55.624 245.336 55.624C246.339 55.624 247.069 55.8693 247.528 56.36C247.987 56.8507 248.216 57.6027 248.216 58.616V63H246.616V62.168C246.189 62.7867 245.48 63.096 244.488 63.096C243.805 63.096 243.256 62.8987 242.84 62.504C242.435 62.0987 242.232 61.56 242.232 60.888C242.232 60.1413 242.472 59.5653 242.952 59.16C243.432 58.7547 244.067 58.552 244.856 58.552C245.507 58.552 246.051 58.7067 246.488 59.016C246.509 58.376 246.413 57.9067 246.2 57.608C245.997 57.3093 245.645 57.16 245.144 57.16C244.589 57.16 243.96 57.3253 243.256 57.656ZM245.096 61.544C245.715 61.544 246.179 61.3253 246.488 60.888V60.152C246.189 59.9173 245.768 59.8 245.224 59.8C244.883 59.8 244.605 59.88 244.392 60.04C244.179 60.2 244.072 60.4187 244.072 60.696C244.072 60.952 244.168 61.16 244.36 61.32C244.552 61.4693 244.797 61.544 245.096 61.544ZM251.942 63H250.102V55.8H251.942V56.52C252.475 55.9547 253.163 55.672 254.006 55.672C255.979 55.672 256.966 56.7067 256.966 58.776V63H255.126V59.096C255.126 57.9653 254.587 57.4 253.51 57.4C252.923 57.4 252.401 57.6293 251.942 58.088V63ZM264.293 60.584L265.157 61.928C264.549 62.76 263.594 63.176 262.293 63.176C261.13 63.176 260.186 62.8293 259.461 62.136C258.746 61.4533 258.389 60.5413 258.389 59.4C258.389 58.3227 258.741 57.4267 259.445 56.712C260.149 55.9867 261.039 55.624 262.117 55.624C263.397 55.624 264.362 55.9493 265.013 56.6L264.149 58.056C263.658 57.5867 263.061 57.352 262.357 57.352C261.823 57.352 261.354 57.544 260.949 57.928C260.554 58.2907 260.357 58.7813 260.357 59.4C260.357 60.0187 260.559 60.52 260.965 60.904C261.391 61.2773 261.882 61.464 262.437 61.464C263.151 61.464 263.77 61.1707 264.293 60.584ZM271.263 55.8H273.359L270.527 63C270.015 64.248 269.556 65.0907 269.151 65.528C268.756 65.976 268.287 66.2 267.743 66.2C267.231 66.2 266.713 66.0133 266.191 65.64L266.783 64.248C267.06 64.4187 267.311 64.504 267.535 64.504C267.972 64.504 268.34 64.1307 268.639 63.384L268.799 63L265.471 55.8H267.679L269.359 59.736C269.38 59.7893 269.497 60.136 269.711 60.776C269.775 60.3813 269.86 60.0293 269.967 59.72L271.263 55.8Z" fill="#9D60FF"/>
<rect x="129" y="10" width="68" height="32" rx="16" fill="#2BE6FF"/>
<path d="M151.458 26.096L152.286 19.4H158.244V21.47H154.104L153.744 23.972C153.984 23.924 154.224 23.9 154.464 23.9C155.616 23.9 156.558 24.266 157.29 24.998C158.046 25.73 158.424 26.702 158.424 27.914C158.424 29.222 158.01 30.266 157.182 31.046C156.366 31.814 155.334 32.198 154.086 32.198C153.402 32.198 152.7 32.042 151.98 31.73C151.308 31.418 150.78 30.974 150.396 30.398L151.584 28.832C151.836 29.216 152.202 29.528 152.682 29.768C153.174 30.008 153.66 30.128 154.14 30.128C154.74 30.128 155.232 29.93 155.616 29.534C156.012 29.138 156.21 28.628 156.21 28.004C156.21 27.344 155.964 26.81 155.472 26.402C154.992 25.982 154.344 25.772 153.528 25.772C152.652 25.772 151.962 25.88 151.458 26.096ZM163.458 25.664C162.414 25.664 161.562 25.37 160.902 24.782C160.242 24.194 159.912 23.414 159.912 22.442C159.912 21.482 160.242 20.708 160.902 20.12C161.562 19.532 162.414 19.238 163.458 19.238C164.49 19.238 165.336 19.532 165.996 20.12C166.668 20.72 167.004 21.494 167.004 22.442C167.004 23.402 166.668 24.182 165.996 24.782C165.336 25.37 164.49 25.664 163.458 25.664ZM161.856 22.442C161.856 22.91 162.006 23.288 162.306 23.576C162.606 23.852 162.99 23.99 163.458 23.99C163.938 23.99 164.328 23.852 164.628 23.576C164.928 23.288 165.078 22.91 165.078 22.442C165.078 21.986 164.922 21.62 164.61 21.344C164.31 21.056 163.926 20.912 163.458 20.912C162.99 20.912 162.606 21.056 162.306 21.344C162.006 21.62 161.856 21.986 161.856 22.442ZM171.414 32.18C170.37 32.18 169.518 31.886 168.858 31.298C168.198 30.71 167.868 29.93 167.868 28.958C167.868 27.998 168.198 27.224 168.858 26.636C169.518 26.048 170.37 25.754 171.414 25.754C172.446 25.754 173.292 26.048 173.952 26.636C174.624 27.236 174.96 28.01 174.96 28.958C174.96 29.918 174.624 30.698 173.952 31.298C173.292 31.886 172.446 32.18 171.414 32.18ZM169.812 28.958C169.812 29.426 169.962 29.804 170.262 30.092C170.562 30.368 170.946 30.506 171.414 30.506C171.894 30.506 172.284 30.368 172.584 30.092C172.884 29.804 173.034 29.426 173.034 28.958C173.034 28.502 172.878 28.136 172.566 27.86C172.266 27.572 171.882 27.428 171.414 27.428C170.946 27.428 170.562 27.572 170.262 27.86C169.962 28.136 169.812 28.502 169.812 28.958ZM163.494 32.198L162.306 31.37L171.396 19.202L172.566 20.084L163.494 32.198Z" fill="#4F208A"/>
<path d="M135.192 146H128.552V134.8H135.032V136.64H130.52V139.424H134.552V141.264H130.52V144.16H135.192V146ZM142.683 143.584L143.547 144.928C142.939 145.76 141.984 146.176 140.683 146.176C139.52 146.176 138.576 145.829 137.851 145.136C137.136 144.453 136.779 143.541 136.779 142.4C136.779 141.323 137.131 140.427 137.835 139.712C138.539 138.987 139.43 138.624 140.507 138.624C141.787 138.624 142.752 138.949 143.403 139.6L142.539 141.056C142.048 140.587 141.451 140.352 140.747 140.352C140.214 140.352 139.744 140.544 139.339 140.928C138.944 141.291 138.747 141.781 138.747 142.4C138.747 143.019 138.95 143.52 139.355 143.904C139.782 144.277 140.272 144.464 140.827 144.464C141.542 144.464 142.16 144.171 142.683 143.584ZM145.257 145.12C144.543 144.405 144.185 143.499 144.185 142.4C144.185 141.301 144.543 140.4 145.257 139.696C145.972 138.981 146.921 138.624 148.105 138.624C149.279 138.624 150.223 138.981 150.937 139.696C151.663 140.4 152.025 141.301 152.025 142.4C152.025 143.488 151.663 144.395 150.937 145.12C150.212 145.824 149.268 146.176 148.105 146.176C146.921 146.176 145.972 145.824 145.257 145.12ZM146.713 140.928C146.34 141.312 146.153 141.803 146.153 142.4C146.153 142.997 146.335 143.493 146.697 143.888C147.071 144.272 147.54 144.464 148.105 144.464C148.681 144.464 149.151 144.272 149.513 143.888C149.887 143.504 150.073 143.008 150.073 142.4C150.073 141.803 149.887 141.312 149.513 140.928C149.14 140.544 148.671 140.352 148.105 140.352C147.551 140.352 147.087 140.544 146.713 140.928ZM153.378 140.816C153.378 140.144 153.623 139.611 154.114 139.216C154.604 138.821 155.239 138.624 156.018 138.624C157.191 138.624 158.103 138.928 158.754 139.536L158.066 140.848C157.479 140.389 156.828 140.16 156.114 140.16C155.858 140.16 155.644 140.224 155.474 140.352C155.303 140.469 155.218 140.613 155.218 140.784C155.218 141.136 155.671 141.429 156.578 141.664C156.908 141.739 157.202 141.824 157.458 141.92C157.714 142.005 157.975 142.133 158.242 142.304C158.519 142.464 158.732 142.677 158.882 142.944C159.031 143.211 159.106 143.52 159.106 143.872C159.106 144.576 158.839 145.136 158.306 145.552C157.783 145.968 157.079 146.176 156.194 146.176C155.564 146.176 154.951 146.043 154.354 145.776C153.746 145.499 153.356 145.221 153.186 144.944L154.082 143.744C154.284 143.989 154.62 144.197 155.09 144.368C155.57 144.549 155.98 144.64 156.322 144.64C156.738 144.683 157.031 144.549 157.202 144.24C157.372 143.92 157.26 143.659 156.866 143.456C156.706 143.371 156.455 143.28 156.114 143.184C155.783 143.088 155.474 142.992 155.186 142.896C154.908 142.789 154.62 142.656 154.322 142.496C154.034 142.336 153.804 142.117 153.634 141.84C153.463 141.552 153.378 141.211 153.378 140.816ZM165.575 138.8H167.671L164.839 146C164.327 147.248 163.868 148.091 163.463 148.528C163.068 148.976 162.599 149.2 162.055 149.2C161.543 149.2 161.026 149.013 160.503 148.64L161.095 147.248C161.372 147.419 161.623 147.504 161.847 147.504C162.284 147.504 162.652 147.131 162.951 146.384L163.111 146L159.783 138.8H161.991L163.671 142.736C163.692 142.789 163.81 143.136 164.023 143.776C164.087 143.381 164.172 143.029 164.279 142.72L165.575 138.8ZM168.534 140.816C168.534 140.144 168.779 139.611 169.27 139.216C169.761 138.821 170.395 138.624 171.174 138.624C172.347 138.624 173.259 138.928 173.91 139.536L173.222 140.848C172.635 140.389 171.985 140.16 171.27 140.16C171.014 140.16 170.801 140.224 170.63 140.352C170.459 140.469 170.374 140.613 170.374 140.784C170.374 141.136 170.827 141.429 171.734 141.664C172.065 141.739 172.358 141.824 172.614 141.92C172.87 142.005 173.131 142.133 173.398 142.304C173.675 142.464 173.889 142.677 174.038 142.944C174.187 143.211 174.262 143.52 174.262 143.872C174.262 144.576 173.995 145.136 173.462 145.552C172.939 145.968 172.235 146.176 171.35 146.176C170.721 146.176 170.107 146.043 169.51 145.776C168.902 145.499 168.513 145.221 168.342 144.944L169.238 143.744C169.441 143.989 169.777 144.197 170.246 144.368C170.726 144.549 171.137 144.64 171.478 144.64C171.894 144.683 172.187 144.549 172.358 144.24C172.529 143.92 172.417 143.659 172.022 143.456C171.862 143.371 171.611 143.28 171.27 143.184C170.939 143.088 170.63 142.992 170.342 142.896C170.065 142.789 169.777 142.656 169.478 142.496C169.19 142.336 168.961 142.117 168.79 141.84C168.619 141.552 168.534 141.211 168.534 140.816ZM175.723 143.264V136.8H177.563V138.8H179.883V140.528H177.563V143.152C177.563 144.016 177.851 144.448 178.427 144.448C178.79 144.448 179.158 144.309 179.531 144.032L180.091 145.456C179.505 145.925 178.795 146.16 177.963 146.16C177.185 146.16 176.614 145.925 176.251 145.456C175.899 144.976 175.723 144.245 175.723 143.264ZM187.016 143.984L187.544 145.28C186.829 145.877 185.912 146.176 184.792 146.176C183.64 146.176 182.701 145.829 181.976 145.136C181.272 144.453 180.92 143.541 180.92 142.4C180.92 141.333 181.266 140.437 181.96 139.712C182.653 138.987 183.576 138.624 184.728 138.624C185.677 138.624 186.482 138.939 187.144 139.568C187.805 140.197 188.136 140.997 188.136 141.968C188.136 142.395 188.098 142.725 188.024 142.96H182.824C182.898 143.483 183.128 143.893 183.512 144.192C183.906 144.491 184.397 144.64 184.984 144.64C185.784 144.64 186.461 144.421 187.016 143.984ZM184.648 140.16C183.602 140.16 182.973 140.683 182.76 141.728H186.296C186.306 141.269 186.157 140.896 185.848 140.608C185.549 140.309 185.149 140.16 184.648 140.16ZM200.546 141.296V146H198.706V141.776C198.706 140.859 198.295 140.4 197.474 140.4C196.77 140.4 196.274 140.677 195.986 141.232C195.986 141.253 195.986 141.339 195.986 141.488C195.996 141.627 196.002 141.717 196.002 141.76V146H194.162V141.648C194.162 141.264 194.055 140.96 193.842 140.736C193.639 140.512 193.346 140.4 192.962 140.4C192.29 140.4 191.788 140.656 191.458 141.168V146H189.618V138.8H191.458V139.6C192.012 138.981 192.764 138.672 193.714 138.672C194.236 138.672 194.679 138.779 195.042 138.992C195.415 139.195 195.671 139.472 195.81 139.824C196.396 139.056 197.207 138.672 198.242 138.672C199.778 138.672 200.546 139.547 200.546 141.296ZM213.693 141.808H210.989V139.968H215.533V144.608C215.053 145.088 214.413 145.472 213.613 145.76C212.813 146.037 212.056 146.176 211.341 146.176C209.528 146.176 208.099 145.653 207.053 144.608C206.019 143.573 205.501 142.171 205.501 140.4C205.501 138.757 206.013 137.387 207.037 136.288C208.061 135.179 209.411 134.624 211.085 134.624C212.515 134.624 213.715 135.003 214.685 135.76L213.853 137.328C213.576 137.061 213.208 136.853 212.749 136.704C212.291 136.544 211.816 136.464 211.325 136.464C210.205 136.464 209.304 136.816 208.621 137.52C207.928 138.213 207.581 139.173 207.581 140.4C207.581 141.584 207.928 142.539 208.621 143.264C209.304 143.979 210.221 144.336 211.373 144.336C211.779 144.336 212.216 144.261 212.685 144.112C213.155 143.952 213.491 143.771 213.693 143.568V141.808ZM219.27 146H217.43V138.8H219.27V139.504C219.665 138.949 220.214 138.672 220.918 138.672C221.42 138.672 221.793 138.763 222.038 138.944L221.382 140.672C221.073 140.491 220.764 140.4 220.454 140.4C219.921 140.4 219.526 140.656 219.27 141.168V146ZM223.711 145.12C222.996 144.405 222.639 143.499 222.639 142.4C222.639 141.301 222.996 140.4 223.711 139.696C224.425 138.981 225.375 138.624 226.559 138.624C227.732 138.624 228.676 138.981 229.391 139.696C230.116 140.4 230.479 141.301 230.479 142.4C230.479 143.488 230.116 144.395 229.391 145.12C228.665 145.824 227.721 146.176 226.559 146.176C225.375 146.176 224.425 145.824 223.711 145.12ZM225.167 140.928C224.793 141.312 224.607 141.803 224.607 142.4C224.607 142.997 224.788 143.493 225.151 143.888C225.524 144.272 225.993 144.464 226.559 144.464C227.135 144.464 227.604 144.272 227.967 143.888C228.34 143.504 228.527 143.008 228.527 142.4C228.527 141.803 228.34 141.312 227.967 140.928C227.593 140.544 227.124 140.352 226.559 140.352C226.004 140.352 225.54 140.544 225.167 140.928ZM240.506 138.8H242.362L240.09 146.032H238.442L236.906 142.032C236.853 141.925 236.805 141.765 236.762 141.552L236.666 141.184C236.592 141.536 236.506 141.829 236.41 142.064L234.89 146.032H233.322L230.986 138.8H232.954L234.106 142.72C234.149 142.816 234.218 143.136 234.314 143.68C234.421 143.253 234.512 142.933 234.586 142.72L235.93 138.8H237.562L238.954 142.704C238.997 142.821 239.088 143.152 239.226 143.696C239.365 143.035 239.44 142.688 239.45 142.656L240.506 138.8ZM243.302 143.264V136.8H245.142V138.8H247.462V140.528H245.142V143.152C245.142 144.016 245.43 144.448 246.006 144.448C246.368 144.448 246.736 144.309 247.11 144.032L247.67 145.456C247.083 145.925 246.374 146.16 245.542 146.16C244.763 146.16 244.192 145.925 243.83 145.456C243.478 144.976 243.302 144.245 243.302 143.264ZM251.067 146H249.227V134.8H251.067V139.456C251.6 138.933 252.288 138.672 253.131 138.672C255.104 138.672 256.091 139.723 256.091 141.824V146H254.251V142.064C254.251 141.531 254.112 141.12 253.835 140.832C253.558 140.544 253.163 140.4 252.651 140.4C252.032 140.4 251.504 140.619 251.067 141.056V146Z" fill="#9D60FF"/>
<rect x="128" y="93" width="68" height="32" rx="16" fill="#2BE6FF"/>
<path d="M152.586 115H144.666V113.344C146.118 111.928 147.12 110.902 147.672 110.266C149.16 108.562 149.904 107.128 149.904 105.964C149.904 105.448 149.766 105.046 149.49 104.758C149.214 104.47 148.818 104.326 148.302 104.326C147.378 104.326 146.772 104.89 146.484 106.018L144.756 105.244C144.924 104.32 145.344 103.594 146.016 103.066C146.7 102.526 147.54 102.256 148.536 102.256C149.664 102.256 150.54 102.58 151.164 103.228C151.788 103.864 152.1 104.638 152.1 105.55C152.1 106.198 151.962 106.888 151.686 107.62C151.41 108.328 151.092 108.946 150.732 109.474C150.36 110.026 149.922 110.566 149.418 111.094C148.986 111.574 148.59 111.982 148.23 112.318C148.05 112.486 147.756 112.738 147.348 113.074H152.586V115ZM158.425 102.256C159.829 102.256 160.879 102.832 161.575 103.984C162.283 105.148 162.637 106.72 162.637 108.7C162.637 110.74 162.283 112.324 161.575 113.452C160.867 114.58 159.829 115.144 158.461 115.144C157.081 115.144 156.025 114.574 155.293 113.434C154.561 112.294 154.195 110.716 154.195 108.7C154.195 106.672 154.555 105.094 155.275 103.966C155.995 102.826 157.045 102.256 158.425 102.256ZM156.409 108.7C156.409 111.712 157.093 113.218 158.461 113.218C159.169 113.218 159.673 112.864 159.973 112.156C160.285 111.448 160.441 110.296 160.441 108.7C160.441 107.116 160.285 105.97 159.973 105.262C159.661 104.554 159.145 104.2 158.425 104.2C157.717 104.2 157.201 104.566 156.877 105.298C156.565 106.018 156.409 107.152 156.409 108.7ZM167.618 108.664C166.574 108.664 165.722 108.37 165.062 107.782C164.402 107.194 164.072 106.414 164.072 105.442C164.072 104.482 164.402 103.708 165.062 103.12C165.722 102.532 166.574 102.238 167.618 102.238C168.65 102.238 169.496 102.532 170.156 103.12C170.828 103.72 171.164 104.494 171.164 105.442C171.164 106.402 170.828 107.182 170.156 107.782C169.496 108.37 168.65 108.664 167.618 108.664ZM166.016 105.442C166.016 105.91 166.166 106.288 166.466 106.576C166.766 106.852 167.15 106.99 167.618 106.99C168.098 106.99 168.488 106.852 168.788 106.576C169.088 106.288 169.238 105.91 169.238 105.442C169.238 104.986 169.082 104.62 168.77 104.344C168.47 104.056 168.086 103.912 167.618 103.912C167.15 103.912 166.766 104.056 166.466 104.344C166.166 104.62 166.016 104.986 166.016 105.442ZM175.574 115.18C174.53 115.18 173.678 114.886 173.018 114.298C172.358 113.71 172.028 112.93 172.028 111.958C172.028 110.998 172.358 110.224 173.018 109.636C173.678 109.048 174.53 108.754 175.574 108.754C176.606 108.754 177.452 109.048 178.112 109.636C178.784 110.236 179.12 111.01 179.12 111.958C179.12 112.918 178.784 113.698 178.112 114.298C177.452 114.886 176.606 115.18 175.574 115.18ZM173.972 111.958C173.972 112.426 174.122 112.804 174.422 113.092C174.722 113.368 175.106 113.506 175.574 113.506C176.054 113.506 176.444 113.368 176.744 113.092C177.044 112.804 177.194 112.426 177.194 111.958C177.194 111.502 177.038 111.136 176.726 110.86C176.426 110.572 176.042 110.428 175.574 110.428C175.106 110.428 174.722 110.572 174.422 110.86C174.122 111.136 173.972 111.502 173.972 111.958ZM167.654 115.198L166.466 114.37L175.556 102.202L176.726 103.084L167.654 115.198Z" fill="#4F208A"/>
<path d="M135.56 229H128.552V217.8H130.52V227.16H135.56V229ZM138.511 229H136.671V221.8H138.511V229ZM136.479 219.208C136.479 218.888 136.586 218.632 136.799 218.44C137.023 218.237 137.3 218.136 137.631 218.136C137.919 218.136 138.164 218.237 138.367 218.44C138.58 218.643 138.687 218.899 138.687 219.208C138.687 219.549 138.58 219.827 138.367 220.04C138.164 220.253 137.919 220.36 137.631 220.36C137.3 220.36 137.023 220.253 136.799 220.04C136.586 219.827 136.479 219.549 136.479 219.208ZM147.749 232.2H145.909V228.632C145.354 228.995 144.762 229.176 144.133 229.176C142.991 229.176 142.079 228.835 141.397 228.152C140.725 227.459 140.389 226.541 140.389 225.4C140.389 224.323 140.778 223.427 141.557 222.712C142.346 221.987 143.333 221.624 144.516 221.624C145.754 221.624 146.831 221.912 147.749 222.488V232.2ZM144.373 227.464C144.991 227.464 145.503 227.245 145.909 226.808V223.704C145.429 223.469 144.959 223.352 144.501 223.352C143.839 223.352 143.317 223.555 142.933 223.96C142.549 224.355 142.357 224.861 142.357 225.48C142.357 226.056 142.538 226.531 142.901 226.904C143.274 227.277 143.765 227.464 144.373 227.464ZM154.446 221.8H156.286V229H154.446V228.12C153.87 228.824 153.102 229.176 152.142 229.176C151.374 229.176 150.761 228.92 150.302 228.408C149.843 227.896 149.614 227.16 149.614 226.2V221.8H151.454V225.816C151.454 226.915 151.913 227.464 152.83 227.464C153.459 227.464 153.998 227.171 154.446 226.584V221.8ZM160.449 229H158.609V221.8H160.449V229ZM158.417 219.208C158.417 218.888 158.523 218.632 158.737 218.44C158.961 218.237 159.238 218.136 159.569 218.136C159.857 218.136 160.102 218.237 160.305 218.44C160.518 218.643 160.625 218.899 160.625 219.208C160.625 219.549 160.518 219.827 160.305 220.04C160.102 220.253 159.857 220.36 159.569 220.36C159.238 220.36 158.961 220.253 158.737 220.04C158.523 219.827 158.417 219.549 158.417 219.208ZM169.622 229H167.782V228.248C167.227 228.835 166.539 229.128 165.718 229.128C164.705 229.128 163.883 228.797 163.254 228.136C162.635 227.475 162.326 226.589 162.326 225.48C162.326 224.349 162.694 223.427 163.43 222.712C164.177 221.987 165.126 221.624 166.278 221.624C166.886 221.624 167.387 221.741 167.782 221.976V217.8H169.622V229ZM166.102 227.416C166.731 227.416 167.291 227.171 167.782 226.68V223.784C167.323 223.496 166.849 223.352 166.358 223.352C165.771 223.352 165.281 223.539 164.886 223.912C164.491 224.285 164.294 224.787 164.294 225.416C164.294 226.024 164.465 226.509 164.806 226.872C165.147 227.235 165.579 227.416 166.102 227.416ZM173.777 229H171.937V221.8H173.777V229ZM171.745 219.208C171.745 218.888 171.851 218.632 172.065 218.44C172.289 218.237 172.566 218.136 172.897 218.136C173.185 218.136 173.43 218.237 173.633 218.44C173.846 218.643 173.953 218.899 173.953 219.208C173.953 219.549 173.846 219.827 173.633 220.04C173.43 220.253 173.185 220.36 172.897 220.36C172.566 220.36 172.289 220.253 172.065 220.04C171.851 219.827 171.745 219.549 171.745 219.208ZM175.942 226.264V219.8H177.782V221.8H180.102V223.528H177.782V226.152C177.782 227.016 178.07 227.448 178.646 227.448C179.009 227.448 179.377 227.309 179.75 227.032L180.31 228.456C179.723 228.925 179.014 229.16 178.182 229.16C177.403 229.16 176.833 228.925 176.47 228.456C176.118 227.976 175.942 227.245 175.942 226.264ZM186.575 221.8H188.671L185.839 229C185.327 230.248 184.868 231.091 184.463 231.528C184.068 231.976 183.599 232.2 183.055 232.2C182.543 232.2 182.026 232.013 181.503 231.64L182.095 230.248C182.372 230.419 182.623 230.504 182.847 230.504C183.284 230.504 183.652 230.131 183.951 229.384L184.111 229L180.783 221.8H182.991L184.671 225.736C184.692 225.789 184.81 226.136 185.023 226.776C185.087 226.381 185.172 226.029 185.279 225.72L186.575 221.8ZM203.389 229H201.101L200.157 227.832C199.335 228.728 198.237 229.176 196.861 229.176C195.741 229.176 194.834 228.877 194.141 228.28C193.447 227.672 193.101 226.899 193.101 225.96C193.101 225.117 193.309 224.424 193.725 223.88C194.173 223.304 194.791 222.744 195.581 222.2C194.727 221.795 194.301 221.08 194.301 220.056C194.301 219.309 194.562 218.723 195.085 218.296C195.618 217.848 196.242 217.624 196.957 217.624C197.671 217.624 198.295 217.848 198.829 218.296C199.351 218.723 199.613 219.309 199.613 220.056C199.613 220.536 199.469 220.984 199.181 221.4C198.903 221.816 198.567 222.088 198.173 222.216L200.349 225.048C200.85 224.067 201.101 222.984 201.101 221.8H202.925C202.925 223.624 202.434 225.197 201.453 226.52L203.389 229ZM196.925 227.336C197.863 227.336 198.573 227.011 199.053 226.36L196.781 223.256C196.194 223.725 195.778 224.136 195.533 224.488C195.298 224.829 195.181 225.197 195.181 225.592C195.181 226.083 195.346 226.499 195.677 226.84C196.018 227.171 196.434 227.336 196.925 227.336ZM196.013 220.056C196.013 220.312 196.103 220.531 196.285 220.712C196.466 220.893 196.69 220.984 196.957 220.984C197.223 220.984 197.447 220.893 197.629 220.712C197.81 220.531 197.901 220.312 197.901 220.056C197.901 219.789 197.805 219.565 197.613 219.384C197.431 219.203 197.213 219.112 196.957 219.112C196.69 219.112 196.466 219.203 196.285 219.384C196.103 219.565 196.013 219.789 196.013 220.056ZM215.77 229H209.13V217.8H215.61V219.64H211.098V222.424H215.13V224.264H211.098V227.16H215.77V229ZM222.557 221.8H224.685L222.285 225.24L224.845 229H222.605L220.925 226.408L219.181 229H217.053L219.613 225.336L217.213 221.8H219.469L220.989 224.184L222.557 221.8ZM231.183 226.584L232.047 227.928C231.439 228.76 230.484 229.176 229.183 229.176C228.02 229.176 227.076 228.829 226.351 228.136C225.636 227.453 225.279 226.541 225.279 225.4C225.279 224.323 225.631 223.427 226.335 222.712C227.039 221.987 227.93 221.624 229.007 221.624C230.287 221.624 231.252 221.949 231.903 222.6L231.039 224.056C230.548 223.587 229.951 223.352 229.247 223.352C228.714 223.352 228.244 223.544 227.839 223.928C227.444 224.291 227.247 224.781 227.247 225.4C227.247 226.019 227.45 226.52 227.855 226.904C228.282 227.277 228.772 227.464 229.327 227.464C230.042 227.464 230.66 227.171 231.183 226.584ZM235.364 229H233.524V217.8H235.364V222.456C235.897 221.933 236.585 221.672 237.428 221.672C239.401 221.672 240.388 222.723 240.388 224.824V229H238.548V225.064C238.548 224.531 238.409 224.12 238.132 223.832C237.855 223.544 237.46 223.4 236.948 223.4C236.329 223.4 235.801 223.619 235.364 224.056V229ZM242.818 223.656L242.354 222.312C243.133 221.853 243.981 221.624 244.898 221.624C245.901 221.624 246.632 221.869 247.09 222.36C247.549 222.851 247.778 223.603 247.778 224.616V229H246.178V228.168C245.752 228.787 245.042 229.096 244.05 229.096C243.368 229.096 242.818 228.899 242.402 228.504C241.997 228.099 241.794 227.56 241.794 226.888C241.794 226.141 242.034 225.565 242.514 225.16C242.994 224.755 243.629 224.552 244.418 224.552C245.069 224.552 245.613 224.707 246.05 225.016C246.072 224.376 245.976 223.907 245.762 223.608C245.56 223.309 245.208 223.16 244.706 223.16C244.152 223.16 243.522 223.325 242.818 223.656ZM244.658 227.544C245.277 227.544 245.741 227.325 246.05 226.888V226.152C245.752 225.917 245.33 225.8 244.786 225.8C244.445 225.8 244.168 225.88 243.954 226.04C243.741 226.2 243.634 226.419 243.634 226.696C243.634 226.952 243.73 227.16 243.922 227.32C244.114 227.469 244.36 227.544 244.658 227.544ZM251.505 229H249.665V221.8H251.505V222.52C252.038 221.955 252.726 221.672 253.569 221.672C255.542 221.672 256.529 222.707 256.529 224.776V229H254.689V225.096C254.689 223.965 254.15 223.4 253.073 223.4C252.486 223.4 251.963 223.629 251.505 224.088V229ZM257.455 229.976C257.455 229.411 257.663 228.941 258.079 228.568C258.495 228.184 259.066 227.912 259.791 227.752C259.706 227.603 259.663 227.437 259.663 227.256C259.663 227.053 259.716 226.883 259.823 226.744C259.29 226.531 258.868 226.211 258.559 225.784C258.26 225.347 258.111 224.861 258.111 224.328C258.111 223.592 258.394 222.957 258.959 222.424C259.524 221.891 260.266 221.624 261.183 221.624C261.876 221.624 262.49 221.795 263.023 222.136L265.199 221.656L265.263 223.128L264.063 223.4C264.18 223.72 264.239 224.029 264.239 224.328C264.239 225.053 263.956 225.683 263.391 226.216C262.836 226.728 262.1 226.984 261.183 226.984H261.055C261.034 227.069 261.023 227.16 261.023 227.256C261.023 227.395 261.055 227.517 261.119 227.624H261.199C262.319 227.624 263.22 227.821 263.903 228.216C264.596 228.621 264.943 229.208 264.943 229.976C264.943 230.744 264.596 231.331 263.903 231.736C263.22 232.131 262.319 232.328 261.199 232.328C260.047 232.328 259.135 232.125 258.463 231.72C257.791 231.325 257.455 230.744 257.455 229.976ZM259.167 229.976C259.167 230.253 259.343 230.467 259.695 230.616C260.058 230.776 260.559 230.856 261.199 230.856C262.543 230.856 263.215 230.563 263.215 229.976C263.215 229.709 263.039 229.496 262.687 229.336C262.335 229.176 261.839 229.096 261.199 229.096C260.57 229.096 260.074 229.176 259.711 229.336C259.348 229.496 259.167 229.709 259.167 229.976ZM261.183 225.496C261.578 225.496 261.898 225.389 262.143 225.176C262.399 224.963 262.527 224.68 262.527 224.328C262.527 223.965 262.404 223.672 262.159 223.448C261.914 223.224 261.588 223.112 261.183 223.112C260.778 223.112 260.452 223.229 260.207 223.464C259.962 223.688 259.839 223.976 259.839 224.328C259.839 224.669 259.962 224.952 260.207 225.176C260.452 225.389 260.778 225.496 261.183 225.496ZM272.031 226.984L272.559 228.28C271.845 228.877 270.927 229.176 269.807 229.176C268.655 229.176 267.717 228.829 266.991 228.136C266.287 227.453 265.935 226.541 265.935 225.4C265.935 224.333 266.282 223.437 266.975 222.712C267.669 221.987 268.591 221.624 269.743 221.624C270.693 221.624 271.498 221.939 272.159 222.568C272.821 223.197 273.151 223.997 273.151 224.968C273.151 225.395 273.114 225.725 273.039 225.96H267.839C267.914 226.483 268.143 226.893 268.527 227.192C268.922 227.491 269.413 227.64 269.999 227.64C270.799 227.64 271.477 227.421 272.031 226.984ZM269.663 223.16C268.618 223.16 267.989 223.683 267.775 224.728H271.311C271.322 224.269 271.173 223.896 270.863 223.608C270.565 223.309 270.165 223.16 269.663 223.16Z" fill="#9D60FF"/>
<rect x="128" y="176" width="68" height="32" rx="16" fill="#2BE6FF"/>
<path d="M148.392 198.198C147.468 198.198 146.652 198.012 145.944 197.64C145.248 197.256 144.732 196.734 144.396 196.074L145.566 194.562C146.274 195.606 147.174 196.128 148.266 196.128C148.902 196.128 149.4 195.966 149.76 195.642C150.12 195.318 150.3 194.898 150.3 194.382C150.3 193.806 150.09 193.368 149.67 193.068C149.262 192.756 148.692 192.6 147.96 192.6H147.06V190.53H147.87C148.422 190.53 148.884 190.368 149.256 190.044C149.628 189.72 149.814 189.306 149.814 188.802C149.814 188.322 149.676 187.95 149.4 187.686C149.124 187.41 148.728 187.272 148.212 187.272C147.24 187.272 146.448 187.722 145.836 188.622L144.684 187.164C145.38 185.856 146.622 185.202 148.41 185.202C149.502 185.202 150.378 185.496 151.038 186.084C151.698 186.66 152.028 187.434 152.028 188.406C152.028 189.834 151.386 190.83 150.102 191.394V191.448C150.858 191.58 151.446 191.922 151.866 192.474C152.298 193.014 152.514 193.674 152.514 194.454C152.514 195.594 152.124 196.506 151.344 197.19C150.564 197.862 149.58 198.198 148.392 198.198ZM158.531 185.256C159.935 185.256 160.985 185.832 161.681 186.984C162.389 188.148 162.743 189.72 162.743 191.7C162.743 193.74 162.389 195.324 161.681 196.452C160.973 197.58 159.935 198.144 158.567 198.144C157.187 198.144 156.131 197.574 155.399 196.434C154.667 195.294 154.301 193.716 154.301 191.7C154.301 189.672 154.661 188.094 155.381 186.966C156.101 185.826 157.151 185.256 158.531 185.256ZM156.515 191.7C156.515 194.712 157.199 196.218 158.567 196.218C159.275 196.218 159.779 195.864 160.079 195.156C160.391 194.448 160.547 193.296 160.547 191.7C160.547 190.116 160.391 188.97 160.079 188.262C159.767 187.554 159.251 187.2 158.531 187.2C157.823 187.2 157.307 187.566 156.983 188.298C156.671 189.018 156.515 190.152 156.515 191.7ZM167.724 191.664C166.68 191.664 165.828 191.37 165.168 190.782C164.508 190.194 164.178 189.414 164.178 188.442C164.178 187.482 164.508 186.708 165.168 186.12C165.828 185.532 166.68 185.238 167.724 185.238C168.756 185.238 169.602 185.532 170.262 186.12C170.934 186.72 171.27 187.494 171.27 188.442C171.27 189.402 170.934 190.182 170.262 190.782C169.602 191.37 168.756 191.664 167.724 191.664ZM166.122 188.442C166.122 188.91 166.272 189.288 166.572 189.576C166.872 189.852 167.256 189.99 167.724 189.99C168.204 189.99 168.594 189.852 168.894 189.576C169.194 189.288 169.344 188.91 169.344 188.442C169.344 187.986 169.188 187.62 168.876 187.344C168.576 187.056 168.192 186.912 167.724 186.912C167.256 186.912 166.872 187.056 166.572 187.344C166.272 187.62 166.122 187.986 166.122 188.442ZM175.68 198.18C174.636 198.18 173.784 197.886 173.124 197.298C172.464 196.71 172.134 195.93 172.134 194.958C172.134 193.998 172.464 193.224 173.124 192.636C173.784 192.048 174.636 191.754 175.68 191.754C176.712 191.754 177.558 192.048 178.218 192.636C178.89 193.236 179.226 194.01 179.226 194.958C179.226 195.918 178.89 196.698 178.218 197.298C177.558 197.886 176.712 198.18 175.68 198.18ZM174.078 194.958C174.078 195.426 174.228 195.804 174.528 196.092C174.828 196.368 175.212 196.506 175.68 196.506C176.16 196.506 176.55 196.368 176.85 196.092C177.15 195.804 177.3 195.426 177.3 194.958C177.3 194.502 177.144 194.136 176.832 193.86C176.532 193.572 176.148 193.428 175.68 193.428C175.212 193.428 174.828 193.572 174.528 193.86C174.228 194.136 174.078 194.502 174.078 194.958ZM167.76 198.198L166.572 197.37L175.662 185.202L176.832 186.084L167.76 198.198Z" fill="#4F208A"/>
<path d="M130.52 307.952V312H128.552V300.8C129.021 300.8 129.528 300.795 130.072 300.784C130.627 300.773 131.181 300.768 131.736 300.768C132.525 300.768 133.208 300.869 133.784 301.072C134.371 301.264 134.824 301.536 135.144 301.888C135.464 302.229 135.699 302.608 135.848 303.024C135.997 303.429 136.072 303.877 136.072 304.368C136.072 305.381 135.709 306.24 134.984 306.944C134.269 307.648 133.267 308 131.976 308C131.325 308 130.84 307.984 130.52 307.952ZM131.928 302.608L130.52 302.64V306.08C131.085 306.133 131.549 306.16 131.912 306.16C132.541 306.16 133.043 306.005 133.416 305.696C133.8 305.387 133.992 304.939 133.992 304.352C133.992 303.189 133.304 302.608 131.928 302.608ZM139.098 312H137.258V304.8H139.098V305.504C139.493 304.949 140.042 304.672 140.746 304.672C141.248 304.672 141.621 304.763 141.866 304.944L141.21 306.672C140.901 306.491 140.592 306.4 140.282 306.4C139.749 306.4 139.354 306.656 139.098 307.168V312ZM143.539 311.12C142.824 310.405 142.467 309.499 142.467 308.4C142.467 307.301 142.824 306.4 143.539 305.696C144.253 304.981 145.203 304.624 146.387 304.624C147.56 304.624 148.504 304.981 149.219 305.696C149.944 306.4 150.307 307.301 150.307 308.4C150.307 309.488 149.944 310.395 149.219 311.12C148.493 311.824 147.549 312.176 146.387 312.176C145.203 312.176 144.253 311.824 143.539 311.12ZM144.995 306.928C144.621 307.312 144.435 307.803 144.435 308.4C144.435 308.997 144.616 309.493 144.979 309.888C145.352 310.272 145.821 310.464 146.387 310.464C146.963 310.464 147.432 310.272 147.795 309.888C148.168 309.504 148.355 309.008 148.355 308.4C148.355 307.803 148.168 307.312 147.795 306.928C147.421 306.544 146.952 306.352 146.387 306.352C145.832 306.352 145.368 306.544 144.995 306.928ZM158.747 312H156.907V311.248C156.352 311.835 155.664 312.128 154.843 312.128C153.83 312.128 153.008 311.797 152.379 311.136C151.76 310.475 151.451 309.589 151.451 308.48C151.451 307.349 151.819 306.427 152.555 305.712C153.302 304.987 154.251 304.624 155.403 304.624C156.011 304.624 156.512 304.741 156.907 304.976V300.8H158.747V312ZM155.227 310.416C155.856 310.416 156.416 310.171 156.907 309.68V306.784C156.448 306.496 155.974 306.352 155.483 306.352C154.896 306.352 154.406 306.539 154.011 306.912C153.616 307.285 153.419 307.787 153.419 308.416C153.419 309.024 153.59 309.509 153.931 309.872C154.272 310.235 154.704 310.416 155.227 310.416ZM165.462 304.8H167.302V312H165.462V311.12C164.886 311.824 164.118 312.176 163.158 312.176C162.39 312.176 161.776 311.92 161.318 311.408C160.859 310.896 160.63 310.16 160.63 309.2V304.8H162.47V308.816C162.47 309.915 162.928 310.464 163.846 310.464C164.475 310.464 165.014 310.171 165.462 309.584V304.8ZM174.808 309.584L175.672 310.928C175.064 311.76 174.109 312.176 172.808 312.176C171.645 312.176 170.701 311.829 169.976 311.136C169.261 310.453 168.904 309.541 168.904 308.4C168.904 307.323 169.256 306.427 169.96 305.712C170.664 304.987 171.555 304.624 172.632 304.624C173.912 304.624 174.877 304.949 175.528 305.6L174.664 307.056C174.173 306.587 173.576 306.352 172.872 306.352C172.339 306.352 171.869 306.544 171.464 306.928C171.069 307.291 170.872 307.781 170.872 308.4C170.872 309.019 171.075 309.52 171.48 309.904C171.907 310.277 172.397 310.464 172.952 310.464C173.667 310.464 174.285 310.171 174.808 309.584ZM176.989 309.264V302.8H178.829V304.8H181.149V306.528H178.829V309.152C178.829 310.016 179.117 310.448 179.693 310.448C180.056 310.448 180.424 310.309 180.797 310.032L181.357 311.456C180.77 311.925 180.061 312.16 179.229 312.16C178.45 312.16 177.88 311.925 177.517 311.456C177.165 310.976 176.989 310.245 176.989 309.264ZM187.057 312H186.833V300.8H187.041C187.511 300.8 188.007 300.795 188.529 300.784C189.575 300.763 190.108 300.752 190.129 300.752C192.305 300.752 193.916 301.307 194.961 302.416C195.932 303.451 196.417 304.741 196.417 306.288C196.417 307.952 195.857 309.328 194.737 310.416C193.628 311.493 192.049 312.032 190.001 312.032C189.575 312.032 189.127 312.027 188.657 312.016C188.199 312.005 187.665 312 187.057 312ZM190.097 302.592C189.681 302.592 189.249 302.608 188.801 302.64V310.16C189.292 310.181 189.713 310.192 190.065 310.192C191.399 310.192 192.444 309.84 193.201 309.136C193.959 308.432 194.337 307.483 194.337 306.288C194.337 305.147 193.959 304.245 193.201 303.584C192.455 302.923 191.42 302.592 190.097 302.592ZM203.594 309.984L204.122 311.28C203.407 311.877 202.49 312.176 201.37 312.176C200.218 312.176 199.279 311.829 198.554 311.136C197.85 310.453 197.498 309.541 197.498 308.4C197.498 307.333 197.845 306.437 198.538 305.712C199.231 304.987 200.154 304.624 201.306 304.624C202.255 304.624 203.061 304.939 203.722 305.568C204.383 306.197 204.714 306.997 204.714 307.968C204.714 308.395 204.677 308.725 204.602 308.96H199.402C199.477 309.483 199.706 309.893 200.09 310.192C200.485 310.491 200.975 310.64 201.562 310.64C202.362 310.64 203.039 310.421 203.594 309.984ZM201.226 306.16C200.181 306.16 199.551 306.683 199.338 307.728H202.874C202.885 307.269 202.735 306.896 202.426 306.608C202.127 306.309 201.727 306.16 201.226 306.16ZM210.745 304.8H212.681L209.577 312.032H208.217L204.905 304.8H207.097L208.425 307.888C208.649 308.389 208.83 308.933 208.969 309.52C209.118 308.912 209.294 308.357 209.497 307.856L210.745 304.8ZM219.047 309.984L219.575 311.28C218.86 311.877 217.943 312.176 216.823 312.176C215.671 312.176 214.732 311.829 214.007 311.136C213.303 310.453 212.951 309.541 212.951 308.4C212.951 307.333 213.298 306.437 213.991 305.712C214.684 304.987 215.607 304.624 216.759 304.624C217.708 304.624 218.514 304.939 219.175 305.568C219.836 306.197 220.167 306.997 220.167 307.968C220.167 308.395 220.13 308.725 220.055 308.96H214.855C214.93 309.483 215.159 309.893 215.543 310.192C215.938 310.491 216.428 310.64 217.015 310.64C217.815 310.64 218.492 310.421 219.047 309.984ZM216.679 306.16C215.634 306.16 215.004 306.683 214.791 307.728H218.327C218.338 307.269 218.188 306.896 217.879 306.608C217.58 306.309 217.18 306.16 216.679 306.16ZM221.649 310.016V300.8H223.489V309.264C223.489 310.043 223.697 310.432 224.113 310.432C224.348 310.432 224.598 310.336 224.865 310.144L225.249 311.552C224.748 311.957 224.113 312.16 223.345 312.16C222.214 312.16 221.649 311.445 221.649 310.016ZM227.054 311.12C226.34 310.405 225.982 309.499 225.982 308.4C225.982 307.301 226.34 306.4 227.054 305.696C227.769 304.981 228.718 304.624 229.902 304.624C231.076 304.624 232.02 304.981 232.734 305.696C233.46 306.4 233.822 307.301 233.822 308.4C233.822 309.488 233.46 310.395 232.734 311.12C232.009 311.824 231.065 312.176 229.902 312.176C228.718 312.176 227.769 311.824 227.054 311.12ZM228.51 306.928C228.137 307.312 227.95 307.803 227.95 308.4C227.95 308.997 228.132 309.493 228.494 309.888C228.868 310.272 229.337 310.464 229.902 310.464C230.478 310.464 230.948 310.272 231.31 309.888C231.684 309.504 231.87 309.008 231.87 308.4C231.87 307.803 231.684 307.312 231.31 306.928C230.937 306.544 230.468 306.352 229.902 306.352C229.348 306.352 228.884 306.544 228.51 306.928ZM237.255 315.2H235.415V304.8H237.255V305.488C237.489 305.232 237.809 305.024 238.215 304.864C238.62 304.704 239.041 304.624 239.479 304.624C240.471 304.624 241.26 304.965 241.847 305.648C242.444 306.341 242.743 307.221 242.743 308.288C242.743 309.408 242.391 310.336 241.687 311.072C240.983 311.808 240.065 312.176 238.935 312.176C238.209 312.176 237.649 312.059 237.255 311.824V315.2ZM238.903 306.352C238.263 306.352 237.713 306.613 237.255 307.136V310.048C237.692 310.325 238.199 310.464 238.775 310.464C239.383 310.464 239.868 310.267 240.231 309.872C240.604 309.477 240.791 308.965 240.791 308.336C240.791 307.739 240.62 307.259 240.279 306.896C239.948 306.533 239.489 306.352 238.903 306.352ZM255.265 307.296V312H253.425V307.776C253.425 306.859 253.014 306.4 252.193 306.4C251.489 306.4 250.993 306.677 250.705 307.232C250.705 307.253 250.705 307.339 250.705 307.488C250.715 307.627 250.721 307.717 250.721 307.76V312H248.881V307.648C248.881 307.264 248.774 306.96 248.561 306.736C248.358 306.512 248.065 306.4 247.681 306.4C247.009 306.4 246.507 306.656 246.177 307.168V312H244.337V304.8H246.177V305.6C246.731 304.981 247.483 304.672 248.433 304.672C248.955 304.672 249.398 304.779 249.761 304.992C250.134 305.195 250.39 305.472 250.529 305.824C251.115 305.056 251.926 304.672 252.961 304.672C254.497 304.672 255.265 305.547 255.265 307.296ZM262.781 309.984L263.309 311.28C262.595 311.877 261.677 312.176 260.557 312.176C259.405 312.176 258.467 311.829 257.741 311.136C257.037 310.453 256.685 309.541 256.685 308.4C256.685 307.333 257.032 306.437 257.725 305.712C258.419 304.987 259.341 304.624 260.493 304.624C261.443 304.624 262.248 304.939 262.909 305.568C263.571 306.197 263.901 306.997 263.901 307.968C263.901 308.395 263.864 308.725 263.789 308.96H258.589C258.664 309.483 258.893 309.893 259.277 310.192C259.672 310.491 260.163 310.64 260.749 310.64C261.549 310.64 262.227 310.421 262.781 309.984ZM260.413 306.16C259.368 306.16 258.739 306.683 258.525 307.728H262.061C262.072 307.269 261.923 306.896 261.613 306.608C261.315 306.309 260.915 306.16 260.413 306.16ZM267.223 312H265.383V304.8H267.223V305.52C267.757 304.955 268.445 304.672 269.287 304.672C271.261 304.672 272.247 305.707 272.247 307.776V312H270.407V308.096C270.407 306.965 269.869 306.4 268.791 306.4C268.205 306.4 267.682 306.629 267.223 307.088V312ZM273.958 309.264V302.8H275.798V304.8H278.118V306.528H275.798V309.152C275.798 310.016 276.086 310.448 276.662 310.448C277.024 310.448 277.392 310.309 277.766 310.032L278.326 311.456C277.739 311.925 277.03 312.16 276.198 312.16C275.419 312.16 274.848 311.925 274.486 311.456C274.134 310.976 273.958 310.245 273.958 309.264Z" fill="#9D60FF"/>
<rect x="128" y="259" width="68" height="32" rx="16" fill="#2BE6FF"/>
<path d="M152.1 281H150.03V278.084H144.27V276.554L149.13 268.4H151.506L146.952 276.014H150.03V272.9H152.1V276.014H153.72V278.084H152.1V281ZM155.636 275.096L156.464 268.4H162.422V270.47H158.282L157.922 272.972C158.162 272.924 158.402 272.9 158.642 272.9C159.794 272.9 160.736 273.266 161.468 273.998C162.224 274.73 162.602 275.702 162.602 276.914C162.602 278.222 162.188 279.266 161.36 280.046C160.544 280.814 159.512 281.198 158.264 281.198C157.58 281.198 156.878 281.042 156.158 280.73C155.486 280.418 154.958 279.974 154.574 279.398L155.762 277.832C156.014 278.216 156.38 278.528 156.86 278.768C157.352 279.008 157.838 279.128 158.318 279.128C158.918 279.128 159.41 278.93 159.794 278.534C160.19 278.138 160.388 277.628 160.388 277.004C160.388 276.344 160.142 275.81 159.65 275.402C159.17 274.982 158.522 274.772 157.706 274.772C156.83 274.772 156.14 274.88 155.636 275.096ZM167.636 274.664C166.592 274.664 165.74 274.37 165.08 273.782C164.42 273.194 164.09 272.414 164.09 271.442C164.09 270.482 164.42 269.708 165.08 269.12C165.74 268.532 166.592 268.238 167.636 268.238C168.668 268.238 169.514 268.532 170.174 269.12C170.846 269.72 171.182 270.494 171.182 271.442C171.182 272.402 170.846 273.182 170.174 273.782C169.514 274.37 168.668 274.664 167.636 274.664ZM166.034 271.442C166.034 271.91 166.184 272.288 166.484 272.576C166.784 272.852 167.168 272.99 167.636 272.99C168.116 272.99 168.506 272.852 168.806 272.576C169.106 272.288 169.256 271.91 169.256 271.442C169.256 270.986 169.1 270.62 168.788 270.344C168.488 270.056 168.104 269.912 167.636 269.912C167.168 269.912 166.784 270.056 166.484 270.344C166.184 270.62 166.034 270.986 166.034 271.442ZM175.592 281.18C174.548 281.18 173.696 280.886 173.036 280.298C172.376 279.71 172.046 278.93 172.046 277.958C172.046 276.998 172.376 276.224 173.036 275.636C173.696 275.048 174.548 274.754 175.592 274.754C176.624 274.754 177.47 275.048 178.13 275.636C178.802 276.236 179.138 277.01 179.138 277.958C179.138 278.918 178.802 279.698 178.13 280.298C177.47 280.886 176.624 281.18 175.592 281.18ZM173.99 277.958C173.99 278.426 174.14 278.804 174.44 279.092C174.74 279.368 175.124 279.506 175.592 279.506C176.072 279.506 176.462 279.368 176.762 279.092C177.062 278.804 177.212 278.426 177.212 277.958C177.212 277.502 177.056 277.136 176.744 276.86C176.444 276.572 176.06 276.428 175.592 276.428C175.124 276.428 174.74 276.572 174.44 276.86C174.14 277.136 173.99 277.502 173.99 277.958ZM167.672 281.198L166.484 280.37L175.574 268.202L176.744 269.084L167.672 281.198Z" fill="#4F208A"/>
</svg>
