<svg width="317" height="338" viewBox="0 0 317 338" fill="none" xmlns="http://www.w3.org/2000/svg">
<line opacity="0.2" x1="61" y1="26" x2="121" y2="26" stroke="#9D60FF" stroke-width="2"/>
<line opacity="0.2" x1="61" y1="109" x2="121" y2="109" stroke="#9D60FF" stroke-width="2"/>
<line opacity="0.2" x1="61" y1="192" x2="121" y2="192" stroke="#9D60FF" stroke-width="2"/>
<line opacity="0.2" x1="61" y1="275" x2="121" y2="275" stroke="#9D60FF" stroke-width="2"/>
<path d="M1 9.99999C1 5.02943 5.02944 1 10 1H67C71.9706 1 76 5.02944 76 10V337H1V9.99999Z" fill="#D660FF" stroke="#4F208A" stroke-width="2"/>
<path d="M1 54C1 49.0294 5.02944 45 10 45H67C71.9706 45 76 49.0294 76 54V337H1V54Z" fill="#873CFF" stroke="#4F208A" stroke-width="2"/>
<path d="M1 126C1 121.029 5.02944 117 10 117H67C71.9706 117 76 121.029 76 126V337H1V126Z" fill="#73B3FF" stroke="#4F208A" stroke-width="2"/>
<path d="M1 212C1 207.029 5.02944 203 10 203H67C71.9706 203 76 207.029 76 212V337H1V212Z" fill="#2051FF" stroke="#4F208A" stroke-width="2"/>
<path d="M138.7 64H129.94V50H132.4V61.7H138.7V64ZM147.043 61.48L147.703 63.1C146.81 63.8467 145.663 64.22 144.263 64.22C142.823 64.22 141.65 63.7867 140.743 62.92C139.863 62.0667 139.423 60.9267 139.423 59.5C139.423 58.1667 139.856 57.0467 140.723 56.14C141.59 55.2333 142.743 54.78 144.183 54.78C145.37 54.78 146.376 55.1733 147.203 55.96C148.03 56.7467 148.443 57.7467 148.443 58.96C148.443 59.4933 148.396 59.9067 148.303 60.2H141.803C141.896 60.8533 142.183 61.3667 142.663 61.74C143.156 62.1133 143.77 62.3 144.503 62.3C145.503 62.3 146.35 62.0267 147.043 61.48ZM144.083 56.7C142.776 56.7 141.99 57.3533 141.723 58.66H146.143C146.156 58.0867 145.97 57.62 145.583 57.26C145.21 56.8867 144.71 56.7 144.083 56.7ZM149.057 65.22C149.057 64.5133 149.317 63.9267 149.837 63.46C150.357 62.98 151.07 62.64 151.977 62.44C151.87 62.2533 151.817 62.0467 151.817 61.82C151.817 61.5667 151.884 61.3533 152.017 61.18C151.35 60.9133 150.824 60.5133 150.437 59.98C150.064 59.4333 149.877 58.8267 149.877 58.16C149.877 57.24 150.23 56.4467 150.937 55.78C151.644 55.1133 152.57 54.78 153.717 54.78C154.584 54.78 155.35 54.9933 156.017 55.42L158.737 54.82L158.817 56.66L157.317 57C157.464 57.4 157.537 57.7867 157.537 58.16C157.537 59.0667 157.184 59.8533 156.477 60.52C155.784 61.16 154.864 61.48 153.717 61.48H153.557C153.53 61.5867 153.517 61.7 153.517 61.82C153.517 61.9933 153.557 62.1467 153.637 62.28H153.737C155.137 62.28 156.264 62.5267 157.117 63.02C157.984 63.5267 158.417 64.26 158.417 65.22C158.417 66.18 157.984 66.9133 157.117 67.42C156.264 67.9133 155.137 68.16 153.737 68.16C152.297 68.16 151.157 67.9067 150.317 67.4C149.477 66.9067 149.057 66.18 149.057 65.22ZM151.197 65.22C151.197 65.5667 151.417 65.8333 151.857 66.02C152.31 66.22 152.937 66.32 153.737 66.32C155.417 66.32 156.257 65.9533 156.257 65.22C156.257 64.8867 156.037 64.62 155.597 64.42C155.157 64.22 154.537 64.12 153.737 64.12C152.95 64.12 152.33 64.22 151.877 64.42C151.424 64.62 151.197 64.8867 151.197 65.22ZM153.717 59.62C154.21 59.62 154.61 59.4867 154.917 59.22C155.237 58.9533 155.397 58.6 155.397 58.16C155.397 57.7067 155.244 57.34 154.937 57.06C154.63 56.78 154.224 56.64 153.717 56.64C153.21 56.64 152.804 56.7867 152.497 57.08C152.19 57.36 152.037 57.72 152.037 58.16C152.037 58.5867 152.19 58.94 152.497 59.22C152.804 59.4867 153.21 59.62 153.717 59.62ZM160.918 57.32L160.338 55.64C161.311 55.0667 162.371 54.78 163.518 54.78C164.771 54.78 165.684 55.0867 166.258 55.7C166.831 56.3133 167.118 57.2533 167.118 58.52V64H165.118V62.96C164.584 63.7333 163.698 64.12 162.458 64.12C161.604 64.12 160.918 63.8733 160.398 63.38C159.891 62.8733 159.638 62.2 159.638 61.36C159.638 60.4267 159.938 59.7067 160.538 59.2C161.138 58.6933 161.931 58.44 162.918 58.44C163.731 58.44 164.411 58.6333 164.958 59.02C164.984 58.22 164.864 57.6333 164.598 57.26C164.344 56.8867 163.904 56.7 163.278 56.7C162.584 56.7 161.798 56.9067 160.918 57.32ZM163.218 62.18C163.991 62.18 164.571 61.9067 164.958 61.36V60.44C164.584 60.1467 164.058 60 163.378 60C162.951 60 162.604 60.1 162.338 60.3C162.071 60.5 161.938 60.7733 161.938 61.12C161.938 61.44 162.058 61.7 162.298 61.9C162.538 62.0867 162.844 62.18 163.218 62.18ZM169.475 61.52V50H171.775V60.58C171.775 61.5533 172.035 62.04 172.555 62.04C172.849 62.04 173.162 61.92 173.495 61.68L173.975 63.44C173.349 63.9467 172.555 64.2 171.595 64.2C170.182 64.2 169.475 63.3067 169.475 61.52ZM192.47 64H189.61L188.43 62.54C187.403 63.66 186.03 64.22 184.31 64.22C182.91 64.22 181.777 63.8467 180.91 63.1C180.043 62.34 179.61 61.3733 179.61 60.2C179.61 59.1467 179.87 58.28 180.39 57.6C180.95 56.88 181.723 56.18 182.71 55.5C181.643 54.9933 181.11 54.1 181.11 52.82C181.11 51.8867 181.437 51.1533 182.09 50.62C182.757 50.06 183.537 49.78 184.43 49.78C185.323 49.78 186.103 50.06 186.77 50.62C187.423 51.1533 187.75 51.8867 187.75 52.82C187.75 53.42 187.57 53.98 187.21 54.5C186.863 55.02 186.443 55.36 185.95 55.52L188.67 59.06C189.297 57.8333 189.61 56.48 189.61 55H191.89C191.89 57.28 191.277 59.2467 190.05 60.9L192.47 64ZM184.39 61.92C185.563 61.92 186.45 61.5133 187.05 60.7L184.21 56.82C183.477 57.4067 182.957 57.92 182.65 58.36C182.357 58.7867 182.21 59.2467 182.21 59.74C182.21 60.3533 182.417 60.8733 182.83 61.3C183.257 61.7133 183.777 61.92 184.39 61.92ZM183.25 52.82C183.25 53.14 183.363 53.4133 183.59 53.64C183.817 53.8667 184.097 53.98 184.43 53.98C184.763 53.98 185.043 53.8667 185.27 53.64C185.497 53.4133 185.61 53.14 185.61 52.82C185.61 52.4867 185.49 52.2067 185.25 51.98C185.023 51.7533 184.75 51.64 184.43 51.64C184.097 51.64 183.817 51.7533 183.59 51.98C183.363 52.2067 183.25 52.4867 183.25 52.82ZM200.327 64H197.847L203.767 49.96H205.927L211.847 64H209.227L207.767 60.42H201.787L200.327 64ZM206.827 58.12L204.787 53.14L202.727 58.12H206.827ZM219.616 60.98L220.696 62.66C219.936 63.7 218.742 64.22 217.116 64.22C215.662 64.22 214.482 63.7867 213.576 62.92C212.682 62.0667 212.236 60.9267 212.236 59.5C212.236 58.1533 212.676 57.0333 213.556 56.14C214.436 55.2333 215.549 54.78 216.896 54.78C218.496 54.78 219.702 55.1867 220.516 56L219.436 57.82C218.822 57.2333 218.076 56.94 217.196 56.94C216.529 56.94 215.942 57.18 215.436 57.66C214.942 58.1133 214.696 58.7267 214.696 59.5C214.696 60.2733 214.949 60.9 215.456 61.38C215.989 61.8467 216.602 62.08 217.296 62.08C218.189 62.08 218.962 61.7133 219.616 60.98ZM228.873 60.98L229.953 62.66C229.193 63.7 228 64.22 226.373 64.22C224.92 64.22 223.74 63.7867 222.833 62.92C221.94 62.0667 221.493 60.9267 221.493 59.5C221.493 58.1533 221.933 57.0333 222.813 56.14C223.693 55.2333 224.807 54.78 226.153 54.78C227.753 54.78 228.96 55.1867 229.773 56L228.693 57.82C228.08 57.2333 227.333 56.94 226.453 56.94C225.787 56.94 225.2 57.18 224.693 57.66C224.2 58.1133 223.953 58.7267 223.953 59.5C223.953 60.2733 224.207 60.9 224.713 61.38C225.247 61.8467 225.86 62.08 226.553 62.08C227.447 62.08 228.22 61.7133 228.873 60.98ZM232.091 62.9C231.198 62.0067 230.751 60.8733 230.751 59.5C230.751 58.1267 231.198 57 232.091 56.12C232.985 55.2267 234.171 54.78 235.651 54.78C237.118 54.78 238.298 55.2267 239.191 56.12C240.098 57 240.551 58.1267 240.551 59.5C240.551 60.86 240.098 61.9933 239.191 62.9C238.285 63.78 237.105 64.22 235.651 64.22C234.171 64.22 232.985 63.78 232.091 62.9ZM233.911 57.66C233.445 58.14 233.211 58.7533 233.211 59.5C233.211 60.2467 233.438 60.8667 233.891 61.36C234.358 61.84 234.945 62.08 235.651 62.08C236.371 62.08 236.958 61.84 237.411 61.36C237.878 60.88 238.111 60.26 238.111 59.5C238.111 58.7533 237.878 58.14 237.411 57.66C236.945 57.18 236.358 56.94 235.651 56.94C234.958 56.94 234.378 57.18 233.911 57.66ZM248.382 55H250.682V64H248.382V62.9C247.662 63.78 246.702 64.22 245.502 64.22C244.542 64.22 243.775 63.9 243.202 63.26C242.628 62.62 242.342 61.7 242.342 60.5V55H244.642V60.02C244.642 61.3933 245.215 62.08 246.362 62.08C247.148 62.08 247.822 61.7133 248.382 60.98V55ZM255.545 64H253.245V55H255.545V55.9C256.212 55.1933 257.072 54.84 258.125 54.84C260.592 54.84 261.825 56.1333 261.825 58.72V64H259.525V59.12C259.525 57.7067 258.852 57 257.505 57C256.772 57 256.118 57.2867 255.545 57.86V64ZM263.963 60.58V52.5H266.263V55H269.163V57.16H266.263V60.44C266.263 61.52 266.623 62.06 267.343 62.06C267.796 62.06 268.256 61.8867 268.723 61.54L269.423 63.32C268.689 63.9067 267.803 64.2 266.763 64.2C265.789 64.2 265.076 63.9067 264.623 63.32C264.183 62.72 263.963 61.8067 263.963 60.58ZM272.07 57.32L271.49 55.64C272.463 55.0667 273.523 54.78 274.67 54.78C275.923 54.78 276.837 55.0867 277.41 55.7C277.983 56.3133 278.27 57.2533 278.27 58.52V64H276.27V62.96C275.737 63.7333 274.85 64.12 273.61 64.12C272.757 64.12 272.07 63.8733 271.55 63.38C271.043 62.8733 270.79 62.2 270.79 61.36C270.79 60.4267 271.09 59.7067 271.69 59.2C272.29 58.6933 273.083 58.44 274.07 58.44C274.883 58.44 275.563 58.6333 276.11 59.02C276.137 58.22 276.017 57.6333 275.75 57.26C275.497 56.8867 275.057 56.7 274.43 56.7C273.737 56.7 272.95 56.9067 272.07 57.32ZM274.37 62.18C275.143 62.18 275.723 61.9067 276.11 61.36V60.44C275.737 60.1467 275.21 60 274.53 60C274.103 60 273.757 60.1 273.49 60.3C273.223 60.5 273.09 60.7733 273.09 61.12C273.09 61.44 273.21 61.7 273.45 61.9C273.69 62.0867 273.997 62.18 274.37 62.18ZM282.928 64H280.628V55H282.928V55.9C283.594 55.1933 284.454 54.84 285.508 54.84C287.974 54.84 289.208 56.1333 289.208 58.72V64H286.908V59.12C286.908 57.7067 286.234 57 284.888 57C284.154 57 283.501 57.2867 282.928 57.86V64ZM298.366 60.98L299.446 62.66C298.686 63.7 297.492 64.22 295.866 64.22C294.412 64.22 293.232 63.7867 292.326 62.92C291.432 62.0667 290.986 60.9267 290.986 59.5C290.986 58.1533 291.426 57.0333 292.306 56.14C293.186 55.2333 294.299 54.78 295.646 54.78C297.246 54.78 298.452 55.1867 299.266 56L298.186 57.82C297.572 57.2333 296.826 56.94 295.946 56.94C295.279 56.94 294.692 57.18 294.186 57.66C293.692 58.1133 293.446 58.7267 293.446 59.5C293.446 60.2733 293.699 60.9 294.206 61.38C294.739 61.8467 295.352 62.08 296.046 62.08C296.939 62.08 297.712 61.7133 298.366 60.98ZM307.078 55H309.698L306.158 64C305.518 65.56 304.945 66.6133 304.438 67.16C303.945 67.72 303.358 68 302.678 68C302.038 68 301.392 67.7667 300.738 67.3L301.478 65.56C301.825 65.7733 302.138 65.88 302.418 65.88C302.965 65.88 303.425 65.4133 303.798 64.48L303.998 64L299.838 55H302.598L304.698 59.92C304.725 59.9867 304.872 60.42 305.138 61.22C305.218 60.7267 305.325 60.2867 305.458 59.9L307.078 55Z" fill="#9D60FF"/>
<rect x="129" y="10" width="68" height="32" rx="16" fill="#2BE6FF"/>
<path d="M151.458 26.096L152.286 19.4H158.244V21.47H154.104L153.744 23.972C153.984 23.924 154.224 23.9 154.464 23.9C155.616 23.9 156.558 24.266 157.29 24.998C158.046 25.73 158.424 26.702 158.424 27.914C158.424 29.222 158.01 30.266 157.182 31.046C156.366 31.814 155.334 32.198 154.086 32.198C153.402 32.198 152.7 32.042 151.98 31.73C151.308 31.418 150.78 30.974 150.396 30.398L151.584 28.832C151.836 29.216 152.202 29.528 152.682 29.768C153.174 30.008 153.66 30.128 154.14 30.128C154.74 30.128 155.232 29.93 155.616 29.534C156.012 29.138 156.21 28.628 156.21 28.004C156.21 27.344 155.964 26.81 155.472 26.402C154.992 25.982 154.344 25.772 153.528 25.772C152.652 25.772 151.962 25.88 151.458 26.096ZM163.458 25.664C162.414 25.664 161.562 25.37 160.902 24.782C160.242 24.194 159.912 23.414 159.912 22.442C159.912 21.482 160.242 20.708 160.902 20.12C161.562 19.532 162.414 19.238 163.458 19.238C164.49 19.238 165.336 19.532 165.996 20.12C166.668 20.72 167.004 21.494 167.004 22.442C167.004 23.402 166.668 24.182 165.996 24.782C165.336 25.37 164.49 25.664 163.458 25.664ZM161.856 22.442C161.856 22.91 162.006 23.288 162.306 23.576C162.606 23.852 162.99 23.99 163.458 23.99C163.938 23.99 164.328 23.852 164.628 23.576C164.928 23.288 165.078 22.91 165.078 22.442C165.078 21.986 164.922 21.62 164.61 21.344C164.31 21.056 163.926 20.912 163.458 20.912C162.99 20.912 162.606 21.056 162.306 21.344C162.006 21.62 161.856 21.986 161.856 22.442ZM171.414 32.18C170.37 32.18 169.518 31.886 168.858 31.298C168.198 30.71 167.868 29.93 167.868 28.958C167.868 27.998 168.198 27.224 168.858 26.636C169.518 26.048 170.37 25.754 171.414 25.754C172.446 25.754 173.292 26.048 173.952 26.636C174.624 27.236 174.96 28.01 174.96 28.958C174.96 29.918 174.624 30.698 173.952 31.298C173.292 31.886 172.446 32.18 171.414 32.18ZM169.812 28.958C169.812 29.426 169.962 29.804 170.262 30.092C170.562 30.368 170.946 30.506 171.414 30.506C171.894 30.506 172.284 30.368 172.584 30.092C172.884 29.804 173.034 29.426 173.034 28.958C173.034 28.502 172.878 28.136 172.566 27.86C172.266 27.572 171.882 27.428 171.414 27.428C170.946 27.428 170.562 27.572 170.262 27.86C169.962 28.136 169.812 28.502 169.812 28.958ZM163.494 32.198L162.306 31.37L171.396 19.202L172.566 20.084L163.494 32.198Z" fill="#4F208A"/>
<path d="M137.24 147H128.94V133H137.04V135.3H131.4V138.78H136.44V141.08H131.4V144.7H137.24V147ZM146.604 143.98L147.684 145.66C146.924 146.7 145.731 147.22 144.104 147.22C142.651 147.22 141.471 146.787 140.564 145.92C139.671 145.067 139.224 143.927 139.224 142.5C139.224 141.153 139.664 140.033 140.544 139.14C141.424 138.233 142.537 137.78 143.884 137.78C145.484 137.78 146.691 138.187 147.504 139L146.424 140.82C145.811 140.233 145.064 139.94 144.184 139.94C143.517 139.94 142.931 140.18 142.424 140.66C141.931 141.113 141.684 141.727 141.684 142.5C141.684 143.273 141.937 143.9 142.444 144.38C142.977 144.847 143.591 145.08 144.284 145.08C145.177 145.08 145.951 144.713 146.604 143.98ZM149.822 145.9C148.928 145.007 148.482 143.873 148.482 142.5C148.482 141.127 148.928 140 149.822 139.12C150.715 138.227 151.902 137.78 153.382 137.78C154.848 137.78 156.028 138.227 156.922 139.12C157.828 140 158.282 141.127 158.282 142.5C158.282 143.86 157.828 144.993 156.922 145.9C156.015 146.78 154.835 147.22 153.382 147.22C151.902 147.22 150.715 146.78 149.822 145.9ZM151.642 140.66C151.175 141.14 150.942 141.753 150.942 142.5C150.942 143.247 151.168 143.867 151.622 144.36C152.088 144.84 152.675 145.08 153.382 145.08C154.102 145.08 154.688 144.84 155.142 144.36C155.608 143.88 155.842 143.26 155.842 142.5C155.842 141.753 155.608 141.14 155.142 140.66C154.675 140.18 154.088 139.94 153.382 139.94C152.688 139.94 152.108 140.18 151.642 140.66ZM159.972 140.52C159.972 139.68 160.279 139.013 160.892 138.52C161.506 138.027 162.299 137.78 163.272 137.78C164.739 137.78 165.879 138.16 166.692 138.92L165.832 140.56C165.099 139.987 164.286 139.7 163.392 139.7C163.072 139.7 162.806 139.78 162.592 139.94C162.379 140.087 162.272 140.267 162.272 140.48C162.272 140.92 162.839 141.287 163.972 141.58C164.386 141.673 164.752 141.78 165.072 141.9C165.392 142.007 165.719 142.167 166.052 142.38C166.399 142.58 166.666 142.847 166.852 143.18C167.039 143.513 167.132 143.9 167.132 144.34C167.132 145.22 166.799 145.92 166.132 146.44C165.479 146.96 164.599 147.22 163.492 147.22C162.706 147.22 161.939 147.053 161.192 146.72C160.432 146.373 159.946 146.027 159.732 145.68L160.852 144.18C161.106 144.487 161.526 144.747 162.112 144.96C162.712 145.187 163.226 145.3 163.652 145.3C164.172 145.353 164.539 145.187 164.752 144.8C164.966 144.4 164.826 144.073 164.332 143.82C164.132 143.713 163.819 143.6 163.392 143.48C162.979 143.36 162.592 143.24 162.232 143.12C161.886 142.987 161.526 142.82 161.152 142.62C160.792 142.42 160.506 142.147 160.292 141.8C160.079 141.44 159.972 141.013 159.972 140.52ZM175.219 138H177.839L174.299 147C173.659 148.56 173.086 149.613 172.579 150.16C172.086 150.72 171.499 151 170.819 151C170.179 151 169.532 150.767 168.879 150.3L169.619 148.56C169.966 148.773 170.279 148.88 170.559 148.88C171.106 148.88 171.566 148.413 171.939 147.48L172.139 147L167.979 138H170.739L172.839 142.92C172.866 142.987 173.012 143.42 173.279 144.22C173.359 143.727 173.466 143.287 173.599 142.9L175.219 138ZM178.918 140.52C178.918 139.68 179.224 139.013 179.838 138.52C180.451 138.027 181.244 137.78 182.218 137.78C183.684 137.78 184.824 138.16 185.638 138.92L184.778 140.56C184.044 139.987 183.231 139.7 182.338 139.7C182.018 139.7 181.751 139.78 181.538 139.94C181.324 140.087 181.218 140.267 181.218 140.48C181.218 140.92 181.784 141.287 182.918 141.58C183.331 141.673 183.698 141.78 184.018 141.9C184.338 142.007 184.664 142.167 184.998 142.38C185.344 142.58 185.611 142.847 185.798 143.18C185.984 143.513 186.078 143.9 186.078 144.34C186.078 145.22 185.744 145.92 185.078 146.44C184.424 146.96 183.544 147.22 182.438 147.22C181.651 147.22 180.884 147.053 180.138 146.72C179.378 146.373 178.891 146.027 178.678 145.68L179.798 144.18C180.051 144.487 180.471 144.747 181.058 144.96C181.658 145.187 182.171 145.3 182.598 145.3C183.118 145.353 183.484 145.187 183.698 144.8C183.911 144.4 183.771 144.073 183.278 143.82C183.078 143.713 182.764 143.6 182.338 143.48C181.924 143.36 181.538 143.24 181.178 143.12C180.831 142.987 180.471 142.82 180.098 142.62C179.738 142.42 179.451 142.147 179.238 141.8C179.024 141.44 178.918 141.013 178.918 140.52ZM187.904 143.58V135.5H190.204V138H193.104V140.16H190.204V143.44C190.204 144.52 190.564 145.06 191.284 145.06C191.738 145.06 192.198 144.887 192.664 144.54L193.364 146.32C192.631 146.907 191.744 147.2 190.704 147.2C189.731 147.2 189.018 146.907 188.564 146.32C188.124 145.72 187.904 144.807 187.904 143.58ZM202.02 144.48L202.68 146.1C201.786 146.847 200.64 147.22 199.24 147.22C197.8 147.22 196.626 146.787 195.72 145.92C194.84 145.067 194.4 143.927 194.4 142.5C194.4 141.167 194.833 140.047 195.7 139.14C196.566 138.233 197.72 137.78 199.16 137.78C200.346 137.78 201.353 138.173 202.18 138.96C203.006 139.747 203.42 140.747 203.42 141.96C203.42 142.493 203.373 142.907 203.28 143.2H196.78C196.873 143.853 197.16 144.367 197.64 144.74C198.133 145.113 198.746 145.3 199.48 145.3C200.48 145.3 201.326 145.027 202.02 144.48ZM199.06 139.7C197.753 139.7 196.966 140.353 196.7 141.66H201.12C201.133 141.087 200.946 140.62 200.56 140.26C200.186 139.887 199.686 139.7 199.06 139.7ZM218.932 141.12V147H216.632V141.72C216.632 140.573 216.119 140 215.092 140C214.212 140 213.592 140.347 213.232 141.04C213.232 141.067 213.232 141.173 213.232 141.36C213.246 141.533 213.252 141.647 213.252 141.7V147H210.952V141.56C210.952 141.08 210.819 140.7 210.552 140.42C210.299 140.14 209.932 140 209.452 140C208.612 140 207.986 140.32 207.572 140.96V147H205.272V138H207.572V139C208.266 138.227 209.206 137.84 210.392 137.84C211.046 137.84 211.599 137.973 212.052 138.24C212.519 138.493 212.839 138.84 213.012 139.28C213.746 138.32 214.759 137.84 216.052 137.84C217.972 137.84 218.932 138.933 218.932 141.12ZM235.367 141.76H231.987V139.46H237.667V145.26C237.067 145.86 236.267 146.34 235.267 146.7C234.267 147.047 233.32 147.22 232.427 147.22C230.16 147.22 228.373 146.567 227.067 145.26C225.773 143.967 225.127 142.213 225.127 140C225.127 137.947 225.767 136.233 227.047 134.86C228.327 133.473 230.013 132.78 232.107 132.78C233.893 132.78 235.393 133.253 236.607 134.2L235.567 136.16C235.22 135.827 234.76 135.567 234.187 135.38C233.613 135.18 233.02 135.08 232.407 135.08C231.007 135.08 229.88 135.52 229.027 136.4C228.16 137.267 227.727 138.467 227.727 140C227.727 141.48 228.16 142.673 229.027 143.58C229.88 144.473 231.027 144.92 232.467 144.92C232.973 144.92 233.52 144.827 234.107 144.64C234.693 144.44 235.113 144.213 235.367 143.96V141.76ZM242.338 147H240.038V138H242.338V138.88C242.831 138.187 243.518 137.84 244.398 137.84C245.024 137.84 245.491 137.953 245.798 138.18L244.978 140.34C244.591 140.113 244.204 140 243.818 140C243.151 140 242.658 140.32 242.338 140.96V147ZM247.888 145.9C246.995 145.007 246.548 143.873 246.548 142.5C246.548 141.127 246.995 140 247.888 139.12C248.781 138.227 249.968 137.78 251.448 137.78C252.915 137.78 254.095 138.227 254.988 139.12C255.895 140 256.348 141.127 256.348 142.5C256.348 143.86 255.895 144.993 254.988 145.9C254.081 146.78 252.901 147.22 251.448 147.22C249.968 147.22 248.781 146.78 247.888 145.9ZM249.708 140.66C249.241 141.14 249.008 141.753 249.008 142.5C249.008 143.247 249.235 143.867 249.688 144.36C250.155 144.84 250.741 145.08 251.448 145.08C252.168 145.08 252.755 144.84 253.208 144.36C253.675 143.88 253.908 143.26 253.908 142.5C253.908 141.753 253.675 141.14 253.208 140.66C252.741 140.18 252.155 139.94 251.448 139.94C250.755 139.94 250.175 140.18 249.708 140.66ZM268.883 138H271.203L268.363 147.04H266.303L264.383 142.04C264.316 141.907 264.256 141.707 264.203 141.44L264.083 140.98C263.989 141.42 263.883 141.787 263.763 142.08L261.863 147.04H259.903L256.983 138H259.443L260.883 142.9C260.936 143.02 261.023 143.42 261.143 144.1C261.276 143.567 261.389 143.167 261.483 142.9L263.163 138H265.203L266.943 142.88C266.996 143.027 267.109 143.44 267.283 144.12C267.456 143.293 267.549 142.86 267.563 142.82L268.883 138ZM272.377 143.58V135.5H274.677V138H277.577V140.16H274.677V143.44C274.677 144.52 275.037 145.06 275.757 145.06C276.21 145.06 276.67 144.887 277.137 144.54L277.837 146.32C277.104 146.907 276.217 147.2 275.177 147.2C274.204 147.2 273.49 146.907 273.037 146.32C272.597 145.72 272.377 144.807 272.377 143.58ZM282.084 147H279.784V133H282.084V138.82C282.751 138.167 283.611 137.84 284.664 137.84C287.131 137.84 288.364 139.153 288.364 141.78V147H286.064V142.08C286.064 141.413 285.891 140.9 285.544 140.54C285.197 140.18 284.704 140 284.064 140C283.291 140 282.631 140.273 282.084 140.82V147Z" fill="#9D60FF"/>
<rect x="128" y="93" width="68" height="32" rx="16" fill="#2BE6FF"/>
<path d="M152.586 115H144.666V113.344C146.118 111.928 147.12 110.902 147.672 110.266C149.16 108.562 149.904 107.128 149.904 105.964C149.904 105.448 149.766 105.046 149.49 104.758C149.214 104.47 148.818 104.326 148.302 104.326C147.378 104.326 146.772 104.89 146.484 106.018L144.756 105.244C144.924 104.32 145.344 103.594 146.016 103.066C146.7 102.526 147.54 102.256 148.536 102.256C149.664 102.256 150.54 102.58 151.164 103.228C151.788 103.864 152.1 104.638 152.1 105.55C152.1 106.198 151.962 106.888 151.686 107.62C151.41 108.328 151.092 108.946 150.732 109.474C150.36 110.026 149.922 110.566 149.418 111.094C148.986 111.574 148.59 111.982 148.23 112.318C148.05 112.486 147.756 112.738 147.348 113.074H152.586V115ZM158.425 102.256C159.829 102.256 160.879 102.832 161.575 103.984C162.283 105.148 162.637 106.72 162.637 108.7C162.637 110.74 162.283 112.324 161.575 113.452C160.867 114.58 159.829 115.144 158.461 115.144C157.081 115.144 156.025 114.574 155.293 113.434C154.561 112.294 154.195 110.716 154.195 108.7C154.195 106.672 154.555 105.094 155.275 103.966C155.995 102.826 157.045 102.256 158.425 102.256ZM156.409 108.7C156.409 111.712 157.093 113.218 158.461 113.218C159.169 113.218 159.673 112.864 159.973 112.156C160.285 111.448 160.441 110.296 160.441 108.7C160.441 107.116 160.285 105.97 159.973 105.262C159.661 104.554 159.145 104.2 158.425 104.2C157.717 104.2 157.201 104.566 156.877 105.298C156.565 106.018 156.409 107.152 156.409 108.7ZM167.618 108.664C166.574 108.664 165.722 108.37 165.062 107.782C164.402 107.194 164.072 106.414 164.072 105.442C164.072 104.482 164.402 103.708 165.062 103.12C165.722 102.532 166.574 102.238 167.618 102.238C168.65 102.238 169.496 102.532 170.156 103.12C170.828 103.72 171.164 104.494 171.164 105.442C171.164 106.402 170.828 107.182 170.156 107.782C169.496 108.37 168.65 108.664 167.618 108.664ZM166.016 105.442C166.016 105.91 166.166 106.288 166.466 106.576C166.766 106.852 167.15 106.99 167.618 106.99C168.098 106.99 168.488 106.852 168.788 106.576C169.088 106.288 169.238 105.91 169.238 105.442C169.238 104.986 169.082 104.62 168.77 104.344C168.47 104.056 168.086 103.912 167.618 103.912C167.15 103.912 166.766 104.056 166.466 104.344C166.166 104.62 166.016 104.986 166.016 105.442ZM175.574 115.18C174.53 115.18 173.678 114.886 173.018 114.298C172.358 113.71 172.028 112.93 172.028 111.958C172.028 110.998 172.358 110.224 173.018 109.636C173.678 109.048 174.53 108.754 175.574 108.754C176.606 108.754 177.452 109.048 178.112 109.636C178.784 110.236 179.12 111.01 179.12 111.958C179.12 112.918 178.784 113.698 178.112 114.298C177.452 114.886 176.606 115.18 175.574 115.18ZM173.972 111.958C173.972 112.426 174.122 112.804 174.422 113.092C174.722 113.368 175.106 113.506 175.574 113.506C176.054 113.506 176.444 113.368 176.744 113.092C177.044 112.804 177.194 112.426 177.194 111.958C177.194 111.502 177.038 111.136 176.726 110.86C176.426 110.572 176.042 110.428 175.574 110.428C175.106 110.428 174.722 110.572 174.422 110.86C174.122 111.136 173.972 111.502 173.972 111.958ZM167.654 115.198L166.466 114.37L175.556 102.202L176.726 103.084L167.654 115.198Z" fill="#4F208A"/>
<path d="M137.7 230H128.94V216H131.4V227.7H137.7V230ZM141.389 230H139.089V221H141.389V230ZM138.849 217.76C138.849 217.36 138.982 217.04 139.249 216.8C139.529 216.547 139.875 216.42 140.289 216.42C140.649 216.42 140.955 216.547 141.209 216.8C141.475 217.053 141.609 217.373 141.609 217.76C141.609 218.187 141.475 218.533 141.209 218.8C140.955 219.067 140.649 219.2 140.289 219.2C139.875 219.2 139.529 219.067 139.249 218.8C138.982 218.533 138.849 218.187 138.849 217.76ZM152.936 234H150.636V229.54C149.942 229.993 149.202 230.22 148.416 230.22C146.989 230.22 145.849 229.793 144.996 228.94C144.156 228.073 143.736 226.927 143.736 225.5C143.736 224.153 144.222 223.033 145.196 222.14C146.182 221.233 147.416 220.78 148.896 220.78C150.442 220.78 151.789 221.14 152.936 221.86V234ZM148.716 228.08C149.489 228.08 150.129 227.807 150.636 227.26V223.38C150.036 223.087 149.449 222.94 148.876 222.94C148.049 222.94 147.396 223.193 146.916 223.7C146.436 224.193 146.196 224.827 146.196 225.6C146.196 226.32 146.422 226.913 146.876 227.38C147.342 227.847 147.956 228.08 148.716 228.08ZM161.308 221H163.608V230H161.308V228.9C160.588 229.78 159.628 230.22 158.428 230.22C157.468 230.22 156.701 229.9 156.128 229.26C155.554 228.62 155.268 227.7 155.268 226.5V221H157.568V226.02C157.568 227.393 158.141 228.08 159.288 228.08C160.074 228.08 160.748 227.713 161.308 226.98V221ZM168.811 230H166.511V221H168.811V230ZM166.271 217.76C166.271 217.36 166.404 217.04 166.671 216.8C166.951 216.547 167.297 216.42 167.711 216.42C168.071 216.42 168.377 216.547 168.631 216.8C168.897 217.053 169.031 217.373 169.031 217.76C169.031 218.187 168.897 218.533 168.631 218.8C168.377 219.067 168.071 219.2 167.711 219.2C167.297 219.2 166.951 219.067 166.671 218.8C166.404 218.533 166.271 218.187 166.271 217.76ZM180.278 230H177.978V229.06C177.284 229.793 176.424 230.16 175.398 230.16C174.131 230.16 173.104 229.747 172.318 228.92C171.544 228.093 171.158 226.987 171.158 225.6C171.158 224.187 171.618 223.033 172.538 222.14C173.471 221.233 174.658 220.78 176.098 220.78C176.858 220.78 177.484 220.927 177.978 221.22V216H180.278V230ZM175.878 228.02C176.664 228.02 177.364 227.713 177.978 227.1V223.48C177.404 223.12 176.811 222.94 176.198 222.94C175.464 222.94 174.851 223.173 174.358 223.64C173.864 224.107 173.618 224.733 173.618 225.52C173.618 226.28 173.831 226.887 174.258 227.34C174.684 227.793 175.224 228.02 175.878 228.02ZM185.471 230H183.171V221H185.471V230ZM182.931 217.76C182.931 217.36 183.064 217.04 183.331 216.8C183.611 216.547 183.957 216.42 184.371 216.42C184.731 216.42 185.037 216.547 185.291 216.8C185.557 217.053 185.691 217.373 185.691 217.76C185.691 218.187 185.557 218.533 185.291 218.8C185.037 219.067 184.731 219.2 184.371 219.2C183.957 219.2 183.611 219.067 183.331 218.8C183.064 218.533 182.931 218.187 182.931 217.76ZM188.178 226.58V218.5H190.478V221H193.378V223.16H190.478V226.44C190.478 227.52 190.838 228.06 191.558 228.06C192.011 228.06 192.471 227.887 192.938 227.54L193.638 229.32C192.904 229.907 192.018 230.2 190.978 230.2C190.004 230.2 189.291 229.907 188.838 229.32C188.398 228.72 188.178 227.807 188.178 226.58ZM201.469 221H204.089L200.549 230C199.909 231.56 199.336 232.613 198.829 233.16C198.336 233.72 197.749 234 197.069 234C196.429 234 195.782 233.767 195.129 233.3L195.869 231.56C196.216 231.773 196.529 231.88 196.809 231.88C197.356 231.88 197.816 231.413 198.189 230.48L198.389 230L194.229 221H196.989L199.089 225.92C199.116 225.987 199.262 226.42 199.529 227.22C199.609 226.727 199.716 226.287 199.849 225.9L201.469 221ZM222.486 230H219.626L218.446 228.54C217.419 229.66 216.046 230.22 214.326 230.22C212.926 230.22 211.792 229.847 210.926 229.1C210.059 228.34 209.626 227.373 209.626 226.2C209.626 225.147 209.886 224.28 210.406 223.6C210.966 222.88 211.739 222.18 212.726 221.5C211.659 220.993 211.126 220.1 211.126 218.82C211.126 217.887 211.452 217.153 212.106 216.62C212.772 216.06 213.552 215.78 214.446 215.78C215.339 215.78 216.119 216.06 216.786 216.62C217.439 217.153 217.766 217.887 217.766 218.82C217.766 219.42 217.586 219.98 217.226 220.5C216.879 221.02 216.459 221.36 215.966 221.52L218.686 225.06C219.312 223.833 219.626 222.48 219.626 221H221.906C221.906 223.28 221.292 225.247 220.066 226.9L222.486 230ZM214.406 227.92C215.579 227.92 216.466 227.513 217.066 226.7L214.226 222.82C213.492 223.407 212.972 223.92 212.666 224.36C212.372 224.787 212.226 225.247 212.226 225.74C212.226 226.353 212.432 226.873 212.846 227.3C213.272 227.713 213.792 227.92 214.406 227.92ZM213.266 218.82C213.266 219.14 213.379 219.413 213.606 219.64C213.832 219.867 214.112 219.98 214.446 219.98C214.779 219.98 215.059 219.867 215.286 219.64C215.512 219.413 215.626 219.14 215.626 218.82C215.626 218.487 215.506 218.207 215.266 217.98C215.039 217.753 214.766 217.64 214.446 217.64C214.112 217.64 213.832 217.753 213.606 217.98C213.379 218.207 213.266 218.487 213.266 218.82ZM237.963 230H229.663V216H237.763V218.3H232.123V221.78H237.163V224.08H232.123V227.7H237.963V230ZM246.447 221H249.107L246.107 225.3L249.307 230H246.507L244.407 226.76L242.227 230H239.567L242.767 225.42L239.767 221H242.587L244.487 223.98L246.447 221ZM257.229 226.98L258.309 228.66C257.549 229.7 256.356 230.22 254.729 230.22C253.276 230.22 252.096 229.787 251.189 228.92C250.296 228.067 249.849 226.927 249.849 225.5C249.849 224.153 250.289 223.033 251.169 222.14C252.049 221.233 253.162 220.78 254.509 220.78C256.109 220.78 257.316 221.187 258.129 222L257.049 223.82C256.436 223.233 255.689 222.94 254.809 222.94C254.142 222.94 253.556 223.18 253.049 223.66C252.556 224.113 252.309 224.727 252.309 225.5C252.309 226.273 252.562 226.9 253.069 227.38C253.602 227.847 254.216 228.08 254.909 228.08C255.802 228.08 256.576 227.713 257.229 226.98ZM262.455 230H260.155V216H262.455V221.82C263.122 221.167 263.982 220.84 265.035 220.84C267.502 220.84 268.735 222.153 268.735 224.78V230H266.435V225.08C266.435 224.413 266.262 223.9 265.915 223.54C265.568 223.18 265.075 223 264.435 223C263.662 223 263.002 223.273 262.455 223.82V230ZM271.773 223.32L271.193 221.64C272.166 221.067 273.226 220.78 274.373 220.78C275.626 220.78 276.54 221.087 277.113 221.7C277.686 222.313 277.973 223.253 277.973 224.52V230H275.973V228.96C275.44 229.733 274.553 230.12 273.313 230.12C272.46 230.12 271.773 229.873 271.253 229.38C270.746 228.873 270.493 228.2 270.493 227.36C270.493 226.427 270.793 225.707 271.393 225.2C271.993 224.693 272.786 224.44 273.773 224.44C274.586 224.44 275.266 224.633 275.813 225.02C275.84 224.22 275.72 223.633 275.453 223.26C275.2 222.887 274.76 222.7 274.133 222.7C273.44 222.7 272.653 222.907 271.773 223.32ZM274.073 228.18C274.846 228.18 275.426 227.907 275.813 227.36V226.44C275.44 226.147 274.913 226 274.233 226C273.806 226 273.46 226.1 273.193 226.3C272.926 226.5 272.793 226.773 272.793 227.12C272.793 227.44 272.913 227.7 273.153 227.9C273.393 228.087 273.7 228.18 274.073 228.18ZM282.631 230H280.331V221H282.631V221.9C283.297 221.193 284.157 220.84 285.211 220.84C287.677 220.84 288.911 222.133 288.911 224.72V230H286.611V225.12C286.611 223.707 285.937 223 284.591 223C283.857 223 283.204 223.287 282.631 223.86V230ZM290.069 231.22C290.069 230.513 290.329 229.927 290.849 229.46C291.369 228.98 292.082 228.64 292.989 228.44C292.882 228.253 292.829 228.047 292.829 227.82C292.829 227.567 292.895 227.353 293.029 227.18C292.362 226.913 291.835 226.513 291.449 225.98C291.075 225.433 290.889 224.827 290.889 224.16C290.889 223.24 291.242 222.447 291.949 221.78C292.655 221.113 293.582 220.78 294.729 220.78C295.595 220.78 296.362 220.993 297.029 221.42L299.749 220.82L299.829 222.66L298.329 223C298.475 223.4 298.549 223.787 298.549 224.16C298.549 225.067 298.195 225.853 297.489 226.52C296.795 227.16 295.875 227.48 294.729 227.48H294.569C294.542 227.587 294.529 227.7 294.529 227.82C294.529 227.993 294.569 228.147 294.649 228.28H294.749C296.149 228.28 297.275 228.527 298.129 229.02C298.995 229.527 299.429 230.26 299.429 231.22C299.429 232.18 298.995 232.913 298.129 233.42C297.275 233.913 296.149 234.16 294.749 234.16C293.309 234.16 292.169 233.907 291.329 233.4C290.489 232.907 290.069 232.18 290.069 231.22ZM292.209 231.22C292.209 231.567 292.429 231.833 292.869 232.02C293.322 232.22 293.949 232.32 294.749 232.32C296.429 232.32 297.269 231.953 297.269 231.22C297.269 230.887 297.049 230.62 296.609 230.42C296.169 230.22 295.549 230.12 294.749 230.12C293.962 230.12 293.342 230.22 292.889 230.42C292.435 230.62 292.209 230.887 292.209 231.22ZM294.729 225.62C295.222 225.62 295.622 225.487 295.929 225.22C296.249 224.953 296.409 224.6 296.409 224.16C296.409 223.707 296.255 223.34 295.949 223.06C295.642 222.78 295.235 222.64 294.729 222.64C294.222 222.64 293.815 222.787 293.509 223.08C293.202 223.36 293.049 223.72 293.049 224.16C293.049 224.587 293.202 224.94 293.509 225.22C293.815 225.487 294.222 225.62 294.729 225.62ZM308.289 227.48L308.949 229.1C308.056 229.847 306.909 230.22 305.509 230.22C304.069 230.22 302.896 229.787 301.989 228.92C301.109 228.067 300.669 226.927 300.669 225.5C300.669 224.167 301.103 223.047 301.969 222.14C302.836 221.233 303.989 220.78 305.429 220.78C306.616 220.78 307.623 221.173 308.449 221.96C309.276 222.747 309.689 223.747 309.689 224.96C309.689 225.493 309.643 225.907 309.549 226.2H303.049C303.143 226.853 303.429 227.367 303.909 227.74C304.403 228.113 305.016 228.3 305.749 228.3C306.749 228.3 307.596 228.027 308.289 227.48ZM305.329 222.7C304.023 222.7 303.236 223.353 302.969 224.66H307.389C307.403 224.087 307.216 223.62 306.829 223.26C306.456 222.887 305.956 222.7 305.329 222.7Z" fill="#9D60FF"/>
<rect x="128" y="176" width="68" height="32" rx="16" fill="#2BE6FF"/>
<path d="M148.392 198.198C147.468 198.198 146.652 198.012 145.944 197.64C145.248 197.256 144.732 196.734 144.396 196.074L145.566 194.562C146.274 195.606 147.174 196.128 148.266 196.128C148.902 196.128 149.4 195.966 149.76 195.642C150.12 195.318 150.3 194.898 150.3 194.382C150.3 193.806 150.09 193.368 149.67 193.068C149.262 192.756 148.692 192.6 147.96 192.6H147.06V190.53H147.87C148.422 190.53 148.884 190.368 149.256 190.044C149.628 189.72 149.814 189.306 149.814 188.802C149.814 188.322 149.676 187.95 149.4 187.686C149.124 187.41 148.728 187.272 148.212 187.272C147.24 187.272 146.448 187.722 145.836 188.622L144.684 187.164C145.38 185.856 146.622 185.202 148.41 185.202C149.502 185.202 150.378 185.496 151.038 186.084C151.698 186.66 152.028 187.434 152.028 188.406C152.028 189.834 151.386 190.83 150.102 191.394V191.448C150.858 191.58 151.446 191.922 151.866 192.474C152.298 193.014 152.514 193.674 152.514 194.454C152.514 195.594 152.124 196.506 151.344 197.19C150.564 197.862 149.58 198.198 148.392 198.198ZM158.531 185.256C159.935 185.256 160.985 185.832 161.681 186.984C162.389 188.148 162.743 189.72 162.743 191.7C162.743 193.74 162.389 195.324 161.681 196.452C160.973 197.58 159.935 198.144 158.567 198.144C157.187 198.144 156.131 197.574 155.399 196.434C154.667 195.294 154.301 193.716 154.301 191.7C154.301 189.672 154.661 188.094 155.381 186.966C156.101 185.826 157.151 185.256 158.531 185.256ZM156.515 191.7C156.515 194.712 157.199 196.218 158.567 196.218C159.275 196.218 159.779 195.864 160.079 195.156C160.391 194.448 160.547 193.296 160.547 191.7C160.547 190.116 160.391 188.97 160.079 188.262C159.767 187.554 159.251 187.2 158.531 187.2C157.823 187.2 157.307 187.566 156.983 188.298C156.671 189.018 156.515 190.152 156.515 191.7ZM167.724 191.664C166.68 191.664 165.828 191.37 165.168 190.782C164.508 190.194 164.178 189.414 164.178 188.442C164.178 187.482 164.508 186.708 165.168 186.12C165.828 185.532 166.68 185.238 167.724 185.238C168.756 185.238 169.602 185.532 170.262 186.12C170.934 186.72 171.27 187.494 171.27 188.442C171.27 189.402 170.934 190.182 170.262 190.782C169.602 191.37 168.756 191.664 167.724 191.664ZM166.122 188.442C166.122 188.91 166.272 189.288 166.572 189.576C166.872 189.852 167.256 189.99 167.724 189.99C168.204 189.99 168.594 189.852 168.894 189.576C169.194 189.288 169.344 188.91 169.344 188.442C169.344 187.986 169.188 187.62 168.876 187.344C168.576 187.056 168.192 186.912 167.724 186.912C167.256 186.912 166.872 187.056 166.572 187.344C166.272 187.62 166.122 187.986 166.122 188.442ZM175.68 198.18C174.636 198.18 173.784 197.886 173.124 197.298C172.464 196.71 172.134 195.93 172.134 194.958C172.134 193.998 172.464 193.224 173.124 192.636C173.784 192.048 174.636 191.754 175.68 191.754C176.712 191.754 177.558 192.048 178.218 192.636C178.89 193.236 179.226 194.01 179.226 194.958C179.226 195.918 178.89 196.698 178.218 197.298C177.558 197.886 176.712 198.18 175.68 198.18ZM174.078 194.958C174.078 195.426 174.228 195.804 174.528 196.092C174.828 196.368 175.212 196.506 175.68 196.506C176.16 196.506 176.55 196.368 176.85 196.092C177.15 195.804 177.3 195.426 177.3 194.958C177.3 194.502 177.144 194.136 176.832 193.86C176.532 193.572 176.148 193.428 175.68 193.428C175.212 193.428 174.828 193.572 174.528 193.86C174.228 194.136 174.078 194.502 174.078 194.958ZM167.76 198.198L166.572 197.37L175.662 185.202L176.832 186.084L167.76 198.198Z" fill="#4F208A"/>
<path d="M131.4 307.94V313H128.94V299C129.527 299 130.16 298.993 130.84 298.98C131.533 298.967 132.227 298.96 132.92 298.96C133.907 298.96 134.76 299.087 135.48 299.34C136.213 299.58 136.78 299.92 137.18 300.36C137.58 300.787 137.873 301.26 138.06 301.78C138.247 302.287 138.34 302.847 138.34 303.46C138.34 304.727 137.887 305.8 136.98 306.68C136.087 307.56 134.833 308 133.22 308C132.407 308 131.8 307.98 131.4 307.94ZM133.16 301.26L131.4 301.3V305.6C132.107 305.667 132.687 305.7 133.14 305.7C133.927 305.7 134.553 305.507 135.02 305.12C135.5 304.733 135.74 304.173 135.74 303.44C135.74 301.987 134.88 301.26 133.16 301.26ZM142.123 313H139.823V304H142.123V304.88C142.616 304.187 143.303 303.84 144.183 303.84C144.81 303.84 145.276 303.953 145.583 304.18L144.763 306.34C144.376 306.113 143.99 306 143.603 306C142.936 306 142.443 306.32 142.123 306.96V313ZM147.673 311.9C146.78 311.007 146.333 309.873 146.333 308.5C146.333 307.127 146.78 306 147.673 305.12C148.567 304.227 149.753 303.78 151.233 303.78C152.7 303.78 153.88 304.227 154.773 305.12C155.68 306 156.133 307.127 156.133 308.5C156.133 309.86 155.68 310.993 154.773 311.9C153.867 312.78 152.687 313.22 151.233 313.22C149.753 313.22 148.567 312.78 147.673 311.9ZM149.493 306.66C149.027 307.14 148.793 307.753 148.793 308.5C148.793 309.247 149.02 309.867 149.473 310.36C149.94 310.84 150.527 311.08 151.233 311.08C151.953 311.08 152.54 310.84 152.993 310.36C153.46 309.88 153.693 309.26 153.693 308.5C153.693 307.753 153.46 307.14 152.993 306.66C152.527 306.18 151.94 305.94 151.233 305.94C150.54 305.94 149.96 306.18 149.493 306.66ZM166.684 313H164.384V312.06C163.69 312.793 162.83 313.16 161.804 313.16C160.537 313.16 159.51 312.747 158.724 311.92C157.95 311.093 157.564 309.987 157.564 308.6C157.564 307.187 158.024 306.033 158.944 305.14C159.877 304.233 161.064 303.78 162.504 303.78C163.264 303.78 163.89 303.927 164.384 304.22V299H166.684V313ZM162.284 311.02C163.07 311.02 163.77 310.713 164.384 310.1V306.48C163.81 306.12 163.217 305.94 162.604 305.94C161.87 305.94 161.257 306.173 160.764 306.64C160.27 307.107 160.024 307.733 160.024 308.52C160.024 309.28 160.237 309.887 160.664 310.34C161.09 310.793 161.63 311.02 162.284 311.02ZM175.077 304H177.377V313H175.077V311.9C174.357 312.78 173.397 313.22 172.197 313.22C171.237 313.22 170.47 312.9 169.897 312.26C169.324 311.62 169.037 310.7 169.037 309.5V304H171.337V309.02C171.337 310.393 171.91 311.08 173.057 311.08C173.844 311.08 174.517 310.713 175.077 309.98V304ZM186.76 309.98L187.84 311.66C187.08 312.7 185.887 313.22 184.26 313.22C182.807 313.22 181.627 312.787 180.72 311.92C179.827 311.067 179.38 309.927 179.38 308.5C179.38 307.153 179.82 306.033 180.7 305.14C181.58 304.233 182.693 303.78 184.04 303.78C185.64 303.78 186.847 304.187 187.66 305L186.58 306.82C185.967 306.233 185.22 305.94 184.34 305.94C183.673 305.94 183.087 306.18 182.58 306.66C182.087 307.113 181.84 307.727 181.84 308.5C181.84 309.273 182.093 309.9 182.6 310.38C183.133 310.847 183.747 311.08 184.44 311.08C185.333 311.08 186.107 310.713 186.76 309.98ZM189.486 309.58V301.5H191.786V304H194.686V306.16H191.786V309.44C191.786 310.52 192.146 311.06 192.866 311.06C193.32 311.06 193.78 310.887 194.246 310.54L194.946 312.32C194.213 312.907 193.326 313.2 192.286 313.2C191.313 313.2 190.6 312.907 190.146 312.32C189.706 311.72 189.486 310.807 189.486 309.58ZM202.072 313H201.792V299H202.052C202.638 299 203.258 298.993 203.912 298.98C205.218 298.953 205.885 298.94 205.912 298.94C208.632 298.94 210.645 299.633 211.952 301.02C213.165 302.313 213.772 303.927 213.772 305.86C213.772 307.94 213.072 309.66 211.672 311.02C210.285 312.367 208.312 313.04 205.752 313.04C205.218 313.04 204.658 313.033 204.072 313.02C203.498 313.007 202.832 313 202.072 313ZM205.872 301.24C205.352 301.24 204.812 301.26 204.252 301.3V310.7C204.865 310.727 205.392 310.74 205.832 310.74C207.498 310.74 208.805 310.3 209.752 309.42C210.698 308.54 211.172 307.353 211.172 305.86C211.172 304.433 210.698 303.307 209.752 302.48C208.818 301.653 207.525 301.24 205.872 301.24ZM222.742 310.48L223.402 312.1C222.509 312.847 221.362 313.22 219.962 313.22C218.522 313.22 217.349 312.787 216.442 311.92C215.562 311.067 215.122 309.927 215.122 308.5C215.122 307.167 215.556 306.047 216.422 305.14C217.289 304.233 218.442 303.78 219.882 303.78C221.069 303.78 222.076 304.173 222.902 304.96C223.729 305.747 224.142 306.747 224.142 307.96C224.142 308.493 224.096 308.907 224.002 309.2H217.502C217.596 309.853 217.882 310.367 218.362 310.74C218.856 311.113 219.469 311.3 220.202 311.3C221.202 311.3 222.049 311.027 222.742 310.48ZM219.782 305.7C218.476 305.7 217.689 306.353 217.422 307.66H221.842C221.856 307.087 221.669 306.62 221.282 306.26C220.909 305.887 220.409 305.7 219.782 305.7ZM231.681 304H234.101L230.221 313.04H228.521L224.381 304H227.121L228.781 307.86C229.061 308.487 229.288 309.167 229.461 309.9C229.648 309.14 229.868 308.447 230.121 307.82L231.681 304ZM242.059 310.48L242.719 312.1C241.825 312.847 240.679 313.22 239.279 313.22C237.839 313.22 236.665 312.787 235.759 311.92C234.879 311.067 234.439 309.927 234.439 308.5C234.439 307.167 234.872 306.047 235.739 305.14C236.605 304.233 237.759 303.78 239.199 303.78C240.385 303.78 241.392 304.173 242.219 304.96C243.045 305.747 243.459 306.747 243.459 307.96C243.459 308.493 243.412 308.907 243.319 309.2H236.819C236.912 309.853 237.199 310.367 237.679 310.74C238.172 311.113 238.785 311.3 239.519 311.3C240.519 311.3 241.365 311.027 242.059 310.48ZM239.099 305.7C237.792 305.7 237.005 306.353 236.739 307.66H241.159C241.172 307.087 240.985 306.62 240.599 306.26C240.225 305.887 239.725 305.7 239.099 305.7ZM245.311 310.52V299H247.611V309.58C247.611 310.553 247.871 311.04 248.391 311.04C248.685 311.04 248.998 310.92 249.331 310.68L249.811 312.44C249.185 312.947 248.391 313.2 247.431 313.2C246.018 313.2 245.311 312.307 245.311 310.52ZM252.068 311.9C251.174 311.007 250.728 309.873 250.728 308.5C250.728 307.127 251.174 306 252.068 305.12C252.961 304.227 254.148 303.78 255.628 303.78C257.094 303.78 258.274 304.227 259.168 305.12C260.074 306 260.528 307.127 260.528 308.5C260.528 309.86 260.074 310.993 259.168 311.9C258.261 312.78 257.081 313.22 255.628 313.22C254.148 313.22 252.961 312.78 252.068 311.9ZM253.888 306.66C253.421 307.14 253.188 307.753 253.188 308.5C253.188 309.247 253.414 309.867 253.868 310.36C254.334 310.84 254.921 311.08 255.628 311.08C256.348 311.08 256.934 310.84 257.388 310.36C257.854 309.88 258.088 309.26 258.088 308.5C258.088 307.753 257.854 307.14 257.388 306.66C256.921 306.18 256.334 305.94 255.628 305.94C254.934 305.94 254.354 306.18 253.888 306.66ZM264.818 317H262.518V304H264.818V304.86C265.112 304.54 265.512 304.28 266.018 304.08C266.525 303.88 267.052 303.78 267.598 303.78C268.838 303.78 269.825 304.207 270.558 305.06C271.305 305.927 271.678 307.027 271.678 308.36C271.678 309.76 271.238 310.92 270.358 311.84C269.478 312.76 268.332 313.22 266.918 313.22C266.012 313.22 265.312 313.073 264.818 312.78V317ZM266.878 305.94C266.078 305.94 265.392 306.267 264.818 306.92V310.56C265.365 310.907 265.998 311.08 266.718 311.08C267.478 311.08 268.085 310.833 268.538 310.34C269.005 309.847 269.238 309.207 269.238 308.42C269.238 307.673 269.025 307.073 268.598 306.62C268.185 306.167 267.612 305.94 266.878 305.94ZM287.331 307.12V313H285.031V307.72C285.031 306.573 284.517 306 283.491 306C282.611 306 281.991 306.347 281.631 307.04C281.631 307.067 281.631 307.173 281.631 307.36C281.644 307.533 281.651 307.647 281.651 307.7V313H279.351V307.56C279.351 307.08 279.217 306.7 278.951 306.42C278.697 306.14 278.331 306 277.851 306C277.011 306 276.384 306.32 275.971 306.96V313H273.671V304H275.971V305C276.664 304.227 277.604 303.84 278.791 303.84C279.444 303.84 279.997 303.973 280.451 304.24C280.917 304.493 281.237 304.84 281.411 305.28C282.144 304.32 283.157 303.84 284.451 303.84C286.371 303.84 287.331 304.933 287.331 307.12ZM296.727 310.48L297.387 312.1C296.493 312.847 295.347 313.22 293.947 313.22C292.507 313.22 291.333 312.787 290.427 311.92C289.547 311.067 289.107 309.927 289.107 308.5C289.107 307.167 289.54 306.047 290.407 305.14C291.273 304.233 292.427 303.78 293.867 303.78C295.053 303.78 296.06 304.173 296.887 304.96C297.713 305.747 298.127 306.747 298.127 307.96C298.127 308.493 298.08 308.907 297.987 309.2H291.487C291.58 309.853 291.867 310.367 292.347 310.74C292.84 311.113 293.453 311.3 294.187 311.3C295.187 311.3 296.033 311.027 296.727 310.48ZM293.767 305.7C292.46 305.7 291.673 306.353 291.407 307.66H295.827C295.84 307.087 295.653 306.62 295.267 306.26C294.893 305.887 294.393 305.7 293.767 305.7ZM302.279 313H299.979V304H302.279V304.9C302.946 304.193 303.806 303.84 304.859 303.84C307.326 303.84 308.559 305.133 308.559 307.72V313H306.259V308.12C306.259 306.707 305.586 306 304.239 306C303.506 306 302.853 306.287 302.279 306.86V313ZM310.697 309.58V301.5H312.997V304H315.897V306.16H312.997V309.44C312.997 310.52 313.357 311.06 314.077 311.06C314.531 311.06 314.991 310.887 315.457 310.54L316.157 312.32C315.424 312.907 314.537 313.2 313.497 313.2C312.524 313.2 311.811 312.907 311.357 312.32C310.917 311.72 310.697 310.807 310.697 309.58Z" fill="#9D60FF"/>
<rect x="128" y="259" width="68" height="32" rx="16" fill="#2BE6FF"/>
<path d="M152.1 281H150.03V278.084H144.27V276.554L149.13 268.4H151.506L146.952 276.014H150.03V272.9H152.1V276.014H153.72V278.084H152.1V281ZM155.636 275.096L156.464 268.4H162.422V270.47H158.282L157.922 272.972C158.162 272.924 158.402 272.9 158.642 272.9C159.794 272.9 160.736 273.266 161.468 273.998C162.224 274.73 162.602 275.702 162.602 276.914C162.602 278.222 162.188 279.266 161.36 280.046C160.544 280.814 159.512 281.198 158.264 281.198C157.58 281.198 156.878 281.042 156.158 280.73C155.486 280.418 154.958 279.974 154.574 279.398L155.762 277.832C156.014 278.216 156.38 278.528 156.86 278.768C157.352 279.008 157.838 279.128 158.318 279.128C158.918 279.128 159.41 278.93 159.794 278.534C160.19 278.138 160.388 277.628 160.388 277.004C160.388 276.344 160.142 275.81 159.65 275.402C159.17 274.982 158.522 274.772 157.706 274.772C156.83 274.772 156.14 274.88 155.636 275.096ZM167.636 274.664C166.592 274.664 165.74 274.37 165.08 273.782C164.42 273.194 164.09 272.414 164.09 271.442C164.09 270.482 164.42 269.708 165.08 269.12C165.74 268.532 166.592 268.238 167.636 268.238C168.668 268.238 169.514 268.532 170.174 269.12C170.846 269.72 171.182 270.494 171.182 271.442C171.182 272.402 170.846 273.182 170.174 273.782C169.514 274.37 168.668 274.664 167.636 274.664ZM166.034 271.442C166.034 271.91 166.184 272.288 166.484 272.576C166.784 272.852 167.168 272.99 167.636 272.99C168.116 272.99 168.506 272.852 168.806 272.576C169.106 272.288 169.256 271.91 169.256 271.442C169.256 270.986 169.1 270.62 168.788 270.344C168.488 270.056 168.104 269.912 167.636 269.912C167.168 269.912 166.784 270.056 166.484 270.344C166.184 270.62 166.034 270.986 166.034 271.442ZM175.592 281.18C174.548 281.18 173.696 280.886 173.036 280.298C172.376 279.71 172.046 278.93 172.046 277.958C172.046 276.998 172.376 276.224 173.036 275.636C173.696 275.048 174.548 274.754 175.592 274.754C176.624 274.754 177.47 275.048 178.13 275.636C178.802 276.236 179.138 277.01 179.138 277.958C179.138 278.918 178.802 279.698 178.13 280.298C177.47 280.886 176.624 281.18 175.592 281.18ZM173.99 277.958C173.99 278.426 174.14 278.804 174.44 279.092C174.74 279.368 175.124 279.506 175.592 279.506C176.072 279.506 176.462 279.368 176.762 279.092C177.062 278.804 177.212 278.426 177.212 277.958C177.212 277.502 177.056 277.136 176.744 276.86C176.444 276.572 176.06 276.428 175.592 276.428C175.124 276.428 174.74 276.572 174.44 276.86C174.14 277.136 173.99 277.502 173.99 277.958ZM167.672 281.198L166.484 280.37L175.574 268.202L176.744 269.084L167.672 281.198Z" fill="#4F208A"/>
</svg>
