<svg width="381" height="390" viewBox="0 0 381 390" fill="none" xmlns="http://www.w3.org/2000/svg">
<path d="M346.668 188.527C346.668 283.245 269.403 360.039 174.079 360.039C78.7551 360.039 1.4903 283.245 1.4903 188.527C1.4903 93.81 78.7551 17.0156 174.079 17.0156C269.403 17.0156 346.668 93.81 346.668 188.527Z" stroke="#9D60FF" stroke-width="2"/>
<path d="M231.714 102.121L226.383 113.642C224.754 117.039 222.385 118.738 219.276 118.738C218.092 118.738 217.277 118.664 216.833 118.516C214.316 117.926 212.317 117.63 210.836 117.63C205.802 117.63 202.545 121.913 201.064 130.48L198.621 144.66H209.948C212.317 144.66 214.316 145.472 215.945 147.097C217.573 148.721 218.388 150.715 218.388 153.079V167.258C218.388 169.621 217.573 171.615 215.945 173.24C214.316 174.865 212.317 175.677 209.948 175.677H193.291L180.187 251.669C177.522 265.553 173.672 275.449 168.638 281.357C163.752 287.413 156.2 290.441 145.984 290.441C136.508 290.441 127.92 288.447 120.22 284.459C117.111 282.834 115.556 280.397 115.556 277.148C115.556 276.262 115.926 274.858 116.667 272.938L121.553 262.525C123.034 259.424 125.255 257.873 128.216 257.873C128.808 257.873 130.289 258.094 132.658 258.537C135.175 259.128 136.878 259.424 137.766 259.424C139.987 259.424 141.912 258.39 143.541 256.322C145.169 254.254 146.28 251.669 146.872 248.568L159.532 175.677H146.872C144.503 175.677 142.504 174.865 140.875 173.24C139.247 171.615 138.432 169.621 138.432 167.258V153.079C138.432 150.715 139.247 148.721 140.875 147.097C142.504 145.472 144.503 144.66 146.872 144.66H164.862L167.749 128.486C170.563 113.568 174.782 102.86 180.409 96.3611C186.035 89.8622 194.179 86.6128 204.84 86.6128C212.391 86.6128 219.942 88.0898 227.494 91.0438C230.899 92.6686 232.602 95.0318 232.602 98.1335C232.602 99.7582 232.306 101.088 231.714 102.121Z" fill="#9D60FF" fill-opacity="0.5"/>
<path d="M196.764 269.559C232.986 260.163 293.41 218.353 245.335 126.276" stroke="#9D60FF" stroke-width="2"/>
<path d="M139.466 106.727C104.1 118.924 47.1704 165.326 102.382 253.362" stroke="#9D60FF" stroke-width="2"/>
<mask id="mask0" mask-type="alpha" maskUnits="userSpaceOnUse" x="45" y="19" width="142" height="112">
<path d="M166.197 123.097C171.595 119.67 175.482 115.214 177.723 110.045L183.819 95.9873C186.06 90.8188 186.654 84.9382 185.463 78.6629C184.314 72.6091 181.505 66.1879 176.911 59.6843C172.317 53.1808 166.366 47.1994 159.525 41.9424C152.434 36.493 144.386 31.822 135.904 28.1546C127.422 24.4871 118.504 21.8233 109.672 20.3882C101.152 19.0038 92.7122 18.7629 84.8195 19.8678C76.9268 20.9726 70.3152 23.3205 65.1084 26.6264C59.711 30.0533 55.823 34.5097 53.582 39.6782L47.4868 53.7363C45.2458 58.9048 44.6519 64.7854 45.8427 71.0608C46.9913 77.1146 49.8009 83.5357 54.3948 90.0393C58.9887 96.5429 64.9399 102.524 71.7807 107.781C78.872 113.231 86.9192 117.902 95.4016 121.569C103.884 125.236 112.801 127.9 121.633 129.335C130.153 130.72 138.593 130.961 146.486 129.856C154.379 128.751 160.99 126.403 166.197 123.097Z" fill="black"/>
</mask>
<g mask="url(#mask0)">
<path d="M165.403 124.929C170.8 121.502 174.688 117.046 176.929 111.877L183.819 95.9873C186.06 90.8188 186.654 84.9382 185.463 78.6629C184.314 72.6091 181.505 66.1879 176.911 59.6843C172.317 53.1808 166.366 47.1994 159.525 41.9424C152.434 36.493 144.386 31.822 135.904 28.1546C127.422 24.4871 118.504 21.8233 109.672 20.3882C101.152 19.0038 92.7122 18.7629 84.8195 19.8678C76.9268 20.9726 70.3152 23.3205 65.1084 26.6264C59.711 30.0533 55.823 34.5097 53.582 39.6782L46.6926 55.5681C44.4516 60.7366 43.8577 66.6172 45.0484 72.8926C46.1971 78.9464 49.0066 85.3675 53.6005 91.8711C58.1944 98.3747 64.1456 104.356 70.9865 109.613C78.0778 115.062 86.125 119.733 94.6074 123.401C103.09 127.068 112.007 129.732 120.839 131.167C129.359 132.552 137.799 132.793 145.692 131.688C153.584 130.583 160.196 128.235 165.403 124.929Z" fill="#3AB0A2"/>
<path d="M165.372 125.001C170.769 121.574 174.657 117.118 176.898 111.949L183.788 96.0591C181.547 101.228 177.659 105.684 172.261 109.111C167.054 112.417 160.443 114.765 152.55 115.87C144.657 116.974 136.217 116.734 127.697 115.349C118.866 113.914 109.948 111.25 101.466 107.583C92.9834 103.915 84.9361 99.2443 77.8449 93.7949C71.004 88.5379 65.0528 82.5566 60.4589 76.053C55.865 69.5494 53.0555 63.1283 51.9068 57.0745C50.7161 50.7991 51.31 44.9185 53.551 39.75L46.6615 55.6399C44.4205 60.8084 43.8266 66.689 45.0174 72.9644C46.166 79.0182 48.9756 85.4393 53.5695 91.9429C58.1634 98.4464 64.1146 104.428 70.9554 109.685C78.0467 115.134 86.0939 119.805 94.5763 123.473C103.059 127.14 111.976 129.804 120.808 131.239C129.328 132.623 137.768 132.864 145.661 131.759C153.553 130.655 160.165 128.307 165.372 125.001Z" fill="url(#paint0_linear)" fill-opacity="0.48" style="mix-blend-mode:overlay"/>
<path d="M65.1084 26.6264C59.711 30.0533 55.823 34.5097 53.5821 39.6782C51.3411 44.8467 50.7472 50.7273 51.9379 57.0027C53.0866 63.0565 55.8961 69.4776 60.49 75.9812C65.0839 82.4848 71.0351 88.4661 77.876 93.7231C84.9672 99.1725 93.0145 103.844 101.497 107.511C109.979 111.178 118.897 113.842 127.728 115.277C136.248 116.662 144.688 116.903 152.581 115.798C160.474 114.693 167.086 112.345 172.292 109.039C177.69 105.612 181.578 101.156 183.819 95.9873C186.06 90.8188 186.654 84.9382 185.463 78.6629C184.314 72.6091 181.505 66.1879 176.911 59.6843C172.317 53.1808 166.366 47.1994 159.525 41.9424C152.434 36.493 144.386 31.822 135.904 28.1546C127.422 24.4871 118.504 21.8233 109.672 20.3882C101.152 19.0038 92.7122 18.7629 84.8195 19.8678C76.9268 20.9726 70.3152 23.3205 65.1084 26.6264Z" fill="white" fill-opacity="0.4" style="mix-blend-mode:overlay"/>
<g style="mix-blend-mode:overlay">
<path d="M152.36 56.2428L148.804 58.2451C147.732 58.8251 146.535 58.8297 145.215 58.2588C144.712 58.0413 144.374 57.8727 144.202 57.7529C143.2 57.1379 142.384 56.6945 141.755 56.4227C139.618 55.4984 137.754 56.0087 136.164 57.9535L133.536 61.1738L138.346 63.2534C139.352 63.6883 140.109 64.2655 140.619 64.9849C141.128 65.7043 141.25 66.3698 140.985 66.9813L139.394 70.6501C139.129 71.2616 138.56 71.6281 137.686 71.7494C136.812 71.8708 135.872 71.714 134.866 71.2791L127.793 68.2209L113.703 85.478C111.014 88.5812 108.269 90.435 105.469 91.0394C102.714 91.7093 99.1682 91.1064 94.83 89.2307C90.8061 87.4909 87.3832 85.3983 84.5612 82.9529C83.4231 81.9617 83.0364 81.0456 83.4009 80.2049C83.5003 79.9756 83.8149 79.6805 84.3447 79.3195L87.5877 77.5223C88.5644 76.9915 89.6815 76.998 90.939 77.5417C91.1905 77.6504 91.7943 77.9796 92.7506 78.5292C93.7531 79.1442 94.443 79.5332 94.8203 79.6963C95.7634 80.1041 96.6967 80.1899 97.6203 79.9539C98.5439 79.7179 99.3054 79.253 99.9049 78.5591L113.458 62.023L108.082 59.6988C107.076 59.2639 106.319 58.6867 105.809 57.9673C105.3 57.2479 105.178 56.5824 105.443 55.9709L107.034 52.3021C107.299 51.6906 107.868 51.3241 108.742 51.2028C109.616 51.0814 110.556 51.2382 111.562 51.6731L119.201 54.976L122.242 51.3212C125.11 47.9777 128.103 45.9817 131.221 45.3331C134.339 44.6845 138.162 45.3389 142.689 47.2961C145.895 48.6825 148.936 50.451 151.811 52.6017C153.075 53.6473 153.533 54.5714 153.185 55.374C153.003 55.7944 152.728 56.084 152.36 56.2428Z" fill="#2C2C2C"/>
<path d="M82.5044 72.6562C80.918 72.8766 79.3243 72.2053 78.4837 70.8437C75.3272 65.731 73.7506 60.5601 73.9085 55.7741C74.0887 50.3091 76.5234 45.5587 80.9434 42.0483C85.3634 38.5379 91.5965 36.4041 98.9536 35.8829C105.43 35.424 112.556 36.2306 119.712 38.2186C121.404 38.6887 122.433 40.3707 122.163 42.1053C121.825 44.2779 119.623 45.625 117.484 45.1111C112.743 43.9718 108.061 43.5327 103.761 43.8374C98.2431 44.2283 93.5683 45.8286 90.2533 48.4615C86.9383 51.0943 85.1123 54.657 84.9771 58.7558C84.9056 60.9233 85.3085 63.1962 86.1601 65.501C87.273 68.513 85.6879 72.2141 82.5044 72.6562Z" fill="#2C2C2C"/>
<path d="M154.371 62.9657C155.957 62.7454 157.551 63.4167 158.392 64.7782C161.548 69.8909 163.125 75.0618 162.967 79.8479C162.787 85.3129 160.352 90.0632 155.932 93.5736C151.512 97.084 145.279 99.2178 137.922 99.7391C131.445 100.198 124.32 99.3914 117.163 97.4033C115.471 96.9333 114.443 95.2512 114.712 93.5167C115.05 91.344 117.252 89.9969 119.391 90.5108C124.133 91.6501 128.814 92.0892 133.114 91.7846C138.632 91.3936 143.307 89.7933 146.622 87.1605C149.937 84.5277 151.763 80.9649 151.898 76.8662C151.97 74.6986 151.567 72.4258 150.715 70.1209C149.602 67.109 151.187 63.4079 154.371 62.9657Z" fill="#2C2C2C"/>
</g>
<path d="M64.1899 24.9139C58.7925 28.3408 55.38 35.5314 53.139 40.6999C50.8981 45.8684 50.3042 51.749 51.4949 58.0244C52.6436 64.0782 55.4531 70.4993 60.047 77.0029C64.6409 83.5065 70.5921 89.4878 77.433 94.7448C84.5242 100.194 92.5715 104.865 101.054 108.533C109.536 112.2 118.454 114.864 127.285 116.299C135.805 117.683 144.245 117.924 152.138 116.819C160.031 115.715 166.643 113.367 171.849 110.061C177.247 106.634 181.135 102.178 183.376 97.009C185.617 91.8405 188.455 84.662 187.264 78.3866" stroke="#3AB0A2" stroke-width="0.641513" stroke-linecap="round" stroke-linejoin="round"/>
<path d="M64.1899 24.9139C58.7925 28.3408 55.38 35.5314 53.139 40.6999C50.8981 45.8684 50.3042 51.749 51.4949 58.0244C52.6436 64.0782 55.4531 70.4993 60.047 77.0029C64.6409 83.5065 70.5921 89.4878 77.433 94.7448C84.5242 100.194 92.5715 104.865 101.054 108.533C109.536 112.2 118.454 114.864 127.285 116.299C135.805 117.683 144.245 117.924 152.138 116.819C160.031 115.715 166.643 113.367 171.849 110.061C177.247 106.634 181.135 102.178 183.376 97.009C185.617 91.8405 188.455 84.662 187.264 78.3866" stroke="white" stroke-opacity="0.64" stroke-width="0.641513" style="mix-blend-mode:overlay"/>
</g>
<mask id="mask1" mask-type="alpha" maskUnits="userSpaceOnUse" x="239" y="132" width="128" height="103">
<path d="M365.786 178.141C366.669 172.469 365.955 167.203 363.778 162.623L357.857 150.166C355.68 145.587 352.04 141.694 347.07 138.769C342.277 135.947 336.246 134.026 329.098 133.259C321.95 132.492 314.35 132.949 306.712 134.436C298.795 135.977 290.838 138.625 283.304 142.163C275.77 145.7 268.658 150.126 262.432 155.225C256.426 160.143 251.243 165.687 247.3 171.661C243.357 177.635 241.019 183.485 240.168 188.957C239.286 194.629 240 199.895 242.177 204.475L248.098 216.932C250.275 221.511 253.915 225.404 258.884 228.329C263.678 231.151 269.709 233.071 276.856 233.839C284.004 234.606 291.605 234.149 299.242 232.662C307.159 231.12 315.116 228.472 322.65 224.935C330.185 221.398 337.296 216.972 343.522 211.873C349.529 206.955 354.711 201.411 358.654 195.437C362.598 189.462 364.935 183.613 365.786 178.141Z" fill="black"/>
</mask>
<g mask="url(#mask1)">
<path d="M366.558 179.764C367.44 174.092 366.726 168.826 364.549 164.246L357.857 150.166C355.68 145.587 352.04 141.694 347.07 138.769C342.277 135.947 336.246 134.026 329.098 133.259C321.95 132.492 314.35 132.949 306.712 134.436C298.795 135.977 290.838 138.625 283.304 142.163C275.77 145.7 268.658 150.126 262.432 155.225C256.426 160.143 251.243 165.687 247.3 171.661C243.357 177.635 241.019 183.485 240.168 188.957C239.286 194.629 240 199.895 242.177 204.475L248.869 218.555C251.046 223.134 254.686 227.027 259.656 229.952C264.449 232.774 270.48 234.695 277.628 235.462C284.776 236.229 292.376 235.772 300.014 234.285C307.931 232.744 315.888 230.096 323.422 226.558C330.956 223.021 338.068 218.595 344.294 213.496C350.3 208.578 355.483 203.034 359.426 197.06C363.369 191.086 365.706 185.236 366.558 179.764Z" fill="#8D2977"/>
<path d="M366.588 179.828C367.471 174.156 366.757 168.889 364.58 164.31L357.887 150.23C360.064 154.81 360.778 160.076 359.895 165.748C359.044 171.22 356.706 177.069 352.763 183.044C348.82 189.018 343.638 194.562 337.631 199.48C331.405 204.579 324.294 209.005 316.759 212.542C309.225 216.079 301.268 218.727 293.351 220.269C285.713 221.756 278.113 222.213 270.965 221.446C263.817 220.678 257.787 218.758 252.993 215.936C248.024 213.011 244.384 209.118 242.207 204.539L248.9 218.618C251.077 223.198 254.717 227.091 259.686 230.016C264.479 232.837 270.51 234.758 277.658 235.526C284.806 236.293 292.406 235.836 300.044 234.349C307.961 232.807 315.918 230.159 323.452 226.622C330.986 223.085 338.098 218.658 344.324 213.56C350.331 208.642 355.513 203.098 359.456 197.123C363.399 191.149 365.737 185.3 366.588 179.828Z" fill="url(#paint1_linear)" fill-opacity="0.48" style="mix-blend-mode:overlay"/>
<path d="M240.168 188.957C239.286 194.629 240 199.895 242.177 204.475C244.354 209.055 247.993 212.948 252.963 215.873C257.756 218.694 263.787 220.615 270.935 221.382C278.083 222.15 285.683 221.692 293.321 220.205C301.238 218.664 309.195 216.016 316.729 212.479C324.263 208.942 331.375 204.515 337.601 199.417C343.608 194.498 348.79 188.954 352.733 182.98C356.676 177.006 359.014 171.156 359.865 165.685C360.748 160.012 360.033 154.746 357.856 150.166C355.68 145.587 352.04 141.694 347.07 138.769C342.277 135.947 336.246 134.026 329.098 133.259C321.95 132.492 314.35 132.949 306.712 134.436C298.795 135.977 290.838 138.625 283.304 142.163C275.77 145.7 268.658 150.126 262.432 155.225C256.426 160.143 251.243 165.687 247.3 171.661C243.357 177.635 241.019 183.485 240.168 188.957Z" fill="white" fill-opacity="0.4" style="mix-blend-mode:overlay"/>
<g style="mix-blend-mode:overlay">
<path d="M312.162 147.757L311.407 151.342C311.163 152.409 310.455 153.218 309.282 153.769C308.835 153.978 308.52 154.106 308.337 154.15C307.323 154.461 306.537 154.747 305.978 155.009C304.08 155.901 303.318 157.459 303.693 159.686L304.317 163.369L308.589 161.364C309.483 160.944 310.325 160.776 311.116 160.86C311.908 160.945 312.432 161.258 312.69 161.799L314.235 165.05C314.493 165.592 314.403 166.193 313.966 166.854C313.528 167.515 312.863 168.055 311.969 168.475L305.687 171.424L309.027 191.168C309.535 194.823 309.161 197.773 307.906 200.019C306.723 202.273 304.205 204.304 300.352 206.113C296.778 207.791 293.321 208.855 289.983 209.304C288.633 209.482 287.781 209.198 287.427 208.453C287.33 208.25 287.317 207.863 287.387 207.292L288.095 204.039C288.315 203.066 288.984 202.317 290.101 201.792C290.324 201.688 290.907 201.476 291.849 201.158C292.863 200.848 293.537 200.614 293.872 200.457C294.71 200.064 295.323 199.486 295.712 198.723C296.101 197.961 296.238 197.172 296.123 196.356L292.954 177.402L288.179 179.644C287.286 180.063 286.443 180.231 285.652 180.147C284.861 180.063 284.336 179.75 284.079 179.208L282.533 175.957C282.276 175.415 282.366 174.814 282.803 174.153C283.24 173.492 283.905 172.952 284.799 172.532L291.584 169.347L290.91 165.128C290.346 161.209 290.77 158.007 292.184 155.521C293.598 153.034 296.315 150.847 300.336 148.96C303.184 147.622 306.193 146.624 309.363 145.964C310.825 145.734 311.725 145.974 312.063 146.685C312.24 147.058 312.273 147.415 312.162 147.757Z" fill="#2C2C2C"/>
<path d="M281.767 204.576C280.974 205.775 279.572 206.449 278.148 206.207C272.799 205.297 268.349 203.288 265.193 200.339C261.589 196.972 259.812 192.51 260.056 187.447C260.301 182.384 262.559 176.916 266.579 171.65C270.119 167.013 274.905 162.69 280.511 159.049C281.835 158.189 283.588 158.495 284.605 159.706C285.88 161.225 285.486 163.509 283.866 164.644C280.272 167.162 277.19 170.056 274.839 173.135C271.824 177.085 270.131 181.185 269.947 184.983C269.764 188.78 271.097 192.127 273.8 194.652C275.228 195.987 277.011 197.065 279.081 197.86C281.788 198.9 283.36 202.168 281.767 204.576Z" fill="#2C2C2C"/>
<path d="M317.924 150.394C318.717 149.195 320.119 148.52 321.543 148.762C326.892 149.672 331.342 151.681 334.498 154.63C338.102 157.998 339.88 162.459 339.635 167.523C339.39 172.586 337.133 178.053 333.112 183.32C329.572 187.957 324.786 192.279 319.18 195.921C317.856 196.781 316.103 196.475 315.086 195.263C313.811 193.745 314.205 191.461 315.825 190.325C319.419 187.807 322.501 184.913 324.852 181.834C327.867 177.884 329.561 173.784 329.744 169.987C329.928 166.189 328.594 162.843 325.891 160.317C324.463 158.982 322.681 157.904 320.61 157.109C317.903 156.07 316.331 152.801 317.924 150.394Z" fill="#2C2C2C"/>
</g>
<path d="M238.459 188.558C237.577 194.231 240.43 200.801 242.607 205.38C244.784 209.96 248.424 213.853 253.393 216.778C258.187 219.6 264.218 221.52 271.365 222.288C278.513 223.055 286.114 222.598 293.751 221.111C301.668 219.569 309.625 216.921 317.159 213.384C324.694 209.847 331.805 205.421 338.032 200.322C344.038 195.404 349.22 189.86 353.164 183.886C357.107 177.911 359.444 172.062 360.295 166.59C361.178 160.918 360.464 155.651 358.287 151.072C356.11 146.492 352.923 140.316 347.954 137.391" stroke="#8D2977" stroke-width="0.887012" stroke-linecap="round" stroke-linejoin="round"/>
<path d="M238.459 188.558C237.577 194.231 240.43 200.801 242.607 205.38C244.784 209.96 248.424 213.853 253.393 216.778C258.187 219.6 264.218 221.52 271.365 222.288C278.513 223.055 286.114 222.598 293.751 221.111C301.668 219.569 309.625 216.921 317.159 213.384C324.694 209.847 331.805 205.421 338.032 200.322C344.038 195.404 349.22 189.86 353.164 183.886C357.107 177.911 359.444 172.062 360.295 166.59C361.178 160.918 360.464 155.651 358.287 151.072C356.11 146.492 352.923 140.316 347.954 137.391" stroke="white" stroke-opacity="0.64" stroke-width="0.887012" style="mix-blend-mode:overlay"/>
</g>
<mask id="mask2" mask-type="alpha" maskUnits="userSpaceOnUse" x="119" y="298" width="110" height="81">
<path d="M217.676 369.287C221.376 366.101 223.821 362.306 224.94 358.159L227.985 346.877C229.104 342.729 228.899 338.229 227.3 333.629C225.757 329.192 222.917 324.664 218.719 320.272C214.52 315.881 209.354 312.035 203.595 308.834C197.625 305.516 191.019 302.892 184.195 301.073C177.372 299.254 170.331 298.241 163.492 298.144C156.894 298.051 150.484 298.812 144.638 300.526C138.791 302.24 134.053 304.749 130.483 307.823C126.782 311.009 124.338 314.804 123.218 318.952L120.174 330.233C119.054 334.381 119.26 338.881 120.859 343.481C122.402 347.918 125.241 352.446 129.44 356.838C133.638 361.229 138.805 365.075 144.564 368.276C150.534 371.594 157.14 374.218 163.963 376.037C170.787 377.856 177.828 378.869 184.667 378.966C191.264 379.059 197.675 378.298 203.521 376.584C209.367 374.87 214.106 372.361 217.676 369.287Z" fill="black"/>
</mask>
<g mask="url(#mask2)">
<path d="M217.279 370.757C220.98 367.571 223.424 363.776 224.543 359.628L227.985 346.877C229.104 342.729 228.899 338.229 227.3 333.629C225.757 329.192 222.917 324.664 218.719 320.272C214.52 315.881 209.354 312.035 203.595 308.834C197.625 305.516 191.019 302.892 184.195 301.073C177.372 299.254 170.331 298.241 163.492 298.144C156.894 298.051 150.484 298.812 144.638 300.526C138.791 302.24 134.053 304.749 130.483 307.823C126.782 311.009 124.338 314.804 123.218 318.952L119.777 331.703C118.658 335.851 118.863 340.351 120.462 344.951C122.005 349.388 124.845 353.916 129.043 358.308C133.241 362.699 138.408 366.545 144.167 369.746C150.137 373.064 156.743 375.688 163.567 377.507C170.39 379.326 177.431 380.339 184.27 380.436C190.868 380.529 197.278 379.768 203.124 378.054C208.97 376.34 213.709 373.831 217.279 370.757Z" fill="#E88225"/>
<path d="M217.264 370.815C220.964 367.628 223.408 363.833 224.528 359.686L227.969 346.934C226.85 351.082 224.406 354.877 220.705 358.063C217.135 361.137 212.396 363.646 206.55 365.36C200.704 367.074 194.294 367.834 187.696 367.741C180.857 367.645 173.816 366.632 166.993 364.813C160.169 362.994 153.563 360.37 147.593 357.052C141.834 353.851 136.667 350.005 132.469 345.614C128.271 341.222 125.431 336.693 123.888 332.257C122.289 327.657 122.084 323.156 123.203 319.009L119.761 331.76C118.642 335.908 118.848 340.409 120.447 345.008C121.989 349.445 124.829 353.973 129.028 358.365C133.226 362.756 138.393 366.603 144.152 369.803C150.121 373.121 156.728 375.745 163.551 377.564C170.375 379.383 177.415 380.396 184.255 380.493C190.852 380.586 197.262 379.825 203.109 378.111C208.955 376.397 213.694 373.889 217.264 370.815Z" fill="url(#paint2_linear)" fill-opacity="0.48" style="mix-blend-mode:overlay"/>
<path d="M130.483 307.823C126.782 311.009 124.338 314.804 123.218 318.952C122.099 323.099 122.305 327.6 123.904 332.199C125.446 336.636 128.286 341.165 132.485 345.556C136.683 349.948 141.85 353.794 147.609 356.995C153.578 360.313 160.185 362.937 167.008 364.755C173.831 366.574 180.872 367.588 187.711 367.684C194.309 367.777 200.719 367.017 206.566 365.303C212.412 363.588 217.151 361.08 220.721 358.006C224.421 354.819 226.865 351.025 227.985 346.877C229.104 342.729 228.899 338.229 227.3 333.629C225.757 329.192 222.917 324.664 218.719 320.272C214.52 315.881 209.354 312.035 203.595 308.834C197.625 305.516 191.019 302.892 184.195 301.073C177.372 299.254 170.331 298.241 163.492 298.144C156.894 298.051 150.484 298.812 144.638 300.526C138.791 302.24 134.053 304.749 130.483 307.823Z" fill="white" fill-opacity="0.4" style="mix-blend-mode:overlay"/>
<g style="mix-blend-mode:overlay">
<path d="M199.768 320.417L197.302 322.324C196.555 322.881 195.651 323.018 194.589 322.735C194.184 322.627 193.91 322.537 193.766 322.466C192.94 322.114 192.273 321.871 191.768 321.736C190.048 321.278 188.695 321.871 187.71 323.515L186.08 326.237L189.95 327.268C190.759 327.484 191.396 327.834 191.861 328.32C192.327 328.806 192.493 329.294 192.361 329.784L191.566 332.729C191.434 333.219 191.044 333.559 190.396 333.748C189.749 333.937 189.021 333.924 188.211 333.708L182.521 332.192L173.787 346.778C172.098 349.418 170.229 351.122 168.178 351.891C166.17 352.703 163.42 352.644 159.931 351.714C156.694 350.851 153.872 349.655 151.466 348.126C150.494 347.506 150.1 346.858 150.282 346.184C150.332 346 150.537 345.742 150.897 345.411L153.15 343.693C153.829 343.184 154.675 343.064 155.687 343.334C155.889 343.388 156.382 343.569 157.167 343.876C157.993 344.228 158.558 344.445 158.862 344.526C159.621 344.728 160.336 344.688 161.008 344.407C161.68 344.126 162.205 343.691 162.581 343.1L170.99 329.118L166.666 327.965C165.856 327.75 165.219 327.399 164.754 326.913C164.288 326.428 164.122 325.939 164.254 325.449L165.049 322.505C165.182 322.014 165.571 321.674 166.219 321.485C166.866 321.296 167.595 321.309 168.404 321.525L174.549 323.163L176.441 320.067C178.238 317.226 180.28 315.387 182.566 314.55C184.852 313.712 187.816 313.779 191.458 314.75C194.037 315.437 196.534 316.432 198.948 317.733C200.02 318.38 200.469 319.026 200.295 319.67C200.204 320.007 200.028 320.256 199.768 320.417Z" fill="#2C2C2C"/>
<path d="M148.758 340.594C147.586 340.936 146.31 340.609 145.525 339.678C142.566 336.174 140.797 332.449 140.383 328.821C139.911 324.679 141.224 320.825 144.176 317.685C147.128 314.544 151.604 312.24 157.11 311.025C161.959 309.956 167.44 309.769 173.076 310.471C174.405 310.636 175.367 311.788 175.356 313.125C175.343 314.802 173.829 316.065 172.156 315.916C168.442 315.586 164.851 315.777 161.632 316.487C157.502 317.398 154.145 319.127 151.931 321.482C149.717 323.837 148.732 326.728 149.086 329.834C149.273 331.474 149.83 333.141 150.729 334.782C151.905 336.931 151.117 339.905 148.758 340.594Z" fill="#2C2C2C"/>
<path d="M202.043 325.261C203.215 324.919 204.491 325.246 205.276 326.176C208.235 329.681 210.004 333.405 210.418 337.034C210.89 341.175 209.577 345.029 206.625 348.169C203.673 351.31 199.197 353.615 193.691 354.829C188.842 355.898 183.361 356.085 177.725 355.384C176.396 355.218 175.434 354.066 175.445 352.729C175.459 351.052 176.972 349.789 178.645 349.938C182.359 350.268 185.95 350.077 189.169 349.367C193.299 348.456 196.656 346.728 198.87 344.372C201.084 342.017 202.069 339.127 201.715 336.021C201.528 334.38 200.971 332.713 200.073 331.072C198.896 328.924 199.684 325.95 202.043 325.261Z" fill="#2C2C2C"/>
</g>
<path d="M129.597 306.634C125.897 309.821 124.117 315.624 122.997 319.772C121.878 323.919 122.083 328.42 123.682 333.019C125.225 337.456 128.065 341.985 132.263 346.376C136.462 350.768 141.628 354.614 147.387 357.815C153.357 361.133 159.963 363.757 166.787 365.576C173.61 367.394 180.651 368.408 187.49 368.504C194.088 368.597 200.498 367.837 206.344 366.123C212.191 364.409 216.929 361.9 220.499 358.826C224.2 355.639 226.644 351.845 227.764 347.697C228.883 343.549 230.23 337.819 228.631 333.22" stroke="#E88225" stroke-width="0.796515" stroke-linecap="round" stroke-linejoin="round"/>
<path d="M129.597 306.634C125.897 309.821 124.117 315.624 122.997 319.772C121.878 323.919 122.083 328.42 123.682 333.019C125.225 337.456 128.065 341.985 132.263 346.376C136.462 350.768 141.628 354.614 147.387 357.815C153.357 361.133 159.963 363.757 166.787 365.576C173.61 367.394 180.651 368.408 187.49 368.504C194.088 368.597 200.498 367.837 206.344 366.123C212.191 364.409 216.929 361.9 220.499 358.826C224.2 355.639 226.644 351.845 227.764 347.697C228.883 343.549 230.23 337.819 228.631 333.22" stroke="white" stroke-opacity="0.64" stroke-width="0.796515" style="mix-blend-mode:overlay"/>
</g>
<defs>
<linearGradient id="paint0_linear" x1="53.551" y1="39.75" x2="183.73" y2="96.1925" gradientUnits="userSpaceOnUse">
<stop stop-opacity="0.5"/>
<stop offset="0.515625" stop-opacity="0"/>
<stop offset="1"/>
</linearGradient>
<linearGradient id="paint1_linear" x1="242.207" y1="204.539" x2="357.623" y2="149.675" gradientUnits="userSpaceOnUse">
<stop stop-opacity="0.5"/>
<stop offset="0.515625" stop-opacity="0"/>
<stop offset="1"/>
</linearGradient>
<linearGradient id="paint2_linear" x1="123.203" y1="319.009" x2="227.881" y2="347.26" gradientUnits="userSpaceOnUse">
<stop stop-opacity="0.5"/>
<stop offset="0.515625" stop-opacity="0"/>
<stop offset="1"/>
</linearGradient>
</defs>
</svg>
