<svg width="54" height="67" viewBox="0 0 54 67" fill="none" xmlns="http://www.w3.org/2000/svg">
<mask id="mask0" mask-type="alpha" maskUnits="userSpaceOnUse" x="2" y="36" width="39" height="29">
<path d="M39.4691 54.4651C40.2041 52.937 40.4557 51.3873 40.2374 49.9069L39.6435 45.8804C39.4252 44.4 38.7369 42.9889 37.5921 41.7381C36.4876 40.5314 34.9583 39.4738 33.0162 38.6469C31.074 37.8201 28.8996 37.3008 26.6263 37.0694C24.2698 36.8295 21.8071 36.8991 19.3868 37.256C16.9664 37.613 14.5885 38.2574 12.4016 39.1674C10.2919 40.0452 8.35996 41.1701 6.73923 42.5225C5.11849 43.8748 3.95962 45.3289 3.25058 46.803C2.5156 48.3311 2.26398 49.8808 2.48232 51.3612L3.07619 55.3878C3.29453 56.8682 3.98283 58.2792 5.12768 59.5301C6.2321 60.7368 7.76141 61.7944 9.70356 62.6212C11.6457 63.4481 13.8201 63.9674 16.0934 64.1988C18.4499 64.4386 20.9126 64.3691 23.333 64.0121C25.7533 63.6551 28.1312 63.0107 30.3181 62.1008C32.4278 61.223 34.3598 60.098 35.9805 58.7457C37.6012 57.3933 38.7601 55.9393 39.4691 54.4651Z" fill="black"/>
</mask>
<g mask="url(#mask0)">
<path d="M39.5465 54.9898C40.2815 53.4617 40.5331 51.912 40.3148 50.4316L39.6435 45.8804C39.4252 44.4 38.7369 42.9889 37.5921 41.7381C36.4876 40.5314 34.9583 39.4738 33.0162 38.6469C31.074 37.8201 28.8996 37.3008 26.6263 37.0694C24.2698 36.8295 21.8071 36.8991 19.3868 37.256C16.9664 37.613 14.5885 38.2574 12.4016 39.1674C10.2919 40.0452 8.35996 41.1701 6.73923 42.5225C5.11849 43.8748 3.95962 45.3289 3.25058 46.803C2.5156 48.3311 2.26398 49.8808 2.48232 51.3612L3.15357 55.9124C3.37191 57.3928 4.06021 58.8039 5.20506 60.0547C6.30948 61.2614 7.83879 62.319 9.78094 63.1459C11.7231 63.9728 13.8975 64.4921 16.1708 64.7234C18.5273 64.9633 20.99 64.8938 23.4104 64.5368C25.8307 64.1798 28.2086 63.5354 30.3955 62.6255C32.5052 61.7476 34.4371 60.6227 36.0579 59.2704C37.6786 57.918 38.8375 56.4639 39.5465 54.9898Z" fill="#E88225"/>
<path d="M39.5496 55.0105C40.2846 53.4824 40.5362 51.9327 40.3179 50.4523L39.6466 45.9011C39.865 47.3815 39.6134 48.9312 38.8784 50.4593C38.1693 51.9334 37.0105 53.3875 35.3897 54.7399C33.769 56.0922 31.837 57.2171 29.7274 58.095C27.5404 59.0049 25.1625 59.6493 22.7422 60.0063C20.3219 60.3633 17.8591 60.4328 15.5027 60.1929C13.2294 59.9616 11.0549 59.4423 9.11278 58.6154C7.17063 57.7885 5.64132 56.7309 4.5369 55.5243C3.39205 54.2734 2.70375 52.8623 2.48541 51.382L3.15667 55.9332C3.375 57.4136 4.0633 58.8246 5.20815 60.0755C6.31257 61.2822 7.84188 62.3398 9.78403 63.1666C11.7262 63.9935 13.9006 64.5128 16.1739 64.7442C18.5304 64.984 20.9931 64.9145 23.4134 64.5575C25.8338 64.2006 28.2117 63.5561 30.3986 62.6462C32.5083 61.7684 34.4402 60.6435 36.061 59.2911C37.6817 57.9387 38.8406 56.4847 39.5496 55.0105Z" fill="url(#paint0_linear)" fill-opacity="0.48" style="mix-blend-mode:overlay"/>
<path d="M3.25058 46.803C2.5156 48.3311 2.26398 49.8808 2.48232 51.3612C2.70066 52.8416 3.38896 54.2527 4.5338 55.5035C5.63823 56.7102 7.16754 57.7678 9.10968 58.5947C11.0518 59.4215 13.2263 59.9408 15.4996 60.1722C17.8561 60.412 20.3188 60.3425 22.7391 59.9855C25.1594 59.6286 27.5373 58.9842 29.7243 58.0742C31.834 57.1964 33.7659 56.0715 35.3866 54.7191C37.0074 53.3668 38.1662 51.9127 38.8753 50.4386C39.6103 48.9104 39.8619 47.3608 39.6435 45.8804C39.4252 44.4 38.7369 42.9889 37.5921 41.7381C36.4876 40.5314 34.9583 39.4738 33.0162 38.6469C31.074 37.8201 28.8996 37.3008 26.6263 37.0694C24.2698 36.8295 21.8071 36.8991 19.3868 37.256C16.9664 37.613 14.5885 38.2574 12.4016 39.1674C10.2919 40.0452 8.35996 41.1701 6.73923 42.5225C5.11849 43.8748 3.95962 45.3289 3.25058 46.803Z" fill="white" fill-opacity="0.4" style="mix-blend-mode:overlay"/>
<g style="mix-blend-mode:overlay">
<path d="M27.0136 41.3002L26.4937 42.2493C26.3335 42.5301 26.065 42.6984 25.6882 42.7539C25.5447 42.7751 25.4453 42.7842 25.3898 42.7812C25.0784 42.7824 24.833 42.7962 24.6536 42.8226C24.0436 42.9126 23.6958 43.2883 23.61 43.9496L23.469 45.0441L24.8414 44.8417C25.1284 44.7994 25.3795 44.8239 25.5946 44.9152C25.8097 45.0065 25.9301 45.1397 25.956 45.3148L26.111 46.3657C26.1368 46.5408 26.0599 46.7032 25.8803 46.8527C25.7008 47.0022 25.4674 47.0981 25.1804 47.1405L23.1622 47.4381L22.4051 53.3042C22.234 54.3808 21.8757 55.183 21.3303 55.7108C20.8045 56.2469 19.9227 56.6063 18.6848 56.7888C17.5367 56.9582 16.4743 56.9639 15.4979 56.8059C15.1034 56.741 14.8884 56.5882 14.8529 56.3474C14.8432 56.2817 14.8727 56.1711 14.9414 56.0156L15.4196 55.1565C15.5651 54.9002 15.8172 54.7456 16.176 54.6927C16.2478 54.6821 16.4296 54.672 16.7215 54.6625C17.0329 54.6613 17.2425 54.6528 17.3501 54.6369C17.6192 54.5972 17.8411 54.4862 18.0159 54.3039C18.1906 54.1215 18.2969 53.9101 18.3347 53.6697L19.0719 48.0414L17.538 48.2676C17.251 48.3099 16.9999 48.2855 16.7848 48.1942C16.5697 48.1029 16.4492 47.9696 16.4234 47.7945L16.2684 46.7436C16.2426 46.5685 16.3195 46.4062 16.499 46.2567C16.6786 46.1071 16.9119 46.0112 17.199 45.9689L19.3787 45.6474L19.5517 44.3972C19.7295 43.2413 20.1238 42.3723 20.7344 41.7901C21.3451 41.2079 22.2963 40.8216 23.588 40.6311C24.5029 40.4961 25.434 40.4706 26.3812 40.5546C26.8116 40.6142 27.0437 40.7589 27.0776 40.9888C27.0954 41.1092 27.074 41.213 27.0136 41.3002Z" fill="#2C2C2C"/>
<path d="M13.5988 54.7656C13.2713 55.0382 12.8165 55.1097 12.4356 54.9188C11.0126 54.2053 9.93638 53.2584 9.30343 52.1562C8.58018 50.8968 8.46387 49.4838 8.96735 48.0734C9.47084 46.663 10.5745 45.3102 12.1563 44.1645C13.548 43.1565 15.2621 42.3434 17.1481 41.7924C17.5962 41.6616 18.0644 41.8979 18.2464 42.3277C18.4739 42.8653 18.1658 43.4767 17.6115 43.6601C16.3868 44.0652 15.2733 44.6199 14.3493 45.2892C13.1629 46.1485 12.3351 47.1631 11.9575 48.2209C11.5799 49.2787 11.6672 50.3384 12.2096 51.283C12.4971 51.7836 12.9064 52.2414 13.4216 52.6436C14.0926 53.1673 14.2529 54.221 13.5988 54.7656Z" fill="#2C2C2C"/>
<path d="M28.4028 42.5398C28.7302 42.2671 29.1851 42.1956 29.566 42.3866C30.989 43.1 32.0652 44.047 32.6982 45.1492C33.4214 46.4086 33.5377 47.8216 33.0342 49.232C32.5308 50.6424 31.4271 51.9952 29.8453 53.1409C28.4536 54.1489 26.7395 54.962 24.8535 55.5129C24.4054 55.6438 23.9371 55.4075 23.7552 54.9776C23.5276 54.4401 23.8358 53.8286 24.3901 53.6453C25.6148 53.2401 26.7283 52.6854 27.6523 52.0162C28.8387 51.1569 29.6664 50.1423 30.0441 49.0845C30.4217 48.0267 30.3344 46.9669 29.792 46.0224C29.5045 45.5218 29.0952 45.0639 28.5799 44.6618C27.909 44.1381 27.7487 43.0843 28.4028 42.5398Z" fill="#2C2C2C"/>
</g>
<path d="M2.80472 46.5448C2.06973 48.0729 2.30717 50.1736 2.52551 51.654C2.74385 53.1344 3.43214 54.5454 4.57699 55.7963C5.68142 57.003 7.21072 58.0606 9.15287 58.8874C11.095 59.7143 13.2695 60.2336 15.5427 60.465C17.8992 60.7048 20.362 60.6353 22.7823 60.2783C25.2026 59.9214 27.5805 59.2769 29.7674 58.367C31.8771 57.4892 33.8091 56.3643 35.4298 55.0119C37.0506 53.6595 38.2094 52.2055 38.9185 50.7313C39.6534 49.2032 39.9051 47.6535 39.6867 46.1731C39.4684 44.6928 39.1035 42.675 37.9586 41.4241" stroke="#E88225" stroke-width="0.256383" stroke-linecap="round" stroke-linejoin="round"/>
<path d="M2.80472 46.5448C2.06973 48.0729 2.30717 50.1736 2.52551 51.654C2.74385 53.1344 3.43214 54.5454 4.57699 55.7963C5.68142 57.003 7.21072 58.0606 9.15287 58.8874C11.095 59.7143 13.2695 60.2336 15.5427 60.465C17.8992 60.7048 20.362 60.6353 22.7823 60.2783C25.2026 59.9214 27.5805 59.2769 29.7674 58.367C31.8771 57.4892 33.8091 56.3643 35.4298 55.0119C37.0506 53.6595 38.2094 52.2055 38.9185 50.7313C39.6534 49.2032 39.9051 47.6535 39.6867 46.1731C39.4684 44.6928 39.1035 42.675 37.9586 41.4241" stroke="white" stroke-opacity="0.64" stroke-width="0.256383" style="mix-blend-mode:overlay"/>
</g>
<mask id="mask1" mask-type="alpha" maskUnits="userSpaceOnUse" x="5" y="6" width="44" height="38">
<path d="M48.0042 20.2797C48.0107 18.2998 47.497 16.5396 46.523 15.0884L43.8739 11.1411C42.9 9.68985 41.4657 8.54752 39.631 7.80321C37.861 7.08519 35.7184 6.73758 33.2567 6.84039C30.795 6.9432 28.2432 7.48687 25.7319 8.3837C23.1287 9.31335 20.569 10.6225 18.1985 12.2134C15.8279 13.8043 13.6465 15.677 11.7997 17.7338C10.0182 19.718 8.5481 21.8735 7.52016 24.1127C6.49222 26.3518 6.002 28.4664 5.99579 30.3765C5.98935 32.3564 6.50302 34.1166 7.47697 35.5678L10.1261 39.5151C11.1 40.9663 12.5343 42.1087 14.369 42.853C16.139 43.571 18.2816 43.9186 20.7433 43.8158C23.205 43.713 25.7568 43.1693 28.2681 42.2725C30.8713 41.3428 33.431 40.0337 35.8015 38.4428C38.1721 36.8519 40.3535 34.9792 42.2003 32.9223C43.9818 30.9382 45.4519 28.7826 46.4798 26.5435C47.5078 24.3044 47.998 22.1898 48.0042 20.2797Z" fill="black"/>
</mask>
<g mask="url(#mask1)">
<path d="M48.3494 20.7941C48.3558 18.8141 47.8422 17.054 46.8682 15.6027L43.8739 11.1411C42.9 9.68985 41.4657 8.54752 39.631 7.80321C37.861 7.08519 35.7184 6.73758 33.2567 6.84039C30.795 6.9432 28.2432 7.48687 25.7319 8.3837C23.1287 9.31335 20.569 10.6225 18.1985 12.2134C15.8279 13.8043 13.6465 15.677 11.7997 17.7338C10.0182 19.718 8.5481 21.8735 7.52016 24.1127C6.49222 26.3518 6.002 28.4664 5.99579 30.3765C5.98935 32.3564 6.50302 34.1166 7.47697 35.5678L10.4713 40.0294C11.4452 41.4807 12.8795 42.623 14.7142 43.3673C16.4842 44.0853 18.6268 44.4329 21.0885 44.3301C23.5502 44.2273 26.102 43.6837 28.6133 42.7868C31.2165 41.8572 33.7762 40.548 36.1467 38.9571C38.5173 37.3662 40.6987 35.4935 42.5454 33.4367C44.327 31.4525 45.7971 29.297 46.825 27.0578C47.853 24.8187 48.3432 22.7041 48.3494 20.7941Z" fill="#34BBCD"/>
<path d="M48.3629 20.8143C48.3693 18.8343 47.8557 17.0742 46.8817 15.6229L43.8874 11.1613C44.8614 12.6125 45.375 14.3727 45.3686 16.3526C45.3624 18.2627 44.8722 20.3773 43.8442 22.6164C42.8163 24.8556 41.3462 27.0111 39.5647 28.9953C37.7179 31.0521 35.5365 32.9248 33.1659 34.5157C30.7954 36.1066 28.2357 37.4158 25.6325 38.3454C23.1212 39.2422 20.5694 39.7859 18.1077 39.8887C15.646 39.9915 13.5034 39.6439 11.7334 38.9259C9.89868 38.1816 8.46443 37.0393 7.49048 35.588L10.4848 40.0496C11.4587 41.5009 12.893 42.6432 14.7277 43.3875C16.4977 44.1055 18.6403 44.4532 21.102 44.3503C23.5637 44.2475 26.1155 43.7039 28.6268 42.807C31.23 41.8774 33.7897 40.5683 36.1602 38.9773C38.5308 37.3864 40.7122 35.5137 42.5589 33.4569C44.3405 31.4727 45.8106 29.3172 46.8385 27.0781C47.8665 24.8389 48.3567 22.7243 48.3629 20.8143Z" fill="url(#paint1_linear)" fill-opacity="0.48" style="mix-blend-mode:overlay"/>
<path d="M5.99579 30.3765C5.98935 32.3564 6.50302 34.1166 7.47697 35.5678C8.45093 37.019 9.88518 38.1614 11.7199 38.9057C13.4899 39.6237 15.6325 39.9713 18.0942 39.8685C20.5559 39.7657 23.1077 39.222 25.619 38.3252C28.2222 37.3955 30.7819 36.0864 33.1524 34.4955C35.523 32.9046 37.7044 31.0319 39.5511 28.975C41.3327 26.9909 42.8028 24.8353 43.8307 22.5962C44.8587 20.3571 45.3489 18.2425 45.3551 16.3324C45.3615 14.3525 44.8479 12.5923 43.8739 11.1411C42.9 9.68985 41.4657 8.54752 39.631 7.80321C37.861 7.08519 35.7184 6.73758 33.2567 6.84039C30.795 6.9432 28.2432 7.48687 25.7319 8.3837C23.1287 9.31335 20.569 10.6225 18.1985 12.2134C15.8279 13.8043 13.6465 15.677 11.7997 17.7338C10.0182 19.718 8.5481 21.8735 7.52016 24.1127C6.49222 26.3518 6.002 28.4664 5.99579 30.3765Z" fill="white" fill-opacity="0.4" style="mix-blend-mode:overlay"/>
<g style="mix-blend-mode:overlay">
<path d="M28.2658 12.6499L28.195 13.9115C28.1673 14.288 27.969 14.6001 27.6 14.8477C27.4595 14.942 27.3592 15.0015 27.2993 15.0262C26.9718 15.1837 26.7202 15.3215 26.5445 15.4394C25.9471 15.8403 25.7694 16.4109 26.0113 17.1513L26.4128 18.376L27.757 17.4739C28.0381 17.2852 28.3149 17.185 28.5874 17.1734C28.8599 17.1617 29.0538 17.2417 29.169 17.4134L29.8604 18.4436C29.9756 18.6152 29.9762 18.825 29.8621 19.0727C29.7481 19.3205 29.5505 19.5387 29.2693 19.7274L27.2926 21.054L29.4429 27.6187C29.8035 28.8396 29.8292 29.8652 29.5199 30.6954C29.2353 31.5245 28.4868 32.3458 27.2744 33.1595C26.1499 33.9142 25.0335 34.4533 23.9254 34.7768C23.4772 34.9064 23.1739 34.8531 23.0154 34.617C22.9722 34.5526 22.9477 34.4212 22.942 34.2228L23.0141 33.0771C23.0386 32.7338 23.2265 32.4443 23.5779 32.2084C23.6482 32.1612 23.8347 32.0594 24.1375 31.9029C24.465 31.7454 24.6814 31.6312 24.7869 31.5605C25.0504 31.3836 25.2284 31.1552 25.3209 30.8752C25.4134 30.5953 25.4191 30.3191 25.3382 30.0465L23.2864 23.7426L21.7841 24.7508C21.503 24.9395 21.2262 25.0397 20.9537 25.0514C20.6812 25.063 20.4873 24.983 20.3721 24.8113L19.6807 23.7812C19.5655 23.6095 19.5649 23.3998 19.679 23.152C19.793 22.9043 19.9906 22.686 20.2717 22.4974L22.4066 21.0646L21.9607 19.6596C21.5671 18.3518 21.5458 17.2377 21.8966 16.3174C22.2474 15.3972 23.0554 14.5125 24.3205 13.6635C25.2166 13.0621 26.1847 12.568 27.2249 12.1812C27.7083 12.028 28.0255 12.0641 28.1768 12.2894C28.256 12.4075 28.2857 12.5276 28.2658 12.6499Z" fill="#2C2C2C"/>
<path d="M20.8999 33.5777C20.6917 34.03 20.2477 34.3341 19.7499 34.3238C17.8926 34.2856 16.2833 33.8273 15.0628 32.983C13.668 32.0181 12.8353 30.5867 12.657 28.847C12.4787 27.1073 12.9617 25.1272 14.0525 23.1254C15.012 21.3646 16.4089 19.6475 18.1187 18.1204C18.5254 17.7571 19.1381 17.771 19.5459 18.133C20.0557 18.5856 20.0379 19.3849 19.5458 19.8566C18.4593 20.8983 17.5651 22.0417 16.928 23.2108C16.1099 24.7121 15.7477 26.1973 15.8815 27.502C16.0152 28.8068 16.6397 29.8803 17.6858 30.604C18.2405 30.9877 18.9023 31.2651 19.6477 31.4306C20.6175 31.6458 21.3153 32.6754 20.8999 33.5777Z" fill="#2C2C2C"/>
<path d="M30.3518 13.2605C30.56 12.8082 31.004 12.5041 31.5018 12.5144C33.3591 12.5526 34.9684 13.011 36.1889 13.8552C37.5838 14.8201 38.4164 16.2515 38.5947 17.9912C38.773 19.7309 38.29 21.711 37.1993 23.7128C36.2398 25.4736 34.8428 27.1907 33.133 28.7179C32.7263 29.0811 32.1136 29.0672 31.7058 28.7052C31.196 28.2526 31.2139 27.4533 31.7059 26.9816C32.7924 25.9399 33.6866 24.7965 34.3237 23.6274C35.1418 22.1261 35.504 20.641 35.3703 19.3362C35.2365 18.0314 34.6121 16.9579 33.5659 16.2342C33.0112 15.8505 32.3494 15.5731 31.604 15.4077C30.6342 15.1924 29.9364 14.1628 30.3518 13.2605Z" fill="#2C2C2C"/>
</g>
<path d="M5.39623 30.3279C5.3898 32.3079 6.69562 34.4036 7.66957 35.8548C8.64353 37.3061 10.0778 38.4484 11.9125 39.1927C13.6825 39.9107 15.8251 40.2583 18.2868 40.1555C20.7485 40.0527 23.3003 39.509 25.8116 38.6122C28.4148 37.6826 30.9745 36.3734 33.345 34.7825C35.7156 33.1916 37.897 31.3189 39.7437 29.2621C41.5253 27.2779 42.9954 25.1224 44.0233 22.8832C45.0513 20.6441 45.5415 18.5295 45.5477 16.6194C45.5541 14.6395 45.0405 12.8793 44.0665 11.4281C43.0926 9.97686 41.6941 8.03259 39.8594 7.28829" stroke="#34BBCD" stroke-width="0.184027" stroke-linecap="round" stroke-linejoin="round"/>
<path d="M5.39623 30.3279C5.3898 32.3079 6.69562 34.4036 7.66957 35.8548C8.64353 37.3061 10.0778 38.4484 11.9125 39.1927C13.6825 39.9107 15.8251 40.2583 18.2868 40.1555C20.7485 40.0527 23.3003 39.509 25.8116 38.6122C28.4148 37.6826 30.9745 36.3734 33.345 34.7825C35.7156 33.1916 37.897 31.3189 39.7437 29.2621C41.5253 27.2779 42.9954 25.1224 44.0233 22.8832C45.0513 20.6441 45.5415 18.5295 45.5477 16.6194C45.5541 14.6395 45.0405 12.8793 44.0665 11.4281C43.0926 9.97686 41.6941 8.03259 39.8594 7.28829" stroke="white" stroke-opacity="0.64" stroke-width="0.184027" style="mix-blend-mode:overlay"/>
</g>
<defs>
<linearGradient id="paint0_linear" x1="2.48541" y1="51.382" x2="39.6466" y2="45.9011" gradientUnits="userSpaceOnUse">
<stop stop-opacity="0.5"/>
<stop offset="0.515625" stop-opacity="0"/>
<stop offset="1"/>
</linearGradient>
<linearGradient id="paint1_linear" x1="7.49048" y1="35.588" x2="43.8874" y2="11.1613" gradientUnits="userSpaceOnUse">
<stop stop-opacity="0.5"/>
<stop offset="0.515625" stop-opacity="0"/>
<stop offset="1"/>
</linearGradient>
</defs>
</svg>
