<svg width="128" height="46" viewBox="0 0 128 46" fill="none" xmlns="http://www.w3.org/2000/svg">
<path d="M43.9995 22.3531V30.6474C43.9995 31.0027 43.8778 31.3025 43.6345 31.5468C43.3911 31.7911 43.0924 31.9132 42.7385 31.9132H40.2828C39.9288 31.9132 39.6301 31.7911 39.3868 31.5468C39.1434 31.3025 39.0217 31.0027 39.0217 30.6474V18.1894C39.0217 17.834 39.1434 17.5343 39.3868 17.29C39.6301 17.0457 39.9288 16.9236 40.2828 16.9236H42.8712C43.1809 16.9236 43.4464 17.0346 43.6677 17.2567C43.8889 17.4787 43.9995 17.7452 43.9995 18.0561C45.0393 17.1234 46.2672 16.6571 47.6831 16.6571C51.7317 16.6571 53.756 18.7667 53.756 22.986V30.6474C53.756 31.0027 53.6343 31.3025 53.3909 31.5468C53.1476 31.7911 52.8489 31.9132 52.4949 31.9132H50.0392C49.6852 31.9132 49.3866 31.7911 49.1432 31.5468C48.8999 31.3025 48.7782 31.0027 48.7782 30.6474V23.8521C48.7782 23.0305 48.5569 22.4087 48.1145 21.9867C47.6941 21.5426 47.0968 21.3205 46.3225 21.3205C45.4597 21.3205 44.6853 21.6647 43.9995 22.3531Z" fill="#2BE6FF"/>
<path d="M64.6389 28.0159L65.3358 29.3816C65.4243 29.5371 65.4685 29.7369 65.4685 29.9812C65.4685 30.492 65.2362 30.8806 64.7716 31.1471C63.4 31.9243 61.9398 32.3129 60.3912 32.3129C58.7762 32.3129 57.5926 31.8133 56.8404 30.814C56.1103 29.7925 55.7453 28.2602 55.7453 26.2171V14.0256C55.7453 13.6702 55.8669 13.3705 56.1103 13.1262C56.3536 12.8819 56.6523 12.7598 57.0063 12.7598H59.462C59.816 12.7598 60.1146 12.8819 60.358 13.1262C60.6014 13.3705 60.723 13.6702 60.723 14.0256V16.9236H63.6101C63.9641 16.9236 64.2628 17.0457 64.5061 17.29C64.7495 17.5343 64.8712 17.834 64.8712 18.1894V20.3212C64.8712 20.6765 64.7495 20.9763 64.5061 21.2206C64.2628 21.4649 63.9641 21.587 63.6101 21.587H60.723V25.984C60.723 27.0943 61.0881 27.6495 61.8181 27.6495C62.2385 27.6495 62.6146 27.5718 62.9464 27.4163C63.1234 27.3275 63.3336 27.2831 63.577 27.2831C64.0637 27.2831 64.4176 27.5274 64.6389 28.0159Z" fill="#2BE6FF"/>
<path d="M72.1149 22.3865V30.6474C72.1149 31.0027 71.9932 31.3025 71.7498 31.5468C71.5065 31.7911 71.2078 31.9132 70.8538 31.9132H68.3981C68.0442 31.9132 67.7455 31.7911 67.5021 31.5468C67.2588 31.3025 67.1371 31.0027 67.1371 30.6474V18.1894C67.1371 17.834 67.2588 17.5343 67.5021 17.29C67.7455 17.0457 68.0442 16.9236 68.3981 16.9236H70.9534C71.2631 16.9236 71.5286 17.0457 71.7498 17.29C71.9932 17.512 72.1149 17.7785 72.1149 18.0894C72.8007 17.1345 73.7741 16.6571 75.0352 16.6571C75.7653 16.6571 76.3626 16.7348 76.8272 16.8902C77.3803 17.0457 77.6568 17.401 77.6568 17.9562C77.6568 18.2227 77.6126 18.4447 77.5241 18.6224L76.5617 20.7209C76.3183 21.2539 75.8759 21.5204 75.2343 21.5204C75.2122 21.5204 75.0462 21.4982 74.7365 21.4538C74.4047 21.3649 74.0949 21.3205 73.8073 21.3205C73.0773 21.3205 72.5131 21.6758 72.1149 22.3865Z" fill="#2BE6FF"/>
<path d="M79.8517 30.0811C78.3252 28.5711 77.5619 26.6835 77.5619 24.4184C77.5619 22.1311 78.3252 20.2435 79.8517 18.7556C81.334 17.2678 83.3361 16.5238 85.8582 16.5238C88.3803 16.5238 90.3935 17.2678 91.8979 18.7556C93.4023 20.2657 94.1545 22.1533 94.1545 24.4184C94.1545 26.6835 93.4023 28.5711 91.8979 30.0811C90.3935 31.569 88.3803 32.3129 85.8582 32.3129C83.3361 32.3129 81.334 31.569 79.8517 30.0811ZM82.8716 24.4184C82.8716 25.3511 83.1481 26.1283 83.7012 26.7501C84.2764 27.3497 84.9954 27.6495 85.8582 27.6495C86.7432 27.6495 87.4622 27.3608 88.0153 26.7834C88.5683 26.1838 88.8449 25.3955 88.8449 24.4184C88.8449 23.4857 88.5573 22.7196 87.9821 22.12C87.429 21.4982 86.721 21.1873 85.8582 21.1873C84.9954 21.1873 84.2764 21.4871 83.7012 22.0867C83.1481 22.664 82.8716 23.4413 82.8716 24.4184Z" fill="#2BE6FF"/>
<path d="M100.943 31.8466V37.3095C100.943 37.6648 100.822 37.9646 100.578 38.2089C100.335 38.4531 100.036 38.5753 99.6822 38.5753H97.2265C96.8725 38.5753 96.5738 38.4531 96.3305 38.2089C96.0871 37.9646 95.9654 37.6648 95.9654 37.3095V18.1894C95.9654 17.834 96.0871 17.5343 96.3305 17.29C96.5738 17.0457 96.8725 16.9236 97.2265 16.9236H99.8481C100.158 16.9236 100.412 17.0346 100.611 17.2567C100.833 17.4787 100.943 17.7341 100.943 18.0228C101.983 17.0235 103.366 16.5238 105.091 16.5238C107.105 16.5238 108.72 17.2345 109.936 18.6557C111.153 20.0769 111.762 21.9201 111.762 24.1852C111.762 26.5391 111.02 28.4711 109.538 29.9812C108.056 31.5357 106.12 32.3129 103.731 32.3129C102.625 32.3129 101.695 32.1575 100.943 31.8466ZM100.943 22.5197V27.0832C101.585 27.4607 102.359 27.6495 103.266 27.6495C104.284 27.6495 105.069 27.3497 105.622 26.7501C106.175 26.1283 106.452 25.3067 106.452 24.2851C106.452 23.3525 106.186 22.6085 105.656 22.0534C105.147 21.476 104.439 21.1873 103.532 21.1873C102.602 21.1873 101.74 21.6314 100.943 22.5197Z" fill="#2BE6FF"/>
<path d="M117.468 17.8896L119.659 23.7855C119.836 24.274 120.024 24.9625 120.223 25.8507C120.333 24.8514 120.455 24.1519 120.588 23.7522L122.28 17.8896C122.479 17.2456 122.9 16.9236 123.541 16.9236H125.897C126.34 16.9236 126.716 17.0901 127.026 17.4232C127.335 17.7341 127.49 18.1005 127.49 18.5225C127.49 18.7001 127.457 18.8889 127.391 19.0887L122.413 31.9132C121.351 34.5336 120.4 36.2991 119.559 37.2096C118.696 38.12 117.634 38.5753 116.373 38.5753C115.289 38.5753 114.238 38.2422 113.221 37.576C112.867 37.3539 112.69 37.0097 112.69 36.5434C112.69 36.2769 112.756 36.0326 112.889 35.8105L113.619 34.5114C113.818 34.2005 113.984 33.9896 114.117 33.8785C114.249 33.7675 114.449 33.712 114.714 33.712C114.78 33.712 114.991 33.7564 115.345 33.8452C115.721 33.934 115.986 33.9785 116.141 33.9785C116.628 33.9785 117.059 33.5565 117.435 32.7127L117.767 31.9132L112.059 19.0554C111.971 18.9 111.926 18.689 111.926 18.4225C111.926 18.0228 112.07 17.6786 112.358 17.3899C112.645 17.079 112.999 16.9236 113.42 16.9236H116.108C116.749 16.9236 117.203 17.2456 117.468 17.8896Z" fill="#2BE6FF"/>
<path d="M37.1936 30.5083V18.0502C37.1936 17.6949 37.0719 17.3951 36.8286 17.1508C36.5852 16.9066 36.2865 16.7844 35.9326 16.7844H33.4769C33.1229 16.7844 32.8242 16.9066 32.5809 17.1508C32.3375 17.3951 32.2158 17.6949 32.2158 18.0502V30.5083C32.2158 30.8636 32.3375 31.1634 32.5809 31.4077C32.8242 31.6519 33.1229 31.7741 33.4769 31.7741H35.9326C36.2865 31.7741 36.5852 31.6519 36.8286 31.4077C37.0719 31.1634 37.1936 30.8636 37.1936 30.5083Z" fill="#2BE6FF"/>
<path d="M40.602 33.3674C41.7623 34.0475 42.164 35.5474 41.3688 36.632C38.8096 40.123 35.3083 42.8313 31.2561 44.4214C26.4476 46.3082 21.1451 46.5097 16.2082 44.9931C11.2713 43.4766 6.98935 40.3309 4.05638 36.0659C1.12341 31.801 -0.288652 26.6668 0.0490765 21.4955C0.386805 16.3242 2.45453 11.4189 5.91709 7.57482C9.37965 3.73071 14.0341 1.17304 19.126 0.3164C24.2179 -0.540244 29.4488 0.354342 33.9708 2.85516C37.7816 4.96269 40.9008 8.10686 42.9841 11.9035C43.6311 13.0826 43.037 14.5173 41.7976 15.0398C40.5536 15.5642 39.1338 14.9675 38.45 13.8035C36.8157 11.0217 34.4612 8.71555 31.6173 7.14282C28.0578 5.17428 23.9403 4.4701 19.9321 5.14441C15.924 5.81873 12.2602 7.83202 9.53465 10.8579C6.80907 13.8839 5.18144 17.7451 4.9156 21.8157C4.64975 25.8863 5.76127 29.9278 8.06998 33.285C10.3787 36.6422 13.7493 39.1183 17.6354 40.3121C21.5215 41.5059 25.6954 41.3473 29.4805 39.862C32.5035 38.6758 35.1369 36.699 37.1188 34.1564C37.9495 33.0908 39.4363 32.6842 40.602 33.3674Z" fill="#2BE6FF"/>
<path d="M31.3988 10.2629L30.6024 11.995C30.359 12.5058 30.005 12.7612 29.5405 12.7612C29.3635 12.7612 29.2418 12.75 29.1754 12.7278C28.7993 12.639 28.5006 12.5946 28.2794 12.5946C27.5272 12.5946 27.0405 13.2386 26.8193 14.5266L26.4542 16.6585H28.1467C28.5006 16.6585 28.7993 16.7806 29.0427 17.0249C29.286 17.2692 29.4077 17.5689 29.4077 17.9243V20.0561C29.4077 20.4114 29.286 20.7112 29.0427 20.9555C28.7993 21.1998 28.5006 21.3219 28.1467 21.3219H25.6578L23.6999 32.7474C23.3016 34.8348 22.7264 36.3227 21.9742 37.2109C21.2442 38.1214 20.1159 38.5767 18.5893 38.5767C17.1734 38.5767 15.8903 38.2769 14.7399 37.6773C14.2753 37.433 14.043 37.0666 14.043 36.578C14.043 36.4448 14.0983 36.2338 14.2089 35.9452L14.939 34.3796C15.1602 33.9132 15.4921 33.68 15.9345 33.68C16.023 33.68 16.2443 33.7134 16.5982 33.78C16.9743 33.8688 17.2287 33.9132 17.3615 33.9132C17.6933 33.9132 17.9809 33.7578 18.2243 33.4469C18.4677 33.136 18.6336 32.7474 18.7221 32.281L20.6136 21.3219H18.7221C18.3681 21.3219 18.0694 21.1998 17.8261 20.9555C17.5827 20.7112 17.461 20.4114 17.461 20.0561V17.9243C17.461 17.5689 17.5827 17.2692 17.8261 17.0249C18.0694 16.7806 18.3681 16.6585 18.7221 16.6585H21.4101L21.8415 14.2268C22.2618 11.9839 22.8924 10.3739 23.733 9.39681C24.5737 8.4197 25.7905 7.93115 27.3834 7.93115C28.5117 7.93115 29.64 8.15322 30.7683 8.59736C31.2771 8.84163 31.5316 9.19694 31.5316 9.66329C31.5316 9.90756 31.4873 10.1074 31.3988 10.2629Z" fill="#2BE6FF"/>
<path d="M13.4252 32.4538C12.6877 33.1941 11.4781 33.2003 10.839 32.3736C9.53177 30.6827 8.59237 28.7266 8.09127 26.6315C7.44253 23.9191 7.55368 21.0795 8.41243 18.4266C9.27117 15.7737 10.8441 13.4108 12.9572 11.5993C14.5889 10.2004 16.4936 9.17232 18.5405 8.57557C19.5437 8.28311 20.5182 8.99894 20.6811 10.0311C20.8437 11.0616 20.1326 12.014 19.144 12.3473C17.7786 12.8078 16.5078 13.528 15.4037 14.4746C13.8189 15.8333 12.6392 17.6054 11.9952 19.5951C11.3511 21.5848 11.2677 23.7145 11.7543 25.7488C12.0942 27.1699 12.703 28.5058 13.5415 29.6863C14.1435 30.5337 14.1589 31.7174 13.4252 32.4538Z" fill="#2BE6FF"/>
</svg>
