<svg width="306" height="164" viewBox="0 0 306 164" fill="none" xmlns="http://www.w3.org/2000/svg">
<path d="M68.0139 35.9287C69.7275 35.9287 71.1963 36.3882 72.2979 37.3489C73.4403 38.2678 74.1747 39.5627 74.5011 41.1499H71.0331C70.7883 40.5234 70.3803 39.9804 69.8499 39.6462C69.3195 39.2703 68.6667 39.1032 67.9731 39.1032C66.9939 39.1032 66.2187 39.4791 65.6475 40.1892C65.0763 40.8993 64.7499 41.86 64.7499 43.0713C64.7499 44.2826 65.0355 45.2433 65.6475 45.9534C66.2187 46.6635 67.0347 47.0394 67.9731 47.0394C68.7075 47.0394 69.3195 46.8723 69.8499 46.4964C70.3803 46.1205 70.7883 45.6193 71.0331 44.9927H74.5011C74.1747 46.58 73.4403 47.833 72.2979 48.752C71.1555 49.6709 69.7275 50.1721 68.0139 50.1721C66.7083 50.1721 65.5251 49.8798 64.5459 49.295C63.5258 48.7102 62.7914 47.8748 62.2202 46.7888C61.6898 45.7028 61.4042 44.4915 61.4042 43.1131C61.4042 41.7347 61.6898 40.5234 62.2202 39.4374C62.7506 38.3513 63.5258 37.516 64.5459 36.9312C65.5251 36.2211 66.6675 35.9287 68.0139 35.9287ZM52.6322 35.9287C54.3458 35.9287 55.733 36.3464 56.8346 37.2236C57.9362 38.059 58.6298 39.2285 58.8746 40.6904H55.4066C55.1618 40.1892 54.8354 39.8133 54.3458 39.4791C53.8562 39.1867 53.285 39.0197 52.6322 39.0197C51.6122 39.0197 50.7554 39.3956 50.1434 40.1057C49.5314 40.8158 49.2049 41.7765 49.2049 43.0295C49.2049 44.3662 49.5314 45.3686 50.1842 46.0787C50.837 46.7888 51.7754 47.123 52.9994 47.123C53.7746 47.123 54.4682 46.9141 55.0394 46.4546C55.6106 45.9952 56.0594 45.3686 56.3042 44.575H52.1426V42.1524H59.0378V45.4939C58.793 46.3293 58.385 47.0812 57.8138 47.7495C57.2426 48.4596 56.5082 49.0026 55.6514 49.4621C54.7538 49.8798 53.7746 50.1304 52.6322 50.1304C51.245 50.1304 50.0618 49.838 49.0417 49.2532C48.0217 48.6684 47.2057 47.833 46.6753 46.747C46.1041 45.661 45.8185 44.4497 45.8185 43.0713C45.8185 41.6929 46.1041 40.4816 46.6753 39.3956C47.2465 38.3096 48.0217 37.4742 49.0417 36.8894C50.1026 36.2211 51.2858 35.9287 52.6322 35.9287ZM43.1665 50.0051H39.8617L34.3536 41.4423V50.0051H31.0488V36.054H34.3536L39.8617 44.7003V36.054H43.1665V50.0051Z" fill="#9D60FF"/>
<path d="M154.756 39.0201C155.939 39.0201 156.918 39.3542 157.653 39.9808C158.387 40.6073 158.836 41.4845 158.958 42.5705H157.285C157.204 41.9439 156.959 41.4009 156.51 40.9832C156.061 40.5655 155.49 40.3567 154.715 40.3567C154.103 40.3567 153.613 40.5238 153.246 40.8162C152.879 41.1085 152.716 41.5262 152.716 42.0692C152.716 42.4452 152.838 42.7793 153.083 43.0299C153.328 43.2806 153.613 43.4476 153.981 43.573C154.348 43.6983 154.837 43.8236 155.449 43.9906C156.225 44.1577 156.877 44.3666 157.326 44.5337C157.816 44.7425 158.224 45.0349 158.55 45.4526C158.877 45.8703 159.081 46.4551 159.081 47.1651C159.081 48.0423 158.754 48.7524 158.101 49.2954C157.449 49.8384 156.592 50.1308 155.531 50.1308C154.266 50.1308 153.246 49.8384 152.43 49.2118C151.614 48.5853 151.165 47.7499 151.043 46.6221H152.757C152.838 47.2904 153.083 47.7917 153.613 48.2094C154.103 48.6271 154.756 48.8359 155.572 48.8359C156.184 48.8359 156.633 48.6688 157 48.3765C157.326 48.0423 157.53 47.6664 157.53 47.1234C157.53 46.7057 157.408 46.3715 157.163 46.1209C156.918 45.8703 156.633 45.6614 156.265 45.5361C155.898 45.4108 155.409 45.2855 154.797 45.1184C154.021 44.9513 153.369 44.7425 152.92 44.5754C152.471 44.4083 152.063 44.116 151.737 43.6983C151.41 43.2806 151.247 42.7376 151.247 42.0692C151.247 41.1503 151.573 40.4402 152.226 39.8555C152.716 39.3125 153.613 39.0201 154.756 39.0201ZM147.738 44.116C147.779 43.3223 147.657 42.654 147.371 42.111C147.085 41.568 146.677 41.1921 146.147 40.8997C145.617 40.6073 145.086 40.5238 144.474 40.5238C143.495 40.5238 142.72 40.8162 142.067 41.4427C141.414 42.0692 141.047 42.9464 141.006 44.116H147.738ZM149.533 43.9906C149.533 44.3666 149.493 44.7007 149.452 44.9931H141.006C141.047 46.2462 141.373 47.1651 142.026 47.7917C142.679 48.4182 143.454 48.7106 144.393 48.7106C145.249 48.7106 145.943 48.5018 146.514 48.0423C147.085 47.5828 147.453 46.9981 147.575 46.288H149.452C149.329 47.0398 149.044 47.7081 148.595 48.2929C148.146 48.8777 147.575 49.3372 146.881 49.6713C146.188 50.0055 145.372 50.1725 144.474 50.1725C143.454 50.1725 142.557 49.9637 141.781 49.5042C141.006 49.0448 140.394 48.4182 139.945 47.5828C139.497 46.7474 139.293 45.7867 139.293 44.6172C139.293 43.4894 139.497 42.4869 139.945 41.6515C140.394 40.8162 141.006 40.1478 141.781 39.7301C142.557 39.2707 143.454 39.0618 144.474 39.0618C145.494 39.0618 146.392 39.2707 147.167 39.7301C147.942 40.1896 148.513 40.7744 148.921 41.5262C149.329 42.2363 149.533 43.0717 149.533 43.9906ZM134.519 41.3592C134.845 40.6073 135.376 40.0225 136.029 39.6048C136.681 39.1871 137.497 38.9783 138.436 38.9783V40.9415H137.905C136.926 40.9415 136.11 41.1921 135.498 41.7351C134.886 42.2363 134.56 43.1135 134.56 44.3248V50.0055H132.805V39.1871H134.56V41.3592H134.519ZM130.316 39.1871V50.0055H128.562V47.4575C128.276 48.3347 127.828 49.003 127.134 49.4625C126.44 49.9219 125.665 50.1725 124.727 50.1725C123.503 50.1725 122.524 49.7549 121.748 48.9612C120.973 48.1676 120.606 46.9981 120.606 45.4944V39.1871H122.36V45.3273C122.36 46.4133 122.646 47.2487 123.176 47.8335C123.707 48.4182 124.441 48.7106 125.38 48.7106C126.359 48.7106 127.093 48.3765 127.705 47.7499C128.276 47.1234 128.562 46.1627 128.562 44.9513V39.1871H130.316ZM119.137 48.4182V50.0055H117.832C116.771 50.0055 115.955 49.7549 115.424 49.2118C114.894 48.6688 114.608 47.7917 114.608 46.5804V40.7326H113.017V39.1871H114.608V36.4721H116.363V39.1871H119.096V40.7326H116.363V46.6221C116.363 47.3322 116.485 47.7917 116.73 48.0423C116.975 48.2929 117.424 48.4182 118.036 48.4182H119.137ZM107.632 38.9783C108.856 38.9783 109.876 39.396 110.61 40.1896C111.385 40.9832 111.752 42.1528 111.752 43.6983V50.0055H109.998V43.8653C109.998 42.7793 109.712 41.9439 109.182 41.4009C108.652 40.8162 107.917 40.5238 106.979 40.5238C106 40.5238 105.265 40.8579 104.653 41.4845C104.082 42.111 103.796 43.0717 103.796 44.283V50.0055H102.042V39.1871H103.796V41.7351C104.082 40.8579 104.531 40.1896 105.224 39.6884C105.959 39.2289 106.734 38.9783 107.632 38.9783ZM98.3699 44.116C98.4107 43.3223 98.2883 42.654 98.0027 42.111C97.7171 41.568 97.3091 41.1921 96.7787 40.8997C96.2483 40.6073 95.7179 40.5238 95.1059 40.5238C94.1267 40.5238 93.3515 40.8162 92.6987 41.4427C92.0459 42.0692 91.6787 42.9464 91.6379 44.116H98.3699ZM100.165 43.9906C100.165 44.3666 100.124 44.7007 100.084 44.9931H91.6379C91.6787 46.2462 92.0051 47.1651 92.6579 47.7917C93.3107 48.4182 94.0859 48.7106 95.0243 48.7106C95.8811 48.7106 96.5747 48.5018 97.1459 48.0423C97.7171 47.5828 98.0843 46.9981 98.2067 46.288H100.084C99.9611 47.0398 99.6755 47.7081 99.2267 48.2929C98.7779 48.8777 98.2067 49.3372 97.5131 49.6713C96.8195 50.0055 96.0035 50.1725 95.1059 50.1725C94.0859 50.1725 93.1883 49.9637 92.4131 49.5042C91.6379 49.0448 91.0259 48.4182 90.5771 47.5828C90.1282 46.7474 89.9242 45.7867 89.9242 44.6172C89.9242 43.4894 90.1282 42.4869 90.5771 41.6515C91.0259 40.8162 91.6379 40.1478 92.4131 39.7301C93.1883 39.2707 94.0859 39.0618 95.1059 39.0618C96.1259 39.0618 97.0235 39.2707 97.7987 39.7301C98.5739 40.1896 99.1451 40.7744 99.5531 41.5262C99.9611 42.2363 100.165 43.0717 100.165 43.9906ZM78.7858 36.0962L82.9066 48.0005L87.109 36.0962H89.0266L84.049 50.0055H81.8458L76.8682 36.0962H78.7858V36.0962Z" fill="#9D60FF"/>
<path fill-rule="evenodd" clip-rule="evenodd" d="M3.38672 33.6733L8.64995 36.9314V51.3836L3.38672 48.1674V33.6733Z" fill="#9D60FF"/>
<path d="M3.38672 33.6733L8.64995 36.9314V51.3836L3.38672 48.1674V33.6733Z" stroke="#9D60FF" stroke-width="0.5669" stroke-miterlimit="22.9256"/>
<path fill-rule="evenodd" clip-rule="evenodd" d="M11.4248 33.6733L16.688 36.9314V51.3836L11.4248 48.1674V33.6733Z" fill="#9D60FF"/>
<path d="M11.4248 33.6733L16.688 36.9314V51.3836L11.4248 48.1674V33.6733Z" stroke="#9D60FF" stroke-width="0.5669" stroke-miterlimit="22.9256"/>
<path fill-rule="evenodd" clip-rule="evenodd" d="M19.4209 33.6733L24.6841 36.9314V51.3836L19.4209 48.1674V33.6733Z" fill="#9D60FF"/>
<path d="M19.4209 33.6733L24.6841 36.9314V51.3836L19.4209 48.1674V33.6733Z" stroke="#9D60FF" stroke-width="0.5669" stroke-miterlimit="22.9256"/>
<path d="M66.6882 127.512H64.9245V114.584H66.6882V127.512ZM73.1551 127.512V116.147H69.3533V114.584H78.5245V116.147H74.8796V127.512H73.1551ZM84.09 118.451L81.7384 124.31H84.09H86.4416L84.09 118.451ZM78.5245 127.512L84.09 114.584L89.6554 127.512H87.6957L86.9903 125.833H84.09H81.1897L80.4842 127.512H78.5245ZM94.2802 119.232L94.241 127.512H92.3205V114.858L100.355 123.333V114.858H102.276V127.512L94.2802 119.232ZM108.978 127.981C106.94 127.981 105.607 126.926 104.706 125.13L106.195 124.466C106.744 125.559 107.723 126.458 108.978 126.458C110.349 126.458 111.721 125.677 111.721 124.153C111.721 123.802 111.643 123.489 111.447 123.216C111.251 122.943 110.976 122.708 110.624 122.435C109.605 121.771 108.586 121.38 107.567 120.833C107.136 120.599 106.822 120.365 106.587 120.13C106.234 119.818 105.96 119.467 105.764 119.037C105.568 118.646 105.489 118.217 105.489 117.787C105.489 117.357 105.607 116.928 105.803 116.498C105.999 116.069 106.313 115.717 106.704 115.405C107.057 115.131 107.488 114.897 107.998 114.741C108.507 114.584 108.978 114.506 109.526 114.506C110.663 114.506 112.074 115.17 112.701 116.303L111.408 117.201C110.898 116.381 110.114 116.03 109.487 116.03C109.056 116.03 108.664 116.108 108.311 116.264C107.998 116.42 107.723 116.654 107.527 116.928C107.332 117.201 107.253 117.475 107.253 117.787C107.253 118.256 107.41 118.607 107.723 118.92C108.037 119.232 108.586 119.545 109.33 119.896C109.957 120.209 110.585 120.521 111.212 120.873C111.721 121.146 112.113 121.458 112.427 121.732C113.171 122.396 113.524 123.216 113.524 124.153C113.485 126.614 111.212 127.981 108.978 127.981ZM56.8115 127.512V116.147H53.0098V114.584H62.181V116.147H58.536V127.512H56.8115Z" fill="#9D60FF"/>
<path d="M110.467 140.752C110.31 140.752 110.193 140.752 110.075 140.713H110.036H109.997L109.84 140.674C109.683 140.635 109.487 140.596 109.291 140.518C108.782 140.361 108.351 140.088 107.998 139.697C107.959 139.658 107.959 139.619 107.959 139.58C107.959 139.541 107.998 139.502 108.037 139.463L108.155 139.385C108.194 139.385 108.233 139.346 108.272 139.346C108.311 139.346 108.39 139.385 108.429 139.424C108.703 139.737 109.056 139.971 109.487 140.127C109.644 140.166 109.801 140.205 109.957 140.244C109.997 140.244 109.997 140.244 110.036 140.244C110.075 140.244 110.075 140.244 110.114 140.244C110.153 140.244 110.153 140.244 110.153 140.244C110.271 140.244 110.389 140.244 110.506 140.244C110.78 140.244 111.094 140.205 111.408 140.127C111.721 140.049 111.995 139.932 112.231 139.737C112.701 139.424 112.936 138.994 113.015 138.448C113.015 138.409 113.015 138.37 113.015 138.291C113.015 137.979 112.936 137.706 112.779 137.471C112.623 137.237 112.387 137.042 112.074 136.807C111.76 136.612 111.329 136.378 110.741 136.104L110.585 136.026C110.545 136.026 110.467 135.987 110.349 135.909L110.271 135.87L110.036 135.753L109.683 135.597C109.448 135.44 109.213 135.323 109.017 135.167C108.546 134.776 108.311 134.269 108.311 133.722V133.683C108.311 133.136 108.507 132.745 108.86 132.433C109.213 132.121 109.605 131.925 110.075 131.808C110.349 131.73 110.663 131.691 110.937 131.691C111.016 131.691 111.094 131.691 111.212 131.691C111.564 131.73 111.878 131.808 112.191 131.925C112.505 132.042 112.779 132.238 113.015 132.433C113.054 132.472 113.054 132.511 113.054 132.55C113.054 132.589 113.015 132.628 112.975 132.667L112.858 132.745C112.819 132.784 112.779 132.784 112.74 132.784C112.701 132.784 112.623 132.784 112.583 132.745C112.387 132.589 112.191 132.472 111.917 132.355C111.643 132.238 111.368 132.199 111.094 132.16C111.055 132.16 110.976 132.16 110.859 132.16C110.585 132.16 110.31 132.199 110.036 132.277C109.761 132.355 109.526 132.472 109.33 132.628C108.938 132.902 108.742 133.292 108.742 133.761V133.8C108.742 134.23 108.938 134.62 109.37 134.933C109.526 135.05 109.722 135.206 109.957 135.323C109.997 135.323 110.075 135.401 110.271 135.479L110.545 135.597L110.663 135.675L110.781 135.714L110.937 135.792L111.172 135.909L111.447 136.026C111.604 136.104 111.76 136.182 111.917 136.261C112.27 136.456 112.544 136.651 112.74 136.846C113.21 137.276 113.446 137.784 113.446 138.37C113.446 138.409 113.446 138.487 113.446 138.604C113.406 139.034 113.25 139.424 112.975 139.737C112.701 140.049 112.348 140.322 111.917 140.518C111.486 140.635 111.016 140.752 110.467 140.752ZM100.904 131.925C100.904 131.808 100.982 131.769 101.1 131.769H105.999C106.117 131.769 106.195 131.808 106.195 131.925V132.042C106.195 132.16 106.117 132.199 105.999 132.199H101.453V136.69H105.372C105.489 136.69 105.568 136.729 105.568 136.846V136.964C105.568 137.081 105.489 137.12 105.372 137.12H101.453V140.244H105.999C106.117 140.244 106.195 140.283 106.195 140.401V140.518C106.195 140.635 106.117 140.674 105.999 140.674H101.1C100.982 140.674 100.904 140.635 100.904 140.518V131.925V131.925ZM95.1424 137.549C95.6911 137.549 96.2006 137.432 96.671 137.159C97.1413 136.924 97.494 136.612 97.7684 136.182C98.0427 135.792 98.1995 135.323 98.1995 134.854C98.1995 134.386 98.0427 133.917 97.7684 133.527C97.494 133.136 97.1021 132.784 96.6318 132.55C96.1614 132.316 95.6127 132.199 95.064 132.199H94.2802V137.549H95.1424V137.549ZM98.5914 140.44C98.6306 140.479 98.6306 140.518 98.6306 140.557C98.6306 140.596 98.6306 140.635 98.5914 140.635C98.5522 140.635 98.513 140.674 98.4738 140.674H98.3171C98.2779 140.674 98.2387 140.674 98.2387 140.674C98.1995 140.674 98.1995 140.635 98.1603 140.635L96.279 137.862C95.9263 137.94 95.5735 138.018 95.2208 138.018H94.3586V140.557C94.3586 140.596 94.3586 140.635 94.3194 140.674C94.2802 140.713 94.241 140.713 94.2018 140.713H94.045C94.0058 140.713 93.9666 140.713 93.9274 140.674C93.8882 140.635 93.8882 140.596 93.8882 140.557V131.964C93.8882 131.925 93.8882 131.886 93.9274 131.847C93.9666 131.808 94.0058 131.808 94.045 131.808H95.1424C95.8087 131.808 96.3966 131.964 96.9845 132.238C97.5332 132.511 97.9643 132.902 98.3171 133.37C98.6306 133.839 98.7874 134.347 98.7874 134.933C98.7874 135.323 98.709 135.714 98.5522 136.065C98.3955 136.417 98.1603 136.768 97.8468 137.042C97.5332 137.315 97.1805 137.549 96.7885 137.745L98.5914 140.44ZM88.2052 140.674C87.6565 140.674 87.147 140.557 86.6767 140.322C86.2064 140.088 85.8536 139.776 85.5793 139.385C85.3049 138.994 85.1874 138.565 85.1874 138.096V131.925C85.1874 131.886 85.1874 131.847 85.2266 131.808C85.2657 131.769 85.3049 131.769 85.3441 131.769H85.5009C85.5401 131.769 85.5793 131.769 85.6185 131.808C85.6577 131.847 85.6577 131.886 85.6577 131.925V138.096C85.6577 138.487 85.7753 138.838 86.0104 139.19C86.2456 139.502 86.5591 139.776 86.9119 139.971C87.3038 140.166 87.7349 140.244 88.166 140.244C88.6364 140.244 89.0283 140.166 89.4202 139.971C89.8122 139.776 90.1257 139.502 90.3217 139.19C90.5568 138.877 90.6744 138.487 90.6744 138.096V131.925C90.6744 131.886 90.6744 131.847 90.7136 131.808C90.7528 131.769 90.792 131.769 90.8312 131.769H90.988C91.0271 131.769 91.0663 131.769 91.1055 131.808C91.1447 131.847 91.1447 131.886 91.1447 131.925V138.096C91.1447 138.565 91.0271 138.994 90.7528 139.385C90.4784 139.776 90.1257 140.088 89.6554 140.322C89.2634 140.557 88.7539 140.674 88.2052 140.674ZM77.5839 131.925C77.5839 131.886 77.5839 131.847 77.6231 131.808C77.6623 131.769 77.7015 131.769 77.7407 131.769H82.9142C82.9533 131.769 83.0317 131.769 83.0317 131.808C83.0709 131.847 83.0709 131.886 83.0709 131.925V132.042C83.0709 132.081 83.0709 132.121 83.0317 132.16C82.9925 132.199 82.9533 132.199 82.9142 132.199H80.6018V140.518C80.6018 140.557 80.6018 140.596 80.5626 140.635C80.5234 140.674 80.4842 140.674 80.445 140.674H80.2882C80.249 140.674 80.2098 140.674 80.1706 140.635C80.1314 140.596 80.1314 140.557 80.1314 140.518V132.199H77.7407C77.7015 132.199 77.6623 132.199 77.6231 132.16C77.5839 132.121 77.5839 132.081 77.5839 132.042V131.925V131.925ZM75.0363 131.925C75.0363 131.886 75.0363 131.847 75.0755 131.808C75.1147 131.769 75.1539 131.769 75.1931 131.769H75.3499C75.3891 131.769 75.4283 131.769 75.4675 131.808C75.5066 131.847 75.5066 131.886 75.5066 131.925V140.479C75.5066 140.518 75.4675 140.596 75.4283 140.596C75.3891 140.635 75.3499 140.635 75.2715 140.635C75.2323 140.635 75.1931 140.635 75.1539 140.596C75.1147 140.596 75.0755 140.557 75.0755 140.518L69.902 132.902V140.518C69.902 140.557 69.902 140.596 69.8628 140.635C69.8236 140.674 69.7844 140.674 69.7452 140.674H69.5885C69.5493 140.674 69.5101 140.674 69.4709 140.635C69.4317 140.596 69.4317 140.557 69.4317 140.518V132.003C69.4317 131.964 69.4709 131.886 69.5101 131.886C69.5493 131.847 69.5885 131.847 69.6669 131.847C69.7452 131.847 69.8236 131.886 69.8628 131.964L75.0363 139.541V131.925ZM61.9066 131.925C61.9066 131.808 61.985 131.769 62.1026 131.769H67.0017C67.1193 131.769 67.1977 131.808 67.1977 131.925V132.042C67.1977 132.16 67.1193 132.199 67.0017 132.199H62.4553V136.69H66.3746C66.4922 136.69 66.5706 136.729 66.5706 136.846V136.964C66.5706 137.081 66.4922 137.12 66.3746 137.12H62.4553V140.244H67.0017C67.1193 140.244 67.1977 140.283 67.1977 140.401V140.518C67.1977 140.635 67.1193 140.674 67.0017 140.674H62.1026C61.985 140.674 61.9066 140.635 61.9066 140.518V131.925ZM53.0098 132.003C53.0098 131.964 53.0098 131.964 53.0098 131.925C53.0098 131.886 53.049 131.847 53.049 131.808C53.0882 131.769 53.1273 131.769 53.2057 131.769H53.3625C53.4017 131.769 53.4409 131.769 53.4801 131.808C53.5193 131.808 53.5193 131.847 53.5585 131.886L56.4588 139.385L59.3591 131.886C59.3591 131.847 59.3983 131.847 59.4374 131.808C59.4766 131.808 59.5158 131.769 59.555 131.769H59.6726C59.751 131.769 59.7902 131.769 59.8294 131.808C59.8686 131.847 59.8686 131.886 59.8686 131.925C59.8686 131.964 59.8686 131.964 59.8686 131.964L56.6939 140.518C56.6939 140.557 56.6547 140.596 56.6155 140.596C56.5763 140.635 56.5372 140.635 56.498 140.635C56.4588 140.635 56.4196 140.635 56.3804 140.596C56.3412 140.557 56.3412 140.557 56.302 140.518L53.0098 132.003Z" fill="#9D60FF"/>
<path d="M7.58449 114.467L26.2013 142.158L44.3085 115.248H37.6457L26.1229 132.355L14.0906 114.467H26.5148V123.137L25.7309 121.966V115.248H15.5407L26.1229 130.949L37.2145 114.467H45.7587C39.2526 124.153 32.7073 133.839 26.2013 143.564L6.64386 114.467H7.58449ZM48.8157 109.936H3.5476L3.03809 109.155H49.3252L48.8157 109.936Z" fill="#9D60FF"/>
<path d="M286.578 68.3067H287.5V72.448H290.072V73.2275H286.578V68.3067V68.3067ZM283.472 71.3761L282.55 69.2324L281.628 71.3761H283.472ZM283.763 72.1069H281.289L280.803 73.2275H279.881L282.065 68.3067H282.938L285.171 73.2275H284.2L283.763 72.1069ZM276.873 69.0862H275.271V68.3067H279.445V69.0862H277.843V73.2275H276.921V69.0862H276.873ZM272.894 68.3067H273.816V73.2275H272.894V68.3067ZM269.109 71.0351C269.497 71.0351 269.788 70.9376 270.031 70.7915C270.273 70.6453 270.322 70.4017 270.322 70.0607C270.322 69.7683 270.225 69.5247 270.031 69.3298C269.836 69.135 269.545 69.0862 269.109 69.0862H268.041V71.0351H269.109ZM269.157 68.3067C269.594 68.3067 269.934 68.3554 270.273 68.5016C270.564 68.6477 270.807 68.8426 271.001 69.0862C271.147 69.3298 271.244 69.6709 271.244 70.0119C271.244 70.353 271.147 70.694 271.001 70.9376C270.856 71.1812 270.613 71.4248 270.273 71.5223C269.982 71.6684 269.594 71.7172 269.157 71.7172H268.041V73.1301H267.119V68.2093H269.157V68.3067ZM264.013 71.3761L263.091 69.2324L262.169 71.3761H264.013ZM264.305 72.1069H261.83L261.344 73.2275H260.422L262.606 68.3067H263.48L265.712 73.2275H264.741L264.305 72.1069ZM257.657 73.2762C257.171 73.2762 256.735 73.1788 256.298 72.9352C255.91 72.7403 255.57 72.3993 255.376 72.0095C255.133 71.6197 255.036 71.1812 255.036 70.694C255.036 70.2068 255.133 69.7683 255.376 69.3786C255.618 68.9888 255.91 68.6965 256.298 68.4529C256.686 68.258 257.123 68.1118 257.657 68.1118C258.045 68.1118 258.433 68.1605 258.773 68.3067C259.112 68.4529 259.403 68.6477 259.598 68.9401L259.015 69.476C258.676 69.0862 258.239 68.8913 257.705 68.8913C257.365 68.8913 257.074 68.9888 256.783 69.135C256.54 69.2811 256.298 69.476 256.152 69.7683C256.007 70.0119 255.91 70.3043 255.91 70.6453C255.91 70.9864 256.007 71.2787 256.152 71.5223C256.298 71.7659 256.492 72.0095 256.783 72.1557C257.026 72.3018 257.365 72.3993 257.705 72.3993C258.239 72.3993 258.676 72.2044 259.015 71.8146L259.598 72.3993C259.355 72.6429 259.064 72.8865 258.773 73.0326C258.433 73.2275 258.093 73.2762 257.657 73.2762ZM250.523 73.2275V69.9632L248.922 72.6429H248.534L246.932 69.9632V73.1788H246.059V68.258H246.787L248.728 71.5223L250.62 68.258H251.348V73.1788H250.523V73.2275ZM242.371 72.448V73.2275H238.683V68.3067H242.274V69.0862H239.605V70.353H241.983V71.0838H239.605V72.448H242.371ZM236.936 72.448V73.2275H233.248V68.3067H236.839V69.0862H234.17V70.353H236.548V71.0838H234.17V72.448H236.936ZM230.579 70.0607C230.579 69.7683 230.482 69.5247 230.288 69.3298C230.094 69.1837 229.803 69.0862 229.366 69.0862H228.298V71.0351H229.366C229.754 71.0351 230.045 70.9376 230.288 70.7915C230.434 70.5966 230.579 70.353 230.579 70.0607ZM230.579 73.2275L229.56 71.7659C229.512 71.7659 229.463 71.7659 229.366 71.7659H228.25V73.1788H227.328V68.258H229.366C229.803 68.258 230.142 68.3067 230.482 68.4529C230.773 68.599 231.016 68.7939 231.21 69.0375C231.356 69.2811 231.453 69.6222 231.453 69.9632C231.453 70.353 231.356 70.6453 231.161 70.9376C230.967 71.1812 230.725 71.4248 230.385 71.5223L231.501 73.1301H230.579V73.2275ZM225.29 68.3067V73.2275H224.368V71.1325H221.845V73.2275H220.923V68.3067H221.845V70.353H224.368V68.3067H225.29V68.3067ZM216.992 69.0862H215.391V68.3067H219.564V69.0862H217.962V73.2275H217.041V69.0862H216.992Z" fill="#9D60FF"/>
<path fill-rule="evenodd" clip-rule="evenodd" d="M252.61 7.64941C239.071 7.64941 228.104 18.6604 228.104 32.2535C228.104 45.8467 239.071 56.8576 252.61 56.8576C266.149 56.8576 277.164 45.8467 277.164 32.2535C277.164 18.6604 266.197 7.64941 252.61 7.64941ZM252.61 9.50081C240.09 9.50081 229.9 19.7322 229.9 32.3022C229.9 44.8723 240.09 55.1037 252.61 55.1037C265.13 55.1037 275.32 44.8723 275.32 32.3022C275.32 19.7322 265.178 9.50081 252.61 9.50081ZM251.639 20.9015H254.648C254.988 20.9015 255.279 21.1939 255.279 21.5349V43.0209C255.279 43.3619 254.988 43.6542 254.648 43.6542H251.639C251.3 43.6542 251.009 43.3619 251.009 43.0209V21.5349C250.96 21.1939 251.251 20.9015 251.639 20.9015ZM261.296 17.15H264.305C264.644 17.15 264.936 17.4423 264.936 17.7834V46.5775C264.936 46.9185 264.644 47.2109 264.305 47.2109H261.296C260.956 47.2109 260.665 46.9185 260.665 46.5775V17.7834C260.665 17.4423 260.956 17.15 261.296 17.15ZM240.721 17.15H243.73C244.069 17.15 244.361 17.4423 244.361 17.7834V46.5775C244.361 46.9185 244.069 47.2109 243.73 47.2109H240.721C240.381 47.2109 240.09 46.9185 240.09 46.5775V17.7834C240.09 17.4423 240.381 17.15 240.721 17.15Z" fill="#9D60FF"/>
<path d="M245.523 142.119H243.4V141.581H248.312V142.119H246.189V147.582H245.565L245.523 142.119ZM252.684 145.554C253.142 145.388 253.475 145.182 253.725 144.85C253.975 144.519 254.058 144.147 254.058 143.65C254.058 142.988 253.85 142.491 253.392 142.119C252.934 141.746 252.351 141.581 251.56 141.581H249.312V147.623H249.936V142.16H251.56C252.184 142.16 252.601 142.284 252.934 142.574C253.267 142.823 253.392 143.195 253.392 143.692C253.392 144.147 253.225 144.519 252.934 144.809C252.684 145.016 252.309 145.182 251.893 145.182H251.726L252.06 145.678L253.475 147.665H254.183L252.684 145.554ZM262.26 134.959C262.01 134.504 261.594 134.131 261.094 133.883C260.595 133.635 260.053 133.511 259.387 133.511H256.931V134.049H257.555H259.346C259.887 134.049 260.345 134.173 260.761 134.38C261.177 134.587 261.469 134.876 261.677 135.249C261.885 135.621 262.01 136.035 262.01 136.532C262.01 136.987 261.885 137.442 261.677 137.815C261.469 138.187 261.136 138.477 260.761 138.684C260.345 138.891 259.887 139.015 259.346 139.015H257.555H256.931V139.553H259.387C260.012 139.553 260.595 139.429 261.094 139.18C261.594 138.932 261.969 138.56 262.26 138.104C262.51 137.649 262.676 137.153 262.676 136.532C262.676 135.952 262.551 135.414 262.26 134.959ZM264.092 133.511H264.716V139.553H264.092V133.511ZM271.003 136.532H271.628V138.849C271.336 139.098 271.003 139.305 270.628 139.429C270.254 139.553 269.837 139.636 269.421 139.636C268.797 139.636 268.255 139.512 267.756 139.222C267.298 138.974 266.881 138.601 266.59 138.104C266.34 137.649 266.174 137.111 266.174 136.532C266.174 135.952 266.298 135.414 266.59 134.959C266.84 134.504 267.256 134.131 267.756 133.842C268.214 133.593 268.797 133.428 269.421 133.428C269.879 133.428 270.295 133.511 270.712 133.676C271.086 133.842 271.42 134.049 271.669 134.338L271.253 134.752C270.795 134.297 270.17 134.049 269.421 134.049C268.921 134.049 268.463 134.173 268.089 134.38C267.672 134.587 267.381 134.876 267.131 135.29C266.881 135.663 266.798 136.076 266.798 136.573C266.798 137.028 266.923 137.484 267.131 137.856C267.381 138.229 267.672 138.56 268.047 138.767C268.463 138.974 268.88 139.098 269.379 139.098C270.004 139.098 270.545 138.932 270.962 138.642L271.003 136.532ZM273.418 133.511H274.042V139.553H273.418V133.511ZM277.207 134.049H275.083V133.511H279.996V134.049H277.873V139.512H277.248L277.207 134.049ZM283.16 133.511H282.494L279.705 139.553H280.371L282.786 134.173L285.201 139.553H285.908L283.16 133.511ZM286.908 133.511H287.574V138.974H290.946V139.512H286.908V133.511ZM258.013 141.581H257.389L254.599 147.623H255.265L257.68 142.243L260.095 147.623H260.761L258.013 141.581ZM262.635 142.119H260.511V141.581H265.424V142.119H263.301V147.582H262.676L262.635 142.119ZM266.423 141.581H270.587V142.119H266.423V141.581ZM266.423 144.271H270.212V144.809H266.423V144.271ZM266.423 147.044H270.712V147.582H266.423V147.044ZM276.499 144.602H277.123V146.92C276.832 147.168 276.499 147.375 276.124 147.499C275.75 147.623 275.333 147.706 274.917 147.706C274.292 147.706 273.751 147.582 273.251 147.292C272.793 147.044 272.377 146.671 272.086 146.175C271.836 145.72 271.669 145.182 271.669 144.602C271.669 144.023 271.794 143.485 272.086 143.029C272.335 142.574 272.752 142.202 273.251 141.912C273.709 141.664 274.292 141.498 274.917 141.498C275.375 141.498 275.791 141.581 276.207 141.746C276.582 141.912 276.915 142.119 277.165 142.409L276.749 142.823C276.291 142.367 275.666 142.119 274.917 142.119C274.417 142.119 273.959 142.243 273.585 142.45C273.168 142.657 272.877 142.947 272.627 143.361C272.377 143.733 272.294 144.147 272.294 144.644C272.294 145.099 272.419 145.554 272.627 145.927C272.877 146.299 273.168 146.63 273.543 146.837C273.959 147.044 274.376 147.168 274.875 147.168C275.5 147.168 276.041 147.003 276.457 146.713L276.499 144.602ZM278.914 141.581H279.538V147.623H278.914V141.581ZM285.658 142.119V141.581H281.495V142.119H285.658ZM281.495 144.809V144.271H285.284V144.809H282.161H281.495ZM281.495 147.044V147.582H285.783V147.044H281.495ZM287.657 147.416C287.241 147.251 286.949 147.085 286.699 146.837L286.949 146.34C287.157 146.547 287.449 146.754 287.823 146.878C288.198 147.003 288.573 147.085 288.948 147.085C289.489 147.085 289.905 147.003 290.155 146.796C290.405 146.589 290.571 146.34 290.571 146.009C290.571 145.761 290.488 145.554 290.322 145.43C290.155 145.264 289.988 145.182 289.78 145.099C289.572 145.016 289.281 144.933 288.864 144.85C288.406 144.726 288.032 144.602 287.782 144.519C287.532 144.395 287.282 144.271 287.074 144.023C286.866 143.816 286.783 143.526 286.783 143.112C286.783 142.823 286.866 142.533 287.032 142.284C287.199 142.036 287.449 141.829 287.782 141.705C288.115 141.54 288.531 141.457 289.031 141.457C289.364 141.457 289.739 141.498 290.03 141.581C290.363 141.664 290.655 141.829 290.904 141.995L290.696 142.491C290.446 142.326 290.197 142.202 289.864 142.119C289.572 142.036 289.281 141.995 289.031 141.995C288.49 141.995 288.073 142.078 287.823 142.284C287.574 142.491 287.407 142.74 287.407 143.071C287.407 143.319 287.49 143.526 287.657 143.65C287.823 143.816 287.99 143.899 288.198 143.981C288.448 144.064 288.698 144.147 289.114 144.23C289.572 144.354 289.905 144.437 290.197 144.561C290.446 144.685 290.696 144.809 290.904 145.016C291.113 145.223 291.196 145.513 291.196 145.885C291.196 146.175 291.113 146.465 290.946 146.713C290.78 146.961 290.53 147.168 290.197 147.292C289.864 147.458 289.447 147.541 288.948 147.541C288.531 147.665 288.115 147.582 287.657 147.416ZM239.486 147.416C239.07 147.251 238.778 147.085 238.528 146.837L238.778 146.34C238.986 146.547 239.278 146.754 239.652 146.878C240.027 147.003 240.402 147.085 240.777 147.085C241.318 147.085 241.734 147.003 241.984 146.796C242.234 146.589 242.4 146.34 242.4 146.009C242.4 145.761 242.317 145.554 242.151 145.43C241.984 145.264 241.817 145.182 241.609 145.099C241.401 145.016 241.11 144.933 240.693 144.85C240.235 144.726 239.861 144.602 239.611 144.519C239.361 144.395 239.111 144.271 238.903 144.023C238.695 143.816 238.612 143.526 238.612 143.112C238.612 142.823 238.695 142.533 238.861 142.284C239.028 142.036 239.278 141.829 239.611 141.705C239.944 141.54 240.36 141.457 240.86 141.457C241.193 141.457 241.568 141.498 241.859 141.581C242.192 141.664 242.484 141.829 242.733 141.995L242.525 142.491C242.275 142.326 242.026 142.202 241.693 142.119C241.401 142.036 241.11 141.995 240.86 141.995C240.319 141.995 239.902 142.078 239.652 142.284C239.403 142.491 239.236 142.74 239.236 143.071C239.236 143.319 239.319 143.526 239.486 143.65C239.652 143.816 239.819 143.899 240.027 143.981C240.277 144.064 240.527 144.147 240.943 144.23C241.401 144.354 241.734 144.437 242.026 144.561C242.275 144.685 242.525 144.809 242.733 145.016C242.942 145.223 243.025 145.513 243.025 145.885C243.025 146.175 242.942 146.465 242.775 146.713C242.608 146.961 242.359 147.168 242.026 147.292C241.693 147.458 241.276 147.541 240.777 147.541C240.319 147.665 239.902 147.582 239.486 147.416Z" fill="#9D60FF"/>
<path d="M239.486 114.68L235.031 105.285L232.367 121.923H234.24L239.486 114.68ZM242.942 117.37L240.111 115.342L235.447 121.881L242.067 120.888L242.942 117.37ZM223.831 107.479L231.617 121.136L234.282 104.499L223.831 107.479ZM241.859 114.018L244.316 113.811V112.404L241.859 114.018ZM244.524 114.597L240.985 114.928L249.437 121.054L244.524 114.597ZM241.276 124.199L241.818 121.799L235.198 122.709L236.655 124.489L241.276 124.199ZM250.061 122.502L248.687 125.813L251.06 123.247L250.061 122.502ZM242.734 124.778L249.062 121.757L243.691 117.908C243.15 120.102 242.567 122.212 242.109 124.447L242.734 124.778ZM247.105 127.262L249.02 122.75L243.691 125.316L247.105 127.262ZM223.249 108.141L217.628 119.398L231.034 121.716L223.249 108.141ZM213.673 125.399L222.749 107.106L220.709 103.671L213.673 125.399ZM241.609 103.05L238.695 105.947L242.692 108.638L244.732 105.782L241.609 103.05ZM239.195 101.395L238.695 104.789L241.151 102.347L241.484 98.8703L239.195 101.395ZM237.737 105.285L238.32 101.685L221.375 103.092L223.457 106.61L234.74 103.381C234.906 103.34 235.031 103.423 235.156 103.506L237.737 105.285ZM235.864 105.037L240.111 114.142L244.191 111.411L242.567 109.589C242.567 109.589 236.405 105.409 235.864 105.037ZM231.867 129.124L218.211 143.278L240.86 137.898L231.867 129.124ZM219.252 120.516L231.451 127.841V122.626L219.252 120.516ZM230.493 128.213L217.212 120.226L212.299 130.117L230.493 128.213ZM245.898 152.632L241.235 154.908H245.565L245.898 152.632ZM219.044 149.941L214.63 151.68L221.167 154.411L219.044 149.941ZM222.333 154.908H237.737L217.795 145.016L222.333 154.908ZM221.708 155.736L213.256 152.052C213.09 152.011 213.007 151.804 213.007 151.638C213.007 151.39 213.256 151.224 213.256 151.224L218.586 149.114L216.545 144.396C216.421 144.065 216.379 143.858 216.67 143.568L230.826 128.958L211.758 130.945C211.424 130.986 211.008 130.945 211.175 130.448C214.172 121.219 217.128 111.866 220.126 102.554C220.209 102.388 220.293 102.305 220.542 102.223L238.653 100.733L241.734 97.4218C241.901 97.2563 242.067 97.2563 242.234 97.339C242.4 97.4218 242.484 97.5874 242.484 97.7529L242.067 102.347L245.565 105.409C245.731 105.575 245.731 105.823 245.648 105.989L243.4 109.217L245.065 111.121C245.148 111.204 245.148 111.286 245.148 111.369V114.018L251.935 122.833C252.101 122.999 252.018 123.247 251.935 123.413L247.688 128.172C247.521 128.338 247.355 128.338 247.188 128.255L241.568 125.109L236.53 125.358C236.363 125.358 236.28 125.275 236.197 125.192L234.198 122.792H232.283V128.379L242.067 137.774C242.234 137.939 242.234 138.188 242.067 138.353C241.984 138.436 241.942 138.477 241.818 138.519L218.003 144.189L239.361 154.908L246.272 151.431C246.397 151.39 246.647 151.349 246.772 151.431C246.939 151.597 246.939 151.845 246.939 151.845L246.439 155.446C246.356 155.611 246.189 155.777 246.023 155.777C237.904 155.736 229.827 155.736 221.708 155.736Z" fill="#9D60FF"/>
</svg>
