<?xml version="1.0" encoding="UTF-8"?>
<svg width="289px" height="139px" viewBox="0 0 289 139" version="1.1" xmlns="http://www.w3.org/2000/svg" xmlns:xlink="http://www.w3.org/1999/xlink">
    <title>Tablet</title>
    <g id="Page-1" stroke="none" stroke-width="1" fill="none" fill-rule="evenodd">
        <g id="Tablet" transform="translate(-0.000000, -0.000000)">
            <g id="Group-7" transform="translate(0.348630, 16.023890)">
                <path d="M64.62718,2.2554 C66.34078,2.2554 67.80958,2.7149 68.91118,3.6756 C70.05358,4.5945 70.78798,5.8894 71.11438,7.4766 L67.64638,7.4766 C67.40158,6.8501 66.99358,6.3071 66.46318,5.9729 C65.93278,5.597 65.27998,5.4299 64.58638,5.4299 C63.60718,5.4299 62.83198,5.8058 62.26078,6.5159 C61.68958,7.226 61.36318,8.1867 61.36318,9.398 C61.36318,10.6093 61.64878,11.57 62.26078,12.2801 C62.83198,12.9902 63.64798,13.3661 64.58638,13.3661 C65.32078,13.3661 65.93278,13.199 66.46318,12.8231 C66.99358,12.4472 67.40158,11.946 67.64638,11.3194 L71.11438,11.3194 C70.78798,12.9067 70.05358,14.1597 68.91118,15.0787 C67.76878,15.9976 66.34078,16.4988 64.62718,16.4988 C63.32158,16.4988 62.13838,16.2065 61.15918,15.6217 C60.13908,15.0369 59.40468,14.2015 58.83348,13.1155 C58.30308,12.0295 58.01748,10.8182 58.01748,9.4398 C58.01748,8.0614 58.30308,6.8501 58.83348,5.7641 C59.36388,4.678 60.13908,3.8427 61.15918,3.2579 C62.13838,2.5478 63.28078,2.2554 64.62718,2.2554 Z M49.24548,2.2554 C50.95908,2.2554 52.34628,2.6731 53.44788,3.5503 C54.54948,4.3857 55.24308,5.5552 55.48788,7.0171 L52.01988,7.0171 C51.77508,6.5159 51.44868,6.14 50.95908,5.8058 C50.46948,5.5134 49.89828,5.3464 49.24548,5.3464 C48.22548,5.3464 47.36868,5.7223 46.75668,6.4324 C46.14468,7.1425 45.81818,8.1032 45.81818,9.3562 C45.81818,10.6929 46.14468,11.6953 46.79748,12.4054 C47.45028,13.1155 48.38868,13.4497 49.61268,13.4497 C50.38788,13.4497 51.08148,13.2408 51.65268,12.7813 C52.22388,12.3219 52.67268,11.6953 52.91748,10.9017 L48.75588,10.9017 L48.75588,8.4791 L55.65108,8.4791 L55.65108,11.8206 C55.40628,12.656 54.99828,13.4079 54.42708,14.0762 C53.85588,14.7863 53.12148,15.3293 52.26468,15.7888 C51.36708,16.2065 50.38788,16.4571 49.24548,16.4571 C47.85828,16.4571 46.67508,16.1647 45.65498,15.5799 C44.63498,14.9951 43.81898,14.1597 43.28858,13.0737 C42.71738,11.9877 42.43178,10.7764 42.43178,9.398 C42.43178,8.0196 42.71738,6.8083 43.28858,5.7223 C43.85978,4.6363 44.63498,3.8009 45.65498,3.2161 C46.71588,2.5478 47.89908,2.2554 49.24548,2.2554 Z M39.77978,16.3318 L36.47498,16.3318 L30.96688,7.769 L30.96688,16.3318 L27.66208,16.3318 L27.66208,2.3807 L30.96688,2.3807 L36.47498,11.027 L36.47498,2.3807 L39.77978,2.3807 L39.77978,16.3318 Z" id="Shape" fill="#9D60FF" fill-rule="nonzero"></path>
                <path d="M151.36928,5.3468 C152.55228,5.3468 153.53128,5.6809 154.26628,6.3075 C155.00028,6.934 155.44928,7.8112 155.57128,8.8972 L153.89828,8.8972 C153.81728,8.2706 153.57228,7.7276 153.12328,7.3099 C152.67428,6.8922 152.10328,6.6834 151.32828,6.6834 C150.71628,6.6834 150.22628,6.8505 149.85928,7.1429 C149.49228,7.4352 149.32928,7.8529 149.32928,8.3959 C149.32928,8.7719 149.45128,9.106 149.69628,9.3566 C149.94128,9.6073 150.22628,9.7743 150.59428,9.8997 C150.96128,10.025 151.45028,10.1503 152.06228,10.3173 C152.83828,10.4844 153.49028,10.6933 153.93928,10.8604 C154.42928,11.0692 154.83728,11.3616 155.16328,11.7793 C155.49028,12.197 155.69428,12.7818 155.69428,13.4918 C155.69428,14.369 155.36728,15.0791 154.71428,15.6221 C154.06228,16.1651 153.20528,16.4575 152.14428,16.4575 C150.87928,16.4575 149.85928,16.1651 149.04328,15.5385 C148.22728,14.912 147.77828,14.0766 147.65628,12.9488 L149.37028,12.9488 C149.45128,13.6171 149.69628,14.1184 150.22628,14.5361 C150.71628,14.9538 151.36928,15.1626 152.18528,15.1626 C152.79728,15.1626 153.24628,14.9955 153.61328,14.7032 C153.93928,14.369 154.14328,13.9931 154.14328,13.4501 C154.14328,13.0324 154.02128,12.6982 153.77628,12.4476 C153.53128,12.197 153.24628,11.9881 152.87828,11.8628 C152.51128,11.7375 152.02228,11.6122 151.41028,11.4451 C150.63428,11.278 149.98228,11.0692 149.53328,10.9021 C149.08428,10.735 148.67628,10.4427 148.35028,10.025 C148.02328,9.6073 147.86028,9.0643 147.86028,8.3959 C147.86028,7.477 148.18628,6.7669 148.83928,6.1822 C149.32928,5.6392 150.22628,5.3468 151.36928,5.3468 Z M144.35128,10.4427 C144.39228,9.649 144.27028,8.9807 143.98428,8.4377 C143.69828,7.8947 143.29028,7.5188 142.76028,7.2264 C142.23028,6.934 141.69928,6.8505 141.08728,6.8505 C140.10828,6.8505 139.33328,7.1429 138.68028,7.7694 C138.02728,8.3959 137.66028,9.2731 137.61928,10.4427 L144.35128,10.4427 Z M146.14628,10.3173 C146.14628,10.6933 146.10628,11.0274 146.06528,11.3198 L137.61928,11.3198 C137.66028,12.5729 137.98628,13.4918 138.63928,14.1184 C139.29228,14.7449 140.06728,15.0373 141.00628,15.0373 C141.86228,15.0373 142.55628,14.8285 143.12728,14.369 C143.69828,13.9095 144.06628,13.3248 144.18828,12.6147 L146.06528,12.6147 C145.94228,13.3665 145.65728,14.0348 145.20828,14.6196 C144.75928,15.2044 144.18828,15.6639 143.49428,15.998 C142.80128,16.3322 141.98528,16.4992 141.08728,16.4992 C140.06728,16.4992 139.17028,16.2904 138.39428,15.8309 C137.61928,15.3715 137.00728,14.7449 136.55828,13.9095 C136.11028,13.0741 135.90628,12.1134 135.90628,10.9439 C135.90628,9.8161 136.11028,8.8136 136.55828,7.9782 C137.00728,7.1429 137.61928,6.4745 138.39428,6.0568 C139.17028,5.5974 140.06728,5.3885 141.08728,5.3885 C142.10728,5.3885 143.00528,5.5974 143.78028,6.0568 C144.55528,6.5163 145.12628,7.1011 145.53428,7.8529 C145.94228,8.563 146.14628,9.3984 146.14628,10.3173 Z M131.13228,7.6859 C131.45828,6.934 131.98928,6.3492 132.64228,5.9315 C133.29428,5.5138 134.11028,5.305 135.04928,5.305 L135.04928,7.2682 L134.51828,7.2682 C133.53928,7.2682 132.72328,7.5188 132.11128,8.0618 C131.49928,8.563 131.17328,9.4402 131.17328,10.6515 L131.17328,16.3322 L129.41828,16.3322 L129.41828,5.5138 L131.17328,5.5138 L131.17328,7.6859 L131.13228,7.6859 Z M126.92928,5.5138 L126.92928,16.3322 L125.17528,16.3322 L125.17528,13.7842 C124.88928,14.6614 124.44128,15.3297 123.74728,15.7892 C123.05328,16.2486 122.27828,16.4992 121.34028,16.4992 C120.11628,16.4992 119.13728,16.0816 118.36128,15.2879 C117.58628,14.4943 117.21928,13.3248 117.21928,11.8211 L117.21928,5.5138 L118.97328,5.5138 L118.97328,11.654 C118.97328,12.74 119.25928,13.5754 119.78928,14.1602 C120.32028,14.7449 121.05428,15.0373 121.99328,15.0373 C122.97228,15.0373 123.70628,14.7032 124.31828,14.0766 C124.88928,13.4501 125.17528,12.4894 125.17528,11.278 L125.17528,5.5138 L126.92928,5.5138 Z M115.75028,14.7449 L115.75028,16.3322 L114.44528,16.3322 C113.38428,16.3322 112.56828,16.0816 112.03728,15.5385 C111.50728,14.9955 111.22128,14.1184 111.22128,12.9071 L111.22128,7.0593 L109.63028,7.0593 L109.63028,5.5138 L111.22128,5.5138 L111.22128,2.7988 L112.97628,2.7988 L112.97628,5.5138 L115.70928,5.5138 L115.70928,7.0593 L112.97628,7.0593 L112.97628,12.9488 C112.97628,13.6589 113.09828,14.1184 113.34328,14.369 C113.58828,14.6196 114.03728,14.7449 114.64928,14.7449 L115.75028,14.7449 Z M104.24528,5.305 C105.46928,5.305 106.48928,5.7227 107.22328,6.5163 C107.99828,7.3099 108.36528,8.4795 108.36528,10.025 L108.36528,16.3322 L106.61128,16.3322 L106.61128,10.192 C106.61128,9.106 106.32528,8.2706 105.79528,7.7276 C105.26528,7.1429 104.53028,6.8505 103.59228,6.8505 C102.61328,6.8505 101.87828,7.1846 101.26628,7.8112 C100.69528,8.4377 100.40928,9.3984 100.40928,10.6097 L100.40928,16.3322 L98.65528,16.3322 L98.65528,5.5138 L100.40928,5.5138 L100.40928,8.0618 C100.69528,7.1846 101.14428,6.5163 101.83728,6.0151 C102.57228,5.5556 103.34728,5.305 104.24528,5.305 Z M94.98318,10.4427 C95.02398,9.649 94.90158,8.9807 94.61598,8.4377 C94.33038,7.8947 93.92238,7.5188 93.39198,7.2264 C92.86158,6.934 92.33118,6.8505 91.71918,6.8505 C90.73998,6.8505 89.96478,7.1429 89.31198,7.7694 C88.65918,8.3959 88.29198,9.2731 88.25118,10.4427 L94.98318,10.4427 Z M96.77828,10.3173 C96.77828,10.6933 96.73728,11.0274 96.69728,11.3198 L88.25118,11.3198 C88.29198,12.5729 88.61838,13.4918 89.27118,14.1184 C89.92398,14.7449 90.69918,15.0373 91.63758,15.0373 C92.49438,15.0373 93.18798,14.8285 93.75918,14.369 C94.33038,13.9095 94.69758,13.3248 94.81998,12.6147 L96.69728,12.6147 C96.57438,13.3665 96.28878,14.0348 95.83998,14.6196 C95.39118,15.2044 94.81998,15.6639 94.12638,15.998 C93.43278,16.3322 92.61678,16.4992 91.71918,16.4992 C90.69918,16.4992 89.80158,16.2904 89.02638,15.8309 C88.25118,15.3715 87.63918,14.7449 87.19038,13.9095 C86.74148,13.0741 86.53748,12.1134 86.53748,10.9439 C86.53748,9.8161 86.74148,8.8136 87.19038,7.9782 C87.63918,7.1429 88.25118,6.4745 89.02638,6.0568 C89.80158,5.5974 90.69918,5.3885 91.71918,5.3885 C92.73918,5.3885 93.63678,5.5974 94.41198,6.0568 C95.18718,6.5163 95.75838,7.1011 96.16638,7.8529 C96.57438,8.563 96.77828,9.3984 96.77828,10.3173 Z M75.39908,2.4229 L79.51988,14.3272 L83.72228,2.4229 L85.63988,2.4229 L80.66228,16.3322 L78.45908,16.3322 L73.48148,2.4229 L75.39908,2.4229 L75.39908,2.4229 Z" id="Shape" fill="#9D60FF" fill-rule="nonzero"></path>
                <polygon id="Path" fill="#9D60FF" points="-5.68434189e-14 0 5.26323 3.2581 5.26323 17.7103 -5.68434189e-14 14.4941"></polygon>
                <polygon id="Path" stroke="#9D60FF" stroke-width="0.5669" points="-5.68434189e-14 0 5.26323 3.2581 5.26323 17.7103 -5.68434189e-14 14.4941"></polygon>
                <polygon id="Path" fill="#9D60FF" points="8.03808 0 13.30128 3.2581 13.30128 17.7103 8.03808 14.4941"></polygon>
                <polygon id="Path" stroke="#9D60FF" stroke-width="0.5669" points="8.03808 0 13.30128 3.2581 13.30128 17.7103 8.03808 14.4941"></polygon>
                <polygon id="Path" fill="#9D60FF" points="16.03418 0 21.29738 3.2581 21.29738 17.7103 16.03418 14.4941"></polygon>
                <polygon id="Path" stroke="#9D60FF" stroke-width="0.5669" points="16.03418 0 21.29738 3.2581 21.29738 17.7103 16.03418 14.4941"></polygon>
            </g>
            <g id="Group-6" transform="translate(0.000000, 91.505590)" fill="#9D60FF" fill-rule="nonzero">
                <path d="M63.65011,18.357 L61.88641,18.357 L61.88641,5.429 L63.65011,5.429 L63.65011,18.357 Z M70.11701,18.357 L70.11701,6.992 L66.31521,6.992 L66.31521,5.429 L75.48641,5.429 L75.48641,6.992 L71.84151,6.992 L71.84151,18.357 L70.11701,18.357 Z M81.05191,9.296 L78.70031,15.155 L81.05191,15.155 L83.40351,15.155 L81.05191,9.296 Z M75.48641,18.357 L81.05191,5.429 L86.61731,18.357 L84.65761,18.357 L83.95221,16.678 L81.05191,16.678 L78.15161,16.678 L77.44611,18.357 L75.48641,18.357 Z M91.24211,10.077 L91.20291,18.357 L89.28241,18.357 L89.28241,5.703 L97.31691,14.178 L97.31691,5.703 L99.23791,5.703 L99.23791,18.357 L91.24211,10.077 Z M105.93991,18.826 C103.90191,18.826 102.56891,17.771 101.66791,15.975 L103.15691,15.311 C103.70591,16.404 104.68491,17.303 105.93991,17.303 C107.31091,17.303 108.68291,16.522 108.68291,14.998 C108.68291,14.647 108.60491,14.334 108.40891,14.061 C108.21291,13.788 107.93791,13.553 107.58591,13.28 C106.56691,12.616 105.54791,12.225 104.52891,11.678 C104.09791,11.444 103.78391,11.21 103.54891,10.975 C103.19591,10.663 102.92191,10.312 102.72591,9.882 C102.52991,9.491 102.45091,9.062 102.45091,8.632 C102.45091,8.202 102.56891,7.773 102.76491,7.343 C102.96091,6.914 103.27491,6.562 103.66591,6.25 C104.01891,5.976 104.44991,5.742 104.95991,5.586 C105.46891,5.429 105.93991,5.351 106.48791,5.351 C107.62491,5.351 109.03591,6.015 109.66291,7.148 L108.36991,8.046 C107.85991,7.226 107.07591,6.875 106.44891,6.875 C106.01791,6.875 105.62591,6.953 105.27291,7.109 C104.95991,7.265 104.68491,7.499 104.48891,7.773 C104.29391,8.046 104.21491,8.32 104.21491,8.632 C104.21491,9.101 104.37191,9.452 104.68491,9.765 C104.99891,10.077 105.54791,10.39 106.29191,10.741 C106.91891,11.054 107.54691,11.366 108.17391,11.718 C108.68291,11.991 109.07491,12.303 109.38891,12.577 C110.13291,13.241 110.48591,14.061 110.48591,14.998 C110.44691,17.459 108.17391,18.826 105.93991,18.826 Z M53.77341,18.357 L53.77341,6.992 L49.97171,6.992 L49.97171,5.429 L59.14291,5.429 L59.14291,6.992 L55.49791,6.992 L55.49791,18.357 L53.77341,18.357 Z" id="Shape"></path>
                <path d="M107.42891,31.597 C107.27191,31.597 107.15491,31.597 107.03691,31.558 L106.99791,31.558 L106.95891,31.558 L106.80191,31.519 C106.64491,31.48 106.44891,31.441 106.25291,31.363 C105.74391,31.206 105.31291,30.933 104.95991,30.542 C104.92091,30.503 104.92091,30.464 104.92091,30.425 C104.92091,30.386 104.95991,30.347 104.99891,30.308 L105.11691,30.23 C105.15591,30.23 105.19491,30.191 105.23391,30.191 C105.27291,30.191 105.35191,30.23 105.39091,30.269 C105.66491,30.582 106.01791,30.816 106.44891,30.972 C106.60591,31.011 106.76291,31.05 106.91891,31.089 C106.95891,31.089 106.95891,31.089 106.99791,31.089 C107.03691,31.089 107.03691,31.089 107.07591,31.089 C107.11491,31.089 107.11491,31.089 107.11491,31.089 C107.23291,31.089 107.35091,31.089 107.46791,31.089 C107.74191,31.089 108.05591,31.05 108.36991,30.972 C108.68291,30.894 108.95691,30.777 109.19291,30.582 C109.66291,30.269 109.89791,29.839 109.97691,29.293 C109.97691,29.254 109.97691,29.215 109.97691,29.136 C109.97691,28.824 109.89791,28.551 109.74091,28.316 C109.58491,28.082 109.34891,27.887 109.03591,27.652 C108.72191,27.457 108.29091,27.223 107.70291,26.949 L107.54691,26.871 C107.50691,26.871 107.42891,26.832 107.31091,26.754 L107.23291,26.715 L106.99791,26.598 L106.64491,26.442 C106.40991,26.285 106.17491,26.168 105.97891,26.012 C105.50791,25.621 105.27291,25.114 105.27291,24.567 L105.27291,24.528 C105.27291,23.981 105.46891,23.59 105.82191,23.278 C106.17491,22.966 106.56691,22.77 107.03691,22.653 C107.31091,22.575 107.62491,22.536 107.89891,22.536 C107.97791,22.536 108.05591,22.536 108.17391,22.536 C108.52591,22.575 108.83991,22.653 109.15291,22.77 C109.46691,22.887 109.74091,23.083 109.97691,23.278 C110.01591,23.317 110.01591,23.356 110.01591,23.395 C110.01591,23.434 109.97691,23.473 109.93691,23.512 L109.81991,23.59 C109.78091,23.629 109.74091,23.629 109.70191,23.629 C109.66291,23.629 109.58491,23.629 109.54491,23.59 C109.34891,23.434 109.15291,23.317 108.87891,23.2 C108.60491,23.083 108.32991,23.044 108.05591,23.005 C108.01691,23.005 107.93791,23.005 107.82091,23.005 C107.54691,23.005 107.27191,23.044 106.99791,23.122 C106.72291,23.2 106.48791,23.317 106.29191,23.473 C105.89991,23.747 105.70391,24.137 105.70391,24.606 L105.70391,24.645 C105.70391,25.075 105.89991,25.465 106.33191,25.778 C106.48791,25.895 106.68391,26.051 106.91891,26.168 C106.95891,26.168 107.03691,26.246 107.23291,26.324 L107.50691,26.442 L107.62491,26.52 L107.74291,26.559 L107.89891,26.637 L108.13391,26.754 L108.40891,26.871 C108.56591,26.949 108.72191,27.027 108.87891,27.106 C109.23191,27.301 109.50591,27.496 109.70191,27.691 C110.17191,28.121 110.40791,28.629 110.40791,29.215 C110.40791,29.254 110.40791,29.332 110.40791,29.449 C110.36791,29.879 110.21191,30.269 109.93691,30.582 C109.66291,30.894 109.30991,31.167 108.87891,31.363 C108.44791,31.48 107.97791,31.597 107.42891,31.597 Z M97.86591,22.77 C97.86591,22.653 97.94391,22.614 98.06191,22.614 L102.96091,22.614 C103.07891,22.614 103.15691,22.653 103.15691,22.77 L103.15691,22.887 C103.15691,23.005 103.07891,23.044 102.96091,23.044 L98.41491,23.044 L98.41491,27.535 L102.33391,27.535 C102.45091,27.535 102.52991,27.574 102.52991,27.691 L102.52991,27.809 C102.52991,27.926 102.45091,27.965 102.33391,27.965 L98.41491,27.965 L98.41491,31.089 L102.96091,31.089 C103.07891,31.089 103.15691,31.128 103.15691,31.246 L103.15691,31.363 C103.15691,31.48 103.07891,31.519 102.96091,31.519 L98.06191,31.519 C97.94391,31.519 97.86591,31.48 97.86591,31.363 L97.86591,22.77 L97.86591,22.77 Z M92.10431,28.394 C92.65301,28.394 93.16251,28.277 93.63291,28.004 C94.10321,27.769 94.45591,27.457 94.73031,27.027 C95.00461,26.637 95.16141,26.168 95.16141,25.699 C95.16141,25.231 95.00461,24.762 94.73031,24.372 C94.45591,23.981 94.06401,23.629 93.59371,23.395 C93.12331,23.161 92.57461,23.044 92.02591,23.044 L91.24211,23.044 L91.24211,28.394 L92.10431,28.394 L92.10431,28.394 Z M95.55331,31.285 C95.59251,31.324 95.59251,31.363 95.59251,31.402 C95.59251,31.441 95.59251,31.48 95.55331,31.48 C95.51411,31.48 95.47491,31.519 95.43571,31.519 L95.27901,31.519 C95.23981,31.519 95.20061,31.519 95.20061,31.519 C95.16141,31.519 95.16141,31.48 95.12221,31.48 L93.24091,28.707 C92.88821,28.785 92.53541,28.863 92.18271,28.863 L91.32051,28.863 L91.32051,31.402 C91.32051,31.441 91.32051,31.48 91.28131,31.519 C91.24211,31.558 91.20291,31.558 91.16371,31.558 L91.00691,31.558 C90.96771,31.558 90.92851,31.558 90.88931,31.519 C90.85011,31.48 90.85011,31.441 90.85011,31.402 L90.85011,22.809 C90.85011,22.77 90.85011,22.731 90.88931,22.692 C90.92851,22.653 90.96771,22.653 91.00691,22.653 L92.10431,22.653 C92.77061,22.653 93.35851,22.809 93.94641,23.083 C94.49511,23.356 94.92621,23.747 95.27901,24.215 C95.59251,24.684 95.74931,25.192 95.74931,25.778 C95.74931,26.168 95.67091,26.559 95.51411,26.91 C95.35741,27.262 95.12221,27.613 94.80871,27.887 C94.49511,28.16 94.14241,28.394 93.75041,28.59 L95.55331,31.285 Z M85.16711,31.519 C84.61841,31.519 84.10891,31.402 83.63861,31.167 C83.16831,30.933 82.81551,30.621 82.54121,30.23 C82.26681,29.839 82.14931,29.41 82.14931,28.941 L82.14931,22.77 C82.14931,22.731 82.14931,22.692 82.18851,22.653 C82.22761,22.614 82.26681,22.614 82.30601,22.614 L82.46281,22.614 C82.50201,22.614 82.54121,22.614 82.58041,22.653 C82.61961,22.692 82.61961,22.731 82.61961,22.77 L82.61961,28.941 C82.61961,29.332 82.73721,29.683 82.97231,30.035 C83.20751,30.347 83.52101,30.621 83.87381,30.816 C84.26571,31.011 84.69681,31.089 85.12791,31.089 C85.59831,31.089 85.99021,31.011 86.38211,30.816 C86.77411,30.621 87.08761,30.347 87.28361,30.035 C87.51871,29.722 87.63631,29.332 87.63631,28.941 L87.63631,22.77 C87.63631,22.731 87.63631,22.692 87.67551,22.653 C87.71471,22.614 87.75391,22.614 87.79311,22.614 L87.94991,22.614 C87.98901,22.614 88.02821,22.614 88.06741,22.653 C88.10661,22.692 88.10661,22.731 88.10661,22.77 L88.10661,28.941 C88.10661,29.41 87.98901,29.839 87.71471,30.23 C87.44031,30.621 87.08761,30.933 86.61731,31.167 C86.22531,31.402 85.71581,31.519 85.16711,31.519 Z M74.54581,22.77 C74.54581,22.731 74.54581,22.692 74.58501,22.653 C74.62421,22.614 74.66341,22.614 74.70261,22.614 L79.87611,22.614 C79.91521,22.614 79.99361,22.614 79.99361,22.653 C80.03281,22.692 80.03281,22.731 80.03281,22.77 L80.03281,22.887 C80.03281,22.926 80.03281,22.966 79.99361,23.005 C79.95441,23.044 79.91521,23.044 79.87611,23.044 L77.56371,23.044 L77.56371,31.363 C77.56371,31.402 77.56371,31.441 77.52451,31.48 C77.48531,31.519 77.44611,31.519 77.40691,31.519 L77.25011,31.519 C77.21091,31.519 77.17171,31.519 77.13251,31.48 C77.09331,31.441 77.09331,31.402 77.09331,31.363 L77.09331,23.044 L74.70261,23.044 C74.66341,23.044 74.62421,23.044 74.58501,23.005 C74.54581,22.966 74.54581,22.926 74.54581,22.887 L74.54581,22.77 L74.54581,22.77 Z M71.99821,22.77 C71.99821,22.731 71.99821,22.692 72.03741,22.653 C72.07661,22.614 72.11581,22.614 72.15501,22.614 L72.31181,22.614 C72.35101,22.614 72.39021,22.614 72.42941,22.653 C72.46851,22.692 72.46851,22.731 72.46851,22.77 L72.46851,31.324 C72.46851,31.363 72.42941,31.441 72.39021,31.441 C72.35101,31.48 72.31181,31.48 72.23341,31.48 C72.19421,31.48 72.15501,31.48 72.11581,31.441 C72.07661,31.441 72.03741,31.402 72.03741,31.363 L66.86391,23.747 L66.86391,31.363 C66.86391,31.402 66.86391,31.441 66.82471,31.48 C66.78551,31.519 66.74631,31.519 66.70711,31.519 L66.55041,31.519 C66.51121,31.519 66.47201,31.519 66.43281,31.48 C66.39361,31.441 66.39361,31.402 66.39361,31.363 L66.39361,22.848 C66.39361,22.809 66.43281,22.731 66.47201,22.731 C66.51121,22.692 66.55041,22.692 66.62881,22.692 C66.70711,22.692 66.78551,22.731 66.82471,22.809 L71.99821,30.386 L71.99821,22.77 Z M58.86851,22.77 C58.86851,22.653 58.94691,22.614 59.06451,22.614 L63.96361,22.614 C64.08121,22.614 64.15961,22.653 64.15961,22.77 L64.15961,22.887 C64.15961,23.005 64.08121,23.044 63.96361,23.044 L59.41721,23.044 L59.41721,27.535 L63.33651,27.535 C63.45411,27.535 63.53251,27.574 63.53251,27.691 L63.53251,27.809 C63.53251,27.926 63.45411,27.965 63.33651,27.965 L59.41721,27.965 L59.41721,31.089 L63.96361,31.089 C64.08121,31.089 64.15961,31.128 64.15961,31.246 L64.15961,31.363 C64.15961,31.48 64.08121,31.519 63.96361,31.519 L59.06451,31.519 C58.94691,31.519 58.86851,31.48 58.86851,31.363 L58.86851,22.77 Z M49.97171,22.848 C49.97171,22.809 49.97171,22.809 49.97171,22.77 C49.97171,22.731 50.01091,22.692 50.01091,22.653 C50.05011,22.614 50.08921,22.614 50.16761,22.614 L50.32441,22.614 C50.36361,22.614 50.40281,22.614 50.44201,22.653 C50.48121,22.653 50.48121,22.692 50.52041,22.731 L53.42071,30.23 L56.32101,22.731 C56.32101,22.692 56.36021,22.692 56.39931,22.653 C56.43851,22.653 56.47771,22.614 56.51691,22.614 L56.63451,22.614 C56.71291,22.614 56.75211,22.614 56.79131,22.653 C56.83051,22.692 56.83051,22.731 56.83051,22.77 C56.83051,22.809 56.83051,22.809 56.83051,22.809 L53.65581,31.363 C53.65581,31.402 53.61661,31.441 53.57741,31.441 C53.53821,31.48 53.49911,31.48 53.45991,31.48 C53.42071,31.48 53.38151,31.48 53.34231,31.441 C53.30311,31.402 53.30311,31.402 53.26391,31.363 L49.97171,22.848 Z" id="Shape"></path>
                <path d="M4.5464,5.312 L23.16321,33.003 L41.27041,6.093 L34.60761,6.093 L23.08481,23.2 L11.05251,5.312 L23.47671,5.312 L23.47671,13.982 L22.69281,12.811 L22.69281,6.093 L12.50261,6.093 L23.08481,21.794 L34.17641,5.312 L42.72061,5.312 C36.21451,14.998 29.66921,24.684 23.16321,34.409 L3.60577,5.312 L4.5464,5.312 Z M45.77761,0.781 L0.50951,0.781 L0,0 L46.28711,0 L45.77761,0.781 Z" id="Shape"></path>
            </g>
            <g id="Exnetwork_logo-2" transform="translate(210.000000, 0.000000)" fill="#9D60FF" fill-rule="nonzero">
                <g id="Exnetwork_logo">
                    <path d="M31.1907514,0.0287080663 C31.1907514,0.0765548285 31.3830746,0.38277482 31.556265,0.607653373 C31.6427606,0.717701759 31.8641813,1.0526287 32.0469381,1.34927958 C32.2344781,1.64593045 32.4845978,2.01912949 32.6047748,2.17703534 C32.7251512,2.33492137 32.8259963,2.49282722 32.8259963,2.53108941 C32.8259963,2.56937142 32.907908,2.70812635 33.0089524,2.84210347 C33.2829879,3.20095518 33.6437183,3.73204619 33.6437183,3.7703282 C33.6437183,3.78945929 33.7399795,3.9425675 33.8601566,4.11482663 C34.192188,4.58850454 34.3267145,4.79424804 34.4325421,4.9760628 C34.4903387,5.07175791 34.6635291,5.33969233 34.8221708,5.56936456 C34.9810118,5.8038146 35.1444366,6.04784011 35.1829012,6.11960648 C35.2215651,6.18659504 35.4330209,6.50716474 35.6544416,6.82295662 C35.8708799,7.14352632 36.0488535,7.41625838 36.0488535,7.43061165 C36.0488535,7.46409602 36.5345442,8.1913749 36.6549205,8.33970529 C36.717301,8.41147167 36.8231285,8.58371097 36.8904914,8.72246591 C36.9626375,8.86122084 37.0588987,9.01432906 37.1021465,9.06696434 C37.1503768,9.11959962 37.2849033,9.30141439 37.395514,9.47367352 C37.5111072,9.64591282 37.6217179,9.78944557 37.6456337,9.79902103 C37.6649657,9.80859649 37.6840983,9.8468785 37.6840983,9.88514068 C37.6840983,9.95692688 37.9678995,10.3971006 38.2180192,10.7176901 C38.2901653,10.8085876 38.4105417,10.9952 38.4874709,11.1339549 C38.559617,11.2679122 38.7712721,11.5932796 38.9540289,11.8516583 C39.1320025,12.1100173 39.2956266,12.3540428 39.3099761,12.3923248 C39.3388744,12.4736667 39.6081268,12.880356 39.6563571,12.918638 C39.6900385,12.9425667 40.0123043,13.4401734 40.1131494,13.6124127 C40.2141938,13.7942275 40.6375039,14.4258112 40.7963449,14.6315547 C40.8828405,14.7463809 40.9549866,14.8612071 40.9549866,14.8851359 C40.9549866,14.942549 41.6812306,15.999973 41.734244,16.0191041 C41.7533767,16.0286795 41.7727086,16.0621639 41.7727086,16.0956681 C41.7727086,16.157859 42.1382222,16.746383 42.200802,16.7942206 C42.2729481,16.8420781 42.5422004,17.2678985 42.5422004,17.3301093 C42.5422004,17.3635936 42.5904307,17.4449355 42.6432448,17.511924 C42.6962582,17.5789126 42.8501167,17.7942315 42.9848426,17.9903996 C43.1243516,18.1865676 43.2638606,18.3779578 43.297542,18.4114422 C43.3310242,18.4449464 43.3599225,18.5023595 43.3599225,18.531066 C43.3599225,18.5884791 43.6821883,19.0908636 43.744768,19.1387211 C43.7641,19.1530743 43.8601619,19.2918293 43.9612063,19.4449375 L44.1439631,19.7272252 L44.1007153,19.7894359 C43.95164,19.9903025 43.46575,20.7032082 43.4081527,20.8084788 C43.1675994,21.2200451 43.066555,21.3875661 43.0087584,21.4448602 C42.8837982,21.569361 42.5422004,22.1004718 42.5422004,22.1722382 C42.5422004,22.2105004 42.5230678,22.2487626 42.5037358,22.2582786 C42.4461385,22.2775088 41.9650318,22.9759423 41.8063901,23.2679641 C41.7294608,23.4067388 41.5851687,23.622038 41.4841243,23.7558565 C41.3830799,23.8851153 41.1666417,24.210443 41.0030175,24.4737185 C40.8395927,24.7367958 40.589473,25.1148579 40.4451808,25.3156848 C40.3056718,25.51671 40.1661628,25.7320091 40.1420477,25.7990175 C40.1181319,25.8612679 40.0459858,25.9760544 39.983406,26.0573368 C39.8534633,26.2103855 39.4494851,26.8132627 39.2906442,27.0765383 C39.1848166,27.2630912 39.0502901,27.4688744 38.7182587,27.9424928 C38.5980816,28.1147717 38.5018204,28.2678205 38.5018204,28.2870507 C38.5018204,28.3253129 38.001581,29.0574489 37.8429393,29.2487598 C37.7851427,29.3205262 37.693864,29.4735749 37.6408506,29.5836035 C37.5928196,29.693632 37.4533106,29.9089312 37.3379167,30.0621781 C37.2225228,30.2152269 37.0058853,30.5310386 36.8615931,30.7703259 C36.7222834,31.009415 36.5201947,31.3109528 36.4191503,31.4449695 C36.3181059,31.578788 36.1690306,31.8085594 36.0873182,31.9568501 C36.0103889,32.1051409 35.9045614,32.2679039 35.8563311,32.32044 C35.7602692,32.4304686 35.3560917,33.038302 35.2022332,33.3061373 C35.1444366,33.4066499 34.9762286,33.6554532 34.8319364,33.8659944 C34.6826618,34.0717775 34.5144538,34.3300968 34.451874,34.4401254 C34.3892943,34.5453959 34.2113207,34.8229455 34.052679,35.0525186 C33.893838,35.2822899 33.7208469,35.5453672 33.6630503,35.6411218 C33.5524396,35.8371907 33.4418289,35.9999537 33.0810984,36.5215485 C32.9415894,36.7223754 32.8259963,36.8994124 32.8259963,36.9138846 C32.8259963,36.9521468 32.3739871,37.6123182 32.1671152,37.8851097 C32.0806196,37.9998962 32.0084735,38.124397 32.0084735,38.1579012 C32.0084735,38.1914054 31.9363274,38.3204659 31.8448494,38.4352525 C31.604296,38.7463062 31.1907514,39.3779296 31.1907514,39.4304658 L31.1907514,39.4736842 L39.8391138,39.4736842 L48.4874763,39.4736842 L48.5644055,39.3826876 C48.7134808,39.2056507 49.0837776,38.6362777 49.0837776,38.5787852 C49.0837776,38.5502373 49.1031096,38.5167331 49.1224415,38.5070189 C49.1463573,38.4975029 49.2569681,38.3539701 49.3725612,38.1816912 C49.4879551,38.0094122 49.6563624,37.7798391 49.742858,37.6650526 C49.8293536,37.5500678 49.9014996,37.4400392 49.9014996,37.4210072 C49.9014996,37.3682728 51.1425319,35.507105 51.2531426,35.3875605 C51.3013728,35.3395841 51.3974348,35.1817773 51.4695808,35.0430026 C51.5417269,34.9042278 51.633205,34.7511791 51.6764528,34.7032027 C51.7629483,34.6076463 52.3066349,33.8324902 52.3066349,33.798986 C52.3066349,33.7654818 52.657799,33.2343709 52.7827592,33.0765642 C52.8501221,32.9903256 52.9222682,32.9185592 52.9366177,32.9185592 C52.9559496,32.9185592 53.085693,33.1051122 53.2349676,33.3396415 C53.3792598,33.5692146 53.5474678,33.808502 53.6052644,33.8755103 C53.7015256,33.9855389 53.8410346,34.19608 53.9901099,34.4593556 C54.0285746,34.5261657 54.201765,34.7846833 54.3749555,35.0237724 C54.5479466,35.2678177 54.7115708,35.502347 54.7356859,35.5453672 C54.9232259,35.8371907 55.1733456,36.2057368 55.2165934,36.253515 C55.2502748,36.2822612 55.3367704,36.4113217 55.413899,36.5405805 C55.4908282,36.6650813 55.5773238,36.8036578 55.6014389,36.8468762 C55.6303372,36.8898964 55.7889789,37.1242275 55.9621693,37.3682728 C56.1353598,37.6075602 56.3085503,37.8658795 56.3470149,37.9328879 C56.4865239,38.1816912 56.6451656,38.4257365 56.7029621,38.4832289 C56.7894577,38.5692693 57.1599538,39.1243683 57.1984184,39.2199246 C57.2175511,39.2631431 57.265582,39.3396674 57.304246,39.3874456 L57.376392,39.4736842 L66.2411927,39.4736842 C71.1136443,39.4736842 75.1107765,39.459212 75.1203428,39.435422 C75.144458,39.4019178 74.7452629,38.7607784 74.5142759,38.4592407 C74.4373466,38.3634861 74.3171696,38.1769332 74.2498067,38.0476744 C74.1776606,37.9186139 73.9901206,37.6267904 73.8312797,37.392261 C73.672638,37.1626879 73.5233634,36.9376746 73.4946644,36.8946544 C73.2252127,36.4497822 73.1339339,36.3060512 72.9798761,36.1004663 C72.8788318,35.9664495 72.7586547,35.7846546 72.7106238,35.693658 C72.6047962,35.4878748 72.0804417,34.6889287 71.9939461,34.6028883 C71.9602646,34.5644279 71.8735697,34.4208952 71.8014237,34.2823186 C71.7340607,34.1385876 71.6332157,33.9760229 71.5849854,33.9232885 C71.5321713,33.8659944 71.2820516,33.4926902 71.0319319,33.0955962 C70.777029,32.6937441 70.5556083,32.3587022 70.5364756,32.3444282 C70.4691127,32.2918921 70.199661,31.8708098 70.199661,31.8085594 C70.199661,31.7750552 70.1372806,31.6697846 70.0603513,31.578788 C69.9015103,31.3827191 69.5166648,30.8038301 69.3099922,30.4497562 C69.2328636,30.3109815 69.0694388,30.0669361 68.9490624,29.9089312 C68.8288854,29.7463664 68.6893764,29.5358253 68.6365623,29.4353127 C68.3575443,28.9281901 67.7947251,28.2965667 67.2655874,27.9042306 C66.9194057,27.6506693 66.019772,27.1720946 65.6303426,27.0335181 C65.1781341,26.8755131 64.5911998,26.7989888 63.8506063,26.7942308 C63.2204242,26.7942308 62.1093346,26.8612392 61.6090952,26.9330055 L61.3685418,26.9665097 L61.7197059,26.6362258 C61.9122283,26.4544309 62.07087,26.2821519 62.07087,26.2583619 C62.07087,26.2343737 62.1334497,26.1483334 62.210379,26.076567 C62.3835695,25.9042881 62.7875477,25.2966528 62.8403618,25.1291319 C62.8981584,24.9520949 62.9750876,23.8946313 62.9511718,23.6458279 C62.936623,23.5357994 62.9077247,23.445001 62.8838089,23.445001 C62.8596938,23.445001 62.8403618,23.459275 62.8403618,23.4785052 C62.8403618,23.5022952 62.8068796,23.7223523 62.7682157,23.9711556 L62.6912865,24.4257421 L62.5663263,24.6650294 C62.3114234,25.1626361 61.8592149,25.6314965 60.9165326,26.3874225 C60.6903288,26.5694157 60.3295983,26.8899854 60.1083769,27.1003282 L59.713965,27.4831483 L59.5070931,27.9137466 C59.3916992,28.1530339 59.2665397,28.4210675 59.2280751,28.5023498 C59.1896105,28.5883902 59.1463627,28.6601566 59.1320132,28.6601566 C59.1126812,28.6601566 58.9829379,28.540612 58.8434289,28.3970793 C58.6991367,28.2535465 58.5596277,28.134002 58.5307294,28.134002 L58.477716,28.134002 L58.5211631,28.4113532 C58.5835435,28.7701851 58.5355126,29.5740875 58.4392513,29.9041732 C58.3431894,30.2199849 58.0833041,30.7655679 58.0257068,30.7655679 C58.0015917,30.7655679 57.982459,30.7941159 57.982459,30.8276201 C57.982459,30.9138587 57.5109186,31.3587309 57.3090291,31.4640015 L57.1406218,31.5502401 L56.4430768,31.5454821 L55.7457311,31.5405259 L55.2983058,31.4114653 C54.8606461,31.2869645 54.0285746,30.9138587 53.9659948,30.8181041 C53.9516453,30.7893579 53.9034151,30.7655679 53.8601673,30.7655679 C53.7254414,30.7655679 53.177171,30.3827478 53.0761267,30.2152269 L52.9800647,30.0574202 L53.0472284,29.9234034 C53.2301845,29.5550555 53.5620166,28.7894153 53.6678441,28.4688456 C53.7352071,28.2725785 53.8264858,27.9137466 53.8697336,27.6794155 L53.9516453,27.2488172 L53.9275302,26.8899854 C53.9083975,26.6937182 53.8506009,26.3588745 53.7975875,26.1483334 C53.69176,25.7655133 53.3262464,24.760784 53.196503,24.5119807 C53.1580384,24.4402143 53.1243569,24.3444597 53.1243569,24.3061976 C53.1243569,24.2631774 53.0039806,23.9903858 52.8596884,23.6985623 C52.7153962,23.4017826 52.5952192,23.1482213 52.5952192,23.1291893 C52.5952192,23.1099591 52.6480333,22.9856566 52.7106131,22.8516398 C52.7731928,22.717623 52.8644716,22.4448315 52.9127018,22.2487626 L53.0039806,21.8899307 L53.0039806,20.5931797 L53.0039806,19.2966071 L53.2204188,19.4832195 C53.4753217,19.7080941 53.7110919,19.8372537 53.9564285,19.8802739 L54.1344021,19.9137781 L54.1344021,19.8707579 C54.1344021,19.7942137 53.6485122,19.3301113 53.4225076,19.1865587 C53.3118969,19.1100145 53.1580384,18.9951685 53.085693,18.9234021 C52.898153,18.7368095 52.1477939,18.2535562 51.753382,18.0621659 C51.3494038,17.8659979 50.93566,17.7655052 50.190084,17.6746077 L49.6370304,17.6123969 L48.6750162,17.6076191 L47.713002,17.6076191 L47.106935,17.5358527 C46.7751029,17.4975707 46.3902573,17.4449355 46.2459652,17.4162289 C45.8515533,17.3348871 45.2791678,17.1434968 45.1155436,17.0334485 C45.0386144,16.980833 44.9040879,16.8946935 44.817393,16.8372804 C44.7356806,16.7846451 44.5672733,16.5980526 44.4470962,16.4210156 L44.2258748,16.1004459 L44.0622507,15.6554746 C43.884277,15.176999 43.7736663,14.7703097 43.8025646,14.6937456 C43.8073478,14.6650391 43.9420736,14.7559564 44.091149,14.8947113 C44.2402243,15.0334663 44.4277643,15.176999 44.4999103,15.215281 C44.5720564,15.253563 44.7982603,15.373167 44.9953666,15.4880131 C45.1926722,15.5980615 45.4860397,15.7272409 45.6446814,15.7750786 L45.9332657,15.8612181 L47.1599484,15.8564204 L48.3864319,15.8564204 L49.1800388,15.7703008 C49.6176985,15.7224631 50.5027835,15.6746056 51.1520982,15.6602524 L52.3305507,15.6315458 L52.7923255,15.6841811 C53.0424452,15.7176655 53.3792598,15.784654 53.5379015,15.8372893 C53.8890656,15.9569132 54.5672786,16.2870385 54.6922388,16.4018845 C54.8799781,16.5741238 55.1829119,16.7942206 55.2261597,16.7942206 C55.255058,16.7942206 55.4667131,16.9760354 55.7024833,17.2009298 C55.9380542,17.4210265 56.1449261,17.6076191 56.1690413,17.6076191 C56.2266386,17.6076191 56.2075059,17.3061805 56.1305766,17.0525994 L56.0632137,16.8181493 L55.793762,16.4832264 C55.6494699,16.296614 55.4714962,16.0908705 55.4041333,16.0191041 L55.27439,15.8899246 L55.4571467,15.6841811 C55.8274435,15.2726941 56.6355992,14.4640932 57.1165067,14.019102 C57.3907415,13.7702987 57.7658215,13.4210225 57.9535607,13.2392077 C58.1411007,13.0621708 58.3142911,12.918638 58.3431894,12.918638 C58.3671053,12.918638 58.4922648,12.8277207 58.6124418,12.7128945 C58.9588227,12.3971026 59.2665397,12.1530771 59.3243363,12.1530771 C59.3532346,12.1530771 59.4445134,12.0908862 59.5312082,12.0143222 C60.228554,11.4114648 61.7581705,10.7463967 62.749083,10.621995 C62.9511718,10.5980663 63.2541056,10.5550065 63.4272961,10.5310777 C64.1633057,10.4114539 65.1155543,10.3301319 66.3470202,10.2822744 C67.0732642,10.2583457 67.6888975,10.2439924 67.722579,10.2583457 C67.8042914,10.2870522 67.8573048,10.2439924 67.9920307,10.0430465 C68.0544111,9.94735143 68.1939201,9.74160793 68.3045308,9.58849972 C68.4103584,9.43059386 68.5307347,9.2487791 68.5691994,9.18179054 C68.6702437,8.99042015 69.0885714,8.3636142 69.1896158,8.25356581 C69.2378461,8.20093053 69.3434743,8.03826668 69.4206029,7.88993629 C69.5023153,7.74160589 69.6513906,7.51195349 69.752435,7.37797637 C69.8534794,7.24399925 70.0505857,6.94256064 70.1900947,6.71290824 C70.3343868,6.47845819 70.5749402,6.11482867 70.7335819,5.90428753 C70.8876397,5.69854403 71.0173831,5.49282036 71.0173831,5.45453835 C71.0173831,5.41625634 71.0656133,5.33013669 71.1184274,5.26314813 C71.1714409,5.19615957 71.3252994,4.98086044 71.4600252,4.78467258 C71.5995342,4.58850454 71.7390432,4.39711432 71.7725254,4.36362996 C71.8062068,4.33012576 71.8351051,4.27271266 71.8351051,4.24400611 C71.8351051,4.18181519 72.1430214,3.70811746 72.248849,3.60286671 C72.3353445,3.51194942 72.6528272,2.98563623 72.6528272,2.92822312 C72.6528272,2.89951657 72.6721591,2.87081002 72.6912918,2.86123456 C72.7395221,2.84210347 73.4225183,1.83731671 73.5379122,1.61722192 C73.5859431,1.51674304 73.6678548,1.39712713 73.7158858,1.34449581 C73.8023814,1.25358645 74.5768556,0.0622007602 74.5768556,0.0191387139 C74.5768556,0.00956936146 70.6951173,0 65.9476259,0 L57.3185954,0 L57.2223342,0.210525604 C57.1647369,0.325357754 57.0925909,0.449759415 57.0541262,0.483251712 C56.9963297,0.540668779 56.5489043,1.17224659 56.419161,1.38277187 C56.2364042,1.66985324 55.9862845,2.03828041 55.9621693,2.0574115 C55.8995896,2.10524914 55.5773238,2.60765343 55.5773238,2.65549107 C55.5773238,2.68419762 55.5388592,2.75118618 55.4908282,2.80382146 C55.3704519,2.92822312 54.9088764,3.59806907 54.7596017,3.85644785 C54.6922388,3.97127406 54.5192477,4.22965284 54.3749555,4.42582087 C54.2306633,4.62678655 54.0670392,4.86601442 54.0140258,4.96648734 C53.9612116,5.06218245 53.9034151,5.15309975 53.8890656,5.16745302 C53.8747161,5.1818063 53.7688885,5.33013669 53.6532953,5.502376 C53.5426846,5.67463512 53.4081581,5.85644989 53.3599278,5.90908517 C53.3118969,5.96170063 53.2108525,6.1243843 53.1339232,6.26793688 C53.056994,6.41146963 52.9750823,6.53109348 52.9463833,6.54064911 C52.9029362,6.55500239 52.5326394,6.05739574 52.3546658,5.7464015 C52.2055905,5.48802272 52.0660815,5.27750141 51.9746034,5.17223084 C51.9217893,5.11481774 51.7966298,4.93300298 51.6908023,4.77031931 C51.1905628,3.9760717 51.0897178,3.83251912 50.887629,3.5645847 C50.7722351,3.40669868 50.6711907,3.25359046 50.6711907,3.22008627 C50.6711907,3.19137972 50.5942615,3.06220024 50.4980003,2.93779858 C50.4017391,2.81339692 50.1179379,2.40190993 49.8728007,2.02392713 C49.6226809,1.64593045 49.3773444,1.29186251 49.324331,1.22966168 C49.2715168,1.17224659 49.1752556,1.0191364 49.1126759,0.885165229 C49.045313,0.755979803 48.9492511,0.593300098 48.8962376,0.531099268 C48.8386403,0.464114673 48.7328128,0.32057399 48.6606667,0.20574184 L48.530724,0 L39.8630297,0 C35.0916225,0 31.1907514,0.0143540377 31.1907514,0.0287080663 Z M51.5610589,18.7415873 C51.8016123,18.8612112 52.1477939,19.1434989 52.2297056,19.2726784 C52.3209844,19.4258064 52.4124624,20.0047747 52.4172456,20.430615 L52.4172456,20.8852014 L52.359449,21.1005006 C52.2344888,21.5263408 52.1093293,21.4975946 51.2483594,20.837225 C51.1281824,20.7464267 51.0175717,20.6699023 50.9982397,20.6699023 C50.979107,20.6699023 50.8491644,20.6028939 50.7096554,20.5166553 L50.4595357,20.3636066 L50.0170928,20.3443764 L49.5792338,20.3253444 L49.0789944,20.4066268 L48.578755,20.4928654 L48.0737324,20.4928654 C47.5445947,20.4928654 47.1551653,20.425857 46.8713641,20.2870822 C46.5345495,20.1148033 45.8274382,19.6363277 45.7987392,19.5502081 L45.774624,19.4927751 L46.193151,19.5358548 C46.4191556,19.5549859 47.0204394,19.5789146 47.5206789,19.5836924 L48.4344628,19.5884702 L48.6509011,19.5262793 C48.9444679,19.4401597 49.6274641,19.1100145 49.9497299,18.8946956 C50.0940221,18.7942226 50.3248098,18.6841742 50.4547525,18.6411144 L50.6953059,18.5645504 L51.007806,18.593257 L51.3205055,18.6171857 L51.5610589,18.7415873 Z" id="Shape"></path>
                    <path d="M16.4310944,3.11590042 C15.1590355,3.22161966 14.0021952,3.41380569 12.4709192,3.76938866 C12.10611,3.85107718 11.0644684,4.19704389 10.7188523,4.34600647 C10.5988403,4.39884618 10.4260422,4.45652389 10.33483,4.47573652 C10.2436376,4.49015097 9.84521549,4.66794246 9.45160656,4.86494658 C9.05797774,5.06195069 8.71236165,5.22532773 8.68837517,5.22532773 C8.63075591,5.22532773 7.78112548,5.7250552 7.56992117,5.88361415 C7.48831544,5.94609004 7.40191639,5.99413157 7.37791002,5.99413157 C7.31551734,5.99413157 6.87389568,6.29685492 6.69149105,6.46023196 C6.60988532,6.53710239 6.45146717,6.6524379 6.34106176,6.71971197 C6.23546955,6.78216795 6.09626445,6.8830691 6.03385188,6.9407468 C5.97145919,6.9984046 5.7650482,7.18099427 5.57303705,7.34437131 C4.92981761,7.88734213 3.80657029,9.07900301 3.55214657,9.48742569 C3.48494068,9.59794311 3.36494863,9.75650206 3.28813622,9.84780685 C3.1441378,10.0111839 2.75050898,10.5829836 2.75050898,10.626227 C2.75050898,10.6406414 2.61611709,10.8616762 2.45769894,11.1211562 C2.29448747,11.3806163 2.10728953,11.7121686 2.04008364,11.856333 C1.96808245,12.0004775 1.80967623,12.3368279 1.68487097,12.6011061 C1.37765711,13.2545944 1.11844803,13.8792537 1.11844803,13.9801748 C1.11844803,14.0234181 1.0560454,14.2396349 0.979240944,14.4606697 C0.768032659,15.0613182 0.657627243,15.4361138 0.523221428,15.988681 C0.393616887,16.5412681 0.3456141,16.8247788 0.2304094,17.6944838 C0.192008165,18.0116216 0.134405616,18.444075 0.10560454,18.6554936 C0.0768032659,18.8669321 0.0432019116,19.6933937 0.0288012744,20.4862482 L0,21.9374488 L0.05760235,22.6388591 C0.0912039031,23.0280891 0.148806253,23.551907 0.187207886,23.8113273 C0.225610116,24.0659693 0.278412187,24.450421 0.302412586,24.6618594 C0.36001593,25.1327182 0.619227002,26.1705984 0.854435686,26.8481174 C0.950439272,27.1268498 1.05124413,27.4392293 1.0800458,27.5449485 C1.10884747,27.6506677 1.1712501,27.8284592 1.2192509,27.9389567 C1.27205297,28.0542325 1.3104552,28.1551735 1.3104552,28.16473 C1.3104552,28.2368023 2.17928874,29.961758 2.36169337,30.250047 C2.84651455,31.0237286 3.26412985,31.6387319 3.41294147,31.7974103 C3.49934052,31.8885956 3.56654641,31.9895366 3.56654641,32.0184053 C3.56654641,32.047274 3.7393644,32.2587125 3.95056871,32.4844858 C4.16177302,32.7102591 4.33459101,32.912141 4.33459101,32.9314532 C4.33459101,32.9746567 5.19382797,33.810655 5.48663801,34.0461839 C5.60663006,34.1423466 5.85144725,34.3585633 6.03385188,34.5218209 C6.2162565,34.6900559 6.38907449,34.8246438 6.41787417,34.8246438 C6.44667386,34.8246438 6.62428516,34.9494762 6.81629631,35.1031772 C7.00349425,35.2522991 7.39230987,35.5164976 7.68032659,35.6847325 C7.9635301,35.8527684 8.25154683,36.0257816 8.31875272,36.0689851 C8.44835129,36.1603696 8.74597454,36.3140706 9.23558904,36.5448213 C9.40838714,36.6264501 9.75881644,36.794685 10.0132203,36.9147391 C10.2676241,37.0349922 10.5460542,37.1454897 10.6324532,37.1646028 C10.7188523,37.1791367 10.8148579,37.2078063 10.8388642,37.2271185 C10.9348698,37.2944125 12.7637292,37.8950809 12.9749534,37.9287279 C13.0949455,37.9430627 13.4069686,38.0103567 13.6709789,38.0728724 C14.3046118,38.2170169 15.3798463,38.3995867 16.2390833,38.5053059 L16.9351088,38.5964912 L18.8791869,38.5964912 L20.8232848,38.5964912 L21.4233445,38.5341746 C22.3161745,38.4380119 23.5258407,38.2456865 24.2315125,38.0872072 C24.572216,38.0103567 24.8985991,37.947841 24.9515046,37.947841 C25.1434362,37.947841 26.4923274,37.505851 27.0251614,37.270322 C27.1355469,37.217562 27.2699984,37.1791367 27.3179316,37.1791367 C27.4667035,37.1791367 29.2237228,36.2804236 29.7229438,35.9489311 C29.9773278,35.7806962 30.2076457,35.641529 30.2412586,35.641529 C30.2700981,35.641529 30.3037109,35.6222168 30.3132578,35.5981264 C30.3228047,35.574235 30.5051894,35.4251132 30.7261593,35.2570773 C30.942157,35.0936207 31.1197683,34.9446979 31.1197683,34.9206074 C31.1197683,34.8967161 31.162928,34.8630691 31.2156346,34.8485352 C31.326219,34.8148882 32.5885919,33.5753252 32.8572961,33.2388553 C32.9485879,33.1188012 33.1454918,32.8832723 33.2845179,32.7102591 C33.4285164,32.5374449 33.5774871,32.3403413 33.6158734,32.2634908 C33.6542597,32.1914185 33.8461913,31.9031295 34.0383218,31.6196188 C34.22548,31.3408863 34.3837987,31.0717104 34.3837987,31.0237286 C34.3837987,30.9805251 34.4030913,30.9325433 34.422185,30.9227877 C34.4846373,30.8988963 35.1519228,29.6013967 35.1519228,29.5054331 C35.1519228,29.452474 35.1710165,29.3949356 35.1903091,29.3660669 C35.3006947,29.2458138 35.9679801,27.4872111 35.9679801,27.3237544 L35.9679801,27.2325691 L30.3132578,27.2325691 L24.6635078,27.2325691 L24.5769894,27.3910484 C24.5290562,27.4776545 24.4041515,27.6458895 24.2985394,27.7659435 C24.1929273,27.8812193 24.0250618,28.0831012 23.9289965,28.2079335 C23.679386,28.5346478 22.8153955,29.2603477 22.4649463,29.4429174 C22.3016553,29.5245462 22.0472714,29.6543559 21.9032729,29.7264281 C21.7592745,29.8032787 21.4328914,29.928111 21.1832809,30.0099389 L20.7272196,30.1588616 L20.1271599,30.2309339 C19.4456138,30.3173409 18.3751725,30.3318749 17.7751526,30.2598026 C17.5495484,30.2309339 17.1943258,30.1877304 16.9831215,30.1636399 C16.474294,30.1059025 15.9030737,29.9233327 15.2310347,29.6013967 C14.6646277,29.3276416 14.3429981,29.1257597 14.0069885,28.8229368 C13.6517659,28.5010008 13.2629503,28.0926578 13.2629503,28.0349203 C13.2629503,28.0062507 13.2101641,27.9292011 13.1525449,27.8621062 C13.0085464,27.7082061 12.638924,27.078868 12.5333318,26.8240269 C12.2597149,26.1417297 11.9669049,24.926058 11.8949057,24.1669102 L11.8612928,23.8208838 L24.1595133,23.8208838 L36.4624277,23.8208838 L36.4335883,21.8365078 L36.4047488,19.8567707 L36.3327496,19.1600392 C36.1792043,17.6704531 35.9055278,16.0559551 35.6702376,15.2679187 C35.4926263,14.6769064 35.2334689,13.8984862 35.199856,13.8504248 C35.1807623,13.8215959 35.1519228,13.7254929 35.1374036,13.6342081 C35.1135365,13.470831 34.7919268,12.7020272 34.5470897,12.2311286 C34.4846373,12.1061967 34.4030913,11.9235872 34.3694784,11.822686 C34.3358655,11.7217849 34.1773479,11.4286778 34.0190292,11.1691978 C33.8654839,10.9097178 33.6590332,10.5589529 33.5677413,10.3907777 C33.4766484,10.2226025 33.3565172,10.0351947 33.3038105,9.97273872 C33.2509051,9.91026283 33.111879,9.72767316 32.9917477,9.55949794 C32.6846571,9.12224636 32.0364654,8.34862443 31.9837588,8.34862443 C31.9549193,8.34862443 31.9358256,8.31979553 31.9358256,8.28135036 C31.9358256,8.17563113 30.4717754,6.81099685 30.361191,6.81099685 C30.327777,6.81099685 30.3037109,6.79178422 30.3037109,6.77255168 C30.3037109,6.7389246 29.5308134,6.12867971 29.3724947,6.03737492 C28.8828205,5.74908592 28.6859166,5.62895223 28.63321,5.5809107 C28.5132776,5.45597884 26.7514848,4.60546657 26.266783,4.43249317 C24.9946644,3.97600905 24.2458328,3.74055976 23.8713176,3.67328569 C23.6457731,3.63004234 23.204231,3.54355565 22.8873947,3.47628158 C22.1769495,3.32731899 21.0728953,3.17355822 20.2520646,3.11110224 C19.536826,3.05342453 17.1031136,3.05824262 16.4310944,3.11590042 Z M23.6505465,8.60810444 C23.8379036,8.68497487 24.2074465,9.09821564 24.2889926,9.31925048 C24.3562183,9.51145641 24.3705386,10.2850584 24.3082852,10.5012951 L24.2601531,10.659854 L24.3321523,10.6887028 C24.3705386,10.7031173 24.5242828,10.8760907 24.6682812,11.0682966 C24.817053,11.2653007 24.9610515,11.4382941 24.9946644,11.4575067 C25.0859562,11.5199627 25.4554991,11.9860631 25.4554991,12.0437209 C25.4554991,12.0725498 25.4938854,12.1350256 25.5418186,12.1830672 C25.6522041,12.2935846 25.8202685,12.5626809 25.964267,12.8702024 L26.0794259,13.1056517 L26.1514251,13.5525195 C26.1898114,13.7975652 26.2283966,14.3069089 26.2379435,14.6769064 L26.2474904,15.3544253 L26.6315524,15.7580498 L27.0156145,16.1616743 L27.3227051,16.7575048 C27.6827011,17.4638526 27.9132179,17.8146175 28.1916679,18.0788957 C28.4172124,18.2951124 28.5275979,18.477722 28.5275979,18.6410791 C28.5275979,18.703555 28.4796647,18.8332851 28.4172124,18.929388 C28.29728,19.1312103 27.4955429,19.8759834 27.2938656,19.9769642 C27.2218664,20.0153894 27.0828403,20.111353 26.9963219,20.1884026 C26.905229,20.2652532 26.6699388,20.4046194 26.4780072,20.4958047 L26.1227845,20.6640397 L25.4650459,20.6351709 L24.8075062,20.6110805 L24.1595133,20.4910264 C23.0986189,20.2891445 21.3465719,20.2075157 20.4103833,20.313235 C20.0265201,20.3564385 19.0567982,20.6110805 18.951206,20.6976867 C18.9271996,20.7167997 18.7832012,20.7697589 18.6391829,20.8081842 C18.4903712,20.8513877 18.2743736,20.9475504 18.1591749,21.0244009 C18.0391629,21.1012514 17.8087456,21.2453959 17.6455341,21.3511152 C17.4775293,21.4520561 17.3431375,21.5529971 17.3431375,21.5721102 C17.3431375,21.5962006 17.3191311,21.6105354 17.2903314,21.6105354 C17.2615317,21.6105354 17.1367265,21.6971416 17.0119212,21.8028608 C16.8871159,21.9085801 16.7623107,21.9949871 16.7286978,21.9949871 C16.6998981,21.9949871 16.5174935,21.9085801 16.3254823,21.8028608 C16.1334712,21.6971416 15.9510666,21.6105354 15.9222669,21.6105354 C15.8598742,21.6105354 15.1830419,21.1589889 14.8710188,20.9139034 C14.5494091,20.6592614 13.7189718,19.8183256 13.5029742,19.5204203 C13.2965632,19.2417277 12.9653469,18.6603117 12.7877356,18.2711016 C12.5237253,17.6848875 12.4565194,17.3869623 12.3509272,16.2817881 L12.3029144,15.7820606 L12.3509272,15.2487061 C12.4325329,14.3357378 12.4853191,14.0570452 12.6629304,13.5861466 C12.7589359,13.3362829 12.9317539,12.9711036 13.051746,12.7740994 C13.1669646,12.5818935 13.2629503,12.404102 13.2629503,12.3848894 C13.2629503,12.3656568 13.3349694,12.2695539 13.4213684,12.1638545 C13.963789,11.5103663 14.6742143,10.8905051 15.2118416,10.6021962 C16.267883,10.0351947 16.4646874,9.948708 16.9591152,9.81897795 C17.1319133,9.7757346 17.4679427,9.68442981 17.7031534,9.62197383 C17.9431574,9.55469976 18.331973,9.46339498 18.5671837,9.42015163 L18.9991988,9.3432812 L20.5257411,9.32886675 L22.0520448,9.30963421 L22.3016553,9.0501542 C22.4408803,8.91080788 22.6618502,8.73783449 22.7913295,8.67056042 L23.0313931,8.54562855 L23.261711,8.54083037 C23.3866157,8.54083037 23.564227,8.56965927 23.6505465,8.60810444 Z" id="Shape"></path>
                    <path d="M18.6826856,10.2370282 L18.3698396,10.3909963 L18.2235048,10.5776372 L18.0771699,10.7689374 L18.0418354,11.0115667 L18.0115607,11.2495368 L18.1276208,11.5854866 L18.243681,11.9214364 L18.4303891,12.0987394 C18.5313119,12.2013784 18.6524108,12.2807018 18.7028826,12.2807018 C18.7482948,12.2807018 18.8037845,12.2387104 18.8239816,12.1873813 C18.8441578,12.1313929 18.8441578,11.8981014 18.8239816,11.6648099 L18.7836083,11.2448582 L18.8340801,11.0675551 L18.8845311,10.8855928 L19.0561019,10.7922723 L19.2226129,10.6942926 L19.434557,10.6942926 C19.6868534,10.6942926 19.8735825,10.773616 20.2570346,11.0488988 C20.4134262,11.1608756 20.5647999,11.254196 20.5951165,11.254196 C20.6860661,11.254196 20.6557496,11.0908901 20.5244475,10.8715957 L20.4033904,10.6662984 L20.0653086,10.4423254 C19.696952,10.185699 19.4547332,10.0923786 19.1772008,10.0877193 L18.9955524,10.0877193 L18.6826856,10.2370282 Z" id="Path"></path>
                    <path d="M22.9997291,14.0367561 C22.9871675,14.0640406 22.9449467,14.3043062 22.9112747,14.5718336 L22.8439306,15.068722 L22.885977,15.3035127 L22.9281979,15.5437557 L23.0375883,15.6638885 L23.1471532,15.7894737 L23.3828573,15.7894737 C23.6649694,15.7894737 24.1112545,15.6420338 24.1407393,15.5328283 L24.1618497,15.4564049 L23.5934382,14.7247258 C23.2776541,14.3206859 23.0122907,14.0094491 22.9997291,14.0367561 Z" id="Path"></path>
                    <path d="M56.5627756,22.0193908 C56.5378784,22.0687172 56.5006185,22.1938874 56.4798422,22.2969906 C56.4633586,22.4043588 56.4176851,22.6012933 56.3804252,22.73555 C56.322389,22.9771749 56.2312139,23.7155865 56.2312139,23.9885504 L56.2312139,24.122807 L56.28925,24.122807 C56.322389,24.122807 56.4674795,23.9976368 56.6166908,23.8409422 L56.8818028,23.5635279 L56.9978752,23.317267 L57.1098266,23.0756421 L57.0890503,22.8204803 L57.0682741,22.5655039 L56.8776819,22.2476642 C56.774144,22.0731677 56.6704344,21.9298246 56.6498298,21.9298246 C56.6249326,21.9298246 56.5876727,21.9702499 56.5627756,22.0193908 Z" id="Path"></path>
                    <polygon id="Path" points="41.2947977 45.8333333 41.2947977 49.5614035 41.5143208 49.5614035 41.734104 49.5614035 41.734104 45.8333333 41.734104 42.1052632 41.5143208 42.1052632 41.2947977 42.1052632"></polygon>
                    <path d="M64.6213502,42.1287508 C64.5967449,42.1484233 64.5780347,42.4469588 64.5780347,42.7943714 L64.5780347,43.4210526 L64.7946122,43.4210526 L65.017341,43.4210526 L64.9986308,42.7700343 L64.9801769,42.1238834 L64.8256251,42.1090783 C64.7389941,42.0993434 64.6462117,42.1090783 64.6213502,42.1287508 Z" id="Path"></path>
                    <polygon id="Path" points="75.5606936 45.8333333 75.5606936 49.5614035 75.7804769 49.5614035 76 49.5614035 76 45.8333333 76 42.1052632 75.7804769 42.1052632 75.5606936 42.1052632"></polygon>
                    <polygon id="Path" points="2.63583815 45.8333333 2.63583815 49.122807 4.39307414 49.122807 6.15028902 49.122807 6.15028902 48.9582749 6.15028902 48.7939375 4.56114748 48.7843966 2.96691985 48.7703773 2.96691985 47.3606585 2.96691985 45.950745 4.43380512 45.9367257 5.89562539 45.9273795 5.89562539 45.7628474 5.89562539 45.5983153 4.41852573 45.5983153 2.94144716 45.5983153 2.95164046 44.2448684 2.96691985 42.8962894 4.56114748 42.8820753 6.15028902 42.8727291 6.15028902 42.708197 6.15028902 42.5438596 4.39307414 42.5438596 2.63583815 42.5438596"></polygon>
                    <path d="M49.3339749,42.5814392 C48.9872199,42.6801584 48.6454631,42.9574291 48.4442827,43.3003179 L48.3538973,43.4555038 L48.3389025,45.729941 L48.3236994,48.0090513 L48.4090865,48.2580886 L48.4946819,48.5073207 L48.7510516,48.742144 L49.0074212,48.977162 L49.2435895,49.0523211 L49.4797578,49.122807 L50.6006201,49.1087877 L51.7214823,49.0945737 L51.9426558,48.9865082 C52.2242251,48.8455364 52.4351937,48.6340785 52.5659818,48.3663488 L52.666572,48.154891 L52.6915634,47.6472754 L52.716763,47.1445276 L52.5105843,47.1445276 L52.3096122,47.1445276 L52.2894108,47.703742 L52.274416,48.2629564 L52.1186366,48.4415078 L51.9628571,48.6200592 L51.716484,48.7045645 L51.4701109,48.7845913 L50.5052364,48.7892644 L49.5451519,48.7892644 L49.2585843,48.6858721 L48.9772233,48.5871528 L48.841437,48.3239015 L48.7056506,48.0608448 L48.7056506,45.8286602 L48.7056506,43.5964757 L48.8464353,43.3567845 L48.9822216,43.1217665 L49.1983968,43.0043548 L49.4093655,42.8916162 L50.3844449,42.8774022 L51.3647307,42.8587098 L51.5859042,42.9198496 L51.8068694,42.9761215 L52.043246,43.1829062 L52.274416,43.3896909 L52.2996156,43.9629247 L52.324607,44.5363531 L52.5155826,44.5503724 L52.7015599,44.5645864 L52.7015599,44.151017 C52.7015599,43.9253451 52.6765686,43.6529423 52.6463707,43.5495499 C52.6161728,43.4461576 52.5257874,43.2722793 52.4453985,43.159346 C52.3648014,43.0466074 52.2996156,42.9432151 52.2996156,42.9245227 C52.2996156,42.8727291 51.9678554,42.6754853 51.7616767,42.6049994 L51.5707011,42.5438596 L50.5152329,42.5438596 C49.9370996,42.5485328 49.4043672,42.5625521 49.3339749,42.5814392 Z" id="Path"></path>
                    <path d="M22.5373645,43.0046926 C22.5173501,43.0234059 22.5021309,43.2421787 22.5021309,43.4935552 L22.5021309,43.9500071 L22.0695278,43.9638975 L21.6317126,43.9777878 L21.5814681,44.0570785 L21.5260116,44.1315461 L21.5914753,44.2060137 L21.6569391,44.2804814 L22.079535,44.2804814 L22.4971272,44.2804814 L22.5123465,46.2453852 L22.5273573,48.2149192 L22.6230512,48.3779377 C22.6732957,48.4662957 22.8092269,48.6293142 22.9199316,48.7410157 L23.1261217,48.9366379 L23.3977755,49.029626 L23.6644258,49.122807 L24.1072446,49.122807 L24.5550669,49.122807 L24.585297,49.0483394 C24.6055199,49.0064754 24.6055199,48.9320078 24.5903006,48.8853208 L24.5600705,48.7969629 L24.1677048,48.7969629 L23.7803426,48.7969629 L23.5287031,48.7224952 C23.3927719,48.6804384 23.24183,48.6106009 23.1915855,48.573367 C23.1411325,48.5315031 23.0506507,48.4057184 22.9901905,48.2893868 L22.8794858,48.0752441 L22.8794858,46.189438 L22.8794858,44.3038249 L23.5589332,44.2945646 C23.9312846,44.2851115 24.2884166,44.2712212 24.3538804,44.2571379 L24.4695887,44.2293572 L24.4545779,44.1035725 L24.4393586,43.9777878 L23.649415,43.9638975 L22.8594714,43.9500071 L22.8444606,43.4750348 L22.8292413,43.0000624 L22.7035258,42.9861721 C22.6330584,42.976719 22.5575874,42.9861721 22.5373645,43.0046926 Z" id="Path"></path>
                    <path d="M66.8783888,43.0360163 L66.8169071,43.0918478 L66.8169071,43.5238683 L66.8169071,43.9560812 L66.4382647,43.9560812 C66.2285909,43.9560812 66.0237933,43.9699429 65.977788,43.983997 L65.8959538,44.0117202 L65.8959538,44.1185702 L65.8959538,44.2256127 L65.977788,44.253336 C66.0237933,44.2673901 66.2285909,44.2812517 66.4331765,44.2812517 L66.8118189,44.2812517 L66.8272954,46.1724 L66.8476479,48.0681689 L66.9396584,48.2864894 C67.0420573,48.5327256 67.2364666,48.7233229 67.6100209,48.9416434 L67.8608238,49.0902707 L68.4183991,49.1089454 L68.9710983,49.122807 L68.9558338,48.9695591 L68.9403574,48.8114982 L68.4798808,48.7837749 C68.2290779,48.7697208 67.9375699,48.7279434 67.8402592,48.6954071 C67.6407617,48.625714 67.4717931,48.4817072 67.3388654,48.2633867 L67.251943,48.1145668 L67.2364666,46.1956952 L67.2212022,44.2812517 L67.978487,44.2812517 C68.3929584,44.2812517 68.7665126,44.2627696 68.8021296,44.2394743 L68.8737876,44.2023175 L68.853435,44.090847 L68.8379586,43.9791839 L68.0346685,43.9653223 L67.2262903,43.9514607 L67.2262903,43.4959525 L67.2262903,43.0360163 L67.1444561,43.0081006 C67.0217047,42.9663232 66.9449586,42.9755643 66.8783888,43.0360163 Z" id="Path"></path>
                    <path d="M7.14284748,43.9069553 C7.12917323,43.9354176 7.15196994,44.011186 7.20211513,44.0869544 C7.25226032,44.1580119 7.41179947,44.4375306 7.5530937,44.7123384 C7.69895861,44.9871462 7.90409117,45.3471444 8.00893334,45.5177215 C8.19582098,45.8160842 8.25051796,45.9250259 8.41917957,46.2852204 L8.50122504,46.4605085 L8.42375024,46.5788721 C8.38270862,46.6452186 8.35080834,46.720987 8.35080834,46.7494492 C8.35080834,46.7967554 8.04540429,47.3084868 7.70808107,47.8296401 C7.63515806,47.9385818 7.57589041,48.0522344 7.57589041,48.0759857 C7.57589041,48.1232919 7.3069573,48.6016537 7.25681211,48.6444452 C7.2112187,48.6870404 7.02890173,49.0281946 7.02890173,49.0755008 L7.02890173,49.122807 L7.22489295,49.108674 L7.41635126,49.0943448 L7.50751919,48.9049237 C7.61691314,48.6823294 7.89496871,48.1990603 8.10922373,47.8531951 C8.19126919,47.7205022 8.30066315,47.5073298 8.35536013,47.3795442 C8.40550532,47.2562733 8.46477297,47.1426207 8.482999,47.1284877 C8.50122504,47.1141584 8.57416693,47.0005058 8.64708994,46.8772349 L8.77472882,46.6499296 L8.90236769,46.8868531 C8.9752907,47.0146387 9.05278438,47.1331987 9.08013287,47.1520426 C9.10292958,47.1663719 9.12572628,47.2183891 9.12572628,47.2609843 C9.12572628,47.3037758 9.22599778,47.5026189 9.34451419,47.6969472 C9.57244345,48.0710784 9.77755712,48.4359839 9.99181214,48.8479992 L10.1148803,49.0943448 L10.3291165,49.108674 L10.5433526,49.122807 L10.4658778,48.9665592 C10.4248362,48.8811725 10.3473614,48.7437686 10.2926455,48.6680001 C10.1148803,48.4169436 9.90064421,48.0284832 9.90064421,47.9621367 C9.90064421,47.9242525 9.8823993,47.8863683 9.86417327,47.8769463 C9.84594724,47.8675243 9.77755712,47.7774266 9.71830836,47.673196 C9.65904071,47.5689653 9.49950156,47.3084868 9.3673109,47.0953145 C9.23512024,46.8868531 9.12572628,46.6831028 9.12572628,46.6452186 C9.12572628,46.6073344 9.10292958,46.5551209 9.0710293,46.5219477 L9.02088411,46.4699305 L9.11660382,46.2330069 C9.16674901,46.100314 9.30349146,45.8445465 9.41745609,45.6598364 C9.53142072,45.4751263 9.77300534,45.0534926 9.95077052,44.7217604 C10.1285546,44.3902244 10.3063198,44.0822434 10.3427907,44.0396482 C10.4339586,43.9354176 10.3838135,43.8596491 10.2197225,43.8596491 L10.0875319,43.8596491 L9.99181214,43.9638798 C9.94166695,44.020608 9.90064421,44.0869544 9.90064421,44.1107057 C9.90064421,44.1344569 9.72743082,44.4565709 9.5131758,44.830702 C9.29893967,45.2003185 9.12572628,45.5177215 9.12572628,45.5365655 C9.12572628,45.5887789 8.78840306,46.1809897 8.76105457,46.1809897 C8.73370608,46.1809897 8.5559409,45.8588757 8.21861768,45.2144515 C8.10922373,45.0012792 8.00893334,44.8212801 7.99070731,44.8071471 C7.9451139,44.7692629 7.57589041,44.1107057 7.57589041,44.0584922 C7.57589041,44.0349372 7.53941946,43.9827238 7.49384494,43.9401285 C7.40267701,43.8500309 7.18844088,43.8311869 7.14284748,43.9069553 Z" id="Path"></path>
                    <path d="M11.9160396,43.8890715 L11.8612717,43.9270171 L11.8703871,46.5130172 L11.884079,49.0942987 L12.0529594,49.1086512 L12.2218397,49.122807 L12.2355317,46.9923503 L12.2492237,44.861697 L12.4089697,44.6198677 L12.5687158,44.3731233 L12.7832486,44.278161 L12.9977626,44.1831988 L13.6778416,44.1831988 L14.3579017,44.1831988 L14.5587237,44.2923169 L14.7595646,44.401435 L14.8736581,44.6340236 L14.9877706,44.8713308 L15.0105968,46.9829131 L15.0334042,49.0942987 L15.2068422,49.1086512 L15.3757225,49.122807 L15.3757225,47.0588042 L15.3757225,44.9946048 L15.2844364,44.7431417 C15.2342451,44.6055153 15.115575,44.3919977 15.0242888,44.2734424 L14.8508319,44.0550097 L14.5769923,43.9649627 L14.3031338,43.8747191 L13.6413234,43.8747191 L12.9795129,43.8747191 L12.7421727,43.9602441 L12.5048325,44.0455724 L12.3678938,44.2069885 L12.230974,44.3731233 L12.217282,44.1214636 L12.20359,43.8747191 L12.0894776,43.8605632 C12.0255754,43.8558446 11.9479812,43.8700005 11.9160396,43.8890715 Z" id="Path"></path>
                    <path d="M18.0686068,43.930834 C17.9453804,43.9687862 17.7947702,44.0161772 17.7354263,44.0305321 C17.6030657,44.0637649 17.3474785,44.391176 17.2288097,44.6806349 L17.132948,44.9085445 L17.132948,46.4651728 L17.132948,48.0218012 L17.2059837,48.2544302 L17.2790194,48.491582 L17.470705,48.7147722 L17.6669672,48.9377657 L17.9043049,49.0278283 L18.1370849,49.122807 L19.3694064,49.122807 L20.6018224,49.122807 L20.6018224,48.9566434 L20.6018224,48.7906765 L19.4196161,48.7906765 L18.2374854,48.7906765 L17.9773217,48.6862589 L17.7217345,48.5865607 L17.6395835,48.4630687 C17.5939315,48.3968 17.5300489,48.1879648 17.4980887,48.0076429 L17.4433214,47.6753157 L17.4615708,47.2008154 L17.4752627,46.7261185 L19.0499177,46.7025213 L20.6245161,46.6787275 L20.6383214,45.8481062 L20.6473988,45.0224009 L20.6018224,44.7708942 L20.5515182,44.5193874 L20.3597569,44.3009167 L20.1681848,44.0826426 L19.985501,44.0114577 C19.6615114,43.8881624 19.4469997,43.8596491 18.8673474,43.8596491 L18.2968292,43.8596491 L18.0686068,43.930834 Z M19.9308093,44.3485044 C20.0267277,44.4244087 20.1589182,44.5809367 20.2228386,44.6997093 L20.341602,44.9085445 L20.3644848,45.639271 L20.3871784,46.3701941 L18.9175571,46.3701941 L17.4524555,46.3701941 L17.4524555,45.7769213 C17.4524555,45.4542296 17.4752627,45.0745114 17.5026463,44.9368611 C17.5300489,44.7994074 17.6076233,44.6141695 17.6669672,44.5241068 C17.7308687,44.438567 17.867787,44.3247105 17.972764,44.2773195 L18.159892,44.1870602 L18.9586326,44.1964991 L19.7573542,44.2108541 L19.9308093,44.3485044 Z" id="Shape"></path>
                    <path d="M25.4817993,43.9022443 C25.46761,43.9307066 25.5292939,44.1958961 25.6197505,44.4944551 C25.7149368,44.7928178 25.7910071,45.0629146 25.7910071,45.1007988 C25.7910071,45.143394 25.9622637,45.6930096 26.1715554,46.3278156 C26.3808471,46.9626216 26.5662929,47.5595433 26.5804822,47.6494447 C26.6137876,47.8296401 26.7897739,48.4169436 26.9419144,48.8479992 L27.0418305,49.122807 L27.2369329,49.108674 L27.4271085,49.0943448 L27.7934676,47.8390621 C27.9931027,47.1473316 28.1834754,46.4652195 28.2167807,46.3231046 C28.249889,46.1809897 28.3261563,45.9014709 28.3831105,45.7071426 C28.4449915,45.5130105 28.5543671,45.152816 28.6257076,44.9064705 L28.758929,44.4612819 L28.8635749,44.7881068 C28.9254559,44.9681059 28.9729505,45.1624343 28.9729505,45.2191625 C28.9776802,45.3233931 29.0251749,45.5033922 29.3820744,46.7019468 C29.7387768,47.9006976 29.7862715,48.0806967 29.7910012,48.1849273 C29.7910012,48.2416555 29.8528822,48.4691571 29.9242227,48.6917514 L30.0525173,49.0943448 L30.2856549,49.0943448 L30.5235222,49.0943448 L30.5854032,48.810115 C30.6187085,48.6538672 30.8136139,48.0047319 31.0181759,47.365215 C31.2227378,46.725698 31.4223729,46.076759 31.4604081,45.9203149 C31.50337,45.7640671 31.6555105,45.266665 31.8029212,44.8118581 C31.950332,44.3570512 32.0693642,43.9591688 32.0693642,43.9210883 L32.0693642,43.8596491 L31.9408725,43.8596491 C31.8648022,43.8596491 31.7838051,43.8784931 31.7506968,43.8975333 C31.7030051,43.9259956 31.6127456,44.2055143 31.3129973,45.2570467 C31.2607729,45.4372421 31.1084354,45.9299332 30.975411,46.3466595 C30.8374598,46.7635822 30.6947788,47.2327184 30.6567437,47.3889662 C30.4996764,47.9953099 30.2903846,48.6444452 30.2570793,48.611272 C30.2190442,48.5637695 29.7862715,47.0621412 29.7862715,46.9673326 C29.7862715,46.9247373 29.6435905,46.408295 29.4723339,45.8160842 C29.3010773,45.2191625 29.1156315,44.5655125 29.06321,44.3570512 C29.0062559,44.1485899 28.9587612,43.9495505 28.9491046,43.9163773 L28.9349154,43.8596491 L28.8016939,43.8596491 C28.7303534,43.8596491 28.6448237,43.8784931 28.6162481,43.8975333 C28.5590968,43.9307066 28.169089,45.1956075 28.169089,45.3424334 C28.169089,45.3897396 27.9883729,46.0388748 27.7648919,46.7873335 C27.5412139,47.5357921 27.3604978,48.1990603 27.3604978,48.2654067 C27.355768,48.3317532 27.3271924,48.4454058 27.2938871,48.5258853 L27.2322032,48.6680001 L27.0085251,47.9574257 C26.8802305,47.5642543 26.7375495,47.1235804 26.6898578,46.9767545 C26.6423632,46.8252177 26.5995983,46.6689698 26.5995983,46.6214673 C26.5995983,46.5741611 26.4663768,46.1287762 26.3095066,45.6360851 C26.1524393,45.1386831 25.9622637,44.5417613 25.8909232,44.3095487 L25.7624315,43.8832041 L25.6388666,43.8690711 C25.5722558,43.8596491 25.5009154,43.8784931 25.4817993,43.9022443 Z" id="Path"></path>
                    <path d="M34.0032436,43.8721022 C33.7416607,43.9433128 33.3930101,44.0998976 33.3011899,44.1901896 C33.2414973,44.2470401 33.1359896,44.3894614 33.0717345,44.508277 L32.9479769,44.721909 L32.9479769,46.4783733 L32.9479769,48.2350342 L33.0489221,48.4297816 C33.1726797,48.6719373 33.3791325,48.8570457 33.6958456,49.0041881 L33.934426,49.122807 L34.7511124,49.1039224 L35.5632363,49.0895623 L35.7696891,48.9756645 C35.9989544,48.8523245 36.1780323,48.6575771 36.3339175,48.3774556 L36.4348627,48.187626 L36.4487403,46.559223 L36.4624277,44.9308199 L36.3477951,44.669583 C36.28354,44.5271616 36.1687172,44.3326109 36.0953371,44.2375978 L35.9577019,44.0666529 L35.714559,43.9716397 L35.4714161,43.8815445 L34.78324,43.8624631 C34.4070243,43.857742 34.0536212,43.857742 34.0032436,43.8721022 Z M35.6181763,44.2755637 C35.7282465,44.3326109 35.8751968,44.4512298 35.9440144,44.5462429 L36.067772,44.71227 L36.0816496,46.2600201 C36.0907746,47.109827 36.0862051,47.921668 36.067772,48.0593681 L36.0356445,48.3109661 L35.9073243,48.4630264 L35.7788141,48.61489 L35.5447962,48.705182 L35.3153408,48.7905561 L34.5904746,48.7714748 L33.8656084,48.7525902 L33.7140956,48.6672161 C33.5260828,48.5627607 33.3608826,48.3347685 33.2966274,48.0926129 L33.2462499,47.9027834 L33.2462499,46.4356862 L33.2462499,44.9640646 L33.33788,44.7693172 C33.4297002,44.5745698 33.7095331,44.2661214 33.8426058,44.2090742 C33.8792959,44.1949107 34.250949,44.1805506 34.6638547,44.1805506 L35.4208485,44.1758294 L35.6181763,44.2755637 Z" id="Shape"></path>
                    <path d="M37.8159515,43.8928223 C37.7955157,43.9069553 37.7803468,45.0913769 37.7803468,46.5219477 L37.7803468,49.122807 L37.9735388,49.108674 L38.1616745,49.0943448 L38.1871666,47.0099278 L38.212448,44.9255107 L38.2937698,44.7596446 C38.3854149,44.5655125 38.6447598,44.3476292 38.883669,44.2528205 L39.0463126,44.1911851 L39.4430198,44.1911851 C39.6617039,44.1911851 39.8700647,44.1723411 39.9056694,44.1485899 L39.9768786,44.1107057 L39.9564428,43.997053 L39.941274,43.8832041 L39.4836807,43.8832041 L39.0260875,43.8832041 L38.7005896,43.997053 L38.3803586,44.1107057 L38.2836572,44.2575315 L38.1871666,44.4043574 L38.1871666,44.2055143 C38.1871666,44.0963764 38.1717871,43.9780128 38.1566182,43.9354176 L38.1260699,43.8596491 L37.9887076,43.8596491 C37.9124421,43.8596491 37.8311203,43.8737821 37.8159515,43.8928223 Z" id="Path"></path>
                    <path d="M44.2043874,43.9648433 C44.1452202,44.0263272 43.8859402,44.4056412 43.6268485,44.8087238 C43.3675685,45.2116099 43.1446554,45.5530121 43.1265661,45.5671554 C43.0811544,45.6050671 42.808119,46.0317218 42.808119,46.0649191 C42.808119,46.0839732 42.7627073,46.1645111 42.7080625,46.2403347 L42.6127168,46.3872673 L42.6716954,46.4868593 C42.7080625,46.5391108 42.7627073,46.6481316 42.8035966,46.7239551 C42.8399637,46.8044931 43.0219873,47.0842151 43.2128672,47.3497938 C43.5267921,47.7905917 43.8269615,48.231586 44.2635545,48.8857112 L44.4180673,49.122807 L44.6136579,49.122807 C44.7227591,49.122807 44.8092486,49.1133782 44.8092486,49.0990385 C44.8092486,49.0848953 44.7227591,48.9521059 44.6181802,48.8051733 C44.5090791,48.662955 44.4045003,48.5065936 44.3771779,48.463771 C44.2543214,48.2457293 44.0634415,47.9565784 44.013319,47.9139522 C43.9859967,47.8854693 43.8633285,47.7147682 43.7449943,47.5346382 C43.6313709,47.3497938 43.517559,47.1790927 43.4994697,47.1553242 C43.4766696,47.1268413 43.3540015,46.9516221 43.2221003,46.7618669 L42.981098,46.4157502 L43.2447119,46.0128641 C43.3948909,45.7948224 43.5358367,45.5765842 43.5586368,45.5292436 C43.6858272,45.3064875 43.8904625,44.9888537 44.1133755,44.6853632 C44.2452767,44.5005188 44.3543779,44.3298177 44.3543779,44.3013348 C44.3543779,44.2728518 44.4090226,44.1828851 44.4727121,44.1023471 C44.5364015,44.0216128 44.5772909,43.9363604 44.5590131,43.9078775 C44.5090791,43.8226251 44.3180108,43.8558225 44.2043874,43.9648433 Z" id="Path"></path>
                    <path d="M54.9856758,43.9259956 C54.8524301,43.9638798 54.687015,44.0255152 54.6135395,44.0633995 C54.4435561,44.1580119 54.2505401,44.3902244 54.13119,44.6603212 L54.0346821,44.8734935 L54.0346821,46.4840634 L54.0346821,48.0948296 L54.1724962,48.3790594 L54.3103104,48.6632891 L54.540064,48.8432882 C54.668551,48.9380969 54.8524301,49.0423276 54.948938,49.0707898 L55.1280583,49.122807 L55.8677624,49.1039631 L56.6072761,49.0896338 L56.7957236,48.9855994 C56.9013684,48.9286749 57.0252869,48.8244443 57.0713519,48.7486759 L57.1585327,48.615983 L57.1815651,48.8529065 L57.2045976,49.0896338 L57.3791495,49.1039631 L57.5491329,49.118096 L57.5399961,46.4983927 L57.5261005,43.8784931 L56.3777128,43.8690711 L55.2291347,43.8596491 L54.9856758,43.9259956 Z M57.1724283,46.1619495 L57.1585327,48.1423321 L57.0667835,48.3317532 L56.9748439,48.5211743 L56.7450902,48.6397342 L56.5155269,48.7533868 L55.8630036,48.7722308 L55.2061023,48.7912711 L54.9672117,48.7107916 L54.7237528,48.6350232 L54.5996439,48.4548278 C54.5307368,48.3555044 54.4526929,48.1849273 54.425092,48.0663674 L54.374649,47.8579061 L54.3883543,46.3609888 L54.4022499,44.8591643 L54.5768018,44.5986858 L54.7513537,44.338011 L54.8983047,44.2622425 L55.0452556,44.1864741 L56.1157898,44.1864741 L57.1861336,44.1864741 L57.1724283,46.1619495 Z" id="Shape"></path>
                    <path d="M59.3385483,43.8944733 C59.3201541,43.9091271 59.3063584,45.2943137 59.3063584,46.9644345 L59.3063584,50 L59.4680745,50 L59.6299822,50 L59.6299822,49.4008243 L59.6299822,48.8014452 L59.7825011,48.9536814 C59.8612515,49.0422145 60.0229676,49.1551705 60.1386981,49.2091044 L60.346783,49.3122913 L61.0865766,49.3122913 L61.8265619,49.3122913 L62.0578312,49.1944507 C62.1871658,49.130544 62.3676593,49.0029343 62.4646123,48.9144012 L62.6405073,48.7475112 L62.7282632,48.4035551 L62.8208092,48.0598025 L62.8208092,46.5616598 L62.8162107,45.0635171 L62.7514476,44.8669126 C62.7144675,44.7588412 62.682086,44.636116 62.682086,44.5919512 C62.682086,44.552671 62.6081258,44.4248577 62.5201783,44.3167863 L62.3630607,44.1203853 L62.0716269,44.0025447 L61.7803846,43.8845006 L61.0865766,43.8845006 L60.3929602,43.8845006 L60.1616909,43.9779183 C60.0369549,44.0269677 59.8612515,44.1350391 59.7825011,44.2186876 L59.6299822,44.3709238 L59.6299822,44.1940611 C59.6299822,44.0957589 59.6161865,43.9828029 59.6021992,43.9386381 C59.5744162,43.8600777 59.3941143,43.8305667 59.3385483,43.8944733 Z M61.9790808,44.3216709 C62.2057516,44.4741106 62.3398763,44.6312314 62.4276322,44.8522589 L62.4969939,45.0340061 L62.4969939,46.5960554 L62.4969939,48.1581047 L62.3860536,48.4035551 C62.325889,48.5362529 62.2381331,48.6836046 62.1919559,48.7277693 C62.1455871,48.7719341 62.0160609,48.8407254 61.9051206,48.8848901 L61.711023,48.9685386 L61.0959654,48.9685386 L60.4809077,48.9685386 L60.2080597,48.8555826 L59.9306131,48.7426266 L59.7918899,48.5313684 L59.6531666,48.3201101 L59.6391793,46.6548739 L59.6253836,44.9947259 L59.7179297,44.8032095 C59.8194812,44.5870666 60.0415535,44.3709238 60.2542369,44.2726215 L60.3929602,44.2087149 L61.1005639,44.2038303 L61.8033774,44.2038303 L61.9790808,44.3216709 Z" id="Shape"></path>
                    <path d="M64.6219653,43.8824271 C64.5970106,43.9013085 64.5780347,45.0880842 64.5780347,46.5214985 L64.5780347,49.122807 L64.7976879,49.122807 L65.017341,49.122807 L65.0046038,46.4978967 L64.9858877,43.87751 L64.8291412,43.863349 C64.7412799,43.8539083 64.6471799,43.863349 64.6219653,43.8824271 Z" id="Path"></path>
                    <path d="M71.3085936,43.9069553 C70.845272,44.015897 70.5532239,44.2290693 70.3817585,44.5939748 L70.2890173,44.7881068 L70.2890173,46.4936817 L70.2890173,48.1943493 L70.3771502,48.3837704 C70.4744996,48.611272 70.7849807,48.9049237 71.0489952,49.0281946 L71.2390857,49.118096 L71.9620056,49.118096 L72.6849254,49.118096 L72.8888407,49.0470386 C73.0000148,49.0044434 73.1714803,48.9096347 73.2688296,48.8291553 L73.4402951,48.6870404 L73.4402951,48.9049237 L73.4402951,49.122807 L73.6163688,49.108674 L73.7878342,49.0943448 L73.801659,46.5835831 C73.8064593,45.2003185 73.801659,44.025319 73.7878342,43.9638798 L73.764601,43.8596491 L72.6154176,43.8643601 C71.9852389,43.8690711 71.3967264,43.8881114 71.3085936,43.9069553 Z M73.4402951,46.1666605 L73.4402951,48.1374248 L73.329121,48.3317532 C73.2085383,48.5402145 73.129814,48.5969427 72.7960996,48.7155026 L72.5921843,48.7865601 L71.9712221,48.7865601 L71.3502599,48.7865601 L71.1787944,48.7155026 C70.9518379,48.615983 70.8034137,48.4691571 70.7014561,48.2416555 L70.6135152,48.0522344 L70.6135152,46.4936817 L70.6135152,44.9396437 L70.7385141,44.7076274 C70.8498803,44.4897441 71.0537955,44.2907048 71.2158524,44.2243583 C71.2529105,44.2102253 71.7719151,44.1958961 72.3652278,44.1958961 L73.4402951,44.1911851 L73.4402951,46.1666605 Z" id="Shape"></path>
                </g>
            </g>
            <g id="Group-5" transform="translate(208.000000, 80.000000)" fill="#9D60FF" fill-rule="nonzero">
                <path d="M34.3861195,44.8343147 L32.2631195,44.8343147 L32.2631195,44.2963147 L37.1751195,44.2963147 L37.1751195,44.8343147 L35.0521195,44.8343147 L35.0521195,50.2973147 L34.4281195,50.2973147 L34.3861195,44.8343147 Z M41.5471195,48.2693147 C42.0051195,48.1033147 42.3381195,47.8973147 42.5881195,47.5653147 C42.8381195,47.2343147 42.9211195,46.8623147 42.9211195,46.3653147 C42.9211195,45.7033147 42.7131195,45.2063147 42.2551195,44.8343147 C41.7971195,44.4613147 41.2141195,44.2963147 40.4231195,44.2963147 L38.1751195,44.2963147 L38.1751195,50.3383147 L38.7991195,50.3383147 L38.7991195,44.8753147 L40.4231195,44.8753147 C41.0471195,44.8753147 41.4641195,44.9993147 41.7971195,45.2893147 C42.1301195,45.5383147 42.2551195,45.9103147 42.2551195,46.4073147 C42.2551195,46.8623147 42.0881195,47.2343147 41.7971195,47.5243147 C41.5471195,47.7313147 41.1721195,47.8973147 40.7561195,47.8973147 L40.5891195,47.8973147 L40.9231195,48.3933147 L42.3381195,50.3803147 L43.0461195,50.3803147 L41.5471195,48.2693147 Z M51.1231195,37.6743147 C50.8731195,37.2193147 50.4571195,36.8463147 49.9571195,36.5983147 C49.4581195,36.3503147 48.9161195,36.2263147 48.2501195,36.2263147 L45.7941195,36.2263147 L45.7941195,36.7643147 L46.4181195,36.7643147 L48.2091195,36.7643147 C48.7501195,36.7643147 49.2081195,36.8883147 49.6241195,37.0953147 C50.0401195,37.3023147 50.3321195,37.5913147 50.5401195,37.9643147 C50.7481195,38.3363147 50.8731195,38.7503147 50.8731195,39.2473147 C50.8731195,39.7023147 50.7481195,40.1573147 50.5401195,40.5303147 C50.3321195,40.9023147 49.9991195,41.1923147 49.6241195,41.3993147 C49.2081195,41.6063147 48.7501195,41.7303147 48.2091195,41.7303147 L46.4181195,41.7303147 L45.7941195,41.7303147 L45.7941195,42.2683147 L48.2501195,42.2683147 C48.8751195,42.2683147 49.4581195,42.1443147 49.9571195,41.8953147 C50.4571195,41.6473147 50.8321195,41.2753147 51.1231195,40.8193147 C51.3731195,40.3643147 51.5391195,39.8683147 51.5391195,39.2473147 C51.5391195,38.6673147 51.4141195,38.1293147 51.1231195,37.6743147 Z M52.9551195,36.2263147 L53.5791195,36.2263147 L53.5791195,42.2683147 L52.9551195,42.2683147 L52.9551195,36.2263147 Z M59.8661195,39.2473147 L60.4911195,39.2473147 L60.4911195,41.5643147 C60.1991195,41.8133147 59.8661195,42.0203147 59.4911195,42.1443147 C59.1171195,42.2683147 58.7001195,42.3513147 58.2841195,42.3513147 C57.6601195,42.3513147 57.1181195,42.2273147 56.6191195,41.9373147 C56.1611195,41.6893147 55.7441195,41.3163147 55.4531195,40.8193147 C55.2031195,40.3643147 55.0371195,39.8263147 55.0371195,39.2473147 C55.0371195,38.6673147 55.1611195,38.1293147 55.4531195,37.6743147 C55.7031195,37.2193147 56.1191195,36.8463147 56.6191195,36.5573147 C57.0771195,36.3083147 57.6601195,36.1433147 58.2841195,36.1433147 C58.7421195,36.1433147 59.1581195,36.2263147 59.5751195,36.3913147 C59.9491195,36.5573147 60.2831195,36.7643147 60.5321195,37.0533147 L60.1161195,37.4673147 C59.6581195,37.0123147 59.0331195,36.7643147 58.2841195,36.7643147 C57.7841195,36.7643147 57.3261195,36.8883147 56.9521195,37.0953147 C56.5351195,37.3023147 56.2441195,37.5913147 55.9941195,38.0053147 C55.7441195,38.3783147 55.6611195,38.7913147 55.6611195,39.2883147 C55.6611195,39.7433147 55.7861195,40.1993147 55.9941195,40.5713147 C56.2441195,40.9443147 56.5351195,41.2753147 56.9101195,41.4823147 C57.3261195,41.6893147 57.7431195,41.8133147 58.2421195,41.8133147 C58.8671195,41.8133147 59.4081195,41.6473147 59.8251195,41.3573147 L59.8661195,39.2473147 Z M62.2811195,36.2263147 L62.9051195,36.2263147 L62.9051195,42.2683147 L62.2811195,42.2683147 L62.2811195,36.2263147 Z M66.0701195,36.7643147 L63.9461195,36.7643147 L63.9461195,36.2263147 L68.8591195,36.2263147 L68.8591195,36.7643147 L66.7361195,36.7643147 L66.7361195,42.2273147 L66.1111195,42.2273147 L66.0701195,36.7643147 Z M72.0231195,36.2263147 L71.3571195,36.2263147 L68.5681195,42.2683147 L69.2341195,42.2683147 L71.6491195,36.8883147 L74.0641195,42.2683147 L74.7711195,42.2683147 L72.0231195,36.2263147 Z M75.7711195,36.2263147 L76.4371195,36.2263147 L76.4371195,41.6893147 L79.8091195,41.6893147 L79.8091195,42.2273147 L75.7711195,42.2273147 L75.7711195,36.2263147 Z M46.8761195,44.2963147 L46.2521195,44.2963147 L43.4621195,50.3383147 L44.1281195,50.3383147 L46.5431195,44.9583147 L48.9581195,50.3383147 L49.6241195,50.3383147 L46.8761195,44.2963147 Z M51.4981195,44.8343147 L49.3741195,44.8343147 L49.3741195,44.2963147 L54.2871195,44.2963147 L54.2871195,44.8343147 L52.1641195,44.8343147 L52.1641195,50.2973147 L51.5391195,50.2973147 L51.4981195,44.8343147 Z M55.2861195,44.2963147 L59.4501195,44.2963147 L59.4501195,44.8343147 L55.2861195,44.8343147 L55.2861195,44.2963147 Z M55.2861195,46.9863147 L59.0751195,46.9863147 L59.0751195,47.5243147 L55.2861195,47.5243147 L55.2861195,46.9863147 Z M55.2861195,49.7593147 L59.5751195,49.7593147 L59.5751195,50.2973147 L55.2861195,50.2973147 L55.2861195,49.7593147 Z M65.3621195,47.3173147 L65.9861195,47.3173147 L65.9861195,49.6353147 C65.6951195,49.8833147 65.3621195,50.0903147 64.9871195,50.2143147 C64.6131195,50.3383147 64.1961195,50.4213147 63.7801195,50.4213147 C63.1551195,50.4213147 62.6141195,50.2973147 62.1141195,50.0073147 C61.6561195,49.7593147 61.2401195,49.3863147 60.9491195,48.8903147 C60.6991195,48.4353147 60.5321195,47.8973147 60.5321195,47.3173147 C60.5321195,46.7383147 60.6571195,46.2003147 60.9491195,45.7443147 C61.1981195,45.2893147 61.6151195,44.9173147 62.1141195,44.6273147 C62.5721195,44.3793147 63.1551195,44.2133147 63.7801195,44.2133147 C64.2381195,44.2133147 64.6541195,44.2963147 65.0701195,44.4613147 C65.4451195,44.6273147 65.7781195,44.8343147 66.0281195,45.1243147 L65.6121195,45.5383147 C65.1541195,45.0823147 64.5291195,44.8343147 63.7801195,44.8343147 C63.2801195,44.8343147 62.8221195,44.9583147 62.4481195,45.1653147 C62.0311195,45.3723147 61.7401195,45.6623147 61.4901195,46.0763147 C61.2401195,46.4483147 61.1571195,46.8623147 61.1571195,47.3593147 C61.1571195,47.8143147 61.2821195,48.2693147 61.4901195,48.6423147 C61.7401195,49.0143147 62.0311195,49.3453147 62.4061195,49.5523147 C62.8221195,49.7593147 63.2391195,49.8833147 63.7381195,49.8833147 C64.3631195,49.8833147 64.9041195,49.7183147 65.3201195,49.4283147 L65.3621195,47.3173147 Z M67.7771195,44.2963147 L68.4011195,44.2963147 L68.4011195,50.3383147 L67.7771195,50.3383147 L67.7771195,44.2963147 Z M74.5211195,44.8343147 L74.5211195,44.2963147 L70.3581195,44.2963147 L70.3581195,44.8343147 L74.5211195,44.8343147 Z M70.3581195,47.5243147 L70.3581195,46.9863147 L74.1471195,46.9863147 L74.1471195,47.5243147 L71.0241195,47.5243147 L70.3581195,47.5243147 Z M70.3581195,49.7593147 L70.3581195,50.2973147 L74.6461195,50.2973147 L74.6461195,49.7593147 L70.3581195,49.7593147 Z M76.5201195,50.1313147 C76.1041195,49.9663147 75.8121195,49.8003147 75.5621195,49.5523147 L75.8121195,49.0553147 C76.0201195,49.2623147 76.3121195,49.4693147 76.6861195,49.5933147 C77.0611195,49.7183147 77.4361195,49.8003147 77.8111195,49.8003147 C78.3521195,49.8003147 78.7681195,49.7183147 79.0181195,49.5113147 C79.2681195,49.3043147 79.4341195,49.0553147 79.4341195,48.7243147 C79.4341195,48.4763147 79.3511195,48.2693147 79.1851195,48.1453147 C79.0181195,47.9793147 78.8511195,47.8973147 78.6431195,47.8143147 C78.4351195,47.7313147 78.1441195,47.6483147 77.7271195,47.5653147 C77.2691195,47.4413147 76.8951195,47.3173147 76.6451195,47.2343147 C76.3951195,47.1103147 76.1451195,46.9863147 75.9371195,46.7383147 C75.7291195,46.5313147 75.6461195,46.2413147 75.6461195,45.8273147 C75.6461195,45.5383147 75.7291195,45.2483147 75.8951195,44.9993147 C76.0621195,44.7513147 76.3121195,44.5443147 76.6451195,44.4203147 C76.9781195,44.2553147 77.3941195,44.1723147 77.8941195,44.1723147 C78.2271195,44.1723147 78.6021195,44.2133147 78.8931195,44.2963147 C79.2261195,44.3793147 79.5181195,44.5443147 79.7671195,44.7103147 L79.5591195,45.2063147 C79.3091195,45.0413147 79.0601195,44.9173147 78.7271195,44.8343147 C78.4351195,44.7513147 78.1441195,44.7103147 77.8941195,44.7103147 C77.3531195,44.7103147 76.9361195,44.7933147 76.6861195,44.9993147 C76.4371195,45.2063147 76.2701195,45.4553147 76.2701195,45.7863147 C76.2701195,46.0343147 76.3531195,46.2413147 76.5201195,46.3653147 C76.6861195,46.5313147 76.8531195,46.6143147 77.0611195,46.6963147 C77.3111195,46.7793147 77.5611195,46.8623147 77.9771195,46.9453147 C78.4351195,47.0693147 78.7681195,47.1523147 79.0601195,47.2763147 C79.3091195,47.4003147 79.5591195,47.5243147 79.7671195,47.7313147 C79.9761195,47.9383147 80.0591195,48.2283147 80.0591195,48.6003147 C80.0591195,48.8903147 79.9761195,49.1803147 79.8091195,49.4283147 C79.6431195,49.6763147 79.3931195,49.8833147 79.0601195,50.0073147 C78.7271195,50.1733147 78.3101195,50.2563147 77.8111195,50.2563147 C77.3941195,50.3803147 76.9781195,50.2973147 76.5201195,50.1313147 Z M28.3491195,50.1313147 C27.9331195,49.9663147 27.6411195,49.8003147 27.3911195,49.5523147 L27.6411195,49.0553147 C27.8491195,49.2623147 28.1411195,49.4693147 28.5151195,49.5933147 C28.8901195,49.7183147 29.2651195,49.8003147 29.6401195,49.8003147 C30.1811195,49.8003147 30.5971195,49.7183147 30.8471195,49.5113147 C31.0971195,49.3043147 31.2631195,49.0553147 31.2631195,48.7243147 C31.2631195,48.4763147 31.1801195,48.2693147 31.0141195,48.1453147 C30.8471195,47.9793147 30.6801195,47.8973147 30.4721195,47.8143147 C30.2641195,47.7313147 29.9731195,47.6483147 29.5561195,47.5653147 C29.0981195,47.4413147 28.7241195,47.3173147 28.4741195,47.2343147 C28.2241195,47.1103147 27.9741195,46.9863147 27.7661195,46.7383147 C27.5581195,46.5313147 27.4751195,46.2413147 27.4751195,45.8273147 C27.4751195,45.5383147 27.5581195,45.2483147 27.7241195,44.9993147 C27.8911195,44.7513147 28.1411195,44.5443147 28.4741195,44.4203147 C28.8071195,44.2553147 29.2231195,44.1723147 29.7231195,44.1723147 C30.0561195,44.1723147 30.4311195,44.2133147 30.7221195,44.2963147 C31.0551195,44.3793147 31.3471195,44.5443147 31.5961195,44.7103147 L31.3881195,45.2063147 C31.1381195,45.0413147 30.8891195,44.9173147 30.5561195,44.8343147 C30.2641195,44.7513147 29.9731195,44.7103147 29.7231195,44.7103147 C29.1821195,44.7103147 28.7651195,44.7933147 28.5151195,44.9993147 C28.2661195,45.2063147 28.0991195,45.4553147 28.0991195,45.7863147 C28.0991195,46.0343147 28.1821195,46.2413147 28.3491195,46.3653147 C28.5151195,46.5313147 28.6821195,46.6143147 28.8901195,46.6963147 C29.1401195,46.7793147 29.3901195,46.8623147 29.8061195,46.9453147 C30.2641195,47.0693147 30.5971195,47.1523147 30.8891195,47.2763147 C31.1381195,47.4003147 31.3881195,47.5243147 31.5961195,47.7313147 C31.8051195,47.9383147 31.8881195,48.2283147 31.8881195,48.6003147 C31.8881195,48.8903147 31.8051195,49.1803147 31.6381195,49.4283147 C31.4711195,49.6763147 31.2221195,49.8833147 30.8891195,50.0073147 C30.5561195,50.1733147 30.1391195,50.2563147 29.6401195,50.2563147 C29.1821195,50.3803147 28.7651195,50.2973147 28.3491195,50.1313147 Z" id="Shape"></path>
                <path d="M28.3491195,17.3953147 L23.8941195,8.00031474 L21.2301195,24.6383147 L23.1031195,24.6383147 L28.3491195,17.3953147 Z M31.8051195,20.0853147 L28.9741195,18.0573147 L24.3101195,24.5963147 L30.9301195,23.6033147 L31.8051195,20.0853147 Z M12.6941195,10.1943147 L20.4801195,23.8513147 L23.1451195,7.21431474 L12.6941195,10.1943147 Z M30.7221195,16.7333147 L33.1791195,16.5263147 L33.1791195,15.1193147 L30.7221195,16.7333147 Z M33.3871195,17.3123147 L29.8481195,17.6433147 L38.3001195,23.7693147 L33.3871195,17.3123147 Z M30.1391195,26.9143147 L30.6811195,24.5143147 L24.0611195,25.4243147 L25.5181195,27.2043147 L30.1391195,26.9143147 Z M38.9241195,25.2173147 L37.5501195,28.5283147 L39.9231195,25.9623147 L38.9241195,25.2173147 Z M31.5971195,27.4933147 L37.9251195,24.4723147 L32.5541195,20.6233147 C32.0131195,22.8173147 31.4301195,24.9273147 30.9721195,27.1623147 L31.5971195,27.4933147 Z M35.9681195,29.9773147 L37.8831195,25.4653147 L32.5541195,28.0313147 L35.9681195,29.9773147 Z M12.1121195,10.8563147 L6.49111955,22.1133147 L19.8971195,24.4313147 L12.1121195,10.8563147 Z M2.53611955,28.1143147 L11.6121195,9.82131474 L9.57211955,6.38631474 L2.53611955,28.1143147 Z M30.4721195,5.76531474 L27.5581195,8.66231474 L31.5551195,11.3533147 L33.5951195,8.49731474 L30.4721195,5.76531474 Z M28.0581195,4.11031474 L27.5581195,7.50431474 L30.0141195,5.06231474 L30.3471195,1.58561474 L28.0581195,4.11031474 Z M26.6001195,8.00031474 L27.1831195,4.40031474 L10.2381195,5.80731474 L12.3201195,9.32531474 L23.6031195,6.09631474 C23.7691195,6.05531474 23.8941195,6.13831474 24.0191195,6.22131474 L26.6001195,8.00031474 Z M24.7271195,7.75231474 L28.9741195,16.8573147 L33.0541195,14.1263147 L31.4301195,12.3043147 C31.4301195,12.3043147 25.2681195,8.12431474 24.7271195,7.75231474 Z M20.7301195,31.8393147 L7.07411955,45.9933147 L29.7231195,40.6133147 L20.7301195,31.8393147 Z M8.11511955,23.2313147 L20.3141195,30.5563147 L20.3141195,25.3413147 L8.11511955,23.2313147 Z M19.3561195,30.9283147 L6.07511955,22.9413147 L1.16211955,32.8323147 L19.3561195,30.9283147 Z M34.7611195,55.3473147 L30.0981195,57.6233147 L34.4281195,57.6233147 L34.7611195,55.3473147 Z M7.90711955,52.6563147 L3.49311955,54.3953147 L10.0301195,57.1263147 L7.90711955,52.6563147 Z M11.1961195,57.6233147 L26.6001195,57.6233147 L6.65811955,47.7313147 L11.1961195,57.6233147 Z M10.5711195,58.4513147 L2.11911955,54.7673147 C1.95311955,54.7263147 1.87011955,54.5193147 1.87011955,54.3533147 C1.87011955,54.1053147 2.11911955,53.9393147 2.11911955,53.9393147 L7.44911955,51.8293147 L5.40811955,47.1113147 C5.28411955,46.7803147 5.24211955,46.5733147 5.53311955,46.2833147 L19.6891195,31.6733147 L0.621119548,33.6603147 C0.287119548,33.7013147 -0.128880452,33.6603147 0.0381195481,33.1633147 C3.03511955,23.9343147 5.99111955,14.5813147 8.98911955,5.26931474 C9.07211955,5.10331474 9.15611955,5.02031474 9.40511955,4.93831474 L27.5161195,3.44831474 L30.5971195,0.137114742 C30.7641195,-0.0283852585 30.9301195,-0.0283852585 31.0971195,0.0543147415 C31.2631195,0.137114742 31.3471195,0.302714742 31.3471195,0.468214742 L30.9301195,5.06231474 L34.4281195,8.12431474 C34.5941195,8.29031474 34.5941195,8.53831474 34.5111195,8.70431474 L32.2631195,11.9323147 L33.9281195,13.8363147 C34.0111195,13.9193147 34.0111195,14.0013147 34.0111195,14.0843147 L34.0111195,16.7333147 L40.7981195,25.5483147 C40.9641195,25.7143147 40.8811195,25.9623147 40.7981195,26.1283147 L36.5511195,30.8873147 C36.3841195,31.0533147 36.2181195,31.0533147 36.0511195,30.9703147 L30.4311195,27.8243147 L25.3931195,28.0733147 C25.2261195,28.0733147 25.1431195,27.9903147 25.0601195,27.9073147 L23.0611195,25.5073147 L21.1461195,25.5073147 L21.1461195,31.0943147 L30.9301195,40.4893147 C31.0971195,40.6543147 31.0971195,40.9033147 30.9301195,41.0683147 C30.8471195,41.1513147 30.8051195,41.1923147 30.6811195,41.2343147 L6.86611955,46.9043147 L28.2241195,57.6233147 L35.1351195,54.1463147 C35.2601195,54.1053147 35.5101195,54.0643147 35.6351195,54.1463147 C35.8021195,54.3123147 35.8021195,54.5603147 35.8021195,54.5603147 L35.3021195,58.1613147 C35.2191195,58.3263147 35.0521195,58.4923147 34.8861195,58.4923147 C26.7671195,58.4513147 18.6901195,58.4513147 10.5711195,58.4513147 Z" id="Shape"></path>
            </g>
        </g>
    </g>
</svg>