<?xml version="1.0" encoding="UTF-8"?>
<svg width="642px" height="257px" viewBox="0 0 642 257" version="1.1" xmlns="http://www.w3.org/2000/svg" xmlns:xlink="http://www.w3.org/1999/xlink">
    <title>PC</title>
    <g id="Page-1" stroke="none" stroke-width="1" fill="none" fill-rule="evenodd">
        <g id="PC">
            <g id="Group" fill="#9D60FF" fill-rule="nonzero">
                <path d="M132.79005,38.4154 L129.11105,38.4154 L129.11105,11.3612 L132.79005,11.3612 L132.79005,38.4154 Z M146.28205,38.4154 L146.28205,14.6306 L138.35005,14.6306 L138.35005,11.3612 L157.48405,11.3612 L157.48405,14.6306 L149.87905,14.6306 L149.87905,38.4154 L146.28205,38.4154 Z M169.09505,19.4529 L164.18905,31.7131 L169.09505,31.7131 L174.00105,31.7131 L169.09505,19.4529 Z M157.48405,38.4154 L169.09505,11.3612 L180.70605,38.4154 L176.61705,38.4154 L175.14605,34.9008 L169.09505,34.9008 L163.04405,34.9008 L161.57205,38.4154 L157.48405,38.4154 Z M190.35405,21.0876 L190.27305,38.4154 L186.26605,38.4154 L186.26605,11.9333 L203.02805,29.6698 L203.02805,11.9333 L207.03505,11.9333 L207.03505,38.4154 L190.35405,21.0876 Z M221.01705,39.3962 C216.76505,39.3962 213.98505,37.1894 212.10405,33.4296 L215.21205,32.0401 C216.35605,34.3287 218.40005,36.2086 221.01705,36.2086 C223.87905,36.2086 226.74105,34.5739 226.74105,31.3862 C226.74105,30.6506 226.57705,29.9967 226.16805,29.4246 C225.75905,28.8524 225.18705,28.362 224.45105,27.7899 C222.32505,26.4004 220.19905,25.583 218.07305,24.4387 C217.17405,23.9483 216.52005,23.4579 216.02905,22.9675 C215.29305,22.3136 214.72105,21.578 214.31205,20.6789 C213.90305,19.8616 213.74005,18.9625 213.74005,18.0634 C213.74005,17.1644 213.98505,16.2653 214.39405,15.3662 C214.80305,14.4671 215.45705,13.7315 216.27405,13.0776 C217.01005,12.5055 217.91005,12.0151 218.97305,11.6881 C220.03605,11.3612 221.01705,11.1977 222.16205,11.1977 C224.53305,11.1977 227.47705,12.5872 228.78505,14.9575 L226.08705,16.8374 C225.02405,15.121 223.38805,14.3854 222.08005,14.3854 C221.18105,14.3854 220.36305,14.5488 219.62705,14.8758 C218.97305,15.2027 218.40005,15.6931 217.99205,16.2653 C217.58305,16.8374 217.41905,17.4096 217.41905,18.0634 C217.41905,19.0443 217.74605,19.7799 218.40005,20.4337 C219.05505,21.0876 220.19905,21.7415 221.75305,22.4771 C223.06105,23.131 224.36905,23.7849 225.67805,24.5205 C226.74105,25.0926 227.55805,25.7465 228.21205,26.3186 C229.76605,27.7081 230.50205,29.4246 230.50205,31.3862 C230.42005,36.5355 225.67805,39.3962 221.01705,39.3962 Z M112.18505,38.4154 L112.18505,14.6306 L104.25305,14.6306 L104.25305,11.3612 L123.38705,11.3612 L123.38705,14.6306 L115.78305,14.6306 L115.78305,38.4154 L112.18505,38.4154 Z" id="Shape"></path>
                <path d="M224.12405,66.1236 C223.79705,66.1236 223.55205,66.1236 223.30605,66.0418 L223.22505,66.0418 L223.14305,66.0418 L222.81605,65.9601 C222.48905,65.8784 222.08005,65.7966 221.67105,65.6332 C220.60805,65.3062 219.70905,64.7341 218.97305,63.9167 C218.89105,63.835 218.89105,63.7533 218.89105,63.6715 C218.89105,63.5898 218.97305,63.5081 219.05505,63.4263 L219.30005,63.2628 C219.38205,63.2628 219.46305,63.1811 219.54505,63.1811 C219.62705,63.1811 219.79005,63.2628 219.87205,63.3446 C220.44505,63.9985 221.18005,64.4889 222.08005,64.8158 C222.40705,64.8975 222.73405,64.9793 223.06105,65.061 C223.14305,65.061 223.14305,65.061 223.22505,65.061 C223.30605,65.061 223.30605,65.061 223.38805,65.061 C223.47005,65.061 223.47005,65.061 223.47005,65.061 C223.71505,65.061 223.96105,65.061 224.20605,65.061 C224.77805,65.061 225.43205,64.9793 226.08705,64.8158 C226.74105,64.6523 227.31305,64.4071 227.80405,63.9985 C228.78505,63.3446 229.27505,62.4455 229.43905,61.3012 C229.43905,61.2195 229.43905,61.1377 229.43905,60.9743 C229.43905,60.3204 229.27505,59.7482 228.94805,59.2578 C228.62105,58.7674 228.13105,58.3588 227.47705,57.8684 C226.82205,57.4597 225.92305,56.9693 224.69605,56.3971 L224.36905,56.2337 C224.28805,56.2337 224.12405,56.1519 223.87905,55.9884 L223.71505,55.9067 L223.22505,55.6615 L222.48905,55.3346 C221.99805,55.0076 221.50805,54.7624 221.09905,54.4355 C220.11805,53.6181 219.62705,52.5556 219.62705,51.4113 L219.62705,51.3296 C219.62705,50.1853 220.03605,49.3679 220.77205,48.7141 C221.50805,48.0602 222.32505,47.6515 223.30605,47.4063 C223.87905,47.2428 224.53305,47.1611 225.10505,47.1611 C225.26905,47.1611 225.43205,47.1611 225.67805,47.1611 C226.41405,47.2428 227.06805,47.4063 227.72205,47.6515 C228.37605,47.8967 228.94805,48.3054 229.43905,48.7141 C229.52105,48.7958 229.52105,48.8775 229.52105,48.9593 C229.52105,49.041 229.43905,49.1227 229.35705,49.2045 L229.11205,49.3679 C229.03005,49.4497 228.94805,49.4497 228.86705,49.4497 C228.78505,49.4497 228.62105,49.4497 228.54005,49.3679 C228.13105,49.041 227.72205,48.7958 227.14905,48.5506 C226.57705,48.3054 226.00505,48.2236 225.43205,48.1419 C225.35105,48.1419 225.18705,48.1419 224.94205,48.1419 C224.36905,48.1419 223.79705,48.2236 223.22505,48.3871 C222.65205,48.5506 222.16205,48.7958 221.75305,49.1227 C220.93505,49.6949 220.52605,50.5122 220.52605,51.493 L220.52605,51.5748 C220.52605,52.4739 220.93505,53.2912 221.83505,53.9451 C222.16205,54.1903 222.57105,54.5172 223.06105,54.7624 C223.14305,54.7624 223.30605,54.9259 223.71505,55.0894 L224.28805,55.3346 L224.53305,55.498 L224.77805,55.5798 L225.10505,55.7432 L225.59605,55.9884 L226.16805,56.2337 C226.49505,56.3971 226.82205,56.5606 227.14905,56.7241 C227.88505,57.1327 228.45805,57.5414 228.86705,57.9501 C229.84805,58.8492 230.33805,59.9117 230.33805,61.1377 C230.33805,61.2195 230.33805,61.3829 230.33805,61.6281 C230.25705,62.5272 229.93005,63.3446 229.35705,63.9985 C228.78505,64.6523 228.04905,65.2245 227.14905,65.6332 C226.25005,65.8784 225.26905,66.1236 224.12405,66.1236 Z M204.17305,47.6515 C204.17305,47.4063 204.33605,47.3246 204.58205,47.3246 L214.80305,47.3246 C215.04805,47.3246 215.21105,47.4063 215.21105,47.6515 L215.21105,47.8967 C215.21105,48.1419 215.04805,48.2236 214.80305,48.2236 L205.31805,48.2236 L205.31805,57.6231 L213.49405,57.6231 C213.74005,57.6231 213.90305,57.7049 213.90305,57.9501 L213.90305,58.1953 C213.90305,58.4405 213.74005,58.5222 213.49405,58.5222 L205.31805,58.5222 L205.31805,65.061 L214.80305,65.061 C215.04805,65.061 215.21105,65.1427 215.21105,65.3879 L215.21105,65.6332 C215.21105,65.8784 215.04805,65.9601 214.80305,65.9601 L204.58205,65.9601 C204.33605,65.9601 204.17305,65.8784 204.17305,65.6332 L204.17305,47.6515 Z M192.15305,59.4213 C193.29805,59.4213 194.36105,59.1761 195.34205,58.604 C196.32305,58.1136 197.05905,57.4597 197.63205,56.5606 C198.20405,55.7432 198.53105,54.7624 198.53105,53.7816 C198.53105,52.8008 198.20405,51.82 197.63205,51.0026 C197.05905,50.1853 196.24105,49.4497 195.26005,48.9593 C194.27905,48.4688 193.13405,48.2236 191.99005,48.2236 L190.35405,48.2236 L190.35405,59.4213 L192.15305,59.4213 Z M199.34905,65.4697 C199.43005,65.5514 199.43005,65.6332 199.43005,65.7149 C199.43005,65.7966 199.43005,65.8784 199.34905,65.8784 C199.26705,65.8784 199.18505,65.9601 199.10305,65.9601 L198.77605,65.9601 C198.69505,65.9601 198.61305,65.9601 198.61305,65.9601 C198.53105,65.9601 198.53105,65.8784 198.44905,65.8784 L194.52405,60.0752 C193.78805,60.2387 193.05305,60.4021 192.31705,60.4021 L190.51805,60.4021 L190.51805,65.7149 C190.51805,65.7966 190.51805,65.8784 190.43605,65.9601 C190.35405,66.0418 190.27205,66.0418 190.19105,66.0418 L189.86405,66.0418 C189.78205,66.0418 189.70005,66.0418 189.61805,65.9601 C189.53705,65.8784 189.53705,65.7966 189.53705,65.7149 L189.53705,47.7332 C189.53705,47.6515 189.53705,47.5698 189.61805,47.488 C189.70005,47.4063 189.78205,47.4063 189.86405,47.4063 L192.15305,47.4063 C193.54305,47.4063 194.77005,47.7332 195.99605,48.3054 C197.14105,48.8775 198.04005,49.6949 198.77605,50.6757 C199.43005,51.6565 199.75705,52.7191 199.75705,53.9451 C199.75705,54.7624 199.59405,55.5798 199.26705,56.3154 C198.94005,57.051 198.44905,57.7866 197.79505,58.3588 C197.14105,58.9309 196.40505,59.4213 195.58705,59.83 L199.34905,65.4697 Z M177.68005,65.9601 C176.53605,65.9601 175.47305,65.7149 174.49105,65.2245 C173.51005,64.7341 172.77405,64.0802 172.20205,63.2628 C171.63005,62.4455 171.38405,61.5464 171.38405,60.5656 L171.38405,47.6515 C171.38405,47.5698 171.38405,47.488 171.46605,47.4063 C171.54805,47.3246 171.63005,47.3246 171.71105,47.3246 L172.03805,47.3246 C172.12005,47.3246 172.20205,47.3246 172.28405,47.4063 C172.36505,47.488 172.36505,47.5698 172.36505,47.6515 L172.36505,60.5656 C172.36505,61.3829 172.61105,62.1186 173.10105,62.8542 C173.59205,63.508 174.24605,64.0802 174.98205,64.4889 C175.80005,64.8975 176.69905,65.061 177.59905,65.061 C178.58005,65.061 179.39705,64.8975 180.21505,64.4889 C181.03305,64.0802 181.68705,63.508 182.09605,62.8542 C182.58605,62.2003 182.83205,61.3829 182.83205,60.5656 L182.83205,47.6515 C182.83205,47.5698 182.83205,47.488 182.91305,47.4063 C182.99505,47.3246 183.07705,47.3246 183.15905,47.3246 L183.48605,47.3246 C183.56805,47.3246 183.64905,47.3246 183.73105,47.4063 C183.81305,47.488 183.81305,47.5698 183.81305,47.6515 L183.81305,60.5656 C183.81305,61.5464 183.56805,62.4455 182.99505,63.2628 C182.42305,64.0802 181.68705,64.7341 180.70605,65.2245 C179.88805,65.7149 178.82505,65.9601 177.68005,65.9601 Z M155.52105,47.6515 C155.52105,47.5698 155.52105,47.488 155.60305,47.4063 C155.68505,47.3246 155.76705,47.3246 155.84805,47.3246 L166.64205,47.3246 C166.72405,47.3246 166.88705,47.3246 166.88705,47.4063 C166.96905,47.488 166.96905,47.5698 166.96905,47.6515 L166.96905,47.8967 C166.96905,47.9784 166.96905,48.0602 166.88705,48.1419 C166.80505,48.2236 166.72405,48.2236 166.64205,48.2236 L161.81705,48.2236 L161.81705,65.6332 C161.81705,65.7149 161.81705,65.7966 161.73605,65.8784 C161.65405,65.9601 161.57205,65.9601 161.49005,65.9601 L161.16305,65.9601 C161.08205,65.9601 161.00005,65.9601 160.91805,65.8784 C160.83605,65.7966 160.83605,65.7149 160.83605,65.6332 L160.83605,48.2236 L155.84805,48.2236 C155.76705,48.2236 155.68505,48.2236 155.60305,48.1419 C155.52105,48.0602 155.52105,47.9784 155.52105,47.8967 L155.52105,47.6515 Z M150.20705,47.6515 C150.20705,47.5698 150.20705,47.488 150.28805,47.4063 C150.37005,47.3246 150.45205,47.3246 150.53405,47.3246 L150.86105,47.3246 C150.94205,47.3246 151.02405,47.3246 151.10605,47.4063 C151.18805,47.488 151.18805,47.5698 151.18805,47.6515 L151.18805,65.5514 C151.18805,65.6332 151.10605,65.7966 151.02405,65.7966 C150.94205,65.8784 150.86105,65.8784 150.69705,65.8784 C150.61505,65.8784 150.53405,65.8784 150.45205,65.7966 C150.37005,65.7966 150.28805,65.7149 150.28805,65.6332 L139.49505,49.6949 L139.49505,65.6332 C139.49505,65.7149 139.49505,65.7966 139.41305,65.8784 C139.33205,65.9601 139.25005,65.9601 139.16805,65.9601 L138.84105,65.9601 C138.75905,65.9601 138.67705,65.9601 138.59605,65.8784 C138.51405,65.7966 138.51405,65.7149 138.51405,65.6332 L138.51405,47.815 C138.51405,47.7332 138.59605,47.5698 138.67705,47.5698 C138.75905,47.488 138.84105,47.488 139.00405,47.488 C139.16805,47.488 139.33205,47.5698 139.41305,47.7332 L150.20705,63.5898 L150.20705,47.6515 Z M122.81505,47.6515 C122.81505,47.4063 122.97805,47.3246 123.22305,47.3246 L133.44405,47.3246 C133.69005,47.3246 133.85305,47.4063 133.85305,47.6515 L133.85305,47.8967 C133.85305,48.1419 133.69005,48.2236 133.44405,48.2236 L123.95905,48.2236 L123.95905,57.6231 L132.13605,57.6231 C132.38105,57.6231 132.54505,57.7049 132.54505,57.9501 L132.54505,58.1953 C132.54505,58.4405 132.38105,58.5222 132.13605,58.5222 L123.95905,58.5222 L123.95905,65.061 L133.44405,65.061 C133.69005,65.061 133.85305,65.1427 133.85305,65.3879 L133.85305,65.6332 C133.85305,65.8784 133.69005,65.9601 133.44405,65.9601 L123.22305,65.9601 C122.97805,65.9601 122.81505,65.8784 122.81505,65.6332 L122.81505,47.6515 Z M104.25305,47.815 C104.25305,47.7332 104.25305,47.7332 104.25305,47.6515 C104.25305,47.5698 104.33505,47.488 104.33505,47.4063 C104.41705,47.3246 104.49905,47.3246 104.66205,47.3246 L104.98905,47.3246 C105.07105,47.3246 105.15305,47.3246 105.23505,47.4063 C105.31605,47.4063 105.31605,47.488 105.39805,47.5698 L111.44905,63.2628 L117.50005,47.5698 C117.50005,47.488 117.58105,47.488 117.66305,47.4063 C117.74505,47.4063 117.82705,47.3246 117.90805,47.3246 L118.15405,47.3246 C118.31705,47.3246 118.39905,47.3246 118.48105,47.4063 C118.56305,47.488 118.56305,47.5698 118.56305,47.6515 C118.56305,47.7332 118.56305,47.7332 118.56305,47.7332 L111.93905,65.6332 C111.93905,65.7149 111.85805,65.7966 111.77605,65.7966 C111.69405,65.8784 111.61205,65.8784 111.53105,65.8784 C111.44905,65.8784 111.36705,65.8784 111.28505,65.7966 C111.20405,65.7149 111.20405,65.7149 111.12205,65.6332 L104.25305,47.815 Z" id="Shape"></path>
                <path d="M9.48495,11.1159 L48.32445,69.0658 L86.10085,12.7506 L72.20045,12.7506 L48.16085,48.5504 L23.05835,11.1159 L48.97855,11.1159 L48.97855,29.261 L47.34325,26.809 L47.34325,12.7506 L26.08375,12.7506 L48.16085,45.608 L71.30105,11.1159 L89.12625,11.1159 C75.55295,31.3861 61.89775,51.6563 48.32445,72.0083 L7.52255,11.1159 L9.48495,11.1159 Z M95.50415,1.6347 L1.06298,1.6347 L0,0 L96.56705,0 L95.50415,1.6347 Z" id="Shape"></path>
            </g>
            <g id="Group-2" transform="translate(318.002910, 21.812490)">
                <path d="M134.359,4.6084 C137.921,4.6084 140.975,5.5472 143.265,7.5101 C145.64,9.3876 147.167,12.0333 147.845,15.2763 L140.635,15.2763 C140.126,13.9962 139.278,12.8867 138.176,12.204 C137.073,11.4359 135.716,11.0945 134.274,11.0945 C132.238,11.0945 130.626,11.8626 129.439,13.3134 C128.251,14.7643 127.573,16.7271 127.573,19.2021 C127.573,21.6771 128.166,23.64 129.439,25.0908 C130.626,26.5416 132.323,27.3097 134.274,27.3097 C135.801,27.3097 137.073,26.9683 138.176,26.2002 C139.278,25.4322 140.126,24.408 140.635,23.1279 L147.845,23.1279 C147.167,26.3709 145.64,28.9312 143.265,30.8088 C140.89,32.6863 137.921,33.7105 134.359,33.7105 C131.644,33.7105 129.184,33.113 127.149,31.9182 C125.028,30.7234 123.501,29.0166 122.314,26.7976 C121.211,24.5787 120.617,22.1038 120.617,19.2874 C120.617,16.4711 121.211,13.9962 122.314,11.7772 C123.416,9.5583 125.028,7.8515 127.149,6.6566 C129.184,5.2058 131.559,4.6084 134.359,4.6084 Z M102.38,4.6084 C105.943,4.6084 108.827,5.4618 111.117,7.2541 C113.407,8.9609 114.849,11.3505 115.358,14.3375 L108.148,14.3375 C107.639,13.3134 106.961,12.5453 105.943,11.8626 C104.925,11.2652 103.738,10.9238 102.38,10.9238 C100.26,10.9238 98.479,11.6919 97.206,13.1427 C95.934,14.5936 95.255,16.5565 95.255,19.1168 C95.255,21.8477 95.934,23.896 97.291,25.3468 C98.648,26.7976 100.599,27.4804 103.144,27.4804 C104.755,27.4804 106.197,27.0537 107.385,26.1149 C108.572,25.1761 109.506,23.896 110.014,22.2745 L101.363,22.2745 L101.363,17.3246 L115.698,17.3246 L115.698,24.152 C115.189,25.8589 114.34,27.3951 113.153,28.7605 C111.965,30.2114 110.439,31.3208 108.657,32.2596 C106.791,33.113 104.755,33.6251 102.38,33.6251 C99.496,33.6251 97.037,33.0277 94.916,31.8329 C92.795,30.6381 91.099,28.9312 89.996,26.7123 C88.809,24.4934 88.215,22.0184 88.215,19.2021 C88.215,16.3858 88.809,13.9108 89.996,11.6919 C91.184,9.473 92.795,7.7661 94.916,6.5713 C97.121,5.2058 99.581,4.6084 102.38,4.6084 Z M82.702,33.3691 L75.831,33.3691 L64.38,15.8737 L64.38,33.3691 L57.509,33.3691 L57.509,4.8644 L64.38,4.8644 L75.831,22.5305 L75.831,4.8644 L82.702,4.8644 L82.702,33.3691 Z" id="Shape" fill="#9D60FF" fill-rule="nonzero"></path>
                <path d="M314.691,10.9237 C317.151,10.9237 319.187,11.6065 320.714,12.8866 C322.241,14.1668 323.174,15.959 323.428,18.1779 L319.95,18.1779 C319.781,16.8978 319.272,15.7883 318.339,14.9349 C317.406,14.0814 316.218,13.6547 314.607,13.6547 C313.334,13.6547 312.316,13.9961 311.553,14.5935 C310.79,15.1909 310.45,16.0443 310.45,17.1538 C310.45,17.9219 310.705,18.6046 311.214,19.1167 C311.723,19.6288 312.316,19.9701 313.08,20.2262 C313.843,20.4822 314.861,20.7382 316.133,21.0796 C317.745,21.421 319.102,21.8477 320.035,22.1891 C321.053,22.6158 321.901,23.2132 322.58,24.0666 C323.258,24.92 323.683,26.1148 323.683,27.5657 C323.683,29.3579 323.004,30.8087 321.647,31.9182 C320.29,33.0276 318.508,33.625 316.303,33.625 C313.674,33.625 311.553,33.0276 309.857,31.7475 C308.16,30.4673 307.227,28.7605 306.973,26.4562 L310.535,26.4562 C310.705,27.8217 311.214,28.8458 312.316,29.6993 C313.334,30.5527 314.691,30.9794 316.388,30.9794 C317.66,30.9794 318.593,30.638 319.357,30.0406 C320.035,29.3579 320.459,28.5898 320.459,27.4803 C320.459,26.6269 320.205,25.9442 319.696,25.4321 C319.187,24.92 318.593,24.4933 317.83,24.2373 C317.066,23.9813 316.049,23.7252 314.776,23.3839 C313.165,23.0425 311.807,22.6158 310.874,22.2744 C309.941,21.933 309.093,21.3356 308.415,20.4822 C307.736,19.6288 307.397,18.5193 307.397,17.1538 C307.397,15.2763 308.075,13.8254 309.432,12.6306 C310.45,11.5212 312.316,10.9237 314.691,10.9237 Z M300.102,21.3356 C300.187,19.7141 299.932,18.3486 299.339,17.2391 C298.745,16.1297 297.897,15.3616 296.794,14.7642 C295.691,14.1668 294.588,13.9961 293.316,13.9961 C291.28,13.9961 289.669,14.5935 288.312,15.8737 C286.954,17.1538 286.191,18.946 286.106,21.3356 L300.102,21.3356 Z M303.834,21.0796 C303.834,21.8477 303.749,22.5304 303.664,23.1278 L286.106,23.1278 C286.191,25.6881 286.87,27.5657 288.227,28.8458 C289.584,30.126 291.196,30.7234 293.146,30.7234 C294.928,30.7234 296.37,30.2967 297.557,29.3579 C298.745,28.4191 299.508,27.2243 299.763,25.7735 L303.664,25.7735 C303.41,27.3096 302.816,28.6751 301.883,29.8699 C300.95,31.0647 299.763,32.0035 298.321,32.6863 C296.879,33.369 295.182,33.7104 293.316,33.7104 C291.196,33.7104 289.329,33.2837 287.718,32.3449 C286.106,31.4061 284.834,30.126 283.901,28.4191 C282.968,26.7122 282.544,24.7493 282.544,22.3597 C282.544,20.0555 282.968,18.0072 283.901,16.3004 C284.834,14.5935 286.106,13.228 287.718,12.3746 C289.329,11.4358 291.196,11.0091 293.316,11.0091 C295.437,11.0091 297.303,11.4358 298.914,12.3746 C300.526,13.3134 301.714,14.5082 302.562,16.0443 C303.41,17.4952 303.834,19.202 303.834,21.0796 Z M272.619,15.703 C273.298,14.1668 274.401,12.972 275.758,12.1186 C277.115,11.2651 278.811,10.8384 280.762,10.8384 L280.762,14.8495 L279.66,14.8495 C277.624,14.8495 275.927,15.3616 274.655,16.4711 C273.383,17.4952 272.704,19.2874 272.704,21.7623 L272.704,33.369 L269.057,33.369 L269.057,11.2651 L272.704,11.2651 L272.704,15.703 L272.619,15.703 Z M263.883,11.2651 L263.883,33.369 L260.235,33.369 L260.235,28.1631 C259.642,29.9553 258.709,31.3208 257.267,32.2596 C255.825,33.1983 254.213,33.7104 252.262,33.7104 C249.717,33.7104 247.682,32.857 246.07,31.2354 C244.458,29.6139 243.695,27.2243 243.695,24.1519 L243.695,11.2651 L247.342,11.2651 L247.342,23.8106 C247.342,26.0295 247.936,27.7364 249.039,28.9312 C250.141,30.126 251.668,30.7234 253.619,30.7234 C255.655,30.7234 257.182,30.0406 258.454,28.7605 C259.642,27.4803 260.235,25.5174 260.235,23.0425 L260.235,11.2651 L263.883,11.2651 Z M240.641,30.126 L240.641,33.369 L237.927,33.369 C235.722,33.369 234.025,32.857 232.922,31.7475 C231.82,30.638 231.226,28.8458 231.226,26.3709 L231.226,14.4228 L227.918,14.4228 L227.918,11.2651 L231.226,11.2651 L231.226,5.7178 L234.873,5.7178 L234.873,11.2651 L240.556,11.2651 L240.556,14.4228 L234.873,14.4228 L234.873,26.4562 C234.873,27.907 235.128,28.8458 235.637,29.3579 C236.146,29.8699 237.079,30.126 238.351,30.126 L240.641,30.126 Z M216.721,10.8384 C219.266,10.8384 221.387,11.6918 222.913,13.3134 C224.525,14.9349 225.288,17.3245 225.288,20.4822 L225.288,33.369 L221.641,33.369 L221.641,20.8236 C221.641,18.6046 221.047,16.8978 219.945,15.7883 C218.842,14.5935 217.315,13.9961 215.364,13.9961 C213.328,13.9961 211.802,14.6788 210.529,15.959 C209.342,17.2391 208.748,19.202 208.748,21.677 L208.748,33.369 L205.101,33.369 L205.101,11.2651 L208.748,11.2651 L208.748,16.4711 C209.342,14.6788 210.275,13.3134 211.717,12.2892 C213.244,11.3505 214.855,10.8384 216.721,10.8384 Z M197.467,21.3356 C197.551,19.7141 197.297,18.3486 196.703,17.2391 C196.109,16.1297 195.261,15.3616 194.159,14.7642 C193.056,14.1668 191.953,13.9961 190.681,13.9961 C188.645,13.9961 187.033,14.5935 185.676,15.8737 C184.319,17.1538 183.556,18.946 183.471,21.3356 L197.467,21.3356 Z M201.199,21.0796 C201.199,21.8477 201.114,22.5304 201.029,23.1278 L183.471,23.1278 C183.556,25.6881 184.234,27.5657 185.591,28.8458 C186.949,30.126 188.56,30.7234 190.511,30.7234 C192.292,30.7234 193.734,30.2967 194.922,29.3579 C196.109,28.4191 196.873,27.2243 197.127,25.7735 L201.029,25.7735 C200.775,27.3096 200.181,28.6751 199.248,29.8699 C198.315,31.0647 197.127,32.0035 195.685,32.6863 C194.243,33.369 192.547,33.7104 190.681,33.7104 C188.56,33.7104 186.694,33.2837 185.083,32.3449 C183.471,31.4061 182.199,30.126 181.266,28.4191 C180.332,26.7122 179.908,24.7493 179.908,22.3597 C179.908,20.0555 180.332,18.0072 181.266,16.3004 C182.199,14.5935 183.471,13.228 185.083,12.3746 C186.694,11.4358 188.56,11.0091 190.681,11.0091 C192.801,11.0091 194.667,11.4358 196.279,12.3746 C197.891,13.3134 199.078,14.5082 199.926,16.0443 C200.775,17.4952 201.199,19.202 201.199,21.0796 Z M156.752,4.9497 L165.319,29.2725 L174.056,4.9497 L178.042,4.9497 L167.694,33.369 L163.114,33.369 L152.765,4.9497 L156.752,4.9497 Z" id="Shape" fill="#9D60FF" fill-rule="nonzero"></path>
                <polygon id="Path" fill="#9D60FF" points="0 0 10.942 6.6568 10.942 36.1855 0 29.6141"></polygon>
                <polygon id="Path" stroke="#9D60FF" stroke-width="0.5669" points="0 0 10.942 6.6568 10.942 36.1855 0 29.6141"></polygon>
                <polygon id="Path" fill="#9D60FF" points="16.709 0 27.652 6.6568 27.652 36.1855 16.709 29.6141"></polygon>
                <polygon id="Path" stroke="#9D60FF" stroke-width="0.5669" points="16.709 0 27.652 6.6568 27.652 36.1855 16.709 29.6141"></polygon>
                <polygon id="Path" fill="#9D60FF" points="33.335 0 44.277 6.6568 44.277 36.1855 33.335 29.6141"></polygon>
                <polygon id="Path" stroke="#9D60FF" stroke-width="0.5669" points="33.335 0 44.277 6.6568 44.277 36.1855 33.335 29.6141"></polygon>
            </g>
            <g id="Group-3" transform="translate(369.568984, 146.155363)" fill="#9D60FF" fill-rule="nonzero">
                <path d="M63.3849263,83.1862267 L59.4709263,83.1862267 L59.4709263,82.1882267 L68.5269263,82.1882267 L68.5269263,83.1862267 L64.6129263,83.1862267 L64.6129263,93.3232267 L63.4619263,93.3232267 L63.3849263,83.1862267 Z M76.5849263,89.5602267 C77.4289263,89.2532267 78.0429263,88.8692267 78.5039263,88.2542267 C78.9639263,87.6402267 79.1179263,86.9492267 79.1179263,86.0282267 C79.1179263,84.7992267 78.7339263,83.8772267 77.8899263,83.1862267 C77.0449263,82.4952267 75.9709263,82.1882267 74.5129263,82.1882267 L70.3689263,82.1882267 L70.3689263,93.3992267 L71.5199263,93.3992267 L71.5199263,83.2632267 L74.5129263,83.2632267 C75.6639263,83.2632267 76.4319263,83.4942267 77.0449263,84.0312267 C77.6589263,84.4922267 77.8899263,85.1832267 77.8899263,86.1042267 C77.8899263,86.9492267 77.5829263,87.6402267 77.0449263,88.1782267 C76.5849263,88.5622267 75.8939263,88.8692267 75.1269263,88.8692267 L74.8199263,88.8692267 L75.4339263,89.7902267 L78.0429263,93.4762267 L79.3479263,93.4762267 L76.5849263,89.5602267 Z M94.2359263,69.9022267 C93.7759263,69.0572267 93.0089263,68.3662267 92.0879263,67.9052267 C91.1669263,67.4452267 90.1689263,67.2142267 88.9409263,67.2142267 L84.4129263,67.2142267 L84.4129263,68.2132267 L85.5639263,68.2132267 L88.8639263,68.2132267 C89.8619263,68.2132267 90.7059263,68.4432267 91.4739263,68.8272267 C92.2409263,69.2112267 92.7779263,69.7482267 93.1619263,70.4392267 C93.5459263,71.1312267 93.7759263,71.8982267 93.7759263,72.8202267 C93.7759263,73.6652267 93.5459263,74.5092267 93.1619263,75.2002267 C92.7779263,75.8912267 92.1639263,76.4292267 91.4739263,76.8132267 C90.7059263,77.1972267 89.8619263,77.4272267 88.8639263,77.4272267 L85.5639263,77.4272267 L84.4129263,77.4272267 L84.4129263,78.4252267 L88.9409263,78.4252267 C90.0919263,78.4252267 91.1669263,78.1952267 92.0879263,77.7342267 C93.0089263,77.2742267 93.6989263,76.5832267 94.2359263,75.7382267 C94.6969263,74.8932267 95.0039263,73.9722267 95.0039263,72.8202267 C95.0039263,71.7452267 94.7739263,70.7472267 94.2359263,69.9022267 Z M97.6129263,67.2142267 L98.7639263,67.2142267 L98.7639263,78.4252267 L97.6129263,78.4252267 L97.6129263,67.2142267 Z M110.352926,72.8202267 L111.503926,72.8202267 L111.503926,77.1202267 C110.966926,77.5812267 110.352926,77.9652267 109.661926,78.1952267 C108.971926,78.4252267 108.203926,78.5792267 107.436926,78.5792267 C106.284926,78.5792267 105.287926,78.3492267 104.366926,77.8112267 C103.522926,77.3502267 102.754926,76.6592267 102.217926,75.7382267 C101.756926,74.8932267 101.449926,73.8952267 101.449926,72.8202267 C101.449926,71.7452267 101.680926,70.7472267 102.217926,69.9022267 C102.677926,69.0572267 103.445926,68.3662267 104.366926,67.8292267 C105.210926,67.3682267 106.284926,67.0612267 107.436926,67.0612267 C108.280926,67.0612267 109.047926,67.2142267 109.815926,67.5212267 C110.505926,67.8292267 111.119926,68.2132267 111.580926,68.7502267 L110.812926,69.5182267 C109.968926,68.6732267 108.817926,68.2132267 107.436926,68.2132267 C106.515926,68.2132267 105.670926,68.4432267 104.980926,68.8272267 C104.212926,69.2112267 103.675926,69.7482267 103.215926,70.5162267 C102.754926,71.2072267 102.601926,71.9752267 102.601926,72.8972267 C102.601926,73.7412267 102.831926,74.5862267 103.215926,75.2772267 C103.675926,75.9682267 104.212926,76.5832267 104.903926,76.9662267 C105.670926,77.3502267 106.438926,77.5812267 107.359926,77.5812267 C108.510926,77.5812267 109.508926,77.2742267 110.275926,76.7362267 L110.352926,72.8202267 Z M114.803926,67.2142267 L115.954926,67.2142267 L115.954926,78.4252267 L114.803926,78.4252267 L114.803926,67.2142267 Z M121.787926,68.2132267 L117.873926,68.2132267 L117.873926,67.2142267 L126.929926,67.2142267 L126.929926,68.2132267 L123.015926,68.2132267 L123.015926,78.3492267 L121.864926,78.3492267 L121.787926,68.2132267 Z M132.762926,67.2142267 L131.534926,67.2142267 L126.392926,78.4252267 L127.620926,78.4252267 L132.071926,68.4432267 L136.522926,78.4252267 L137.827926,78.4252267 L132.762926,67.2142267 Z M139.669926,67.2142267 L140.897926,67.2142267 L140.897926,77.3502267 L147.113926,77.3502267 L147.113926,78.3492267 L139.669926,78.3492267 L139.669926,67.2142267 Z M86.4079263,82.1882267 L85.2569263,82.1882267 L80.1149263,93.3992267 L81.3429263,93.3992267 L85.7939263,83.4172267 L90.2459263,93.3992267 L91.4739263,93.3992267 L86.4079263,82.1882267 Z M94.9269263,83.1862267 L91.0129263,83.1862267 L91.0129263,82.1882267 L100.068926,82.1882267 L100.068926,83.1862267 L96.1549263,83.1862267 L96.1549263,93.3232267 L95.0039263,93.3232267 L94.9269263,83.1862267 Z M101.910926,82.1882267 L109.584926,82.1882267 L109.584926,83.1862267 L101.910926,83.1862267 L101.910926,82.1882267 Z M101.910926,87.1792267 L108.894926,87.1792267 L108.894926,88.1782267 L101.910926,88.1782267 L101.910926,87.1792267 Z M101.910926,92.3242267 L109.815926,92.3242267 L109.815926,93.3232267 L101.910926,93.3232267 L101.910926,92.3242267 Z M120.482926,87.7942267 L121.634926,87.7942267 L121.634926,92.0942267 C121.096926,92.5552267 120.482926,92.9392267 119.792926,93.1692267 C119.101926,93.3992267 118.333926,93.5532267 117.566926,93.5532267 C116.415926,93.5532267 115.417926,93.3232267 114.496926,92.7852267 C113.652926,92.3242267 112.885926,91.6332267 112.347926,90.7122267 C111.887926,89.8672267 111.580926,88.8692267 111.580926,87.7942267 C111.580926,86.7192267 111.810926,85.7202267 112.347926,84.8762267 C112.808926,84.0312267 113.575926,83.3402267 114.496926,82.8022267 C115.340926,82.3422267 116.415926,82.0352267 117.566926,82.0352267 C118.410926,82.0352267 119.178926,82.1882267 119.945926,82.4952267 C120.636926,82.8022267 121.250926,83.1862267 121.710926,83.7242267 L120.943926,84.4922267 C120.099926,83.6472267 118.947926,83.1862267 117.566926,83.1862267 C116.645926,83.1862267 115.801926,83.4172267 115.110926,83.8012267 C114.343926,84.1852267 113.805926,84.7222267 113.345926,85.4902267 C112.885926,86.1812267 112.731926,86.9492267 112.731926,87.8712267 C112.731926,88.7152267 112.961926,89.5602267 113.345926,90.2512267 C113.805926,90.9422267 114.343926,91.5562267 115.033926,91.9402267 C115.801926,92.3242267 116.568926,92.5552267 117.489926,92.5552267 C118.640926,92.5552267 119.638926,92.2472267 120.406926,91.7102267 L120.482926,87.7942267 Z M124.934926,82.1882267 L126.085926,82.1882267 L126.085926,93.3992267 L124.934926,93.3992267 L124.934926,82.1882267 Z M137.366926,83.1862267 L137.366926,82.1882267 L129.692926,82.1882267 L129.692926,83.1862267 L137.366926,83.1862267 Z M129.692926,88.1782267 L129.692926,87.1792267 L136.676926,87.1792267 L136.676926,88.1782267 L130.920926,88.1782267 L129.692926,88.1782267 Z M129.692926,92.3242267 L129.692926,93.3232267 L137.597926,93.3232267 L137.597926,92.3242267 L129.692926,92.3242267 Z M141.050926,93.0152267 C140.283926,92.7082267 139.745926,92.4012267 139.285926,91.9402267 L139.745926,91.0192267 C140.129926,91.4032267 140.666926,91.7872267 141.357926,92.0172267 C142.048926,92.2472267 142.738926,92.4012267 143.429926,92.4012267 C144.427926,92.4012267 145.194926,92.2472267 145.655926,91.8642267 C146.115926,91.4802267 146.422926,91.0192267 146.422926,90.4052267 C146.422926,89.9442267 146.269926,89.5602267 145.962926,89.3302267 C145.655926,89.0222267 145.348926,88.8692267 144.964926,88.7152267 C144.580926,88.5622267 144.043926,88.4082267 143.276926,88.2542267 C142.431926,88.0242267 141.741926,87.7942267 141.280926,87.6402267 C140.820926,87.4102267 140.359926,87.1792267 139.976926,86.7192267 C139.592926,86.3352267 139.438926,85.7972267 139.438926,85.0292267 C139.438926,84.4922267 139.592926,83.9542267 139.899926,83.4942267 C140.206926,83.0332267 140.666926,82.6492267 141.280926,82.4182267 C141.894926,82.1112267 142.662926,81.9582267 143.583926,81.9582267 C144.197926,81.9582267 144.887926,82.0352267 145.425926,82.1882267 C146.038926,82.3422267 146.576926,82.6492267 147.036926,82.9562267 L146.652926,83.8772267 C146.192926,83.5702267 145.732926,83.3402267 145.118926,83.1862267 C144.580926,83.0332267 144.043926,82.9562267 143.583926,82.9562267 C142.585926,82.9562267 141.818926,83.1102267 141.357926,83.4942267 C140.897926,83.8772267 140.590926,84.3382267 140.590926,84.9532267 C140.590926,85.4132267 140.743926,85.7972267 141.050926,86.0282267 C141.357926,86.3352267 141.664926,86.4882267 142.048926,86.6422267 C142.508926,86.7952267 142.969926,86.9492267 143.736926,87.1032267 C144.580926,87.3332267 145.194926,87.4872267 145.732926,87.7172267 C146.192926,87.9472267 146.652926,88.1782267 147.036926,88.5622267 C147.420926,88.9462267 147.573926,89.4832267 147.573926,90.1742267 C147.573926,90.7122267 147.420926,91.2492267 147.113926,91.7102267 C146.806926,92.1712267 146.345926,92.5552267 145.732926,92.7852267 C145.118926,93.0922267 144.350926,93.2462267 143.429926,93.2462267 C142.662926,93.4762267 141.894926,93.3232267 141.050926,93.0152267 Z M52.2569263,93.0152267 C51.4889263,92.7082267 50.9519263,92.4012267 50.4919263,91.9402267 L50.9519263,91.0192267 C51.3359263,91.4032267 51.8729263,91.7872267 52.5639263,92.0172267 C53.2539263,92.2472267 53.9449263,92.4012267 54.6359263,92.4012267 C55.6339263,92.4012267 56.4009263,92.2472267 56.8609263,91.8642267 C57.3219263,91.4802267 57.6289263,91.0192267 57.6289263,90.4052267 C57.6289263,89.9442267 57.4749263,89.5602267 57.1679263,89.3302267 C56.8609263,89.0222267 56.5549263,88.8692267 56.1709263,88.7152267 C55.7869263,88.5622267 55.2499263,88.4082267 54.4819263,88.2542267 C53.6379263,88.0242267 52.9469263,87.7942267 52.4869263,87.6402267 C52.0269263,87.4102267 51.5659263,87.1792267 51.1819263,86.7192267 C50.7989263,86.3352267 50.6449263,85.7972267 50.6449263,85.0292267 C50.6449263,84.4922267 50.7989263,83.9542267 51.1059263,83.4942267 C51.4129263,83.0332267 51.8729263,82.6492267 52.4869263,82.4182267 C53.1009263,82.1112267 53.8679263,81.9582267 54.7889263,81.9582267 C55.4029263,81.9582267 56.0939263,82.0352267 56.6309263,82.1882267 C57.2449263,82.3422267 57.7819263,82.6492267 58.2429263,82.9562267 L57.8589263,83.8772267 C57.3989263,83.5702267 56.9379263,83.3402267 56.3239263,83.1862267 C55.7869263,83.0332267 55.2499263,82.9562267 54.7889263,82.9562267 C53.7919263,82.9562267 53.0239263,83.1102267 52.5639263,83.4942267 C52.1029263,83.8772267 51.7959263,84.3382267 51.7959263,84.9532267 C51.7959263,85.4132267 51.9499263,85.7972267 52.2569263,86.0282267 C52.5639263,86.3352267 52.8709263,86.4882267 53.2539263,86.6422267 C53.7149263,86.7952267 54.1749263,86.9492267 54.9429263,87.1032267 C55.7869263,87.3332267 56.4009263,87.4872267 56.9379263,87.7172267 C57.3989263,87.9472267 57.8589263,88.1782267 58.2429263,88.5622267 C58.6269263,88.9462267 58.7799263,89.4832267 58.7799263,90.1742267 C58.7799263,90.7122267 58.6269263,91.2492267 58.3199263,91.7102267 C58.0129263,92.1712267 57.5519263,92.5552267 56.9379263,92.7852267 C56.3239263,93.0922267 55.5569263,93.2462267 54.6359263,93.2462267 C53.7919263,93.4762267 53.0239263,93.3232267 52.2569263,93.0152267 Z" id="Shape"></path>
                <path d="M52.2569263,32.2752267 L44.0449263,14.8442267 L39.1329263,45.7132267 L42.5869263,45.7132267 L52.2569263,32.2752267 Z M58.6259263,37.2662267 L53.4079263,33.5042267 L44.8119263,45.6362267 L57.0149263,43.7932267 L58.6259263,37.2662267 Z M23.3999263,18.9142267 L37.7519263,44.2542267 L42.6629263,13.3852267 L23.3999263,18.9142267 Z M56.6309263,31.0462267 L61.1589263,30.6632267 L61.1589263,28.0522267 L56.6309263,31.0462267 Z M61.5429263,32.1222267 L55.0189263,32.7362267 L70.5989263,44.1012267 L61.5429263,32.1222267 Z M55.5569263,49.9372267 L56.5539263,45.4832267 L44.3519263,47.1722267 L47.0379263,50.4742267 L55.5569263,49.9372267 Z M71.7499263,46.7882267 L69.2169263,52.9312267 L73.5919263,48.1702267 L71.7499263,46.7882267 Z M58.2429263,51.0122267 L69.9079263,45.4062267 L60.0079263,38.2652267 C59.0099263,42.3342267 57.9359263,46.2512267 57.0919263,50.3972267 L58.2429263,51.0122267 Z M66.3009263,55.6192267 L69.8309263,47.2492267 L60.0079263,52.0102267 L66.3009263,55.6192267 Z M22.3259263,20.1422267 L11.9649263,41.0292267 L36.6769263,45.3292267 L22.3259263,20.1422267 Z M4.67492628,52.1632267 L21.4049263,18.2232267 L17.6439263,11.8492267 L4.67492628,52.1632267 Z M56.1709263,10.6972267 L50.7979263,16.0732267 L58.1659263,21.0642267 L61.9269263,15.7652267 L56.1709263,10.6972267 Z M51.7189263,7.62622672 L50.7979263,13.9232267 L55.3259263,9.39222672 L55.9399263,2.94222672 L51.7189263,7.62622672 Z M49.0329263,14.8442267 L50.1079263,8.16322672 L18.8719263,10.7742267 L22.7099263,17.3012267 L43.5079263,11.3122267 C43.8149263,11.2352267 44.0449263,11.3892267 44.2749263,11.5422267 L49.0329263,14.8442267 Z M45.5799263,14.3832267 L53.4079263,31.2772267 L60.9289263,26.2092267 L57.9359263,22.8302267 C57.9359263,22.8302267 46.5769263,15.0742267 45.5799263,14.3832267 Z M38.2119263,59.0742267 L13.0399263,85.3362267 L54.7889263,75.3542267 L38.2119263,59.0742267 Z M14.9579263,43.1022267 L37.4449263,56.6942267 L37.4449263,47.0192267 L14.9579263,43.1022267 Z M35.6799263,57.3852267 L11.1979263,42.5652267 L2.14192628,60.9172267 L35.6799263,57.3852267 Z M64.0749263,102.690227 L55.4799263,106.914227 L63.4609263,106.914227 L64.0749263,102.690227 Z M14.5749263,97.6992267 L6.43992628,100.924227 L18.4889263,105.992227 L14.5749263,97.6992267 Z M20.6379263,106.914227 L49.0329263,106.914227 L12.2719263,88.5612267 L20.6379263,106.914227 Z M19.4859263,108.450227 L3.90692628,101.615227 C3.59992628,101.539227 3.44692628,101.155227 3.44692628,100.848227 C3.44692628,100.387227 3.90692628,100.080227 3.90692628,100.080227 L13.7299263,96.1632267 L9.96992628,87.4092267 C9.73992628,86.7952267 9.66292628,86.4112267 10.1999263,85.8742267 L36.2939263,58.7672267 L1.14392628,62.4532267 C0.529926281,62.5302267 -0.237073719,62.4532267 0.0699262808,61.5322267 C5.59492628,44.4082267 11.0439263,27.0532267 16.5699263,9.77622672 C16.7239263,9.46922672 16.8769263,9.31522672 17.3379263,9.16222672 L50.7219263,6.39722672 L56.4009263,0.254226724 C56.7079263,-0.0527732762 57.0149263,-0.0527732762 57.3219263,0.101226724 C57.6289263,0.254226724 57.7819263,0.561226724 57.7819263,0.868226724 L57.0149263,9.39222672 L63.4609263,15.0742267 C63.7679263,15.3822267 63.7679263,15.8422267 63.6149263,16.1492267 L59.4709263,22.1392267 L62.5399263,25.6712267 C62.6939263,25.8252267 62.6939263,25.9782267 62.6939263,26.1322267 L62.6939263,31.0462267 L75.2029263,47.4022267 C75.5099263,47.7102267 75.3569263,48.1702267 75.2029263,48.4782267 L67.3749263,57.3082267 C67.0679263,57.6152267 66.7609263,57.6152267 66.4539263,57.4622267 L56.0939263,51.6262267 L46.8079263,52.0872267 C46.5009263,52.0872267 46.3469263,51.9332267 46.1939263,51.7792267 L42.5099263,47.3262267 L38.9799263,47.3262267 L38.9799263,57.6922267 L57.0149263,75.1232267 C57.3219263,75.4302267 57.3219263,75.8912267 57.0149263,76.1982267 C56.8609263,76.3522267 56.7849263,76.4292267 56.5539263,76.5052267 L12.6559263,87.0262267 L52.0259263,106.914227 L64.7659263,100.464227 C64.9959263,100.387227 65.4569263,100.310227 65.6869263,100.464227 C65.9939263,100.771227 65.9939263,101.231227 65.9939263,101.231227 L65.0729263,107.912227 C64.9199263,108.219227 64.6129263,108.526227 64.3059263,108.526227 C49.3399263,108.450227 34.4519263,108.450227 19.4859263,108.450227 Z" id="Shape"></path>
            </g>
            <g id="Exnetwork_logo-2" transform="translate(29.000000, 143.000000)" fill="#9D60FF" fill-rule="nonzero">
                <g id="Exnetwork_logo">
                    <path d="M71,0.0654543913 C71,0.174545009 71.4377882,0.87272659 71.8320244,1.38544969 C72.0289156,1.63636001 72.5329391,2.39999343 72.9489513,3.07635743 C73.3758514,3.75272143 73.9452029,4.60361523 74.2187638,4.96364058 C74.4927783,5.32362072 74.7223336,5.68364607 74.7223336,5.77088385 C74.7223336,5.85816683 74.9087905,6.17452808 75.1387994,6.47999592 C75.7625909,7.29817781 76.5837272,8.50906532 76.5837272,8.5963483 C76.5837272,8.63996719 76.8028481,8.98905391 77.076409,9.38180472 C77.8322174,10.4617904 78.1384423,10.9308855 78.3793392,11.3454232 C78.5109025,11.563608 78.9051387,12.1744985 79.2662572,12.6981512 C79.6278294,13.2326973 79.9998359,13.7890754 80.0873936,13.9527028 C80.1754049,14.1054367 80.656745,14.8363356 81.1607685,15.5563411 C81.6534503,16.28724 82.0585745,16.9090691 82.0585745,16.9417946 C82.0585745,17.0181389 83.1641597,18.6763348 83.4381743,19.0145281 C83.5801719,19.1781554 83.8210688,19.570861 83.9744081,19.8872223 C84.1386354,20.2035835 84.3577563,20.5526702 84.4562019,20.6726787 C84.5659892,20.7926871 84.8722141,21.2072248 85.123999,21.5999756 C85.3871256,21.9926812 85.6389105,22.3199359 85.6933504,22.3417679 C85.7373561,22.3636 85.7809081,22.450883 85.7809081,22.5381208 C85.7809081,22.7017933 86.4269292,23.7053894 86.9962806,24.4363335 C87.1605079,24.6435797 87.4345225,25.069056 87.6096377,25.3854172 C87.773865,25.6908399 88.2556588,26.4326774 88.671671,27.021781 C89.0767952,27.6108395 89.4492554,28.1672176 89.4819193,28.2545006 C89.547701,28.43996 90.1606044,29.3672117 90.2703917,29.4544947 C90.3470614,29.5090522 91.0806401,30.6435953 91.3101953,31.0363009 C91.5402042,31.4508386 92.5037919,32.8908496 92.8653641,33.3599448 C93.0622553,33.6217485 93.2264826,33.8835522 93.2264826,33.9381098 C93.2264826,34.0690116 94.8796433,36.4799384 95.0003186,36.5235573 C95.0438706,36.5453893 95.0878762,36.6217337 95.0878762,36.6981233 C95.0878762,36.8399186 95.9199006,38.1817531 96.0623519,38.290823 C96.2265791,38.399938 96.8394826,39.3708086 96.8394826,39.5126491 C96.8394826,39.5889934 96.9492699,39.7744528 97.0694915,39.9271867 C97.1901668,40.0799207 97.5403973,40.5708479 97.8470759,41.018111 C98.1646424,41.4653741 98.4822089,41.9017438 98.5588786,41.9780882 C98.6350946,42.0544778 98.7008762,42.1853796 98.7008762,42.2508306 C98.7008762,42.3817324 99.4344549,43.527169 99.5769062,43.636284 C99.6209118,43.6690095 99.8395791,43.9853708 100.069588,44.3344575 L100.4856,44.9780734 L100.387155,45.1199139 C100.047812,45.5778896 98.9417731,47.2033148 98.8106635,47.4433317 C98.263088,48.3817028 98.0330791,48.7636506 97.9015158,48.8942813 C97.6170669,49.1781431 96.8394826,50.3890758 96.8394826,50.5527031 C96.8394826,50.6399409 96.7959306,50.7271787 96.7519249,50.7488751 C96.6208153,50.79272 95.5256644,52.3851485 95.1645459,53.0509581 C94.9894306,53.3673646 94.6609761,53.8582466 94.4309671,54.1633528 C94.2009582,54.4580628 93.7082764,55.19981 93.3358162,55.8000782 C92.9638097,56.3998944 92.3944582,57.261876 92.0660037,57.7197614 C91.7484372,58.1780987 91.4308706,58.6689807 91.375977,58.8217599 C91.321537,58.9636908 91.1573097,59.2254041 91.0148584,59.4107279 C90.7190679,59.759679 89.7994859,61.134239 89.4379137,61.7345073 C89.1970168,62.159848 88.8907919,62.6290335 88.1349835,63.7088836 C87.8614226,64.1016796 87.6423017,64.4506307 87.6423017,64.4944756 C87.6423017,64.5817134 86.5035988,66.2509834 86.1424803,66.6871723 C86.010917,66.8507997 85.8031377,67.1997508 85.6824624,67.4506159 C85.5731288,67.701481 85.2555623,68.1923631 84.9928894,68.5417662 C84.7302165,68.8907173 84.237081,69.610768 83.9086265,70.1563431 C83.5915136,70.7014662 83.1314957,71.3889723 82.9014868,71.6945305 C82.6714779,71.9996367 82.3321354,72.5235154 82.1461321,72.8616183 C81.9710169,73.1997212 81.7301199,73.5708208 81.6203327,73.6906032 C81.4016654,73.9414684 80.4816297,75.3273286 80.1313992,75.9379931 C79.9998359,76.1671618 79.6169414,76.7344333 79.2884869,77.2144671 C78.9486907,77.6836527 78.5657961,78.2726207 78.4233449,78.5234858 C78.2808936,78.7635027 77.8757694,79.3963156 77.5146509,79.9197423 C77.1530787,80.443621 76.7592962,81.0434373 76.6277329,81.2617577 C76.375948,81.7087948 76.1241631,82.0798944 75.3030267,83.2691307 C74.9854602,83.727016 74.7223336,84.1306602 74.7223336,84.1636569 C74.7223336,84.2508947 73.693418,85.7560854 73.2225122,86.3780501 C73.0256209,86.6397634 72.8613936,86.9236252 72.8613936,87.0000148 C72.8613936,87.0764043 72.6971664,87.3706624 72.4889334,87.6323757 C71.941358,88.3415782 71,89.7816795 71,89.901462 L71,90 L90.6864039,90 L110.372808,90 L110.547923,89.7925278 C110.887266,89.3888835 111.730178,88.090713 111.730178,87.9596304 C111.730178,87.894541 111.774184,87.8181515 111.818189,87.796003 C111.872629,87.7743066 112.124414,87.4470519 112.387541,87.0542559 C112.650214,86.6614599 113.033562,86.1380332 113.230453,85.8763199 C113.427344,85.6141545 113.591572,85.3632894 113.591572,85.3198965 C113.591572,85.1996621 116.416553,80.9561995 116.668338,80.6836379 C116.778125,80.5742517 116.996792,80.2144523 117.16102,79.8980459 C117.325247,79.5816394 117.53348,79.2326883 117.631925,79.1233021 C117.828817,78.9054336 119.066419,77.1380776 119.066419,77.061688 C119.066419,76.9852985 119.865779,75.7743658 120.150228,75.4145664 C120.303567,75.2179424 120.467795,75.0543151 120.500459,75.0543151 C120.544464,75.0543151 120.839801,75.4796557 121.179597,76.0143826 C121.508052,76.5378093 121.890946,77.0833845 122.02251,77.2361636 C122.241631,77.4870287 122.559197,77.9670625 122.89854,78.5673307 C122.986097,78.7196578 123.380334,79.3090779 123.77457,79.854201 C124.168352,80.4106243 124.540812,80.9453513 124.595706,81.0434373 C125.022606,81.7087948 125.591958,82.54908 125.690403,82.6580142 C125.767073,82.7235555 125.963964,83.0178135 126.139533,83.3125236 C126.314648,83.5963853 126.51154,83.9123398 126.566433,84.0108778 C126.632215,84.1089638 126.993333,84.6432387 127.38757,85.1996621 C127.781806,85.7452372 128.176042,86.3342052 128.2636,86.4869843 C128.581166,87.0542559 128.942285,87.6106792 129.073848,87.7417619 C129.270739,87.9379339 130.114105,89.2035597 130.201663,89.4214282 C130.245215,89.5199662 130.354549,89.6944418 130.44256,89.803376 L130.606787,90 L150.785873,90 C161.877111,90 170.975847,89.9670033 170.997623,89.9127622 C171.052516,89.8363727 170.143822,88.3745748 169.618023,87.6870688 C169.442907,87.4687484 169.169347,87.0434077 169.016007,86.7486977 C168.85178,86.4544397 168.42488,85.7890821 168.063308,85.2543552 C167.702189,84.7309285 167.362393,84.217898 167.297065,84.119812 C166.683708,83.1055033 166.475929,82.7777966 166.125244,82.3090631 C165.895235,82.0035048 165.621675,81.5890124 165.512341,81.3815402 C165.271444,80.9123546 164.077847,79.0907574 163.880956,78.8945854 C163.804287,78.8068956 163.606942,78.4796409 163.442714,78.1636865 C163.289375,77.8359798 163.05982,77.4653323 162.950033,77.3450978 C162.829811,77.2144671 162.260459,76.3633338 161.691108,75.4579593 C161.110869,74.5417366 160.606845,73.777841 160.563293,73.7452964 C160.409954,73.6255139 159.796597,72.6654463 159.796597,72.5235154 C159.796597,72.4471259 159.654599,72.207109 159.479484,71.9996367 C159.117912,71.5525996 158.241882,70.2327327 157.77143,69.4254442 C157.595861,69.1090378 157.223854,68.5526144 156.94984,68.1923631 C156.676279,67.8217155 156.358712,67.3416817 156.23849,67.112513 C155.603357,65.9562734 154.322203,64.516172 153.117719,63.6216458 C152.3297,63.043526 150.281849,61.9523757 149.395385,61.6364213 C148.366016,61.2761699 147.029968,61.1016944 145.344143,61.0908462 C143.90965,61.0908462 141.380459,61.2436253 140.241756,61.4072526 L139.694181,61.4836422 L140.493541,60.7305948 C140.931783,60.3161024 141.292901,59.9233063 141.292901,59.8690652 C141.292901,59.8143721 141.435353,59.6182001 141.610468,59.4545728 C142.004704,59.0617768 142.924286,57.6763685 143.044508,57.2944207 C143.176071,56.8907765 143.351186,54.4797593 143.296746,53.9124877 C143.263629,53.6616226 143.197847,53.4546024 143.143407,53.4546024 C143.088513,53.4546024 143.044508,53.487147 143.044508,53.5309919 C143.044508,53.585233 142.968292,54.0869633 142.88028,54.6542348 L142.705165,55.690692 L142.420716,56.2362671 C141.840477,57.3708103 140.811108,58.4398121 138.665265,60.1633232 C138.150354,60.5782677 137.329217,61.3091666 136.825647,61.7887484 L135.927841,62.6615782 L135.456936,63.6433422 C135.194263,64.1889174 134.90936,64.8000338 134.821803,64.9853576 C134.734245,65.1815296 134.635799,65.345157 134.603135,65.345157 C134.55913,65.345157 134.263793,65.0725954 133.946226,64.7453407 C133.617772,64.418086 133.300205,64.1455245 133.234423,64.1455245 L133.113748,64.1455245 L133.212647,64.7778854 C133.354645,65.5960221 133.245311,67.4289195 133.026191,68.1815148 C132.807523,68.9015655 132.215942,70.1454949 132.084833,70.1454949 C132.029939,70.1454949 131.986387,70.2105842 131.986387,70.2869738 C131.986387,70.4835978 130.913012,71.4979065 130.453448,71.7379234 L130.0701,71.9345474 L128.482267,71.9236992 L126.894888,71.912399 L125.876407,71.6181409 C124.880155,71.3342792 122.986097,70.4835978 122.843646,70.2652773 C122.810982,70.199736 122.701195,70.1454949 122.602749,70.1454949 C122.296071,70.1454949 121.048034,69.2726651 120.818025,68.8907173 L120.599358,68.530918 L120.752244,68.2253597 C121.168709,67.3855266 121.924064,65.639867 122.164961,64.9089681 C122.3183,64.4614789 122.52608,63.6433422 122.624525,63.1090673 L122.810982,62.1273033 L122.756088,61.3091666 C122.712536,60.8616775 122.580973,60.0982339 122.460298,59.6182001 C122.219401,58.7453703 121.387377,56.4545876 121.09204,55.887316 C121.004482,55.7236887 120.927812,55.5053682 120.927812,55.4181304 C120.927812,55.3200444 120.653798,54.6980797 120.325343,54.0327221 C119.996889,53.3560643 119.723328,52.7779445 119.723328,52.7345517 C119.723328,52.6907068 119.84355,52.407297 119.986001,52.1017388 C120.128452,51.7961805 120.336231,51.1742158 120.446019,50.7271787 L120.653798,49.909042 L120.653798,46.9524497 L120.653798,43.9962642 L121.14648,44.4217405 C121.726719,44.9344545 122.263407,45.2289385 122.82187,45.3270245 L123.226994,45.4034141 L123.226994,45.3053281 C123.226994,45.1308073 122.120955,44.0726537 121.606498,43.7453539 C121.354713,43.5708331 121.004482,43.3089841 120.839801,43.1453568 C120.412901,42.7199257 118.704847,41.6181081 117.807041,41.1817383 C116.887459,40.7344752 115.945647,40.5053517 114.248481,40.2981055 L112.989556,40.156265 L110.799708,40.1453716 L108.60986,40.1453716 L107.23026,39.9817443 C106.474905,39.8944613 105.598875,39.7744528 105.270421,39.7090019 C104.372615,39.5235425 103.069685,39.0871728 102.697224,38.8362625 C102.522109,38.7162992 102.215884,38.5199012 102.018539,38.3889994 C101.832536,38.2689909 101.449188,37.8435598 101.175627,37.4399156 L100.672057,36.7090167 L100.299597,35.694482 C99.8944727,34.6035577 99.6426878,33.676306 99.7084695,33.50174 C99.7193575,33.4362891 100.026036,33.6435805 100.365379,33.9599418 C100.704721,34.2763031 101.131621,34.6035577 101.295849,34.6908407 C101.460076,34.7781237 101.974987,35.0508209 102.423663,35.3126698 C102.872793,35.5635801 103.54059,35.8581093 103.901709,35.9671792 L104.558618,36.1635772 L107.350935,36.1526385 L110.142799,36.1526385 L111.949299,35.9562857 C112.94555,35.8472159 114.960283,35.7381009 116.438329,35.7053754 L119.120859,35.6399245 L120.172004,35.7599329 C120.741356,35.8362773 121.508052,35.9890112 121.86917,36.1090196 C122.668531,36.381762 124.212358,37.1344478 124.496807,37.3962967 C124.924161,37.7890023 125.613734,38.290823 125.712179,38.290823 C125.777961,38.290823 126.259755,38.7053606 126.796442,39.2181199 C127.332676,39.7199405 127.803582,40.1453716 127.858476,40.1453716 C127.989585,40.1453716 127.946033,39.4580916 127.770918,38.8799266 L127.617579,38.3453805 L127.004221,37.5817561 C126.675767,37.1562798 126.270643,36.6871846 126.117303,36.5235573 L125.821967,36.2290281 L126.237979,35.7599329 C127.080891,34.8217426 128.920509,32.9781326 130.015206,31.9635527 C130.639451,31.3962811 131.493251,30.5999312 131.920605,30.1853936 C132.347505,29.7817493 132.741742,29.4544947 132.807523,29.4544947 C132.861963,29.4544947 133.146866,29.2472032 133.420427,28.9853995 C134.208899,28.265394 134.90936,27.7090159 135.040923,27.7090159 C135.106705,27.7090159 135.314484,27.5672206 135.511829,27.3926546 C137.099208,26.0181398 140.581099,24.5017844 142.836729,24.2181486 C143.296746,24.1635911 143.986319,24.0654147 144.380556,24.0108572 C146.055946,23.7381148 148.223564,23.5527007 151.02677,23.4435856 C152.67993,23.3890281 154.081306,23.3563026 154.157976,23.3890281 C154.343979,23.4544791 154.464654,23.3563026 154.771333,22.8981461 C154.913331,22.6799612 155.230897,22.2108661 155.482682,21.8617794 C155.723579,21.501754 155.997594,21.0872164 156.085151,20.9344824 C156.31516,20.4981579 157.267406,19.0690404 157.497415,18.8181301 C157.607202,18.6981216 157.847646,18.327248 158.023214,17.9890547 C158.209218,17.6508614 158.54856,17.127254 158.778569,16.8217861 C159.008578,16.5163183 159.457254,15.8290383 159.774821,15.3054308 C160.103275,14.7708847 160.650851,13.9418094 161.011969,13.4617756 C161.362654,12.9926804 161.65799,12.5236304 161.65799,12.4363474 C161.65799,12.3490645 161.767778,12.1527117 161.887999,11.9999777 C162.008675,11.8472438 162.358905,11.3563618 162.665584,10.9090535 C162.98315,10.4617904 163.300717,10.0254207 163.376933,9.9490763 C163.453602,9.87268674 163.519384,9.74178487 163.519384,9.67633393 C163.519384,9.53453864 164.220299,8.4545078 164.461196,8.21453611 C164.658087,8.00724468 165.380778,6.80725059 165.380778,6.67634872 C165.380778,6.61089779 165.424783,6.54544685 165.468335,6.52361481 C165.578123,6.47999592 167.132838,4.18908209 167.395511,3.68726598 C167.504844,3.45817414 167.691301,3.18544986 167.800635,3.06545045 C167.997526,2.8581771 169.760474,0.141817733 169.760474,0.0436362677 C169.760474,0.0218181441 160.924412,0 150.117622,0 L130.475224,0 L130.256103,0.479998377 C130.124993,0.741815679 129.960766,1.02545147 129.873208,1.1018139 C129.741645,1.23272482 128.723164,2.67272224 128.427827,3.15271987 C128.011815,3.80726538 127.442463,4.64727932 127.38757,4.69089821 C127.245118,4.79996804 126.51154,5.94544981 126.51154,6.05451964 C126.51154,6.11997057 126.423982,6.27270449 126.314648,6.39271294 C126.040634,6.67634872 124.989942,8.20359748 124.650146,8.7927011 C124.496807,9.05450485 124.103024,9.64360847 123.77457,10.0908716 C123.446115,10.5490733 123.073655,11.0945129 122.95298,11.3235911 C122.832758,11.541776 122.701195,11.7490674 122.668531,11.7817929 C122.635867,11.8145184 122.39497,12.1527117 122.131843,12.5454173 C121.880058,12.9381681 121.573834,13.3527057 121.464046,13.4727142 C121.354713,13.5926774 121.124704,13.9635962 120.949588,14.2908961 C120.774473,14.6181508 120.588016,14.8908931 120.522688,14.91268 C120.423789,14.9454054 119.580877,13.8108623 119.175752,13.1017954 C118.83641,12.5126918 118.518843,12.0327032 118.31061,11.7926863 C118.190389,11.6617844 117.905486,11.2472468 117.664589,10.876328 C116.525886,9.06544347 116.296331,8.73814359 115.836313,8.12725313 C115.57364,7.76727298 115.343632,7.41818626 115.343632,7.3417967 C115.343632,7.27634577 115.168516,6.98181656 114.949395,6.69818077 C114.730274,6.41454498 114.084253,5.47635464 113.526244,4.61455386 C112.956892,3.75272143 112.398429,2.94544652 112.277753,2.80362863 C112.157532,2.67272224 111.938411,2.32363099 111.79596,2.01817672 C111.64262,1.72363395 111.423953,1.35272422 111.303278,1.21090633 C111.172168,1.05818145 110.931271,0.730908697 110.767044,0.469091395 L110.471253,0 L90.7408439,0 C79.8796143,0 71,0.0327272059 71,0.0654543913 Z M117.369252,42.7308192 C117.916828,43.0035615 118.704847,43.6471774 118.891304,43.9417067 C119.099083,44.2908386 119.307316,45.6108863 119.318204,46.5818021 L119.318204,47.6182593 L119.18664,48.1091413 C118.902192,49.0800571 118.617289,49.0145158 116.65745,47.508873 C116.383889,47.3018528 116.132104,47.1273773 116.088098,47.1273773 C116.044546,47.1273773 115.748756,46.9745981 115.431189,46.7779741 L114.861838,46.429023 L113.854698,46.3851781 L112.857993,46.3417852 L111.71929,46.527109 L110.580587,46.723733 L109.430996,46.723733 C108.226512,46.723733 107.340047,46.5709539 106.694026,46.2545474 C105.92733,45.8617514 104.317721,44.7708272 104.252393,44.5744744 L104.197499,44.4435273 L105.150199,44.5417489 C105.664657,44.5853678 107.033369,44.6399253 108.172072,44.6508187 L110.252132,44.6617121 L110.744814,44.5199169 C111.413065,44.3235641 112.96778,43.5708331 113.701359,43.0799059 C114.029813,42.8508276 114.555159,42.5999173 114.85095,42.5017409 L115.398525,42.3271749 L116.109874,42.3926259 L116.821677,42.4471834 L117.369252,42.7308192 Z" id="Shape"></path>
                    <path d="M37.4023597,7.10425296 C34.5067519,7.34529283 31.873418,7.78347697 28.3877503,8.59420615 C27.5573293,8.78045597 25.1862241,9.56926006 24.3994927,9.90889476 C24.1263076,10.0293693 23.7329646,10.1608745 23.5253367,10.2046793 C23.3177541,10.2375442 22.4108195,10.6429088 21.5148412,11.0920782 C20.6188177,11.5412476 19.8320864,11.9137472 19.7774856,11.9137472 C19.646326,11.9137472 17.7122988,13.0531259 17.2315311,13.4146403 C17.0457707,13.5570853 16.8490992,13.66662 16.7944531,13.66662 C16.6524276,13.66662 15.6471573,14.3568292 15.2319467,14.7293289 C15.0461863,14.9045935 14.6855766,15.1675584 14.434259,15.3209433 C14.1938978,15.4633429 13.877023,15.6933975 13.7349523,15.8249027 C13.5929268,15.9563625 13.1230703,16.3726669 12.6859922,16.7451666 C11.2218217,17.9831401 8.66495606,20.7001269 8.08580733,21.6313306 C7.9328255,21.8833103 7.6596857,22.2448247 7.48483639,22.4529996 C7.15705052,22.8254993 6.26102702,24.1292026 6.26102702,24.2277975 C6.26102702,24.2606624 5.95510863,24.7646218 5.5944989,25.3562362 C5.22297807,25.9478053 4.79685644,26.7037444 4.64387461,27.0324393 C4.47997714,27.3610887 4.11939458,28.1279677 3.8352984,28.730522 C3.13598264,30.2204752 2.54594091,31.6446985 2.54594091,31.8747985 C2.54594091,31.9733933 2.40389283,32.4663675 2.22906162,32.9703269 C1.74828487,34.3398056 1.49696728,35.1943395 1.1910172,36.4541927 C0.895996334,37.7140913 0.786726832,38.3604957 0.524484555,40.3434231 C0.437071217,41.0664973 0.305949626,42.0524911 0.240389283,42.5345254 C0.174828487,43.0166051 0.0983411936,44.9009377 0.0655607957,46.7086458 L0,50.0173832 L0.131121139,51.6165988 C0.207608885,52.5040431 0.338730023,53.6983479 0.426144267,54.2898262 C0.513559868,54.8704099 0.633754057,55.7469598 0.688386544,56.2290395 C0.819509947,57.3025975 1.4095562,59.6689643 1.94496544,61.2137076 C2.16349992,61.8492176 2.39296361,62.5614427 2.45852531,62.8024826 C2.52408701,63.0435224 2.6661351,63.448887 2.77540008,63.7008213 C2.89559427,63.9636501 2.98300987,64.1937955 2.98300987,64.2155844 C2.98300987,64.3799092 4.96074937,68.3128082 5.3759599,68.9701071 C6.47956602,70.7341013 7.43019032,72.1363087 7.76893256,72.4980954 C7.96560408,72.705998 8.11858591,72.9361434 8.11858591,73.0019641 C8.11858591,73.0677848 8.51197423,73.5498645 8.99274193,74.0646276 C9.47350963,74.5793907 9.86689795,75.0396815 9.86689795,75.0837133 C9.86689795,75.1822173 11.8227926,77.0882934 12.4893207,77.6252993 C12.7624605,77.8445503 13.3197418,78.3375244 13.7349523,78.7097517 C14.1501628,79.0933274 14.5435511,79.4001879 14.6091083,79.4001879 C14.6746655,79.4001879 15.0789649,79.6848056 15.5160429,80.035244 C15.9421645,80.3752418 16.8272317,80.9776145 17.4828487,81.3611902 C18.1275093,81.744312 18.7831263,82.1387821 18.9361082,82.2372861 C19.2311154,82.4456426 19.9085999,82.796081 21.0231172,83.3221925 C21.4164602,83.5083061 22.2141479,83.8918818 22.7932514,84.165605 C23.3723549,84.4397822 24.0061497,84.6917165 24.2028212,84.7352944 C24.3994927,84.7684317 24.6180317,84.8337984 24.6726778,84.8778302 C24.8912168,85.0312604 29.0542784,86.4007845 29.5350914,86.4774996 C29.8082312,86.510183 30.5184943,86.6636133 31.1194652,86.8061491 C32.5618136,87.1347985 35.0093871,87.5510576 36.9652817,87.7920974 L38.5496555,88 L42.9749911,88 L47.400372,88 L48.7662974,87.8579181 C50.7986603,87.6386672 53.5522427,87.2001653 55.1585746,86.8388324 C55.9341232,86.6636133 56.6770743,86.5210775 56.7975039,86.5210775 C57.2344008,86.5210775 60.3049033,85.5133402 61.5178015,84.9763342 C61.7690738,84.8560413 62.075128,84.7684317 62.1842391,84.7684317 C62.5228908,84.7684317 66.5224217,82.7193659 67.6588064,81.9635629 C68.2378646,81.5799872 68.7621409,81.2626862 68.8386544,81.2626862 C68.9043021,81.2626862 68.9808157,81.2186544 69.0025474,81.1637282 C69.024279,81.1092559 69.4394443,80.769258 69.9424416,80.3861363 C70.4341205,80.0134551 70.8384199,79.6739112 70.8384199,79.618985 C70.8384199,79.5645127 70.9366651,79.4877975 71.056642,79.4546602 C71.308367,79.3779451 74.1819263,76.5517413 74.793582,75.78459 C75.001391,75.5108668 75.4496064,74.9738608 75.7660737,74.5793907 C76.0938596,74.1853745 76.432964,73.7359781 76.5203434,73.5607589 C76.6077228,73.3964342 77.0446197,72.7391353 77.4819694,72.0927308 C77.9080005,71.4572209 78.2683838,70.8434998 78.2683838,70.7341013 C78.2683838,70.6355972 78.3122999,70.5261987 78.3557632,70.5039559 C78.4979245,70.4494836 80.0168769,67.4911845 80.0168769,67.2723875 C80.0168769,67.1516406 80.0603403,67.0204532 80.1042563,66.9546325 C80.3555286,66.6804554 81.8744811,62.6708412 81.8744811,62.29816 L81.8744811,62.0902574 L69.0025474,62.0902574 L56.1419322,62.0902574 L55.944989,62.4515903 C55.835878,62.6490523 55.5515554,63.032628 55.3111489,63.3063512 C55.0707424,63.56918 54.6886274,64.0294708 54.4699526,64.3140885 C53.9017602,65.058997 51.935045,66.7135927 51.137312,67.1298517 C50.7656101,67.3159654 50.1865519,67.6119314 49.858766,67.7762562 C49.5309802,67.9514753 48.788029,68.236093 48.2198367,68.4226606 L47.1816972,68.7622045 L45.8157718,68.9265293 C44.2643577,69.1235374 41.8276953,69.1566747 40.4618605,68.9923499 C39.9483142,68.9265293 39.1397154,68.8280252 38.6589477,68.773099 C37.5006955,68.6414576 36.2004178,68.2251986 34.6706448,67.4911845 C33.3813235,66.8670229 32.649193,66.4067321 31.8843291,65.7162959 C31.0757303,64.9822819 30.1906631,64.0512597 30.1906631,63.9196184 C30.1906631,63.8542516 30.0705052,63.6785785 29.9393455,63.5256022 C29.6115597,63.1747099 28.7701822,61.7398191 28.529821,61.1587814 C27.9069826,59.6031437 27.2404545,56.8314122 27.0765616,55.1005553 L27.000048,54.3116151 L54.9946816,54.3116151 L83,54.3116151 L82.9343523,49.7872378 L82.8687046,45.2734373 L82.7048116,43.6848893 C82.3552941,40.2886331 81.7323198,36.6075776 81.196725,34.8108546 C80.7924256,33.4633465 80.2025015,31.6885486 80.125988,31.5789686 C80.0825247,31.5132387 80.0168769,31.2941239 79.9838267,31.0859944 C79.9294976,30.7134947 79.1974123,28.960622 78.6400857,27.8869732 C78.4979245,27.6021286 78.3122999,27.1857787 78.2357863,26.9557241 C78.1592728,26.7256695 77.7984367,26.0573853 77.4380533,25.4657709 C77.0885358,24.8741565 76.6185886,24.0744126 76.4107796,23.6909731 C76.2034234,23.3075336 75.9299667,22.8802439 75.8099898,22.7378443 C75.6895602,22.5953992 75.3730929,22.1790948 75.0996362,21.7956553 C74.4006011,20.7987217 72.925112,19.0348637 72.8051351,19.0348637 C72.7394874,19.0348637 72.696024,18.9691338 72.696024,18.8814788 C72.696024,18.640439 69.3633835,15.5290728 69.1116584,15.5290728 C69.0355976,15.5290728 68.9808157,15.485268 68.9808157,15.4414178 C68.9808157,15.3647481 67.2214567,13.9733897 66.8610734,13.7652148 C65.7464203,13.1079159 65.2982048,12.8340111 65.178228,12.7244764 C64.905224,12.4396317 60.8948273,10.5004638 59.7914928,10.1060844 C56.8957491,9.06530063 55.1911721,8.52847626 54.3386572,8.37509138 C53.8252467,8.27649655 52.8201574,8.07930687 52.098938,7.925922 C50.4817403,7.5862873 47.9685644,7.23571275 46.1000944,7.09331311 C44.4719856,6.96180794 38.9320875,6.97279318 37.4023597,7.10425296 Z M53.8361125,19.6264781 C54.2625963,19.8017427 55.1037927,20.7439317 55.2894173,21.2478911 C55.4424444,21.6861206 55.4750419,23.4499332 55.3333333,23.9429528 L55.2237695,24.3044672 L55.3876625,24.3702425 C55.4750419,24.4031074 55.8250121,24.7974868 56.152798,25.2357163 C56.4914497,25.6848857 56.8192356,26.0793104 56.8957491,26.1231152 C57.1035581,26.2655149 57.9447545,27.3282238 57.9447545,27.4596836 C57.9447545,27.5254134 58.0321338,27.6678585 58.1412449,27.7773932 C58.3925172,28.0293729 58.775085,28.6429124 59.1028708,29.3440615 L59.365009,29.8808859 L59.5289019,30.8997446 C59.6162813,31.4584486 59.7041134,32.6197524 59.7258451,33.4633465 L59.7475767,35.0080897 L60.6218233,35.9283536 L61.4960699,36.8486175 L62.1951049,38.2071109 C63.0145696,39.817584 63.5392986,40.6173279 64.1731387,41.2198822 C64.6865492,41.7128564 64.9378215,42.1292062 64.9378215,42.5016604 C64.9378215,42.6441055 64.8287104,42.93989 64.6865492,43.1590048 C64.4135452,43.6191594 62.5885385,45.3172421 62.1294572,45.5474783 C61.9655643,45.6350879 61.649097,45.8538849 61.4521538,46.029558 C61.2447975,46.2047772 60.7092027,46.5225322 60.2723058,46.7304348 L59.4637069,47.1140104 L57.9664861,47.0481898 L56.469718,46.9932635 L54.9946816,46.7195403 C52.5797509,46.2592495 48.5915386,46.0731358 46.4604777,46.3141757 C45.5866839,46.4126798 43.3792906,46.9932635 43.1389293,47.1907256 C43.0842833,47.2343034 42.7564974,47.3550503 42.4286663,47.4426599 C42.089924,47.5411639 41.5982452,47.7604149 41.3360165,47.9356341 C41.0628314,48.1108533 40.5383288,48.4395027 40.1668079,48.6805426 C39.784376,48.910688 39.4784576,49.1408334 39.4784576,49.1844112 C39.4784576,49.2393374 39.4238115,49.2720208 39.3582544,49.2720208 C39.2926972,49.2720208 39.008601,49.4694828 38.7245048,49.7105227 C38.4404087,49.9515626 38.1563125,50.1485707 38.0797989,50.1485707 C38.0142418,50.1485707 37.5990312,49.9515626 37.1619532,49.7105227 C36.7248752,49.4694828 36.3096647,49.2720208 36.2441075,49.2720208 C36.1020821,49.2720208 34.5613979,48.2424946 33.8511349,47.6836997 C33.1190496,47.103116 31.2287121,45.1857823 30.7370333,44.5065583 C30.2671767,43.8711391 29.5132239,42.5455106 29.1089245,41.6581117 C28.5079535,40.3215434 28.3549717,39.642274 28.1146105,37.1224769 L28.0053184,35.9830982 L28.1146105,34.7670499 C28.3003709,32.6854823 28.4205289,32.050063 28.8248283,30.9764143 C29.0433673,30.406725 29.4367556,29.5741161 29.7098954,29.1249467 C29.9721694,28.6867172 30.1906631,28.2813526 30.1906631,28.2375478 C30.1906631,28.1936976 30.3546013,27.9745828 30.5512729,27.7335884 C31.7859933,26.2436352 33.4031457,24.8303517 34.6269551,24.1730074 C37.0308389,22.8802439 37.478828,22.6830542 38.6043016,22.3872697 C38.9976446,22.2886749 39.7625538,22.0805 40.2979676,21.9381003 C40.8442924,21.7847155 41.7293596,21.5765405 42.2647733,21.4779457 L43.2481762,21.3026811 L46.7230686,21.2698162 L50.1974177,21.225966 L50.7656101,20.6343516 C51.0825301,20.316642 51.5855275,19.9222626 51.8802631,19.7688778 L52.4267238,19.4840331 L52.9510001,19.4730932 C53.2353227,19.4730932 53.6396221,19.5388231 53.8361125,19.6264781 Z" id="Shape"></path>
                    <path d="M42.5276921,23.3404242 L41.815556,23.6914715 L41.4824516,24.1170128 L41.1493473,24.5531772 L41.0689149,25.1063721 L41,25.6489439 L41.2641895,26.4149094 L41.528379,27.1808749 L41.9533857,27.5851259 C42.1831178,27.8191427 42.4587772,28 42.5736671,28 C42.6770394,28 42.8033516,27.9042598 42.8493265,27.7872294 C42.8952539,27.6595758 42.8952539,27.1276712 42.8493265,26.5957666 L42.7574242,25.6382767 L42.872314,25.2340257 L42.9871563,24.8191516 L43.3777055,24.6063809 L43.7567373,24.3829872 L44.2391889,24.3829872 C44.8134953,24.3829872 45.2385496,24.5638444 46.1114077,25.1914892 C46.4674044,25.4467963 46.8119787,25.659567 46.8809888,25.659567 C47.0880189,25.659567 47.0190089,25.2872294 46.720124,24.7872382 L46.4445597,24.3191604 L45.6749787,23.808502 C44.8364828,23.2233938 44.2851163,23.0106231 43.653365,23 L43.2398758,23 L42.5276921,23.3404242 Z" id="Path"></path>
                    <path d="M52.3546465,32.003804 C52.3260524,32.0660125 52.2299444,32.6138181 52.1532963,33.2237807 L52,34.3566861 L52.0957109,34.8920089 L52.1918189,35.439763 L52.4408261,35.7136658 L52.6902303,36 L53.2267673,36 C53.8689436,36 54.8848292,35.6638371 54.951946,35.4148486 L55,35.2406031 L53.706116,33.5723749 C52.9872915,32.6511638 52.3832407,31.941544 52.3546465,32.003804 Z" id="Path"></path>
                    <path d="M128.754739,50.2042111 C128.698065,50.3166751 128.61325,50.6020633 128.565957,50.8371385 C128.528435,51.0819381 128.424467,51.5309488 128.339652,51.8370539 C128.207543,52.3879587 128,54.0715373 128,54.6938948 L128,55 L128.132109,55 C128.207543,55 128.537815,54.7146119 128.877467,54.3573482 L129.480946,53.7248436 L129.745163,53.1633688 L130,52.6124641 L129.952707,52.0306951 L129.905413,51.4493489 L129.471565,50.7246744 C129.23588,50.3268223 128.999805,50 128.952902,50 C128.896228,50 128.811413,50.0921698 128.754739,50.2042111 Z" id="Path"></path>
                    <polygon id="Path" points="94 104.5 94 113 94.499704 113 95 113 95 104.5 95 96 94.499704 96 94 96"></polygon>
                    <path d="M147.0986,96.0535519 C147.04259,96.0984052 147,96.7790662 147,97.5711669 L147,99 L147.492999,99 L148,99 L147.95741,97.5156782 L147.915403,96.0424541 L147.563594,96.0086985 C147.366394,95.986503 147.155193,96.0086985 147.0986,96.0535519 Z" id="Path"></path>
                    <polygon id="Path" points="172 104.5 172 113 172.500296 113 173 113 173 104.5 173 96 172.500296 96 172 96"></polygon>
                    <polygon id="Path" points="6 104.5 6 112 10.000024 112 14 112 14 111.624867 14 111.250178 10.382612 111.228424 6.75364651 111.19646 6.75364651 107.982301 6.75364651 104.767699 10.0927406 104.735735 13.4203052 104.714425 13.4203052 104.339292 13.4203052 103.964159 10.0579599 103.964159 6.69566262 103.964159 6.71886578 100.8783 6.75364651 97.8035397 10.382612 97.7711318 14 97.7498224 14 97.3746892 14 97 10.000024 97 6 97"></polygon>
                    <path d="M112.299706,97.0856813 C111.510382,97.3107612 110.732436,97.9429383 110.274486,98.7247248 L110.06874,99.0785486 L110.034607,104.264265 L110,109.460637 L110.194368,110.028442 L110.38921,110.596691 L110.972788,111.132088 L111.556367,111.667929 L112.09396,111.839292 L112.631554,112 L115.18299,111.968036 L117.734427,111.935628 L118.237888,111.689239 C118.878828,111.367823 119.359059,110.885699 119.656774,110.275275 L119.88575,109.793151 L119.942638,108.635788 L120,107.489523 L119.530672,107.489523 L119.073196,107.489523 L119.027212,108.764532 L118.993079,110.039541 L118.638475,110.446638 L118.283872,110.853735 L117.723049,111.046407 L117.162226,111.228868 L114.965867,111.239523 L112.780411,111.239523 L112.128093,111.003788 L111.487627,110.778708 L111.178534,110.178495 L110.869442,109.578726 L110.869442,104.489345 L110.869442,99.3999645 L111.189912,98.8534687 L111.499004,98.3176276 L111.991088,98.049929 L112.471319,97.792885 L114.690907,97.7604771 L116.922348,97.7178584 L117.425808,97.857257 L117.928795,97.985557 L118.466863,98.4570262 L118.993079,98.9284953 L119.050441,100.235468 L119.107329,101.542885 L119.54205,101.574849 L119.965393,101.607257 L119.965393,100.664319 C119.965393,100.149787 119.908505,99.5287084 119.839765,99.2929738 C119.771025,99.0572393 119.565279,98.6607967 119.382289,98.4033089 C119.198824,98.1462649 119.050441,97.9105304 119.050441,97.8679117 C119.050441,97.7498224 118.29525,97.3001065 117.825922,97.1393986 L117.391201,97 L114.988622,97 C113.672608,97.0106547 112.459941,97.0426187 112.299706,97.0856813 Z" id="Path"></path>
                    <path d="M51.3021588,98.050699 C51.2565997,98.0933655 51.2219558,98.5921675 51.2219558,99.1653059 L51.2219558,100.206016 L50.2372146,100.237686 L49.240609,100.269356 L49.1262367,100.450139 L49,100.619925 L49.1490163,100.789711 L49.2980325,100.959498 L50.2599941,100.959498 L51.210566,100.959498 L51.2452099,105.439478 L51.2793792,109.930016 L51.4972087,110.301698 C51.6115811,110.503154 51.9210033,110.874836 52.1730022,111.129516 L52.6423559,111.575534 L53.2607259,111.787547 L53.8677061,112 L54.8757014,112 L55.8950865,112 L55.9638998,111.830214 C56.0099334,111.734764 56.0099334,111.564978 55.9752895,111.458532 L55.9064763,111.257075 L55.0133279,111.257075 L54.1315693,111.257075 L53.5587584,111.087289 C53.2493361,110.9914 52.9057445,110.83217 52.7913722,110.747277 C52.6765252,110.651827 52.4705601,110.365038 52.3329336,110.099802 L52.0809348,109.611557 L52.0809348,105.311919 L52.0809348,101.012721 L53.6275717,100.991607 C54.4751609,100.970054 55.2881063,100.938384 55.4371226,100.906274 L55.7005112,100.842934 L55.6663418,100.556145 L55.6316979,100.269356 L53.8335368,100.237686 L52.0353757,100.206016 L52.0012064,99.1230793 L51.9665625,98.0401424 L51.6803943,98.0084724 C51.5199883,97.9869192 51.3481925,98.0084724 51.3021588,98.050699 Z" id="Path"></path>
                    <path d="M152.236332,98.1221172 L152.096381,98.2494131 L152.096381,99.2344197 L152.096381,100.219865 L151.234471,100.219865 C150.757187,100.219865 150.291003,100.25147 150.186281,100.283513 L150,100.346722 L150,100.59034 L150,100.834397 L150.186281,100.897606 C150.291003,100.929649 150.757187,100.961254 151.222889,100.961254 L152.084798,100.961254 L152.120028,105.273072 L152.166356,109.595425 L152.375801,110.093196 C152.608893,110.654614 153.051431,111.089176 153.901758,111.586947 L154.472665,111.925817 L155.741882,111.968396 L157,112 L156.965253,111.650595 L156.930024,111.290216 L155.881834,111.227007 C155.310927,111.194963 154.647363,111.099711 154.425853,111.025528 C153.971734,110.866628 153.587108,110.538292 153.284523,110.040522 L153.08666,109.701212 L153.051431,105.326185 L153.016684,100.961254 L154.740503,100.961254 C155.683971,100.961254 156.534299,100.919115 156.615374,100.866001 L156.77849,100.781284 L156.732161,100.527131 L156.696932,100.272539 L154.86839,100.240935 L153.028266,100.20933 L153.028266,99.1707717 L153.028266,98.1221172 L152.841986,98.0584693 C152.562565,97.9632168 152.387866,97.9842865 152.236332,98.1221172 Z" id="Path"></path>
                    <path d="M16.2593765,100.107858 C16.2282496,100.172752 16.2801421,100.345504 16.3942884,100.518256 C16.5084347,100.680267 16.8715962,101.31757 17.1932265,101.944132 C17.525261,102.570693 17.9922075,103.391489 18.2308614,103.780405 C18.6562767,104.460672 18.7807843,104.709059 19.1647114,105.530302 L19.3514728,105.929959 L19.1751157,106.199828 C19.081692,106.351098 19.0090769,106.52385 19.0090769,106.588744 C19.0090769,106.696602 18.3138808,107.86335 17.5460266,109.051579 C17.3800308,109.299966 17.245119,109.559094 17.245119,109.613247 C17.245119,109.721105 16.6329423,110.81177 16.518796,110.909335 C16.415011,111.006452 16,111.784284 16,111.892142 L16,112 L16.4461379,111.967777 L16.8819575,111.935106 L17.0894845,111.503226 C17.3384997,110.995711 17.9714419,109.893857 18.459154,109.105285 C18.6459154,108.802745 18.8949306,108.316712 19.0194382,108.025361 C19.1335845,107.744303 19.2684964,107.485175 19.3099846,107.452952 C19.3514728,107.420281 19.5175116,107.161153 19.6835074,106.880095 L19.9740538,106.361839 L20.2646001,106.902025 C20.4305959,107.193376 20.606996,107.463693 20.6692498,107.506657 C20.7211423,107.539328 20.7730348,107.657927 20.7730348,107.755044 C20.7730348,107.852609 21.0012844,108.305971 21.2710652,108.74904 C21.7899042,109.602059 22.2568077,110.434043 22.7445197,111.373438 L23.0246618,111.935106 L23.5123309,111.967777 L24,112 L23.8236429,111.643755 C23.7302192,111.449073 23.5538621,111.135792 23.4293115,110.96304 C23.0246618,110.390631 22.5369928,109.504942 22.5369928,109.353672 C22.5369928,109.267296 22.4954616,109.18092 22.4539734,109.159438 C22.4124852,109.137955 22.2568077,108.932533 22.1219388,108.694887 C21.9870269,108.457241 21.6238654,107.86335 21.3229577,107.377317 C21.02205,106.902025 20.7730348,106.437474 20.7730348,106.351098 C20.7730348,106.264722 20.7211423,106.145676 20.6485272,106.070041 L20.5343809,105.951441 L20.7522692,105.411256 C20.8664155,105.108716 21.1776845,104.525566 21.437104,104.104427 C21.6965235,103.683288 22.2464464,102.721963 22.6510961,101.965614 C23.0557887,101.209712 23.4604384,100.507515 23.5434578,100.410398 C23.7509848,100.172752 23.6368385,100 23.2633157,100 L22.962408,100 L22.7445197,100.237646 C22.6303734,100.366986 22.5369928,100.518256 22.5369928,100.572409 C22.5369928,100.626562 22.1427044,101.360982 21.6549923,102.214001 C21.1673232,103.056726 20.7730348,103.780405 20.7730348,103.823369 C20.7730348,103.942416 20.0051807,105.292657 19.9429269,105.292657 C19.8806731,105.292657 19.4760234,104.558237 18.7081692,103.088949 C18.459154,102.602916 18.2308614,102.192519 18.1893732,102.160295 C18.0855882,102.073919 17.245119,100.572409 17.245119,100.453362 C17.245119,100.399657 17.1620996,100.28061 17.0583576,100.183493 C16.8508306,99.9780703 16.3631615,99.9351061 16.2593765,100.107858 Z" id="Path"></path>
                    <path d="M27.1246691,100.067083 L27,100.153599 L27.0207495,106.049679 L27.0519167,111.935001 L27.4363417,111.967725 L27.8207667,112 L27.851934,107.142559 L27.8831012,102.284669 L28.2467337,101.733298 L28.6103661,101.170721 L29.0987107,100.954207 L29.5870122,100.737693 L31.1350869,100.737693 L32.6831184,100.737693 L33.1402527,100.986483 L33.59743,101.235272 L33.8571429,101.765574 L34.1168988,102.306634 L34.1688586,107.121042 L34.2207753,111.935001 L34.615575,111.967725 L35,112 L35,107.294074 L35,102.587699 L34.7922039,102.014363 C34.6779526,101.700575 34.407822,101.213755 34.2000258,100.943449 L33.8051831,100.445422 L33.1818377,100.240115 L32.5584494,100.034359 L31.0519598,100.034359 L29.5454702,100.034359 L29.0052089,100.229356 L28.4649476,100.423905 L28.1532319,100.791934 L27.8415592,101.170721 L27.810392,100.596937 L27.7792247,100.034359 L27.5194688,100.002084 C27.3740072,99.9913257 27.1973783,100.023601 27.1246691,100.067083 Z" id="Path"></path>
                    <path d="M41.129855,100.162302 C40.8493527,100.248832 40.5065164,100.356884 40.371431,100.389613 C40.0701364,100.465384 39.4883393,101.211881 39.2182116,101.871848 L39,102.391481 L39,105.940594 L39,109.489707 L39.1662523,110.020101 L39.3325047,110.560807 L39.7688417,111.069681 L40.2155964,111.578106 L40.7558519,111.783449 L41.2857327,112 L44.0908856,112 L46.8962537,112 L46.8962537,111.621147 L46.8962537,111.242742 L44.2051787,111.242742 L41.5142759,111.242742 L40.9220612,111.00467 L40.3402641,110.777358 L40.1532625,110.495797 C40.0493441,110.344704 39.9039271,109.86856 39.8311755,109.457426 L39.7065078,108.69972 L39.7480494,107.617859 L39.7792163,106.53555 L43.3636285,106.481749 L46.9479116,106.427499 L46.9793368,104.533682 L47,102.651074 L46.8962537,102.077639 L46.7817454,101.504203 L46.3452362,101.00609 L45.9091574,100.508425 L45.4933114,100.346124 C44.7558088,100.06501 44.2675126,100 42.9480408,100 L41.6493613,100 L41.129855,100.162302 Z M45.3688159,101.11459 C45.5871566,101.287652 45.8880638,101.644536 46.0335669,101.915337 L46.3039099,102.391481 L46.3559982,104.057538 L46.4076561,105.724043 L43.0623339,105.724043 L39.7273001,105.724043 L39.7273001,104.371381 C39.7273001,103.635644 39.7792163,102.769886 39.8415502,102.456043 C39.9039271,102.142649 40.080511,101.720306 40.2155964,101.514964 C40.3610564,101.319933 40.6727257,101.06034 40.9116865,100.952288 L41.3376489,100.746497 L43.1558347,100.768018 L44.9739773,100.800747 L45.3688159,101.11459 Z" id="Shape"></path>
                    <path d="M58.004622,100.097117 C57.9723227,100.162011 58.1127348,100.766643 58.3186425,101.447358 C58.5353167,102.127625 58.7084766,102.743445 58.7084766,102.829821 C58.7084766,102.926938 59.0983107,104.180062 59.5747247,105.62742 C60.0511387,107.074777 60.473272,108.435759 60.5055713,108.640734 C60.5813848,109.051579 60.9819853,110.390631 61.3283051,111.373438 L61.5557457,112 L61.9998605,111.967777 L62.4327602,111.935106 L63.2667091,109.073062 C63.7211416,107.495916 64.15449,105.9407 64.2303035,105.616678 C64.3056684,105.292657 64.4792769,104.655354 64.6089226,104.212285 C64.7497832,103.769664 64.9987566,102.948421 65.1611501,102.386753 L65.4644042,101.371723 L65.7026112,102.116884 C65.8434719,102.527282 65.9515847,102.97035 65.9515847,103.09969 C65.9623511,103.337336 66.0704639,103.747734 66.8828799,106.480439 C67.6948473,109.21359 67.8029601,109.623988 67.8137265,109.861634 C67.8137265,109.990975 67.9545871,110.509678 68.1169806,111.017193 L68.4090197,111.935106 L68.9397144,111.935106 L69.4811755,111.935106 L69.6220362,111.287062 C69.6978497,110.930817 70.1415159,109.450789 70.6071635,107.99269 C71.0728111,106.534591 71.5272437,105.055011 71.6138236,104.698318 C71.7116186,104.342073 72.0579384,103.207996 72.3934918,102.171036 C72.7290451,101.134077 73,100.226905 73,100.140081 L73,100 L72.7075123,100 C72.5343524,100 72.3499775,100.042964 72.2746126,100.086376 C72.1660512,100.15127 71.960592,100.788573 71.2782702,103.186066 C71.159391,103.596912 70.8126226,104.720248 70.5098171,105.670384 C70.1957966,106.620967 69.8710096,107.690598 69.7844297,108.046843 C69.4268949,109.429307 68.9504808,110.909335 68.8746673,110.8337 C68.7880874,110.725394 67.8029601,107.301682 67.8029601,107.085518 C67.8029601,106.988401 67.4781731,105.810913 67.088339,104.460672 C66.698505,103.09969 66.2763716,101.609369 66.1570438,101.134077 C66.0273982,100.658785 65.9192854,100.204975 65.897304,100.12934 L65.8650047,100 L65.5617506,100 C65.3993571,100 65.2046644,100.042964 65.1396173,100.086376 C65.009523,100.162011 64.1217421,103.045985 64.1217421,103.380748 C64.1217421,103.488606 63.7103752,104.968635 63.2016619,106.67512 C62.6925001,108.381606 62.2811332,109.893857 62.2811332,110.045127 C62.2703667,110.196397 62.2053196,110.455525 62.1295061,110.639018 L61.9890941,110.96304 L61.4799322,109.342931 C61.1878931,108.4465 60.8631061,107.441763 60.7545447,107.107 C60.6464319,106.761496 60.5490856,106.405251 60.5490856,106.296946 C60.5490856,106.189087 60.2458315,105.17361 59.8887452,104.050274 C59.5312104,102.916197 59.0983107,101.555216 58.9359172,101.025771 L58.6434295,100.053705 L58.3621568,100.021482 C58.2105297,100 58.0481363,100.042964 58.004622,100.097117 Z" id="Path"></path>
                    <path d="M77.4021204,100.028393 C76.806675,100.190753 76.0130362,100.547767 75.8040244,100.753632 C75.6681452,100.883251 75.4279764,101.207972 75.2817115,101.478872 L75,101.965953 L75,105.970691 L75,109.975878 L75.2297831,110.419902 C75.5114946,110.972017 75.9814464,111.394064 76.7023855,111.729549 L77.2454698,112 L79.1045059,111.956943 L80.9531563,111.924202 L81.4231081,111.664515 C81.9449884,111.3833 82.3526262,110.939276 82.7074701,110.300599 L82.9372532,109.867787 L82.968843,106.155028 L83,102.442269 L82.7390599,101.846649 C82.5927949,101.521928 82.3314221,101.078353 82.1643858,100.861723 L81.8510845,100.471969 L81.2976145,100.255339 L80.7441445,100.049921 L79.1776383,100.006416 C78.3212528,99.9956518 77.5167956,99.9956518 77.4021204,100.028393 Z M81.0782171,100.948285 C81.3287716,101.078353 81.6632769,101.348804 81.8199275,101.565434 L82.101639,101.943976 L82.1332288,105.472846 C82.1540001,107.410406 82.1435985,109.261403 82.101639,109.575359 L82.0285065,110.149003 L81.7364094,110.4957 L81.4438795,110.841949 L80.9111808,111.047815 L80.3888679,111.242468 L78.7388435,111.198963 L77.0888192,111.155906 L76.7439282,110.961253 C76.3159517,110.723094 75.9399037,110.203272 75.7936388,109.651157 L75.6789636,109.218346 L75.6789636,105.873365 L75.6789636,102.518067 L75.8875426,102.074043 C76.0965543,101.630019 76.7335425,100.926757 77.0364581,100.796689 C77.1199762,100.764396 77.9659761,100.731655 78.9058798,100.731655 L80.6290366,100.720891 L81.0782171,100.948285 Z" id="Shape"></path>
                    <path d="M86.0810474,100.075635 C86.0345291,100.107858 86,102.808339 86,106.070041 L86,112 L86.439766,111.967777 L86.8680223,111.935106 L86.9260503,107.182635 L86.9835987,102.430164 L87.1687128,102.05199 C87.3773259,101.609369 87.967677,101.112595 88.5115097,100.896431 L88.881738,100.755902 L89.7847688,100.755902 C90.2825628,100.755902 90.7568579,100.712938 90.8379052,100.658785 L91,100.572409 L90.9534817,100.313281 L90.9189526,100.053705 L89.8773259,100.053705 L88.8356992,100.053705 L88.0947631,100.313281 L87.3658162,100.572409 L87.1456935,100.907172 L86.9260503,101.241935 L86.9260503,100.788573 C86.9260503,100.539738 86.8910416,100.269869 86.8565126,100.172752 L86.7869749,100 L86.474295,100 C86.3006906,100 86.1155764,100.032223 86.0810474,100.075635 Z" id="Path"></path>
                    <path d="M100.623145,100.239843 C100.488462,100.380026 99.8982586,101.244862 99.3084842,102.16389 C98.7182809,103.08247 98.2108604,103.860868 98.1696835,103.893114 C98.0663121,103.979553 97.4447971,104.952326 97.4447971,105.028016 C97.4447971,105.071459 97.3414258,105.255085 97.217037,105.427963 L97,105.762969 L97.1342541,105.990039 C97.217037,106.109173 97.3414258,106.35774 97.4345029,106.530618 C97.5172858,106.714244 97.9316291,107.35201 98.3661319,107.95753 C99.080724,108.962549 99.7640045,109.968016 100.757828,111.459422 L101.109548,112 L101.554774,112 C101.803123,112 102,111.978502 102,111.945808 C102,111.913561 101.803123,111.610801 101.565068,111.275795 C101.31672,110.951538 101.078665,110.595033 101.016471,110.497398 C100.736811,110.000263 100.302308,109.340999 100.188213,109.243811 C100.126019,109.17887 99.8467873,108.789671 99.5774213,108.378975 C99.3187784,107.95753 99.0597066,107.568331 99.0185296,107.514139 C98.9666295,107.449198 98.6873981,107.049698 98.3871494,106.617057 L97.8385519,105.82791 L98.4386206,104.90933 C98.7804753,104.412195 99.1013125,103.914612 99.1532127,103.806675 C99.4427383,103.298791 99.9085528,102.574586 100.415973,101.882628 C100.716222,101.461183 100.964571,101.071984 100.964571,101.007043 C100.964571,100.942102 101.088959,100.736978 101.233937,100.553351 C101.378914,100.369277 101.471991,100.174902 101.430385,100.109961 C101.31672,99.9155853 100.881788,99.9912752 100.623145,100.239843 Z" id="Path"></path>
                    <path d="M125.164762,100.15127 C124.861453,100.237646 124.484916,100.378175 124.317662,100.464551 C123.930726,100.680267 123.491361,101.209712 123.219683,101.825532 L123,102.311565 L123,105.983665 L123,109.656212 L123.313708,110.304255 L123.627417,110.952299 L124.150409,111.362697 C124.442886,111.578861 124.861453,111.816507 125.081135,111.881401 L125.48887,112 L127.17267,111.957036 L128.856036,111.924365 L129.285002,111.687167 C129.525483,111.557379 129.807561,111.319733 129.912419,111.146981 L130.11087,110.844441 L130.1633,111.384627 L130.215729,111.924365 L130.613064,111.957036 L131,111.989259 L130.979202,106.016335 L130.947571,100.042964 L128.333478,100.021482 L125.718951,100 L125.164762,100.15127 Z M130.142501,105.249245 L130.11087,109.764517 L129.90202,110.196397 L129.692737,110.628277 L129.169745,110.898594 L128.647186,111.157722 L127.161837,111.200686 L125.666522,111.244098 L125.122732,111.060605 L124.568542,110.887853 L124.286032,110.477007 C124.129177,110.25055 123.951525,109.861634 123.888696,109.591318 L123.773872,109.116026 L123.80507,105.703054 L123.8367,102.278895 L124.234036,101.685004 L124.631371,101.090665 L124.965878,100.917913 L125.300385,100.745161 L127.737258,100.745161 L130.173699,100.745161 L130.142501,105.249245 Z" id="Shape"></path>
                    <path d="M135.073274,100.079399 C135.031403,100.11281 135,103.271035 135,107.078911 L135,114 L135.368117,114 L135.73667,114 L135.73667,112.63388 L135.73667,111.267295 L136.083851,111.614394 C136.263112,111.816249 136.631229,112.073789 136.894668,112.196758 L137.368335,112.432024 L139.052339,112.432024 L140.736779,112.432024 L141.263221,112.163348 C141.557627,112.01764 141.968488,111.72669 142.189183,111.524835 L142.589576,111.144326 L142.789336,110.360106 L143,109.57635 L143,106.160584 L142.989532,102.744819 L142.842111,102.296561 C142.757933,102.050158 142.684222,101.770345 142.684222,101.669649 C142.684222,101.58009 142.515865,101.288676 142.315669,101.042273 L141.95802,100.594479 L141.294624,100.325802 L140.631665,100.056661 L139.052339,100.056661 L137.473449,100.056661 L136.947007,100.269654 C136.663068,100.381486 136.263112,100.627889 136.083851,100.818608 L135.73667,101.165706 L135.73667,100.762459 C135.73667,100.53833 135.705267,100.280791 135.673427,100.180095 C135.610184,100.000977 135.19976,99.933692 135.073274,100.079399 Z M141.08396,101.05341 C141.599935,101.400972 141.905245,101.759208 142.105005,102.26315 L142.262894,102.677534 L142.262894,106.239006 L142.262894,109.800479 L142.010359,110.360106 C141.873405,110.662657 141.673645,110.998618 141.568531,111.099314 C141.462981,111.20001 141.168139,111.356854 140.915604,111.45755 L140.473776,111.648268 L139.073711,111.648268 L137.673645,111.648268 L137.052557,111.390728 L136.421001,111.133189 L136.105223,110.65152 L135.789445,110.169851 L135.757605,106.373113 L135.726202,102.587975 L135.936866,102.151318 C136.16803,101.658512 136.673536,101.165706 137.157671,100.941577 L137.473449,100.79587 L139.084178,100.784733 L140.684004,100.784733 L141.08396,101.05341 Z" id="Shape"></path>
                    <path d="M147.1,100.051934 C147.043195,100.094983 147,102.800832 147,106.069017 L147,112 L147.5,112 L148,112 L147.971006,106.015204 L147.928402,100.040723 L147.571598,100.008436 C147.371598,99.9869109 147.157396,100.008436 147.1,100.051934 Z" id="Path"></path>
                    <path d="M162.320877,100.107858 C161.266211,100.356245 160.601418,100.842278 160.211108,101.674262 L160,102.116884 L160,106.005594 L160,109.883116 L160.200618,110.314996 C160.422216,110.8337 161.128969,111.503226 161.72995,111.784284 L162.162656,111.989259 L163.80825,111.989259 L165.453843,111.989259 L165.918019,111.827248 C166.171086,111.730131 166.561396,111.513967 166.782994,111.330474 L167.173303,111.006452 L167.173303,111.503226 L167.173303,112 L167.574103,111.967777 L167.964412,111.935106 L167.995882,106.210569 C168.006809,103.056726 167.995882,100.377727 167.964412,100.237646 L167.911526,100 L165.295622,100.010741 C163.861136,100.021482 162.521496,100.064894 162.320877,100.107858 Z M167.173303,105.259986 L167.173303,109.753329 L166.920236,110.196397 C166.645752,110.671689 166.46655,110.801029 165.706911,111.071346 L165.242735,111.233357 L163.829229,111.233357 L162.415723,111.233357 L162.025414,111.071346 C161.508789,110.844441 161.170929,110.509678 160.938841,109.990975 L160.73866,109.559094 L160.73866,106.005594 L160.73866,102.462388 L161.023197,101.933391 C161.276701,101.436617 161.740877,100.982807 162.109769,100.831537 C162.194125,100.799314 163.375544,100.766643 164.726111,100.766643 L167.173303,100.755902 L167.173303,105.259986 Z" id="Shape"></path>
                </g>
            </g>
        </g>
    </g>
</svg>