<svg width="652" height="290" viewBox="0 0 652 290" fill="none" xmlns="http://www.w3.org/2000/svg">
<path d="M137.042 49.2045H133.363V22.1503H137.042V49.2045ZM150.534 49.2045V25.4197H142.602V22.1503H161.736V25.4197H154.131V49.2045H150.534ZM173.347 30.242L168.441 42.5022H173.347H178.253L173.347 30.242ZM161.736 49.2045L173.347 22.1503L184.958 49.2045H180.869L179.398 45.6899H173.347H167.296L165.824 49.2045H161.736ZM194.606 31.8767L194.525 49.2045H190.518V22.7224L207.28 40.4589V22.7224H211.287V49.2045L194.606 31.8767ZM225.269 50.1853C221.017 50.1853 218.237 47.9785 216.356 44.2187L219.464 42.8292C220.608 45.1178 222.652 46.9977 225.269 46.9977C228.131 46.9977 230.993 45.363 230.993 42.1753C230.993 41.4397 230.829 40.7858 230.42 40.2137C230.011 39.6415 229.439 39.1511 228.703 38.579C226.577 37.1895 224.451 36.3721 222.325 35.2278C221.426 34.7374 220.772 34.247 220.281 33.7566C219.545 33.1027 218.973 32.3671 218.564 31.468C218.155 30.6507 217.992 29.7516 217.992 28.8525C217.992 27.9535 218.237 27.0544 218.646 26.1553C219.055 25.2562 219.709 24.5206 220.526 23.8667C221.262 23.2946 222.162 22.8042 223.225 22.4772C224.288 22.1503 225.269 21.9868 226.414 21.9868C228.785 21.9868 231.729 23.3763 233.037 25.7466L230.339 27.6265C229.276 25.9101 227.64 25.1745 226.332 25.1745C225.433 25.1745 224.615 25.3379 223.879 25.6649C223.225 25.9918 222.652 26.4822 222.244 27.0544C221.835 27.6265 221.671 28.1987 221.671 28.8525C221.671 29.8334 221.998 30.569 222.652 31.2228C223.307 31.8767 224.451 32.5306 226.005 33.2662C227.313 33.9201 228.621 34.574 229.93 35.3096C230.993 35.8817 231.81 36.5356 232.464 37.1077C234.018 38.4972 234.754 40.2137 234.754 42.1753C234.672 47.3246 229.93 50.1853 225.269 50.1853ZM116.437 49.2045V25.4197H108.505V22.1503H127.639V25.4197H120.035V49.2045H116.437Z" fill="#9D60FF"/>
<path d="M228.376 76.9127C228.049 76.9127 227.804 76.9127 227.558 76.8309H227.477H227.395L227.068 76.7492C226.741 76.6675 226.332 76.5857 225.923 76.4223C224.86 76.0953 223.961 75.5232 223.225 74.7058C223.143 74.6241 223.143 74.5424 223.143 74.4606C223.143 74.3789 223.225 74.2972 223.307 74.2154L223.552 74.0519C223.634 74.0519 223.715 73.9702 223.797 73.9702C223.879 73.9702 224.042 74.0519 224.124 74.1337C224.697 74.7876 225.432 75.278 226.332 75.6049C226.659 75.6866 226.986 75.7684 227.313 75.8501C227.395 75.8501 227.395 75.8501 227.477 75.8501C227.558 75.8501 227.558 75.8501 227.64 75.8501C227.722 75.8501 227.722 75.8501 227.722 75.8501C227.967 75.8501 228.213 75.8501 228.458 75.8501C229.03 75.8501 229.684 75.7684 230.339 75.6049C230.993 75.4414 231.565 75.1962 232.056 74.7876C233.037 74.1337 233.527 73.2346 233.691 72.0903C233.691 72.0086 233.691 71.9268 233.691 71.7634C233.691 71.1095 233.527 70.5373 233.2 70.0469C232.873 69.5565 232.383 69.1479 231.729 68.6575C231.074 68.2488 230.175 67.7584 228.948 67.1862L228.621 67.0228C228.54 67.0228 228.376 66.941 228.131 66.7775L227.967 66.6958L227.477 66.4506L226.741 66.1237C226.25 65.7967 225.76 65.5515 225.351 65.2246C224.37 64.4072 223.879 63.3447 223.879 62.2004V62.1187C223.879 60.9744 224.288 60.157 225.024 59.5032C225.76 58.8493 226.577 58.4406 227.558 58.1954C228.131 58.0319 228.785 57.9502 229.357 57.9502C229.521 57.9502 229.684 57.9502 229.93 57.9502C230.666 58.0319 231.32 58.1954 231.974 58.4406C232.628 58.6858 233.2 59.0945 233.691 59.5032C233.773 59.5849 233.773 59.6666 233.773 59.7484C233.773 59.8301 233.691 59.9118 233.609 59.9936L233.364 60.157C233.282 60.2388 233.2 60.2388 233.119 60.2388C233.037 60.2388 232.873 60.2388 232.792 60.157C232.383 59.8301 231.974 59.5849 231.401 59.3397C230.829 59.0945 230.257 59.0127 229.684 58.931C229.603 58.931 229.439 58.931 229.194 58.931C228.621 58.931 228.049 59.0127 227.477 59.1762C226.904 59.3397 226.414 59.5849 226.005 59.9118C225.187 60.484 224.778 61.3013 224.778 62.2821V62.3639C224.778 63.263 225.187 64.0803 226.087 64.7342C226.414 64.9794 226.823 65.3063 227.313 65.5515C227.395 65.5515 227.558 65.715 227.967 65.8785L228.54 66.1237L228.785 66.2871L229.03 66.3689L229.357 66.5323L229.848 66.7775L230.42 67.0228C230.747 67.1862 231.074 67.3497 231.401 67.5132C232.137 67.9218 232.71 68.3305 233.119 68.7392C234.1 69.6383 234.59 70.7008 234.59 71.9268C234.59 72.0086 234.59 72.172 234.59 72.4172C234.509 73.3163 234.182 74.1337 233.609 74.7876C233.037 75.4414 232.301 76.0136 231.401 76.4223C230.502 76.6675 229.521 76.9127 228.376 76.9127ZM208.425 58.4406C208.425 58.1954 208.588 58.1137 208.834 58.1137H219.055C219.3 58.1137 219.463 58.1954 219.463 58.4406V58.6858C219.463 58.931 219.3 59.0127 219.055 59.0127H209.57V68.4122H217.746C217.992 68.4122 218.155 68.494 218.155 68.7392V68.9844C218.155 69.2296 217.992 69.3113 217.746 69.3113H209.57V75.8501H219.055C219.3 75.8501 219.463 75.9318 219.463 76.177V76.4223C219.463 76.6675 219.3 76.7492 219.055 76.7492H208.834C208.588 76.7492 208.425 76.6675 208.425 76.4223V58.4406ZM196.405 70.2104C197.55 70.2104 198.613 69.9652 199.594 69.3931C200.575 68.9027 201.311 68.2488 201.884 67.3497C202.456 66.5323 202.783 65.5515 202.783 64.5707C202.783 63.5899 202.456 62.6091 201.884 61.7917C201.311 60.9744 200.493 60.2388 199.512 59.7484C198.531 59.2579 197.386 59.0127 196.242 59.0127H194.606V70.2104H196.405ZM203.601 76.2588C203.682 76.3405 203.682 76.4223 203.682 76.504C203.682 76.5857 203.682 76.6675 203.601 76.6675C203.519 76.6675 203.437 76.7492 203.355 76.7492H203.028C202.947 76.7492 202.865 76.7492 202.865 76.7492C202.783 76.7492 202.783 76.6675 202.701 76.6675L198.776 70.8643C198.04 71.0278 197.305 71.1912 196.569 71.1912H194.77V76.504C194.77 76.5857 194.77 76.6675 194.688 76.7492C194.606 76.8309 194.524 76.8309 194.443 76.8309H194.116C194.034 76.8309 193.952 76.8309 193.87 76.7492C193.789 76.6675 193.789 76.5857 193.789 76.504V58.5223C193.789 58.4406 193.789 58.3589 193.87 58.2771C193.952 58.1954 194.034 58.1954 194.116 58.1954H196.405C197.795 58.1954 199.022 58.5223 200.248 59.0945C201.393 59.6666 202.292 60.484 203.028 61.4648C203.682 62.4456 204.009 63.5082 204.009 64.7342C204.009 65.5515 203.846 66.3689 203.519 67.1045C203.192 67.8401 202.701 68.5757 202.047 69.1479C201.393 69.72 200.657 70.2104 199.839 70.6191L203.601 76.2588ZM181.932 76.7492C180.788 76.7492 179.725 76.504 178.743 76.0136C177.762 75.5232 177.026 74.8693 176.454 74.0519C175.882 73.2346 175.636 72.3355 175.636 71.3547V58.4406C175.636 58.3589 175.636 58.2771 175.718 58.1954C175.8 58.1137 175.882 58.1137 175.963 58.1137H176.29C176.372 58.1137 176.454 58.1137 176.536 58.1954C176.617 58.2771 176.617 58.3589 176.617 58.4406V71.3547C176.617 72.172 176.863 72.9077 177.353 73.6433C177.844 74.2971 178.498 74.8693 179.234 75.278C180.052 75.6866 180.951 75.8501 181.851 75.8501C182.832 75.8501 183.649 75.6866 184.467 75.278C185.285 74.8693 185.939 74.2971 186.348 73.6433C186.838 72.9894 187.084 72.172 187.084 71.3547V58.4406C187.084 58.3589 187.084 58.2771 187.165 58.1954C187.247 58.1137 187.329 58.1137 187.411 58.1137H187.738C187.82 58.1137 187.901 58.1137 187.983 58.1954C188.065 58.2771 188.065 58.3589 188.065 58.4406V71.3547C188.065 72.3355 187.82 73.2346 187.247 74.0519C186.675 74.8693 185.939 75.5232 184.958 76.0136C184.14 76.504 183.077 76.7492 181.932 76.7492ZM159.773 58.4406C159.773 58.3589 159.773 58.2771 159.855 58.1954C159.937 58.1137 160.019 58.1137 160.1 58.1137H170.894C170.976 58.1137 171.139 58.1137 171.139 58.1954C171.221 58.2771 171.221 58.3589 171.221 58.4406V58.6858C171.221 58.7675 171.221 58.8493 171.139 58.931C171.057 59.0127 170.976 59.0127 170.894 59.0127H166.069V76.4223C166.069 76.504 166.069 76.5857 165.988 76.6675C165.906 76.7492 165.824 76.7492 165.742 76.7492H165.415C165.334 76.7492 165.252 76.7492 165.17 76.6675C165.088 76.5857 165.088 76.504 165.088 76.4223V59.0127H160.1C160.019 59.0127 159.937 59.0127 159.855 58.931C159.773 58.8493 159.773 58.7675 159.773 58.6858V58.4406ZM154.459 58.4406C154.459 58.3589 154.459 58.2771 154.54 58.1954C154.622 58.1137 154.704 58.1137 154.786 58.1137H155.113C155.194 58.1137 155.276 58.1137 155.358 58.1954C155.44 58.2771 155.44 58.3589 155.44 58.4406V76.3405C155.44 76.4223 155.358 76.5857 155.276 76.5857C155.194 76.6675 155.113 76.6675 154.949 76.6675C154.867 76.6675 154.786 76.6675 154.704 76.5857C154.622 76.5857 154.54 76.504 154.54 76.4223L143.747 60.484V76.4223C143.747 76.504 143.747 76.5857 143.665 76.6675C143.584 76.7492 143.502 76.7492 143.42 76.7492H143.093C143.011 76.7492 142.929 76.7492 142.848 76.6675C142.766 76.5857 142.766 76.504 142.766 76.4223V58.6041C142.766 58.5223 142.848 58.3589 142.929 58.3589C143.011 58.2771 143.093 58.2771 143.256 58.2771C143.42 58.2771 143.584 58.3589 143.665 58.5223L154.459 74.3789V58.4406ZM127.067 58.4406C127.067 58.1954 127.23 58.1137 127.475 58.1137H137.696C137.942 58.1137 138.105 58.1954 138.105 58.4406V58.6858C138.105 58.931 137.942 59.0127 137.696 59.0127H128.211V68.4122H136.388C136.633 68.4122 136.797 68.494 136.797 68.7392V68.9844C136.797 69.2296 136.633 69.3113 136.388 69.3113H128.211V75.8501H137.696C137.942 75.8501 138.105 75.9318 138.105 76.177V76.4223C138.105 76.6675 137.942 76.7492 137.696 76.7492H127.475C127.23 76.7492 127.067 76.6675 127.067 76.4223V58.4406ZM108.505 58.6041C108.505 58.5223 108.505 58.5223 108.505 58.4406C108.505 58.3589 108.587 58.2771 108.587 58.1954C108.669 58.1137 108.751 58.1137 108.914 58.1137H109.241C109.323 58.1137 109.405 58.1137 109.487 58.1954C109.568 58.1954 109.568 58.2771 109.65 58.3589L115.701 74.0519L121.752 58.3589C121.752 58.2771 121.833 58.2771 121.915 58.1954C121.997 58.1954 122.079 58.1137 122.16 58.1137H122.406C122.569 58.1137 122.651 58.1137 122.733 58.1954C122.815 58.2771 122.815 58.3589 122.815 58.4406C122.815 58.5223 122.815 58.5223 122.815 58.5223L116.191 76.4223C116.191 76.504 116.11 76.5857 116.028 76.5857C115.946 76.6675 115.864 76.6675 115.783 76.6675C115.701 76.6675 115.619 76.6675 115.537 76.5857C115.456 76.504 115.456 76.504 115.374 76.4223L108.505 58.6041Z" fill="#9D60FF"/>
<path d="M13.7369 21.905L52.5764 79.8549L90.3528 23.5397H76.4524L52.4128 59.3395L27.3103 21.905H53.2305V40.0501L51.5952 37.5981V23.5397H30.3357L52.4128 56.3971L75.553 21.905H93.3782C79.8049 42.1752 66.1497 62.4454 52.5764 82.7974L11.7745 21.905H13.7369ZM99.7561 12.4238H5.31493L4.25195 10.7891H100.819L99.7561 12.4238Z" fill="#9D60FF"/>
<path d="M456.4 37.0703C459.962 37.0703 463.016 38.0091 465.306 39.972C467.681 41.8495 469.208 44.4952 469.886 47.7382H462.676C462.167 46.4581 461.319 45.3486 460.217 44.6659C459.114 43.8978 457.757 43.5564 456.315 43.5564C454.279 43.5564 452.667 44.3245 451.48 45.7753C450.292 47.2262 449.614 49.189 449.614 51.664C449.614 54.139 450.207 56.1019 451.48 57.5527C452.667 59.0035 454.364 59.7716 456.315 59.7716C457.842 59.7716 459.114 59.4302 460.217 58.6621C461.319 57.8941 462.167 56.8699 462.676 55.5898H469.886C469.208 58.8328 467.681 61.3931 465.306 63.2707C462.931 65.1482 459.962 66.1724 456.4 66.1724C453.685 66.1724 451.225 65.5749 449.19 64.3801C447.069 63.1853 445.542 61.4785 444.355 59.2595C443.252 57.0406 442.658 54.5657 442.658 51.7493C442.658 48.933 443.252 46.4581 444.355 44.2391C445.457 42.0202 447.069 40.3134 449.19 39.1185C451.225 37.6677 453.6 37.0703 456.4 37.0703ZM424.421 37.0703C427.984 37.0703 430.868 37.9237 433.158 39.716C435.448 41.4228 436.89 43.8124 437.399 46.7994H430.189C429.68 45.7753 429.002 45.0072 427.984 44.3245C426.966 43.7271 425.779 43.3857 424.421 43.3857C422.301 43.3857 420.52 44.1538 419.247 45.6046C417.975 47.0555 417.296 49.0184 417.296 51.5787C417.296 54.3096 417.975 56.3579 419.332 57.8087C420.689 59.2595 422.64 59.9423 425.185 59.9423C426.796 59.9423 428.238 59.5156 429.426 58.5768C430.613 57.638 431.547 56.3579 432.055 54.7364H423.404V49.7865H437.739V56.6139C437.23 58.3208 436.381 59.857 435.194 61.2224C434.006 62.6733 432.48 63.7827 430.698 64.7215C428.832 65.5749 426.796 66.087 424.421 66.087C421.537 66.087 419.078 65.4896 416.957 64.2948C414.836 63.1 413.14 61.3931 412.037 59.1742C410.85 56.9553 410.256 54.4803 410.256 51.664C410.256 48.8477 410.85 46.3727 412.037 44.1538C413.225 41.9349 414.836 40.228 416.957 39.0332C419.162 37.6677 421.622 37.0703 424.421 37.0703ZM404.743 65.831H397.872L386.421 48.3356V65.831H379.55V37.3263H386.421L397.872 54.9924V37.3263H404.743V65.831Z" fill="#9D60FF"/>
<path d="M636.732 43.3856C639.192 43.3856 641.228 44.0684 642.755 45.3485C644.282 46.6287 645.215 48.4209 645.469 50.6398H641.991C641.822 49.3597 641.313 48.2502 640.38 47.3968C639.447 46.5433 638.259 46.1166 636.648 46.1166C635.375 46.1166 634.357 46.458 633.594 47.0554C632.831 47.6528 632.491 48.5062 632.491 49.6157C632.491 50.3838 632.746 51.0665 633.255 51.5786C633.764 52.0907 634.357 52.432 635.121 52.6881C635.884 52.9441 636.902 53.2001 638.174 53.5415C639.786 53.8829 641.143 54.3096 642.076 54.651C643.094 55.0777 643.942 55.6751 644.621 56.5285C645.299 57.3819 645.724 58.5767 645.724 60.0276C645.724 61.8198 645.045 63.2706 643.688 64.3801C642.331 65.4895 640.549 66.0869 638.344 66.0869C635.715 66.0869 633.594 65.4895 631.898 64.2094C630.201 62.9292 629.268 61.2224 629.014 58.9181H632.576C632.746 60.2836 633.255 61.3077 634.357 62.1612C635.375 63.0146 636.732 63.4413 638.429 63.4413C639.701 63.4413 640.634 63.0999 641.398 62.5025C642.076 61.8198 642.5 61.0517 642.5 59.9422C642.5 59.0888 642.246 58.4061 641.737 57.894C641.228 57.3819 640.634 56.9552 639.871 56.6992C639.107 56.4432 638.09 56.1871 636.817 55.8458C635.206 55.5044 633.848 55.0777 632.915 54.7363C631.982 54.3949 631.134 53.7975 630.456 52.9441C629.777 52.0907 629.438 50.9812 629.438 49.6157C629.438 47.7382 630.116 46.2873 631.473 45.0925C632.491 43.9831 634.357 43.3856 636.732 43.3856ZM622.143 53.7975C622.228 52.176 621.973 50.8105 621.38 49.701C620.786 48.5916 619.938 47.8235 618.835 47.2261C617.732 46.6287 616.629 46.458 615.357 46.458C613.321 46.458 611.71 47.0554 610.353 48.3356C608.995 49.6157 608.232 51.4079 608.147 53.7975H622.143ZM625.875 53.5415C625.875 54.3096 625.79 54.9923 625.705 55.5897H608.147C608.232 58.15 608.911 60.0276 610.268 61.3077C611.625 62.5879 613.237 63.1853 615.187 63.1853C616.969 63.1853 618.411 62.7586 619.598 61.8198C620.786 60.881 621.549 59.6862 621.804 58.2354H625.705C625.451 59.7715 624.857 61.137 623.924 62.3318C622.991 63.5266 621.804 64.4654 620.362 65.1482C618.92 65.8309 617.223 66.1723 615.357 66.1723C613.237 66.1723 611.37 65.7456 609.759 64.8068C608.147 63.868 606.875 62.5879 605.942 60.881C605.009 59.1741 604.585 57.2112 604.585 54.8216C604.585 52.5174 605.009 50.4691 605.942 48.7623C606.875 47.0554 608.147 45.6899 609.759 44.8365C611.37 43.8977 613.237 43.471 615.357 43.471C617.478 43.471 619.344 43.8977 620.955 44.8365C622.567 45.7753 623.755 46.9701 624.603 48.5062C625.451 49.9571 625.875 51.6639 625.875 53.5415ZM594.66 48.1649C595.339 46.6287 596.442 45.4339 597.799 44.5805C599.156 43.727 600.852 43.3003 602.803 43.3003V47.3114H601.701C599.665 47.3114 597.968 47.8235 596.696 48.933C595.424 49.9571 594.745 51.7493 594.745 54.2242V65.8309H591.098V43.727H594.745V48.1649H594.66ZM585.924 43.727V65.8309H582.276V60.625C581.683 62.4172 580.75 63.7827 579.308 64.7215C577.866 65.6602 576.254 66.1723 574.303 66.1723C571.758 66.1723 569.723 65.3189 568.111 63.6973C566.499 62.0758 565.736 59.6862 565.736 56.6138V43.727H569.383V56.2725C569.383 58.4914 569.977 60.1983 571.08 61.3931C572.182 62.5879 573.709 63.1853 575.66 63.1853C577.696 63.1853 579.223 62.5025 580.495 61.2224C581.683 59.9422 582.276 57.9793 582.276 55.5044V43.727H585.924ZM562.682 62.5879V65.8309H559.968C557.763 65.8309 556.066 65.3189 554.963 64.2094C553.861 63.0999 553.267 61.3077 553.267 58.8328V46.8847H549.959V43.727H553.267V38.1797H556.914V43.727H562.597V46.8847H556.914V58.9181C556.914 60.3689 557.169 61.3077 557.678 61.8198C558.187 62.3318 559.12 62.5879 560.392 62.5879H562.682ZM538.762 43.3003C541.307 43.3003 543.428 44.1537 544.954 45.7753C546.566 47.3968 547.329 49.7864 547.329 52.9441V65.8309H543.682V53.2855C543.682 51.0665 543.088 49.3597 541.986 48.2502C540.883 47.0554 539.356 46.458 537.405 46.458C535.369 46.458 533.843 47.1407 532.57 48.4209C531.383 49.701 530.789 51.6639 530.789 54.1389V65.8309H527.142V43.727H530.789V48.933C531.383 47.1407 532.316 45.7753 533.758 44.7511C535.285 43.8124 536.896 43.3003 538.762 43.3003ZM519.508 53.7975C519.592 52.176 519.338 50.8105 518.744 49.701C518.15 48.5916 517.302 47.8235 516.2 47.2261C515.097 46.6287 513.994 46.458 512.722 46.458C510.686 46.458 509.074 47.0554 507.717 48.3356C506.36 49.6157 505.597 51.4079 505.512 53.7975H519.508ZM523.24 53.5415C523.24 54.3096 523.155 54.9923 523.07 55.5897H505.512C505.597 58.15 506.275 60.0276 507.632 61.3077C508.99 62.5879 510.601 63.1853 512.552 63.1853C514.333 63.1853 515.775 62.7586 516.963 61.8198C518.15 60.881 518.914 59.6862 519.168 58.2354H523.07C522.816 59.7715 522.222 61.137 521.289 62.3318C520.356 63.5266 519.168 64.4654 517.726 65.1482C516.284 65.8309 514.588 66.1723 512.722 66.1723C510.601 66.1723 508.735 65.7456 507.124 64.8068C505.512 63.868 504.24 62.5879 503.307 60.881C502.373 59.1741 501.949 57.2112 501.949 54.8216C501.949 52.5174 502.373 50.4691 503.307 48.7623C504.24 47.0554 505.512 45.6899 507.124 44.8365C508.735 43.8977 510.601 43.471 512.722 43.471C514.842 43.471 516.708 43.8977 518.32 44.8365C519.932 45.7753 521.119 46.9701 521.967 48.5062C522.816 49.9571 523.24 51.6639 523.24 53.5415ZM478.793 37.4116L487.36 61.7344L496.097 37.4116H500.083L489.735 65.8309H485.155L474.806 37.4116H478.793Z" fill="#9D60FF"/>
<path fill-rule="evenodd" clip-rule="evenodd" d="M322.041 32.4619L332.983 39.1187V68.6474L322.041 62.076V32.4619Z" fill="#9D60FF"/>
<path d="M322.041 32.4619L332.983 39.1187V68.6474L322.041 62.076V32.4619Z" stroke="#9D60FF" stroke-width="0.5669" stroke-miterlimit="22.9256"/>
<path fill-rule="evenodd" clip-rule="evenodd" d="M338.75 32.4619L349.693 39.1187V68.6474L338.75 62.076V32.4619Z" fill="#9D60FF"/>
<path d="M338.75 32.4619L349.693 39.1187V68.6474L338.75 62.076V32.4619Z" stroke="#9D60FF" stroke-width="0.5669" stroke-miterlimit="22.9256"/>
<path fill-rule="evenodd" clip-rule="evenodd" d="M355.376 32.4619L366.318 39.1187V68.6474L355.376 62.076V32.4619Z" fill="#9D60FF"/>
<path d="M355.376 32.4619L366.318 39.1187V68.6474L355.376 62.076V32.4619Z" stroke="#9D60FF" stroke-width="0.5669" stroke-miterlimit="22.9256"/>
<path d="M276.558 261.601H278.253V269.216H282.982V270.649H276.558V261.601ZM270.847 267.245L269.152 263.303L267.457 267.245H270.847ZM271.383 268.589H266.832L265.94 270.649H264.245L268.26 261.601H269.866L273.97 270.649H272.186L271.383 268.589ZM258.712 263.034H255.768V261.601H263.441V263.034H260.497V270.649H258.802V263.034H258.712ZM251.396 261.601H253.091V270.649H251.396V261.601ZM244.436 266.618C245.15 266.618 245.685 266.439 246.131 266.17C246.577 265.901 246.667 265.453 246.667 264.826C246.667 264.289 246.488 263.841 246.131 263.482C245.774 263.124 245.239 263.034 244.436 263.034H242.473V266.618H244.436ZM244.525 261.601C245.328 261.601 245.953 261.691 246.577 261.959C247.113 262.228 247.559 262.586 247.916 263.034C248.184 263.482 248.362 264.109 248.362 264.737C248.362 265.364 248.184 265.991 247.916 266.439C247.648 266.887 247.202 267.335 246.577 267.514C246.042 267.783 245.328 267.872 244.525 267.872H242.473V270.47H240.778V261.422H244.525V261.601ZM235.067 267.245L233.372 263.303L231.676 267.245H235.067ZM235.602 268.589H231.052L230.159 270.649H228.464L232.479 261.601H234.086L238.19 270.649H236.405L235.602 268.589ZM223.378 270.739C222.486 270.739 221.683 270.56 220.88 270.112C220.166 269.753 219.541 269.126 219.184 268.41C218.738 267.693 218.56 266.887 218.56 265.991C218.56 265.095 218.738 264.289 219.184 263.572C219.631 262.855 220.166 262.318 220.88 261.87C221.594 261.511 222.397 261.243 223.378 261.243C224.092 261.243 224.806 261.332 225.43 261.601C226.055 261.87 226.59 262.228 226.947 262.766L225.877 263.751C225.252 263.034 224.449 262.676 223.467 262.676C222.843 262.676 222.307 262.855 221.772 263.124C221.326 263.393 220.88 263.751 220.612 264.289C220.344 264.737 220.166 265.274 220.166 265.901C220.166 266.528 220.344 267.066 220.612 267.514C220.88 267.962 221.237 268.41 221.772 268.678C222.218 268.947 222.843 269.126 223.467 269.126C224.449 269.126 225.252 268.768 225.877 268.051L226.947 269.126C226.501 269.574 225.966 270.022 225.43 270.291C224.806 270.649 224.181 270.739 223.378 270.739ZM210.262 270.649V264.647L207.317 269.574H206.603L203.659 264.647V270.56H202.053V261.511H203.391L206.96 267.514L210.44 261.511H211.779V270.56H210.262V270.649ZM195.271 269.216V270.649H188.49V261.601H195.093V263.034H190.185V265.364H194.558V266.707H190.185V269.216H195.271ZM185.278 269.216V270.649H178.497V261.601H185.099V263.034H180.192V265.364H184.564V266.707H180.192V269.216H185.278ZM173.589 264.826C173.589 264.289 173.411 263.841 173.054 263.482C172.697 263.214 172.161 263.034 171.358 263.034H169.395V266.618H171.358C172.072 266.618 172.607 266.439 173.054 266.17C173.321 265.812 173.589 265.364 173.589 264.826ZM173.589 270.649L171.715 267.962C171.626 267.962 171.537 267.962 171.358 267.962H169.306V270.56H167.611V261.511H171.358C172.161 261.511 172.786 261.601 173.411 261.87C173.946 262.139 174.392 262.497 174.749 262.945C175.017 263.393 175.195 264.02 175.195 264.647C175.195 265.364 175.017 265.901 174.66 266.439C174.303 266.887 173.857 267.335 173.232 267.514L175.284 270.47H173.589V270.649ZM163.863 261.601V270.649H162.168V266.797H157.528V270.649H155.833V261.601H157.528V265.364H162.168V261.601H163.863ZM148.605 263.034H145.661V261.601H153.334V263.034H150.39V270.649H148.694V263.034H148.605Z" fill="#9D60FF"/>
<path fill-rule="evenodd" clip-rule="evenodd" d="M214.099 150.065C189.204 150.065 169.039 170.312 169.039 195.306C169.039 220.301 189.204 240.548 214.099 240.548C238.993 240.548 259.248 220.301 259.248 195.306C259.248 170.312 239.082 150.065 214.099 150.065ZM214.099 153.469C191.078 153.469 172.34 172.283 172.34 195.396C172.34 218.509 191.078 237.323 214.099 237.323C237.119 237.323 255.857 218.509 255.857 195.396C255.857 172.283 237.209 153.469 214.099 153.469ZM212.314 174.433H217.846C218.471 174.433 219.006 174.97 219.006 175.597V215.105C219.006 215.732 218.471 216.27 217.846 216.27H212.314C211.69 216.27 211.154 215.732 211.154 215.105V175.597C211.065 174.97 211.6 174.433 212.314 174.433ZM230.07 167.534H235.603C236.227 167.534 236.763 168.072 236.763 168.699V221.645C236.763 222.272 236.227 222.81 235.603 222.81H230.07C229.446 222.81 228.911 222.272 228.911 221.645V168.699C228.911 168.072 229.446 167.534 230.07 167.534ZM192.238 167.534H197.77C198.395 167.534 198.93 168.072 198.93 168.699V221.645C198.93 222.272 198.395 222.81 197.77 222.81H192.238C191.613 222.81 191.078 222.272 191.078 221.645V168.699C191.078 168.072 191.613 167.534 192.238 167.534Z" fill="#9D60FF"/>
<path d="M436.992 239.991H433.078V238.993H442.134V239.991H438.22V250.128H437.069L436.992 239.991ZM450.192 246.365C451.036 246.058 451.65 245.674 452.111 245.059C452.571 244.445 452.725 243.754 452.725 242.833C452.725 241.604 452.341 240.682 451.497 239.991C450.652 239.3 449.578 238.993 448.12 238.993H443.976V250.204H445.127V240.068H448.12C449.271 240.068 450.039 240.299 450.652 240.836C451.266 241.297 451.497 241.988 451.497 242.909C451.497 243.754 451.19 244.445 450.652 244.983C450.192 245.367 449.501 245.674 448.734 245.674H448.427L449.041 246.595L451.65 250.281H452.955L450.192 246.365ZM467.843 226.707C467.383 225.862 466.616 225.171 465.695 224.71C464.774 224.25 463.776 224.019 462.548 224.019H458.02V225.018H459.171H462.471C463.469 225.018 464.313 225.248 465.081 225.632C465.848 226.016 466.385 226.553 466.769 227.244C467.153 227.936 467.383 228.703 467.383 229.625C467.383 230.47 467.153 231.314 466.769 232.005C466.385 232.696 465.771 233.234 465.081 233.618C464.313 234.002 463.469 234.232 462.471 234.232H459.171H458.02V235.23H462.548C463.699 235.23 464.774 235 465.695 234.539C466.616 234.079 467.306 233.388 467.843 232.543C468.304 231.698 468.611 230.777 468.611 229.625C468.611 228.55 468.381 227.552 467.843 226.707ZM471.22 224.019H472.371V235.23H471.22V224.019ZM483.96 229.625H485.111V233.925C484.574 234.386 483.96 234.77 483.269 235C482.579 235.23 481.811 235.384 481.044 235.384C479.892 235.384 478.895 235.154 477.974 234.616C477.13 234.155 476.362 233.464 475.825 232.543C475.364 231.698 475.057 230.7 475.057 229.625C475.057 228.55 475.288 227.552 475.825 226.707C476.285 225.862 477.053 225.171 477.974 224.634C478.818 224.173 479.892 223.866 481.044 223.866C481.888 223.866 482.655 224.019 483.423 224.326C484.113 224.634 484.727 225.018 485.188 225.555L484.42 226.323C483.576 225.478 482.425 225.018 481.044 225.018C480.123 225.018 479.278 225.248 478.588 225.632C477.82 226.016 477.283 226.553 476.823 227.321C476.362 228.012 476.209 228.78 476.209 229.702C476.209 230.546 476.439 231.391 476.823 232.082C477.283 232.773 477.82 233.388 478.511 233.771C479.278 234.155 480.046 234.386 480.967 234.386C482.118 234.386 483.116 234.079 483.883 233.541L483.96 229.625ZM488.411 224.019H489.562V235.23H488.411V224.019ZM495.395 225.018H491.481V224.019H500.537V225.018H496.623V235.154H495.472L495.395 225.018ZM506.37 224.019H505.142L500 235.23H501.228L505.679 225.248L510.13 235.23H511.435L506.37 224.019ZM513.277 224.019H514.505V234.155H520.721V235.154H513.277V224.019ZM460.015 238.993H458.864L453.722 250.204H454.95L459.401 240.222L463.853 250.204H465.081L460.015 238.993ZM468.534 239.991H464.62V238.993H473.676V239.991H469.762V250.128H468.611L468.534 239.991ZM475.518 238.993H483.192V239.991H475.518V238.993ZM475.518 243.984H482.502V244.983H475.518V243.984ZM475.518 249.129H483.423V250.128H475.518V249.129ZM494.09 244.599H495.242V248.899C494.704 249.36 494.09 249.744 493.4 249.974C492.709 250.204 491.941 250.358 491.174 250.358C490.023 250.358 489.025 250.128 488.104 249.59C487.26 249.129 486.493 248.438 485.955 247.517C485.495 246.672 485.188 245.674 485.188 244.599C485.188 243.524 485.418 242.525 485.955 241.681C486.416 240.836 487.183 240.145 488.104 239.607C488.948 239.147 490.023 238.84 491.174 238.84C492.018 238.84 492.786 238.993 493.553 239.3C494.244 239.607 494.858 239.991 495.318 240.529L494.551 241.297C493.707 240.452 492.555 239.991 491.174 239.991C490.253 239.991 489.409 240.222 488.718 240.606C487.951 240.99 487.413 241.527 486.953 242.295C486.493 242.986 486.339 243.754 486.339 244.676C486.339 245.52 486.569 246.365 486.953 247.056C487.413 247.747 487.951 248.361 488.641 248.745C489.409 249.129 490.176 249.36 491.097 249.36C492.248 249.36 493.246 249.052 494.014 248.515L494.09 244.599ZM498.542 238.993H499.693V250.204H498.542V238.993ZM510.974 239.991V238.993H503.3V239.991H510.974ZM503.3 244.983V243.984H510.284V244.983H504.528H503.3ZM503.3 249.129V250.128H511.205V249.129H503.3ZM514.658 249.82C513.891 249.513 513.353 249.206 512.893 248.745L513.353 247.824C513.737 248.208 514.274 248.592 514.965 248.822C515.656 249.052 516.346 249.206 517.037 249.206C518.035 249.206 518.802 249.052 519.263 248.669C519.723 248.285 520.03 247.824 520.03 247.21C520.03 246.749 519.877 246.365 519.57 246.135C519.263 245.827 518.956 245.674 518.572 245.52C518.188 245.367 517.651 245.213 516.884 245.059C516.039 244.829 515.349 244.599 514.888 244.445C514.428 244.215 513.967 243.984 513.584 243.524C513.2 243.14 513.046 242.602 513.046 241.834C513.046 241.297 513.2 240.759 513.507 240.299C513.814 239.838 514.274 239.454 514.888 239.223C515.502 238.916 516.27 238.763 517.191 238.763C517.805 238.763 518.495 238.84 519.033 238.993C519.646 239.147 520.184 239.454 520.644 239.761L520.26 240.682C519.8 240.375 519.34 240.145 518.726 239.991C518.188 239.838 517.651 239.761 517.191 239.761C516.193 239.761 515.426 239.915 514.965 240.299C514.505 240.682 514.198 241.143 514.198 241.758C514.198 242.218 514.351 242.602 514.658 242.833C514.965 243.14 515.272 243.293 515.656 243.447C516.116 243.6 516.577 243.754 517.344 243.908C518.188 244.138 518.802 244.292 519.34 244.522C519.8 244.752 520.26 244.983 520.644 245.367C521.028 245.751 521.181 246.288 521.181 246.979C521.181 247.517 521.028 248.054 520.721 248.515C520.414 248.976 519.953 249.36 519.34 249.59C518.726 249.897 517.958 250.051 517.037 250.051C516.27 250.281 515.502 250.128 514.658 249.82ZM425.864 249.82C425.096 249.513 424.559 249.206 424.099 248.745L424.559 247.824C424.943 248.208 425.48 248.592 426.171 248.822C426.861 249.052 427.552 249.206 428.243 249.206C429.241 249.206 430.008 249.052 430.468 248.669C430.929 248.285 431.236 247.824 431.236 247.21C431.236 246.749 431.082 246.365 430.775 246.135C430.468 245.827 430.162 245.674 429.778 245.52C429.394 245.367 428.857 245.213 428.089 245.059C427.245 244.829 426.554 244.599 426.094 244.445C425.634 244.215 425.173 243.984 424.789 243.524C424.406 243.14 424.252 242.602 424.252 241.834C424.252 241.297 424.406 240.759 424.713 240.299C425.02 239.838 425.48 239.454 426.094 239.223C426.708 238.916 427.475 238.763 428.396 238.763C429.01 238.763 429.701 238.84 430.238 238.993C430.852 239.147 431.389 239.454 431.85 239.761L431.466 240.682C431.006 240.375 430.545 240.145 429.931 239.991C429.394 239.838 428.857 239.761 428.396 239.761C427.399 239.761 426.631 239.915 426.171 240.299C425.71 240.682 425.403 241.143 425.403 241.758C425.403 242.218 425.557 242.602 425.864 242.833C426.171 243.14 426.478 243.293 426.861 243.447C427.322 243.6 427.782 243.754 428.55 243.908C429.394 244.138 430.008 244.292 430.545 244.522C431.006 244.752 431.466 244.983 431.85 245.367C432.234 245.751 432.387 246.288 432.387 246.979C432.387 247.517 432.234 248.054 431.927 248.515C431.62 248.976 431.159 249.36 430.545 249.59C429.931 249.897 429.164 250.051 428.243 250.051C427.399 250.281 426.631 250.128 425.864 249.82Z" fill="#9D60FF"/>
<path d="M425.864 189.08L417.652 171.649L412.74 202.518H416.194L425.864 189.08ZM432.233 194.071L427.015 190.309L418.419 202.441L430.622 200.598L432.233 194.071ZM397.007 175.719L411.359 201.059L416.27 170.19L397.007 175.719ZM430.238 187.851L434.766 187.468V184.857L430.238 187.851ZM435.15 188.927L428.626 189.541L444.206 200.906L435.15 188.927ZM429.164 206.742L430.161 202.288L417.959 203.977L420.645 207.279L429.164 206.742ZM445.357 203.593L442.824 209.736L447.199 204.975L445.357 203.593ZM431.85 207.817L443.515 202.211L433.615 195.07C432.617 199.139 431.543 203.056 430.699 207.202L431.85 207.817ZM439.908 212.424L443.438 204.054L433.615 208.815L439.908 212.424ZM395.933 176.947L385.572 197.834L410.284 202.134L395.933 176.947ZM378.282 208.968L395.012 175.028L391.251 168.654L378.282 208.968ZM429.778 167.502L424.405 172.878L431.773 177.869L435.534 172.57L429.778 167.502ZM425.326 164.431L424.405 170.728L428.933 166.197L429.547 159.747L425.326 164.431ZM422.64 171.649L423.715 164.968L392.479 167.579L396.317 174.106L417.115 168.117C417.422 168.04 417.652 168.194 417.882 168.347L422.64 171.649ZM419.187 171.188L427.015 188.082L434.536 183.014L431.543 179.635C431.543 179.635 420.184 171.879 419.187 171.188ZM411.819 215.879L386.647 242.141L428.396 232.159L411.819 215.879ZM388.565 199.907L411.052 213.499V203.824L388.565 199.907ZM409.287 214.19L384.805 199.37L375.749 217.722L409.287 214.19ZM437.682 259.495L429.087 263.719H437.068L437.682 259.495ZM388.182 254.504L380.047 257.729L392.096 262.797L388.182 254.504ZM394.245 263.719H422.64L385.879 245.366L394.245 263.719ZM393.093 265.255L377.514 258.42C377.207 258.344 377.054 257.96 377.054 257.653C377.054 257.192 377.514 256.885 377.514 256.885L387.337 252.968L383.577 244.214C383.347 243.6 383.27 243.216 383.807 242.679L409.901 215.572L374.751 219.258C374.137 219.335 373.37 219.258 373.677 218.337C379.202 201.213 384.651 183.858 390.177 166.581C390.331 166.274 390.484 166.12 390.945 165.967L424.329 163.202L430.008 157.059C430.315 156.752 430.622 156.752 430.929 156.906C431.236 157.059 431.389 157.366 431.389 157.673L430.622 166.197L437.068 171.879C437.375 172.187 437.375 172.647 437.222 172.954L433.078 178.944L436.147 182.476C436.301 182.63 436.301 182.783 436.301 182.937V187.851L448.81 204.207C449.117 204.515 448.964 204.975 448.81 205.283L440.982 214.113C440.675 214.42 440.368 214.42 440.061 214.267L429.701 208.431L420.415 208.892C420.108 208.892 419.954 208.738 419.801 208.584L416.117 204.131H412.587V214.497L430.622 231.928C430.929 232.235 430.929 232.696 430.622 233.003C430.468 233.157 430.392 233.234 430.161 233.31L386.263 243.831L425.633 263.719L438.373 257.269C438.603 257.192 439.064 257.115 439.294 257.269C439.601 257.576 439.601 258.036 439.601 258.036L438.68 264.717C438.527 265.024 438.22 265.331 437.913 265.331C422.947 265.255 408.059 265.255 393.093 265.255Z" fill="#9D60FF"/>
</svg>
