<?xml version="1.0" encoding="UTF-8"?>
<svg width="1204px" height="109px" viewBox="0 0 1204 109" version="1.1" xmlns="http://www.w3.org/2000/svg" xmlns:xlink="http://www.w3.org/1999/xlink">
    <title>Mobile</title>
    <g id="Page-1" stroke="none" stroke-width="1" fill="none" fill-rule="evenodd">
        <g id="Mobile" transform="translate(0.000000, -0.000000)">
            <g id="Group-10" transform="translate(-0.000000, 18.000000)" fill="#9D60FF" fill-rule="nonzero">
                <path d="M135.4676,39.1994 L131.7136,39.1994 L131.7136,11.5931 L135.4676,11.5931 L135.4676,39.1994 Z M149.2316,39.1994 L149.2316,14.9292 L141.1396,14.9292 L141.1396,11.5931 L160.6596,11.5931 L160.6596,14.9292 L152.9016,14.9292 L152.9016,39.1994 L149.2316,39.1994 Z M172.5046,19.8499 L167.4996,32.3604 L172.5046,32.3604 L177.5096,32.3604 L172.5046,19.8499 Z M160.6596,39.1994 L172.5046,11.5931 L184.3496,39.1994 L180.1786,39.1994 L178.6766,35.6131 L172.5046,35.6131 L166.3316,35.6131 L164.8296,39.1994 L160.6596,39.1994 Z M194.1926,21.518 L194.1086,39.1994 L190.0216,39.1994 L190.0216,12.1769 L207.1216,30.2753 L207.1216,12.1769 L211.2086,12.1769 L211.2086,39.1994 L194.1926,21.518 Z M225.4736,40.2002 C221.1356,40.2002 218.2996,37.9483 216.3806,34.1118 L219.5506,32.694 C220.7186,35.0292 222.8036,36.9475 225.4736,36.9475 C228.3926,36.9475 231.3126,35.2795 231.3126,32.0267 C231.3126,31.2761 231.1456,30.6089 230.7286,30.0251 C230.3116,29.4413 229.7276,28.9408 228.9766,28.357 C226.8076,26.9392 224.6386,26.1051 222.4706,24.9375 C221.5526,24.4371 220.8856,23.9367 220.3846,23.4363 C219.6336,22.769 219.0506,22.0184 218.6326,21.101 C218.2156,20.2669 218.0496,19.3495 218.0496,18.4321 C218.0496,17.5147 218.2996,16.5972 218.7166,15.6798 C219.1336,14.7624 219.8006,14.0117 220.6346,13.3445 C221.3856,12.7607 222.3036,12.2603 223.3876,11.9267 C224.4726,11.5931 225.4736,11.4262 226.6406,11.4262 C229.0596,11.4262 232.0626,12.8441 233.3976,15.2628 L230.6446,17.181 C229.5606,15.4296 227.8926,14.679 226.5576,14.679 C225.6396,14.679 224.8056,14.8458 224.0556,15.1794 C223.3876,15.513 222.8036,16.0134 222.3866,16.5972 C221.9696,17.181 221.8026,17.7649 221.8026,18.4321 C221.8026,19.4329 222.1366,20.1835 222.8036,20.8508 C223.4716,21.518 224.6386,22.1852 226.2236,22.9358 C227.5586,23.6031 228.8936,24.2703 230.2276,25.0209 C231.3126,25.6047 232.1466,26.272 232.8136,26.8558 C234.3986,28.2736 235.1496,30.0251 235.1496,32.0267 C235.0656,37.2811 230.2276,40.2002 225.4736,40.2002 Z M114.4466,39.1994 L114.4466,14.9292 L106.3556,14.9292 L106.3556,11.5931 L125.8746,11.5931 L125.8746,14.9292 L118.1166,14.9292 L118.1166,39.1994 L114.4466,39.1994 Z" id="Shape"></path>
                <path d="M228.6426,67.4727 C228.3096,67.4727 228.0586,67.4727 227.8086,67.3897 L227.7256,67.3897 L227.6416,67.3897 L227.3086,67.3057 C226.9746,67.2227 226.5576,67.1397 226.1406,66.9727 C225.0556,66.6387 224.1386,66.0547 223.3876,65.2207 C223.3046,65.1377 223.3046,65.0547 223.3046,64.9707 C223.3046,64.8877 223.3876,64.8037 223.4716,64.7207 L223.7216,64.5537 C223.8046,64.5537 223.8886,64.4707 223.9716,64.4707 C224.0556,64.4707 224.2216,64.5537 224.3056,64.6377 C224.8896,65.3047 225.6396,65.8047 226.5576,66.1387 C226.8916,66.2217 227.2246,66.3057 227.5586,66.3887 C227.6416,66.3887 227.6416,66.3887 227.7256,66.3887 C227.8086,66.3887 227.8086,66.3887 227.8926,66.3887 C227.9756,66.3887 227.9756,66.3887 227.9756,66.3887 C228.2256,66.3887 228.4766,66.3887 228.7266,66.3887 C229.3106,66.3887 229.9776,66.3057 230.6446,66.1387 C231.3126,65.9717 231.8966,65.7217 232.3966,65.3047 C233.3976,64.6377 233.8986,63.7198 234.0646,62.5522 C234.0646,62.4688 234.0646,62.3854 234.0646,62.2186 C234.0646,61.5514 233.8986,60.9675 233.5646,60.4671 C233.2306,59.9667 232.7306,59.5497 232.0626,59.0493 C231.3956,58.6323 230.4786,58.1318 229.2266,57.548 L228.8936,57.3812 C228.8096,57.3812 228.6426,57.2978 228.3926,57.131 L228.2256,57.0476 L227.7256,56.7974 L226.9746,56.4638 C226.4746,56.1302 225.9736,55.88 225.5566,55.5464 C224.5556,54.7123 224.0546,53.6281 224.0546,52.4605 L224.0546,52.3771 C224.0546,51.2094 224.4726,50.3754 225.2226,49.7082 C225.9736,49.0409 226.8076,48.6239 227.8086,48.3737 C228.3926,48.2069 229.0596,48.1235 229.6436,48.1235 C229.8106,48.1235 229.9776,48.1235 230.2276,48.1235 C230.9786,48.2069 231.6456,48.3737 232.3136,48.6239 C232.9806,48.8741 233.5646,49.2912 234.0646,49.7082 C234.1486,49.7916 234.1486,49.875 234.1486,49.9584 C234.1486,50.0418 234.0646,50.1252 233.9816,50.2086 L233.7316,50.3754 C233.6476,50.4588 233.5646,50.4588 233.4806,50.4588 C233.3976,50.4588 233.2306,50.4588 233.1476,50.3754 C232.7306,50.0418 232.3136,49.7916 231.7296,49.5414 C231.1456,49.2911 230.5616,49.2077 229.9776,49.1243 C229.8946,49.1243 229.7276,49.1243 229.4776,49.1243 C228.8936,49.1243 228.3096,49.2077 227.7256,49.3746 C227.1416,49.5414 226.6406,49.7916 226.2236,50.1252 C225.3896,50.709 224.9726,51.543 224.9726,52.5439 L224.9726,52.6273 C224.9726,53.5447 225.3896,54.3787 226.3076,55.0459 C226.6406,55.2962 227.0576,55.6298 227.5586,55.88 C227.6416,55.88 227.8086,56.0468 228.2256,56.2136 L228.8096,56.4638 L229.0596,56.6306 L229.3106,56.714 L229.6436,56.8808 L230.1446,57.131 L230.7286,57.3812 C231.0616,57.548 231.3956,57.7148 231.7296,57.8816 C232.4796,58.2987 233.0636,58.7157 233.4806,59.1327 C234.4816,60.0501 234.9826,61.1344 234.9826,62.3854 C234.9826,62.4688 234.9826,62.6356 234.9826,62.8858 C234.8996,63.8032 234.5656,64.6377 233.9816,65.3047 C233.3976,65.9717 232.6466,66.5557 231.7296,66.9727 C230.8116,67.2227 229.8106,67.4727 228.6426,67.4727 Z M208.2896,48.6239 C208.2896,48.3737 208.4566,48.2903 208.7066,48.2903 L219.1336,48.2903 C219.3836,48.2903 219.5506,48.3737 219.5506,48.6239 L219.5506,48.8741 C219.5506,49.1243 219.3836,49.2077 219.1336,49.2077 L209.4576,49.2077 L209.4576,58.7991 L217.7986,58.7991 C218.0496,58.7991 218.2156,58.8825 218.2156,59.1327 L218.2156,59.3829 C218.2156,59.6331 218.0496,59.7165 217.7986,59.7165 L209.4576,59.7165 L209.4576,66.3887 L219.1336,66.3887 C219.3836,66.3887 219.5506,66.4717 219.5506,66.7227 L219.5506,66.9727 C219.5506,67.2227 219.3836,67.3057 219.1336,67.3057 L208.7066,67.3057 C208.4566,67.3057 208.2896,67.2227 208.2896,66.9727 L208.2896,48.6239 Z M196.0276,60.6339 C197.1956,60.6339 198.2796,60.3837 199.2806,59.7999 C200.2816,59.2995 201.0326,58.6323 201.6166,57.7148 C202.2006,56.8808 202.5336,55.88 202.5336,54.8791 C202.5336,53.8783 202.2006,52.8775 201.6166,52.0434 C201.0326,51.2094 200.1986,50.4588 199.1976,49.9584 C198.1966,49.458 197.0286,49.2077 195.8606,49.2077 L194.1926,49.2077 L194.1926,60.6339 L196.0276,60.6339 Z M203.3676,66.8057 C203.4516,66.8887 203.4516,66.9727 203.4516,67.0557 C203.4516,67.1397 203.4516,67.2227 203.3676,67.2227 C203.2846,67.2227 203.2016,67.3057 203.1176,67.3057 L202.7836,67.3057 C202.7006,67.3057 202.6176,67.3057 202.6176,67.3057 C202.5336,67.3057 202.5336,67.2227 202.4506,67.2227 L198.4466,61.3012 C197.6956,61.468 196.9446,61.6348 196.1946,61.6348 L194.3586,61.6348 L194.3586,67.0557 C194.3586,67.1397 194.3586,67.2227 194.2756,67.3057 C194.1926,67.3897 194.1086,67.3897 194.0256,67.3897 L193.6916,67.3897 C193.6086,67.3897 193.5246,67.3897 193.4416,67.3057 C193.3586,67.2227 193.3576,67.1397 193.3576,67.0557 L193.3576,48.7073 C193.3576,48.6239 193.3586,48.5405 193.4416,48.4571 C193.5246,48.3737 193.6086,48.3737 193.6916,48.3737 L196.0276,48.3737 C197.4456,48.3737 198.6966,48.7073 199.9476,49.2912 C201.1156,49.875 202.0336,50.709 202.7836,51.7098 C203.4516,52.7107 203.7846,53.7949 203.7846,55.0459 C203.7846,55.88 203.6186,56.714 203.2846,57.4646 C202.9506,58.2153 202.4506,58.9659 201.7826,59.5497 C201.1156,60.1335 200.3646,60.6339 199.5306,61.051 L203.3676,66.8057 Z M181.2626,67.3057 C180.0946,67.3057 179.0106,67.0557 178.0096,66.5557 C177.0086,66.0547 176.2576,65.3877 175.6736,64.5537 C175.0896,63.7198 174.8396,62.8024 174.8396,61.8016 L174.8396,48.6239 C174.8396,48.5405 174.8396,48.4571 174.9236,48.3737 C175.0066,48.2903 175.0896,48.2903 175.1736,48.2903 L175.5076,48.2903 C175.5906,48.2903 175.6736,48.2903 175.7576,48.3737 C175.8406,48.4571 175.8406,48.5405 175.8406,48.6239 L175.8406,61.8016 C175.8406,62.6356 176.0906,63.3862 176.5916,64.1367 C177.0916,64.8037 177.7596,65.3877 178.5096,65.8047 C179.3446,66.2217 180.2616,66.3887 181.1796,66.3887 C182.1806,66.3887 183.0146,66.2217 183.8486,65.8047 C184.6826,65.3877 185.3506,64.8037 185.7676,64.1367 C186.2676,63.4696 186.5176,62.6356 186.5176,61.8016 L186.5176,48.6239 C186.5176,48.5405 186.5176,48.4571 186.6016,48.3737 C186.6846,48.2903 186.7686,48.2903 186.8516,48.2903 L187.1856,48.2903 C187.2686,48.2903 187.3526,48.2903 187.4356,48.3737 C187.5186,48.4571 187.5186,48.5405 187.5186,48.6239 L187.5186,61.8016 C187.5186,62.8024 187.2686,63.7198 186.6846,64.5537 C186.1006,65.3877 185.3506,66.0547 184.3496,66.5557 C183.5146,67.0557 182.4306,67.3057 181.2626,67.3057 Z M158.6576,48.6239 C158.6576,48.5405 158.6576,48.4571 158.7406,48.3737 C158.8236,48.2903 158.9076,48.2903 158.9906,48.2903 L170.0016,48.2903 C170.0856,48.2903 170.2516,48.2903 170.2516,48.3737 C170.3356,48.4571 170.3356,48.5405 170.3356,48.6239 L170.3356,48.8741 C170.3356,48.9575 170.3356,49.0409 170.2516,49.1243 C170.1686,49.2077 170.0856,49.2077 170.0016,49.2077 L165.0806,49.2077 L165.0806,66.9727 C165.0806,67.0557 165.0806,67.1397 164.9966,67.2227 C164.9136,67.3057 164.8296,67.3057 164.7466,67.3057 L164.4126,67.3057 C164.3296,67.3057 164.2456,67.3057 164.1626,67.2227 C164.0796,67.1397 164.0796,67.0557 164.0796,66.9727 L164.0796,49.2077 L158.9906,49.2077 C158.9076,49.2077 158.8236,49.2077 158.7406,49.1243 C158.6576,49.0409 158.6576,48.9575 158.6576,48.8741 L158.6576,48.6239 Z M153.2356,48.6239 C153.2356,48.5405 153.2356,48.4571 153.3186,48.3737 C153.4016,48.2903 153.4856,48.2903 153.5686,48.2903 L153.9026,48.2903 C153.9856,48.2903 154.0696,48.2903 154.1526,48.3737 C154.2366,48.4571 154.2366,48.5405 154.2366,48.6239 L154.2366,66.8887 C154.2366,66.9727 154.1526,67.1397 154.0696,67.1397 C153.9856,67.2227 153.9026,67.2227 153.7356,67.2227 C153.6526,67.2227 153.5686,67.2227 153.4856,67.1397 C153.4016,67.1397 153.3186,67.0557 153.3186,66.9727 L142.3076,50.709 L142.3076,66.9727 C142.3076,67.0557 142.3076,67.1397 142.2246,67.2227 C142.1406,67.3057 142.0576,67.3057 141.9736,67.3057 L141.6406,67.3057 C141.5566,67.3057 141.4736,67.3057 141.3896,67.2227 C141.3066,67.1397 141.3066,67.0557 141.3066,66.9727 L141.3066,48.7907 C141.3066,48.7073 141.3896,48.5405 141.4736,48.5405 C141.5566,48.4571 141.6406,48.4571 141.8076,48.4571 C141.9736,48.4571 142.1406,48.5405 142.2246,48.7073 L153.2356,64.8877 L153.2356,48.6239 Z M125.2906,48.6239 C125.2906,48.3737 125.4576,48.2903 125.7076,48.2903 L136.1346,48.2903 C136.3856,48.2903 136.5516,48.3737 136.5516,48.6239 L136.5516,48.8741 C136.5516,49.1243 136.3856,49.2077 136.1346,49.2077 L126.4586,49.2077 L126.4586,58.7991 L134.8006,58.7991 C135.0506,58.7991 135.2176,58.8825 135.2176,59.1327 L135.2176,59.3829 C135.2176,59.6331 135.0506,59.7165 134.8006,59.7165 L126.4586,59.7165 L126.4586,66.3887 L136.1346,66.3887 C136.3856,66.3887 136.5516,66.4717 136.5516,66.7227 L136.5516,66.9727 C136.5516,67.2227 136.3856,67.3057 136.1346,67.3057 L125.7076,67.3057 C125.4576,67.3057 125.2906,67.2227 125.2906,66.9727 L125.2906,48.6239 Z M106.3556,48.7907 C106.3556,48.7073 106.3556,48.7073 106.3556,48.6239 C106.3556,48.5405 106.4386,48.4571 106.4386,48.3737 C106.5226,48.2903 106.6056,48.2903 106.7726,48.2903 L107.1066,48.2903 C107.1896,48.2903 107.2726,48.2903 107.3566,48.3737 C107.4396,48.3737 107.4396,48.4571 107.5236,48.5405 L113.6956,64.5537 L119.8686,48.5405 C119.8686,48.4571 119.9526,48.4571 120.0356,48.3737 C120.1186,48.3737 120.2026,48.2903 120.2856,48.2903 L120.5366,48.2903 C120.7026,48.2903 120.7866,48.2903 120.8696,48.3737 C120.9536,48.4571 120.9536,48.5405 120.9536,48.6239 C120.9536,48.7073 120.9536,48.7073 120.9536,48.7073 L114.1966,66.9727 C114.1966,67.0557 114.1136,67.1397 114.0296,67.1397 C113.9466,67.2227 113.8626,67.2227 113.7796,67.2227 C113.6956,67.2227 113.6126,67.2227 113.5296,67.1397 C113.4456,67.0557 113.4456,67.0557 113.3626,66.9727 L106.3556,48.7907 Z" id="Shape"></path>
                <path d="M9.6762,11.3428 L49.2987,70.4757 L87.8368,13.0108 L73.6561,13.0108 L49.1319,49.5413 L23.5232,11.3428 L49.966,11.3428 L49.966,29.8582 L48.2977,27.3561 L48.2977,13.0108 L26.6096,13.0108 L49.1319,46.5388 L72.7386,11.3428 L90.9232,11.3428 C77.0762,32.0267 63.1457,52.7106 49.2987,73.4777 L7.6743,11.3428 L9.6762,11.3428 Z M97.4296,1.668 L1.08441,1.668 L0,0 L98.5136,0 L97.4296,1.668 Z" id="Shape"></path>
            </g>
            <g id="Group-11" transform="translate(1056.145800, 0.000000)" fill="#9D60FF" fill-rule="nonzero">
                <path d="M63.3809477,83.1866999 L59.4709477,83.1866999 L59.4709477,82.1883999 L68.5209477,82.1883999 L68.5209477,83.1866999 L64.6109477,83.1866999 L64.6109477,93.3232999 L63.4609477,93.3232999 L63.3809477,83.1866999 Z M76.5809477,89.5602999 C77.4309477,89.2532999 78.0409477,88.8692999 78.5009477,88.2542999 C78.9609477,87.6402999 79.1109477,86.9492999 79.1109477,86.0278999 C79.1109477,84.7992999 78.7309477,83.8777999 77.8909477,83.1866999 C77.0409477,82.4955999 75.9709477,82.1883999 74.5109477,82.1883999 L70.3709477,82.1883999 L70.3709477,93.3992999 L71.5209477,93.3992999 L71.5209477,83.2634999 L74.5109477,83.2634999 C75.6609477,83.2634999 76.4309477,83.4937999 77.0409477,84.0313999 C77.6609477,84.4920999 77.8909477,85.1831999 77.8909477,86.1046999 C77.8909477,86.9492999 77.5809477,87.6402999 77.0409477,88.1782999 C76.5809477,88.5622999 75.8909477,88.8692999 75.1209477,88.8692999 L74.8209477,88.8692999 L75.4309477,89.7902999 L78.0409477,93.4762999 L79.3409477,93.4762999 L76.5809477,89.5602999 Z M94.2309477,69.9021999 C93.7709477,69.0574999 93.0109477,68.3663999 92.0809477,67.9056999 C91.1609477,67.4449999 90.1709477,67.2145999 88.9409477,67.2145999 L84.4109477,67.2145999 L84.4109477,68.2128999 L85.5609477,68.2128999 L88.8609477,68.2128999 C89.8609477,68.2128999 90.7009477,68.4431999 91.4709477,68.8271999 C92.2409477,69.2110999 92.7809477,69.7485999 93.1609477,70.4396999 C93.5409477,71.1307999 93.7709477,71.8986999 93.7709477,72.8201999 C93.7709477,73.6648999 93.5409477,74.5094999 93.1609477,75.2005999 C92.7809477,75.8916999 92.1609477,76.4292999 91.4709477,76.8131999 C90.7009477,77.1971999 89.8609477,77.4274999 88.8609477,77.4274999 L85.5609477,77.4274999 L84.4109477,77.4274999 L84.4109477,78.4257999 L88.9409477,78.4257999 C90.0909477,78.4257999 91.1609477,78.1953999 92.0809477,77.7346999 C93.0109477,77.2738999 93.7009477,76.5827999 94.2309477,75.7381999 C94.6909477,74.8934999 95.0009477,73.9719999 95.0009477,72.8201999 C95.0009477,71.7450999 94.7709477,70.7468999 94.2309477,69.9021999 Z M97.6109477,67.2145999 L98.7609477,67.2145999 L98.7609477,78.4257999 L97.6109477,78.4257999 L97.6109477,67.2145999 Z M110.350948,72.8201999 L111.500948,72.8201999 L111.500948,77.1203999 C110.960948,77.5810999 110.350948,77.9649999 109.660948,78.1953999 C108.970948,78.4257999 108.200948,78.5793999 107.430948,78.5793999 C106.280948,78.5793999 105.280948,78.3489999 104.360948,77.8114999 C103.520948,77.3506999 102.750948,76.6595999 102.210948,75.7381999 C101.750948,74.8934999 101.450948,73.8951999 101.450948,72.8201999 C101.450948,71.7450999 101.680948,70.7468999 102.210948,69.9021999 C102.680948,69.0574999 103.440948,68.3663999 104.360948,67.8288999 C105.210948,67.3681999 106.280948,67.0609999 107.430948,67.0609999 C108.280948,67.0609999 109.050948,67.2145999 109.810948,67.5217999 C110.500948,67.8288999 111.120948,68.2128999 111.580948,68.7503999 L110.810948,69.5182999 C109.970948,68.6735999 108.820948,68.2128999 107.430948,68.2128999 C106.510948,68.2128999 105.670948,68.4431999 104.980948,68.8271999 C104.210948,69.2110999 103.670948,69.7485999 103.210948,70.5164999 C102.750948,71.2075999 102.600948,71.9754999 102.600948,72.8969999 C102.600948,73.7416999 102.830948,74.5862999 103.210948,75.2773999 C103.670948,75.9684999 104.210948,76.5827999 104.900948,76.9667999 C105.670948,77.3506999 106.440948,77.5810999 107.360948,77.5810999 C108.510948,77.5810999 109.510948,77.2738999 110.270948,76.7363999 L110.350948,72.8201999 Z M114.800948,67.2145999 L115.950948,67.2145999 L115.950948,78.4257999 L114.800948,78.4257999 L114.800948,67.2145999 Z M121.780948,68.2128999 L117.870948,68.2128999 L117.870948,67.2145999 L126.930948,67.2145999 L126.930948,68.2128999 L123.010948,68.2128999 L123.010948,78.3489999 L121.860948,78.3489999 L121.780948,68.2128999 Z M132.760948,67.2145999 L131.530948,67.2145999 L126.390948,78.4257999 L127.620948,78.4257999 L132.070948,68.4431999 L136.520948,78.4257999 L137.820948,78.4257999 L132.760948,67.2145999 Z M139.670948,67.2145999 L140.890948,67.2145999 L140.890948,77.3506999 L147.110948,77.3506999 L147.110948,78.3489999 L139.670948,78.3489999 L139.670948,67.2145999 Z M86.4109477,82.1883999 L85.2509477,82.1883999 L80.1109477,93.3992999 L81.3409477,93.3992999 L85.7909477,83.4170999 L90.2409477,93.3992999 L91.4709477,93.3992999 L86.4109477,82.1883999 Z M94.9209477,83.1866999 L91.0109477,83.1866999 L91.0109477,82.1883999 L100.070948,82.1883999 L100.070948,83.1866999 L96.1509477,83.1866999 L96.1509477,93.3232999 L95.0009477,93.3232999 L94.9209477,83.1866999 Z M101.910948,82.1883999 L109.580948,82.1883999 L109.580948,83.1866999 L101.910948,83.1866999 L101.910948,82.1883999 Z M101.910948,87.1796999 L108.890948,87.1796999 L108.890948,88.1782999 L101.910948,88.1782999 L101.910948,87.1796999 Z M101.910948,92.3242999 L109.810948,92.3242999 L109.810948,93.3232999 L101.910948,93.3232999 L101.910948,92.3242999 Z M120.480948,87.7942999 L121.630948,87.7942999 L121.630948,92.0942999 C121.090948,92.5552999 120.480948,92.9392999 119.790948,93.1692999 C119.100948,93.3992999 118.330948,93.5532999 117.560948,93.5532999 C116.410948,93.5532999 115.420948,93.3232999 114.490948,92.7852999 C113.650948,92.3242999 112.880948,91.6332999 112.350948,90.7122999 C111.880948,89.8672999 111.580948,88.8692999 111.580948,87.7942999 C111.580948,86.7189999 111.810948,85.7206999 112.350948,84.8759999 C112.810948,84.0313999 113.570948,83.3402999 114.490948,82.8026999 C115.340948,82.3419999 116.410948,82.0348999 117.560948,82.0348999 C118.410948,82.0348999 119.180948,82.1883999 119.940948,82.4955999 C120.630948,82.8026999 121.250948,83.1866999 121.710948,83.7241999 L120.940948,84.4920999 C120.100948,83.6473999 118.950948,83.1866999 117.560948,83.1866999 C116.640948,83.1866999 115.800948,83.4170999 115.110948,83.8009999 C114.340948,84.1848999 113.800948,84.7224999 113.340948,85.4903999 C112.880948,86.1814999 112.730948,86.9492999 112.730948,87.8712999 C112.730948,88.7152999 112.960948,89.5602999 113.340948,90.2512999 C113.800948,90.9422999 114.340948,91.5562999 115.030948,91.9402999 C115.800948,92.3242999 116.570948,92.5552999 117.490948,92.5552999 C118.640948,92.5552999 119.640948,92.2472999 120.400948,91.7102999 L120.480948,87.7942999 Z M124.930948,82.1883999 L126.080948,82.1883999 L126.080948,93.3992999 L124.930948,93.3992999 L124.930948,82.1883999 Z M137.360948,83.1866999 L137.360948,82.1883999 L129.690948,82.1883999 L129.690948,83.1866999 L137.360948,83.1866999 Z M129.690948,88.1782999 L129.690948,87.1796999 L136.670948,87.1796999 L136.670948,88.1782999 L130.920948,88.1782999 L129.690948,88.1782999 Z M129.690948,92.3242999 L129.690948,93.3232999 L137.590948,93.3232999 L137.590948,92.3242999 L129.690948,92.3242999 Z M141.050948,93.0152999 C140.280948,92.7082999 139.740948,92.4012999 139.280948,91.9402999 L139.740948,91.0192999 C140.130948,91.4032999 140.660948,91.7872999 141.360948,92.0172999 C142.050948,92.2472999 142.740948,92.4012999 143.430948,92.4012999 C144.420948,92.4012999 145.190948,92.2472999 145.650948,91.8642999 C146.110948,91.4802999 146.420948,91.0192999 146.420948,90.4052999 C146.420948,89.9442999 146.270948,89.5602999 145.960948,89.3302999 C145.650948,89.0222999 145.350948,88.8692999 144.960948,88.7152999 C144.580948,88.5622999 144.040948,88.4082999 143.270948,88.2542999 C142.430948,88.0242999 141.740948,87.7942999 141.280948,87.6402999 C140.820948,87.4102999 140.360948,87.1796999 139.970948,86.7189999 C139.590948,86.3349999 139.440948,85.7974999 139.440948,85.0295999 C139.440948,84.4920999 139.590948,83.9545999 139.900948,83.4937999 C140.200948,83.0330999 140.660948,82.6491999 141.280948,82.4187999 C141.890948,82.1115999 142.660948,81.9580999 143.580948,81.9580999 C144.190948,81.9580999 144.890948,82.0348999 145.420948,82.1883999 C146.040948,82.3419999 146.570948,82.6491999 147.030948,82.9562999 L146.650948,83.8777999 C146.190948,83.5705999 145.730948,83.3402999 145.120948,83.1866999 C144.580948,83.0330999 144.040948,82.9562999 143.580948,82.9562999 C142.580948,82.9562999 141.820948,83.1098999 141.360948,83.4937999 C140.890948,83.8777999 140.590948,84.3384999 140.590948,84.9527999 C140.590948,85.4135999 140.740948,85.7974999 141.050948,86.0278999 C141.360948,86.3349999 141.660948,86.4885999 142.050948,86.6421999 C142.510948,86.7957999 142.970948,86.9492999 143.730948,87.1028999 C144.580948,87.3332999 145.190948,87.4872999 145.730948,87.7172999 C146.190948,87.9472999 146.650948,88.1782999 147.030948,88.5622999 C147.420948,88.9462999 147.570948,89.4832999 147.570948,90.1742999 C147.570948,90.7122999 147.420948,91.2492999 147.110948,91.7102999 C146.800948,92.1712999 146.340948,92.5552999 145.730948,92.7852999 C145.120948,93.0922999 144.350948,93.2462999 143.430948,93.2462999 C142.660948,93.4762999 141.890948,93.3232999 141.050948,93.0152999 Z M52.2509477,93.0152999 C51.4909477,92.7082999 50.9509477,92.4012999 50.4909477,91.9402999 L50.9509477,91.0192999 C51.3309477,91.4032999 51.8709477,91.7872999 52.5609477,92.0172999 C53.2509477,92.2472999 53.9409477,92.4012999 54.6309477,92.4012999 C55.6309477,92.4012999 56.4009477,92.2472999 56.8609477,91.8642999 C57.3209477,91.4802999 57.6309477,91.0192999 57.6309477,90.4052999 C57.6309477,89.9442999 57.4709477,89.5602999 57.1709477,89.3302999 C56.8609477,89.0222999 56.5509477,88.8692999 56.1709477,88.7152999 C55.7809477,88.5622999 55.2509477,88.4082999 54.4809477,88.2542999 C53.6409477,88.0242999 52.9409477,87.7942999 52.4809477,87.6402999 C52.0209477,87.4102999 51.5609477,87.1796999 51.1809477,86.7189999 C50.8009477,86.3349999 50.6409477,85.7974999 50.6409477,85.0295999 C50.6409477,84.4920999 50.8009477,83.9545999 51.1009477,83.4937999 C51.4109477,83.0330999 51.8709477,82.6491999 52.4809477,82.4187999 C53.1009477,82.1115999 53.8709477,81.9580999 54.7909477,81.9580999 C55.4009477,81.9580999 56.0909477,82.0348999 56.6309477,82.1883999 C57.2409477,82.3419999 57.7809477,82.6491999 58.2409477,82.9562999 L57.8609477,83.8777999 C57.4009477,83.5705999 56.9409477,83.3402999 56.3209477,83.1866999 C55.7809477,83.0330999 55.2509477,82.9562999 54.7909477,82.9562999 C53.7909477,82.9562999 53.0209477,83.1098999 52.5609477,83.4937999 C52.1009477,83.8777999 51.7909477,84.3384999 51.7909477,84.9527999 C51.7909477,85.4135999 51.9509477,85.7974999 52.2509477,86.0278999 C52.5609477,86.3349999 52.8709477,86.4885999 53.2509477,86.6421999 C53.7109477,86.7957999 54.1709477,86.9492999 54.9409477,87.1028999 C55.7809477,87.3332999 56.4009477,87.4872999 56.9409477,87.7172999 C57.4009477,87.9472999 57.8609477,88.1782999 58.2409477,88.5622999 C58.6209477,88.9462999 58.7809477,89.4832999 58.7809477,90.1742999 C58.7809477,90.7122999 58.6209477,91.2492999 58.3209477,91.7102999 C58.0109477,92.1712999 57.5509477,92.5552999 56.9409477,92.7852999 C56.3209477,93.0922999 55.5509477,93.2462999 54.6309477,93.2462999 C53.7909477,93.4762999 53.0209477,93.3232999 52.2509477,93.0152999 Z" id="Shape"></path>
                <path d="M52.2509477,32.2753999 L44.0409477,14.8442999 L39.1309477,45.7133999 L42.5809477,45.7133999 L52.2509477,32.2753999 Z M58.6209477,37.2666999 L53.4009477,33.5039999 L44.8109477,45.6365999 L57.0109477,43.7936999 L58.6209477,37.2666999 Z M23.4009477,18.9140999 L37.7509477,44.2544999 L42.6609477,13.3852999 L23.4009477,18.9140999 Z M56.6309477,31.0467999 L61.1609477,30.6627999 L61.1609477,28.0519999 L56.6309477,31.0467999 Z M61.5409477,32.1217999 L55.0209477,32.7360999 L70.6009477,44.1008999 L61.5409477,32.1217999 Z M55.5509477,49.9367999 L56.5509477,45.4830999 L44.3509477,47.1723999 L47.0309477,50.4742999 L55.5509477,49.9367999 Z M71.7509477,46.7884999 L69.2109477,52.9315999 L73.5909477,48.1706999 L71.7509477,46.7884999 Z M58.2409477,51.0118999 L69.9009477,45.4062999 L60.0009477,38.2648999 C59.0109477,42.3346999 57.9309477,46.2509999 57.0909477,50.3975999 L58.2409477,51.0118999 Z M66.3009477,55.6191999 L69.8309477,47.2491999 L60.0009477,52.0100999 L66.3009477,55.6191999 Z M22.3209477,20.1427999 L11.9609477,41.0292999 L36.6709477,45.3294999 L22.3209477,20.1427999 Z M4.67094768,52.1636999 L21.4009477,18.2229999 L17.6409477,11.8495999 L4.67094768,52.1636999 Z M56.1709477,10.6976999 L50.8009477,16.0728999 L58.1609477,21.0641999 L61.9209477,15.7657999 L56.1709477,10.6976999 Z M51.7209477,7.62619992 L50.8009477,13.9228999 L55.3209477,9.39229992 L55.9409477,2.94209992 L51.7209477,7.62619992 Z M49.0309477,14.8442999 L50.1009477,8.16369992 L18.8709477,10.7744999 L22.7109477,17.3015999 L43.5009477,11.3119999 C43.8109477,11.2351999 44.0409477,11.3887999 44.2709477,11.5423999 L49.0309477,14.8442999 Z M45.5809477,14.3835999 L53.4009477,31.2770999 L60.9309477,26.2090999 L57.9309477,22.8303999 C57.9309477,22.8303999 46.5709477,15.0746999 45.5809477,14.3835999 Z M38.2109477,59.0746999 L13.0409477,85.3364999 L54.7909477,75.3538999 L38.2109477,59.0746999 Z M14.9609477,43.1025999 L37.4409477,56.6941999 L37.4409477,47.0188999 L14.9609477,43.1025999 Z M35.6809477,57.3852999 L11.1909477,42.5650999 L2.14094768,60.9175999 L35.6809477,57.3852999 Z M64.0709477,102.6903 L55.4809477,106.9143 L63.4609477,106.9143 L64.0709477,102.6903 Z M14.5709477,97.6992999 L6.44094768,100.9243 L18.4909477,105.9923 L14.5709477,97.6992999 Z M20.6309477,106.9143 L49.0309477,106.9143 L12.2709477,88.5612999 L20.6309477,106.9143 Z M19.4809477,108.4503 L3.90094768,101.6153 C3.60094768,101.5393 3.44094768,101.1553 3.44094768,100.8483 C3.44094768,100.3873 3.90094768,100.0803 3.90094768,100.0803 L13.7309477,96.1632999 L9.97094768,87.4092999 C9.74094768,86.7954999 9.66094768,86.4114999 10.2009477,85.8739999 L36.2909477,58.7674999 L1.14094768,62.4533999 C0.530947676,62.5301999 -0.239052324,62.4533999 0.0709476763,61.5318999 C5.59094768,44.4079999 11.0409477,27.0536999 16.5709477,9.77629992 C16.7209477,9.46909992 16.8709477,9.31549992 17.3309477,9.16199992 L50.7209477,6.39759992 L56.4009477,0.254399921 C56.7009477,-0.0527000795 57.0109477,-0.0527000795 57.3209477,0.100899921 C57.6309477,0.254399921 57.7809477,0.561599921 57.7809477,0.868799921 L57.0109477,9.39229992 L63.4609477,15.0746999 C63.7709477,15.3817999 63.7709477,15.8425999 63.6109477,16.1496999 L59.4709477,22.1392999 L62.5409477,25.6715999 C62.6909477,25.8250999 62.6909477,25.9786999 62.6909477,26.1322999 L62.6909477,31.0467999 L75.2009477,47.4027999 C75.5109477,47.7098999 75.3509477,48.1706999 75.2009477,48.4777999 L67.3709477,57.3085999 C67.0709477,57.6156999 66.7609477,57.6156999 66.4509477,57.4620999 L56.0909477,51.6261999 L46.8009477,52.0868999 C46.5009477,52.0868999 46.3409477,51.9332999 46.1909477,51.7797999 L42.5109477,47.3259999 L38.9809477,47.3259999 L38.9809477,57.6924999 L57.0109477,75.1235999 C57.3209477,75.4306999 57.3209477,75.8914999 57.0109477,76.1985999 C56.8609477,76.3521999 56.7809477,76.4289999 56.5509477,76.5057999 L12.6509477,87.0257999 L52.0209477,106.9143 L64.7609477,100.4643 C64.9909477,100.3873 65.4509477,100.3103 65.6809477,100.4643 C65.9909477,100.7713 65.9909477,101.2313 65.9909477,101.2313 L65.0709477,107.9123 C64.9209477,108.2193 64.6109477,108.5263 64.3009477,108.5263 C49.3409477,108.4503 34.4509477,108.4503 19.4809477,108.4503 Z" id="Shape"></path>
            </g>
            <g id="Group-9" transform="translate(347.000000, 36.000000)">
                <path d="M136.751,4.7085 C140.377,4.7085 143.485,5.6676 145.816,7.6732 C148.233,9.5916 149.787,12.2947 150.478,15.6083 L143.139,15.6083 C142.621,14.3003 141.758,13.1667 140.636,12.4691 C139.513,11.6843 138.132,11.3355 136.664,11.3355 C134.592,11.3355 132.952,12.1203 131.743,13.6027 C130.535,15.0851 129.844,17.0906 129.844,19.6194 C129.844,22.1482 130.448,24.1537 131.743,25.6361 C132.952,27.1185 134.679,27.9033 136.664,27.9033 C138.218,27.9033 139.513,27.5545 140.636,26.7697 C141.758,25.9849 142.621,24.9385 143.139,23.6305 L150.478,23.6305 C149.787,26.9441 148.233,29.56 145.816,31.4784 C143.398,33.3968 140.377,34.4432 136.751,34.4432 C133.988,34.4432 131.484,33.8328 129.412,32.612 C127.254,31.3912 125.7,29.6472 124.491,27.3801 C123.369,25.1129 122.765,22.5842 122.765,19.7066 C122.765,16.8291 123.369,14.3003 124.491,12.0331 C125.614,9.766 127.254,8.022 129.412,6.8012 C131.484,5.3189 133.902,4.7085 136.751,4.7085 Z M104.203,4.7085 C107.829,4.7085 110.765,5.5804 113.096,7.4116 C115.426,9.1556 116.894,11.5971 117.412,14.6491 L110.074,14.6491 C109.556,13.6027 108.865,12.8179 107.829,12.1203 C106.793,11.5099 105.585,11.1612 104.203,11.1612 C102.045,11.1612 100.232,11.9459 98.937,13.4283 C97.642,14.9107 96.951,16.9163 96.951,19.5322 C96.951,22.3226 97.642,24.4153 99.023,25.8977 C100.405,27.3801 102.39,28.0777 104.98,28.0777 C106.621,28.0777 108.088,27.6417 109.297,26.6825 C110.506,25.7233 111.455,24.4153 111.973,22.7586 L103.167,22.7586 L103.167,17.701 L117.757,17.701 L117.757,24.6769 C117.239,26.4209 116.376,27.9905 115.167,29.3856 C113.959,30.868 112.405,32.0016 110.592,32.9608 C108.693,33.8328 106.621,34.356 104.203,34.356 C101.268,34.356 98.764,33.7456 96.606,32.5248 C94.448,31.304 92.721,29.56 91.599,27.2929 C90.39,25.0257 89.786,22.497 89.786,19.6194 C89.786,16.7419 90.39,14.2131 91.599,11.9459 C92.807,9.6788 94.448,7.9348 96.606,6.714 C98.851,5.3189 101.354,4.7085 104.203,4.7085 Z M84.174,34.0944 L77.181,34.0944 L65.526,16.2187 L65.526,34.0944 L58.533,34.0944 L58.533,4.9701 L65.526,4.9701 L77.181,23.0201 L77.181,4.9701 L84.174,4.9701 L84.174,34.0944 Z" id="Shape" fill="#9D60FF" fill-rule="nonzero"></path>
                <path d="M320.294,11.1615 C322.798,11.1615 324.87,11.8591 326.424,13.167 C327.978,14.475 328.927,16.3062 329.186,18.5734 L325.647,18.5734 C325.474,17.2654 324.956,16.1318 324.006,15.2598 C323.057,14.3878 321.848,13.9518 320.208,13.9518 C318.913,13.9518 317.877,14.3006 317.1,14.911 C316.323,15.5214 315.977,16.3934 315.977,17.527 C315.977,18.3118 316.236,19.0093 316.754,19.5325 C317.272,20.0557 317.877,20.4045 318.654,20.6661 C319.431,20.9277 320.467,21.1893 321.762,21.5381 C323.402,21.8869 324.783,22.3229 325.733,22.6717 C326.769,23.1077 327.632,23.7181 328.323,24.5901 C329.014,25.462 329.445,26.6828 329.445,28.1652 C329.445,29.9964 328.755,31.4787 327.373,32.6123 C325.992,33.7459 324.179,34.3563 321.934,34.3563 C319.258,34.3563 317.1,33.7459 315.373,32.4379 C313.646,31.1299 312.697,29.386 312.438,27.0316 L316.064,27.0316 C316.236,28.4268 316.754,29.4732 317.877,30.3452 C318.913,31.2171 320.294,31.6531 322.021,31.6531 C323.316,31.6531 324.265,31.3043 325.042,30.6939 C325.733,29.9964 326.165,29.2116 326.165,28.078 C326.165,27.206 325.906,26.5084 325.388,25.9852 C324.87,25.462 324.265,25.026 323.488,24.7644 C322.711,24.5029 321.675,24.2413 320.38,23.8925 C318.74,23.5437 317.359,23.1077 316.409,22.7589 C315.459,22.4101 314.596,21.7997 313.905,20.9277 C313.215,20.0557 312.869,18.9221 312.869,17.527 C312.869,15.6086 313.56,14.1262 314.941,12.9055 C315.977,11.7719 317.877,11.1615 320.294,11.1615 Z M305.445,21.7997 C305.531,20.1429 305.272,18.7478 304.668,17.6142 C304.064,16.4806 303.2,15.6958 302.078,15.0854 C300.956,14.475 299.833,14.3006 298.538,14.3006 C296.466,14.3006 294.826,14.911 293.445,16.219 C292.063,17.527 291.286,19.3581 291.2,21.7997 L305.445,21.7997 Z M309.244,21.5381 C309.244,22.3229 309.157,23.0205 309.071,23.6309 L291.2,23.6309 C291.286,26.2468 291.977,28.1652 293.358,29.4732 C294.74,30.7811 296.38,31.3915 298.366,31.3915 C300.179,31.3915 301.646,30.9555 302.855,29.9964 C304.064,29.0372 304.841,27.8164 305.1,26.334 L309.071,26.334 C308.812,27.9036 308.208,29.2988 307.258,30.5196 C306.308,31.7403 305.1,32.6995 303.632,33.3971 C302.164,34.0947 300.438,34.4435 298.538,34.4435 C296.38,34.4435 294.481,34.0075 292.84,33.0483 C291.2,32.0891 289.905,30.7811 288.955,29.0372 C288.006,27.2932 287.574,25.2876 287.574,22.8461 C287.574,20.4917 288.006,18.399 288.955,16.655 C289.905,14.911 291.2,13.5158 292.84,12.6439 C294.481,11.6847 296.38,11.2487 298.538,11.2487 C300.697,11.2487 302.596,11.6847 304.236,12.6439 C305.877,13.603 307.085,14.8238 307.949,16.3934 C308.812,17.8758 309.244,19.6197 309.244,21.5381 Z M277.473,16.0446 C278.164,14.475 279.286,13.2542 280.667,12.3823 C282.049,11.5103 283.775,11.0743 285.761,11.0743 L285.761,15.1726 L284.639,15.1726 C282.567,15.1726 280.84,15.6958 279.545,16.8294 C278.25,17.8758 277.559,19.7069 277.559,22.2357 L277.559,34.0947 L273.847,34.0947 L273.847,11.5103 L277.559,11.5103 L277.559,16.0446 L277.473,16.0446 Z M268.581,11.5103 L268.581,34.0947 L264.868,34.0947 L264.868,28.7756 C264.264,30.6068 263.314,32.0019 261.847,32.9611 C260.379,33.9203 258.739,34.4435 256.753,34.4435 C254.163,34.4435 252.091,33.5715 250.451,31.9147 C248.811,30.258 248.034,27.8164 248.034,24.6773 L248.034,11.5103 L251.746,11.5103 L251.746,24.3285 C251.746,26.5956 252.35,28.3396 253.473,29.5604 C254.595,30.7811 256.149,31.3915 258.135,31.3915 C260.206,31.3915 261.76,30.6939 263.055,29.386 C264.264,28.078 264.868,26.0724 264.868,23.5437 L264.868,11.5103 L268.581,11.5103 Z M244.926,30.7811 L244.926,34.0947 L242.163,34.0947 C239.918,34.0947 238.192,33.5715 237.069,32.4379 C235.947,31.3043 235.343,29.4732 235.343,26.9444 L235.343,14.7366 L231.976,14.7366 L231.976,11.5103 L235.343,11.5103 L235.343,5.8424 L239.055,5.8424 L239.055,11.5103 L244.839,11.5103 L244.839,14.7366 L239.055,14.7366 L239.055,27.0316 C239.055,28.514 239.314,29.4732 239.832,29.9964 C240.35,30.5195 241.3,30.7811 242.595,30.7811 L244.926,30.7811 Z M220.58,11.0743 C223.17,11.0743 225.328,11.9463 226.882,13.603 C228.522,15.2598 229.299,17.7014 229.299,20.9277 L229.299,34.0947 L225.587,34.0947 L225.587,21.2765 C225.587,19.0093 224.983,17.2654 223.86,16.1318 C222.738,14.911 221.184,14.3006 219.198,14.3006 C217.126,14.3006 215.572,14.9982 214.277,16.3062 C213.069,17.6142 212.464,19.6197 212.464,22.1485 L212.464,34.0947 L208.752,34.0947 L208.752,11.5103 L212.464,11.5103 L212.464,16.8294 C213.069,14.9982 214.018,13.603 215.486,12.5567 C217.04,11.5975 218.68,11.0743 220.58,11.0743 Z M200.982,21.7997 C201.069,20.1429 200.81,18.7478 200.205,17.6142 C199.601,16.4806 198.738,15.6958 197.615,15.0854 C196.493,14.475 195.371,14.3006 194.076,14.3006 C192.004,14.3006 190.363,14.911 188.982,16.219 C187.601,17.527 186.824,19.3581 186.737,21.7997 L200.982,21.7997 Z M204.781,21.5381 C204.781,22.3229 204.695,23.0205 204.608,23.6309 L186.737,23.6309 C186.824,26.2468 187.514,28.1652 188.896,29.4732 C190.277,30.7811 191.917,31.3915 193.903,31.3915 C195.716,31.3915 197.184,30.9555 198.392,29.9964 C199.601,29.0372 200.378,27.8164 200.637,26.334 L204.608,26.334 C204.349,27.9036 203.745,29.2988 202.795,30.5196 C201.846,31.7403 200.637,32.6995 199.169,33.3971 C197.702,34.0947 195.975,34.4435 194.076,34.4435 C191.917,34.4435 190.018,34.0075 188.378,33.0483 C186.737,32.0891 185.442,30.7811 184.493,29.0372 C183.543,27.2932 183.111,25.2876 183.111,22.8461 C183.111,20.4917 183.543,18.399 184.493,16.655 C185.442,14.911 186.737,13.5158 188.378,12.6439 C190.018,11.6847 191.917,11.2487 194.076,11.2487 C196.234,11.2487 198.133,11.6847 199.774,12.6439 C201.414,13.603 202.623,14.8238 203.486,16.3934 C204.349,17.8758 204.781,19.6197 204.781,21.5381 Z M159.543,5.0576 L168.262,29.9092 L177.154,5.0576 L181.212,5.0576 L170.679,34.0947 L166.017,34.0947 L155.485,5.0576 L159.543,5.0576 Z" id="Shape" fill="#9D60FF" fill-rule="nonzero"></path>
                <polygon id="Path" fill="#9D60FF" points="1.13686838e-13 0 11.136 6.8015 11.136 36.9721 1.13686838e-13 30.2578"></polygon>
                <polygon id="Path" stroke="#9D60FF" stroke-width="0.5669" points="1.13686838e-13 0 11.136 6.8015 11.136 36.9721 1.13686838e-13 30.2578"></polygon>
                <polygon id="Path" fill="#9D60FF" points="17.007 0 28.144 6.8015 28.144 36.9721 17.007 30.2578"></polygon>
                <polygon id="Path" stroke="#9D60FF" stroke-width="0.5669" points="17.007 0 28.144 6.8015 28.144 36.9721 17.007 30.2578"></polygon>
                <polygon id="Path" fill="#9D60FF" points="33.928 0 45.065 6.8015 45.065 36.9721 33.928 30.2578"></polygon>
                <polygon id="Path" stroke="#9D60FF" stroke-width="0.5669" points="33.928 0 45.065 6.8015 45.065 36.9721 33.928 30.2578"></polygon>
            </g>
            <g id="Exnetwork_logo-2" transform="translate(788.295400, 4.000000)" fill="#9D60FF" fill-rule="nonzero">
                <g id="Exnetwork_logo">
                    <path d="M64.0231214,0.0585644553 C64.0231214,0.15617185 64.4178899,0.780860633 64.7733861,1.23961288 C64.9509297,1.46411159 65.4054248,2.14736254 65.7805572,2.75253033 C66.1655077,3.35769812 66.6789113,4.11902416 66.9255905,4.4411521 C67.1726787,4.76323959 67.3796765,5.08536754 67.3796765,5.16342239 C67.3796765,5.24151769 67.5478111,5.52457776 67.755218,5.79789108 C68.317712,6.52994857 69.0581587,7.61337423 69.0581587,7.69146953 C69.0581587,7.73049696 69.2557475,8.04283771 69.5024266,8.39424633 C70.1839648,9.36054927 70.4600983,9.780266 70.6773232,10.1511681 C70.7959583,10.3463861 71.1514545,10.8929723 71.4770874,11.3615037 C71.8031294,11.8397818 72.1385804,12.3375938 72.2175341,12.4839972 C72.2968969,12.6206539 72.7309377,13.2746161 73.1854329,13.9188315 C73.6297009,14.5727937 73.9950151,15.1291671 73.9950151,15.1584478 C73.9950151,15.2267559 74.9919591,16.7104048 75.2390473,17.0129988 C75.3670914,17.1594022 75.5843164,17.5107704 75.7225876,17.7938305 C75.870677,18.0768905 76.0682658,18.3892313 76.1570376,18.4966073 C76.2560365,18.6039832 76.5321699,18.9748853 76.759213,19.326294 C76.9964832,19.6776622 77.2235262,19.970469 77.2726166,19.9900029 C77.312298,20.0095368 77.3515703,20.0876321 77.3515703,20.165687 C77.3515703,20.3121308 77.9341095,21.2100852 78.4475132,21.8640879 C78.5956025,22.0495187 78.8426908,22.430208 79.0005982,22.7132681 C79.1486875,22.9865409 79.5831374,23.6502903 79.9582698,24.177383 C80.3235841,24.7044353 80.6594441,25.2022473 80.6888984,25.2803426 C80.7482159,25.44628 81.3008918,26.2759263 81.3998908,26.3540215 C81.4690264,26.4028362 82.1305194,27.4179537 82.3375172,27.7693219 C82.544924,28.140224 83.4138239,29.4286549 83.7398659,29.8483716 C83.9174094,30.0826171 84.0654988,30.3168625 84.0654988,30.3656771 C84.0654988,30.4827999 85.5562101,32.6399449 85.6650272,32.6789723 C85.7042995,32.6985063 85.7439809,32.7668144 85.7439809,32.8351629 C85.7439809,32.9620324 86.4942456,34.1626212 86.6226988,34.26021 C86.7707881,34.3578393 87.323464,35.226513 87.323464,35.3534229 C87.323464,35.421731 87.422463,35.5876683 87.5308709,35.724325 C87.639688,35.8609816 87.9555028,36.3002323 88.2320453,36.7004151 C88.5184059,37.1005979 88.8047664,37.491034 88.8739021,37.5593421 C88.9426286,37.6276906 89.0019462,37.7448133 89.0019462,37.8033747 C89.0019462,37.9204974 89.6634391,38.9453617 89.7918923,39.042991 C89.8315737,39.0722717 90.0287534,39.3553317 90.2361603,39.6676725 L90.6112927,40.2435394 L90.5225209,40.3704493 C90.2165241,40.780217 89.2191711,42.2345448 89.1009451,42.4492968 C88.6071776,43.288892 88.3997708,43.6306348 88.2811357,43.7475149 C88.0246384,44.0014965 87.323464,45.0849626 87.323464,45.231366 C87.323464,45.3094208 87.2841917,45.3874757 87.2445103,45.4068883 C87.1262843,45.4461179 86.1387494,46.8709224 85.8131165,47.4666467 C85.6552091,47.7497473 85.3590304,48.1889575 85.1516236,48.4619473 C84.9442167,48.7256352 84.4999487,49.3893036 84.1640886,49.9263858 C83.8286376,50.4630635 83.315234,51.2343101 83.0190554,51.643997 C82.7326948,52.0540883 82.4463342,52.4932986 82.3968347,52.6299957 C82.3477443,52.7569865 82.199655,52.991151 82.0712018,53.156967 C81.8044774,53.4691865 80.975259,54.699056 80.649217,55.2361381 C80.431992,55.6167061 80.1558586,56.0365037 79.4743204,57.0026853 C79.2276412,57.3541344 79.0300524,57.6663538 79.0300524,57.7055834 C79.0300524,57.7836383 78.0032452,59.2771957 77.6776123,59.66747 C77.5589772,59.8138734 77.3716155,60.1260928 77.2627985,60.3505511 C77.1642087,60.5750093 76.8778481,61.0142196 76.640987,61.3268434 C76.4041258,61.6390628 75.9594488,62.2833187 75.6632701,62.7714649 C75.3773186,63.2592066 74.9625048,63.8743436 74.755098,64.1477378 C74.5476911,64.4207276 74.2416943,64.8894612 74.0739688,65.1919743 C73.9160614,65.4944874 73.6988365,65.8265239 73.5998375,65.9336976 C73.4026578,66.1581559 72.5730303,67.3981361 72.2572155,67.9445201 C72.1385804,68.1495658 71.7933113,68.6571246 71.4971327,69.0866285 C71.1907268,69.5064261 70.8454578,70.0333975 70.7170046,70.2578558 C70.5885514,70.4726077 70.2232371,71.0388087 69.8976043,71.5071379 C69.5715623,71.9758714 69.2164751,72.5125491 69.09784,72.7078885 C68.870797,73.1078691 68.643754,73.4399055 67.9033073,74.503959 C67.6169467,74.9136459 67.3796765,75.2748013 67.3796765,75.3043246 C67.3796765,75.3823795 66.4518682,76.7291291 66.0272364,77.2856238 C65.8496928,77.5197883 65.7016035,77.7737699 65.7016035,77.8421185 C65.7016035,77.910467 65.5535142,78.1737505 65.3657434,78.4079151 C64.871976,79.0424647 64.0231214,80.3309764 64.0231214,80.4381502 L64.0231214,80.5263158 L81.7750232,80.5263158 L99.5269249,80.5263158 L99.6848323,80.3406827 C99.9908291,79.9795274 100.750912,78.8180064 100.750912,78.7007219 C100.750912,78.6424841 100.790593,78.5741355 100.830275,78.5543185 C100.879365,78.5349059 101.106408,78.2420991 101.343678,77.89065 C101.580539,77.5392009 101.926218,77.0708718 102.103761,76.8367072 C102.281305,76.6021382 102.429394,76.37768 102.429394,76.3388548 C102.429394,76.2312766 104.976776,72.4344943 105.203819,72.1906234 C105.302818,72.0927515 105.499998,71.7708258 105.648087,71.4877253 C105.796176,71.2046248 105.983947,70.8924053 106.072719,70.7945334 C106.250262,70.5995985 107.366251,69.0182799 107.366251,68.9499314 C107.366251,68.8815828 108.087061,67.7981167 108.343558,67.476191 C108.48183,67.3002643 108.629919,67.1538608 108.659373,67.1538608 C108.699054,67.1538608 108.96537,67.5344288 109.271776,68.0128687 C109.567954,68.4811978 109.913223,68.969344 110.031858,69.1060411 C110.229447,69.3304994 110.515808,69.7600033 110.821805,70.2970854 C110.900758,70.4333781 111.256255,70.9607539 111.611751,71.4484956 C111.966838,71.9463481 112.302698,72.424788 112.352197,72.5125491 C112.737148,73.1078691 113.250551,73.8597031 113.339323,73.9571706 C113.408459,74.0158128 113.586002,74.2790963 113.744319,74.5427842 C113.902226,74.7967658 114.07977,75.0794619 114.129269,75.1676275 C114.188587,75.2553887 114.51422,75.7334241 114.869716,76.2312766 C115.225212,76.7194227 115.580708,77.2463941 115.659662,77.3830912 C115.946023,77.89065 116.271656,78.3885025 116.390291,78.505787 C116.567834,78.6813093 117.328326,79.8137114 117.40728,80.0086463 C117.446552,80.0968119 117.545142,80.2529216 117.624505,80.350389 L117.772594,80.5263158 L135.968764,80.5263158 C145.970112,80.5263158 154.174752,80.4967925 154.194388,80.4482609 C154.243887,80.3799124 153.424487,79.071988 152.950356,78.456851 C152.792448,78.2615117 152.545769,77.8809437 152.407498,77.6172558 C152.259409,77.3539723 151.874458,76.7586524 151.548416,76.2802125 C151.222783,75.8118834 150.916377,75.3528561 150.857469,75.265095 C150.304384,74.3575556 150.117022,74.0643444 149.800798,73.6449512 C149.593392,73.371557 149.346712,73.0006953 149.248122,72.8150622 C149.030898,72.3952646 147.954591,70.7654145 147.777047,70.5898922 C147.707912,70.5114329 147.529959,70.2186261 147.38187,69.93593 C147.243598,69.6427188 147.036601,69.3110868 146.937602,69.2035086 C146.829194,69.0866285 146.31579,68.3250881 145.802386,67.5150162 C145.279165,66.695238 144.82467,66.0117525 144.785397,65.9826336 C144.647126,65.8754598 144.094041,65.016452 144.094041,64.8894612 C144.094041,64.8211126 143.965997,64.6063607 143.80809,64.4207276 C143.482048,64.020747 142.692101,62.8398135 142.267879,62.1175027 C142.109562,61.8344022 141.774111,61.3365497 141.527023,61.0142196 C141.280344,60.6825875 140.993983,60.2530836 140.885575,60.048038 C140.312854,59.0135078 139.157594,57.724996 138.071469,56.9246304 C137.360885,56.4073654 135.514269,55.431073 134.714914,55.1483769 C133.786696,54.8260468 132.581936,54.6699371 131.061771,54.6602308 C129.768239,54.6602308 127.487582,54.7969279 126.460774,54.9433313 L125.967007,55.0116798 L126.687817,54.3379006 C127.082995,53.9670389 127.408628,53.6155899 127.408628,53.5670584 C127.408628,53.5181224 127.537081,53.3426001 127.694988,53.1961967 C128.050485,52.8447476 128.879703,51.6051718 128.988111,51.263429 C129.106746,50.9022737 129.264654,48.7450478 129.215563,48.237489 C129.1857,48.0130307 129.126382,47.8278021 129.077292,47.8278021 C129.027792,47.8278021 128.988111,47.856921 128.988111,47.8961507 C128.988111,47.9446822 128.919385,48.3935987 128.840022,48.9011575 L128.682114,49.8285139 L128.425617,50.31666 C127.902395,51.3317776 126.974178,52.2882529 125.039199,53.8303418 C124.574885,54.2016079 123.834439,54.8555701 123.380353,55.2846696 L122.57077,56.0656226 L122.146138,56.9440431 C121.909277,57.4321892 121.652371,57.9789776 121.573417,58.1447937 C121.494464,58.320316 121.405692,58.4667194 121.376238,58.4667194 C121.336556,58.4667194 121.070241,58.2228485 120.78388,57.9300417 C120.487702,57.6372349 120.201341,57.393364 120.142023,57.393364 L120.033206,57.393364 L120.122387,57.9591606 C120.250431,58.6911776 120.151842,60.3311385 119.954253,61.0045133 C119.757073,61.6487692 119.223624,62.7617586 119.105398,62.7617586 C119.055899,62.7617586 119.016626,62.8199964 119.016626,62.888345 C119.016626,63.0642717 118.048728,63.9718111 117.634323,64.186563 L117.288645,64.3624898 L115.856842,64.3527835 L114.425448,64.3426727 L113.507049,64.0793893 C112.608695,63.8254077 110.900758,63.0642717 110.772305,62.8689324 C110.742851,62.8102901 110.643852,62.7617586 110.55508,62.7617586 C110.278538,62.7617586 109.153141,61.9808056 108.945734,61.6390628 L108.748554,61.3171371 L108.886416,61.0437429 C109.261958,60.2923133 109.943087,58.7304073 110.160312,58.0764451 C110.298583,57.6760601 110.485945,56.9440431 110.574716,56.4660076 L110.742851,55.5875872 L110.693351,54.8555701 C110.654079,54.4551851 110.535444,53.772104 110.426627,53.3426001 C110.209402,52.5616471 109.459137,50.5119994 109.192822,50.0044406 C109.113868,49.8580372 109.044733,49.6626979 109.044733,49.584643 C109.044733,49.4968818 108.797644,48.9403871 108.501466,48.3450672 C108.205287,47.7396365 107.958608,47.2223714 107.958608,47.1835462 C107.958608,47.1443166 108.067016,46.8907394 108.195469,46.6173452 C108.323922,46.343951 108.511284,45.7874563 108.610283,45.3874757 L108.797644,44.6554586 L108.797644,42.0100866 L108.797644,39.3650785 L109.241912,39.7457678 C109.765134,40.2045119 110.249083,40.4679976 110.752669,40.5557588 L111.117983,40.6241073 L111.117983,40.5363462 C111.117983,40.380196 110.12063,39.433427 109.656726,39.1405798 C109.429683,38.9844296 109.113868,38.7501437 108.96537,38.6037403 C108.580419,38.2230914 107.040209,37.2372546 106.230626,36.8468185 C105.401408,36.4466357 104.552144,36.2416305 103.021751,36.0561997 L101.886536,35.9292898 L99.9118754,35.919543 L97.9372146,35.919543 L96.6931824,35.7731396 C96.0120533,35.6950443 95.2221072,35.5876683 94.9259285,35.529107 C94.1163462,35.3631696 92.9414496,34.9727336 92.6055896,34.7482349 C92.4476822,34.6408993 92.1715488,34.4651748 91.9935961,34.3480521 C91.8258706,34.2406761 91.4801925,33.8600272 91.2335133,33.4988719 L90.7794272,32.8449097 L90.4435672,31.9371681 C90.0782529,30.961078 89.8512098,30.1314317 89.9105274,29.9752411 C89.9203455,29.9166797 90.196888,30.102151 90.5028847,30.3852111 C90.8088815,30.6682712 91.1938319,30.961078 91.3419212,31.0391733 C91.4900106,31.1172686 91.9543238,31.3612608 92.3589104,31.5955467 C92.7639061,31.8200454 93.3660815,32.0835715 93.6917144,32.1811603 L94.2840717,32.3568848 L96.8019994,32.3470976 L99.3195181,32.3470976 L100.948501,32.1714135 C101.846855,32.0738248 103.663608,31.9761955 104.996412,31.9469148 L107.415341,31.8883535 L108.363194,31.9957295 C108.876598,32.0640376 109.567954,32.2006942 109.893587,32.3080702 C110.614398,32.5521029 112.006519,33.2255585 112.263017,33.4598444 C112.648376,33.8112126 113.270188,34.26021 113.358959,34.26021 C113.418277,34.26021 113.852727,34.6311121 114.336676,35.0898967 C114.820217,35.5388942 115.244848,35.919543 115.294348,35.919543 C115.412574,35.919543 115.373302,35.3046083 115.215394,34.7873027 L115.077123,34.3090246 L114.524038,33.6257818 C114.227859,33.2450925 113.862545,32.8253757 113.724274,32.6789723 L113.457958,32.4154462 L113.833091,31.9957295 C114.593174,31.156296 116.252019,29.5067502 117.239145,28.5989682 C117.802048,28.0914094 118.571949,27.3788858 118.957309,27.0079837 C119.342259,26.6468284 119.697755,26.3540215 119.757073,26.3540215 C119.806163,26.3540215 120.06307,26.1685503 120.309749,25.9343048 C121.020741,25.2900894 121.652371,24.7922773 121.771006,24.7922773 C121.830324,24.7922773 122.017685,24.6654079 122.195638,24.5092173 C123.627032,23.2793882 126.766771,21.9226492 128.800749,21.6688698 C129.215563,21.6200552 129.837375,21.5322132 130.192871,21.4833986 C131.703628,21.2393659 133.658243,21.073469 136.185989,20.9758398 C137.6767,20.9270252 138.940369,20.8977445 139.009504,20.9270252 C139.17723,20.9855865 139.286047,20.8977445 139.562589,20.4878149 C139.690633,20.2925969 139.976994,19.8728802 140.204037,19.5605394 C140.421262,19.2384115 140.66835,18.8675094 140.747304,18.7308527 C140.954711,18.3404571 141.813383,17.061773 142.02079,16.8372743 C142.119789,16.7298983 142.336605,16.398064 142.494922,16.09547 C142.662647,15.792876 142.968644,15.3243851 143.176051,15.0510718 C143.383458,14.7777585 143.788044,14.1628237 144.074405,13.6943328 C144.370584,13.2160547 144.864351,12.4742505 145.189984,12.0447466 C145.506208,11.6250298 145.772523,11.2053535 145.772523,11.1272582 C145.772523,11.0491629 145.871522,10.8734789 145.97993,10.7368222 C146.088747,10.6001655 146.404562,10.1609553 146.681104,9.76073206 C146.967465,9.36054927 147.253826,8.97011322 147.322552,8.90180511 C147.391688,8.83345656 147.451005,8.71633383 147.451005,8.65777247 C147.451005,8.53090299 148.083044,7.56455961 148.300269,7.3498481 C148.477812,7.16437682 149.129487,6.0906979 149.129487,5.97357517 C149.129487,5.91501381 149.169169,5.85645245 149.208441,5.83691851 C149.30744,5.79789108 150.70938,3.74812608 150.946241,3.29913272 C151.044831,3.09415581 151.212965,2.85013935 151.311555,2.74277145 C151.489099,2.55731635 153.078809,0.126889551 153.078809,0.0390429764 C153.078809,0.0195214974 145.11103,0 135.366179,0 L117.653959,0 L117.45637,0.429472232 C117.338144,0.663729818 117.190055,0.917509207 117.111101,0.985833493 C116.992466,1.10296431 116.074067,2.39138305 115.807751,2.82085462 C115.432619,3.40650061 114.919215,4.15809203 114.869716,4.19711945 C114.741263,4.29470825 114.07977,5.31961299 114.07977,5.41720178 C114.07977,5.47576314 114.000816,5.6124198 113.902226,5.71979578 C113.655138,5.97357517 112.707694,7.34006091 112.401288,7.86715362 C112.263017,8.10139907 111.907929,8.62849178 111.611751,9.02867458 C111.315572,9.43864457 110.979712,9.92666941 110.870895,10.1316342 C110.762487,10.3268522 110.643852,10.5123235 110.614398,10.5416042 C110.584943,10.5708848 110.367719,10.8734789 110.130448,11.224847 C109.903405,11.5762557 109.627272,11.9471578 109.528273,12.0545338 C109.429683,12.1618693 109.222276,12.493744 109.064369,12.7865912 C108.906461,13.0793981 108.738327,13.3234307 108.679418,13.3429242 C108.590237,13.3722049 107.830155,12.3570873 107.46484,11.7226591 C107.158844,11.1955664 106.872483,10.7661029 106.684712,10.5513509 C106.576304,10.4342282 106.319398,10.0633261 106.102173,9.73145138 C105.075366,8.11118626 104.868368,7.818339 104.453554,7.2717528 C104.216693,6.9496653 104.009286,6.63732455 104.009286,6.568976 C104.009286,6.51041463 103.851379,6.2468885 103.65379,5.99310911 C103.456201,5.73932972 102.873662,4.89989626 102.370486,4.12881134 C101.857082,3.35769812 101.353496,2.63539952 101.244679,2.50850982 C101.136271,2.39138305 100.938683,2.07903826 100.810229,1.80573707 C100.671958,1.5421988 100.474778,1.2103322 100.365961,1.08344251 C100.247735,0.946793933 100.03051,0.653970939 99.8824211,0.419713353 L99.6156967,0 L81.8241135,0 C72.0301724,0 64.0231214,0.0292822369 64.0231214,0.0585644553 Z M105.835858,38.2328382 C106.329625,38.4768708 107.040209,39.0527377 107.208343,39.3162639 C107.395705,39.628645 107.583475,40.8097404 107.593294,41.6784545 L107.593294,42.6058109 L107.474658,43.0450212 C107.218161,43.9137353 106.961255,43.855093 105.194001,42.507939 C104.947322,42.3227104 104.720279,42.1666007 104.680597,42.1666007 C104.641325,42.1666007 104.374601,42.0299036 104.08824,41.8539769 L103.574836,41.5417574 L102.666664,41.5025278 L101.767901,41.4637026 L100.741094,41.6295186 L99.7142866,41.8054453 L98.6776613,41.8054453 C97.5915365,41.8054453 96.7921813,41.6687482 96.2096421,41.3856477 C95.5182858,41.0341987 94.0668467,40.0581085 94.0079383,39.8824244 L93.9584388,39.7652613 L94.8175206,39.8531438 C95.2814247,39.8921712 96.5156388,39.9409858 97.5424461,39.9507325 L99.4181079,39.9604793 L99.8623759,39.8336098 C100.46496,39.6579257 101.8669,38.9844296 102.528393,38.5451789 C102.824572,38.3402142 103.298294,38.1157155 103.565018,38.0278734 L104.058786,37.8716828 L104.700233,37.9302442 L105.34209,37.9790588 L105.835858,38.2328382 Z" id="Shape"></path>
                    <path d="M33.7269833,6.35643686 C31.115915,6.57210411 28.741348,6.9641636 25.5982026,7.68955287 C24.8493836,7.85619745 22.7112772,8.56196953 22.0018547,8.86585321 C21.7555144,8.97364621 21.4008236,9.09130874 21.2135984,9.1305025 C21.0264141,9.15990798 20.2086002,9.52260262 19.4006661,9.92449101 C18.5926911,10.3263794 17.8832686,10.6596686 17.8340332,10.6596686 C17.7157621,10.6596686 15.9717839,11.6791126 15.5382592,12.0025729 C15.3707527,12.1300237 15.1934073,12.2280284 15.1441311,12.2280284 C15.0160619,12.2280284 14.1095753,12.845584 13.7351658,13.1788732 C13.5676593,13.3356889 13.2424853,13.5709733 13.0158636,13.7082124 C12.7991217,13.8356226 12.5133849,14.041461 12.3852749,14.1591235 C12.2572057,14.2767454 11.83352,14.6492283 11.4393918,14.9825175 C10.1190993,16.0901779 7.81348639,18.5211661 7.29124823,19.3543484 C7.15329929,19.579804 6.90699982,19.9032642 6.74933223,20.089526 C6.45375653,20.4228151 5.64578159,21.5892866 5.64578159,21.677503 C5.64578159,21.7069085 5.36992455,22.1578195 5.04475045,22.6871587 C4.70973745,23.2164573 4.32548904,23.8928239 4.18754011,24.1869193 C4.03974818,24.4809741 3.71459858,25.167129 3.45841937,25.7062565 C2.8278225,27.0393725 2.29576175,28.3136776 2.29576175,28.5195565 C2.29576175,28.607773 2.16767214,29.0488551 2.01002088,29.4997662 C1.57648809,30.7250892 1.34986645,31.4896722 1.07398083,32.6169093 C0.807950452,33.7441869 0.709418415,34.3225488 0.47294561,36.096747 C0.394122022,36.7437081 0.275885211,37.6259131 0.216767214,38.0572069 C0.157648809,38.4885414 0.0886776081,40.1745232 0.0591184054,41.7919463 L0,44.7523955 L0.118236403,46.1832726 C0.187208012,46.9773017 0.305444414,48.0458903 0.384268819,48.5751076 C0.463094448,49.0945773 0.571477647,49.8788588 0.620741624,50.3101933 C0.738980068,51.2707451 1.2710449,53.3880207 1.75384167,54.7701594 C1.95090166,55.3387736 2.1578169,55.9760277 2.21693612,56.1916949 C2.27605534,56.4073622 2.40414495,56.7700568 2.5026729,56.9954717 C2.6110561,57.2306343 2.68988173,57.4365539 2.68988173,57.4560492 C2.68988173,57.6030766 4.47327689,61.1219863 4.84768638,61.7100958 C5.84284566,63.2884064 6.70005601,64.543013 7.00551144,64.866717 C7.18285686,65.052735 7.3208058,65.2586546 7.3208058,65.3175468 C7.3208058,65.376439 7.67553746,65.8077735 8.10906209,66.268351 C8.54258672,66.7289285 8.89731838,67.1407676 8.89731838,67.1801645 C8.89731838,67.2682997 10.6610153,68.9737362 11.2620464,69.4542152 C11.5083459,69.6503871 12.0108654,70.0914692 12.3852749,70.4245147 C12.7596844,70.767714 13.1144161,71.0422734 13.1735312,71.0422734 C13.2326463,71.0422734 13.5972169,71.2969314 13.9913451,71.6104815 C14.3755935,71.9146901 15.1736887,72.4536551 15.7648809,72.7968544 C16.3461934,73.1396475 16.9373856,73.4925945 17.0753345,73.5807297 C17.3413526,73.7671539 17.9522635,74.0807041 18.9572617,74.5514354 C19.3119526,74.7179581 20.0312548,75.0611574 20.5534521,75.3060677 C21.0756495,75.5513841 21.6471639,75.776799 21.8245093,75.8157897 C22.0018547,75.8454389 22.1989188,75.9039249 22.248195,75.9433217 C22.4452591,76.0806015 26.1992337,77.3059651 26.6327992,77.3746049 C26.8790986,77.4038479 27.5195671,77.5411277 28.0614831,77.6686597 C29.3620978,77.9627145 31.5691583,78.3351568 33.3328552,78.550824 L34.7615391,78.7368421 L38.7520151,78.7368421 L42.742532,78.7368421 L43.9742335,78.6097162 C45.8068844,78.4135443 48.2898836,78.0212005 49.7383678,77.6979027 C50.4377065,77.5411277 51.1076508,77.4135956 51.2162463,77.4135956 C51.6102111,77.4135956 54.3789879,76.5119359 55.4726996,76.0314569 C55.6992805,75.9238264 55.97526,75.8454389 56.0736491,75.8454389 C56.3790229,75.8454389 59.9855363,74.0120642 61.0102532,73.3358194 C61.5324097,72.9926202 62.0051675,72.7087192 62.0741624,72.7087192 C62.1333592,72.7087192 62.202354,72.6693224 62.2219502,72.6201778 C62.2415464,72.5714395 62.6159151,72.2672309 63.069485,71.9244377 C63.5128485,71.5909861 63.8774191,71.2871837 63.8774191,71.2380392 C63.8774191,71.1893008 63.9660101,71.1206609 64.0741974,71.0910118 C64.3011864,71.0223719 66.8923728,68.4936633 67.4439236,67.8072647 C67.6313121,67.5623545 68.0354833,67.0818755 68.3208526,66.7289285 C68.6164283,66.3763877 68.9222104,65.9742962 69.0010033,65.8175212 C69.0797963,65.6704938 69.4737611,65.0823842 69.8681342,64.5040223 C70.252301,63.9354081 70.577271,63.3862893 70.577271,63.2884064 C70.577271,63.2002712 70.6168716,63.1023883 70.6560639,63.0824868 C70.7842556,63.0337485 72.1539468,60.3868493 72.1539468,60.1910836 C72.1539468,60.0830469 72.1931392,59.9656687 72.2327398,59.9067765 C72.4593206,59.6614601 73.8290119,56.0739106 73.8290119,55.7404589 L73.8290119,55.5544409 L62.2219502,55.5544409 L50.6250949,55.5544409 L50.4475045,55.8777387 C50.3491154,56.0544152 50.0927321,56.3976145 49.8759493,56.6425248 C49.6591666,56.8776874 49.3146005,57.2895265 49.1174139,57.5441844 C48.6050555,58.2106815 46.8316013,59.6911092 46.1122582,60.0635515 C45.7770819,60.2300743 45.2549254,60.494886 44.9593497,60.6419134 C44.663774,60.7986885 43.9938297,61.0533464 43.4814712,61.2202753 L42.5453454,61.5240777 L41.313644,61.6711051 C39.9146809,61.8473755 37.7174594,61.8770247 36.4858395,61.7299973 C36.0227573,61.6711051 35.2936162,61.5829699 34.8600915,61.5338254 C33.815656,61.416041 32.6431513,61.0435987 31.2637028,60.3868493 C30.1010779,59.8283889 29.4408908,59.4165498 28.7511869,58.7987911 C28.0220458,58.1420417 27.2239506,57.3090218 27.2239506,57.1912375 C27.2239506,57.1327514 27.1156,56.9755702 26.9973289,56.8386967 C26.7017532,56.5247404 25.9430545,55.2408907 25.7263126,54.7210149 C25.164678,53.3291285 24.5636468,50.8491583 24.415859,49.3004969 L24.3468641,48.594603 L49.59058,48.594603 L74.8439306,48.594603 L74.7847338,44.546476 L74.7255371,40.5078123 L74.5777492,39.0864799 C74.2625773,36.0477243 73.7008202,32.7541484 73.217856,31.1465542 C72.8532855,29.940889 72.3213309,28.3529119 72.252336,28.2548666 C72.2131436,28.1960557 72.1539468,28.0000056 72.1241443,27.8137844 C72.0751539,27.4804953 71.4150076,25.9121355 70.9124473,24.9515024 C70.7842556,24.6966414 70.6168716,24.3241178 70.5478767,24.1182795 C70.4788818,23.9124411 70.1535036,23.3145027 69.8285336,22.7851635 C69.5133617,22.2558243 69.0895944,21.5402639 68.9022059,21.1971864 C68.7152257,20.854109 68.4686405,20.4717972 68.3604532,20.344387 C68.2518577,20.2169362 67.9664884,19.8444532 67.7199031,19.5013758 C67.0895594,18.6093826 65.7590605,17.0311938 65.6508733,17.0311938 C65.5916765,17.0311938 65.5524841,16.9723829 65.5524841,16.8939547 C65.5524841,16.6782875 62.5473284,13.8944336 62.3203394,13.8944336 C62.2517527,13.8944336 62.202354,13.8552398 62.202354,13.8160054 C62.202354,13.7474062 60.6158801,12.5025066 60.2909101,12.3162448 C59.2857894,11.7281353 58.8816182,11.4830626 58.773431,11.3850578 C58.527254,11.1301968 54.9109425,9.3951518 53.9160282,9.04228607 C51.3048374,8.11105846 49.7677621,7.63074192 48.9990203,7.49350282 C48.5360606,7.40528638 47.6297373,7.22885352 46.9793891,7.09161442 C45.5211068,6.78773074 43.2548904,6.47405877 41.5700273,6.34664858 C40.1019061,6.22898605 35.106391,6.23881495 33.7269833,6.35643686 Z M48.5458587,17.5605331 C48.9304337,17.7173487 49.6889691,18.5603599 49.8563531,19.011271 C49.9943429,19.4033711 50.0237372,20.9815192 49.8959538,21.422642 L49.7971564,21.7461022 L49.9449442,21.8049538 C50.0237372,21.8343593 50.3393173,22.187225 50.634893,22.5793251 C50.9402668,22.9812135 51.2358425,23.3341199 51.3048374,23.3733136 C51.4922258,23.5007238 52.2507612,24.4515686 52.2507612,24.5691905 C52.2507612,24.6280015 52.3295542,24.7554523 52.4279434,24.853457 C52.6545242,25.0789126 52.9994986,25.627869 53.2950743,26.2552129 L53.5314532,26.7355294 L53.679241,27.6471399 C53.758034,28.147033 53.8372352,29.1860942 53.8568314,29.940889 L53.8764276,31.3230276 L54.6647655,32.1464216 L55.4531035,32.9698156 L56.0834472,34.1853097 C56.8223865,35.6262593 57.2955525,36.3418197 57.8671077,36.8809472 C58.3300675,37.3220294 58.5566483,37.6945529 58.5566483,38.0278015 C58.5566483,38.1552523 58.4582591,38.4199016 58.3300675,38.6159516 C58.0838905,39.0276689 56.4382197,40.5470061 56.0242504,40.7530069 C55.8764626,40.8313944 55.5910932,41.0271602 55.4135029,41.1843414 C55.2265226,41.3411164 54.7435585,41.6254235 54.3495936,41.8114416 L53.6204525,42.1546409 L52.2703574,42.0957487 L50.9206706,42.0466042 L49.59058,41.8016939 C47.4129546,41.3898548 43.8166475,41.2233321 41.8949973,41.4389993 C41.1070676,41.5271345 39.1165857,42.0466042 38.8998438,42.2232808 C38.8505676,42.2622715 38.5549919,42.3703082 38.2593754,42.4486957 C37.9539199,42.5368309 37.5105564,42.7330028 37.2740958,42.8897779 C37.0277555,43.0465529 36.5547936,43.3406077 36.2197806,43.5562749 C35.8749287,43.7621945 35.5990716,43.9681141 35.5990716,44.0071048 C35.5990716,44.0562493 35.5497954,44.0854923 35.4906802,44.0854923 C35.4315651,44.0854923 35.1753859,44.2621689 34.9192067,44.4778361 C34.6630275,44.6935033 34.4068483,44.8697738 34.3378534,44.8697738 C34.2787382,44.8697738 33.9043287,44.6935033 33.5102006,44.4778361 C33.1160725,44.2621689 32.741663,44.0854923 32.6825478,44.0854923 C32.5544786,44.0854923 31.1651912,43.1643373 30.5247228,42.6643629 C29.8645765,42.1448932 28.1599947,40.4293842 27.7166312,39.8216574 C27.2929454,39.2531245 26.6130805,38.0670358 26.2485099,37.2730473 C25.706594,36.0771704 25.568645,35.4694031 25.3519031,33.2148477 L25.2533507,32.1954037 L25.3519031,31.1073604 C25.5194096,29.2449052 25.6277602,28.6763722 25.9923307,27.7157391 C26.1893948,27.2060171 26.5441265,26.4610512 26.7904259,26.0591628 C27.0269273,25.6670627 27.2239506,25.3043681 27.2239506,25.2651743 C27.2239506,25.22594 27.3717792,25.0298899 27.5491247,24.8142633 C28.6625142,23.4811473 30.1207557,22.2166305 31.2243063,21.6284803 C33.3919703,20.4717972 33.7959374,20.2953643 34.8108153,20.030715 C35.1655062,19.9424986 35.8552508,19.7562368 36.3380517,19.6288266 C36.8306914,19.4915875 37.6287867,19.3053257 38.1115875,19.2171093 L38.9983554,19.0602936 L42.1317844,19.0308882 L45.2647235,18.9916538 L45.7770819,18.4623146 C46.0628595,18.1780481 46.5164294,17.8251824 46.7822026,17.6879433 L47.2749648,17.4330822 L47.7477227,17.423294 C48.004106,17.423294 48.3686766,17.4821049 48.5458587,17.5605331 Z" id="Shape"></path>
                    <path d="M38.3486703,20.8835375 L37.7065129,21.1976324 L37.4061414,21.5783799 L37.1057698,21.9686323 L37.0332411,22.4635961 L36.9710983,22.949055 L37.209327,23.6343926 L37.4475556,24.3197302 L37.8307987,24.6814284 C38.0379559,24.8908119 38.2865275,25.0526316 38.3901275,25.0526316 C38.4833419,25.0526316 38.5972419,24.9669693 38.6386991,24.8622578 C38.6801134,24.7480415 38.6801134,24.2721269 38.6386991,23.7962122 L38.5558276,22.9395107 L38.6594277,22.5778124 L38.7629848,22.2066093 L39.1151564,22.0162356 L39.4569423,21.8163569 L39.8919854,21.8163569 C40.409857,21.8163569 40.793143,21.9781766 41.580229,22.5397535 C41.9012433,22.7681862 42.2119577,22.9585599 42.2741864,22.9585599 C42.4608726,22.9585599 42.3986438,22.6254157 42.1291291,22.1780552 L41.8806434,21.7592488 L41.186686,21.3023439 C40.4305856,20.778826 39.9333997,20.5884523 39.363728,20.5789474 L38.9908707,20.5789474 L38.3486703,20.8835375 Z" id="Path"></path>
                    <path d="M47.2099703,28.6349825 C47.184186,28.6906427 47.0975221,29.1807846 47.0284059,29.7265406 L46.8901734,30.7401929 L46.9764792,31.2191658 L47.0631431,31.7092616 L47.2876813,31.9543325 L47.5125776,32.2105263 L47.9963913,32.2105263 C48.5754636,32.2105263 49.4915223,31.909749 49.5520438,31.6869698 L49.5953757,31.5310659 L48.4286364,30.0384407 C47.7804478,29.2141992 47.2357546,28.5792762 47.2099703,28.6349825 Z" id="Path"></path>
                    <path d="M116.102539,44.9195573 C116.051435,45.020183 115.974954,45.2755303 115.932308,45.4858608 C115.898473,45.704892 115.804722,46.1066384 115.728241,46.380522 C115.609114,46.8734368 115.421965,48.3797965 115.421965,48.9366427 L115.421965,49.2105263 L115.541092,49.2105263 C115.609114,49.2105263 115.906932,48.955179 116.213207,48.6355221 L116.757385,48.0695969 L116.995638,47.5672248 L117.225434,47.07431 L117.182788,46.5537798 L117.140141,46.033628 L116.748926,45.385235 C116.536401,45.029262 116.323523,44.7368421 116.28123,44.7368421 C116.230125,44.7368421 116.153644,44.8193098 116.102539,44.9195573 Z" id="Path"></path>
                    <polygon id="Path" points="84.7630058 93.5 84.7630058 101.105263 85.2136059 101.105263 85.6647399 101.105263 85.6647399 93.5 85.6647399 85.8947368 85.2136059 85.8947368 84.7630058 85.8947368"></polygon>
                    <path d="M132.643824,85.9426517 C132.593319,85.9827836 132.554913,86.591796 132.554913,87.3005177 L132.554913,88.5789474 L132.999467,88.5789474 L133.456647,88.5789474 L133.418242,87.25087 L133.380363,85.9327221 L133.063125,85.9025197 C132.885304,85.8826606 132.694856,85.9025197 132.643824,85.9426517 Z" id="Path"></path>
                    <polygon id="Path" points="155.098266 93.5 155.098266 101.105263 155.5494 101.105263 156 101.105263 156 93.5 156 85.8947368 155.5494 85.8947368 155.098266 85.8947368"></polygon>
                    <polygon id="Path" points="5.41040462 93.5 5.41040462 100.210526 9.0173627 100.210526 12.6242775 100.210526 12.6242775 99.8748808 12.6242775 99.5396326 9.36235536 99.5201691 6.08999339 99.4915697 6.08999339 96.6157434 6.08999339 93.7395198 9.10096841 93.7109204 12.1015469 93.6918542 12.1015469 93.3562087 12.1015469 93.0205632 9.06960544 93.0205632 6.03770733 93.0205632 6.05863042 90.2595316 6.08999339 87.5084303 9.36235536 87.4794337 12.6242775 87.4603674 12.6242775 87.124722 12.6242775 86.7894737 9.0173627 86.7894737 5.41040462 86.7894737"></polygon>
                    <path d="M101.264475,86.8661359 C100.552714,87.0675232 99.8512138,87.6331553 99.4382645,88.3326485 L99.2527366,88.6492277 L99.2219578,93.2890796 L99.1907514,97.9384646 L99.3660198,98.4465008 L99.5417156,98.9549342 L100.067948,99.4339738 L100.59418,99.9134106 L101.078947,100.066735 L101.563713,100.210526 L103.864431,100.181927 L106.165148,100.15293 L106.619136,99.9324768 C107.197094,99.6448942 107.630135,99.2135202 107.898594,98.6673515 L108.105069,98.2359776 L108.156367,97.2004418 L108.208092,96.1748363 L107.784884,96.1748363 L107.372362,96.1748363 L107.330896,97.3156337 L107.300117,98.4564311 L106.980359,98.820676 L106.660602,99.1849208 L106.154888,99.3573115 L105.649175,99.5205663 L103.668643,99.5300994 L101.697943,99.5300994 L101.109726,99.319179 L100.532195,99.1177917 L100.253476,98.580759 L99.9747565,98.0441234 L99.9747565,93.4904669 L99.9747565,88.9368103 L100.263736,88.4478404 L100.542455,87.9684036 L100.986183,87.7288838 L101.419224,87.4988971 L103.420703,87.4699006 L105.432868,87.4317681 L105.886856,87.5564931 L106.340416,87.6712878 L106.82561,88.0931287 L107.300117,88.5149695 L107.351843,89.6843663 L107.403141,90.8541603 L107.795143,90.8827597 L108.176886,90.9117563 L108.176886,90.0680746 C108.176886,89.6077041 108.125588,89.0520023 108.063603,88.8410819 C108.001618,88.6301614 107.81609,88.2754497 107.651081,88.0450658 C107.485645,87.8150792 107.351843,87.6041587 107.351843,87.5660262 C107.351843,87.4603674 106.670861,87.0579901 106.247652,86.9141988 L105.85565,86.7894737 L103.689162,86.7894737 C102.502468,86.7990068 101.408964,86.8276062 101.264475,86.8661359 Z" id="Path"></path>
                    <path d="M46.2609062,87.7295728 C46.219824,87.7677481 46.1885844,88.2140446 46.1885844,88.7268527 L46.1885844,89.6580145 L45.3006097,89.6863508 L44.4019365,89.7146871 L44.298803,89.8764401 L44.1849711,90.0283541 L44.3193441,90.180268 L44.4537172,90.332182 L45.3211508,90.332182 L46.1783138,90.332182 L46.2095534,94.3405859 L46.2403651,98.3584352 L46.4367894,98.690993 C46.5399228,98.8712432 46.8189394,99.203801 47.0461754,99.431672 L47.4694076,99.8307414 L48.027013,100.020437 L48.5743477,100.210526 L49.4832915,100.210526 L50.4025058,100.210526 L50.464557,100.058612 C50.5060672,99.9732099 50.5060672,99.8212959 50.4748276,99.7260545 L50.4127763,99.5458043 L49.607394,99.5458043 L48.8122822,99.5458043 L48.295759,99.3938903 C48.0167424,99.3080943 47.7069141,99.1656258 47.6037807,99.0896688 C47.5002193,99.0042663 47.3144935,98.7476655 47.190391,98.5103491 L46.9631551,98.073498 L46.9631551,94.2264536 L46.9631551,90.3798027 L48.3578103,90.3609119 C49.1221104,90.3416275 49.855171,90.3132912 49.989544,90.2845613 L50.2270505,90.2278887 L50.1962389,89.9712879 L50.1649993,89.7146871 L48.5435361,89.6863508 L46.9220729,89.6580145 L46.8912612,88.689071 L46.8600216,87.7201274 L46.601974,87.6917911 C46.4573305,87.6725067 46.3024163,87.6917911 46.2609062,87.7295728 Z" id="Path"></path>
                    <path d="M137.276693,87.7934733 L137.150493,87.9073696 L137.150493,88.7886913 L137.150493,89.6704057 L136.37328,89.6704057 C135.942897,89.6704057 135.522523,89.6986834 135.428091,89.7273539 L135.260116,89.7839093 L135.260116,90.0018832 L135.260116,90.2202499 L135.428091,90.2768053 C135.522523,90.3054758 135.942897,90.3337535 136.362836,90.3337535 L137.140049,90.3337535 L137.171817,94.1916961 L137.213593,98.0590645 L137.402457,98.5044383 C137.612644,99.0067603 138.011695,99.3955787 138.778464,99.8409525 L139.29327,100.144152 L140.437767,100.182249 L141.572254,100.210526 L141.540922,99.8979006 L141.509155,99.5754563 L140.563966,99.5189009 C140.04916,99.4902304 139.450801,99.4050046 139.251058,99.3386305 C138.841564,99.1964565 138.494733,98.9026826 138.221882,98.4573088 L138.043462,98.1537163 L138.011695,94.2392183 L137.980362,90.3337535 L139.534789,90.3337535 C140.385546,90.3337535 141.152315,90.2960499 141.225424,90.2485276 L141.372511,90.1727277 L141.330735,89.9453278 L141.298968,89.7175352 L139.650109,89.6892575 L137.990806,89.6609798 L137.990806,88.7317431 L137.990806,87.7934733 L137.822831,87.7365251 C137.570868,87.6512993 137.413336,87.6701511 137.276693,87.7934733 Z" id="Path"></path>
                    <path d="M14.6616343,89.5701889 C14.6335661,89.6282518 14.6803593,89.7828194 14.7832889,89.937387 C14.8862186,90.0823442 15.2136937,90.6525625 15.5037187,91.2131704 C15.8031256,91.7737782 16.2241871,92.5081746 16.4393895,92.8561519 C16.823001,93.4648118 16.9352737,93.6870528 17.2814738,94.4218496 L17.449883,94.7794373 L17.2908558,95.0208991 C17.2066124,95.1562459 17.1411329,95.3108135 17.1411329,95.3688764 C17.1411329,95.4653811 16.5142509,96.509313 15.8218506,97.5724658 C15.6721665,97.7947068 15.5505119,98.0265582 15.5505119,98.0750107 C15.5505119,98.1715154 14.9984913,99.1473735 14.8955617,99.2346682 C14.8019752,99.3215624 14.4277457,100.017517 14.4277457,100.114022 L14.4277457,100.210526 L14.8300434,100.181695 L15.2230368,100.152463 L15.410171,99.7660444 C15.6347165,99.311952 16.2054621,98.326083 16.6452487,97.6205179 C16.8136578,97.3498244 17.0382033,96.9149529 17.1504761,96.6542702 C17.2534057,96.4027975 17.3750603,96.1709461 17.4124716,96.1421149 C17.449883,96.1128832 17.5996058,95.8810318 17.7492899,95.6295591 L18.0112855,95.1658563 L18.273281,95.6491804 C18.4229651,95.909863 18.5820311,96.1517253 18.6381675,96.190167 C18.6849607,96.2193987 18.7317539,96.3255137 18.7317539,96.412408 C18.7317539,96.4997026 18.9375744,96.9053425 19.1808449,97.3017723 C19.6486997,98.0649999 20.0697225,98.8094071 20.5095091,99.6499184 L20.7621228,100.152463 L21.2018707,100.181695 L21.6416185,100.210526 L21.4825913,99.8917807 C21.398348,99.7175918 21.2393207,99.4372879 21.1270092,99.2827203 C20.7621228,98.7705649 20.322375,97.9781057 20.322375,97.8427589 C20.322375,97.7654751 20.2849249,97.6881913 20.2475135,97.6689705 C20.2101022,97.6497496 20.0697225,97.4659503 19.9481066,97.2533198 C19.826452,97.0406892 19.4989769,96.509313 19.2276382,96.0744415 C18.9562994,95.6491804 18.7317539,95.2335297 18.7317539,95.1562459 C18.7317539,95.0789621 18.6849607,94.9724466 18.6194812,94.9047732 L18.5165516,94.7986582 L18.7130289,94.3153341 C18.8159585,94.0446406 19.0966404,93.5228748 19.3305678,93.1460662 C19.5644952,92.7692576 20.0603794,91.909125 20.4252658,91.2323912 C20.790191,90.5560578 21.1550774,89.9277766 21.2299388,89.8408824 C21.417073,89.6282518 21.3141434,89.4736842 20.9773252,89.4736842 L20.7059864,89.4736842 L20.5095091,89.6863148 C20.4065795,89.8020403 20.322375,89.937387 20.322375,89.9858395 C20.322375,90.0342921 19.9668317,90.6914046 19.5270451,91.4546322 C19.0872972,92.2086498 18.7317539,92.8561519 18.7317539,92.8945935 C18.7317539,93.001109 18.0393537,94.209219 17.9832173,94.209219 C17.9270809,94.209219 17.5621945,93.5521065 16.8697942,92.237481 C16.6452487,91.8026095 16.4393895,91.4354113 16.4019782,91.4065801 C16.3083917,91.3292963 15.5505119,89.9858395 15.5505119,89.8793241 C15.5505119,89.8312719 15.4756505,89.7247565 15.3821028,89.6378622 C15.1949686,89.4540629 14.7552208,89.4156213 14.6616343,89.5701889 Z" id="Path"></path>
                    <path d="M24.4592392,89.5337059 L24.3468208,89.6111149 L24.3655313,94.8865551 L24.3936359,100.152369 L24.740285,100.181648 L25.0869341,100.210526 L25.1150387,95.8643946 L25.1431433,91.5178619 L25.4710431,91.0245302 L25.7989429,90.5211714 L26.2392998,90.3274485 L26.6796179,90.1337256 L28.0755696,90.1337256 L29.4714825,90.1337256 L29.8836961,90.3563265 L30.2959484,90.5789274 L30.5301404,91.0534081 L30.7643711,91.5375149 L30.8112251,95.8451427 L30.8580402,100.152369 L31.2140445,100.181648 L31.5606936,100.210526 L31.5606936,95.9999606 L31.5606936,91.7889937 L31.3733168,91.276009 C31.2702925,90.9952512 31.0267065,90.5596754 30.8393296,90.3178225 L30.4832865,89.8722197 L29.9211947,89.6885238 L29.3590642,89.5044269 L28.0006111,89.5044269 L26.6421581,89.5044269 L26.1549861,89.6788979 L25.667814,89.8529677 L25.3867293,90.1822566 L25.1056835,90.5211714 L25.0775789,90.0077856 L25.0494743,89.5044269 L24.8152435,89.475549 C24.6840758,89.465923 24.5248036,89.4948009 24.4592392,89.5337059 Z" id="Path"></path>
                    <path d="M37.088193,89.6189014 C36.8352544,89.6963238 36.5261073,89.7930015 36.4042962,89.8222856 C36.1326085,89.8900803 35.6079823,90.557999 35.3643989,91.1484952 L35.1676301,91.6134307 L35.1676301,94.7889526 L35.1676301,97.9644744 L35.3175455,98.4390376 L35.4674608,98.9228273 L35.8609208,99.3781352 L36.2637748,99.833042 L36.7509416,100.01677 L37.2287532,100.210526 L39.7582552,100.210526 L42.2879513,100.210526 L42.2879513,99.8715526 L42.2879513,99.53298 L39.8613172,99.53298 L37.4348384,99.53298 L36.9008181,99.3199681 L36.3761919,99.1165839 L36.2075662,98.8646602 C36.1138594,98.7294719 35.9827319,98.3034481 35.9171294,97.9355915 L35.8047123,97.257644 L35.8421717,96.2896634 L35.870276,95.3212817 L39.1024627,95.2731434 L42.334533,95.224604 L42.3628702,93.5301366 L42.3815029,91.8456979 L42.2879513,91.3326241 L42.1846953,90.8195503 L41.79108,90.37387 L41.397853,89.928591 L41.0228704,89.7833738 C40.3578392,89.5318513 39.9175258,89.4736842 38.7277131,89.4736842 L37.5566495,89.4736842 L37.088193,89.6189014 Z M40.9106085,90.4709489 C41.1074938,90.6257937 41.3788321,90.945111 41.5100372,91.187407 L41.7538147,91.6134307 L41.8007845,93.1041128 L41.8473662,94.595196 L38.830775,94.595196 L35.8234614,94.595196 L35.8234614,93.3849194 C35.8234614,92.7266285 35.870276,91.9520033 35.9264845,91.6711967 C35.9827319,91.3907912 36.1419637,91.0129057 36.2637748,90.8291779 C36.394941,90.6546767 36.6759839,90.4224095 36.891463,90.3257318 L37.2755678,90.1416028 L38.9150879,90.1608582 L40.5545692,90.1901423 L40.9106085,90.4709489 Z" id="Shape"></path>
                    <path d="M52.3047458,89.5605784 C52.2756205,89.6186414 52.4022348,90.159628 52.5879089,90.7686884 C52.7832914,91.3773484 52.9394356,91.9283458 52.9394356,92.0056296 C52.9394356,92.0925239 53.2909622,93.2137396 53.720561,94.5087438 C54.1501598,95.803748 54.5308118,97.0214684 54.5599371,97.2048672 C54.6283008,97.5724658 54.9895359,98.7705649 55.3018243,99.6499184 L55.5069152,100.210526 L55.9073886,100.181695 L56.2977491,100.152463 L57.0497492,97.5916867 C57.4595266,96.1805566 57.8502915,94.7890477 57.9186552,94.4991334 C57.9866143,94.209219 58.143163,93.6390007 58.2600689,93.2425709 C58.3870877,92.8465414 58.6115956,92.1117447 58.7580313,91.6091998 L59.0314859,90.701015 L59.2462853,91.367738 C59.3733041,91.7349361 59.4707931,92.131366 59.4707931,92.2470915 C59.4805016,92.459722 59.5779905,92.8269202 60.3105738,95.2719714 C61.0427525,97.717423 61.1402414,98.0846212 61.1499499,98.2972517 C61.1499499,98.4129772 61.2769687,98.8770804 61.4234045,99.3311728 L61.6867461,100.152463 L62.1652916,100.152463 L62.6535456,100.152463 L62.7805644,99.5726346 C62.8489281,99.253889 63.248997,97.9296531 63.6688873,96.6250385 C64.0887776,95.3204239 64.498555,93.9965885 64.5766271,93.6774424 C64.6648121,93.3586968 64.9771005,92.3439965 65.2796804,91.4161905 C65.5822604,90.4883845 65.8265896,89.6767043 65.8265896,89.5990201 L65.8265896,89.4736842 L65.5628435,89.4736842 C65.4066993,89.4736842 65.2404421,89.5121259 65.172483,89.550968 C65.0745895,89.609031 64.88932,90.1792493 64.2740472,92.3243753 C64.1668497,92.6919738 63.8541568,93.6970637 63.5811068,94.5471855 C63.2979437,95.3977077 63.0050723,96.3547454 62.9270002,96.6734911 C62.6045988,97.9104323 62.1750001,99.2346682 62.1066364,99.1669948 C62.0285643,99.0700897 61.1402414,96.0067681 61.1402414,95.8133584 C61.1402414,95.7264642 60.84737,94.6729218 60.4958433,93.4648118 C60.1443166,92.2470915 59.7636646,90.9136456 59.6560626,90.4883845 C59.5391568,90.0631233 59.4416678,89.6570831 59.4218464,89.5894097 L59.392721,89.4736842 L59.1192664,89.4736842 C58.9728307,89.4736842 58.7972696,89.5121259 58.7386144,89.550968 C58.621304,89.6186414 57.8207617,92.1990394 57.8207617,92.4985641 C57.8207617,92.5950688 57.4498181,93.9193047 56.991094,95.4461602 C56.5319654,96.9730158 56.1610218,98.326083 56.1610218,98.4614297 C56.1513134,98.5967765 56.0926582,98.8286279 56.0242945,98.9928059 L55.8976802,99.2827203 L55.4385516,97.8331485 C55.1752099,97.0310788 54.8823385,96.132104 54.784445,95.8325792 C54.686956,95.523444 54.5991754,95.2046984 54.5991754,95.1077934 C54.5991754,95.0112887 54.3257208,94.1027035 54.003724,93.0976137 C53.6813227,92.0829134 53.2909622,90.865193 53.1445265,90.3914794 L52.8807804,89.5217363 L52.6271472,89.4929051 C52.4904199,89.4736842 52.3439842,89.5121259 52.3047458,89.5605784 Z" id="Path"></path>
                    <path d="M69.7961317,89.4990884 C69.2591982,89.6443582 68.5435471,89.9637911 68.3550741,90.1479868 C68.2325471,90.2639618 68.0159787,90.5545013 67.8840866,90.7968851 L67.6300578,91.2326944 L67.6300578,94.8158815 L67.6300578,98.3994698 L67.8372611,98.7967546 C68.0912899,99.290752 68.5150615,99.6683731 69.1651568,99.9685438 L69.6548745,100.210526 L71.3312307,100.172002 L72.9982218,100.142707 L73.4219935,99.9103556 C73.8925907,99.658742 74.2601716,99.2614573 74.5801465,98.6900094 L74.7873497,98.3027571 L74.8158353,94.9808148 L74.8439306,91.6588726 L74.608632,91.1259492 C74.4767399,90.8354097 74.2410511,90.4385263 74.0904288,90.2446995 L73.8079144,89.8959718 L73.3088316,89.702145 L72.8097488,89.5183507 L71.3971768,89.4794248 C70.6249447,89.4697937 69.8995382,89.4697937 69.7961317,89.4990884 Z M73.1109935,90.32215 C73.336927,90.4385263 73.6385618,90.6805088 73.779819,90.8743356 L74.0338479,91.2130308 L74.0623334,94.3704411 C74.0810637,96.1040471 74.0716842,97.7602026 74.0338479,98.041111 L73.9679018,98.5543708 L73.7045079,98.8645739 L73.4407237,99.1743757 L72.9603712,99.3585713 L72.4893837,99.5327345 L71.0015005,99.4938086 L69.5136173,99.4552841 L69.2026173,99.2811209 C68.8166964,99.0680318 68.477601,98.6029278 68.345709,98.1089303 L68.2423024,97.721678 L68.2423024,94.7287999 L68.2423024,91.7266919 L68.4303852,91.3294072 C68.6188582,90.9321225 69.1932522,90.3028877 69.4664015,90.1865113 C69.5417126,90.1576179 70.3045796,90.1283232 71.1521228,90.1283232 L72.7059521,90.118692 L73.1109935,90.32215 Z" id="Shape"></path>
                    <path d="M77.6222161,89.5413576 C77.580269,89.5701889 77.5491329,91.9864088 77.5491329,94.9047732 L77.5491329,100.210526 L77.9456849,100.181695 L78.3318582,100.152463 L78.384184,95.9002526 L78.4360774,91.6480419 L78.6030012,91.309675 C78.7911147,90.9136456 79.3234544,90.4691636 79.8138469,90.2757539 L80.1476943,90.1500176 L80.9619881,90.1500176 C81.4108659,90.1500176 81.8385539,90.1115759 81.9116371,90.0631233 L82.0578035,89.9858395 L82.0158563,89.7539881 L81.9847203,89.5217363 L81.04545,89.5217363 L80.1061796,89.5217363 L79.4380523,89.7539881 L78.780736,89.9858395 L78.5822438,90.2853643 L78.384184,90.5848891 L78.384184,90.1792493 C78.384184,89.9566079 78.3526156,89.715146 78.3214795,89.6282518 L78.258775,89.4736842 L77.976821,89.4736842 C77.8202759,89.4736842 77.6533522,89.5025155 77.6222161,89.5413576 Z" id="Path"></path>
                    <path d="M90.7353214,89.6882804 C90.6138731,89.8137074 90.0816667,90.5875081 89.549847,91.4097965 C89.0176405,92.2316841 88.5600822,92.9281448 88.5229516,92.956997 C88.4297381,93.034337 87.8692968,93.9047124 87.8692968,93.972435 C87.8692968,94.0113053 87.7760833,94.1756027 87.6639177,94.3302827 L87.4682081,94.6300253 L87.5892696,94.833193 C87.6639177,94.939786 87.7760833,95.1621885 87.8600142,95.3168685 C87.9346623,95.4811659 88.3082898,96.0517988 88.7000959,96.5935794 C89.3444679,97.4928071 89.9606052,98.3924355 90.8567697,99.7268508 L91.1739276,100.210526 L91.5754031,100.210526 C91.7993475,100.210526 91.9768786,100.191291 91.9768786,100.162039 C91.9768786,100.133186 91.7993475,99.862296 91.5846858,99.5625534 C91.3607413,99.2724283 91.1460796,98.9534509 91.0899968,98.8660928 C90.8378176,98.4212877 90.4460115,97.83142 90.3431286,97.7444626 C90.2870458,97.6863574 90.0352533,97.3381271 89.7923568,96.970662 C89.5591297,96.5935794 89.3255158,96.2453491 89.2883851,96.1968613 C89.241585,96.1387562 88.9897925,95.7813092 88.719048,95.3942085 L88.224359,94.6881304 L88.7654613,93.8662428 C89.0737233,93.4214376 89.3630333,92.9762318 89.4098334,92.879657 C89.6709085,92.4252345 90.0909493,91.7772616 90.5485077,91.1581409 C90.8192522,90.7810584 91.0431967,90.4328281 91.0431967,90.3747229 C91.0431967,90.3166177 91.1553623,90.1330855 91.2860932,89.9687881 C91.4168241,89.80409 91.500755,89.6301752 91.4632375,89.5720701 C91.3607413,89.3981553 90.9685485,89.4658778 90.7353214,89.6882804 Z" id="Path"></path>
                    <path d="M112.865334,89.609031 C112.59183,89.6863148 112.252294,89.8120511 112.101476,89.8893349 C111.752562,90.0823442 111.356372,90.5560578 111.11139,91.1070553 L110.913295,91.5419268 L110.913295,94.8274894 L110.913295,98.1134524 L111.196176,98.6932811 L111.479058,99.2731099 L111.950658,99.640308 C112.214394,99.8337177 112.59183,100.046348 112.789925,100.104411 L113.157593,100.210526 L114.675933,100.172085 L116.193883,100.142853 L116.580696,99.9306228 C116.797546,99.8144969 117.051905,99.6018663 117.146459,99.4472987 L117.325409,99.1766052 L117.372686,99.6599293 L117.419964,100.142853 L117.778254,100.172085 L118.127168,100.200916 L118.108413,94.8567211 L118.07989,89.5121259 L115.722674,89.4929051 L113.365066,89.4736842 L112.865334,89.609031 Z M117.353932,94.1703769 L117.325409,98.2103575 L117.137082,98.5967765 L116.948364,98.9831955 L116.476764,99.2250578 L116.005555,99.4569092 L114.666165,99.4953508 L113.317789,99.534193 L112.827435,99.3700149 L112.327703,99.2154473 L112.072953,98.8478487 C111.931512,98.645229 111.771317,98.2972517 111.714663,98.0553895 L111.611122,97.6301284 L111.639254,94.5764172 L111.667776,91.5126951 L112.026067,90.981319 L112.384358,90.4495423 L112.685994,90.2949747 L112.98763,90.1404071 L115.185042,90.1404071 L117.382064,90.1404071 L117.353932,94.1703769 Z" id="Shape"></path>
                    <path d="M121.800178,89.5447256 C121.762422,89.5746192 121.734104,92.4004 121.734104,95.8074463 L121.734104,102 L122.066048,102 L122.398384,102 L122.398384,100.777682 L122.398384,99.5549481 L122.71145,99.86551 C122.873095,100.046117 123.205039,100.276548 123.442591,100.386573 L123.869712,100.597074 L125.388236,100.597074 L126.907153,100.597074 L127.381864,100.356679 C127.64734,100.22631 128.017827,99.9659859 128.216836,99.7853784 L128.577883,99.4449229 L128.758014,98.7432524 L128.947977,98.041997 L128.947977,94.985786 L128.938538,91.9295749 L128.805603,91.5285017 C128.729696,91.308036 128.663229,91.0576767 128.663229,90.9675805 C128.663229,90.8874489 128.511416,90.6267098 128.330892,90.4062441 L128.008388,90.0055861 L127.410182,89.7651913 L126.812368,89.5243813 L125.388236,89.5243813 L123.964497,89.5243813 L123.489787,89.7149533 C123.23375,89.815014 122.873095,90.0354797 122.71145,90.2061227 L122.398384,90.5166845 L122.398384,90.1558847 C122.398384,89.9553481 122.370067,89.7249179 122.341356,89.6348217 C122.284328,89.4745585 121.914235,89.414356 121.800178,89.5447256 Z M127.220219,90.4162087 C127.68549,90.7271857 127.960799,91.0477121 128.140929,91.4986081 L128.283303,91.8693724 L128.283303,95.055953 L128.283303,98.2425336 L128.055584,98.7432524 C127.932088,99.013956 127.751958,99.3145533 127.657173,99.4046495 C127.561995,99.4947456 127.296125,99.6350797 127.068405,99.7251759 L126.669995,99.8958188 L125.407508,99.8958188 L124.145021,99.8958188 L123.584965,99.6653886 L123.015469,99.4349583 L122.730721,99.0039915 L122.445974,98.5730246 L122.417263,95.1759428 L122.388945,91.7892408 L122.578908,91.3985474 C122.787356,90.957616 123.243189,90.5166845 123.679749,90.3161479 L123.964497,90.1857784 L125.416947,90.1758138 L126.859564,90.1758138 L127.220219,90.4162087 Z" id="Shape"></path>
                    <path d="M132.645087,89.5201512 C132.593864,89.5586693 132.554913,91.9796918 132.554913,94.9038569 L132.554913,100.210526 L133.00578,100.210526 L133.456647,100.210526 L133.430502,94.8557093 L133.392085,89.5101205 L133.070342,89.4812319 C132.889996,89.4619729 132.696843,89.4812319 132.645087,89.5201512 Z" id="Path"></path>
                    <path d="M146.370271,89.5701889 C145.419243,89.7924298 144.819775,90.2273014 144.46782,90.9717085 L144.277457,91.367738 L144.277457,94.8471107 L144.277457,98.3164726 L144.458361,98.7028916 C144.658183,99.1669948 145.295487,99.7660444 145.837411,100.017517 L146.227597,100.200916 L147.711485,100.200916 L149.195373,100.200916 L149.613936,100.055959 C149.842136,99.9690645 150.194091,99.7756548 150.393913,99.6114768 L150.745869,99.3215624 L150.745869,99.7660444 L150.745869,100.210526 L151.107283,100.181695 L151.459239,100.152463 L151.487616,95.0305096 C151.497469,92.2086498 151.487616,89.8116507 151.459239,89.6863148 L151.411549,89.4736842 L149.052699,89.4832946 C147.759175,89.4929051 146.551175,89.5317472 146.370271,89.5701889 Z M150.745869,94.1799873 L150.745869,98.2003467 L150.517669,98.5967765 C150.270158,99.0220376 150.108566,99.1377631 149.423573,99.3796254 L149.00501,99.5245825 L147.730403,99.5245825 L146.455797,99.5245825 L146.103841,99.3796254 C145.637983,99.1766052 145.333323,98.8770804 145.124041,98.4129772 L144.943531,98.0265582 L144.943531,94.8471107 L144.943531,91.6768732 L145.200108,91.2035599 C145.428702,90.759078 145.847264,90.3530377 146.179908,90.2176909 C146.255974,90.1888597 147.321299,90.159628 148.539152,90.159628 L150.745869,90.1500176 L150.745869,94.1799873 Z" id="Shape"></path>
                </g>
            </g>
        </g>
    </g>
</svg>