<svg width="1222" height="149" viewBox="0 0 1222 149" fill="none" xmlns="http://www.w3.org/2000/svg">
<path d="M139.805 75.2087H136.051V47.6024H139.805V75.2087ZM153.569 75.2087V50.9385H145.477V47.6024H164.997V50.9385H157.239V75.2087H153.569ZM176.842 55.8592L171.837 68.3697H176.842H181.847L176.842 55.8592ZM164.997 75.2087L176.842 47.6024L188.687 75.2087H184.516L183.014 71.6224H176.842H170.669L169.167 75.2087H164.997ZM198.53 57.5273L198.446 75.2087H194.359V48.1862L211.459 66.2846V48.1862H215.546V75.2087L198.53 57.5273ZM229.811 76.2095C225.473 76.2095 222.637 73.9576 220.718 70.1211L223.888 68.7033C225.056 71.0385 227.141 72.9568 229.811 72.9568C232.73 72.9568 235.65 71.2888 235.65 68.036C235.65 67.2854 235.483 66.6182 235.066 66.0344C234.649 65.4506 234.065 64.9501 233.314 64.3663C231.145 62.9485 228.976 62.1144 226.808 60.9468C225.89 60.4464 225.223 59.946 224.722 59.4456C223.971 58.7783 223.388 58.0277 222.97 57.1103C222.553 56.2762 222.387 55.3588 222.387 54.4414C222.387 53.524 222.637 52.6065 223.054 51.6891C223.471 50.7717 224.138 50.021 224.972 49.3538C225.723 48.77 226.641 48.2696 227.725 47.936C228.81 47.6024 229.811 47.4355 230.978 47.4355C233.397 47.4355 236.4 48.8534 237.735 51.2721L234.982 53.1903C233.898 51.4389 232.23 50.6883 230.895 50.6883C229.977 50.6883 229.143 50.8551 228.393 51.1887C227.725 51.5223 227.141 52.0227 226.724 52.6065C226.307 53.1903 226.14 53.7742 226.14 54.4414C226.14 55.4422 226.474 56.1928 227.141 56.8601C227.809 57.5273 228.976 58.1945 230.561 58.9451C231.896 59.6124 233.231 60.2796 234.565 61.0302C235.65 61.614 236.484 62.2813 237.151 62.8651C238.736 64.2829 239.487 66.0344 239.487 68.036C239.403 73.2904 234.565 76.2095 229.811 76.2095ZM118.784 75.2087V50.9385H110.693V47.6024H130.212V50.9385H122.454V75.2087H118.784Z" fill="#9D60FF"/>
<path d="M232.98 103.482C232.647 103.482 232.396 103.482 232.146 103.399H232.063H231.979L231.646 103.315C231.312 103.232 230.895 103.149 230.478 102.982C229.393 102.648 228.476 102.064 227.725 101.23C227.642 101.147 227.642 101.064 227.642 100.98C227.642 100.897 227.725 100.813 227.809 100.73L228.059 100.563C228.142 100.563 228.226 100.48 228.309 100.48C228.393 100.48 228.559 100.563 228.643 100.647C229.227 101.314 229.977 101.814 230.895 102.148C231.229 102.231 231.562 102.315 231.896 102.398C231.979 102.398 231.979 102.398 232.063 102.398C232.146 102.398 232.146 102.398 232.23 102.398C232.313 102.398 232.313 102.398 232.313 102.398C232.563 102.398 232.814 102.398 233.064 102.398C233.648 102.398 234.315 102.315 234.982 102.148C235.65 101.981 236.234 101.731 236.734 101.314C237.735 100.647 238.236 99.7291 238.402 98.5615C238.402 98.4781 238.402 98.3947 238.402 98.2279C238.402 97.5607 238.236 96.9768 237.902 96.4764C237.568 95.976 237.068 95.559 236.4 95.0586C235.733 94.6416 234.816 94.1411 233.564 93.5573L233.231 93.3905C233.147 93.3905 232.98 93.3071 232.73 93.1403L232.563 93.0569L232.063 92.8067L231.312 92.4731C230.812 92.1395 230.311 91.8893 229.894 91.5557C228.893 90.7216 228.392 89.6374 228.392 88.4698V88.3864C228.392 87.2187 228.81 86.3847 229.56 85.7175C230.311 85.0502 231.145 84.6332 232.146 84.383C232.73 84.2162 233.397 84.1328 233.981 84.1328C234.148 84.1328 234.315 84.1328 234.565 84.1328C235.316 84.2162 235.983 84.383 236.651 84.6332C237.318 84.8834 237.902 85.3005 238.402 85.7175C238.486 85.8009 238.486 85.8843 238.486 85.9677C238.486 86.0511 238.402 86.1345 238.319 86.2179L238.069 86.3847C237.985 86.4681 237.902 86.4681 237.818 86.4681C237.735 86.4681 237.568 86.4681 237.485 86.3847C237.068 86.0511 236.651 85.8009 236.067 85.5507C235.483 85.3004 234.899 85.217 234.315 85.1336C234.232 85.1336 234.065 85.1336 233.815 85.1336C233.231 85.1336 232.647 85.217 232.063 85.3839C231.479 85.5507 230.978 85.8009 230.561 86.1345C229.727 86.7183 229.31 87.5523 229.31 88.5532V88.6366C229.31 89.554 229.727 90.388 230.645 91.0552C230.978 91.3055 231.395 91.6391 231.896 91.8893C231.979 91.8893 232.146 92.0561 232.563 92.2229L233.147 92.4731L233.397 92.6399L233.648 92.7233L233.981 92.8901L234.482 93.1403L235.066 93.3905C235.399 93.5573 235.733 93.7241 236.067 93.8909C236.817 94.308 237.401 94.725 237.818 95.142C238.819 96.0594 239.32 97.1437 239.32 98.3947C239.32 98.4781 239.32 98.6449 239.32 98.8951C239.237 99.8125 238.903 100.647 238.319 101.314C237.735 101.981 236.984 102.565 236.067 102.982C235.149 103.232 234.148 103.482 232.98 103.482ZM212.627 84.6332C212.627 84.383 212.794 84.2996 213.044 84.2996H223.471C223.721 84.2996 223.888 84.383 223.888 84.6332V84.8834C223.888 85.1336 223.721 85.217 223.471 85.217H213.795V94.8084H222.136C222.387 94.8084 222.553 94.8918 222.553 95.142V95.3922C222.553 95.6424 222.387 95.7258 222.136 95.7258H213.795V102.398H223.471C223.721 102.398 223.888 102.481 223.888 102.732V102.982C223.888 103.232 223.721 103.315 223.471 103.315H213.044C212.794 103.315 212.627 103.232 212.627 102.982V84.6332ZM200.365 96.6432C201.533 96.6432 202.617 96.393 203.618 95.8092C204.619 95.3088 205.37 94.6416 205.954 93.7241C206.538 92.8901 206.871 91.8893 206.871 90.8884C206.871 89.8876 206.538 88.8868 205.954 88.0527C205.37 87.2187 204.536 86.4681 203.535 85.9677C202.534 85.4673 201.366 85.217 200.198 85.217H198.53V96.6432H200.365ZM207.705 102.815C207.789 102.898 207.789 102.982 207.789 103.065C207.789 103.149 207.789 103.232 207.705 103.232C207.622 103.232 207.539 103.315 207.455 103.315H207.121C207.038 103.315 206.955 103.315 206.955 103.315C206.871 103.315 206.871 103.232 206.788 103.232L202.784 97.3105C202.033 97.4773 201.282 97.6441 200.532 97.6441H198.696V103.065C198.696 103.149 198.696 103.232 198.613 103.315C198.53 103.399 198.446 103.399 198.363 103.399H198.029C197.946 103.399 197.862 103.399 197.779 103.315C197.696 103.232 197.695 103.149 197.695 103.065V84.7166C197.695 84.6332 197.696 84.5498 197.779 84.4664C197.862 84.383 197.946 84.383 198.029 84.383H200.365C201.783 84.383 203.034 84.7166 204.285 85.3005C205.453 85.8843 206.371 86.7183 207.121 87.7191C207.789 88.72 208.122 89.8042 208.122 91.0552C208.122 91.8893 207.956 92.7233 207.622 93.4739C207.288 94.2246 206.788 94.9752 206.12 95.559C205.453 96.1428 204.702 96.6432 203.868 97.0603L207.705 102.815ZM185.6 103.315C184.432 103.315 183.348 103.065 182.347 102.565C181.346 102.064 180.595 101.397 180.011 100.563C179.427 99.7291 179.177 98.8117 179.177 97.8109V84.6332C179.177 84.5498 179.177 84.4664 179.261 84.383C179.344 84.2996 179.427 84.2996 179.511 84.2996H179.845C179.928 84.2996 180.011 84.2996 180.095 84.383C180.178 84.4664 180.178 84.5498 180.178 84.6332V97.8109C180.178 98.6449 180.428 99.3955 180.929 100.146C181.429 100.813 182.097 101.397 182.847 101.814C183.682 102.231 184.599 102.398 185.517 102.398C186.518 102.398 187.352 102.231 188.186 101.814C189.02 101.397 189.688 100.813 190.105 100.146C190.605 99.4789 190.855 98.6449 190.855 97.8109V84.6332C190.855 84.5498 190.855 84.4664 190.939 84.383C191.022 84.2996 191.106 84.2996 191.189 84.2996H191.523C191.606 84.2996 191.69 84.2996 191.773 84.383C191.856 84.4664 191.856 84.5498 191.856 84.6332V97.8109C191.856 98.8117 191.606 99.7291 191.022 100.563C190.438 101.397 189.688 102.064 188.687 102.565C187.852 103.065 186.768 103.315 185.6 103.315ZM162.995 84.6332C162.995 84.5498 162.995 84.4664 163.078 84.383C163.161 84.2996 163.245 84.2996 163.328 84.2996H174.339C174.423 84.2996 174.589 84.2996 174.589 84.383C174.673 84.4664 174.673 84.5498 174.673 84.6332V84.8834C174.673 84.9668 174.673 85.0502 174.589 85.1336C174.506 85.217 174.423 85.217 174.339 85.217H169.418V102.982C169.418 103.065 169.418 103.149 169.334 103.232C169.251 103.315 169.167 103.315 169.084 103.315H168.75C168.667 103.315 168.583 103.315 168.5 103.232C168.417 103.149 168.417 103.065 168.417 102.982V85.217H163.328C163.245 85.217 163.161 85.217 163.078 85.1336C162.995 85.0502 162.995 84.9668 162.995 84.8834V84.6332ZM157.573 84.6332C157.573 84.5498 157.573 84.4664 157.656 84.383C157.739 84.2996 157.823 84.2996 157.906 84.2996H158.24C158.323 84.2996 158.407 84.2996 158.49 84.383C158.574 84.4664 158.574 84.5498 158.574 84.6332V102.898C158.574 102.982 158.49 103.149 158.407 103.149C158.323 103.232 158.24 103.232 158.073 103.232C157.99 103.232 157.906 103.232 157.823 103.149C157.739 103.149 157.656 103.065 157.656 102.982L146.645 86.7183V102.982C146.645 103.065 146.645 103.149 146.562 103.232C146.478 103.315 146.395 103.315 146.311 103.315H145.978C145.894 103.315 145.811 103.315 145.727 103.232C145.644 103.149 145.644 103.065 145.644 102.982V84.8C145.644 84.7166 145.727 84.5498 145.811 84.5498C145.894 84.4664 145.978 84.4664 146.145 84.4664C146.311 84.4664 146.478 84.5498 146.562 84.7166L157.573 100.897V84.6332ZM129.628 84.6332C129.628 84.383 129.795 84.2996 130.045 84.2996H140.472C140.723 84.2996 140.889 84.383 140.889 84.6332V84.8834C140.889 85.1336 140.723 85.217 140.472 85.217H130.796V94.8084H139.138C139.388 94.8084 139.555 94.8918 139.555 95.142V95.3922C139.555 95.6424 139.388 95.7258 139.138 95.7258H130.796V102.398H140.472C140.723 102.398 140.889 102.481 140.889 102.732V102.982C140.889 103.232 140.723 103.315 140.472 103.315H130.045C129.795 103.315 129.628 103.232 129.628 102.982V84.6332ZM110.693 84.8C110.693 84.7166 110.693 84.7166 110.693 84.6332C110.693 84.5498 110.776 84.4664 110.776 84.383C110.86 84.2996 110.943 84.2996 111.11 84.2996H111.444C111.527 84.2996 111.61 84.2996 111.694 84.383C111.777 84.383 111.777 84.4664 111.861 84.5498L118.033 100.563L124.206 84.5498C124.206 84.4664 124.29 84.4664 124.373 84.383C124.456 84.383 124.54 84.2996 124.623 84.2996H124.874C125.04 84.2996 125.124 84.2996 125.207 84.383C125.291 84.4664 125.291 84.5498 125.291 84.6332C125.291 84.7166 125.291 84.7166 125.291 84.7166L118.534 102.982C118.534 103.065 118.451 103.149 118.367 103.149C118.284 103.232 118.2 103.232 118.117 103.232C118.033 103.232 117.95 103.232 117.867 103.149C117.783 103.065 117.783 103.065 117.7 102.982L110.693 84.8Z" fill="#9D60FF"/>
<path d="M14.0136 47.3521L53.6361 106.485L92.1742 49.0201H77.9935L53.4693 85.5506L27.8606 47.3521H54.3034V65.8675L52.6351 63.3654V49.0201H30.947L53.4693 82.5481L77.076 47.3521H95.2606C81.4136 68.036 67.4831 88.7199 53.6361 109.487L12.0117 47.3521H14.0136ZM101.767 37.6773H5.42181L4.3374 36.0093H102.851L101.767 37.6773Z" fill="#9D60FF"/>
<path d="M1125.99 95.9914H1122.08V94.9931H1131.13V95.9914H1127.22V106.128H1126.07L1125.99 95.9914ZM1139.19 102.365C1140.04 102.058 1140.65 101.674 1141.11 101.059C1141.57 100.445 1141.72 99.754 1141.72 98.8326C1141.72 97.604 1141.34 96.6825 1140.5 95.9914C1139.65 95.3003 1138.58 94.9931 1137.12 94.9931H1132.98V106.204H1134.13V96.0682H1137.12C1138.27 96.0682 1139.04 96.2985 1139.65 96.8361C1140.27 97.2968 1140.5 97.9879 1140.5 98.9094C1140.5 99.754 1140.19 100.445 1139.65 100.983C1139.19 101.367 1138.5 101.674 1137.73 101.674H1137.43L1138.04 102.595L1140.65 106.281H1141.95L1139.19 102.365ZM1156.84 82.7069C1156.38 81.8622 1155.62 81.1711 1154.69 80.7104C1153.77 80.2497 1152.78 80.0193 1151.55 80.0193H1147.02V81.0176H1148.17H1151.47C1152.47 81.0176 1153.31 81.2479 1154.08 81.6319C1154.85 82.0158 1155.39 82.5533 1155.77 83.2444C1156.15 83.9355 1156.38 84.7034 1156.38 85.6249C1156.38 86.4696 1156.15 87.3142 1155.77 88.0053C1155.39 88.6964 1154.77 89.234 1154.08 89.6179C1153.31 90.0019 1152.47 90.2322 1151.47 90.2322H1148.17H1147.02V91.2305H1151.55C1152.7 91.2305 1153.77 91.0001 1154.69 90.5394C1155.62 90.0786 1156.31 89.3875 1156.84 88.5429C1157.3 87.6982 1157.61 86.7767 1157.61 85.6249C1157.61 84.5498 1157.38 83.5516 1156.84 82.7069ZM1160.22 80.0193H1161.37V91.2305H1160.22V80.0193ZM1172.96 85.6249H1174.11V89.9251C1173.57 90.3858 1172.96 90.7697 1172.27 91.0001C1171.58 91.2305 1170.81 91.3841 1170.04 91.3841C1168.89 91.3841 1167.89 91.1537 1166.97 90.6162C1166.13 90.1554 1165.36 89.4643 1164.82 88.5429C1164.36 87.6982 1164.06 86.6999 1164.06 85.6249C1164.06 84.5498 1164.29 83.5516 1164.82 82.7069C1165.29 81.8622 1166.05 81.1711 1166.97 80.6336C1167.82 80.1729 1168.89 79.8657 1170.04 79.8657C1170.89 79.8657 1171.66 80.0193 1172.42 80.3265C1173.11 80.6336 1173.73 81.0176 1174.19 81.5551L1173.42 82.323C1172.58 81.4783 1171.43 81.0176 1170.04 81.0176C1169.12 81.0176 1168.28 81.2479 1167.59 81.6319C1166.82 82.0158 1166.28 82.5533 1165.82 83.3212C1165.36 84.0123 1165.21 84.7802 1165.21 85.7017C1165.21 86.5464 1165.44 87.391 1165.82 88.0821C1166.28 88.7732 1166.82 89.3875 1167.51 89.7715C1168.28 90.1554 1169.05 90.3858 1169.97 90.3858C1171.12 90.3858 1172.12 90.0786 1172.88 89.5411L1172.96 85.6249ZM1177.41 80.0193H1178.56V91.2305H1177.41V80.0193ZM1184.39 81.0176H1180.48V80.0193H1189.54V81.0176H1185.62V91.1537H1184.47L1184.39 81.0176ZM1195.37 80.0193H1194.14L1189 91.2305H1190.23L1194.68 81.2479L1199.13 91.2305H1200.43L1195.37 80.0193ZM1202.28 80.0193H1203.5V90.1554H1209.72V91.1537H1202.28V80.0193ZM1149.02 94.9931H1147.86L1142.72 106.204H1143.95L1148.4 96.2218L1152.85 106.204H1154.08L1149.02 94.9931ZM1157.53 95.9914H1153.62V94.9931H1162.68V95.9914H1158.76V106.128H1157.61L1157.53 95.9914ZM1164.52 94.9931H1172.19V95.9914H1164.52V94.9931ZM1164.52 99.9844H1171.5V100.983H1164.52V99.9844ZM1164.52 105.129H1172.42V106.128H1164.52V105.129ZM1183.09 100.599H1184.24V104.899C1183.7 105.36 1183.09 105.744 1182.4 105.974C1181.71 106.204 1180.94 106.358 1180.17 106.358C1179.02 106.358 1178.03 106.128 1177.1 105.59C1176.26 105.129 1175.49 104.438 1174.96 103.517C1174.49 102.672 1174.19 101.674 1174.19 100.599C1174.19 99.5237 1174.42 98.5254 1174.96 97.6807C1175.42 96.8361 1176.18 96.145 1177.1 95.6074C1177.95 95.1467 1179.02 94.8396 1180.17 94.8396C1181.02 94.8396 1181.79 94.9931 1182.55 95.3003C1183.24 95.6074 1183.86 95.9914 1184.32 96.5289L1183.55 97.2968C1182.71 96.4521 1181.56 95.9914 1180.17 95.9914C1179.25 95.9914 1178.41 96.2218 1177.72 96.6057C1176.95 96.9896 1176.41 97.5272 1175.95 98.2951C1175.49 98.9862 1175.34 99.754 1175.34 100.676C1175.34 101.52 1175.57 102.365 1175.95 103.056C1176.41 103.747 1176.95 104.361 1177.64 104.745C1178.41 105.129 1179.18 105.36 1180.1 105.36C1181.25 105.36 1182.25 105.052 1183.01 104.515L1183.09 100.599ZM1187.54 94.9931H1188.69V106.204H1187.54V94.9931ZM1199.97 95.9914V94.9931H1192.3V95.9914H1199.97ZM1192.3 100.983V99.9844H1199.28V100.983H1193.53H1192.3ZM1192.3 105.129V106.128H1200.2V105.129H1192.3ZM1203.66 105.82C1202.89 105.513 1202.35 105.206 1201.89 104.745L1202.35 103.824C1202.74 104.208 1203.27 104.592 1203.97 104.822C1204.66 105.052 1205.35 105.206 1206.04 105.206C1207.03 105.206 1207.8 105.052 1208.26 104.669C1208.72 104.285 1209.03 103.824 1209.03 103.21C1209.03 102.749 1208.88 102.365 1208.57 102.135C1208.26 101.827 1207.96 101.674 1207.57 101.52C1207.19 101.367 1206.65 101.213 1205.88 101.059C1205.04 100.829 1204.35 100.599 1203.89 100.445C1203.43 100.215 1202.97 99.9844 1202.58 99.5237C1202.2 99.1397 1202.05 98.6022 1202.05 97.8343C1202.05 97.2968 1202.2 96.7593 1202.51 96.2985C1202.81 95.8378 1203.27 95.4539 1203.89 95.2235C1204.5 94.9163 1205.27 94.7628 1206.19 94.7628C1206.8 94.7628 1207.5 94.8396 1208.03 94.9931C1208.65 95.1467 1209.18 95.4539 1209.64 95.761L1209.26 96.6825C1208.8 96.3753 1208.34 96.145 1207.73 95.9914C1207.19 95.8378 1206.65 95.761 1206.19 95.761C1205.19 95.761 1204.43 95.9146 1203.97 96.2985C1203.5 96.6825 1203.2 97.1432 1203.2 97.7575C1203.2 98.2183 1203.35 98.6022 1203.66 98.8326C1203.97 99.1397 1204.27 99.2933 1204.66 99.4469C1205.12 99.6005 1205.58 99.754 1206.34 99.9076C1207.19 100.138 1207.8 100.292 1208.34 100.522C1208.8 100.752 1209.26 100.983 1209.64 101.367C1210.03 101.751 1210.18 102.288 1210.18 102.979C1210.18 103.517 1210.03 104.054 1209.72 104.515C1209.41 104.976 1208.95 105.36 1208.34 105.59C1207.73 105.897 1206.96 106.051 1206.04 106.051C1205.27 106.281 1204.5 106.128 1203.66 105.82ZM1114.86 105.82C1114.1 105.513 1113.56 105.206 1113.1 104.745L1113.56 103.824C1113.94 104.208 1114.48 104.592 1115.17 104.822C1115.86 105.052 1116.55 105.206 1117.24 105.206C1118.24 105.206 1119.01 105.052 1119.47 104.669C1119.93 104.285 1120.24 103.824 1120.24 103.21C1120.24 102.749 1120.08 102.365 1119.78 102.135C1119.47 101.827 1119.16 101.674 1118.78 101.52C1118.39 101.367 1117.86 101.213 1117.09 101.059C1116.25 100.829 1115.55 100.599 1115.09 100.445C1114.63 100.215 1114.17 99.9844 1113.79 99.5237C1113.41 99.1397 1113.25 98.6022 1113.25 97.8343C1113.25 97.2968 1113.41 96.7593 1113.71 96.2985C1114.02 95.8378 1114.48 95.4539 1115.09 95.2235C1115.71 94.9163 1116.48 94.7628 1117.4 94.7628C1118.01 94.7628 1118.7 94.8396 1119.24 94.9931C1119.85 95.1467 1120.39 95.4539 1120.85 95.761L1120.47 96.6825C1120.01 96.3753 1119.55 96.145 1118.93 95.9914C1118.39 95.8378 1117.86 95.761 1117.4 95.761C1116.4 95.761 1115.63 95.9146 1115.17 96.2985C1114.71 96.6825 1114.4 97.1432 1114.4 97.7575C1114.4 98.2183 1114.56 98.6022 1114.86 98.8326C1115.17 99.1397 1115.48 99.2933 1115.86 99.4469C1116.32 99.6005 1116.78 99.754 1117.55 99.9076C1118.39 100.138 1119.01 100.292 1119.55 100.522C1120.01 100.752 1120.47 100.983 1120.85 101.367C1121.23 101.751 1121.39 102.288 1121.39 102.979C1121.39 103.517 1121.23 104.054 1120.93 104.515C1120.62 104.976 1120.16 105.36 1119.55 105.59C1118.93 105.897 1118.16 106.051 1117.24 106.051C1116.4 106.281 1115.63 106.128 1114.86 105.82Z" fill="#9D60FF"/>
<path d="M1114.86 45.0801L1106.65 27.649L1101.74 58.5181H1105.19L1114.86 45.0801ZM1121.23 50.0714L1116.01 46.3087L1107.42 58.4413L1119.62 56.5984L1121.23 50.0714ZM1086.01 31.7188L1100.36 57.0592L1105.27 26.19L1086.01 31.7188ZM1119.24 43.8515L1123.77 43.4675V40.8567L1119.24 43.8515ZM1124.15 44.9265L1117.63 45.5408L1133.21 56.9056L1124.15 44.9265ZM1118.16 62.7415L1119.16 58.2878L1106.96 59.9771L1109.64 63.279L1118.16 62.7415ZM1134.36 59.5932L1131.82 65.7363L1136.2 60.9754L1134.36 59.5932ZM1120.85 63.8166L1132.51 58.211L1122.61 51.0696C1121.62 55.1394 1120.54 59.0557 1119.7 63.2023L1120.85 63.8166ZM1128.91 68.4239L1132.44 60.0539L1122.61 64.8148L1128.91 68.4239ZM1084.93 32.9475L1074.57 53.834L1099.28 58.1342L1084.93 32.9475ZM1067.28 64.9684L1084.01 31.0277L1080.25 24.6543L1067.28 64.9684ZM1118.78 23.5024L1113.41 28.8776L1120.77 33.8689L1124.53 28.5705L1118.78 23.5024ZM1114.33 20.4309L1113.41 26.7276L1117.93 22.197L1118.55 15.7468L1114.33 20.4309ZM1111.64 27.649L1112.71 20.9684L1081.48 23.5792L1085.32 30.1063L1106.11 24.1167C1106.42 24.0399 1106.65 24.1935 1106.88 24.3471L1111.64 27.649ZM1108.19 27.1883L1116.01 44.0818L1123.54 39.0138L1120.54 35.6351C1120.54 35.6351 1109.18 27.8794 1108.19 27.1883ZM1100.82 71.8794L1075.65 98.1412L1117.4 88.1586L1100.82 71.8794ZM1077.57 55.9073L1100.05 69.4989V59.8236L1077.57 55.9073ZM1098.29 70.19L1073.8 55.3698L1064.75 73.7223L1098.29 70.19ZM1126.68 115.495L1118.09 119.719H1126.07L1126.68 115.495ZM1077.18 110.504L1069.05 113.729L1081.1 118.797L1077.18 110.504ZM1083.24 119.719H1111.64L1074.88 101.366L1083.24 119.719ZM1082.09 121.255L1066.51 114.42C1066.21 114.344 1066.05 113.96 1066.05 113.653C1066.05 113.192 1066.51 112.885 1066.51 112.885L1076.34 108.968L1072.58 100.214C1072.35 99.6002 1072.27 99.2162 1072.81 98.6787L1098.9 71.5722L1063.75 75.2581C1063.14 75.3349 1062.37 75.2581 1062.68 74.3366C1068.2 57.2127 1073.65 39.8584 1079.18 22.581C1079.33 22.2738 1079.48 22.1202 1079.94 21.9667L1113.33 19.2023L1119.01 13.0591C1119.31 12.752 1119.62 12.752 1119.93 12.9056C1120.24 13.0591 1120.39 13.3663 1120.39 13.6735L1119.62 22.197L1126.07 27.8794C1126.38 28.1865 1126.38 28.6473 1126.22 28.9544L1122.08 34.944L1125.15 38.4763C1125.3 38.6298 1125.3 38.7834 1125.3 38.937V43.8515L1137.81 60.2075C1138.12 60.5146 1137.96 60.9754 1137.81 61.2825L1129.98 70.1133C1129.68 70.4204 1129.37 70.4204 1129.06 70.2668L1118.7 64.4309L1109.41 64.8916C1109.11 64.8916 1108.95 64.738 1108.8 64.5845L1105.12 60.1307H1101.59V70.4972L1119.62 87.9283C1119.93 88.2354 1119.93 88.6962 1119.62 89.0033C1119.47 89.1569 1119.39 89.2337 1119.16 89.3105L1075.26 99.8305L1114.63 119.719L1127.37 113.269C1127.6 113.192 1128.06 113.115 1128.29 113.269C1128.6 113.576 1128.6 114.036 1128.6 114.036L1127.68 120.717C1127.53 121.024 1127.22 121.331 1126.91 121.331C1111.95 121.255 1097.06 121.255 1082.09 121.255Z" fill="#9D60FF"/>
<path d="M487.917 61.2891C491.543 61.2891 494.651 62.2482 496.982 64.2538C499.399 66.1722 500.953 68.8753 501.644 72.1889H494.305C493.787 70.8809 492.924 69.7473 491.802 69.0497C490.679 68.2649 489.298 67.9161 487.83 67.9161C485.758 67.9161 484.118 68.7009 482.909 70.1833C481.701 71.6657 481.01 73.6712 481.01 76.2C481.01 78.7288 481.614 80.7343 482.909 82.2167C484.118 83.6991 485.845 84.4839 487.83 84.4839C489.384 84.4839 490.679 84.1351 491.802 83.3503C492.924 82.5655 493.787 81.5191 494.305 80.2111H501.644C500.953 83.5247 499.399 86.1406 496.982 88.059C494.564 89.9774 491.543 91.0238 487.917 91.0238C485.154 91.0238 482.65 90.4134 480.578 89.1926C478.42 87.9718 476.866 86.2278 475.657 83.9607C474.535 81.6935 473.931 79.1648 473.931 76.2872C473.931 73.4097 474.535 70.8809 475.657 68.6137C476.78 66.3466 478.42 64.6026 480.578 63.3818C482.65 61.8995 485.068 61.2891 487.917 61.2891ZM455.369 61.2891C458.995 61.2891 461.931 62.161 464.262 63.9922C466.592 65.7362 468.06 68.1777 468.578 71.2297H461.24C460.722 70.1833 460.031 69.3985 458.995 68.7009C457.959 68.0905 456.751 67.7418 455.369 67.7418C453.211 67.7418 451.398 68.5265 450.103 70.0089C448.808 71.4913 448.117 73.4969 448.117 76.1128C448.117 78.9032 448.808 80.9959 450.189 82.4783C451.571 83.9607 453.556 84.6583 456.146 84.6583C457.787 84.6583 459.254 84.2223 460.463 83.2631C461.672 82.3039 462.621 80.9959 463.139 79.3392H454.333V74.2816H468.923V81.2575C468.405 83.0015 467.542 84.5711 466.333 85.9662C465.125 87.4486 463.571 88.5822 461.758 89.5414C459.859 90.4134 457.787 90.9366 455.369 90.9366C452.434 90.9366 449.93 90.3262 447.772 89.1054C445.614 87.8846 443.887 86.1406 442.765 83.8735C441.556 81.6063 440.952 79.0776 440.952 76.2C440.952 73.3225 441.556 70.7937 442.765 68.5265C443.973 66.2594 445.614 64.5154 447.772 63.2946C450.017 61.8995 452.52 61.2891 455.369 61.2891ZM435.34 90.675H428.347L416.692 72.7993V90.675H409.699V61.5507H416.692L428.347 79.6007V61.5507H435.34V90.675Z" fill="#9D60FF"/>
<path d="M671.46 67.7421C673.964 67.7421 676.036 68.4397 677.59 69.7476C679.144 71.0556 680.093 72.8868 680.352 75.154H676.813C676.64 73.846 676.122 72.7124 675.172 71.8404C674.223 70.9684 673.014 70.5324 671.374 70.5324C670.079 70.5324 669.043 70.8812 668.266 71.4916C667.489 72.102 667.143 72.974 667.143 74.1076C667.143 74.8924 667.402 75.5899 667.92 76.1131C668.438 76.6363 669.043 76.9851 669.82 77.2467C670.597 77.5083 671.633 77.7699 672.928 78.1187C674.568 78.4675 675.949 78.9035 676.899 79.2523C677.935 79.6883 678.798 80.2987 679.489 81.1707C680.18 82.0426 680.611 83.2634 680.611 84.7458C680.611 86.577 679.921 88.0593 678.539 89.1929C677.158 90.3265 675.345 90.9369 673.1 90.9369C670.424 90.9369 668.266 90.3265 666.539 89.0185C664.812 87.7105 663.863 85.9666 663.604 83.6122H667.23C667.402 85.0074 667.92 86.0538 669.043 86.9258C670.079 87.7977 671.46 88.2337 673.187 88.2337C674.482 88.2337 675.431 87.8849 676.208 87.2745C676.899 86.577 677.331 85.7922 677.331 84.6586C677.331 83.7866 677.072 83.089 676.554 82.5658C676.036 82.0426 675.431 81.6066 674.654 81.345C673.877 81.0835 672.841 80.8219 671.546 80.4731C669.906 80.1243 668.525 79.6883 667.575 79.3395C666.625 78.9907 665.762 78.3803 665.071 77.5083C664.381 76.6363 664.035 75.5027 664.035 74.1076C664.035 72.1892 664.726 70.7068 666.107 69.4861C667.143 68.3525 669.043 67.7421 671.46 67.7421ZM656.611 78.3803C656.697 76.7235 656.438 75.3284 655.834 74.1948C655.23 73.0612 654.366 72.2764 653.244 71.666C652.122 71.0556 650.999 70.8812 649.704 70.8812C647.632 70.8812 645.992 71.4916 644.611 72.7996C643.229 74.1076 642.452 75.9387 642.366 78.3803H656.611ZM660.41 78.1187C660.41 78.9035 660.323 79.6011 660.237 80.2115H642.366C642.452 82.8274 643.143 84.7458 644.524 86.0538C645.906 87.3617 647.546 87.9721 649.532 87.9721C651.345 87.9721 652.812 87.5361 654.021 86.577C655.23 85.6178 656.007 84.397 656.266 82.9146H660.237C659.978 84.4842 659.374 85.8794 658.424 87.1002C657.474 88.3209 656.266 89.2801 654.798 89.9777C653.33 90.6753 651.604 91.0241 649.704 91.0241C647.546 91.0241 645.647 90.5881 644.006 89.6289C642.366 88.6697 641.071 87.3617 640.121 85.6178C639.172 83.8738 638.74 81.8682 638.74 79.4267C638.74 77.0723 639.172 74.9796 640.121 73.2356C641.071 71.4916 642.366 70.0964 644.006 69.2245C645.647 68.2653 647.546 67.8293 649.704 67.8293C651.863 67.8293 653.762 68.2653 655.402 69.2245C657.043 70.1836 658.251 71.4044 659.115 72.974C659.978 74.4564 660.41 76.2003 660.41 78.1187ZM628.639 72.6252C629.33 71.0556 630.452 69.8348 631.833 68.9629C633.215 68.0909 634.941 67.6549 636.927 67.6549V71.7532H635.805C633.733 71.7532 632.006 72.2764 630.711 73.41C629.416 74.4564 628.725 76.2875 628.725 78.8163V90.6753H625.013V68.0909H628.725V72.6252H628.639ZM619.747 68.0909V90.6753H616.034V85.3562C615.43 87.1874 614.48 88.5825 613.013 89.5417C611.545 90.5009 609.905 91.0241 607.919 91.0241C605.329 91.0241 603.257 90.1521 601.617 88.4953C599.977 86.8386 599.2 84.397 599.2 81.2579V68.0909H602.912V80.9091C602.912 83.1762 603.516 84.9202 604.639 86.141C605.761 87.3617 607.315 87.9721 609.301 87.9721C611.372 87.9721 612.926 87.2745 614.221 85.9666C615.43 84.6586 616.034 82.653 616.034 80.1243V68.0909H619.747ZM596.092 87.3617V90.6753H593.329C591.084 90.6753 589.358 90.1521 588.235 89.0185C587.113 87.8849 586.509 86.0538 586.509 83.525V71.3172H583.142V68.0909H586.509V62.423H590.221V68.0909H596.005V71.3172H590.221V83.6122C590.221 85.0946 590.48 86.0538 590.998 86.577C591.516 87.1001 592.466 87.3617 593.761 87.3617H596.092ZM571.746 67.6549C574.336 67.6549 576.494 68.5269 578.048 70.1836C579.688 71.8404 580.465 74.282 580.465 77.5083V90.6753H576.753V77.8571C576.753 75.5899 576.149 73.846 575.026 72.7124C573.904 71.4916 572.35 70.8812 570.364 70.8812C568.292 70.8812 566.738 71.5788 565.443 72.8868C564.235 74.1948 563.63 76.2003 563.63 78.7291V90.6753H559.918V68.0909H563.63V73.41C564.235 71.5788 565.184 70.1836 566.652 69.1373C568.206 68.1781 569.846 67.6549 571.746 67.6549ZM552.148 78.3803C552.235 76.7235 551.976 75.3284 551.371 74.1948C550.767 73.0612 549.904 72.2764 548.781 71.666C547.659 71.0556 546.537 70.8812 545.242 70.8812C543.17 70.8812 541.529 71.4916 540.148 72.7996C538.767 74.1076 537.99 75.9387 537.903 78.3803H552.148ZM555.947 78.1187C555.947 78.9035 555.861 79.6011 555.774 80.2115H537.903C537.99 82.8274 538.68 84.7458 540.062 86.0538C541.443 87.3617 543.083 87.9721 545.069 87.9721C546.882 87.9721 548.35 87.5361 549.558 86.577C550.767 85.6178 551.544 84.397 551.803 82.9146H555.774C555.515 84.4842 554.911 85.8794 553.961 87.1002C553.012 88.3209 551.803 89.2801 550.335 89.9777C548.868 90.6753 547.141 91.0241 545.242 91.0241C543.083 91.0241 541.184 90.5881 539.544 89.6289C537.903 88.6697 536.608 87.3617 535.659 85.6178C534.709 83.8738 534.277 81.8682 534.277 79.4267C534.277 77.0723 534.709 74.9796 535.659 73.2356C536.608 71.4916 537.903 70.0964 539.544 69.2245C541.184 68.2653 543.083 67.8293 545.242 67.8293C547.4 67.8293 549.299 68.2653 550.94 69.2245C552.58 70.1836 553.789 71.4044 554.652 72.974C555.515 74.4564 555.947 76.2003 555.947 78.1187ZM510.709 61.6382L519.428 86.4898L528.32 61.6382H532.378L521.845 90.6753H517.183L506.651 61.6382H510.709Z" fill="#9D60FF"/>
<path fill-rule="evenodd" clip-rule="evenodd" d="M351.166 56.5806L362.302 63.3821V93.5527L351.166 86.8384V56.5806Z" fill="#9D60FF"/>
<path d="M351.166 56.5806L362.302 63.3821V93.5527L351.166 86.8384V56.5806Z" stroke="#9D60FF" stroke-width="0.5669" stroke-miterlimit="22.9256"/>
<path fill-rule="evenodd" clip-rule="evenodd" d="M368.173 56.5806L379.31 63.3821V93.5527L368.173 86.8384V56.5806Z" fill="#9D60FF"/>
<path d="M368.173 56.5806L379.31 63.3821V93.5527L368.173 86.8384V56.5806Z" stroke="#9D60FF" stroke-width="0.5669" stroke-miterlimit="22.9256"/>
<path fill-rule="evenodd" clip-rule="evenodd" d="M385.094 56.5806L396.231 63.3821V93.5527L385.094 86.8384V56.5806Z" fill="#9D60FF"/>
<path d="M385.094 56.5806L396.231 63.3821V93.5527L385.094 86.8384V56.5806Z" stroke="#9D60FF" stroke-width="0.5669" stroke-miterlimit="22.9256"/>
<path d="M931.629 121.523H933.271V128.891H937.853V130.277H931.629V121.523ZM926.096 126.984L924.453 123.17L922.81 126.984H926.096ZM926.614 128.284H922.205L921.341 130.277H919.698L923.589 121.523H925.145L929.122 130.277H927.393L926.614 128.284ZM914.338 122.91H911.485V121.523H918.92V122.91H916.067V130.277H914.424V122.91H914.338ZM907.249 121.523H908.891V130.277H907.249V121.523ZM900.505 126.377C901.197 126.377 901.716 126.204 902.148 125.944C902.58 125.684 902.667 125.25 902.667 124.643C902.667 124.123 902.494 123.69 902.148 123.343C901.802 122.997 901.283 122.91 900.505 122.91H898.603V126.377H900.505ZM900.592 121.523C901.37 121.523 901.975 121.61 902.58 121.87C903.099 122.13 903.531 122.476 903.877 122.91C904.136 123.343 904.309 123.95 904.309 124.557C904.309 125.163 904.136 125.77 903.877 126.204C903.618 126.637 903.185 127.07 902.58 127.244C902.062 127.504 901.37 127.59 900.592 127.59H898.603V130.104H896.961V121.35H900.592V121.523ZM891.428 126.984L889.785 123.17L888.142 126.984H891.428ZM891.946 128.284H887.537L886.673 130.277H885.03L888.921 121.523H890.477L894.454 130.277H892.725L891.946 128.284ZM880.102 130.364C879.238 130.364 878.46 130.191 877.682 129.757C876.99 129.411 876.385 128.804 876.039 128.111C875.607 127.417 875.434 126.637 875.434 125.77C875.434 124.903 875.607 124.123 876.039 123.43C876.471 122.736 876.99 122.216 877.682 121.783C878.373 121.436 879.151 121.176 880.102 121.176C880.794 121.176 881.485 121.263 882.091 121.523C882.696 121.783 883.215 122.13 883.56 122.65L882.523 123.603C881.918 122.91 881.14 122.563 880.189 122.563C879.583 122.563 879.065 122.736 878.546 122.997C878.114 123.257 877.682 123.603 877.422 124.123C877.163 124.557 876.99 125.077 876.99 125.684C876.99 126.29 877.163 126.81 877.422 127.244C877.682 127.677 878.027 128.111 878.546 128.371C878.978 128.631 879.583 128.804 880.189 128.804C881.14 128.804 881.918 128.457 882.523 127.764L883.56 128.804C883.128 129.237 882.609 129.671 882.091 129.931C881.485 130.277 880.88 130.364 880.102 130.364ZM867.393 130.277V124.47L864.54 129.237H863.849L860.996 124.47V130.191H859.44V121.436H860.737L864.195 127.244L867.566 121.436H868.863V130.191H867.393V130.277ZM852.869 128.891V130.277H846.299V121.523H852.696V122.91H847.941V125.163H852.178V126.464H847.941V128.891H852.869ZM843.186 128.891V130.277H836.616V121.523H843.013V122.91H838.258V125.163H842.495V126.464H838.258V128.891H843.186ZM831.861 124.643C831.861 124.123 831.688 123.69 831.342 123.343C830.996 123.083 830.478 122.91 829.7 122.91H827.798V126.377H829.7C830.391 126.377 830.91 126.204 831.342 125.944C831.602 125.597 831.861 125.163 831.861 124.643ZM831.861 130.277L830.045 127.677C829.959 127.677 829.872 127.677 829.7 127.677H827.711V130.191H826.068V121.436H829.7C830.478 121.436 831.083 121.523 831.688 121.783C832.207 122.043 832.639 122.39 832.985 122.823C833.244 123.257 833.417 123.863 833.417 124.47C833.417 125.163 833.244 125.684 832.898 126.204C832.553 126.637 832.12 127.07 831.515 127.244L833.504 130.104H831.861V130.277ZM822.437 121.523V130.277H820.795V126.55H816.299V130.277H814.657V121.523H816.299V125.163H820.795V121.523H822.437ZM807.654 122.91H804.801V121.523H812.236V122.91H809.383V130.277H807.74V122.91H807.654Z" fill="#9D60FF"/>
<path fill-rule="evenodd" clip-rule="evenodd" d="M871.111 13.6084C846.99 13.6084 827.452 33.1977 827.452 57.3809C827.452 81.5642 846.99 101.153 871.111 101.153C895.232 101.153 914.857 81.5642 914.857 57.3809C914.857 33.1977 895.318 13.6084 871.111 13.6084ZM871.111 16.9022C848.806 16.9022 830.65 35.1046 830.65 57.4676C830.65 79.8306 848.806 98.0331 871.111 98.0331C893.416 98.0331 911.571 79.8306 911.571 57.4676C911.571 35.1046 893.503 16.9022 871.111 16.9022ZM869.382 37.1849H874.742C875.347 37.1849 875.866 37.705 875.866 38.3117V76.5369C875.866 77.1436 875.347 77.6637 874.742 77.6637H869.382C868.777 77.6637 868.258 77.1436 868.258 76.5369V38.3117C868.171 37.705 868.69 37.1849 869.382 37.1849ZM886.586 30.5107H891.946C892.552 30.5107 893.07 31.0307 893.07 31.6375V82.8644C893.07 83.4711 892.552 83.9912 891.946 83.9912H886.586C885.981 83.9912 885.462 83.4711 885.462 82.8644V31.6375C885.462 31.0307 885.981 30.5107 886.586 30.5107ZM849.93 30.5107H855.29C855.895 30.5107 856.414 31.0307 856.414 31.6375V82.8644C856.414 83.4711 855.895 83.9912 855.29 83.9912H849.93C849.325 83.9912 848.806 83.4711 848.806 82.8644V31.6375C848.806 31.0307 849.325 30.5107 849.93 30.5107Z" fill="#9D60FF"/>
</svg>
