<svg width="91" height="72" viewBox="0 0 91 72" fill="none" xmlns="http://www.w3.org/2000/svg">
<path d="M38.5229 50.1189H36.3995V49.5809H41.3124V50.1189H39.1891V55.582H38.5645L38.5229 50.1189ZM45.684 53.554C46.142 53.3885 46.4751 53.1815 46.7249 52.8505C46.9747 52.5194 47.058 52.1469 47.058 51.6502C47.058 50.9881 46.8498 50.4914 46.3918 50.1189C45.9338 49.7465 45.3509 49.5809 44.5599 49.5809H42.3116V55.6234H42.9362V50.1603H44.5599C45.1844 50.1603 45.6008 50.2845 45.9338 50.5742C46.2669 50.8225 46.3918 51.195 46.3918 51.6916C46.3918 52.1469 46.2253 52.5194 45.9338 52.8091C45.684 53.016 45.3093 53.1815 44.893 53.1815H44.7264L45.0595 53.6782L46.4751 55.6647H47.1829L45.684 53.554ZM55.2599 42.959C55.0101 42.5038 54.5938 42.1313 54.0942 41.883C53.5946 41.6347 53.0533 41.5105 52.3872 41.5105H49.9307V42.0485H50.5553H52.3455C52.8868 42.0485 53.3448 42.1727 53.7611 42.3796C54.1775 42.5866 54.4689 42.8763 54.6771 43.2487C54.8852 43.6212 55.0101 44.0351 55.0101 44.5317C55.0101 44.987 54.8852 45.4422 54.6771 45.8147C54.4689 46.1872 54.1358 46.4769 53.7611 46.6838C53.3448 46.8908 52.8868 47.0149 52.3455 47.0149H50.5553H49.9307V47.553H52.3872C53.0117 47.553 53.5946 47.4288 54.0942 47.1805C54.5938 46.9322 54.9685 46.5597 55.2599 46.1044C55.5098 45.6492 55.6763 45.1525 55.6763 44.5317C55.6763 43.9523 55.5514 43.4143 55.2599 42.959ZM57.0919 41.5105H57.7164V47.553H57.0919V41.5105ZM64.0032 44.5317H64.6277V46.8494C64.3363 47.0977 64.0032 47.3046 63.6285 47.4288C63.2538 47.553 62.8374 47.6357 62.4211 47.6357C61.7966 47.6357 61.2553 47.5116 60.7557 47.2219C60.2977 46.9735 59.8814 46.6011 59.5899 46.1044C59.3401 45.6492 59.1736 45.1111 59.1736 44.5317C59.1736 43.9523 59.2985 43.4143 59.5899 42.959C59.8397 42.5038 60.2561 42.1313 60.7557 41.8416C61.2137 41.5933 61.7966 41.4277 62.4211 41.4277C62.879 41.4277 63.2954 41.5105 63.7117 41.6761C64.0864 41.8416 64.4195 42.0485 64.6693 42.3382L64.253 42.7521C63.795 42.2969 63.1705 42.0485 62.4211 42.0485C61.9215 42.0485 61.4635 42.1727 61.0888 42.3796C60.6724 42.5866 60.381 42.8763 60.1312 43.2901C59.8814 43.6626 59.7981 44.0765 59.7981 44.5731C59.7981 45.0284 59.923 45.4836 60.1312 45.8561C60.381 46.2286 60.6724 46.5597 61.0471 46.7666C61.4635 46.9735 61.8798 47.0977 62.3794 47.0977C63.004 47.0977 63.5452 46.9322 63.9615 46.6425L64.0032 44.5317ZM66.418 41.5105H67.0425V47.553H66.418V41.5105ZM70.2067 42.0485H68.0834V41.5105H72.9962V42.0485H70.8729V47.5116H70.2483L70.2067 42.0485ZM76.1604 41.5105H75.4943L72.7048 47.553H73.3709L75.7857 42.1727L78.2005 47.553H78.9083L76.1604 41.5105ZM79.9075 41.5105H80.5737V46.9735H83.9461V47.5116H79.9075V41.5105ZM51.0132 49.5809H50.3887L47.5992 55.6234H48.2654L50.6802 50.2431L53.095 55.6234H53.7611L51.0132 49.5809ZM55.6347 50.1189H53.5113V49.5809H58.4242V50.1189H56.3008V55.582H55.6763L55.6347 50.1189ZM59.4234 49.5809H63.5868V50.1189H59.4234V49.5809ZM59.4234 52.271H63.2121V52.8091H59.4234V52.271ZM59.4234 55.0439H63.7117V55.582H59.4234V55.0439ZM69.4989 52.6021H70.1234V54.9198C69.832 55.1681 69.4989 55.375 69.1242 55.4992C68.7495 55.6234 68.3332 55.7061 67.9168 55.7061C67.2923 55.7061 66.751 55.582 66.2514 55.2923C65.7935 55.0439 65.3771 54.6715 65.0857 54.1748C64.8359 53.7196 64.6693 53.1815 64.6693 52.6021C64.6693 52.0227 64.7942 51.4847 65.0857 51.0294C65.3355 50.5742 65.7518 50.2017 66.2514 49.912C66.7094 49.6637 67.2923 49.4981 67.9168 49.4981C68.3748 49.4981 68.7911 49.5809 69.2075 49.7465C69.5822 49.912 69.9153 50.1189 70.1651 50.4086L69.7487 50.8225C69.2907 50.3673 68.6662 50.1189 67.9168 50.1189C67.4172 50.1189 66.9592 50.2431 66.5845 50.45C66.1682 50.657 65.8767 50.9467 65.6269 51.3605C65.3771 51.733 65.2938 52.1469 65.2938 52.6435C65.2938 53.0988 65.4187 53.554 65.6269 53.9265C65.8767 54.299 66.1682 54.6301 66.5429 54.837C66.9592 55.0439 67.3756 55.1681 67.8752 55.1681C68.4997 55.1681 69.0409 55.0026 69.4573 54.7129L69.4989 52.6021ZM71.9137 49.5809H72.5382V55.6234H71.9137V49.5809ZM78.6585 50.1189V49.5809H74.4951V50.1189H78.6585ZM74.4951 52.8091V52.271H78.2838V52.8091H75.1612H74.4951ZM74.4951 55.0439V55.582H78.7834V55.0439H74.4951ZM80.6569 55.4164C80.2406 55.2509 79.9492 55.0853 79.6994 54.837L79.9492 54.3404C80.1573 54.5473 80.4488 54.7542 80.8235 54.8784C81.1982 55.0026 81.5729 55.0853 81.9476 55.0853C82.4889 55.0853 82.9052 55.0026 83.155 54.7956C83.4048 54.5887 83.5714 54.3404 83.5714 54.0093C83.5714 53.761 83.4881 53.554 83.3216 53.4299C83.155 53.2643 82.9885 53.1815 82.7803 53.0988C82.5721 53.016 82.2807 52.9332 81.8643 52.8505C81.4064 52.7263 81.0317 52.6021 80.7819 52.5194C80.532 52.3952 80.2822 52.271 80.0741 52.0227C79.8659 51.8158 79.7826 51.5261 79.7826 51.1122C79.7826 50.8225 79.8659 50.5328 80.0324 50.2845C80.199 50.0362 80.4488 49.8292 80.7819 49.7051C81.1149 49.5395 81.5313 49.4567 82.0309 49.4567C82.364 49.4567 82.7387 49.4981 83.0301 49.5809C83.3632 49.6637 83.6546 49.8292 83.9044 49.9948L83.6963 50.4914C83.4465 50.3259 83.1966 50.2017 82.8636 50.1189C82.5721 50.0362 82.2807 49.9948 82.0309 49.9948C81.4896 49.9948 81.0733 50.0775 80.8235 50.2845C80.5737 50.4914 80.4071 50.7397 80.4071 51.0708C80.4071 51.3191 80.4904 51.5261 80.6569 51.6502C80.8235 51.8158 80.99 51.8986 81.1982 51.9813C81.448 52.0641 81.6978 52.1469 82.1142 52.2297C82.5721 52.3538 82.9052 52.4366 83.1966 52.5607C83.4465 52.6849 83.6963 52.8091 83.9044 53.016C84.1126 53.2229 84.1959 53.5126 84.1959 53.8851C84.1959 54.1748 84.1126 54.4645 83.9461 54.7129C83.7795 54.9612 83.5297 55.1681 83.1966 55.2923C82.8636 55.4578 82.4472 55.5406 81.9476 55.5406C81.5313 55.6647 81.1149 55.582 80.6569 55.4164ZM32.4859 55.4164C32.0696 55.2509 31.7781 55.0853 31.5283 54.837L31.7781 54.3404C31.9863 54.5473 32.2777 54.7542 32.6524 54.8784C33.0272 55.0026 33.4019 55.0853 33.7766 55.0853C34.3178 55.0853 34.7342 55.0026 34.984 54.7956C35.2338 54.5887 35.4003 54.3404 35.4003 54.0093C35.4003 53.761 35.3171 53.554 35.1505 53.4299C34.984 53.2643 34.8174 53.1815 34.6093 53.0988C34.4011 53.016 34.1097 52.9332 33.6933 52.8505C33.2353 52.7263 32.8606 52.6021 32.6108 52.5194C32.361 52.3952 32.1112 52.271 31.903 52.0227C31.6949 51.8158 31.6116 51.5261 31.6116 51.1122C31.6116 50.8225 31.6949 50.5328 31.8614 50.2845C32.0279 50.0362 32.2777 49.8292 32.6108 49.7051C32.9439 49.5395 33.3602 49.4567 33.8598 49.4567C34.1929 49.4567 34.5676 49.4981 34.8591 49.5809C35.1922 49.6637 35.4836 49.8292 35.7334 49.9948L35.5252 50.4914C35.2754 50.3259 35.0256 50.2017 34.6925 50.1189C34.4011 50.0362 34.1097 49.9948 33.8598 49.9948C33.3186 49.9948 32.9023 50.0775 32.6524 50.2845C32.4026 50.4914 32.2361 50.7397 32.2361 51.0708C32.2361 51.3191 32.3194 51.5261 32.4859 51.6502C32.6524 51.8158 32.819 51.8986 33.0272 51.9813C33.277 52.0641 33.5268 52.1469 33.9431 52.2297C34.4011 52.3538 34.7342 52.4366 35.0256 52.5607C35.2754 52.6849 35.5252 52.8091 35.7334 53.016C35.9416 53.2229 36.0248 53.5126 36.0248 53.8851C36.0248 54.1748 35.9416 54.4645 35.775 54.7129C35.6085 54.9612 35.3587 55.1681 35.0256 55.2923C34.6925 55.4578 34.2762 55.5406 33.7766 55.5406C33.3186 55.6647 32.9023 55.582 32.4859 55.4164Z" fill="#9D60FF"/>
<path d="M32.486 22.68L28.0312 13.2853L25.3666 29.9227H27.2401L32.486 22.68ZM35.9417 25.3702L33.1106 23.3422L28.4475 29.8813L35.0674 28.888L35.9417 25.3702ZM16.8315 15.4788L24.6171 29.1364L27.2817 12.4989L16.8315 15.4788ZM34.8592 22.0179L37.3156 21.8109V20.4038L34.8592 22.0179ZM37.5238 22.5973L33.9849 22.9284L42.4367 29.0536L37.5238 22.5973ZM34.2763 32.199L34.8176 29.7986L28.1977 30.7091L29.6549 32.4887L34.2763 32.199ZM43.0612 30.5021L41.6872 33.8131L44.0604 31.2471L43.0612 30.5021ZM35.7335 32.7784L42.062 29.7572L36.6911 25.9082C36.1499 28.1017 35.567 30.2124 35.109 32.4473L35.7335 32.7784ZM40.1051 35.2616L42.0203 30.7504L36.6911 33.3164L40.1051 35.2616ZM16.2486 16.141L10.628 27.3981L24.0343 29.7158L16.2486 16.141ZM6.6727 33.3992L15.749 15.1063L13.7089 11.6712L6.6727 33.3992ZM34.6094 11.0504L31.695 13.9475L35.6919 16.6376L37.732 13.7819L34.6094 11.0504ZM32.1946 9.39493L31.695 12.7886L34.1514 10.3468L34.4845 6.87034L32.1946 9.39493ZM30.7374 13.2853L31.3203 9.68464L14.3751 11.0918L16.4568 14.6096L27.7397 11.3815C27.9063 11.3401 28.0312 11.4229 28.1561 11.5056L30.7374 13.2853ZM28.8638 13.037L33.1106 22.142L37.1907 19.4105L35.567 17.5895C35.567 17.5895 29.4051 13.4094 28.8638 13.037ZM24.8669 37.124L11.2108 51.2782L33.86 45.898L24.8669 37.124ZM12.2517 28.5156L24.4506 35.841V30.6263L12.2517 28.5156ZM23.493 36.2135L10.2116 28.2259L5.29876 38.1173L23.493 36.2135ZM38.8977 60.6316L34.2347 62.9079H38.5647L38.8977 60.6316ZM12.0435 57.9415L7.63029 59.6797L14.1669 62.4112L12.0435 57.9415ZM15.3327 62.9079H30.7374L10.7945 53.0165L15.3327 62.9079ZM14.7081 63.7356L6.25635 60.0522C6.08982 60.0108 6.00655 59.8039 6.00655 59.6383C6.00655 59.39 6.25635 59.2245 6.25635 59.2245L11.5856 57.1137L9.54547 52.3957C9.42057 52.0646 9.37894 51.8576 9.67038 51.5679L23.8261 36.9584L4.75752 38.945C4.42444 38.9864 4.0081 38.945 4.17463 38.4484C7.17231 29.2191 10.1284 19.8658 13.126 10.5538C13.2093 10.3882 13.2926 10.3054 13.5424 10.2227L31.6533 8.73274L34.7343 5.42181C34.9008 5.25626 35.0674 5.25626 35.2339 5.33904C35.4004 5.42181 35.4837 5.58736 35.4837 5.7529L35.0674 10.3468L38.5647 13.4094C38.7312 13.575 38.7312 13.8233 38.6479 13.9888L36.3997 17.217L38.065 19.1208C38.1483 19.2036 38.1483 19.2863 38.1483 19.3691V22.0179L44.9347 30.8332C45.1013 30.9988 45.018 31.2471 44.9347 31.4126L40.688 36.1721C40.5215 36.3376 40.3549 36.3376 40.1884 36.2549L34.5678 33.1095L29.53 33.3578C29.3635 33.3578 29.2802 33.275 29.1969 33.1923L27.1985 30.7918H25.2833V36.379L35.0674 45.7738C35.2339 45.9393 35.2339 46.1877 35.0674 46.3532C34.9841 46.436 34.9425 46.4774 34.8176 46.5188L11.0027 52.1887L32.3611 62.9079L39.2724 59.4314C39.3974 59.39 39.6472 59.3486 39.7721 59.4314C39.9386 59.5969 39.9386 59.8453 39.9386 59.8453L39.439 63.4459C39.3557 63.6115 39.1892 63.777 39.0226 63.777C30.9039 63.7356 22.8269 63.7356 14.7081 63.7356Z" fill="#9D60FF"/>
</svg>
