<svg width="166" height="132" viewBox="0 0 166 132" fill="none" xmlns="http://www.w3.org/2000/svg">
<path d="M69.9917 92.9914H66.0777V91.9931H75.1336V92.9914H71.2196V103.128H70.0685L69.9917 92.9914ZM83.1919 99.3649C84.0361 99.0577 84.6501 98.6738 85.1105 98.0594C85.571 97.4451 85.7245 96.754 85.7245 95.8326C85.7245 94.604 85.3408 93.6825 84.4966 92.9914C83.6524 92.3003 82.5779 91.9931 81.1198 91.9931H76.9755V103.204H78.1267V93.0682H81.1198C82.271 93.0682 83.0384 93.2985 83.6524 93.8361C84.2663 94.2968 84.4966 94.9879 84.4966 95.9094C84.4966 96.754 84.1896 97.4451 83.6524 97.9827C83.1919 98.3666 82.5012 98.6738 81.7337 98.6738H81.4268L82.0407 99.5952L84.6501 103.281H85.9547L83.1919 99.3649ZM100.843 79.7069C100.383 78.8622 99.6154 78.1711 98.6945 77.7104C97.7735 77.2497 96.7758 77.0193 95.5479 77.0193H91.0199V78.0176H92.1711H95.4711C96.4688 78.0176 97.313 78.2479 98.0805 78.6319C98.8479 79.0158 99.3852 79.5533 99.7689 80.2444C100.153 80.9355 100.383 81.7034 100.383 82.6249C100.383 83.4696 100.153 84.3142 99.7689 85.0053C99.3852 85.6964 98.7712 86.234 98.0805 86.6179C97.313 87.0019 96.4688 87.2322 95.4711 87.2322H92.1711H91.0199V88.2305H95.5479C96.6991 88.2305 97.7735 88.0001 98.6945 87.5394C99.6154 87.0786 100.306 86.3875 100.843 85.5429C101.304 84.6982 101.611 83.7767 101.611 82.6249C101.611 81.5498 101.381 80.5516 100.843 79.7069ZM104.22 77.0193H105.371V88.2305H104.22V77.0193ZM116.96 82.6249H118.111V86.9251C117.574 87.3858 116.96 87.7697 116.269 88.0001C115.578 88.2305 114.811 88.3841 114.044 88.3841C112.892 88.3841 111.895 88.1537 110.974 87.6162C110.129 87.1554 109.362 86.4643 108.825 85.5429C108.364 84.6982 108.057 83.6999 108.057 82.6249C108.057 81.5498 108.288 80.5516 108.825 79.7069C109.285 78.8622 110.053 78.1711 110.974 77.6336C111.818 77.1729 112.892 76.8657 114.044 76.8657C114.888 76.8657 115.655 77.0193 116.423 77.3265C117.113 77.6336 117.727 78.0176 118.188 78.5551L117.42 79.323C116.576 78.4783 115.425 78.0176 114.044 78.0176C113.123 78.0176 112.278 78.2479 111.588 78.6319C110.82 79.0158 110.283 79.5533 109.823 80.3212C109.362 81.0123 109.209 81.7802 109.209 82.7017C109.209 83.5464 109.439 84.391 109.823 85.0821C110.283 85.7732 110.82 86.3875 111.511 86.7715C112.278 87.1554 113.046 87.3858 113.967 87.3858C115.118 87.3858 116.116 87.0786 116.883 86.5411L116.96 82.6249ZM121.411 77.0193H122.562V88.2305H121.411V77.0193ZM128.395 78.0176H124.481V77.0193H133.537V78.0176H129.623V88.1537H128.472L128.395 78.0176ZM139.369 77.0193H138.142L133 88.2305H134.228L138.679 78.2479L143.13 88.2305H144.435L139.369 77.0193ZM146.277 77.0193H147.504V87.1554H153.721V88.1537H146.277V77.0193ZM93.0153 91.9931H91.8641L86.7222 103.204H87.9501L92.4013 93.2218L96.8526 103.204H98.0805L93.0153 91.9931ZM101.534 92.9914H97.62V91.9931H106.676V92.9914H102.762V103.128H101.611L101.534 92.9914ZM108.518 91.9931H116.192V92.9914H108.518V91.9931ZM108.518 96.9844H115.502V97.9827H108.518V96.9844ZM108.518 102.129H116.423V103.128H108.518V102.129ZM127.09 97.5987H128.241V101.899C127.704 102.36 127.09 102.744 126.399 102.974C125.709 103.204 124.941 103.358 124.174 103.358C123.023 103.358 122.025 103.128 121.104 102.59C120.26 102.129 119.492 101.438 118.955 100.517C118.495 99.672 118.188 98.6738 118.188 97.5987C118.188 96.5237 118.418 95.5254 118.955 94.6807C119.416 93.8361 120.183 93.145 121.104 92.6074C121.948 92.1467 123.023 91.8396 124.174 91.8396C125.018 91.8396 125.786 91.9931 126.553 92.3003C127.244 92.6074 127.858 92.9914 128.318 93.5289L127.551 94.2968C126.706 93.4521 125.555 92.9914 124.174 92.9914C123.253 92.9914 122.409 93.2218 121.718 93.6057C120.951 93.9896 120.413 94.5272 119.953 95.2951C119.492 95.9862 119.339 96.754 119.339 97.6755C119.339 98.5202 119.569 99.3649 119.953 100.056C120.413 100.747 120.951 101.361 121.641 101.745C122.409 102.129 123.176 102.36 124.097 102.36C125.248 102.36 126.246 102.052 127.013 101.515L127.09 97.5987ZM131.541 91.9931H132.693V103.204H131.541V91.9931ZM143.974 92.9914V91.9931H136.3V92.9914H143.974ZM136.3 97.9827V96.9844H143.283V97.9827H137.528H136.3ZM136.3 102.129V103.128H144.204V102.129H136.3ZM147.658 102.82C146.89 102.513 146.353 102.206 145.893 101.745L146.353 100.824C146.737 101.208 147.274 101.592 147.965 101.822C148.656 102.052 149.346 102.206 150.037 102.206C151.035 102.206 151.802 102.052 152.263 101.669C152.723 101.285 153.03 100.824 153.03 100.21C153.03 99.7488 152.877 99.3649 152.57 99.1345C152.263 98.8273 151.956 98.6738 151.572 98.5202C151.188 98.3666 150.651 98.213 149.884 98.0594C149.039 97.8291 148.349 97.5987 147.888 97.4451C147.428 97.2148 146.967 96.9844 146.583 96.5237C146.2 96.1397 146.046 95.6022 146.046 94.8343C146.046 94.2968 146.2 93.7593 146.507 93.2985C146.814 92.8378 147.274 92.4539 147.888 92.2235C148.502 91.9163 149.27 91.7628 150.191 91.7628C150.804 91.7628 151.495 91.8396 152.032 91.9931C152.646 92.1467 153.184 92.4539 153.644 92.761L153.26 93.6825C152.8 93.3753 152.339 93.145 151.725 92.9914C151.188 92.8378 150.651 92.761 150.191 92.761C149.193 92.761 148.425 92.9146 147.965 93.2985C147.504 93.6825 147.197 94.1432 147.197 94.7575C147.197 95.2183 147.351 95.6022 147.658 95.8326C147.965 96.1397 148.272 96.2933 148.656 96.4469C149.116 96.6005 149.577 96.754 150.344 96.9076C151.188 97.138 151.802 97.2916 152.339 97.5219C152.8 97.7523 153.26 97.9827 153.644 98.3666C154.028 98.7506 154.181 99.2881 154.181 99.9792C154.181 100.517 154.028 101.054 153.721 101.515C153.414 101.976 152.953 102.36 152.339 102.59C151.725 102.897 150.958 103.051 150.037 103.051C149.27 103.281 148.502 103.128 147.658 102.82ZM58.8636 102.82C58.0962 102.513 57.559 102.206 57.0985 101.745L57.559 100.824C57.9427 101.208 58.4799 101.592 59.1706 101.822C59.8613 102.052 60.552 102.206 61.2428 102.206C62.2404 102.206 63.0079 102.052 63.4684 101.669C63.9288 101.285 64.2358 100.824 64.2358 100.21C64.2358 99.7488 64.0823 99.3649 63.7753 99.1345C63.4684 98.8273 63.1614 98.6738 62.7777 98.5202C62.3939 98.3666 61.8567 98.213 61.0893 98.0594C60.2451 97.8291 59.5544 97.5987 59.0939 97.4451C58.6334 97.2148 58.1729 96.9844 57.7892 96.5237C57.4055 96.1397 57.252 95.6022 57.252 94.8343C57.252 94.2968 57.4055 93.7593 57.7125 93.2985C58.0195 92.8378 58.4799 92.4539 59.0939 92.2235C59.7078 91.9163 60.4753 91.7628 61.3962 91.7628C62.0102 91.7628 62.7009 91.8396 63.2381 91.9931C63.8521 92.1467 64.3893 92.4539 64.8498 92.761L64.4661 93.6825C64.0056 93.3753 63.5451 93.145 62.9312 92.9914C62.3939 92.8378 61.8567 92.761 61.3962 92.761C60.3986 92.761 59.6311 92.9146 59.1706 93.2985C58.7102 93.6825 58.4032 94.1432 58.4032 94.7575C58.4032 95.2183 58.5567 95.6022 58.8636 95.8326C59.1706 96.1397 59.4776 96.2933 59.8613 96.4469C60.3218 96.6005 60.7823 96.754 61.5497 96.9076C62.3939 97.138 63.0079 97.2916 63.5451 97.5219C64.0056 97.7523 64.4661 97.9827 64.8498 98.3666C65.2335 98.7506 65.387 99.2881 65.387 99.9792C65.387 100.517 65.2335 101.054 64.9265 101.515C64.6195 101.976 64.1591 102.36 63.5451 102.59C62.9312 102.897 62.1637 103.051 61.2428 103.051C60.3986 103.281 59.6311 103.128 58.8636 102.82Z" fill="#9D60FF"/>
<path d="M58.8636 42.0801L50.6519 24.649L45.7402 55.5181H49.1937L58.8636 42.0801ZM65.2335 47.0714L60.0148 43.3087L51.4193 55.4413L63.6218 53.5984L65.2335 47.0714ZM30.0074 28.7188L44.3587 54.0592L49.2704 23.19L30.0074 28.7188ZM63.2381 40.8515L67.766 40.4675V37.8567L63.2381 40.8515ZM68.1498 41.9265L61.6264 42.5408L77.2057 53.9056L68.1498 41.9265ZM62.1636 59.7415L63.1613 55.2878L50.9588 56.9771L53.6449 60.279L62.1636 59.7415ZM78.3569 56.5932L75.8243 62.7363L80.1988 57.9754L78.3569 56.5932ZM64.8497 60.8166L76.515 55.211L66.6149 48.0696C65.6172 52.1394 64.5427 56.0557 63.6985 60.2023L64.8497 60.8166ZM72.908 65.4239L76.4383 57.0539L66.6149 61.8148L72.908 65.4239ZM28.9329 29.9475L18.5723 50.834L43.2843 55.1342L28.9329 29.9475ZM11.2815 61.9684L28.012 28.0277L24.2515 21.6543L11.2815 61.9684ZM62.7776 20.5024L57.4054 25.8776L64.773 30.8689L68.5335 25.5705L62.7776 20.5024ZM58.3264 17.4309L57.4054 23.7276L61.9334 19.197L62.5474 12.7468L58.3264 17.4309ZM55.6403 24.649L56.7147 17.9684L25.4794 20.5792L29.3167 27.1063L50.1146 21.1167C50.4216 21.0399 50.6519 21.1935 50.8821 21.3471L55.6403 24.649ZM52.1868 24.1883L60.0148 41.0818L67.5358 36.0138L64.5427 32.6351C64.5427 32.6351 53.1844 24.8794 52.1868 24.1883ZM44.8192 68.8794L19.6468 95.1412L61.3962 85.1586L44.8192 68.8794ZM21.5654 52.9073L44.0518 66.4989V56.8236L21.5654 52.9073ZM42.2866 67.19L17.8049 52.3698L8.74894 70.7223L42.2866 67.19ZM70.6824 112.495L62.0869 116.719H70.0684L70.6824 112.495ZM21.1817 107.504L13.0467 110.729L25.0957 115.797L21.1817 107.504ZM27.2446 116.719H55.6403L18.8793 98.3663L27.2446 116.719ZM26.0934 118.255L10.5141 111.42C10.2071 111.344 10.0536 110.96 10.0536 110.653C10.0536 110.192 10.5141 109.885 10.5141 109.885L20.3375 105.968L16.577 97.2145C16.3467 96.6002 16.27 96.2162 16.8072 95.6787L42.9006 68.5722L7.75126 72.2581C7.13729 72.3349 6.36984 72.2581 6.67682 71.3366C12.2025 54.2127 17.6514 36.8584 23.1771 19.581C23.3305 19.2738 23.484 19.1202 23.9445 18.9667L57.3287 16.2023L63.0078 10.0591C63.3148 9.75199 63.6218 9.75199 63.9288 9.90557C64.2358 10.0591 64.3893 10.3663 64.3893 10.6735L63.6218 19.197L70.0684 24.8794C70.3754 25.1865 70.3754 25.6473 70.2219 25.9544L66.0776 31.944L69.1475 35.4763C69.3009 35.6298 69.301 35.7834 69.301 35.937V40.8515L81.8104 57.2075C82.1174 57.5146 81.9639 57.9754 81.8104 58.2825L73.9824 67.1133C73.6754 67.4204 73.3684 67.4204 73.0615 67.2668L62.7009 61.4309L53.4147 61.8916C53.1077 61.8916 52.9542 61.738 52.8007 61.5845L49.1169 57.1307H45.5867V67.4972L63.6218 84.9283C63.9288 85.2354 63.9288 85.6962 63.6218 86.0033C63.4683 86.1569 63.3916 86.2337 63.1613 86.3105L19.263 96.8305L58.6334 116.719L71.3731 110.269C71.6033 110.192 72.0638 110.115 72.294 110.269C72.601 110.576 72.601 111.036 72.601 111.036L71.6801 117.717C71.5266 118.024 71.2196 118.331 70.9126 118.331C55.9473 118.255 41.0587 118.255 26.0934 118.255Z" fill="#9D60FF"/>
</svg>
