<svg width="163" height="23" viewBox="0 0 163 23" fill="none" xmlns="http://www.w3.org/2000/svg">
<path d="M68.0139 4.92871C69.7275 4.92871 71.1963 5.38818 72.2979 6.34888C73.4403 7.26781 74.1747 8.56267 74.5011 10.1499H71.0331C70.7883 9.52337 70.3803 8.98036 69.8499 8.6462C69.3195 8.27028 68.6667 8.1032 67.9731 8.1032C66.9939 8.1032 66.2187 8.47913 65.6475 9.18921C65.0763 9.89929 64.7499 10.86 64.7499 12.0713C64.7499 13.2826 65.0355 14.2433 65.6475 14.9534C66.2187 15.6635 67.0347 16.0394 67.9731 16.0394C68.7075 16.0394 69.3195 15.8723 69.8499 15.4964C70.3803 15.1205 70.7883 14.6193 71.0331 13.9927H74.5011C74.1747 15.58 73.4403 16.833 72.2979 17.752C71.1555 18.6709 69.7275 19.1721 68.0139 19.1721C66.7083 19.1721 65.5251 18.8798 64.5459 18.295C63.5258 17.7102 62.7914 16.8748 62.2202 15.7888C61.6898 14.7028 61.4042 13.4915 61.4042 12.1131C61.4042 10.7347 61.6898 9.52337 62.2202 8.43736C62.7506 7.35135 63.5258 6.51596 64.5459 5.93118C65.5251 5.2211 66.6675 4.92871 68.0139 4.92871ZM52.6322 4.92871C54.3458 4.92871 55.733 5.34641 56.8346 6.22357C57.9362 7.05896 58.6298 8.22851 58.8746 9.69044H55.4066C55.1618 9.18921 54.8354 8.81328 54.3458 8.47913C53.8562 8.18674 53.285 8.01966 52.6322 8.01966C51.6122 8.01966 50.7554 8.39559 50.1434 9.10567C49.5314 9.81575 49.205 10.7765 49.205 12.0295C49.205 13.3662 49.5314 14.3686 50.1842 15.0787C50.837 15.7888 51.7754 16.123 52.9994 16.123C53.7746 16.123 54.4682 15.9141 55.0394 15.4546C55.6106 14.9952 56.0594 14.3686 56.3042 13.575H52.1426V11.1524H59.0378V14.4939C58.793 15.3293 58.385 16.0812 57.8138 16.7495C57.2426 17.4596 56.5082 18.0026 55.6514 18.4621C54.7538 18.8798 53.7746 19.1304 52.6322 19.1304C51.245 19.1304 50.0618 18.838 49.0417 18.2532C48.0217 17.6684 47.2057 16.833 46.6753 15.747C46.1041 14.661 45.8185 13.4497 45.8185 12.0713C45.8185 10.6929 46.1041 9.4816 46.6753 8.39559C47.2465 7.30958 48.0217 6.47419 49.0417 5.88941C50.1026 5.2211 51.2858 4.92871 52.6322 4.92871ZM43.1665 19.0051H39.8617L34.3536 10.4423V19.0051H31.0488V5.05402H34.3536L39.8617 13.7003V5.05402H43.1665V19.0051Z" fill="#9D60FF"/>
<path d="M154.756 8.02006C155.939 8.02006 156.918 8.35422 157.653 8.98076C158.387 9.60731 158.836 10.4845 158.958 11.5705H157.285C157.204 10.9439 156.959 10.4009 156.51 9.98324C156.061 9.56554 155.49 9.35669 154.715 9.35669C154.103 9.35669 153.613 9.52377 153.246 9.81616C152.879 10.1085 152.716 10.5262 152.716 11.0692C152.716 11.4452 152.838 11.7793 153.083 12.0299C153.328 12.2806 153.613 12.4476 153.981 12.573C154.348 12.6983 154.837 12.8236 155.449 12.9906C156.225 13.1577 156.877 13.3666 157.326 13.5337C157.816 13.7425 158.224 14.0349 158.55 14.4526C158.877 14.8703 159.081 15.4551 159.081 16.1651C159.081 17.0423 158.754 17.7524 158.101 18.2954C157.449 18.8384 156.592 19.1308 155.531 19.1308C154.266 19.1308 153.246 18.8384 152.43 18.2118C151.614 17.5853 151.165 16.7499 151.043 15.6221H152.757C152.838 16.2904 153.083 16.7917 153.613 17.2094C154.103 17.6271 154.756 17.8359 155.572 17.8359C156.184 17.8359 156.633 17.6688 157 17.3765C157.326 17.0423 157.53 16.6664 157.53 16.1234C157.53 15.7057 157.408 15.3715 157.163 15.1209C156.918 14.8703 156.633 14.6614 156.265 14.5361C155.898 14.4108 155.409 14.2855 154.797 14.1184C154.021 13.9513 153.369 13.7425 152.92 13.5754C152.471 13.4083 152.063 13.116 151.737 12.6983C151.41 12.2806 151.247 11.7376 151.247 11.0692C151.247 10.1503 151.573 9.44023 152.226 8.85546C152.716 8.31245 153.613 8.02006 154.756 8.02006ZM147.738 13.116C147.779 12.3223 147.657 11.654 147.371 11.111C147.085 10.568 146.677 10.1921 146.147 9.8997C145.617 9.60731 145.086 9.52377 144.474 9.52377C143.495 9.52377 142.72 9.81616 142.067 10.4427C141.414 11.0692 141.047 11.9464 141.006 13.116H147.738ZM149.533 12.9906C149.533 13.3666 149.493 13.7007 149.452 13.9931H141.006C141.047 15.2462 141.373 16.1651 142.026 16.7917C142.679 17.4182 143.454 17.7106 144.393 17.7106C145.249 17.7106 145.943 17.5018 146.514 17.0423C147.085 16.5828 147.453 15.9981 147.575 15.288H149.452C149.329 16.0398 149.044 16.7081 148.595 17.2929C148.146 17.8777 147.575 18.3372 146.881 18.6713C146.188 19.0055 145.372 19.1725 144.474 19.1725C143.454 19.1725 142.557 18.9637 141.781 18.5042C141.006 18.0448 140.394 17.4182 139.945 16.5828C139.497 15.7474 139.293 14.7867 139.293 13.6172C139.293 12.4894 139.497 11.4869 139.945 10.6515C140.394 9.81616 141.006 9.14784 141.781 8.73015C142.557 8.27068 143.454 8.06183 144.474 8.06183C145.494 8.06183 146.392 8.27068 147.167 8.73015C147.942 9.18961 148.513 9.77439 148.921 10.5262C149.329 11.2363 149.533 12.0717 149.533 12.9906ZM134.519 10.3592C134.845 9.60731 135.376 9.02253 136.029 8.60484C136.681 8.18714 137.497 7.97829 138.436 7.97829V9.94147H137.905C136.926 9.94147 136.11 10.1921 135.498 10.7351C134.886 11.2363 134.56 12.1135 134.56 13.3248V19.0055H132.805V8.18714H134.56V10.3592H134.519ZM130.316 8.18714V19.0055H128.562V16.4575C128.276 17.3347 127.828 18.003 127.134 18.4625C126.44 18.9219 125.665 19.1725 124.727 19.1725C123.503 19.1725 122.524 18.7549 121.748 17.9612C120.973 17.1676 120.606 15.9981 120.606 14.4944V8.18714H122.36V14.3273C122.36 15.4133 122.646 16.2487 123.176 16.8335C123.707 17.4182 124.441 17.7106 125.38 17.7106C126.359 17.7106 127.093 17.3765 127.705 16.7499C128.276 16.1234 128.562 15.1627 128.562 13.9513V8.18714H130.316ZM119.137 17.4182V19.0055H117.832C116.771 19.0055 115.955 18.7549 115.424 18.2118C114.894 17.6688 114.608 16.7917 114.608 15.5804V9.73262H113.017V8.18714H114.608V5.47212H116.363V8.18714H119.096V9.73262H116.363V15.6221C116.363 16.3322 116.485 16.7917 116.73 17.0423C116.975 17.2929 117.424 17.4182 118.036 17.4182H119.137ZM107.632 7.97829C108.856 7.97829 109.876 8.39599 110.61 9.18961C111.385 9.98324 111.752 11.1528 111.752 12.6983V19.0055H109.998V12.8653C109.998 11.7793 109.712 10.9439 109.182 10.4009C108.652 9.81616 107.917 9.52377 106.979 9.52377C106 9.52377 105.265 9.85793 104.653 10.4845C104.082 11.111 103.796 12.0717 103.796 13.283V19.0055H102.042V8.18714H103.796V10.7351C104.082 9.85793 104.531 9.18961 105.224 8.68838C105.959 8.22891 106.734 7.97829 107.632 7.97829ZM98.3699 13.116C98.4107 12.3223 98.2883 11.654 98.0027 11.111C97.7171 10.568 97.3091 10.1921 96.7787 9.8997C96.2483 9.60731 95.7179 9.52377 95.1059 9.52377C94.1267 9.52377 93.3515 9.81616 92.6987 10.4427C92.0459 11.0692 91.6787 11.9464 91.6379 13.116H98.3699ZM100.165 12.9906C100.165 13.3666 100.124 13.7007 100.084 13.9931H91.6379C91.6787 15.2462 92.0051 16.1651 92.6579 16.7917C93.3107 17.4182 94.0859 17.7106 95.0243 17.7106C95.8811 17.7106 96.5747 17.5018 97.1459 17.0423C97.7171 16.5828 98.0843 15.9981 98.2067 15.288H100.084C99.9611 16.0398 99.6755 16.7081 99.2267 17.2929C98.7779 17.8777 98.2067 18.3372 97.5131 18.6713C96.8195 19.0055 96.0035 19.1725 95.1059 19.1725C94.0859 19.1725 93.1883 18.9637 92.4131 18.5042C91.6379 18.0448 91.0259 17.4182 90.5771 16.5828C90.1282 15.7474 89.9242 14.7867 89.9242 13.6172C89.9242 12.4894 90.1282 11.4869 90.5771 10.6515C91.0259 9.81616 91.6379 9.14784 92.4131 8.73015C93.1883 8.27068 94.0859 8.06183 95.1059 8.06183C96.1259 8.06183 97.0235 8.27068 97.7987 8.73015C98.5739 9.18961 99.1451 9.77439 99.5531 10.5262C99.9611 11.2363 100.165 12.0717 100.165 12.9906ZM78.7858 5.09619L82.9066 17.0005L87.109 5.09619H89.0266L84.049 19.0055H81.8458L76.8682 5.09619H78.7858Z" fill="#9D60FF"/>
<path fill-rule="evenodd" clip-rule="evenodd" d="M3.38672 2.67334L8.64995 5.93137V20.3836L3.38672 17.1674V2.67334Z" fill="#9D60FF"/>
<path d="M3.38672 2.67334L8.64995 5.93137V20.3836L3.38672 17.1674V2.67334Z" stroke="#9D60FF" stroke-width="0.5669" stroke-miterlimit="22.9256"/>
<path fill-rule="evenodd" clip-rule="evenodd" d="M11.4248 2.67334L16.688 5.93137V20.3836L11.4248 17.1674V2.67334Z" fill="#9D60FF"/>
<path d="M11.4248 2.67334L16.688 5.93137V20.3836L11.4248 17.1674V2.67334Z" stroke="#9D60FF" stroke-width="0.5669" stroke-miterlimit="22.9256"/>
<path fill-rule="evenodd" clip-rule="evenodd" d="M19.4209 2.67334L24.6841 5.93137V20.3836L19.4209 17.1674V2.67334Z" fill="#9D60FF"/>
<path d="M19.4209 2.67334L24.6841 5.93137V20.3836L19.4209 17.1674V2.67334Z" stroke="#9D60FF" stroke-width="0.5669" stroke-miterlimit="22.9256"/>
</svg>
