<svg width="337" height="46" viewBox="0 0 337 46" fill="none" xmlns="http://www.w3.org/2000/svg">
<path d="M141.4 10.0703C144.962 10.0703 148.016 11.0091 150.306 12.972C152.681 14.8495 154.208 17.4952 154.886 20.7382H147.676C147.167 19.4581 146.319 18.3486 145.217 17.6659C144.114 16.8978 142.757 16.5564 141.315 16.5564C139.279 16.5564 137.667 17.3245 136.48 18.7753C135.292 20.2262 134.614 22.189 134.614 24.664C134.614 27.139 135.207 29.1019 136.48 30.5527C137.667 32.0035 139.364 32.7716 141.315 32.7716C142.842 32.7716 144.114 32.4302 145.217 31.6621C146.319 30.8941 147.167 29.8699 147.676 28.5898H154.886C154.208 31.8328 152.681 34.3931 150.306 36.2707C147.931 38.1482 144.962 39.1724 141.4 39.1724C138.685 39.1724 136.225 38.5749 134.19 37.3801C132.069 36.1853 130.542 34.4785 129.355 32.2595C128.252 30.0406 127.658 27.5657 127.658 24.7493C127.658 21.933 128.252 19.4581 129.355 17.2391C130.457 15.0202 132.069 13.3134 134.19 12.1185C136.225 10.6677 138.6 10.0703 141.4 10.0703ZM109.421 10.0703C112.984 10.0703 115.868 10.9237 118.158 12.716C120.448 14.4228 121.89 16.8124 122.399 19.7994H115.189C114.68 18.7753 114.002 18.0072 112.984 17.3245C111.966 16.7271 110.779 16.3857 109.421 16.3857C107.301 16.3857 105.52 17.1538 104.247 18.6046C102.975 20.0555 102.296 22.0184 102.296 24.5787C102.296 27.3096 102.975 29.3579 104.332 30.8087C105.689 32.2595 107.64 32.9423 110.185 32.9423C111.796 32.9423 113.238 32.5156 114.426 31.5768C115.613 30.638 116.547 29.3579 117.055 27.7364H108.404V22.7865H122.739V29.6139C122.23 31.3208 121.381 32.857 120.194 34.2224C119.006 35.6733 117.48 36.7827 115.698 37.7215C113.832 38.5749 111.796 39.087 109.421 39.087C106.537 39.087 104.078 38.4896 101.957 37.2948C99.8365 36.1 98.14 34.3931 97.0373 32.1742C95.8498 29.9553 95.2561 27.4803 95.2561 24.664C95.2561 21.8477 95.8498 19.3727 97.0373 17.1538C98.2248 14.9349 99.8365 13.228 101.957 12.0332C104.162 10.6677 106.622 10.0703 109.421 10.0703ZM89.7426 38.831H82.872L71.4209 21.3356V38.831H64.5503V10.3263H71.4209L82.872 27.9924V10.3263H89.7426V38.831Z" fill="#9D60FF"/>
<path d="M321.732 16.3856C324.192 16.3856 326.228 17.0684 327.755 18.3485C329.282 19.6287 330.215 21.4209 330.469 23.6398H326.991C326.822 22.3597 326.313 21.2502 325.38 20.3968C324.447 19.5433 323.259 19.1166 321.648 19.1166C320.375 19.1166 319.357 19.458 318.594 20.0554C317.831 20.6528 317.491 21.5062 317.491 22.6157C317.491 23.3838 317.746 24.0665 318.255 24.5786C318.764 25.0907 319.357 25.432 320.121 25.6881C320.884 25.9441 321.902 26.2001 323.174 26.5415C324.786 26.8829 326.143 27.3096 327.076 27.651C328.094 28.0777 328.942 28.6751 329.621 29.5285C330.299 30.3819 330.724 31.5767 330.724 33.0276C330.724 34.8198 330.045 36.2706 328.688 37.3801C327.331 38.4895 325.549 39.0869 323.344 39.0869C320.715 39.0869 318.594 38.4895 316.898 37.2094C315.201 35.9292 314.268 34.2224 314.014 31.9181H317.576C317.746 33.2836 318.255 34.3077 319.357 35.1612C320.375 36.0146 321.732 36.4413 323.429 36.4413C324.701 36.4413 325.634 36.0999 326.398 35.5025C327.076 34.8198 327.5 34.0517 327.5 32.9422C327.5 32.0888 327.246 31.4061 326.737 30.894C326.228 30.3819 325.634 29.9552 324.871 29.6992C324.107 29.4432 323.09 29.1871 321.817 28.8458C320.206 28.5044 318.848 28.0777 317.915 27.7363C316.982 27.3949 316.134 26.7975 315.456 25.9441C314.777 25.0907 314.438 23.9812 314.438 22.6157C314.438 20.7382 315.116 19.2873 316.473 18.0925C317.491 16.9831 319.357 16.3856 321.732 16.3856ZM307.143 26.7975C307.228 25.176 306.973 23.8105 306.38 22.701C305.786 21.5916 304.938 20.8235 303.835 20.2261C302.732 19.6287 301.629 19.458 300.357 19.458C298.321 19.458 296.71 20.0554 295.353 21.3356C293.995 22.6157 293.232 24.4079 293.147 26.7975H307.143ZM310.875 26.5415C310.875 27.3096 310.79 27.9923 310.705 28.5897H293.147C293.232 31.15 293.911 33.0276 295.268 34.3077C296.625 35.5879 298.237 36.1853 300.187 36.1853C301.969 36.1853 303.411 35.7586 304.598 34.8198C305.786 33.881 306.549 32.6862 306.804 31.2354H310.705C310.451 32.7715 309.857 34.137 308.924 35.3318C307.991 36.5266 306.804 37.4654 305.362 38.1482C303.92 38.8309 302.223 39.1723 300.357 39.1723C298.237 39.1723 296.37 38.7456 294.759 37.8068C293.147 36.868 291.875 35.5879 290.942 33.881C290.009 32.1741 289.585 30.2112 289.585 27.8216C289.585 25.5174 290.009 23.4691 290.942 21.7623C291.875 20.0554 293.147 18.6899 294.759 17.8365C296.37 16.8977 298.237 16.471 300.357 16.471C302.478 16.471 304.344 16.8977 305.955 17.8365C307.567 18.7753 308.755 19.9701 309.603 21.5062C310.451 22.9571 310.875 24.6639 310.875 26.5415ZM279.66 21.1649C280.339 19.6287 281.442 18.4339 282.799 17.5805C284.156 16.727 285.852 16.3003 287.803 16.3003V20.3114H286.701C284.665 20.3114 282.968 20.8235 281.696 21.933C280.424 22.9571 279.745 24.7493 279.745 27.2242V38.8309H276.098V16.727H279.745V21.1649H279.66ZM270.924 16.727V38.8309H267.276V33.625C266.683 35.4172 265.75 36.7827 264.308 37.7215C262.866 38.6602 261.254 39.1723 259.303 39.1723C256.758 39.1723 254.723 38.3189 253.111 36.6973C251.499 35.0758 250.736 32.6862 250.736 29.6138V16.727H254.383V29.2725C254.383 31.4914 254.977 33.1983 256.08 34.3931C257.182 35.5879 258.709 36.1853 260.66 36.1853C262.696 36.1853 264.223 35.5025 265.495 34.2224C266.683 32.9422 267.276 30.9793 267.276 28.5044V16.727H270.924ZM247.682 35.5879V38.8309H244.968C242.763 38.8309 241.066 38.3189 239.963 37.2094C238.861 36.0999 238.267 34.3077 238.267 31.8328V19.8847H234.959V16.727H238.267V11.1797H241.914V16.727H247.597V19.8847H241.914V31.9181C241.914 33.3689 242.169 34.3077 242.678 34.8198C243.187 35.3318 244.12 35.5879 245.392 35.5879H247.682ZM223.762 16.3003C226.307 16.3003 228.428 17.1537 229.954 18.7753C231.566 20.3968 232.329 22.7864 232.329 25.9441V38.8309H228.682V26.2855C228.682 24.0665 228.088 22.3597 226.986 21.2502C225.883 20.0554 224.356 19.458 222.405 19.458C220.369 19.458 218.843 20.1407 217.57 21.4209C216.383 22.701 215.789 24.6639 215.789 27.1389V38.8309H212.142V16.727H215.789V21.933C216.383 20.1407 217.316 18.7753 218.758 17.7511C220.285 16.8124 221.896 16.3003 223.762 16.3003ZM204.508 26.7975C204.592 25.176 204.338 23.8105 203.744 22.701C203.15 21.5916 202.302 20.8235 201.2 20.2261C200.097 19.6287 198.994 19.458 197.722 19.458C195.686 19.458 194.074 20.0554 192.717 21.3356C191.36 22.6157 190.597 24.4079 190.512 26.7975H204.508ZM208.24 26.5415C208.24 27.3096 208.155 27.9923 208.07 28.5897H190.512C190.597 31.15 191.275 33.0276 192.632 34.3077C193.99 35.5879 195.601 36.1853 197.552 36.1853C199.333 36.1853 200.775 35.7586 201.963 34.8198C203.15 33.881 203.914 32.6862 204.168 31.2354H208.07C207.816 32.7715 207.222 34.137 206.289 35.3318C205.356 36.5266 204.168 37.4654 202.726 38.1482C201.284 38.8309 199.588 39.1723 197.722 39.1723C195.601 39.1723 193.735 38.7456 192.124 37.8068C190.512 36.868 189.24 35.5879 188.307 33.881C187.373 32.1741 186.949 30.2112 186.949 27.8216C186.949 25.5174 187.373 23.4691 188.307 21.7623C189.24 20.0554 190.512 18.6899 192.124 17.8365C193.735 16.8977 195.601 16.471 197.722 16.471C199.842 16.471 201.708 16.8977 203.32 17.8365C204.932 18.7753 206.119 19.9701 206.967 21.5062C207.816 22.9571 208.24 24.6639 208.24 26.5415ZM163.793 10.4116L172.36 34.7344L181.097 10.4116H185.083L174.735 38.8309H170.155L159.806 10.4116H163.793Z" fill="#9D60FF"/>
<path fill-rule="evenodd" clip-rule="evenodd" d="M7.04053 5.46191L17.9826 12.1187V41.6474L7.04053 35.076V5.46191Z" fill="#9D60FF"/>
<path d="M7.04053 5.46191L17.9826 12.1187V41.6474L7.04053 35.076V5.46191Z" stroke="#9D60FF" stroke-width="0.5669" stroke-miterlimit="22.9256"/>
<path fill-rule="evenodd" clip-rule="evenodd" d="M23.7505 5.46191L34.6926 12.1187V41.6474L23.7505 35.076V5.46191Z" fill="#9D60FF"/>
<path d="M23.7505 5.46191L34.6926 12.1187V41.6474L23.7505 35.076V5.46191Z" stroke="#9D60FF" stroke-width="0.5669" stroke-miterlimit="22.9256"/>
<path fill-rule="evenodd" clip-rule="evenodd" d="M40.376 5.46191L51.3181 12.1187V41.6474L40.376 35.076V5.46191Z" fill="#9D60FF"/>
<path d="M40.376 5.46191L51.3181 12.1187V41.6474L40.376 35.076V5.46191Z" stroke="#9D60FF" stroke-width="0.5669" stroke-miterlimit="22.9256"/>
</svg>
