<svg width="343" height="47" viewBox="0 0 343 47" fill="none" xmlns="http://www.w3.org/2000/svg">
<path d="M143.917 10.2891C147.543 10.2891 150.651 11.2482 152.982 13.2538C155.399 15.1722 156.953 17.8753 157.644 21.1889H150.305C149.787 19.8809 148.924 18.7473 147.802 18.0497C146.679 17.2649 145.298 16.9161 143.83 16.9161C141.758 16.9161 140.118 17.7009 138.909 19.1833C137.701 20.6657 137.01 22.6712 137.01 25.2C137.01 27.7288 137.614 29.7343 138.909 31.2167C140.118 32.6991 141.845 33.4839 143.83 33.4839C145.384 33.4839 146.679 33.1351 147.802 32.3503C148.924 31.5655 149.787 30.5191 150.305 29.2111H157.644C156.953 32.5247 155.399 35.1406 152.982 37.059C150.564 38.9774 147.543 40.0238 143.917 40.0238C141.154 40.0238 138.65 39.4134 136.578 38.1926C134.42 36.9718 132.866 35.2278 131.657 32.9607C130.535 30.6935 129.931 28.1648 129.931 25.2872C129.931 22.4097 130.535 19.8809 131.657 17.6137C132.78 15.3466 134.42 13.6026 136.578 12.3818C138.65 10.8995 141.068 10.2891 143.917 10.2891ZM111.369 10.2891C114.995 10.2891 117.931 11.161 120.262 12.9922C122.592 14.7362 124.06 17.1777 124.578 20.2297H117.24C116.722 19.1833 116.031 18.3985 114.995 17.7009C113.959 17.0905 112.751 16.7418 111.369 16.7418C109.211 16.7418 107.398 17.5265 106.103 19.0089C104.808 20.4913 104.117 22.4969 104.117 25.1128C104.117 27.9032 104.808 29.9959 106.189 31.4783C107.571 32.9607 109.556 33.6583 112.146 33.6583C113.787 33.6583 115.254 33.2223 116.463 32.2631C117.672 31.3039 118.621 29.9959 119.139 28.3392H110.333V23.2816H124.923V30.2575C124.405 32.0015 123.542 33.5711 122.333 34.9662C121.125 36.4486 119.571 37.5822 117.758 38.5414C115.859 39.4134 113.787 39.9366 111.369 39.9366C108.434 39.9366 105.93 39.3262 103.772 38.1054C101.614 36.8846 99.887 35.1406 98.7647 32.8735C97.556 30.6063 96.9517 28.0776 96.9517 25.2C96.9517 22.3225 97.556 19.7937 98.7647 17.5265C99.9733 15.2594 101.614 13.5154 103.772 12.2946C106.017 10.8995 108.52 10.2891 111.369 10.2891ZM91.34 39.675H84.3471L72.6922 21.7993V39.675H65.6992V10.5507H72.6922L84.3471 28.6007V10.5507H91.34V39.675Z" fill="#9D60FF"/>
<path d="M327.46 16.7421C329.964 16.7421 332.036 17.4397 333.59 18.7476C335.144 20.0556 336.093 21.8868 336.352 24.154H332.813C332.64 22.846 332.122 21.7124 331.172 20.8404C330.223 19.9684 329.014 19.5324 327.374 19.5324C326.079 19.5324 325.043 19.8812 324.266 20.4916C323.489 21.102 323.143 21.974 323.143 23.1076C323.143 23.8924 323.402 24.5899 323.92 25.1131C324.438 25.6363 325.043 25.9851 325.82 26.2467C326.597 26.5083 327.633 26.7699 328.928 27.1187C330.568 27.4675 331.949 27.9035 332.899 28.2523C333.935 28.6883 334.798 29.2987 335.489 30.1707C336.18 31.0426 336.611 32.2634 336.611 33.7458C336.611 35.577 335.921 37.0593 334.539 38.1929C333.158 39.3265 331.345 39.9369 329.1 39.9369C326.424 39.9369 324.266 39.3265 322.539 38.0185C320.812 36.7105 319.863 34.9666 319.604 32.6122H323.23C323.402 34.0074 323.92 35.0538 325.043 35.9258C326.079 36.7977 327.46 37.2337 329.187 37.2337C330.482 37.2337 331.431 36.8849 332.208 36.2745C332.899 35.577 333.331 34.7922 333.331 33.6586C333.331 32.7866 333.072 32.089 332.554 31.5658C332.036 31.0426 331.431 30.6066 330.654 30.345C329.877 30.0835 328.841 29.8219 327.546 29.4731C325.906 29.1243 324.525 28.6883 323.575 28.3395C322.625 27.9907 321.762 27.3803 321.071 26.5083C320.381 25.6363 320.035 24.5027 320.035 23.1076C320.035 21.1892 320.726 19.7068 322.107 18.4861C323.143 17.3525 325.043 16.7421 327.46 16.7421ZM312.611 27.3803C312.697 25.7235 312.438 24.3284 311.834 23.1948C311.23 22.0612 310.366 21.2764 309.244 20.666C308.122 20.0556 306.999 19.8812 305.704 19.8812C303.632 19.8812 301.992 20.4916 300.611 21.7996C299.229 23.1076 298.452 24.9387 298.366 27.3803H312.611ZM316.41 27.1187C316.41 27.9035 316.323 28.6011 316.237 29.2115H298.366C298.452 31.8274 299.143 33.7458 300.524 35.0538C301.906 36.3617 303.546 36.9721 305.532 36.9721C307.345 36.9721 308.812 36.5361 310.021 35.577C311.23 34.6178 312.007 33.397 312.266 31.9146H316.237C315.978 33.4842 315.374 34.8794 314.424 36.1002C313.474 37.3209 312.266 38.2801 310.798 38.9777C309.33 39.6753 307.604 40.0241 305.704 40.0241C303.546 40.0241 301.647 39.5881 300.006 38.6289C298.366 37.6697 297.071 36.3617 296.121 34.6178C295.172 32.8738 294.74 30.8682 294.74 28.4267C294.74 26.0723 295.172 23.9796 296.121 22.2356C297.071 20.4916 298.366 19.0964 300.006 18.2245C301.647 17.2653 303.546 16.8293 305.704 16.8293C307.863 16.8293 309.762 17.2653 311.402 18.2245C313.043 19.1836 314.251 20.4044 315.115 21.974C315.978 23.4564 316.41 25.2003 316.41 27.1187ZM284.639 21.6252C285.33 20.0556 286.452 18.8348 287.833 17.9629C289.215 17.0909 290.941 16.6549 292.927 16.6549V20.7532H291.805C289.733 20.7532 288.006 21.2764 286.711 22.41C285.416 23.4564 284.725 25.2875 284.725 27.8163V39.6753H281.013V17.0909H284.725V21.6252H284.639ZM275.747 17.0909V39.6753H272.034V34.3562C271.43 36.1874 270.48 37.5825 269.013 38.5417C267.545 39.5009 265.905 40.0241 263.919 40.0241C261.329 40.0241 259.257 39.1521 257.617 37.4953C255.977 35.8386 255.2 33.397 255.2 30.2579V17.0909H258.912V29.9091C258.912 32.1762 259.516 33.9202 260.639 35.141C261.761 36.3617 263.315 36.9721 265.301 36.9721C267.372 36.9721 268.926 36.2745 270.221 34.9666C271.43 33.6586 272.034 31.653 272.034 29.1243V17.0909H275.747ZM252.092 36.3617V39.6753H249.329C247.084 39.6753 245.358 39.1521 244.235 38.0185C243.113 36.8849 242.509 35.0538 242.509 32.525V20.3172H239.142V17.0909H242.509V11.423H246.221V17.0909H252.005V20.3172H246.221V32.6122C246.221 34.0946 246.48 35.0538 246.998 35.577C247.516 36.1001 248.466 36.3617 249.761 36.3617H252.092ZM227.746 16.6549C230.336 16.6549 232.494 17.5269 234.048 19.1836C235.688 20.8404 236.465 23.282 236.465 26.5083V39.6753H232.753V26.8571C232.753 24.5899 232.149 22.846 231.026 21.7124C229.904 20.4916 228.35 19.8812 226.364 19.8812C224.292 19.8812 222.738 20.5788 221.443 21.8868C220.235 23.1948 219.63 25.2003 219.63 27.7291V39.6753H215.918V17.0909H219.63V22.41C220.235 20.5788 221.184 19.1836 222.652 18.1373C224.206 17.1781 225.846 16.6549 227.746 16.6549ZM208.148 27.3803C208.235 25.7235 207.976 24.3284 207.371 23.1948C206.767 22.0612 205.904 21.2764 204.781 20.666C203.659 20.0556 202.537 19.8812 201.242 19.8812C199.17 19.8812 197.529 20.4916 196.148 21.7996C194.767 23.1076 193.99 24.9387 193.903 27.3803H208.148ZM211.947 27.1187C211.947 27.9035 211.861 28.6011 211.774 29.2115H193.903C193.99 31.8274 194.68 33.7458 196.062 35.0538C197.443 36.3617 199.083 36.9721 201.069 36.9721C202.882 36.9721 204.35 36.5361 205.558 35.577C206.767 34.6178 207.544 33.397 207.803 31.9146H211.774C211.515 33.4842 210.911 34.8794 209.961 36.1002C209.012 37.3209 207.803 38.2801 206.335 38.9777C204.868 39.6753 203.141 40.0241 201.242 40.0241C199.083 40.0241 197.184 39.5881 195.544 38.6289C193.903 37.6697 192.608 36.3617 191.659 34.6178C190.709 32.8738 190.277 30.8682 190.277 28.4267C190.277 26.0723 190.709 23.9796 191.659 22.2356C192.608 20.4916 193.903 19.0964 195.544 18.2245C197.184 17.2653 199.083 16.8293 201.242 16.8293C203.4 16.8293 205.299 17.2653 206.94 18.2245C208.58 19.1836 209.789 20.4044 210.652 21.974C211.515 23.4564 211.947 25.2003 211.947 27.1187ZM166.709 10.6382L175.428 35.4898L184.32 10.6382H188.378L177.845 39.6753H173.183L162.651 10.6382H166.709Z" fill="#9D60FF"/>
<path fill-rule="evenodd" clip-rule="evenodd" d="M7.16565 5.58057L18.3026 12.3821V42.5527L7.16565 35.8384V5.58057Z" fill="#9D60FF"/>
<path d="M7.16565 5.58057L18.3026 12.3821V42.5527L7.16565 35.8384V5.58057Z" stroke="#9D60FF" stroke-width="0.5669" stroke-miterlimit="22.9256"/>
<path fill-rule="evenodd" clip-rule="evenodd" d="M24.1732 5.58057L35.3101 12.3821V42.5527L24.1732 35.8384V5.58057Z" fill="#9D60FF"/>
<path d="M24.1732 5.58057L35.3101 12.3821V42.5527L24.1732 35.8384V5.58057Z" stroke="#9D60FF" stroke-width="0.5669" stroke-miterlimit="22.9256"/>
<path fill-rule="evenodd" clip-rule="evenodd" d="M41.0944 5.58057L52.2313 12.3821V42.5527L41.0944 35.8384V5.58057Z" fill="#9D60FF"/>
<path d="M41.0944 5.58057L52.2313 12.3821V42.5527L41.0944 35.8384V5.58057Z" stroke="#9D60FF" stroke-width="0.5669" stroke-miterlimit="22.9256"/>
</svg>
