<svg width="106" height="84" viewBox="0 0 106 84" fill="none" xmlns="http://www.w3.org/2000/svg">
<path d="M86.5779 68.3067H87.4998V72.448H90.0717V73.2275H86.5779V68.3067ZM83.4722 71.3761L82.5502 69.2324L81.6282 71.3761H83.4722ZM83.7634 72.1069H81.2886L80.8033 73.2275H79.8813L82.065 68.3067H82.9384L85.1706 73.2275H84.2001L83.7634 72.1069ZM76.8727 69.0862H75.2714V68.3067H79.4446V69.0862H77.8432V73.2275H76.9212V69.0862H76.8727ZM72.8936 68.3067H73.8156V73.2275H72.8936V68.3067ZM69.1086 71.0351C69.4968 71.0351 69.788 70.9376 70.0306 70.7915C70.2732 70.6453 70.3217 70.4017 70.3217 70.0607C70.3217 69.7683 70.2247 69.5247 70.0306 69.3298C69.8365 69.135 69.5453 69.0862 69.1086 69.0862H68.041V71.0351H69.1086ZM69.1571 68.3067C69.5939 68.3067 69.9335 68.3554 70.2732 68.5016C70.5644 68.6477 70.807 68.8426 71.0011 69.0862C71.1467 69.3298 71.2437 69.6709 71.2437 70.0119C71.2437 70.353 71.1467 70.694 71.0011 70.9376C70.8555 71.1812 70.6129 71.4248 70.2732 71.5223C69.9821 71.6684 69.5939 71.7172 69.1571 71.7172H68.041V73.1301H67.119V68.2093H69.1571V68.3067ZM64.0134 71.3761L63.0914 69.2324L62.1694 71.3761H64.0134ZM64.3046 72.1069H61.8297L61.3445 73.2275H60.4225L62.6062 68.3067H63.4796L65.7118 73.2275H64.7413L64.3046 72.1069ZM57.6565 73.2762C57.1713 73.2762 56.7345 73.1788 56.2978 72.9352C55.9096 72.7403 55.5699 72.3993 55.3758 72.0095C55.1332 71.6197 55.0361 71.1812 55.0361 70.694C55.0361 70.2068 55.1332 69.7683 55.3758 69.3786C55.6185 68.9888 55.9096 68.6965 56.2978 68.4529C56.686 68.258 57.1227 68.1118 57.6565 68.1118C58.0447 68.1118 58.4329 68.1605 58.7726 68.3067C59.1123 68.4529 59.4035 68.6477 59.5976 68.9401L59.0152 69.476C58.6756 69.0862 58.2388 68.8913 57.7051 68.8913C57.3654 68.8913 57.0742 68.9888 56.7831 69.135C56.5404 69.2811 56.2978 69.476 56.1522 69.7683C56.0067 70.0119 55.9096 70.3043 55.9096 70.6453C55.9096 70.9864 56.0067 71.2787 56.1522 71.5223C56.2978 71.7659 56.4919 72.0095 56.7831 72.1557C57.0257 72.3018 57.3654 72.3993 57.7051 72.3993C58.2388 72.3993 58.6756 72.2044 59.0152 71.8146L59.5976 72.3993C59.3549 72.6429 59.0638 72.8865 58.7726 73.0326C58.4329 73.2275 58.0933 73.2762 57.6565 73.2762ZM50.5232 73.2275V69.9632L48.9219 72.6429H48.5337L46.9323 69.9632V73.1788H46.0589V68.258H46.7868L48.7278 71.5223L50.6203 68.258H51.3482V73.1788H50.5232V73.2275ZM42.3709 72.448V73.2275H38.683V68.3067H42.2739V69.0862H39.605V70.353H41.9827V71.0838H39.605V72.448H42.3709ZM36.936 72.448V73.2275H33.2481V68.3067H36.839V69.0862H34.1701V70.353H36.5478V71.0838H34.1701V72.448H36.936ZM30.5792 70.0607C30.5792 69.7683 30.4821 69.5247 30.288 69.3298C30.0939 69.1837 29.8028 69.0862 29.366 69.0862H28.2985V71.0351H29.366C29.7542 71.0351 30.0454 70.9376 30.288 70.7915C30.4336 70.5966 30.5792 70.353 30.5792 70.0607ZM30.5792 73.2275L29.5601 71.7659C29.5116 71.7659 29.4631 71.7659 29.366 71.7659H28.2499V73.1788H27.328V68.258H29.366C29.8028 68.258 30.1424 68.3067 30.4821 68.4529C30.7733 68.599 31.0159 68.7939 31.21 69.0375C31.3556 69.2811 31.4526 69.6222 31.4526 69.9632C31.4526 70.353 31.3556 70.6453 31.1615 70.9376C30.9674 71.1812 30.7248 71.4248 30.3851 71.5223L31.5012 73.1301H30.5792V73.2275ZM25.2899 68.3067V73.2275H24.3679V71.1325H21.8445V73.2275H20.9226V68.3067H21.8445V70.353H24.3679V68.3067H25.2899ZM16.992 69.0862H15.3906V68.3067H19.5638V69.0862H17.9625V73.2275H17.0405V69.0862H16.992Z" fill="#9D60FF"/>
<path fill-rule="evenodd" clip-rule="evenodd" d="M52.61 7.64941C39.0713 7.64941 28.1045 18.6604 28.1045 32.2535C28.1045 45.8467 39.0713 56.8576 52.61 56.8576C66.1487 56.8576 77.164 45.8467 77.164 32.2535C77.164 18.6604 66.1972 7.64941 52.61 7.64941ZM52.61 9.50081C40.0903 9.50081 29.8999 19.7322 29.8999 32.3022C29.8999 44.8723 40.0903 55.1037 52.61 55.1037C65.1296 55.1037 75.32 44.8723 75.32 32.3022C75.32 19.7322 65.1781 9.50081 52.61 9.50081ZM51.6395 20.9015H54.6481C54.9877 20.9015 55.2789 21.1939 55.2789 21.5349V43.0209C55.2789 43.3619 54.9877 43.6542 54.6481 43.6542H51.6395C51.2998 43.6542 51.0086 43.3619 51.0086 43.0209V21.5349C50.9601 21.1939 51.2513 20.9015 51.6395 20.9015ZM61.2961 17.15H64.3047C64.6444 17.15 64.9355 17.4423 64.9355 17.7834V46.5775C64.9355 46.9185 64.6444 47.2109 64.3047 47.2109H61.2961C60.9564 47.2109 60.6653 46.9185 60.6653 46.5775V17.7834C60.6653 17.4423 60.9564 17.15 61.2961 17.15ZM40.7212 17.15H43.7298C44.0695 17.15 44.3606 17.4423 44.3606 17.7834V46.5775C44.3606 46.9185 44.0695 47.2109 43.7298 47.2109H40.7212C40.3815 47.2109 40.0903 46.9185 40.0903 46.5775V17.7834C40.0903 17.4423 40.3815 17.15 40.7212 17.15Z" fill="#9D60FF"/>
</svg>
