<svg width="193" height="154" viewBox="0 0 193 154" fill="none" xmlns="http://www.w3.org/2000/svg">
<path d="M158.558 125.601H160.253V133.216H164.982V134.649H158.558V125.601ZM152.847 131.245L151.152 127.303L149.457 131.245H152.847ZM153.383 132.589H148.832L147.94 134.649H146.245L150.26 125.601H151.866L155.97 134.649H154.186L153.383 132.589ZM140.712 127.034H137.768V125.601H145.441V127.034H142.497V134.649H140.802V127.034H140.712ZM133.396 125.601H135.091V134.649H133.396V125.601ZM126.436 130.618C127.15 130.618 127.685 130.439 128.131 130.17C128.577 129.901 128.667 129.453 128.667 128.826C128.667 128.289 128.488 127.841 128.131 127.482C127.774 127.124 127.239 127.034 126.436 127.034H124.473V130.618H126.436ZM126.525 125.601C127.328 125.601 127.953 125.691 128.577 125.959C129.113 126.228 129.559 126.586 129.916 127.034C130.184 127.482 130.362 128.109 130.362 128.737C130.362 129.364 130.184 129.991 129.916 130.439C129.648 130.887 129.202 131.335 128.577 131.514C128.042 131.783 127.328 131.872 126.525 131.872H124.473V134.47H122.778V125.422H126.525V125.601ZM117.067 131.245L115.372 127.303L113.676 131.245H117.067ZM117.602 132.589H113.052L112.159 134.649H110.464L114.479 125.601H116.086L120.19 134.649H118.405L117.602 132.589ZM105.378 134.739C104.486 134.739 103.683 134.56 102.88 134.112C102.166 133.753 101.541 133.126 101.184 132.41C100.738 131.693 100.56 130.887 100.56 129.991C100.56 129.095 100.738 128.289 101.184 127.572C101.631 126.855 102.166 126.318 102.88 125.87C103.594 125.511 104.397 125.243 105.378 125.243C106.092 125.243 106.806 125.332 107.43 125.601C108.055 125.87 108.59 126.228 108.947 126.766L107.877 127.751C107.252 127.034 106.449 126.676 105.467 126.676C104.843 126.676 104.307 126.855 103.772 127.124C103.326 127.393 102.88 127.751 102.612 128.289C102.344 128.737 102.166 129.274 102.166 129.901C102.166 130.528 102.344 131.066 102.612 131.514C102.88 131.962 103.237 132.41 103.772 132.678C104.218 132.947 104.843 133.126 105.467 133.126C106.449 133.126 107.252 132.768 107.877 132.051L108.947 133.126C108.501 133.574 107.966 134.022 107.43 134.291C106.806 134.649 106.181 134.739 105.378 134.739ZM92.2617 134.649V128.647L89.3171 133.574H88.6033L85.6588 128.647V134.56H84.0527V125.511H85.3911L88.9602 131.514L92.4401 125.511H93.7785V134.56H92.2617V134.649ZM77.2714 133.216V134.649H70.49V125.601H77.0929V127.034H72.1854V129.364H76.5575V130.707H72.1854V133.216H77.2714ZM67.2778 133.216V134.649H60.4965V125.601H67.0994V127.034H62.1918V129.364H66.564V130.707H62.1918V133.216H67.2778ZM55.589 128.826C55.589 128.289 55.4105 127.841 55.0536 127.482C54.6967 127.214 54.1613 127.034 53.3583 127.034H51.3953V130.618H53.3583C54.0721 130.618 54.6075 130.439 55.0536 130.17C55.3213 129.812 55.589 129.364 55.589 128.826ZM55.589 134.649L53.7152 131.962C53.626 131.962 53.5367 131.962 53.3583 131.962H51.306V134.56H49.6107V125.511H53.3583C54.1613 125.511 54.7859 125.601 55.4105 125.87C55.9459 126.139 56.392 126.497 56.7489 126.945C57.0166 127.393 57.1951 128.02 57.1951 128.647C57.1951 129.364 57.0166 129.901 56.6597 130.439C56.3028 130.887 55.8567 131.335 55.2321 131.514L57.2843 134.47H55.589V134.649ZM45.8631 125.601V134.649H44.1678V130.797H39.528V134.649H37.8326V125.601H39.528V129.364H44.1678V125.601H45.8631ZM30.6052 127.034H27.6606V125.601H35.3342V127.034H32.3897V134.649H30.6944V127.034H30.6052Z" fill="#9D60FF"/>
<path fill-rule="evenodd" clip-rule="evenodd" d="M96.0987 14.0649C71.2041 14.0649 51.0386 34.3116 51.0386 59.3064C51.0386 84.3011 71.2041 104.548 96.0987 104.548C120.993 104.548 141.248 84.3011 141.248 59.3064C141.248 34.3116 121.082 14.0649 96.0987 14.0649ZM96.0987 17.4692C73.0779 17.4692 54.34 36.2825 54.34 59.396C54.34 82.5094 73.0779 101.323 96.0987 101.323C119.119 101.323 137.857 82.5094 137.857 59.396C137.857 36.2825 119.209 17.4692 96.0987 17.4692ZM94.3141 38.4326H99.8463C100.471 38.4326 101.006 38.9701 101.006 39.5972V79.1051C101.006 79.7322 100.471 80.2697 99.8463 80.2697H94.3141C93.6895 80.2697 93.1542 79.7322 93.1542 79.1051V39.5972C93.0649 38.9701 93.6003 38.4326 94.3141 38.4326ZM112.07 31.5344H117.603C118.227 31.5344 118.763 32.0719 118.763 32.699V85.6449C118.763 86.272 118.227 86.8096 117.603 86.8096H112.07C111.446 86.8096 110.911 86.272 110.911 85.6449V32.699C110.911 32.0719 111.446 31.5344 112.07 31.5344ZM74.2378 31.5344H79.77C80.3946 31.5344 80.9299 32.0719 80.9299 32.699V85.6449C80.9299 86.272 80.3946 86.8096 79.77 86.8096H74.2378C73.6132 86.8096 73.0779 86.272 73.0779 85.6449V32.699C73.0779 32.0719 73.6132 31.5344 74.2378 31.5344Z" fill="#9D60FF"/>
</svg>
