<svg width="187" height="149" viewBox="0 0 187 149" fill="none" xmlns="http://www.w3.org/2000/svg">
<path d="M153.629 121.523H155.271V128.891H159.853V130.277H153.629V121.523ZM148.096 126.984L146.453 123.17L144.81 126.984H148.096ZM148.614 128.284H144.205L143.341 130.277H141.698L145.589 121.523H147.145L151.122 130.277H149.393L148.614 128.284ZM136.338 122.91H133.485V121.523H140.92V122.91H138.067V130.277H136.424V122.91H136.338ZM129.249 121.523H130.891V130.277H129.249V121.523ZM122.505 126.377C123.197 126.377 123.716 126.204 124.148 125.944C124.58 125.684 124.667 125.25 124.667 124.643C124.667 124.123 124.494 123.69 124.148 123.343C123.802 122.997 123.283 122.91 122.505 122.91H120.603V126.377H122.505ZM122.592 121.523C123.37 121.523 123.975 121.61 124.58 121.87C125.099 122.13 125.531 122.476 125.877 122.91C126.136 123.343 126.309 123.95 126.309 124.557C126.309 125.163 126.136 125.77 125.877 126.204C125.618 126.637 125.185 127.07 124.58 127.244C124.062 127.504 123.37 127.59 122.592 127.59H120.603V130.104H118.961V121.35H122.592V121.523ZM113.428 126.984L111.785 123.17L110.142 126.984H113.428ZM113.946 128.284H109.537L108.673 130.277H107.03L110.921 121.523H112.477L116.454 130.277H114.725L113.946 128.284ZM102.102 130.364C101.238 130.364 100.46 130.191 99.6815 129.757C98.9899 129.411 98.3847 128.804 98.0389 128.111C97.6066 127.417 97.4337 126.637 97.4337 125.77C97.4337 124.903 97.6066 124.123 98.0389 123.43C98.4712 122.736 98.9899 122.216 99.6815 121.783C100.373 121.436 101.151 121.176 102.102 121.176C102.794 121.176 103.485 121.263 104.091 121.523C104.696 121.783 105.215 122.13 105.56 122.65L104.523 123.603C103.918 122.91 103.14 122.563 102.189 122.563C101.583 122.563 101.065 122.736 100.546 122.997C100.114 123.257 99.6815 123.603 99.4221 124.123C99.1628 124.557 98.9899 125.077 98.9899 125.684C98.9899 126.29 99.1628 126.81 99.4221 127.244C99.6815 127.677 100.027 128.111 100.546 128.371C100.978 128.631 101.583 128.804 102.189 128.804C103.14 128.804 103.918 128.457 104.523 127.764L105.56 128.804C105.128 129.237 104.609 129.671 104.091 129.931C103.485 130.277 102.88 130.364 102.102 130.364ZM89.3935 130.277V124.47L86.5405 129.237H85.8489L82.9959 124.47V130.191H81.4397V121.436H82.7365L86.1947 127.244L89.5664 121.436H90.8632V130.191H89.3935V130.277ZM74.8692 128.891V130.277H68.2987V121.523H74.6963V122.91H69.9413V125.163H74.1776V126.464H69.9413V128.891H74.8692ZM65.1864 128.891V130.277H58.6159V121.523H65.0134V122.91H60.2585V125.163H64.4947V126.464H60.2585V128.891H65.1864ZM53.8609 124.643C53.8609 124.123 53.688 123.69 53.3422 123.343C52.9963 123.083 52.4776 122.91 51.6995 122.91H49.7975V126.377H51.6995C52.3912 126.377 52.9099 126.204 53.3422 125.944C53.6015 125.597 53.8609 125.163 53.8609 124.643ZM53.8609 130.277L52.0454 127.677C51.9589 127.677 51.8724 127.677 51.6995 127.677H49.7111V130.191H48.0685V121.436H51.6995C52.4776 121.436 53.0828 121.523 53.688 121.783C54.2067 122.043 54.639 122.39 54.9848 122.823C55.2441 123.257 55.4171 123.863 55.4171 124.47C55.4171 125.163 55.2441 125.684 54.8983 126.204C54.5525 126.637 54.1202 127.07 53.5151 127.244L55.5035 130.104H53.8609V130.277ZM44.4374 121.523V130.277H42.7948V126.55H38.2992V130.277H36.6565V121.523H38.2992V125.163H42.7948V121.523H44.4374ZM29.6538 122.91H26.8008V121.523H34.2358V122.91H31.3828V130.277H29.7402V122.91H29.6538Z" fill="#9D60FF"/>
<path fill-rule="evenodd" clip-rule="evenodd" d="M93.1109 13.6084C68.9903 13.6084 49.4517 33.1977 49.4517 57.3809C49.4517 81.5642 68.9903 101.153 93.1109 101.153C117.232 101.153 136.857 81.5642 136.857 57.3809C136.857 33.1977 117.318 13.6084 93.1109 13.6084ZM93.1109 16.9022C70.8058 16.9022 52.6505 35.1046 52.6505 57.4676C52.6505 79.8306 70.8058 98.0331 93.1109 98.0331C115.416 98.0331 133.571 79.8306 133.571 57.4676C133.571 35.1046 115.503 16.9022 93.1109 16.9022ZM91.3818 37.1849H96.742C97.3472 37.1849 97.8659 37.705 97.8659 38.3117V76.5369C97.8659 77.1436 97.3472 77.6637 96.742 77.6637H91.3818C90.7767 77.6637 90.2579 77.1436 90.2579 76.5369V38.3117C90.1715 37.705 90.6902 37.1849 91.3818 37.1849ZM108.586 30.5107H113.946C114.552 30.5107 115.07 31.0307 115.07 31.6375V82.8644C115.07 83.4711 114.552 83.9912 113.946 83.9912H108.586C107.981 83.9912 107.462 83.4711 107.462 82.8644V31.6375C107.462 31.0307 107.981 30.5107 108.586 30.5107ZM71.9297 30.5107H77.2898C77.895 30.5107 78.4137 31.0307 78.4137 31.6375V82.8644C78.4137 83.4711 77.895 83.9912 77.2898 83.9912H71.9297C71.3245 83.9912 70.8058 83.4711 70.8058 82.8644V31.6375C70.8058 31.0307 71.3245 30.5107 71.9297 30.5107Z" fill="#9D60FF"/>
</svg>
