<svg width="253" height="100" viewBox="0 0 253 100" fill="none" xmlns="http://www.w3.org/2000/svg">
<path d="M139.805 50.2087H136.051V22.6024H139.805V50.2087ZM153.568 50.2087V25.9385H145.477V22.6024H164.996V25.9385H157.239V50.2087H153.568ZM176.841 30.8592L171.837 43.3697H176.841H181.846L176.841 30.8592ZM164.996 50.2087L176.841 22.6024L188.686 50.2087H184.516L183.014 46.6224H176.841H170.669L169.167 50.2087H164.996ZM198.53 32.5273L198.446 50.2087H194.359V23.1862L211.459 41.2846V23.1862H215.546V50.2087L198.53 32.5273ZM229.81 51.2095C225.473 51.2095 222.637 48.9576 220.718 45.1211L223.888 43.7033C225.056 46.0385 227.141 47.9568 229.81 47.9568C232.73 47.9568 235.65 46.2888 235.65 43.036C235.65 42.2854 235.483 41.6182 235.066 41.0344C234.649 40.4506 234.065 39.9501 233.314 39.3663C231.145 37.9485 228.976 37.1144 226.807 35.9468C225.89 35.4464 225.223 34.946 224.722 34.4456C223.971 33.7783 223.387 33.0277 222.97 32.1103C222.553 31.2762 222.386 30.3588 222.386 29.4414C222.386 28.524 222.637 27.6065 223.054 26.6891C223.471 25.7717 224.138 25.021 224.972 24.3538C225.723 23.77 226.641 23.2696 227.725 22.936C228.809 22.6024 229.81 22.4355 230.978 22.4355C233.397 22.4355 236.4 23.8534 237.735 26.2721L234.982 28.1903C233.898 26.4389 232.23 25.6883 230.895 25.6883C229.977 25.6883 229.143 25.8551 228.392 26.1887C227.725 26.5223 227.141 27.0227 226.724 27.6065C226.307 28.1903 226.14 28.7742 226.14 29.4414C226.14 30.4422 226.474 31.1928 227.141 31.8601C227.808 32.5273 228.976 33.1945 230.561 33.9451C231.896 34.6124 233.231 35.2796 234.565 36.0302C235.65 36.614 236.484 37.2813 237.151 37.8651C238.736 39.2829 239.487 41.0344 239.487 43.036C239.403 48.2904 234.565 51.2095 229.81 51.2095ZM118.784 50.2087V25.9385H110.693V22.6024H130.212V25.9385H122.454V50.2087H118.784Z" fill="#9D60FF"/>
<path d="M232.98 78.4823C232.647 78.4823 232.396 78.4823 232.146 78.3989H232.063H231.979L231.646 78.3155C231.312 78.2321 230.895 78.1487 230.478 77.9818C229.393 77.6482 228.476 77.0644 227.725 76.2304C227.642 76.147 227.642 76.0636 227.642 75.9802C227.642 75.8968 227.725 75.8134 227.808 75.73L228.059 75.5632C228.142 75.5632 228.226 75.4798 228.309 75.4798C228.392 75.4798 228.559 75.5632 228.643 75.6466C229.227 76.3138 229.977 76.8142 230.895 77.1478C231.228 77.2312 231.562 77.3146 231.896 77.398C231.979 77.398 231.979 77.398 232.063 77.398C232.146 77.398 232.146 77.398 232.229 77.398C232.313 77.398 232.313 77.398 232.313 77.398C232.563 77.398 232.813 77.398 233.064 77.398C233.648 77.398 234.315 77.3146 234.982 77.1478C235.65 76.981 236.233 76.7308 236.734 76.3138C237.735 75.6466 238.235 74.7291 238.402 73.5615C238.402 73.4781 238.402 73.3947 238.402 73.2279C238.402 72.5607 238.235 71.9768 237.902 71.4764C237.568 70.976 237.068 70.559 236.4 70.0586C235.733 69.6416 234.815 69.1411 233.564 68.5573L233.23 68.3905C233.147 68.3905 232.98 68.3071 232.73 68.1403L232.563 68.0569L232.063 67.8067L231.312 67.4731C230.811 67.1395 230.311 66.8893 229.894 66.5557C228.893 65.7216 228.392 64.6374 228.392 63.4698V63.3864C228.392 62.2187 228.809 61.3847 229.56 60.7175C230.311 60.0502 231.145 59.6332 232.146 59.383C232.73 59.2162 233.397 59.1328 233.981 59.1328C234.148 59.1328 234.315 59.1328 234.565 59.1328C235.316 59.2162 235.983 59.383 236.651 59.6332C237.318 59.8834 237.902 60.3005 238.402 60.7175C238.486 60.8009 238.486 60.8843 238.486 60.9677C238.486 61.0511 238.402 61.1345 238.319 61.2179L238.069 61.3847C237.985 61.4681 237.902 61.4681 237.818 61.4681C237.735 61.4681 237.568 61.4681 237.485 61.3847C237.068 61.0511 236.651 60.8009 236.067 60.5507C235.483 60.3004 234.899 60.217 234.315 60.1336C234.231 60.1336 234.065 60.1336 233.814 60.1336C233.23 60.1336 232.647 60.217 232.063 60.3839C231.479 60.5507 230.978 60.8009 230.561 61.1345C229.727 61.7183 229.31 62.5523 229.31 63.5532V63.6366C229.31 64.554 229.727 65.388 230.645 66.0552C230.978 66.3055 231.395 66.6391 231.896 66.8893C231.979 66.8893 232.146 67.0561 232.563 67.2229L233.147 67.4731L233.397 67.6399L233.648 67.7233L233.981 67.8901L234.482 68.1403L235.066 68.3905C235.399 68.5573 235.733 68.7241 236.067 68.8909C236.817 69.308 237.401 69.725 237.818 70.142C238.819 71.0594 239.32 72.1437 239.32 73.3947C239.32 73.4781 239.32 73.6449 239.32 73.8951C239.236 74.8125 238.903 75.6466 238.319 76.3138C237.735 76.981 236.984 77.5648 236.067 77.9818C235.149 78.2321 234.148 78.4823 232.98 78.4823ZM212.627 59.6332C212.627 59.383 212.794 59.2996 213.044 59.2996H223.471C223.721 59.2996 223.888 59.383 223.888 59.6332V59.8834C223.888 60.1336 223.721 60.217 223.471 60.217H213.795V69.8084H222.136C222.386 69.8084 222.553 69.8918 222.553 70.142V70.3922C222.553 70.6424 222.386 70.7258 222.136 70.7258H213.795V77.398H223.471C223.721 77.398 223.888 77.4814 223.888 77.7316V77.9818C223.888 78.2321 223.721 78.3155 223.471 78.3155H213.044C212.794 78.3155 212.627 78.2321 212.627 77.9818V59.6332ZM200.365 71.6432C201.532 71.6432 202.617 71.393 203.618 70.8092C204.619 70.3088 205.37 69.6416 205.954 68.7241C206.537 67.8901 206.871 66.8893 206.871 65.8884C206.871 64.8876 206.537 63.8868 205.954 63.0527C205.37 62.2187 204.535 61.4681 203.534 60.9677C202.533 60.4673 201.366 60.217 200.198 60.217H198.53V71.6432H200.365ZM207.705 77.815C207.789 77.8984 207.789 77.9818 207.789 78.0653C207.789 78.1487 207.789 78.2321 207.705 78.2321C207.622 78.2321 207.538 78.3155 207.455 78.3155H207.121C207.038 78.3155 206.955 78.3155 206.955 78.3155C206.871 78.3155 206.871 78.2321 206.788 78.2321L202.784 72.3105C202.033 72.4773 201.282 72.6441 200.532 72.6441H198.696V78.0653C198.696 78.1487 198.696 78.2321 198.613 78.3155C198.53 78.3989 198.446 78.3989 198.363 78.3989H198.029C197.946 78.3989 197.862 78.3989 197.779 78.3155C197.695 78.2321 197.695 78.1487 197.695 78.0653V59.7166C197.695 59.6332 197.695 59.5498 197.779 59.4664C197.862 59.383 197.946 59.383 198.029 59.383H200.365C201.783 59.383 203.034 59.7166 204.285 60.3005C205.453 60.8843 206.371 61.7183 207.121 62.7191C207.789 63.72 208.122 64.8042 208.122 66.0552C208.122 66.8893 207.956 67.7233 207.622 68.4739C207.288 69.2246 206.788 69.9752 206.12 70.559C205.453 71.1428 204.702 71.6432 203.868 72.0603L207.705 77.815ZM185.6 78.3155C184.432 78.3155 183.348 78.0653 182.347 77.5648C181.346 77.0644 180.595 76.3972 180.011 75.5632C179.427 74.7291 179.177 73.8117 179.177 72.8109V59.6332C179.177 59.5498 179.177 59.4664 179.26 59.383C179.344 59.2996 179.427 59.2996 179.511 59.2996H179.844C179.928 59.2996 180.011 59.2996 180.095 59.383C180.178 59.4664 180.178 59.5498 180.178 59.6332V72.8109C180.178 73.6449 180.428 74.3955 180.929 75.1462C181.429 75.8134 182.097 76.3972 182.847 76.8142C183.682 77.2312 184.599 77.398 185.517 77.398C186.518 77.398 187.352 77.2312 188.186 76.8142C189.02 76.3972 189.687 75.8134 190.105 75.1462C190.605 74.4789 190.855 73.6449 190.855 72.8109V59.6332C190.855 59.5498 190.855 59.4664 190.939 59.383C191.022 59.2996 191.106 59.2996 191.189 59.2996H191.523C191.606 59.2996 191.689 59.2996 191.773 59.383C191.856 59.4664 191.856 59.5498 191.856 59.6332V72.8109C191.856 73.8117 191.606 74.7291 191.022 75.5632C190.438 76.3972 189.687 77.0644 188.686 77.5648C187.852 78.0653 186.768 78.3155 185.6 78.3155ZM162.994 59.6332C162.994 59.5498 162.994 59.4664 163.078 59.383C163.161 59.2996 163.245 59.2996 163.328 59.2996H174.339C174.422 59.2996 174.589 59.2996 174.589 59.383C174.673 59.4664 174.673 59.5498 174.673 59.6332V59.8834C174.673 59.9668 174.673 60.0502 174.589 60.1336C174.506 60.217 174.422 60.217 174.339 60.217H169.417V77.9818C169.417 78.0653 169.417 78.1487 169.334 78.2321C169.251 78.3155 169.167 78.3155 169.084 78.3155H168.75C168.667 78.3155 168.583 78.3155 168.5 78.2321C168.416 78.1487 168.416 78.0653 168.416 77.9818V60.217H163.328C163.245 60.217 163.161 60.217 163.078 60.1336C162.994 60.0502 162.994 59.9668 162.994 59.8834V59.6332ZM157.572 59.6332C157.572 59.5498 157.572 59.4664 157.656 59.383C157.739 59.2996 157.823 59.2996 157.906 59.2996H158.24C158.323 59.2996 158.407 59.2996 158.49 59.383C158.573 59.4664 158.573 59.5498 158.573 59.6332V77.8984C158.573 77.9819 158.49 78.1487 158.407 78.1487C158.323 78.2321 158.24 78.2321 158.073 78.2321C157.989 78.2321 157.906 78.2321 157.823 78.1487C157.739 78.1487 157.656 78.0653 157.656 77.9818L146.645 61.7183V77.9818C146.645 78.0653 146.645 78.1487 146.562 78.2321C146.478 78.3155 146.395 78.3155 146.311 78.3155H145.978C145.894 78.3155 145.811 78.3155 145.727 78.2321C145.644 78.1487 145.644 78.0653 145.644 77.9818V59.8C145.644 59.7166 145.727 59.5498 145.811 59.5498C145.894 59.4664 145.978 59.4664 146.144 59.4664C146.311 59.4664 146.478 59.5498 146.562 59.7166L157.572 75.8968V59.6332ZM129.628 59.6332C129.628 59.383 129.795 59.2996 130.045 59.2996H140.472C140.722 59.2996 140.889 59.383 140.889 59.6332V59.8834C140.889 60.1336 140.722 60.217 140.472 60.217H130.796V69.8084H139.138C139.388 69.8084 139.555 69.8918 139.555 70.142V70.3922C139.555 70.6424 139.388 70.7258 139.138 70.7258H130.796V77.398H140.472C140.722 77.398 140.889 77.4814 140.889 77.7316V77.9818C140.889 78.2321 140.722 78.3155 140.472 78.3155H130.045C129.795 78.3155 129.628 78.2321 129.628 77.9818V59.6332ZM110.693 59.8C110.693 59.7166 110.693 59.7166 110.693 59.6332C110.693 59.5498 110.776 59.4664 110.776 59.383C110.86 59.2996 110.943 59.2996 111.11 59.2996H111.443C111.527 59.2996 111.61 59.2996 111.694 59.383C111.777 59.383 111.777 59.4664 111.861 59.5498L118.033 75.5632L124.206 59.5498C124.206 59.4664 124.29 59.4664 124.373 59.383C124.456 59.383 124.54 59.2996 124.623 59.2996H124.873C125.04 59.2996 125.124 59.2996 125.207 59.383C125.291 59.4664 125.291 59.5498 125.291 59.6332C125.291 59.7166 125.291 59.7166 125.291 59.7166L118.534 77.9818C118.534 78.0653 118.45 78.1487 118.367 78.1487C118.284 78.2321 118.2 78.2321 118.117 78.2321C118.033 78.2321 117.95 78.2321 117.867 78.1487C117.783 78.0653 117.783 78.0653 117.7 77.9818L110.693 59.8Z" fill="#9D60FF"/>
<path d="M14.0138 22.3521L53.6363 81.4847L92.1744 24.0201H77.9937L53.4695 60.5506L27.8608 22.3521H54.3036V40.8675L52.6353 38.3654V24.0201H30.9472L53.4695 57.5481L77.0761 22.3521H95.2608C81.4137 43.036 67.4833 63.7199 53.6363 84.4872L12.0118 22.3521H14.0138ZM101.767 12.6773H5.42199L4.33759 11.0093H102.852L101.767 12.6773Z" fill="#9D60FF"/>
</svg>
