<svg width="119" height="47" viewBox="0 0 119 47" fill="none" xmlns="http://www.w3.org/2000/svg">
<path d="M65.6882 23.5122H63.9245V10.5845H65.6882V23.5122ZM72.1551 23.5122V12.1467H68.3533V10.5845H77.5245V12.1467H73.8796V23.5122H72.1551ZM83.09 14.4511L80.7384 20.3095H83.09H85.4416L83.09 14.4511ZM77.5245 23.5122L83.09 10.5845L88.6554 23.5122H86.6957L85.9903 21.8327H83.09H80.1897L79.4842 23.5122H77.5245ZM93.2802 15.2322L93.241 23.5122H91.3205V10.8579L99.3551 19.3331V10.8579H101.276V23.5122L93.2802 15.2322ZM107.978 23.9808C105.94 23.9808 104.607 22.9263 103.706 21.1297L105.195 20.4658C105.744 21.5593 106.723 22.4576 107.978 22.4576C109.349 22.4576 110.721 21.6765 110.721 20.1533C110.721 19.8018 110.643 19.4893 110.447 19.2159C110.251 18.9425 109.976 18.7082 109.624 18.4348C108.605 17.7709 107.586 17.3803 106.567 16.8335C106.136 16.5992 105.822 16.3648 105.587 16.1305C105.234 15.818 104.96 15.4665 104.764 15.0369C104.568 14.6463 104.489 14.2167 104.489 13.7871C104.489 13.3575 104.607 12.9279 104.803 12.4982C104.999 12.0686 105.313 11.7171 105.704 11.4046C106.057 11.1313 106.488 10.8969 106.998 10.7407C107.507 10.5845 107.978 10.5063 108.526 10.5063C109.663 10.5063 111.074 11.1703 111.701 12.3029L110.408 13.2012C109.898 12.3811 109.114 12.0296 108.487 12.0296C108.056 12.0296 107.664 12.1077 107.311 12.2639C106.998 12.4201 106.723 12.6545 106.527 12.9278C106.332 13.2012 106.253 13.4746 106.253 13.7871C106.253 14.2558 106.41 14.6073 106.723 14.9197C107.037 15.2322 107.586 15.5446 108.33 15.8961C108.957 16.2086 109.585 16.521 110.212 16.8726C110.721 17.146 111.113 17.4584 111.427 17.7318C112.171 18.3958 112.524 19.2159 112.524 20.1533C112.485 22.6139 110.212 23.9808 107.978 23.9808ZM55.8115 23.5122V12.1467H52.0098V10.5845H61.181V12.1467H57.536V23.5122H55.8115Z" fill="#9D60FF"/>
<path d="M109.467 36.752C109.31 36.752 109.193 36.752 109.075 36.713H109.036H108.997L108.84 36.6739C108.683 36.6349 108.487 36.5958 108.291 36.5177C107.782 36.3615 107.351 36.0881 106.998 35.6975C106.959 35.6584 106.959 35.6194 106.959 35.5803C106.959 35.5413 106.998 35.5022 107.037 35.4632L107.155 35.385C107.194 35.385 107.233 35.346 107.272 35.346C107.311 35.346 107.39 35.385 107.429 35.4241C107.703 35.7366 108.056 35.9709 108.487 36.1271C108.644 36.1662 108.801 36.2052 108.957 36.2443C108.997 36.2443 108.997 36.2443 109.036 36.2443C109.075 36.2443 109.075 36.2443 109.114 36.2443C109.153 36.2443 109.153 36.2443 109.153 36.2443C109.271 36.2443 109.389 36.2443 109.506 36.2443C109.78 36.2443 110.094 36.2052 110.408 36.1271C110.721 36.049 110.995 35.9318 111.231 35.7366C111.701 35.4241 111.936 34.9945 112.015 34.4477C112.015 34.4086 112.015 34.3696 112.015 34.2915C112.015 33.979 111.936 33.7056 111.779 33.4713C111.623 33.2369 111.387 33.0417 111.074 32.8073C110.76 32.612 110.329 32.3777 109.741 32.1043L109.585 32.0262C109.545 32.0262 109.467 31.9871 109.349 31.909L109.271 31.87L109.036 31.7528L108.683 31.5966C108.448 31.4403 108.213 31.3232 108.017 31.1669C107.546 30.7764 107.311 30.2686 107.311 29.7219V29.6828C107.311 29.136 107.507 28.7454 107.86 28.433C108.213 28.1205 108.605 27.9253 109.075 27.8081C109.349 27.73 109.663 27.6909 109.937 27.6909C110.016 27.6909 110.094 27.6909 110.212 27.6909C110.564 27.73 110.878 27.8081 111.191 27.9253C111.505 28.0424 111.779 28.2377 112.015 28.433C112.054 28.472 112.054 28.5111 112.054 28.5502C112.054 28.5892 112.015 28.6283 111.975 28.6673L111.858 28.7454C111.819 28.7845 111.779 28.7845 111.74 28.7845C111.701 28.7845 111.623 28.7845 111.583 28.7454C111.387 28.5892 111.191 28.472 110.917 28.3549C110.643 28.2377 110.368 28.1987 110.094 28.1596C110.055 28.1596 109.976 28.1596 109.859 28.1596C109.585 28.1596 109.31 28.1987 109.036 28.2768C108.761 28.3549 108.526 28.472 108.33 28.6283C107.938 28.9017 107.742 29.2922 107.742 29.7609V29.8C107.742 30.2296 107.938 30.6202 108.37 30.9326C108.526 31.0498 108.722 31.206 108.957 31.3232C108.997 31.3232 109.075 31.4013 109.271 31.4794L109.545 31.5966L109.663 31.6747L109.781 31.7137L109.937 31.7918L110.172 31.909L110.447 32.0262C110.604 32.1043 110.76 32.1824 110.917 32.2605C111.27 32.4558 111.544 32.6511 111.74 32.8464C112.21 33.276 112.446 33.7837 112.446 34.3696C112.446 34.4086 112.446 34.4867 112.446 34.6039C112.406 35.0335 112.25 35.4241 111.975 35.7366C111.701 36.049 111.348 36.3224 110.917 36.5177C110.486 36.6349 110.016 36.752 109.467 36.752ZM99.9038 27.9253C99.9038 27.8081 99.9822 27.769 100.1 27.769H104.999C105.117 27.769 105.195 27.8081 105.195 27.9253V28.0424C105.195 28.1596 105.117 28.1987 104.999 28.1987H100.453V32.6901H104.372C104.489 32.6901 104.568 32.7292 104.568 32.8464V32.9635C104.568 33.0807 104.489 33.1198 104.372 33.1198H100.453V36.2443H104.999C105.117 36.2443 105.195 36.2833 105.195 36.4005V36.5177C105.195 36.6349 105.117 36.6739 104.999 36.6739H100.1C99.9822 36.6739 99.9038 36.6349 99.9038 36.5177V27.9253ZM94.1424 33.5494C94.6911 33.5494 95.2006 33.4322 95.671 33.1588C96.1413 32.9245 96.494 32.612 96.7684 32.1824C97.0427 31.7918 97.1995 31.3232 97.1995 30.8545C97.1995 30.3858 97.0427 29.9171 96.7684 29.5266C96.494 29.136 96.1021 28.7845 95.6318 28.5502C95.1614 28.3158 94.6127 28.1987 94.064 28.1987H93.2802V33.5494H94.1424ZM97.5914 36.4396C97.6306 36.4786 97.6306 36.5177 97.6306 36.5567C97.6306 36.5958 97.6306 36.6349 97.5914 36.6349C97.5522 36.6349 97.513 36.6739 97.4738 36.6739H97.3171C97.2779 36.6739 97.2387 36.6739 97.2387 36.6739C97.1995 36.6739 97.1995 36.6349 97.1603 36.6349L95.279 33.8618C94.9263 33.94 94.5735 34.0181 94.2208 34.0181H93.3586V36.5567C93.3586 36.5958 93.3586 36.6349 93.3194 36.6739C93.2802 36.713 93.241 36.713 93.2018 36.713H93.045C93.0058 36.713 92.9666 36.713 92.9274 36.6739C92.8882 36.6349 92.8882 36.5958 92.8882 36.5567V27.9643C92.8882 27.9253 92.8882 27.8862 92.9274 27.8471C92.9666 27.8081 93.0058 27.8081 93.045 27.8081H94.1424C94.8087 27.8081 95.3966 27.9643 95.9845 28.2377C96.5332 28.5111 96.9643 28.9017 97.3171 29.3703C97.6306 29.839 97.7874 30.3468 97.7874 30.9326C97.7874 31.3232 97.709 31.7137 97.5522 32.0652C97.3955 32.4168 97.1603 32.7683 96.8468 33.0417C96.5332 33.315 96.1805 33.5494 95.7885 33.7447L97.5914 36.4396ZM87.2052 36.6739C86.6565 36.6739 86.147 36.5567 85.6767 36.3224C85.2064 36.0881 84.8536 35.7756 84.5793 35.385C84.3049 34.9945 84.1874 34.5649 84.1874 34.0962V27.9253C84.1874 27.8862 84.1874 27.8471 84.2266 27.8081C84.2657 27.769 84.3049 27.769 84.3441 27.769H84.5009C84.5401 27.769 84.5793 27.769 84.6185 27.8081C84.6577 27.8471 84.6577 27.8862 84.6577 27.9253V34.0962C84.6577 34.4867 84.7753 34.8383 85.0104 35.1898C85.2456 35.5022 85.5591 35.7756 85.9119 35.9709C86.3038 36.1662 86.7349 36.2443 87.166 36.2443C87.6364 36.2443 88.0283 36.1662 88.4202 35.9709C88.8122 35.7756 89.1257 35.5022 89.3217 35.1898C89.5568 34.8773 89.6744 34.4867 89.6744 34.0962V27.9253C89.6744 27.8862 89.6744 27.8471 89.7136 27.8081C89.7528 27.769 89.792 27.769 89.8312 27.769H89.988C90.0271 27.769 90.0663 27.769 90.1055 27.8081C90.1447 27.8471 90.1447 27.8862 90.1447 27.9253V34.0962C90.1447 34.5649 90.0271 34.9945 89.7528 35.385C89.4784 35.7756 89.1257 36.0881 88.6554 36.3224C88.2635 36.5567 87.7539 36.6739 87.2052 36.6739ZM76.5839 27.9253C76.5839 27.8862 76.5839 27.8471 76.6231 27.8081C76.6623 27.769 76.7015 27.769 76.7407 27.769H81.9142C81.9534 27.769 82.0317 27.769 82.0317 27.8081C82.0709 27.8471 82.0709 27.8862 82.0709 27.9253V28.0424C82.0709 28.0815 82.0709 28.1205 82.0317 28.1596C81.9925 28.1987 81.9534 28.1987 81.9142 28.1987H79.6018V36.5177C79.6018 36.5567 79.6018 36.5958 79.5626 36.6349C79.5234 36.6739 79.4842 36.6739 79.445 36.6739H79.2882C79.249 36.6739 79.2098 36.6739 79.1706 36.6349C79.1314 36.5958 79.1314 36.5567 79.1314 36.5177V28.1987H76.7407C76.7015 28.1987 76.6623 28.1987 76.6231 28.1596C76.5839 28.1205 76.5839 28.0815 76.5839 28.0424V27.9253ZM74.0363 27.9253C74.0363 27.8862 74.0363 27.8471 74.0755 27.8081C74.1147 27.769 74.1539 27.769 74.1931 27.769H74.3499C74.3891 27.769 74.4283 27.769 74.4675 27.8081C74.5066 27.8471 74.5066 27.8862 74.5066 27.9253V36.4786C74.5066 36.5177 74.4675 36.5958 74.4283 36.5958C74.3891 36.6349 74.3499 36.6349 74.2715 36.6349C74.2323 36.6349 74.1931 36.6349 74.1539 36.5958C74.1147 36.5958 74.0755 36.5567 74.0755 36.5177L68.902 28.9017V36.5177C68.902 36.5567 68.902 36.5958 68.8628 36.6349C68.8236 36.6739 68.7844 36.6739 68.7452 36.6739H68.5885C68.5493 36.6739 68.5101 36.6739 68.4709 36.6349C68.4317 36.5958 68.4317 36.5567 68.4317 36.5177V28.0034C68.4317 27.9643 68.4709 27.8862 68.5101 27.8862C68.5493 27.8471 68.5885 27.8471 68.6669 27.8471C68.7453 27.8471 68.8236 27.8862 68.8628 27.9643L74.0363 35.5413V27.9253ZM60.9066 27.9253C60.9066 27.8081 60.985 27.769 61.1026 27.769H66.0017C66.1193 27.769 66.1977 27.8081 66.1977 27.9253V28.0424C66.1977 28.1596 66.1193 28.1987 66.0017 28.1987H61.4553V32.6901H65.3746C65.4922 32.6901 65.5706 32.7292 65.5706 32.8464V32.9635C65.5706 33.0807 65.4922 33.1198 65.3746 33.1198H61.4553V36.2443H66.0017C66.1193 36.2443 66.1977 36.2833 66.1977 36.4005V36.5177C66.1977 36.6349 66.1193 36.6739 66.0017 36.6739H61.1026C60.985 36.6739 60.9066 36.6349 60.9066 36.5177V27.9253ZM52.0098 28.0034C52.0098 27.9643 52.0098 27.9643 52.0098 27.9253C52.0098 27.8862 52.049 27.8471 52.049 27.8081C52.0882 27.769 52.1273 27.769 52.2057 27.769H52.3625C52.4017 27.769 52.4409 27.769 52.4801 27.8081C52.5193 27.8081 52.5193 27.8471 52.5585 27.8862L55.4588 35.385L58.3591 27.8862C58.3591 27.8471 58.3983 27.8471 58.4374 27.8081C58.4766 27.8081 58.5158 27.769 58.555 27.769H58.6726C58.751 27.769 58.7902 27.769 58.8294 27.8081C58.8686 27.8471 58.8686 27.8862 58.8686 27.9253C58.8686 27.9643 58.8686 27.9643 58.8686 27.9643L55.6939 36.5177C55.6939 36.5567 55.6547 36.5958 55.6155 36.5958C55.5763 36.6349 55.5372 36.6349 55.498 36.6349C55.4588 36.6349 55.4196 36.6349 55.3804 36.5958C55.3412 36.5567 55.3412 36.5567 55.302 36.5177L52.0098 28.0034Z" fill="#9D60FF"/>
<path d="M6.58449 10.467L25.2013 38.158L43.3085 11.2481H36.6457L25.1229 28.3548L13.0906 10.467H25.5148V19.1375L24.7309 17.9658V11.2481H14.5407L25.1229 26.9488L36.2145 10.467H44.7587C38.2526 20.153 31.7073 29.839 25.2013 39.564L5.64386 10.467H6.58449ZM47.8157 5.9364H2.5476L2.03809 5.15527H48.3252L47.8157 5.9364Z" fill="#9D60FF"/>
</svg>
