<svg width="248" height="98" viewBox="0 0 248 98" fill="none" xmlns="http://www.w3.org/2000/svg">
<path d="M137.042 49.2045H133.363V22.1503H137.042V49.2045ZM150.534 49.2045V25.4197H142.602V22.1503H161.736V25.4197H154.131V49.2045H150.534ZM173.347 30.242L168.441 42.5022H173.347H178.253L173.347 30.242ZM161.736 49.2045L173.347 22.1503L184.958 49.2045H180.869L179.398 45.6899H173.347H167.296L165.824 49.2045H161.736ZM194.606 31.8767L194.525 49.2045H190.518V22.7224L207.28 40.4589V22.7224H211.287V49.2045L194.606 31.8767ZM225.269 50.1853C221.017 50.1853 218.237 47.9785 216.356 44.2187L219.464 42.8292C220.608 45.1178 222.652 46.9977 225.269 46.9977C228.131 46.9977 230.993 45.363 230.993 42.1753C230.993 41.4397 230.829 40.7858 230.42 40.2137C230.011 39.6415 229.439 39.1511 228.703 38.579C226.577 37.1895 224.451 36.3721 222.325 35.2278C221.426 34.7374 220.772 34.247 220.281 33.7566C219.545 33.1027 218.973 32.3671 218.564 31.468C218.155 30.6507 217.992 29.7516 217.992 28.8525C217.992 27.9535 218.237 27.0544 218.646 26.1553C219.055 25.2562 219.709 24.5206 220.526 23.8667C221.262 23.2946 222.162 22.8042 223.225 22.4772C224.288 22.1503 225.269 21.9868 226.414 21.9868C228.785 21.9868 231.729 23.3763 233.037 25.7466L230.339 27.6265C229.276 25.9101 227.64 25.1745 226.332 25.1745C225.433 25.1745 224.615 25.3379 223.879 25.6649C223.225 25.9918 222.652 26.4822 222.244 27.0544C221.835 27.6265 221.671 28.1987 221.671 28.8525C221.671 29.8334 221.998 30.569 222.652 31.2228C223.307 31.8767 224.451 32.5306 226.005 33.2662C227.313 33.9201 228.621 34.574 229.93 35.3096C230.993 35.8817 231.81 36.5356 232.464 37.1077C234.018 38.4972 234.754 40.2137 234.754 42.1753C234.672 47.3246 229.93 50.1853 225.269 50.1853ZM116.437 49.2045V25.4197H108.505V22.1503H127.639V25.4197H120.035V49.2045H116.437Z" fill="#9D60FF"/>
<path d="M228.376 76.9127C228.049 76.9127 227.804 76.9127 227.558 76.8309H227.477H227.395L227.068 76.7492C226.741 76.6675 226.332 76.5857 225.923 76.4223C224.86 76.0953 223.961 75.5232 223.225 74.7058C223.143 74.6241 223.143 74.5424 223.143 74.4606C223.143 74.3789 223.225 74.2972 223.307 74.2154L223.552 74.0519C223.634 74.0519 223.715 73.9702 223.797 73.9702C223.879 73.9702 224.042 74.0519 224.124 74.1337C224.697 74.7876 225.432 75.278 226.332 75.6049C226.659 75.6866 226.986 75.7684 227.313 75.8501C227.395 75.8501 227.395 75.8501 227.477 75.8501C227.558 75.8501 227.558 75.8501 227.64 75.8501C227.722 75.8501 227.722 75.8501 227.722 75.8501C227.967 75.8501 228.213 75.8501 228.458 75.8501C229.03 75.8501 229.684 75.7684 230.339 75.6049C230.993 75.4414 231.565 75.1962 232.056 74.7876C233.037 74.1337 233.527 73.2346 233.691 72.0903C233.691 72.0086 233.691 71.9268 233.691 71.7634C233.691 71.1095 233.527 70.5373 233.2 70.0469C232.873 69.5565 232.383 69.1479 231.729 68.6575C231.074 68.2488 230.175 67.7584 228.948 67.1862L228.621 67.0228C228.54 67.0228 228.376 66.941 228.131 66.7775L227.967 66.6958L227.477 66.4506L226.741 66.1237C226.25 65.7967 225.76 65.5515 225.351 65.2246C224.37 64.4072 223.879 63.3447 223.879 62.2004V62.1187C223.879 60.9744 224.288 60.157 225.024 59.5032C225.76 58.8493 226.577 58.4406 227.558 58.1954C228.131 58.0319 228.785 57.9502 229.357 57.9502C229.521 57.9502 229.684 57.9502 229.93 57.9502C230.666 58.0319 231.32 58.1954 231.974 58.4406C232.628 58.6858 233.2 59.0945 233.691 59.5032C233.773 59.5849 233.773 59.6666 233.773 59.7484C233.773 59.8301 233.691 59.9118 233.609 59.9936L233.364 60.157C233.282 60.2388 233.2 60.2388 233.119 60.2388C233.037 60.2388 232.873 60.2388 232.792 60.157C232.383 59.8301 231.974 59.5849 231.401 59.3397C230.829 59.0945 230.257 59.0127 229.684 58.931C229.603 58.931 229.439 58.931 229.194 58.931C228.621 58.931 228.049 59.0127 227.477 59.1762C226.904 59.3397 226.414 59.5849 226.005 59.9118C225.187 60.484 224.778 61.3013 224.778 62.2821V62.3639C224.778 63.263 225.187 64.0803 226.087 64.7342C226.414 64.9794 226.823 65.3063 227.313 65.5515C227.395 65.5515 227.558 65.715 227.967 65.8785L228.54 66.1237L228.785 66.2871L229.03 66.3689L229.357 66.5323L229.848 66.7775L230.42 67.0228C230.747 67.1862 231.074 67.3497 231.401 67.5132C232.137 67.9218 232.71 68.3305 233.119 68.7392C234.1 69.6383 234.59 70.7008 234.59 71.9268C234.59 72.0086 234.59 72.172 234.59 72.4172C234.509 73.3163 234.182 74.1337 233.609 74.7876C233.037 75.4414 232.301 76.0136 231.401 76.4223C230.502 76.6675 229.521 76.9127 228.376 76.9127ZM208.425 58.4406C208.425 58.1954 208.588 58.1137 208.834 58.1137H219.055C219.3 58.1137 219.463 58.1954 219.463 58.4406V58.6858C219.463 58.931 219.3 59.0127 219.055 59.0127H209.57V68.4122H217.746C217.992 68.4122 218.155 68.494 218.155 68.7392V68.9844C218.155 69.2296 217.992 69.3113 217.746 69.3113H209.57V75.8501H219.055C219.3 75.8501 219.463 75.9318 219.463 76.177V76.4223C219.463 76.6675 219.3 76.7492 219.055 76.7492H208.834C208.588 76.7492 208.425 76.6675 208.425 76.4223V58.4406ZM196.405 70.2104C197.55 70.2104 198.613 69.9652 199.594 69.3931C200.575 68.9027 201.311 68.2488 201.884 67.3497C202.456 66.5323 202.783 65.5515 202.783 64.5707C202.783 63.5899 202.456 62.6091 201.884 61.7917C201.311 60.9744 200.493 60.2388 199.512 59.7484C198.531 59.2579 197.386 59.0127 196.242 59.0127H194.606V70.2104H196.405ZM203.601 76.2588C203.682 76.3405 203.682 76.4223 203.682 76.504C203.682 76.5857 203.682 76.6675 203.601 76.6675C203.519 76.6675 203.437 76.7492 203.355 76.7492H203.028C202.947 76.7492 202.865 76.7492 202.865 76.7492C202.783 76.7492 202.783 76.6675 202.701 76.6675L198.776 70.8643C198.04 71.0278 197.305 71.1912 196.569 71.1912H194.77V76.504C194.77 76.5857 194.77 76.6675 194.688 76.7492C194.606 76.8309 194.524 76.8309 194.443 76.8309H194.116C194.034 76.8309 193.952 76.8309 193.87 76.7492C193.789 76.6675 193.789 76.5857 193.789 76.504V58.5223C193.789 58.4406 193.789 58.3589 193.87 58.2771C193.952 58.1954 194.034 58.1954 194.116 58.1954H196.405C197.795 58.1954 199.022 58.5223 200.248 59.0945C201.393 59.6666 202.292 60.484 203.028 61.4648C203.682 62.4456 204.009 63.5082 204.009 64.7342C204.009 65.5515 203.846 66.3689 203.519 67.1045C203.192 67.8401 202.701 68.5757 202.047 69.1479C201.393 69.72 200.657 70.2104 199.839 70.6191L203.601 76.2588ZM181.932 76.7492C180.788 76.7492 179.725 76.504 178.743 76.0136C177.762 75.5232 177.026 74.8693 176.454 74.0519C175.882 73.2346 175.636 72.3355 175.636 71.3547V58.4406C175.636 58.3589 175.636 58.2771 175.718 58.1954C175.8 58.1137 175.882 58.1137 175.963 58.1137H176.29C176.372 58.1137 176.454 58.1137 176.536 58.1954C176.617 58.2771 176.617 58.3589 176.617 58.4406V71.3547C176.617 72.172 176.863 72.9077 177.353 73.6433C177.844 74.2971 178.498 74.8693 179.234 75.278C180.052 75.6866 180.951 75.8501 181.851 75.8501C182.832 75.8501 183.649 75.6866 184.467 75.278C185.285 74.8693 185.939 74.2971 186.348 73.6433C186.838 72.9894 187.084 72.172 187.084 71.3547V58.4406C187.084 58.3589 187.084 58.2771 187.165 58.1954C187.247 58.1137 187.329 58.1137 187.411 58.1137H187.738C187.82 58.1137 187.901 58.1137 187.983 58.1954C188.065 58.2771 188.065 58.3589 188.065 58.4406V71.3547C188.065 72.3355 187.82 73.2346 187.247 74.0519C186.675 74.8693 185.939 75.5232 184.958 76.0136C184.14 76.504 183.077 76.7492 181.932 76.7492ZM159.773 58.4406C159.773 58.3589 159.773 58.2771 159.855 58.1954C159.937 58.1137 160.019 58.1137 160.1 58.1137H170.894C170.976 58.1137 171.139 58.1137 171.139 58.1954C171.221 58.2771 171.221 58.3589 171.221 58.4406V58.6858C171.221 58.7675 171.221 58.8493 171.139 58.931C171.057 59.0127 170.976 59.0127 170.894 59.0127H166.069V76.4223C166.069 76.504 166.069 76.5857 165.988 76.6675C165.906 76.7492 165.824 76.7492 165.742 76.7492H165.415C165.334 76.7492 165.252 76.7492 165.17 76.6675C165.088 76.5857 165.088 76.504 165.088 76.4223V59.0127H160.1C160.019 59.0127 159.937 59.0127 159.855 58.931C159.773 58.8493 159.773 58.7675 159.773 58.6858V58.4406ZM154.459 58.4406C154.459 58.3589 154.459 58.2771 154.54 58.1954C154.622 58.1137 154.704 58.1137 154.786 58.1137H155.113C155.194 58.1137 155.276 58.1137 155.358 58.1954C155.44 58.2771 155.44 58.3589 155.44 58.4406V76.3405C155.44 76.4223 155.358 76.5857 155.276 76.5857C155.194 76.6675 155.113 76.6675 154.949 76.6675C154.867 76.6675 154.786 76.6675 154.704 76.5857C154.622 76.5857 154.54 76.504 154.54 76.4223L143.747 60.484V76.4223C143.747 76.504 143.747 76.5857 143.665 76.6675C143.584 76.7492 143.502 76.7492 143.42 76.7492H143.093C143.011 76.7492 142.929 76.7492 142.848 76.6675C142.766 76.5857 142.766 76.504 142.766 76.4223V58.6041C142.766 58.5223 142.848 58.3589 142.929 58.3589C143.011 58.2771 143.093 58.2771 143.256 58.2771C143.42 58.2771 143.584 58.3589 143.665 58.5223L154.459 74.3789V58.4406ZM127.067 58.4406C127.067 58.1954 127.23 58.1137 127.475 58.1137H137.696C137.942 58.1137 138.105 58.1954 138.105 58.4406V58.6858C138.105 58.931 137.942 59.0127 137.696 59.0127H128.211V68.4122H136.388C136.633 68.4122 136.797 68.494 136.797 68.7392V68.9844C136.797 69.2296 136.633 69.3113 136.388 69.3113H128.211V75.8501H137.696C137.942 75.8501 138.105 75.9318 138.105 76.177V76.4223C138.105 76.6675 137.942 76.7492 137.696 76.7492H127.475C127.23 76.7492 127.067 76.6675 127.067 76.4223V58.4406ZM108.505 58.6041C108.505 58.5223 108.505 58.5223 108.505 58.4406C108.505 58.3589 108.587 58.2771 108.587 58.1954C108.669 58.1137 108.751 58.1137 108.914 58.1137H109.241C109.323 58.1137 109.405 58.1137 109.487 58.1954C109.568 58.1954 109.568 58.2771 109.65 58.3589L115.701 74.0519L121.752 58.3589C121.752 58.2771 121.833 58.2771 121.915 58.1954C121.997 58.1954 122.079 58.1137 122.16 58.1137H122.406C122.569 58.1137 122.651 58.1137 122.733 58.1954C122.815 58.2771 122.815 58.3589 122.815 58.4406C122.815 58.5223 122.815 58.5223 122.815 58.5223L116.191 76.4223C116.191 76.504 116.11 76.5857 116.028 76.5857C115.946 76.6675 115.864 76.6675 115.783 76.6675C115.701 76.6675 115.619 76.6675 115.537 76.5857C115.456 76.504 115.456 76.504 115.374 76.4223L108.505 58.6041Z" fill="#9D60FF"/>
<path d="M13.7369 21.905L52.5764 79.8549L90.3528 23.5397H76.4524L52.4128 59.3395L27.3103 21.905H53.2305V40.0501L51.5952 37.5981V23.5397H30.3357L52.4128 56.3971L75.553 21.905H93.3782C79.8049 42.1752 66.1497 62.4454 52.5764 82.7974L11.7745 21.905H13.7369ZM99.7561 12.4238H5.31493L4.25195 10.7891H100.819L99.7561 12.4238Z" fill="#9D60FF"/>
</svg>
